<svg width="60" height="60" viewBox="0 0 60 60" fill="none" xmlns="http://www.w3.org/2000/svg">
<g clip-path="url(#clip0_3204_28198)">
<path d="M9.67742 55.1623V57.0978H0V30.9688H9.67742V32.9042V55.1623Z" fill="#656D78"/>
<path d="M36.7765 39.6804L55.4732 36.8363C55.6861 36.7975 55.9078 36.7772 56.1313 36.7772C58.27 36.7772 60.0023 38.5095 60.0023 40.6482C60.0023 42.0804 59.2281 43.3298 58.0668 43.9975L31.9378 58.0675L9.67969 55.1643V32.9062H18.3894L33.5732 35.8685C35.3926 36.1782 36.7765 37.7643 36.7765 39.6804Z" fill="#EAC6BB"/>
<path d="M58.0319 37.293C57.8703 38.5046 57.1503 39.5381 56.1313 40.1246L30.6884 53.3304L9.67969 50.4881V55.1623L31.9378 58.0655L58.0668 43.9956C59.2281 43.3278 60.0023 42.0794 60.0023 40.6462C60.0023 39.2023 59.2039 37.9588 58.0319 37.293Z" fill="#D3B1A9"/>
<path d="M4.87005 55.162C4.33586 55.162 3.89844 54.7295 3.89844 54.1943C3.89844 53.6591 4.32618 53.2266 4.86037 53.2266H4.87005C5.40521 53.2266 5.83779 53.6591 5.83779 54.1943C5.83779 54.7295 5.40521 55.162 4.87005 55.162Z" fill="#FFCE54"/>
<path d="M38.6812 39.3906L36.7709 39.6809C36.7709 41.8187 35.0376 43.5519 32.8999 43.5519C32.7905 43.5519 32.6812 43.5432 32.5738 43.5345C32.5718 43.5335 32.5709 43.5326 32.5689 43.5326L20.3947 42.5861C19.8654 42.5522 19.397 42.9442 19.3544 43.4764C19.3138 44.0097 19.7115 44.4742 20.2438 44.5158L32.326 45.4545V45.4584C32.5167 45.4777 32.7093 45.4864 32.8999 45.4864C36.1022 45.4864 38.7064 42.8822 38.7064 39.68C38.7064 39.5813 38.686 39.4884 38.6812 39.3906Z" fill="#D3B1A9"/>
<path d="M36.442 14.1211L46.4484 24.1953V30.9695H39.6742L37.7388 29.034V27.0985H35.8033V25.163H33.8678L29.6484 20.9437C31.2162 20.5179 32.7065 19.6856 33.9365 18.4566C35.1839 17.2072 36.0162 15.7072 36.442 14.1211Z" fill="#EDAB37"/>
<path d="M36.4461 14.1211C36.1935 15.0608 35.7803 15.9617 35.2422 16.8056L42.5815 24.1953V30.9695H46.4525V24.1953L36.4461 14.1211Z" fill="#E29F33"/>
<path d="M33.9366 4.76424C30.1624 0.990045 24.027 0.990045 20.2518 4.76424C16.4786 8.54714 16.4786 14.6729 20.2518 18.4568C22.797 21.002 26.4066 21.8246 29.6486 20.9439C31.2163 20.5181 32.7066 19.6859 33.9366 18.4568C35.185 17.2084 36.0163 15.7084 36.4431 14.1223C37.3141 10.8997 36.4721 7.29972 33.9366 4.76424ZM24.2205 9.67553C23.6853 9.67553 23.2479 9.24295 23.2479 8.70779C23.2479 8.17263 23.6757 7.74005 24.2099 7.74005H24.2205C24.7547 7.74005 25.1882 8.17263 25.1882 8.70779C25.1882 9.24295 24.7547 9.67553 24.2205 9.67553Z" fill="#FFCE54"/>
<path d="M33.9404 4.7651C31.5588 2.38349 28.2385 1.50865 25.163 2.13188C26.9611 2.49672 28.6769 3.37156 30.0695 4.7651C32.605 7.30059 33.4459 10.9006 32.5759 14.1232C32.1501 15.7103 31.3179 17.2093 30.0695 18.4577C28.8395 19.6877 27.3492 20.519 25.7814 20.9448C25.5753 21.0009 25.3643 21.0299 25.1562 21.0725C26.6427 21.3754 28.1843 21.3435 29.6524 20.9448C31.2201 20.519 32.7104 19.6867 33.9404 18.4577C35.1888 17.2093 36.0201 15.7093 36.4469 14.1232C37.3179 10.9006 36.4759 7.30059 33.9404 4.7651Z" fill="#F6BB42"/>
</g>
<defs>
<clipPath id="clip0_3204_28198">
<rect width="60" height="60" fill="white"/>
</clipPath>
</defs>
</svg>
