<svg width="32" height="32" viewBox="0 0 32 32" fill="none" xmlns="http://www.w3.org/2000/svg">
<g clip-path="url(#clip0_2975_24391)">
<g opacity="0.08">
<path d="M8.06625 31.9877C3.41 31.9877 0.28125 28.859 0.28125 24.2027V9.45688C0.28125 4.80063 3.40994 1.67188 8.06625 1.67188H23.9349C28.5911 1.67188 31.7199 4.80056 31.7199 9.45688V24.2027C31.7199 28.8589 28.5912 31.9877 23.9349 31.9877H8.06625Z" fill="#1C282B"/>
</g>
<path d="M8.06625 31.4408C3.41 31.4408 0.28125 28.3121 0.28125 23.6558V8.91C0.28125 4.25375 3.40994 1.125 8.06625 1.125H23.9349C28.5911 1.125 31.7199 4.25369 31.7199 8.91V23.6558C31.7199 28.3121 28.5912 31.4408 23.9349 31.4408H8.06625Z" fill="url(#paint0_linear_2975_24391)"/>
<path d="M0.28125 8.98469V8.91C0.28125 4.25375 3.40994 1.125 8.06625 1.125H23.9349C28.5911 1.125 31.7199 4.25369 31.7199 8.91V8.98469H0.28125Z" fill="#F4413D"/>
<g opacity="0.16">
<path d="M23.9349 1.125H8.06625C3.41 1.125 0.28125 4.25369 0.28125 8.91V23.6558C0.28125 28.3121 3.40994 31.4408 8.06625 31.4408H23.9349C28.5911 31.4408 31.7199 28.3121 31.7199 23.6558V8.91C31.7199 4.25369 28.5912 1.125 23.9349 1.125ZM30.5971 23.6558C30.5971 27.703 27.9821 30.318 23.9349 30.318H8.06625C4.01906 30.318 1.40406 27.703 1.40406 23.6558V8.91C1.40406 4.86281 4.01906 2.24781 8.06625 2.24781H23.9349C27.9821 2.24781 30.5971 4.86281 30.5971 8.91V23.6558Z" fill="url(#paint1_linear_2975_24391)"/>
</g>
<path d="M11.2782 18.4641H12.5677C14.0184 18.4641 15.016 17.5738 15.016 16.3381C15.016 15.1406 14.1104 14.2963 12.6138 14.2963C11.24 14.2963 10.2648 15.1254 10.1497 16.3532H9.13644C9.26669 14.5725 10.664 13.375 12.6593 13.375C14.609 13.375 16.0748 14.5646 16.0748 16.2072C16.0748 17.5967 15.1766 18.5943 13.7646 18.8475V18.8784C15.4606 18.9783 16.5509 20.0298 16.5509 21.5956C16.5509 23.4684 14.8779 24.804 12.721 24.804C10.4872 24.804 8.97531 23.5296 8.90625 21.7567H9.91956C10.0037 22.9923 11.1171 23.8828 12.7137 23.8828C14.3176 23.8828 15.4847 22.9385 15.4847 21.6259C15.4847 20.2134 14.3951 19.3539 12.6143 19.3539H11.2788C11.2782 19.3545 11.2782 18.4641 11.2782 18.4641Z" fill="#413D3D"/>
<path d="M20.97 14.6669H20.9391C20.7629 14.7742 18.844 16.1636 17.9688 16.7088V15.5882C18.2989 15.381 20.6472 13.7232 20.9543 13.5391H21.9828V24.6301H20.9695L20.97 14.6669Z" fill="#413D3D"/>
<path opacity="0.24" d="M7.57481 6.72775C8.50496 6.72775 9.259 5.97371 9.259 5.04356C9.259 4.11341 8.50496 3.35938 7.57481 3.35938C6.64466 3.35938 5.89062 4.11341 5.89062 5.04356C5.89062 5.97371 6.64466 6.72775 7.57481 6.72775Z" fill="#1C282B"/>
<path opacity="0.24" d="M24.4186 6.72775C25.3487 6.72775 26.1027 5.97371 26.1027 5.04356C26.1027 4.11341 25.3487 3.35938 24.4186 3.35938C23.4884 3.35938 22.7344 4.11341 22.7344 5.04356C22.7344 5.97371 23.4884 6.72775 24.4186 6.72775Z" fill="#1C282B"/>
<g opacity="0.16">
<path d="M23.9349 1.125H8.06625C3.41 1.125 0.28125 4.25369 0.28125 8.91V23.6558C0.28125 28.3121 3.40994 31.4408 8.06625 31.4408H23.9349C28.5911 31.4408 31.7199 28.3121 31.7199 23.6558V8.91C31.7199 4.25369 28.5912 1.125 23.9349 1.125ZM31.1584 23.6558C31.1584 27.9764 28.2554 30.8794 23.9349 30.8794H8.06625C3.74569 30.8794 0.842687 27.9764 0.842687 23.6558V8.91C0.842687 4.58944 3.74569 1.68644 8.06625 1.68644H23.9349C28.2554 1.68644 31.1584 4.58944 31.1584 8.91V23.6558Z" fill="#1C282B"/>
</g>
<path d="M7.577 5.61406C7.26713 5.61406 7.01562 5.36256 7.01562 5.05269V0.561375C7.01562 0.2515 7.26713 0 7.577 0C7.88688 0 8.13837 0.2515 8.13837 0.561375V5.05263C8.13844 5.3625 7.88688 5.61406 7.577 5.61406Z" fill="url(#paint2_linear_2975_24391)"/>
<path d="M24.4207 5.61406C24.1109 5.61406 23.8594 5.36256 23.8594 5.05269V0.561375C23.8594 0.2515 24.1109 0 24.4207 0C24.7306 0 24.9821 0.2515 24.9821 0.561375V5.05263C24.9821 5.3625 24.7306 5.61406 24.4207 5.61406Z" fill="url(#paint3_linear_2975_24391)"/>
</g>
<defs>
<linearGradient id="paint0_linear_2975_24391" x1="16.0005" y1="31.4392" x2="16.0005" y2="1.12325" gradientUnits="userSpaceOnUse">
<stop stop-color="#ECECEC"/>
<stop offset="1" stop-color="white"/>
</linearGradient>
<linearGradient id="paint1_linear_2975_24391" x1="16.0005" y1="31.4392" x2="16.0005" y2="1.12325" gradientUnits="userSpaceOnUse">
<stop/>
<stop offset="0.06" stop-opacity="0"/>
</linearGradient>
<linearGradient id="paint2_linear_2975_24391" x1="7.57694" y1="5.61231" x2="7.57694" y2="-0.00175042" gradientUnits="userSpaceOnUse">
<stop stop-color="white"/>
<stop offset="1" stop-color="#DCDCDC"/>
</linearGradient>
<linearGradient id="paint3_linear_2975_24391" x1="24.4208" y1="5.61231" x2="24.4208" y2="-0.00175042" gradientUnits="userSpaceOnUse">
<stop stop-color="white"/>
<stop offset="1" stop-color="#DCDCDC"/>
</linearGradient>
<clipPath id="clip0_2975_24391">
<rect width="32" height="32" fill="white"/>
</clipPath>
</defs>
</svg>
