<svg width="32" height="32" viewBox="0 0 32 32" fill="none" xmlns="http://www.w3.org/2000/svg">
<g clip-path="url(#clip0_2009_5723)">
<path d="M21.9974 0C20.2914 0.117999 18.2974 1.20999 17.1354 2.63198C16.0754 3.92198 15.2034 5.83797 15.5434 7.69995C17.4074 7.75795 19.3334 6.63996 20.4494 5.19397C21.4934 3.84798 22.2834 1.94399 21.9974 0Z" fill="#1B1B1B"/>
<path d="M28.743 10.7362C27.105 8.68223 24.8031 7.49023 22.6291 7.49023C19.7591 7.49023 18.5451 8.86423 16.5511 8.86423C14.4951 8.86423 12.9331 7.49423 10.4511 7.49423C8.01315 7.49423 5.41717 8.98423 3.77118 11.5322C1.45719 15.1202 1.85319 21.8661 5.60317 27.6121C6.94516 29.6681 8.73715 31.9801 11.0811 32.0001C13.1671 32.0201 13.7551 30.6621 16.5811 30.6481C19.4071 30.6321 19.9431 32.0181 22.0251 31.9961C24.3711 31.9781 26.261 29.4161 27.603 27.3601C28.565 25.8861 28.923 25.1441 29.669 23.4801C24.2431 21.4142 23.3731 13.6982 28.743 10.7362Z" fill="#1B1B1B"/>
</g>
<defs>
<clipPath id="clip0_2009_5723">
<rect width="32" height="32" fill="white"/>
</clipPath>
</defs>
</svg>
