<svg width="60" height="60" viewBox="0 0 60 60" fill="none" xmlns="http://www.w3.org/2000/svg">
<path d="M53.541 33.55C53.9181 28.254 49.9306 23.6551 44.6346 23.2779C39.3387 22.9008 34.7397 26.8883 34.3626 32.1842C33.9854 37.4802 37.9729 42.0792 43.2689 42.4563C48.5648 42.8335 53.1638 38.846 53.541 33.55Z" fill="#DBEBFF"/>
<path fill-rule="evenodd" clip-rule="evenodd" d="M26.3332 48.1721C26.3332 50.1496 24.7301 51.7527 22.7525 51.7527C20.775 51.7527 19.1719 50.1496 19.1719 48.1721V46.1875H26.3332V48.1721Z" fill="#F26500"/>
<path fill-rule="evenodd" clip-rule="evenodd" d="M26.329 48.1721C26.329 49.5194 25.5846 50.6928 24.485 51.3039C24.4674 51.3041 24.4498 51.3046 24.4322 51.3046C22.4547 51.3046 20.8516 49.7015 20.8516 47.7239V46.1875H26.3291L26.329 48.1721Z" fill="#FA700D"/>
<path d="M16.3125 43.0156H29.1882V48.1704H16.3125V43.0156Z" fill="#FA700D"/>
<path d="M19.1719 43.0156H29.1905V48.1704H19.1719V43.0156Z" fill="#FC8835"/>
<path fill-rule="evenodd" clip-rule="evenodd" d="M22.7527 11.7695C12.5164 11.7695 6.55496 20.8773 10.565 30.0645C11.6411 32.5301 13.2479 34.2591 14.8394 37.4323C15.8258 39.3989 16.3148 41.5497 16.3148 43.9086H29.1907C29.1907 41.5497 29.6797 39.3988 30.6661 37.4323C32.2576 34.259 33.8643 32.5301 34.9405 30.0645C38.9505 20.8773 32.9891 11.7695 22.7527 11.7695Z" fill="#FFBF29"/>
<path fill-rule="evenodd" clip-rule="evenodd" d="M19.1664 43.9101H29.185C29.185 41.5513 29.674 39.4004 30.6604 37.4339C32.252 34.2605 33.8587 32.5317 34.9348 30.0661C38.7544 21.3152 33.5269 12.6365 24.1757 11.832C14.8245 12.6365 9.59686 21.3152 13.4166 30.0661C14.4927 32.5318 16.0994 34.2607 17.691 37.4339C18.6774 39.4005 19.1664 41.5513 19.1664 43.9101Z" fill="#FFD064"/>
<path fill-rule="evenodd" clip-rule="evenodd" d="M23.3314 7.7284C23.3314 8.05066 23.0701 8.31199 22.7477 8.31199C22.4253 8.31199 22.1641 8.05066 22.1641 7.7284V3.50156C22.1641 3.17918 22.4254 2.91797 22.7478 2.91797C23.0702 2.91797 23.3314 3.1793 23.3314 3.50156V7.7284ZM5.80273 24.0899C6.125 24.0899 6.38633 24.3512 6.38633 24.6735C6.38633 24.9957 6.125 25.2571 5.80273 25.2571H1.57578C1.2534 25.2571 0.992188 24.9957 0.992188 24.6734C0.992188 24.351 1.25352 24.0898 1.57578 24.0898L5.80273 24.0899ZM8.36586 15.6952C8.64523 15.8569 8.74051 16.2145 8.57867 16.4939C8.41684 16.7733 8.0593 16.8686 7.77992 16.7067L4.11934 14.5934C3.83996 14.4316 3.74469 14.0739 3.90641 13.7946C4.06824 13.5152 4.4259 13.42 4.70516 13.5817L8.36586 15.6952ZM14.7812 9.7057C14.9429 9.98508 14.8476 10.3427 14.5684 10.5045C14.289 10.6662 13.9313 10.5709 13.7696 10.2916L11.6561 6.63105C11.4944 6.35168 11.5897 5.99402 11.8691 5.8323C12.1484 5.67059 12.5061 5.76586 12.6678 6.04523L14.7813 9.70582L14.7812 9.7057ZM37.7157 16.7068C37.4363 16.8686 37.0787 16.7733 36.917 16.494C36.7552 16.2148 36.8505 15.857 37.1298 15.6953L40.7904 13.5818C41.0697 13.4201 41.4274 13.5154 41.5891 13.7947C41.7508 14.0741 41.6555 14.4318 41.3762 14.5935L37.7156 16.7068H37.7157ZM31.7263 10.2916C31.5645 10.571 31.2069 10.6663 30.9275 10.5045C30.6481 10.3427 30.5529 9.98496 30.7147 9.7057L32.8282 6.04512C32.9899 5.76574 33.3477 5.67047 33.6269 5.83219C33.9063 5.99391 34.0016 6.35168 33.8398 6.63094L31.7264 10.2915L31.7263 10.2916Z" fill="#FFBF29"/>
<path fill-rule="evenodd" clip-rule="evenodd" d="M22.1665 43.911V32.903L18.9059 29.2322C18.691 28.9908 18.7125 28.6208 18.954 28.4059C19.1954 28.1911 19.5653 28.2125 19.7802 28.454L22.7525 31.8L25.7247 28.454C25.9396 28.2125 26.3095 28.191 26.551 28.4059C26.7924 28.6208 26.814 28.9907 26.599 29.2322L23.3384 32.9029V43.9109H22.1665V43.911Z" fill="#FA700D"/>
<path d="M47.4609 42.7812L50.8076 40.849L55.1582 48.3842L51.8115 50.3165L47.4609 42.7812Z" fill="#ADC8F0"/>
<path d="M49.6094 41.5391L50.8109 40.8454L55.1614 48.3806L53.96 49.0743L49.6094 41.5391Z" fill="#9DBBE8"/>
<path fill-rule="evenodd" clip-rule="evenodd" d="M50.1875 48.6135L54.3597 55.8401C55.0441 57.0253 56.5736 57.4352 57.759 56.7509C58.9443 56.0666 59.3541 54.537 58.6698 53.3516L54.4975 46.125L50.1875 48.6135Z" fill="#7789A4"/>
<path fill-rule="evenodd" clip-rule="evenodd" d="M58.2065 56.4259C59.0417 55.6548 59.2666 54.375 58.6758 53.3516L54.5035 46.125L52.8203 47.0967L58.2065 56.4259Z" fill="#6A7D99"/>
<path fill-rule="evenodd" clip-rule="evenodd" d="M47.3581 20.1503C54.3685 22.0287 58.5288 29.2346 56.6504 36.2448C54.7719 43.2552 47.5661 47.4155 40.5557 45.5371C33.5453 43.6587 29.3851 36.4528 31.2636 29.4424C33.142 22.432 40.3477 18.2718 47.3581 20.1503ZM46.3579 23.8831C41.4091 22.5571 36.3223 25.4939 34.9963 30.4426C33.6704 35.3915 36.6071 40.4782 41.5559 41.8042C46.5046 43.1302 51.5915 40.1933 52.9175 35.2445C54.2436 30.2957 51.3067 25.209 46.3579 23.8831Z" fill="#268BFF"/>
<path fill-rule="evenodd" clip-rule="evenodd" d="M48.4485 45.1926C46.0006 46.0854 43.2637 46.2615 40.5557 45.5359C33.5453 43.6575 29.3851 36.4516 31.2636 29.4412C32.3409 25.4205 35.1711 22.338 38.7113 20.794C41.1592 19.9013 43.896 19.7252 46.6039 20.4507C53.6143 22.3291 57.7746 29.535 55.8962 36.5454C54.8187 40.5661 51.9888 43.6486 48.4485 45.1926ZM46.3579 23.882C41.4091 22.556 36.3223 25.4928 34.9963 30.4415C33.6704 35.3904 36.6071 40.4771 41.5559 41.8031C46.5046 43.1291 51.5915 40.1922 52.9175 35.2434C54.2436 30.2946 51.3067 25.2079 46.3579 23.882Z" fill="#57A4FF"/>
<path fill-rule="evenodd" clip-rule="evenodd" d="M47.8019 41.2858C45.783 42.3883 43.3535 42.7462 40.9561 42.1039C36.0073 40.7778 33.0705 35.6912 34.3965 30.7423C35.143 27.9564 37.0812 25.8084 39.5156 24.6992C37.3669 25.8726 35.6836 27.8892 34.9999 30.4407C33.6739 35.3895 36.6107 40.4763 41.5595 41.8023C43.7225 42.3819 45.9118 42.1469 47.8019 41.2858Z" fill="#268BFF"/>
<path fill-rule="evenodd" clip-rule="evenodd" d="M47.4486 29.5427C47.6773 29.3139 48.0483 29.3139 48.2771 29.5427C48.5058 29.7714 48.5058 30.1424 48.2771 30.3712L42.4792 36.169C42.2505 36.3978 41.8795 36.3978 41.6507 36.169C41.6 36.1183 41.5605 36.0604 41.5322 35.9987L39.5777 32.6132C39.4171 32.3338 39.5135 31.9772 39.7928 31.8167C40.0722 31.6561 40.4288 31.7525 40.5894 32.0318L42.1888 34.8024L47.4486 29.5427Z" fill="#556987"/>
</svg>
