<svg width="31" height="30" viewBox="0 0 31 30" fill="none" xmlns="http://www.w3.org/2000/svg">
<path d="M15.6016 20.625C18.7082 20.625 21.2266 18.1066 21.2266 15C21.2266 11.8934 18.7082 9.375 15.6016 9.375C12.495 9.375 9.97656 11.8934 9.97656 15C9.97656 18.1066 12.495 20.625 15.6016 20.625Z" fill="#F6CB43"/>
<path d="M15.6016 8.4375C15.4772 8.4375 15.358 8.38811 15.2701 8.30021C15.1822 8.2123 15.1328 8.09307 15.1328 7.96875V6.09375C15.1328 5.96943 15.1822 5.8502 15.2701 5.76229C15.358 5.67439 15.4772 5.625 15.6016 5.625C15.7259 5.625 15.8451 5.67439 15.933 5.76229C16.0209 5.8502 16.0703 5.96943 16.0703 6.09375V7.96875C16.0703 8.09307 16.0209 8.2123 15.933 8.30021C15.8451 8.38811 15.7259 8.4375 15.6016 8.4375Z" fill="#FAB03C"/>
<path d="M10.6291 10.4953C10.5061 10.4948 10.3883 10.446 10.301 10.3594L8.9744 9.03279C8.92533 8.99077 8.88547 8.93906 8.85734 8.8809C8.8292 8.82275 8.81339 8.75941 8.8109 8.69485C8.8084 8.63029 8.81928 8.56592 8.84285 8.50577C8.86641 8.44562 8.90216 8.39098 8.94784 8.3453C8.99352 8.29962 9.04815 8.26387 9.10831 8.24031C9.16846 8.21674 9.23283 8.20586 9.29739 8.20836C9.36194 8.21085 9.42529 8.22666 9.48344 8.2548C9.5416 8.28293 9.59331 8.32279 9.63533 8.37186L10.9619 9.69842C11.0492 9.78625 11.0982 9.90505 11.0982 10.0289C11.0982 10.1527 11.0492 10.2715 10.9619 10.3594C10.9181 10.4028 10.8662 10.4372 10.809 10.4605C10.7519 10.4838 10.6908 10.4957 10.6291 10.4953Z" fill="#FAB03C"/>
<path d="M8.57031 15.4688H6.69531C6.57099 15.4688 6.45176 15.4194 6.36386 15.3315C6.27595 15.2435 6.22656 15.1243 6.22656 15C6.22656 14.8757 6.27595 14.7565 6.36386 14.6685C6.45176 14.5806 6.57099 14.5312 6.69531 14.5312H8.57031C8.69463 14.5312 8.81386 14.5806 8.90177 14.6685C8.98968 14.7565 9.03906 14.8757 9.03906 15C9.03906 15.1243 8.98968 15.2435 8.90177 15.3315C8.81386 15.4194 8.69463 15.4688 8.57031 15.4688Z" fill="#FAB03C"/>
<path d="M15.6016 24.375C15.4772 24.375 15.358 24.3256 15.2701 24.2377C15.1822 24.1498 15.1328 24.0306 15.1328 23.9062V22.0312C15.1328 21.9069 15.1822 21.7877 15.2701 21.6998C15.358 21.6119 15.4772 21.5625 15.6016 21.5625C15.7259 21.5625 15.8451 21.6119 15.933 21.6998C16.0209 21.7877 16.0703 21.9069 16.0703 22.0312V23.9062C16.0703 24.0306 16.0209 24.1498 15.933 24.2377C15.8451 24.3256 15.7259 24.375 15.6016 24.375Z" fill="#FAB03C"/>
<path d="M21.8963 21.7687C21.7727 21.7669 21.6547 21.7164 21.5682 21.628L20.2416 20.3015C20.1648 20.2118 20.1247 20.0965 20.1293 19.9785C20.1338 19.8605 20.1827 19.7486 20.2662 19.6651C20.3497 19.5816 20.4616 19.5327 20.5796 19.5282C20.6975 19.5236 20.8129 19.5638 20.9026 19.6405L22.2291 20.9671C22.3164 21.0549 22.3654 21.1737 22.3654 21.2976C22.3654 21.4214 22.3164 21.5402 22.2291 21.628C22.1857 21.6723 22.1339 21.7076 22.0768 21.7317C22.0197 21.7559 21.9583 21.7684 21.8963 21.7687Z" fill="#FAB03C"/>
<path d="M24.5078 15.4688H22.6328C22.5085 15.4688 22.3893 15.4194 22.3014 15.3315C22.2134 15.2435 22.1641 15.1243 22.1641 15C22.1641 14.8757 22.2134 14.7565 22.3014 14.6685C22.3893 14.5806 22.5085 14.5312 22.6328 14.5312H24.5078C24.6321 14.5312 24.7514 14.5806 24.8393 14.6685C24.9272 14.7565 24.9766 14.8757 24.9766 15C24.9766 15.1243 24.9272 15.2435 24.8393 15.3315C24.7514 15.4194 24.6321 15.4688 24.5078 15.4688Z" fill="#FAB03C"/>
<path d="M10.6291 10.4953C10.5061 10.4948 10.3883 10.446 10.301 10.3594L8.9744 9.03279C8.92533 8.99077 8.88547 8.93906 8.85734 8.8809C8.8292 8.82275 8.81339 8.75941 8.8109 8.69485C8.8084 8.63029 8.81928 8.56592 8.84285 8.50577C8.86641 8.44562 8.90216 8.39098 8.94784 8.3453C8.99352 8.29962 9.04815 8.26387 9.10831 8.24031C9.16846 8.21674 9.23283 8.20586 9.29739 8.20836C9.36194 8.21085 9.42529 8.22666 9.48344 8.2548C9.5416 8.28293 9.59331 8.32279 9.63533 8.37186L10.9619 9.69842C11.0492 9.78625 11.0982 9.90505 11.0982 10.0289C11.0982 10.1527 11.0492 10.2715 10.9619 10.3594C10.9181 10.4028 10.8662 10.4372 10.809 10.4605C10.7519 10.4838 10.6908 10.4957 10.6291 10.4953Z" fill="#FAB03C"/>
<path d="M25.7641 5.66742C25.613 5.21964 25.3516 4.81714 25.0039 4.49709C24.6562 4.17704 24.2334 3.94977 23.7747 3.83625C23.316 3.72274 22.836 3.72664 22.3792 3.84761C21.9224 3.96857 21.5034 4.20269 21.1609 4.52836C20.9135 4.32985 20.6063 4.22082 20.2891 4.21898C19.9161 4.21898 19.5584 4.36714 19.2947 4.63086C19.031 4.89459 18.8828 5.25227 18.8828 5.62523C18.5099 5.62523 18.1522 5.77339 17.8884 6.03711C17.6247 6.30084 17.4766 6.65852 17.4766 7.03148C17.4766 7.40444 17.6247 7.76213 17.8884 8.02585C18.1522 8.28957 18.5099 8.43773 18.8828 8.43773H21.0109C21.2747 8.73081 21.5971 8.96516 21.9573 9.12558C22.3174 9.28599 22.7073 9.36889 23.1016 9.36889C23.4958 9.36889 23.8857 9.28599 24.2459 9.12558C24.606 8.96516 24.9284 8.73081 25.1922 8.43773H25.4453C25.7865 8.43229 26.1141 8.30296 26.3671 8.07383C26.62 7.84471 26.7809 7.53143 26.8199 7.1924C26.859 6.85337 26.7733 6.51172 26.5791 6.23115C26.3848 5.95057 26.0951 5.75021 25.7641 5.66742Z" fill="#EFF4F6"/>
<path d="M15.602 9.375C14.5523 9.37404 13.5237 9.66978 12.6348 10.2281C13.9372 9.73835 15.375 9.74872 16.6702 10.2572C17.9655 10.7658 19.0263 11.7363 19.6477 12.9814C20.269 14.2264 20.4069 15.6576 20.0345 16.9984C19.6621 18.3391 18.8061 19.4943 17.6316 20.2406C18.8524 19.7646 19.8686 18.8773 20.505 17.732C21.1414 16.5867 21.358 15.2551 21.1174 13.9671C20.8768 12.6791 20.1941 11.5155 19.1872 10.6772C18.1802 9.83879 16.9122 9.37824 15.602 9.375Z" fill="#FAB03C"/>
<path d="M25.7641 5.66742C25.613 5.21964 25.3516 4.81714 25.0039 4.49709C24.6562 4.17704 24.2334 3.94977 23.7747 3.83625C23.316 3.72274 22.836 3.72664 22.3792 3.84761C21.9224 3.96857 21.5034 4.20269 21.1609 4.52836C21.005 4.40584 20.8248 4.31771 20.6324 4.26974C20.44 4.22177 20.2395 4.21505 20.0443 4.25002C19.8491 4.285 19.6635 4.36087 19.4996 4.47266C19.3358 4.58445 19.1975 4.72963 19.0938 4.89867C19.337 4.74584 19.6221 4.67314 19.9088 4.6908C20.1955 4.70846 20.4695 4.81559 20.6922 4.99711C21.0346 4.67144 21.4536 4.43732 21.9104 4.31636C22.3673 4.19539 22.8472 4.19149 23.3059 4.305C23.7647 4.41852 24.1874 4.64579 24.5351 4.96584C24.8828 5.28589 25.1443 5.68839 25.2953 6.13617C25.6037 6.20793 25.8788 6.38164 26.0761 6.62919C26.2735 6.87674 26.3816 7.18364 26.3828 7.50023C26.3819 7.75739 26.3088 8.00913 26.1719 8.22679C26.378 8.1024 26.5488 7.92717 26.6678 7.71788C26.7868 7.50858 26.8501 7.27224 26.8516 7.03148C26.8503 6.71489 26.7423 6.40799 26.5449 6.16044C26.3475 5.91289 26.0724 5.73918 25.7641 5.66742Z" fill="#DDE9ED"/>
<path d="M5.43815 22.5424C5.5892 22.0946 5.85065 21.6921 6.19834 21.3721C6.54604 21.052 6.96878 20.8248 7.42751 20.7113C7.88625 20.5977 8.36619 20.6016 8.82302 20.7226C9.27984 20.8436 9.69883 21.0777 10.0413 21.4034C10.2887 21.2048 10.5959 21.0958 10.9131 21.094C11.2861 21.094 11.6438 21.2421 11.9075 21.5059C12.1712 21.7696 12.3194 22.1273 12.3194 22.5002C12.6924 22.5002 13.05 22.6484 13.3138 22.9121C13.5775 23.1758 13.7256 23.5335 13.7256 23.9065C13.7256 24.2794 13.5775 24.6371 13.3138 24.9008C13.05 25.1646 12.6924 25.3127 12.3194 25.3127H10.1913C9.92753 25.6058 9.60512 25.8402 9.24496 26.0006C8.88479 26.161 8.49492 26.2439 8.10065 26.2439C7.70637 26.2439 7.3165 26.161 6.95634 26.0006C6.59617 25.8402 6.27376 25.6058 6.01002 25.3127H5.7569C5.41567 25.3073 5.08807 25.178 4.83515 24.9488C4.58224 24.7197 4.42128 24.4064 4.38227 24.0674C4.34326 23.7284 4.42887 23.3867 4.62314 23.1061C4.8174 22.8256 5.10707 22.6252 5.43815 22.5424Z" fill="#EFF4F6"/>
<path d="M12.3203 22.5001C12.3203 22.1272 12.1722 21.7695 11.9084 21.5057C11.6447 21.242 11.287 21.0939 10.9141 21.0939C10.5969 21.0957 10.2896 21.2047 10.0422 21.4032C9.75848 21.1343 9.42182 20.9274 9.05369 20.7959C8.68556 20.6643 8.29405 20.6109 7.90414 20.6392C7.51423 20.6674 7.13448 20.7766 6.78914 20.9598C6.4438 21.143 6.14045 21.3962 5.89844 21.7032C6.39054 21.309 7.00224 21.094 7.63281 21.0939C8.35564 21.0942 9.05059 21.3729 9.57344 21.872C9.82085 21.6735 10.1281 21.5645 10.4453 21.5626C10.8183 21.5626 11.176 21.7108 11.4397 21.9745C11.7034 22.2382 11.8516 22.5959 11.8516 22.9689C12.2245 22.9689 12.5822 23.117 12.8459 23.3807C13.1097 23.6445 13.2578 24.0022 13.2578 24.3751C13.2569 24.6323 13.1838 24.884 13.0469 25.1017C13.253 24.9773 13.4238 24.8021 13.5428 24.5928C13.6618 24.3835 13.7251 24.1471 13.7266 23.9064C13.7266 23.5334 13.5784 23.1757 13.3147 22.912C13.051 22.6483 12.6933 22.5001 12.3203 22.5001Z" fill="#DDE9ED"/>
</svg>
