<svg width="40" height="40" viewBox="0 0 40 40" fill="none" xmlns="http://www.w3.org/2000/svg">
<path d="M34.1208 17.0348C34.1492 16.7765 34.1667 16.5157 34.1667 16.2498C34.1667 12.3382 30.995 9.1665 27.0833 9.1665C25.19 9.1665 23.4742 9.914 22.2033 11.124C20.7017 8.46484 17.855 6.6665 14.5833 6.6665C9.75083 6.6665 5.83333 10.584 5.83333 15.4165C5.83333 15.9607 5.89 16.4915 5.985 17.0082C2.5275 18.0232 0 21.214 0 24.9998C0 29.6023 3.73083 33.3332 8.33333 33.3332H31.6667C36.2692 33.3332 40 29.6023 40 24.9998C40 21.2515 37.525 18.0832 34.1208 17.0348Z" fill="#EFF3F9"/>
<path d="M37.6595 19.2183C38.0912 20.2258 38.3329 21.3341 38.3329 22.4999C38.3329 27.1024 34.602 30.8333 29.9995 30.8333H4.99953C3.87786 30.8333 2.8087 30.6083 1.83203 30.2066C3.35953 32.1108 5.70203 33.3333 8.33286 33.3333H31.6662C36.2687 33.3333 39.9995 29.6024 39.9995 24.9999C39.9995 22.7524 39.1062 20.7174 37.6595 19.2183Z" fill="#CFE0F3"/>
<path d="M34.1664 16.2498C34.1664 16.5164 34.1497 16.7748 34.1164 17.0331C33.2114 16.7606 32.1189 16.6856 31.4331 16.6681C31.1406 16.6606 30.9447 16.3573 31.0672 16.0914C31.4531 15.2539 31.6664 14.3181 31.6664 13.3331C31.6664 12.2414 31.3997 11.2164 30.9414 10.3081C32.8831 11.5748 34.1664 13.7664 34.1664 16.2498Z" fill="#CFE0F3"/>
<path d="M9.25048 15.3086C9.20298 15.3086 9.15465 15.3044 9.10548 15.2961C8.65215 15.2169 8.34882 14.7844 8.42882 14.3311C8.65215 13.0577 9.25132 11.9036 10.1596 10.9944C11.0696 10.0852 12.2238 9.48608 13.4971 9.26274C13.953 9.18108 14.3821 9.48608 14.4621 9.93941C14.5421 10.3927 14.2388 10.8244 13.7855 10.9044C12.8505 11.0686 12.0046 11.5069 11.3388 12.1727C10.673 12.8386 10.2346 13.6844 10.0705 14.6194C9.99965 15.0236 9.64798 15.3086 9.25048 15.3086Z" fill="white"/>
</svg>
