<svg width="49" height="34" viewBox="0 0 49 34" fill="none" xmlns="http://www.w3.org/2000/svg">
<path d="M45.3875 33.2093H3.61248C1.89684 33.2093 0.5 31.8125 0.5 30.0969V3.70623C0.5 1.98123 1.89684 0.59375 3.61248 0.59375H45.3781C47.1031 0.59375 48.4906 1.99059 48.4906 3.70623V30.0875C48.5 31.8125 47.1032 33.2093 45.3875 33.2093Z" fill="#505278"/>
<path d="M45.3876 0.59375H24.5V33.2093H45.3875C47.1125 33.2093 48.5 31.8125 48.5 30.0969V3.70623C48.5 1.99059 47.1032 0.59375 45.3876 0.59375Z" fill="#424566"/>
<path d="M25.5406 0.59375C25.2218 10.2219 17.2906 17.9469 7.58749 17.9469C5.07497 17.9469 2.675 17.4312 0.5 16.4844V12.2938C2.59062 13.5125 5.0094 14.1969 7.58749 14.1969C15.2187 14.1969 21.4625 8.14998 21.7812 0.59375H25.5406Z" fill="#575982"/>
<path d="M24.5 0.59375V6.04062C25.1094 4.32499 25.475 2.49688 25.5406 0.59375H24.5Z" fill="#505278"/>
<path d="M48.4985 19.6718V23.478C46.2485 23.0468 44.0548 22.8593 41.8798 23.0749C37.9517 23.4687 34.3048 25.3062 30.3954 28.8593C29.7673 29.4312 29.1298 30.0219 28.5204 30.5937C27.5829 31.4656 26.6453 32.3468 25.6609 33.2093H19.5859C21.836 31.7093 23.8516 29.825 25.9609 27.8562C26.589 27.275 27.2265 26.6656 27.8734 26.0844C32.4109 21.9688 36.7422 19.8219 41.5046 19.3438C43.8579 19.0999 46.2392 19.2874 48.4985 19.6718Z" fill="#505278"/>
<path d="M19.5859 33.2101H24.4984V29.207C22.8954 30.6789 21.3109 32.057 19.5859 33.2101Z" fill="#575982"/>
<path d="M10.55 16.4735H5.94687C5.24373 16.4735 4.67188 15.9016 4.67188 15.1985V12.1422C4.67188 11.439 5.24373 10.8672 5.94687 10.8672H10.55C11.2532 10.8672 11.825 11.439 11.825 12.1422V15.1985C11.8156 15.9015 11.2531 16.4735 10.55 16.4735Z" fill="#424566"/>
<path d="M10.5531 16.3883H5.94062C5.28438 16.3883 4.75 15.8539 4.75 15.1977V12.132C4.75 11.4758 5.28438 10.9414 5.94062 10.9414H10.5531C11.2094 10.9414 11.7437 11.4758 11.7437 12.132V15.1977C11.7437 15.8539 11.2094 16.3883 10.5531 16.3883Z" fill="#FEBD55"/>
<path d="M11.7437 13.7617V13.5742H9.30623V12.7492L9.93436 12.1211H11.7437C11.7437 12.0555 11.7344 11.9899 11.725 11.9336H9.88753C9.85943 11.9336 9.84062 11.943 9.82188 11.9617L9.16565 12.6179H8.34058V10.9492H8.15309V12.6179H7.33746L6.68123 11.9617C6.66249 11.943 6.63431 11.9336 6.61558 11.9336H4.76873C4.75937 11.9899 4.75 12.0555 4.75 12.1211H6.57811L7.19688 12.7399V13.5742H4.75V13.7617H7.19688V14.5961L6.57811 15.2148H4.75C4.75 15.2805 4.75937 15.3461 4.76873 15.4023H6.61558C6.64368 15.4023 6.66249 15.393 6.68123 15.3742L7.33746 14.718H8.15309V16.3867H8.34058V14.718H9.16557L9.82181 15.3742C9.84054 15.393 9.85927 15.4023 9.88745 15.4023H11.7249C11.7343 15.3461 11.7437 15.2805 11.7437 15.2148H9.93429L9.30615 14.5867V13.7617H11.7437ZM9.11874 14.5304H7.38437V12.7961H9.11874V14.5304Z" fill="#B5613C"/>
<path d="M43.4783 16.3345C43.4313 16.3345 43.3939 16.3251 43.3564 16.3064C43.2157 16.2408 43.1595 16.072 43.2346 15.9314C43.9564 14.497 43.9564 12.8564 43.2346 11.422C43.1689 11.2814 43.2252 11.1127 43.3564 11.047C43.4971 10.9814 43.6657 11.0377 43.7314 11.1689C44.5377 12.7627 44.5377 14.5908 43.7314 16.1845C43.6751 16.2783 43.5814 16.3345 43.4783 16.3345ZM42.5126 15.8001C43.2719 14.4501 43.2719 12.8939 42.5126 11.5439C42.4376 11.4127 42.2688 11.3564 42.1282 11.4408C41.997 11.5158 41.9407 11.6845 42.0251 11.8251C42.6907 13.0064 42.6907 14.3564 42.0251 15.5283C41.9501 15.6595 41.997 15.8376 42.1282 15.9126C42.1752 15.9407 42.222 15.9501 42.2689 15.9501C42.3626 15.9408 42.4563 15.8845 42.5126 15.8001ZM41.3126 15.4251C42.0532 14.347 42.0532 13.0064 41.3126 11.9189C41.2282 11.7877 41.0501 11.7595 40.9189 11.8439C40.7877 11.9282 40.7595 12.1064 40.8439 12.2376C41.4439 13.1188 41.4439 14.2251 40.8439 15.1064C40.7595 15.2376 40.7876 15.4063 40.9189 15.5001C40.9658 15.5375 41.022 15.547 41.0783 15.547C41.172 15.5471 41.2563 15.5002 41.3126 15.4251ZM40.047 15.0595C40.4595 14.6845 40.6845 14.1876 40.6845 13.672C40.6845 13.1564 40.4595 12.6596 40.047 12.2846C39.9345 12.1815 39.7564 12.1815 39.6533 12.3033C39.5502 12.4158 39.5502 12.5939 39.672 12.697C39.9626 12.9689 40.122 13.3158 40.122 13.672C40.122 14.0283 39.9626 14.3752 39.672 14.6471C39.5595 14.7502 39.5502 14.9283 39.6533 15.0408C39.7095 15.0971 39.7845 15.1345 39.8595 15.1345C39.9251 15.1345 39.9907 15.1064 40.047 15.0595Z" fill="#CAD4FF"/>
<path d="M24.1187 28.4844H5.03124C4.87185 28.4844 4.75 28.3625 4.75 28.2031C4.75 28.0437 4.87185 27.9219 5.03124 27.9219H24.1187C24.2781 27.9219 24.4 28.0437 24.4 28.2031C24.4 28.3625 24.2687 28.4844 24.1187 28.4844Z" fill="#E6EAFF"/>
<path d="M44.0484 28.4844H40.4297C40.2703 28.4844 40.1484 28.3625 40.1484 28.2031C40.1484 28.0437 40.2703 27.9219 40.4297 27.9219H44.0484C44.2078 27.9219 44.3297 28.0437 44.3297 28.2031C44.3297 28.3625 44.1985 28.4844 44.0484 28.4844ZM38.8922 28.2031C38.8922 28.0437 38.7703 27.9219 38.6109 27.9219H34.9922C34.8328 27.9219 34.7109 28.0437 34.7109 28.2031C34.7109 28.3625 34.8328 28.4844 34.9922 28.4844H38.6109C38.7703 28.4844 38.8922 28.3531 38.8922 28.2031Z" fill="#CAD4FF"/>
<path d="M5.03124 6.98748C4.87185 6.98748 4.75 6.86563 4.75 6.70624V5.60937C4.75 5.44997 4.87185 5.32812 5.03124 5.32812C5.19064 5.32812 5.31248 5.44997 5.31248 5.60937V6.70624C5.31248 6.85626 5.19064 6.98748 5.03124 6.98748ZM6.84062 6.70624V5.60937C6.84062 5.44997 6.71877 5.32812 6.55938 5.32812C6.39999 5.32812 6.27814 5.44997 6.27814 5.60937V6.70624C6.27814 6.86563 6.39999 6.98748 6.55938 6.98748C6.71877 6.98748 6.84062 6.85626 6.84062 6.70624ZM8.37813 6.70624V5.60937C8.37813 5.44997 8.25628 5.32812 8.09688 5.32812C7.93749 5.32812 7.81564 5.44997 7.81564 5.60937V6.70624C7.81564 6.86563 7.93749 6.98748 8.09688 6.98748C8.24683 6.98748 8.37813 6.85626 8.37813 6.70624ZM9.90626 6.70624V5.60937C9.90626 5.44997 9.78442 5.32812 9.62502 5.32812C9.46563 5.32812 9.34378 5.44997 9.34378 5.60937V6.70624C9.34378 6.86563 9.46563 6.98748 9.62502 6.98748C9.78442 6.98748 9.90626 6.85626 9.90626 6.70624Z" fill="#E6EAFF"/>
<path d="M5.61094 23.7132H5.56403C5.09529 23.7132 4.71094 23.3289 4.71094 22.8602V21.5289C4.71094 21.0601 5.09529 20.6758 5.56403 20.6758H5.61094C6.07968 20.6758 6.46404 21.0601 6.46404 21.5289V22.8602C6.46412 23.3288 6.08913 23.7132 5.61094 23.7132ZM5.56411 21.2382C5.40472 21.2382 5.2735 21.3694 5.2735 21.5288V22.8601C5.2735 23.0195 5.40472 23.1507 5.56411 23.1507H5.61102C5.77042 23.1507 5.90163 23.0195 5.90163 22.8601V21.5288C5.90163 21.3694 5.77042 21.2382 5.61102 21.2382H5.56411Z" fill="#E6EAFF"/>
<path d="M7.89219 23.7132H7.84528C7.37654 23.7132 6.99219 23.3289 6.99219 22.8602V21.5289C6.99219 21.0601 7.37654 20.6758 7.84528 20.6758H7.89219C8.36093 20.6758 8.74529 21.0601 8.74529 21.5289V22.8602C8.74537 23.3288 8.37038 23.7132 7.89219 23.7132ZM7.84536 21.2382C7.68597 21.2382 7.55475 21.3694 7.55475 21.5288V22.8601C7.55475 23.0195 7.68597 23.1507 7.84536 23.1507H7.89227C8.05167 23.1507 8.18288 23.0195 8.18288 22.8601V21.5288C8.18288 21.3694 8.05167 21.2382 7.89227 21.2382H7.84536Z" fill="#E6EAFF"/>
<path d="M10.1656 23.7132H10.1187C9.64998 23.7132 9.26562 23.3289 9.26562 22.8602V21.5289C9.26562 21.0601 9.64998 20.6758 10.1187 20.6758H10.1656C10.6344 20.6758 11.0187 21.0601 11.0187 21.5289V22.8602C11.0187 23.3288 10.6344 23.7132 10.1656 23.7132ZM10.1187 21.2382C9.95932 21.2382 9.82811 21.3694 9.82811 21.5288V22.8601C9.82811 23.0195 9.95932 23.1507 10.1187 23.1507H10.1656C10.325 23.1507 10.4562 23.0195 10.4562 22.8601V21.5288C10.4562 21.3694 10.325 21.2382 10.1656 21.2382H10.1187Z" fill="#E6EAFF"/>
<path d="M12.4469 23.7132H12.4C11.9312 23.7132 11.5469 23.3289 11.5469 22.8602V21.5289C11.5469 21.0601 11.9312 20.6758 12.4 20.6758H12.4469C12.9156 20.6758 13.3 21.0601 13.3 21.5289V22.8602C13.3 23.3288 12.9156 23.7132 12.4469 23.7132ZM12.4 21.2382C12.2406 21.2382 12.1094 21.3694 12.1094 21.5288V22.8601C12.1094 23.0195 12.2406 23.1507 12.4 23.1507H12.4469C12.6063 23.1507 12.7375 23.0195 12.7375 22.8601V21.5288C12.7375 21.3694 12.6063 21.2382 12.4469 21.2382H12.4Z" fill="#E6EAFF"/>
<path d="M15.9391 23.7132H15.8922C15.4234 23.7132 15.0391 23.3289 15.0391 22.8602V21.5289C15.0391 21.0601 15.4234 20.6758 15.8922 20.6758H15.9391C16.4078 20.6758 16.7922 21.0601 16.7922 21.5289V22.8602C16.7922 23.3288 16.4078 23.7132 15.9391 23.7132ZM15.8922 21.2382C15.7328 21.2382 15.6016 21.3694 15.6016 21.5288V22.8601C15.6016 23.0195 15.7328 23.1507 15.8922 23.1507H15.9391C16.0985 23.1507 16.2298 23.0195 16.2298 22.8601V21.5288C16.2298 21.3694 16.0985 21.2382 15.9391 21.2382H15.8922Z" fill="#E6EAFF"/>
<path d="M18.2203 23.7132H18.1734C17.7047 23.7132 17.3203 23.3289 17.3203 22.8602V21.5289C17.3203 21.0601 17.7047 20.6758 18.1734 20.6758H18.2203C18.6891 20.6758 19.0734 21.0601 19.0734 21.5289V22.8602C19.0735 23.3288 18.6891 23.7132 18.2203 23.7132ZM18.1735 21.2382C18.0141 21.2382 17.8829 21.3694 17.8829 21.5288V22.8601C17.8829 23.0195 18.0141 23.1507 18.1735 23.1507H18.2204C18.3798 23.1507 18.511 23.0195 18.511 22.8601V21.5288C18.511 21.3694 18.3798 21.2382 18.2204 21.2382H18.1735Z" fill="#E6EAFF"/>
<path d="M20.4938 23.7132H20.4468C19.9781 23.7132 19.5938 23.3289 19.5938 22.8602V21.5289C19.5938 21.0601 19.9781 20.6758 20.4468 20.6758H20.4938C20.9625 20.6758 21.3469 21.0601 21.3469 21.5289V22.8602C21.3469 23.3288 20.9626 23.7132 20.4938 23.7132ZM20.4469 21.2382C20.2875 21.2382 20.1563 21.3694 20.1563 21.5288V22.8601C20.1563 23.0195 20.2875 23.1507 20.4469 23.1507H20.4938C20.6532 23.1507 20.7844 23.0195 20.7844 22.8601V21.5288C20.7844 21.3694 20.6532 21.2382 20.4938 21.2382H20.4469Z" fill="#E6EAFF"/>
<path d="M22.775 23.7132H22.7281C22.2594 23.7132 21.875 23.3289 21.875 22.8602V21.5289C21.875 21.0601 22.2594 20.6758 22.7281 20.6758H22.775C23.2437 20.6758 23.6281 21.0601 23.6281 21.5289V22.8602C23.6282 23.3288 23.2438 23.7132 22.775 23.7132ZM22.7282 21.2382C22.5688 21.2382 22.4376 21.3694 22.4376 21.5288V22.8601C22.4376 23.0195 22.5688 23.1507 22.7282 23.1507H22.7751C22.9345 23.1507 23.0657 23.0195 23.0657 22.8601V21.5288C23.0657 21.3694 22.9345 21.2382 22.7751 21.2382H22.7282Z" fill="#E6EAFF"/>
<path d="M26.275 23.7132H26.2281C25.7594 23.7132 25.375 23.3289 25.375 22.8602V21.5289C25.375 21.0601 25.7594 20.6758 26.2281 20.6758H26.275C26.7437 20.6758 27.1281 21.0601 27.1281 21.5289V22.8602C27.1281 23.3288 26.7437 23.7132 26.275 23.7132ZM26.2281 21.2382C26.0687 21.2382 25.9375 21.3694 25.9375 21.5288V22.8601C25.9375 23.0195 26.0687 23.1507 26.2281 23.1507H26.275C26.4344 23.1507 26.5656 23.0195 26.5656 22.8601V21.5288C26.5656 21.3694 26.4344 21.2382 26.275 21.2382H26.2281Z" fill="#CAD4FF"/>
<path d="M28.5562 23.7132H28.5093C28.0406 23.7132 27.6562 23.3289 27.6562 22.8602V21.5289C27.6562 21.0601 28.0406 20.6758 28.5093 20.6758H28.5562C29.0249 20.6758 29.4093 21.0601 29.4093 21.5289V22.8602C29.4093 23.3288 29.0249 23.7132 28.5562 23.7132ZM28.5093 21.2382C28.3499 21.2382 28.2187 21.3694 28.2187 21.5288V22.8601C28.2187 23.0195 28.3499 23.1507 28.5093 23.1507H28.5562C28.7156 23.1507 28.8468 23.0195 28.8468 22.8601V21.5288C28.8468 21.3694 28.7156 21.2382 28.5562 21.2382H28.5093Z" fill="#CAD4FF"/>
<path d="M30.8297 23.7132H30.7828C30.314 23.7132 29.9297 23.3289 29.9297 22.8602V21.5289C29.9297 21.0601 30.314 20.6758 30.7828 20.6758H30.8297C31.2984 20.6758 31.6828 21.0601 31.6828 21.5289V22.8602C31.6829 23.3288 31.2984 23.7132 30.8297 23.7132ZM30.7829 21.2382C30.6235 21.2382 30.4923 21.3694 30.4923 21.5288V22.8601C30.4923 23.0195 30.6235 23.1507 30.7829 23.1507H30.8298C30.9892 23.1507 31.1204 23.0195 31.1204 22.8601V21.5288C31.1204 21.3694 30.9892 21.2382 30.8298 21.2382H30.7829Z" fill="#CAD4FF"/>
<path d="M33.1109 23.7132H33.064C32.5953 23.7132 32.2109 23.3289 32.2109 22.8602V21.5289C32.2109 21.0601 32.5953 20.6758 33.064 20.6758H33.1109C33.5797 20.6758 33.964 21.0601 33.964 21.5289V22.8602C33.9641 23.3288 33.5797 23.7132 33.1109 23.7132ZM33.0641 21.2382C32.9047 21.2382 32.7735 21.3694 32.7735 21.5288V22.8601C32.7735 23.0195 32.9047 23.1507 33.0641 23.1507H33.111C33.2704 23.1507 33.4016 23.0195 33.4016 22.8601V21.5288C33.4016 21.3694 33.2704 21.2382 33.111 21.2382H33.0641Z" fill="#CAD4FF"/>
<path d="M36.6031 23.7132H36.5562C36.0875 23.7132 35.7031 23.3289 35.7031 22.8602V21.5289C35.7031 21.0601 36.0875 20.6758 36.5562 20.6758H36.6031C37.0719 20.6758 37.4562 21.0601 37.4562 21.5289V22.8602C37.4562 23.3288 37.0719 23.7132 36.6031 23.7132ZM36.5562 21.2382C36.3968 21.2382 36.2656 21.3694 36.2656 21.5288V22.8601C36.2656 23.0195 36.3968 23.1507 36.5562 23.1507H36.6031C36.7625 23.1507 36.8937 23.0195 36.8937 22.8601V21.5288C36.8937 21.3694 36.7625 21.2382 36.6031 21.2382H36.5562Z" fill="#CAD4FF"/>
<path d="M38.8843 23.7132H38.8375C38.3687 23.7132 37.9844 23.3289 37.9844 22.8602V21.5289C37.9844 21.0601 38.3687 20.6758 38.8375 20.6758H38.8843C39.353 20.6758 39.7374 21.0601 39.7374 21.5289V22.8602C39.7374 23.3288 39.353 23.7132 38.8843 23.7132ZM38.8374 21.2382C38.678 21.2382 38.5468 21.3694 38.5468 21.5288V22.8601C38.5468 23.0195 38.678 23.1507 38.8374 23.1507H38.8842C39.0436 23.1507 39.1748 23.0195 39.1748 22.8601V21.5288C39.1748 21.3694 39.0436 21.2382 38.8842 21.2382H38.8374Z" fill="#CAD4FF"/>
<path d="M41.1578 23.7132H41.1109C40.6422 23.7132 40.2578 23.3289 40.2578 22.8602V21.5289C40.2578 21.0601 40.6422 20.6758 41.1109 20.6758H41.1578C41.6266 20.6758 42.0109 21.0601 42.0109 21.5289V22.8602C42.0109 23.3288 41.6266 23.7132 41.1578 23.7132ZM41.111 21.2382C40.9516 21.2382 40.8204 21.3694 40.8204 21.5288V22.8601C40.8204 23.0195 40.9516 23.1507 41.111 23.1507H41.1579C41.3173 23.1507 41.4485 23.0195 41.4485 22.8601V21.5288C41.4485 21.3694 41.3173 21.2382 41.1579 21.2382H41.111Z" fill="#CAD4FF"/>
<path d="M43.4391 23.7132H43.3922C42.9234 23.7132 42.5391 23.3289 42.5391 22.8602V21.5289C42.5391 21.0601 42.9234 20.6758 43.3922 20.6758H43.4391C43.9078 20.6758 44.2922 21.0601 44.2922 21.5289V22.8602C44.2922 23.3288 43.9078 23.7132 43.4391 23.7132ZM43.3922 21.2382C43.2328 21.2382 43.1016 21.3694 43.1016 21.5288V22.8601C43.1016 23.0195 43.2328 23.1507 43.3922 23.1507H43.4391C43.5985 23.1507 43.7298 23.0195 43.7298 22.8601V21.5288C43.7298 21.3694 43.5985 21.2382 43.4391 21.2382H43.3922Z" fill="#CAD4FF"/>
</svg>
