<svg width="32" height="32" viewBox="0 0 32 32" fill="none" xmlns="http://www.w3.org/2000/svg">
<g clip-path="url(#clip0_2975_24438)">
<path d="M28.3324 5.32269C28.3324 4.15637 27.3869 3.21094 26.2206 3.21094H24.8459C23.9955 3.21094 7.18575 3.21094 6.62394 3.21094C6.10925 3.21094 2.77969 3.21094 2.11181 3.21094C0.945625 3.21094 0 4.15644 0 5.32269V29.4313C0 30.0349 0.253687 30.5789 0.65975 30.9638H26.2206V31.5431H29.9197C30.8286 31.5431 31.6033 30.9689 31.9011 30.1634C32.1478 29.5112 32.2351 30.7581 28.3324 5.32269Z" fill="#BABABA"/>
<path d="M29.6214 29.4314V13.7276L28.3318 5.32269C28.3318 4.15637 27.3862 3.21094 26.2199 3.21094C25.5285 3.21094 8.87581 3.21094 7.91294 3.21094H6.62337H6.10756C4.91306 3.21094 5.31488 3.21094 3.40088 3.21094C2.23469 3.21094 1.28906 4.15637 1.28906 5.32269V29.4313C1.28906 30.0349 1.54275 30.5789 1.94881 30.9638H26.2201V31.5431H27.5096C28.6758 31.5432 29.6214 30.5977 29.6214 29.4314Z" fill="#A8A8A8"/>
<path d="M26.2206 3.21094C25.4816 3.21094 7.84094 3.21094 6.62394 3.21094C5.89531 3.21094 2.60444 3.21094 2.11181 3.21094C0.945625 3.21094 0 4.15644 0 5.32269V29.4313C0 30.5977 0.945625 31.5431 2.11181 31.5431H26.2205C27.3868 31.5431 28.3324 30.5977 28.3324 29.4313V5.32269C28.3324 4.15644 27.3868 3.21094 26.2206 3.21094Z" fill="#E6E6E6"/>
<path d="M1.28956 29.4314V5.32269C1.28956 4.15637 2.23519 3.21094 3.40138 3.21094C2.6745 3.21094 2.841 3.21094 2.11181 3.21094C0.945625 3.21094 0 4.15644 0 5.32269V29.4313C0 30.5977 0.945625 31.5431 2.11181 31.5431H3.40138C2.23525 31.5432 1.28956 30.5977 1.28956 29.4314Z" fill="#CCCBCA"/>
<path d="M26.2206 3.21094C25.3816 3.21094 8.02425 3.21094 6.62394 3.21094C1.62413 3.21094 6.79206 3.21094 2.11181 3.21094C0.945625 3.21094 0 4.15644 0 5.32269V10.7474H28.3324V5.32269C28.3324 4.15644 27.3868 3.21094 26.2206 3.21094Z" fill="#EA473B"/>
<path d="M1.28956 5.32269C1.28956 4.15637 2.23519 3.21094 3.40138 3.21094C2.6745 3.21094 2.841 3.21094 2.11181 3.21094C0.945625 3.21094 0 4.15644 0 5.32269V10.7474H1.28956V5.32269Z" fill="#D63322"/>
<path d="M22.6075 5.09375V5.53337C22.6075 5.96075 22.2611 5.98475 21.8337 5.98475H21.5758C21.1485 5.98475 20.8021 5.96075 20.8021 5.53337V5.09381C20.3929 5.37931 20.125 5.85319 20.125 6.38994C20.125 7.26244 20.8323 7.96969 21.7048 7.96969C23.2521 7.96962 23.8667 5.9725 22.6075 5.09375Z" fill="#414356"/>
<path d="M14.6153 5.09375V5.53337C14.6153 5.96075 14.2689 5.92025 13.8416 5.92025H13.5836C13.1563 5.92025 12.8099 5.96075 12.8099 5.53337V5.09381C12.4007 5.37931 12.1328 5.85319 12.1328 6.38994C12.1328 7.26244 12.8401 7.96969 13.7126 7.96969C14.5851 7.96969 15.2923 7.26244 15.2923 6.38994C15.2923 5.85319 15.0244 5.37925 14.6153 5.09375Z" fill="#414356"/>
<path d="M6.62191 5.09375V5.53337C6.62191 6.03162 6.15297 5.98475 5.59022 5.98475C5.16291 5.98475 4.81647 5.96075 4.81647 5.53337V5.09381C3.55603 5.97344 4.17385 7.96969 5.71916 7.96969C6.59166 7.96969 7.29891 7.26244 7.29891 6.38994C7.29891 5.85319 7.03097 5.37925 6.62191 5.09375Z" fill="#414356"/>
<path d="M21.4869 6.38987C21.4869 6.35994 21.4881 6.33031 21.4897 6.30081C21.1067 6.25437 20.8099 5.92881 20.8099 5.53331V5.09375C20.4008 5.37925 20.1328 5.85312 20.1328 6.38987C20.1328 7.26237 20.8401 7.96962 21.7126 7.96962C21.9549 7.96962 22.1844 7.91494 22.3896 7.81737C21.8559 7.56381 21.4869 7.02 21.4869 6.38987Z" fill="#2F3242"/>
<path d="M13.4869 6.38987C13.4869 6.35994 13.4881 6.33031 13.4897 6.30081C13.1067 6.25437 12.8099 5.92881 12.8099 5.53331V5.09375C12.4007 5.37925 12.1328 5.85312 12.1328 6.38987C12.1328 7.26237 12.8401 7.96962 13.7126 7.96962C13.9549 7.96962 14.1844 7.91494 14.3896 7.81737C13.8559 7.56381 13.4869 7.02 13.4869 6.38987Z" fill="#2F3242"/>
<path d="M5.4975 6.30081C5.11456 6.25437 4.81769 5.92881 4.81769 5.53331V5.09375C4.40856 5.37925 4.14062 5.85312 4.14062 6.38987C4.14062 7.55337 5.35588 8.31231 6.39738 7.81737C5.8315 7.54844 5.46087 6.96062 5.4975 6.30081Z" fill="#2F3242"/>
<path d="M28.3325 10.7344H0V12.5398H28.3325V10.7344Z" fill="#F77C79"/>
<path d="M1.28956 10.7344H0V12.5398H1.28956V10.7344Z" fill="#DD6464"/>
<path d="M5.852 0.460938C6.27937 0.460938 6.62575 0.807375 6.62575 1.23469V5.53331C6.62575 5.96069 6.27937 6.30706 5.852 6.30706H5.59406C5.16675 6.30706 4.82031 5.96069 4.82031 5.53331V1.23469C4.82031 0.807375 5.16675 0.460938 5.59406 0.460938H5.852Z" fill="#585A60"/>
<path d="M13.8442 0.460938C14.2716 0.460938 14.6179 0.807375 14.6179 1.23469V5.53331C14.6179 5.96069 14.2716 6.30706 13.8442 6.30706H13.5863C13.1589 6.30706 12.8125 5.96069 12.8125 5.53331V1.23469C12.8125 0.807375 13.1589 0.460938 13.5863 0.460938H13.8442Z" fill="#585A60"/>
<path d="M21.8364 0.460938C22.2637 0.460938 22.6101 0.807375 22.6101 1.23469V5.53331C22.6101 5.96069 22.2637 6.30706 21.8364 6.30706H21.5784C21.1511 6.30706 20.8047 5.96069 20.8047 5.53331V1.23469C20.8047 0.807375 21.1511 0.460938 21.5784 0.460938H21.8364Z" fill="#585A60"/>
<path d="M5.84419 0.46875C6.27156 0.46875 6.61794 0.815187 6.61794 1.2425V5.54112C6.61794 5.9685 6.27156 6.31487 5.84419 6.31487H5.58625C5.15894 6.31487 4.8125 5.9685 4.8125 5.54112V1.2425C4.8125 0.815187 5.15894 0.46875 5.58625 0.46875H5.84419Z" fill="#585A60"/>
<path d="M13.8442 0.46875C14.2716 0.46875 14.6179 0.815187 14.6179 1.2425V5.54112C14.6179 5.9685 14.2716 6.31487 13.8442 6.31487H13.5863C13.1589 6.31487 12.8125 5.9685 12.8125 5.54112V1.2425C12.8125 0.815187 13.1589 0.46875 13.5863 0.46875H13.8442Z" fill="#585A60"/>
<path d="M21.8442 0.46875C22.2716 0.46875 22.6179 0.815187 22.6179 1.2425V5.54112C22.6179 5.9685 22.2716 6.31487 21.8442 6.31487H21.5862C21.1589 6.31487 20.8125 5.9685 20.8125 5.54112V1.2425C20.8125 0.815187 21.1589 0.46875 21.5862 0.46875H21.8442Z" fill="#585A60"/>
<path d="M5.71519 5.54112V1.2425C5.71519 0.930375 5.90044 0.662125 6.16656 0.53975C6.06831 0.494625 5.95937 0.46875 5.84419 0.46875H5.58625C5.15894 0.46875 4.8125 0.815187 4.8125 1.2425V5.54112C4.8125 5.9685 5.15894 6.31487 5.58625 6.31487H5.84419C5.95944 6.31487 6.06838 6.289 6.16656 6.24388C5.90044 6.12156 5.71519 5.85325 5.71519 5.54112Z" fill="#414356"/>
<path d="M13.7074 5.54112V1.2425C13.7074 0.930375 13.8926 0.662125 14.1588 0.53975C14.0605 0.494625 13.9516 0.46875 13.8364 0.46875H13.5784C13.1511 0.46875 12.8047 0.815187 12.8047 1.2425V5.54112C12.8047 5.9685 13.1511 6.31487 13.5784 6.31487H13.8364C13.9516 6.31487 14.0606 6.289 14.1588 6.24388C13.8926 6.12156 13.7074 5.85325 13.7074 5.54112Z" fill="#414356"/>
<path d="M21.7074 5.54112V1.2425C21.7074 0.930375 21.8926 0.662125 22.1587 0.53975C22.0605 0.494625 21.9516 0.46875 21.8364 0.46875H21.5784C21.1511 0.46875 20.8047 0.815187 20.8047 1.2425V5.54112C20.8047 5.9685 21.1511 6.31487 21.5784 6.31487H21.8364C21.9516 6.31487 22.0606 6.289 22.1587 6.24388C21.8926 6.12156 21.7074 5.85325 21.7074 5.54112Z" fill="#414356"/>
<path d="M10.5289 15.5156H8.93675C8.66969 15.5156 8.45312 15.7321 8.45312 15.9993C8.45312 16.2663 8.66969 16.4829 8.93675 16.4829H10.5289C10.796 16.4829 11.0125 16.2664 11.0125 15.9993C11.0125 15.7322 10.796 15.5156 10.5289 15.5156Z" fill="#585A60"/>
<path d="M14.9587 15.5156H13.3664C13.0994 15.5156 12.8828 15.7321 12.8828 15.9993C12.8828 16.2663 13.0994 16.4829 13.3664 16.4829H14.9587C15.2259 16.4829 15.4424 16.2664 15.4424 15.9993C15.4423 15.7322 15.2259 15.5156 14.9587 15.5156Z" fill="#585A60"/>
<path d="M19.3885 15.5156H17.7961C17.5291 15.5156 17.3125 15.7321 17.3125 15.9993C17.3125 16.2663 17.5291 16.4829 17.7961 16.4829H19.3885C19.6556 16.4829 19.8721 16.2664 19.8721 15.9993C19.8721 15.7322 19.6556 15.5156 19.3885 15.5156Z" fill="#585A60"/>
<path d="M23.8103 15.5156H22.218C21.9509 15.5156 21.7344 15.7321 21.7344 15.9993C21.7344 16.2663 21.9509 16.4829 22.218 16.4829H23.8103C24.0774 16.4829 24.2939 16.2664 24.2939 15.9993C24.2939 15.7322 24.0774 15.5156 23.8103 15.5156Z" fill="#585A60"/>
<path d="M6.10719 19.4141H4.51487C4.24781 19.4141 4.03125 19.6306 4.03125 19.8977C4.03125 20.1647 4.24781 20.3813 4.51487 20.3813H6.10719C6.37431 20.3813 6.59081 20.1648 6.59081 19.8977C6.59075 19.6306 6.37431 19.4141 6.10719 19.4141Z" fill="#585A60"/>
<path d="M10.5289 19.4141H8.93675C8.66969 19.4141 8.45312 19.6306 8.45312 19.8977C8.45312 20.1647 8.66969 20.3813 8.93675 20.3813H10.5289C10.796 20.3813 11.0125 20.1648 11.0125 19.8977C11.0125 19.6306 10.796 19.4141 10.5289 19.4141Z" fill="#585A60"/>
<path d="M14.9587 19.4141H13.3664C13.0994 19.4141 12.8828 19.6306 12.8828 19.8977C12.8828 20.1647 13.0994 20.3813 13.3664 20.3813H14.9587C15.2259 20.3813 15.4424 20.1648 15.4424 19.8977C15.4423 19.6306 15.2259 19.4141 14.9587 19.4141Z" fill="#585A60"/>
<path d="M19.3885 19.4141H17.7961C17.5291 19.4141 17.3125 19.6306 17.3125 19.8977C17.3125 20.1647 17.5291 20.3813 17.7961 20.3813H19.3885C19.6556 20.3813 19.8721 20.1648 19.8721 19.8977C19.8721 19.6306 19.6556 19.4141 19.3885 19.4141Z" fill="#585A60"/>
<path d="M23.8103 19.4141H22.218C21.9509 19.4141 21.7344 19.6306 21.7344 19.8977C21.7344 20.1647 21.9509 20.3813 22.218 20.3813H23.8103C24.0774 20.3813 24.2939 20.1648 24.2939 19.8977C24.2939 19.6306 24.0774 19.4141 23.8103 19.4141Z" fill="#585A60"/>
<path d="M6.10719 23.3047H4.51487C4.24781 23.3047 4.03125 23.5212 4.03125 23.7883C4.03125 24.0554 4.24781 24.2719 4.51487 24.2719H6.10719C6.37431 24.2719 6.59081 24.0554 6.59081 23.7883C6.59081 23.5212 6.37431 23.3047 6.10719 23.3047Z" fill="#585A60"/>
<path d="M10.5289 23.3047H8.93675C8.66969 23.3047 8.45312 23.5212 8.45312 23.7883C8.45312 24.0554 8.66969 24.2719 8.93675 24.2719H10.5289C10.796 24.2719 11.0125 24.0554 11.0125 23.7883C11.0125 23.5212 10.796 23.3047 10.5289 23.3047Z" fill="#585A60"/>
<path d="M14.9587 23.3047H13.3664C13.0994 23.3047 12.8828 23.5212 12.8828 23.7883C12.8828 24.0554 13.0994 24.2719 13.3664 24.2719H14.9587C15.2259 24.2719 15.4424 24.0554 15.4424 23.7883C15.4424 23.5212 15.2259 23.3047 14.9587 23.3047Z" fill="#585A60"/>
<path d="M19.3885 23.3047H17.7961C17.5291 23.3047 17.3125 23.5212 17.3125 23.7883C17.3125 24.0554 17.5291 24.2719 17.7961 24.2719H19.3885C19.6556 24.2719 19.8721 24.0554 19.8721 23.7883C19.8721 23.5212 19.6556 23.3047 19.3885 23.3047Z" fill="#585A60"/>
<path d="M23.8103 23.3047H22.218C21.9509 23.3047 21.7344 23.5212 21.7344 23.7883C21.7344 24.0554 21.9509 24.2719 22.218 24.2719H23.8103C24.0774 24.2719 24.2939 24.0554 24.2939 23.7883C24.2939 23.5212 24.0774 23.3047 23.8103 23.3047Z" fill="#585A60"/>
<path d="M6.10719 27.2031H4.51487C4.24781 27.2031 4.03125 27.4196 4.03125 27.6867C4.03125 27.9538 4.24781 28.1704 4.51487 28.1704H6.10719C6.37431 28.1704 6.59081 27.9539 6.59081 27.6867C6.59075 27.4196 6.37431 27.2031 6.10719 27.2031Z" fill="#585A60"/>
<path d="M10.5289 27.2031H8.93675C8.66969 27.2031 8.45312 27.4196 8.45312 27.6867C8.45312 27.9538 8.66969 28.1704 8.93675 28.1704H10.5289C10.796 28.1704 11.0125 27.9539 11.0125 27.6867C11.0125 27.4196 10.796 27.2031 10.5289 27.2031Z" fill="#585A60"/>
<path d="M14.9587 27.2031H13.3664C13.0994 27.2031 12.8828 27.4196 12.8828 27.6867C12.8828 27.9538 13.0994 28.1704 13.3664 28.1704H14.9587C15.2259 28.1704 15.4424 27.9539 15.4424 27.6867C15.4423 27.4196 15.2259 27.2031 14.9587 27.2031Z" fill="#585A60"/>
<path d="M19.3885 27.2031H17.7961C17.5291 27.2031 17.3125 27.4196 17.3125 27.6867C17.3125 27.9538 17.5291 28.1704 17.7961 28.1704H19.3885C19.6556 28.1704 19.8721 27.9539 19.8721 27.6867C19.8721 27.4196 19.6556 27.2031 19.3885 27.2031Z" fill="#585A60"/>
</g>
<defs>
<clipPath id="clip0_2975_24438">
<rect width="32" height="32" fill="white"/>
</clipPath>
</defs>
</svg>
