<svg width="16" height="16" viewBox="0 0 16 16" fill="none" xmlns="http://www.w3.org/2000/svg">
<path d="M7.33203 1.33301H5.9987C2.66536 1.33301 1.33203 2.66634 1.33203 5.99967V9.99967C1.33203 13.333 2.66536 14.6663 5.9987 14.6663H9.9987C13.332 14.6663 14.6654 13.333 14.6654 9.99967V8.66634" stroke="white" stroke-linecap="round" stroke-linejoin="round"/>
<path d="M10.6933 2.01448L5.43992 7.26781C5.23992 7.46781 5.03992 7.86115 4.99992 8.14781L4.71325 10.1545C4.60659 10.8811 5.11992 11.3878 5.84659 11.2878L7.85325 11.0011C8.13325 10.9611 8.52659 10.7611 8.73325 10.5611L13.9866 5.30781C14.8933 4.40115 15.3199 3.34781 13.9866 2.01448C12.6533 0.681145 11.5999 1.10781 10.6933 2.01448Z" stroke="white" stroke-miterlimit="10" stroke-linecap="round" stroke-linejoin="round"/>
<path d="M9.9375 2.76562C10.3842 4.35896 11.6308 5.60562 13.2308 6.05896" stroke="white" stroke-miterlimit="10" stroke-linecap="round" stroke-linejoin="round"/>
</svg>
