<svg width="16" height="16" viewBox="0 0 16 16" fill="none" xmlns="http://www.w3.org/2000/svg">
<path d="M7.33203 1.3335H5.9987C2.66536 1.3335 1.33203 2.66683 1.33203 6.00016V10.0002C1.33203 13.3335 2.66536 14.6668 5.9987 14.6668H9.9987C13.332 14.6668 14.6654 13.3335 14.6654 10.0002V8.66683" stroke="#808080" stroke-linecap="round" stroke-linejoin="round"/>
<path d="M10.6933 2.01399L5.43992 7.26732C5.23992 7.46732 5.03992 7.86066 4.99992 8.14732L4.71325 10.154C4.60659 10.8807 5.11992 11.3873 5.84659 11.2873L7.85325 11.0007C8.13325 10.9607 8.52659 10.7607 8.73325 10.5607L13.9866 5.30732C14.8933 4.40066 15.3199 3.34732 13.9866 2.01399C12.6533 0.680657 11.5999 1.10732 10.6933 2.01399Z" stroke="#808080" stroke-miterlimit="10" stroke-linecap="round" stroke-linejoin="round"/>
<path d="M9.9375 2.76562C10.3842 4.35896 11.6308 5.60562 13.2308 6.05896" stroke="#808080" stroke-miterlimit="10" stroke-linecap="round" stroke-linejoin="round"/>
</svg>
