<svg width="370" height="332" viewBox="0 0 370 332" fill="none" xmlns="http://www.w3.org/2000/svg">
<path d="M359.289 239.798C353.238 226.034 341.617 214.548 327.657 208.895C313.116 203.007 296.421 205.15 281.105 203.178C267.804 201.465 258.207 195.527 250.264 184.969C242.654 174.853 235.831 163.65 223.388 158.971C213.556 155.273 202.379 156.298 192.607 160.151C174.601 167.25 161.002 182.346 149.548 197.384C139.091 211.115 130.562 226.149 111.219 226.64C91.8645 227.131 73.4386 216.09 53.9508 219.015C28.1947 222.882 6.74532 244.323 2.25037 269.849C-1.96213 293.772 8.60853 316.974 26.7684 330.607H338.907C361.79 306.332 373.798 272.798 359.289 239.798Z" fill="#F4F4F4"/>
<path d="M77.1179 330.606H77.9766C83.9398 324.052 88.611 316.099 91.5804 307.271C96.3867 292.982 96.1841 277.986 91.01 265.045C88.3951 258.506 84.6192 252.411 80.9676 246.516C77.264 240.539 73.4349 234.358 70.8358 227.734C69.7612 224.995 68.9673 222.054 68.4898 219.054C68.2746 219.026 68.0592 219.003 67.8438 218.977C68.3236 222.084 69.1398 225.13 70.2515 227.963C72.871 234.64 76.7157 240.846 80.4338 246.847C84.0711 252.718 87.8324 258.79 90.4268 265.278C95.5456 278.081 95.744 292.923 90.9851 307.07C87.9793 316.008 83.2102 324.036 77.1179 330.606Z" fill="white"/>
<path opacity="0.5" d="M337.402 303.379C343.834 304.749 350.032 305.978 356.025 306.751C356.128 306.553 356.228 306.354 356.329 306.156C350.286 305.387 344.03 304.149 337.534 302.765C327.642 300.657 316.935 298.376 306.316 298.376C299.741 298.376 293.2 299.251 286.907 301.582C284.524 302.466 282.226 303.586 280.039 304.921C274.358 302.5 268.646 299.856 262.988 296.954C267.094 293.861 271.242 290.833 275.436 287.904C306.563 266.169 335.29 253.846 363.044 250.349C362.989 250.145 362.93 249.942 362.873 249.739C335.045 253.265 306.255 265.619 275.077 287.389C270.794 290.38 266.558 293.475 262.369 296.635C256.005 293.348 249.719 289.735 243.634 285.748C232.598 278.517 219.471 268.195 208.006 254.48C252.433 249.496 297.665 243.216 334.602 218.53C336.005 217.592 337.558 216.487 339.168 215.233C338.99 215.106 338.81 214.982 338.63 214.857C337.088 216.052 335.6 217.107 334.253 218.007C297.325 242.688 252.01 248.92 207.526 253.903C199.424 244.104 192.186 232.594 187.156 219.27C179.321 198.514 179.734 178.145 188.291 163.387C188.663 162.746 189.055 162.115 189.46 161.49C189.102 161.654 188.748 161.824 188.394 161.995C188.174 162.351 187.958 162.71 187.748 163.072C179.096 177.995 178.666 198.558 186.568 219.491C191.572 232.744 198.745 244.208 206.781 253.986C204.206 254.274 201.63 254.558 199.062 254.841C189.799 255.864 180.22 256.921 170.918 258.118C167.523 258.555 164.071 259.065 160.635 259.704C153.27 244.161 145.181 228.997 134.723 215.993C134.574 216.142 134.422 216.287 134.271 216.434C144.639 229.339 152.678 244.39 159.997 259.824C145.013 262.682 130.463 268.054 122.695 280.558C115.439 292.235 115.446 308.376 122.714 328.534C122.965 329.231 123.224 329.918 123.487 330.601H124.159C123.872 329.854 123.585 329.1 123.305 328.321C116.105 308.353 116.079 292.395 123.228 280.889C130.905 268.534 145.375 263.233 160.275 260.41C162.875 265.91 165.387 271.455 167.883 276.965L168.155 277.565C176.823 296.701 185.789 315.169 197.529 330.601H198.312C186.466 315.141 177.449 296.562 168.726 277.306L168.455 276.707C165.98 271.243 163.49 265.745 160.913 260.291C164.282 259.669 167.668 259.17 170.999 258.741C180.295 257.545 189.87 256.487 199.131 255.466C201.835 255.167 204.546 254.868 207.259 254.564C218.833 268.494 232.127 278.959 243.29 286.273C249.308 290.216 255.524 293.795 261.813 297.055C251.136 305.131 240.75 313.628 230.61 321.925C227.098 324.797 223.546 327.7 219.967 330.601H220.962C224.339 327.862 227.692 325.122 231.007 322.41C241.219 314.056 251.679 305.498 262.432 297.375C268.059 300.269 273.738 302.909 279.389 305.326C271.658 310.243 265.358 317.856 261.548 327.102C261.071 328.259 260.655 329.428 260.269 330.601H260.93C261.294 329.509 261.684 328.42 262.129 327.341C265.949 318.07 272.302 310.464 280.092 305.626C295.889 312.337 311.414 317.319 324.755 321.266L325.257 321.414C330.879 323.076 336.628 324.78 341.714 327.516C341.857 327.354 341.999 327.192 342.141 327.029C336.972 324.225 331.137 322.498 325.435 320.812L324.933 320.664C311.728 316.756 296.381 311.836 280.753 305.224C282.79 304.012 284.92 302.989 287.126 302.171C303.411 296.136 321.47 299.984 337.402 303.379Z" fill="#263238"/>
<path opacity="0.5" d="M28.3478 262.723C31.1202 274.071 29.8834 286.326 24.9541 296.347C21.7255 302.911 17.0631 308.853 11.3203 313.956C11.4346 314.134 11.5513 314.31 11.6673 314.487C17.5032 309.316 22.24 303.288 25.5175 296.624C30.5108 286.474 31.7647 274.063 28.9574 262.574C26.7643 253.598 22.3555 245.995 16.2642 240.494C16.1284 240.654 15.9935 240.814 15.8595 240.975C21.8493 246.391 26.1871 253.88 28.3478 262.723Z" fill="#263238"/>
<path d="M170.399 118.97C175.867 124.557 178.318 133.97 175.303 142.649C172.384 151.053 165.984 158.013 158.296 162.488C152.109 166.089 144.04 168.075 137.956 164.304C133.409 161.487 131.052 155.959 130.921 150.612C130.79 145.265 132.588 140.054 134.81 135.189C137.943 128.331 142.16 121.681 148.441 117.511C157.099 111.762 165.143 113.599 170.399 118.97Z" fill="#A6A6A6"/>
<path d="M97.9347 20.997H52.6562V0.769531H97.9347V20.997ZM53.5978 20.0554H96.9932V1.71105H53.5978V20.0554Z" fill="#E9DDCA"/>
<path d="M68.4582 40.3427H23.1797V20.1152H68.4582V40.3427ZM24.1212 39.4011H67.5166V21.0568H24.1212V39.4011Z" fill="#E9DDCA"/>
<path d="M355.546 61.8977C352.614 52.1488 347.458 43.1983 340.076 35.0154C332.679 26.8324 322.591 20.0773 309.811 14.7347C297.032 9.39187 280.795 6.7207 261.1 6.7207C245.389 6.7207 229.377 8.83926 213.065 13.0766C196.737 17.3293 182.575 23.3781 170.562 31.2387L186.198 74.1669L177.818 80.9557L189.972 84.5274C201.969 78.2481 212.899 73.6886 222.762 70.8482C232.61 68.0234 243.074 66.6109 254.169 66.6109C265.249 66.6109 273.639 69.2823 279.337 74.6249C285.035 79.983 287.876 86.4155 287.876 93.969C287.876 103.088 284.944 111.179 279.111 118.257C273.248 125.334 266.783 132.489 259.701 139.72C254.785 144.74 250.004 149.929 245.389 155.272C240.773 160.63 236.684 166.357 233.151 172.498C229.603 178.623 226.761 185.225 224.611 192.302C222.446 199.38 221.379 207.317 221.379 216.114C221.379 218.954 221.439 222.332 221.604 226.262C221.632 226.987 221.67 227.694 221.713 228.392H210.223L222.762 236.871H283.727C283.411 234.983 283.261 232.787 283.261 230.269C283.261 227.751 283.261 225.863 283.261 224.604C283.261 219.261 284.343 213.996 286.493 208.806C288.643 203.617 291.349 198.674 294.582 193.945C297.814 189.232 301.423 184.749 305.437 180.512C309.436 176.259 313.285 172.252 316.983 168.475C321.9 163.455 326.981 158.112 332.213 152.447C337.445 146.782 342.076 140.825 346.075 134.531C350.074 128.237 353.382 121.405 355.998 114.005C358.614 106.62 359.937 98.5292 359.937 89.7168C359.936 80.9195 358.463 71.6466 355.546 61.8977Z" fill="#FFA500"/>
<path d="M241.266 63.6174C230.301 63.6174 219.96 64.9843 210.228 67.7182C200.481 70.4669 189.679 74.8798 177.822 80.9568L158.641 29.3846C170.512 21.7774 184.508 15.9234 200.644 11.8075C216.765 7.70676 232.589 5.65625 248.116 5.65625C267.58 5.65625 283.626 8.24155 296.256 13.4121C308.885 18.5827 318.855 25.1202 326.165 33.0395C333.46 40.9588 338.556 49.6211 341.454 59.0559C344.336 68.4907 345.792 77.4651 345.792 85.9787C345.792 94.5072 344.485 102.337 341.899 109.484C339.314 116.646 336.045 123.258 332.093 129.349C328.141 135.441 323.565 141.206 318.394 146.689C313.224 152.171 308.202 157.342 303.343 162.2C299.688 165.856 295.884 169.733 291.932 173.849C287.965 177.95 284.399 182.288 281.204 186.85C278.01 191.426 275.335 196.21 273.211 201.232C271.086 206.254 270.016 211.351 270.016 216.521C270.016 217.74 270.016 219.567 270.016 222.004C270.016 224.441 270.165 226.565 270.477 228.393H210.228C209.604 225.347 209.232 221.93 209.084 218.126C208.92 214.322 208.861 211.054 208.861 208.305C208.861 199.791 209.916 192.11 212.055 185.26C214.18 178.411 216.988 172.022 220.494 166.093C223.986 160.15 228.027 154.608 232.589 149.423C237.15 144.252 241.875 139.23 246.734 134.371C253.732 127.373 260.121 120.45 265.916 113.6C271.68 106.75 274.578 98.9203 274.578 90.0946C274.578 82.7843 271.77 76.559 266.138 71.3736C260.507 66.2027 252.216 63.6174 241.266 63.6174Z" fill="#FBC343"/>
<path d="M287.902 296.047C287.902 307.039 284.344 315.52 277.227 321.503C270.111 327.499 262.069 330.484 253.088 330.484C244.095 330.484 236.052 327.499 228.936 321.503C221.832 315.52 218.273 307.039 218.273 296.047C218.273 285.068 221.832 276.587 228.936 270.592C239.89 261.347 256.096 259.287 268.922 265.776C280.302 271.533 287.902 283.225 287.902 296.047Z" fill="#FFA500"/>
<path d="M275.972 296.046C275.972 307.037 272.414 315.518 265.298 321.502C258.181 327.497 250.139 330.483 241.158 330.483C232.165 330.483 224.122 327.497 217.006 321.502C209.902 315.519 206.344 307.037 206.344 296.046C206.344 285.067 209.902 276.586 217.006 270.59C224.122 264.607 232.165 261.609 241.158 261.609C250.139 261.609 258.181 264.607 265.298 270.59C272.414 276.586 275.972 285.067 275.972 296.046Z" fill="#FBC343"/>
<path d="M95.4831 140.214C96.1511 136.649 93.8033 133.219 90.2392 132.551C86.6752 131.883 83.2445 134.231 82.5766 137.795C81.9086 141.359 84.2564 144.79 87.8205 145.457C91.3845 146.125 94.8152 143.778 95.4831 140.214Z" fill="#37474F"/>
<path d="M98.6236 152.555C98.9993 150.55 97.6673 148.619 95.6485 148.24C93.6298 147.862 91.6887 149.18 91.313 151.185C90.9374 153.189 92.2693 155.121 94.2881 155.499C96.3069 155.878 98.248 154.559 98.6236 152.555Z" fill="#37474F"/>
<path d="M91.1105 124.232C101.206 114.137 101.206 97.7693 91.1105 87.6741C81.0153 77.5789 64.6477 77.5789 54.5525 87.6741C44.4572 97.7693 44.4572 114.137 54.5525 124.232C64.6477 134.327 81.0153 134.327 91.1105 124.232Z" fill="#37474F"/>
<path d="M62.9054 109.207C64.7041 109.207 66.1623 107.749 66.1623 105.95C66.1623 104.152 64.7041 102.693 62.9054 102.693C61.1066 102.693 59.6484 104.152 59.6484 105.95C59.6484 107.749 61.1066 109.207 62.9054 109.207Z" fill="white"/>
<path d="M72.835 109.207C74.6338 109.207 76.092 107.749 76.092 105.95C76.092 104.152 74.6338 102.693 72.835 102.693C71.0363 102.693 69.5781 104.152 69.5781 105.95C69.5781 107.749 71.0363 109.207 72.835 109.207Z" fill="white"/>
<path d="M82.7647 109.207C84.5635 109.207 86.0216 107.749 86.0216 105.95C86.0216 104.152 84.5635 102.693 82.7647 102.693C80.966 102.693 79.5078 104.152 79.5078 105.95C79.5078 107.749 80.966 109.207 82.7647 109.207Z" fill="white"/>
<path d="M54.3158 317.543L56.7311 326.854C57.361 329.282 59.7088 330.923 62.3064 330.747C70.226 330.208 86.6808 328.268 96.1249 321.307L93.4402 307.888C80.4552 307.154 68.3116 307.876 57.7966 311.416C55.1639 312.302 53.6411 314.941 54.3158 317.543Z" fill="#FFA500"/>
<path d="M69.4477 324.949C69.3104 324.949 69.1843 324.858 69.1454 324.719L65.9023 313.107C65.8556 312.94 65.9533 312.767 66.1202 312.72C66.2882 312.674 66.4604 312.771 66.5071 312.938L69.7502 324.551C69.7967 324.718 69.6993 324.891 69.5323 324.937C69.5039 324.945 69.4753 324.949 69.4477 324.949Z" fill="#1C282B"/>
<path d="M76.4554 323.385C76.3181 323.385 76.192 323.294 76.1531 323.155L72.91 311.543C72.8636 311.376 72.961 311.203 73.128 311.156C73.2962 311.109 73.4682 311.207 73.5149 311.374L76.758 322.986C76.8047 323.153 76.707 323.326 76.54 323.373C76.5117 323.381 76.4833 323.385 76.4554 323.385Z" fill="#1C282B"/>
<path d="M84.594 267.207L54.4141 276.164L76.8271 306.873L109.004 309.432L153.386 290.665L136.521 265.287L84.594 267.207Z" fill="#1C282B"/>
<path d="M121.816 271.471C188.093 251.851 198.745 310.427 95.3348 321.09C91.6822 316.98 87.4137 309.848 85.7188 303.887L140.328 278.651L121.816 271.471Z" fill="#1C282B"/>
<path d="M124.628 313.454C121.528 312.461 118.558 310.5 118.558 310.5L107.906 313.841L110.347 325.428L121.412 327.677C124.783 321.511 124.98 316.449 124.628 313.454Z" fill="#F7A9A0"/>
<path d="M85.9496 304.294L85.4766 303.48C96.869 296.859 126.051 280.953 150.913 276.262L151.088 277.187C126.369 281.851 97.3001 297.698 85.9496 304.294Z" fill="#263238"/>
<path d="M84.6044 267.206C22.9133 255.477 6.93578 314.764 110.346 325.427C113.998 321.317 116.861 316.46 118.556 310.498C102.672 299.87 84.9112 289.767 65.446 280.144L84.6044 267.206Z" fill="#1C282B"/>
<path d="M118.3 310.897C115.365 309.029 112.307 307.054 109.07 304.964C92.8188 294.472 74.3994 282.579 58.75 275.798L59.1243 274.934C74.845 281.746 93.2989 293.661 109.58 304.173C112.817 306.263 115.873 308.236 118.805 310.102L118.3 310.897Z" fill="#263238"/>
<path d="M39.3396 296.604L38.5156 296.149C40.8313 291.956 44.5404 289.129 49.5397 287.744L49.7911 288.651C44.9777 289.984 41.5591 292.586 39.3396 296.604Z" fill="#263238"/>
<path d="M168.092 293.033C165.873 289.016 162.454 286.414 157.641 285.081L157.892 284.174C162.892 285.558 166.6 288.386 168.916 292.578L168.092 293.033Z" fill="#263238"/>
<path d="M104.563 324.907L103.875 324.264C108.81 318.979 111.841 313.4 113.141 307.207L114.062 307.4C112.726 313.766 109.619 319.493 104.563 324.907Z" fill="#263238"/>
<path d="M155.389 310C147.485 305.117 132.162 313.555 128.316 313.981C127.194 314.106 125.897 313.86 124.621 313.452C124.974 316.447 124.777 321.509 121.406 327.675L123.286 328.057C123.286 328.057 136.279 332.819 150.063 330.047C162.786 327.488 161.602 313.839 155.389 310Z" fill="#FFA500"/>
<path d="M144.625 325.975C144.593 325.975 144.562 325.97 144.53 325.96C144.365 325.908 144.273 325.732 144.325 325.566C145.264 322.593 145.674 316.743 142.954 312.815C142.856 312.672 142.891 312.477 143.034 312.378C143.176 312.279 143.372 312.315 143.47 312.458C146.318 316.572 145.9 322.664 144.924 325.755C144.881 325.889 144.758 325.975 144.625 325.975Z" fill="#1C282B"/>
<path d="M138.422 327.148C138.39 327.148 138.358 327.143 138.327 327.134C138.162 327.081 138.07 326.905 138.122 326.74C139.061 323.767 139.471 317.917 136.751 313.989C136.652 313.846 136.688 313.651 136.83 313.552C136.973 313.453 137.168 313.489 137.267 313.631C140.115 317.745 139.697 323.838 138.721 326.929C138.678 327.063 138.555 327.148 138.422 327.148Z" fill="#1C282B"/>
<path d="M73.6901 190.764C73.6901 190.764 89.2268 177.553 88.6516 175.042C88.2403 173.248 83.8393 175.879 83.8393 175.879C83.8393 175.879 90.0114 168.556 89.6975 167.667C89.1366 166.078 84.8679 169.04 84.8679 169.04C84.8679 169.04 87.7532 164.887 86.3738 164.21C84.9945 163.533 81.9871 166.093 81.9871 166.093C81.9871 166.093 83.7441 163.787 82.9186 163.182C82.0931 162.577 78.5318 165.064 78.5318 165.064C78.5318 165.064 79.8098 162.157 77.0949 163.259C74.3801 164.361 55.3438 181.831 55.3438 181.831L73.6901 190.764Z" fill="#F7A9A0"/>
<path d="M80.0464 175.092C79.9708 175.092 79.895 175.065 79.8347 175.01C77.1678 172.574 75.9921 171.982 73.0497 171.077C72.884 171.026 72.7911 170.85 72.8421 170.685C72.8931 170.519 73.0686 170.426 73.2345 170.477C76.2831 171.415 77.5005 172.027 80.2585 174.547C80.3866 174.664 80.3954 174.862 80.2786 174.99C80.2164 175.058 80.1315 175.092 80.0464 175.092Z" fill="#E28B6D"/>
<path d="M75.3689 182.261C75.3543 182.261 75.3397 182.26 75.3252 182.258C75.1534 182.234 75.0337 182.075 75.0578 181.904C75.3631 179.719 76.0508 178.354 77.1602 177.73C78.1085 177.197 79.3426 177.252 80.8282 177.893C80.9874 177.961 81.0607 178.146 80.9919 178.305C80.9233 178.465 80.7385 178.538 80.5794 178.469C79.2836 177.909 78.2369 177.845 77.4678 178.277C76.5537 178.791 75.9518 180.041 75.6794 181.99C75.6573 182.147 75.523 182.261 75.3689 182.261Z" fill="#E28B6D"/>
<path d="M74.6343 169.052C74.5509 169.052 74.4676 169.019 74.4058 168.954C74.2868 168.828 74.2928 168.629 74.4189 168.51L78.3175 164.836C78.4436 164.716 78.6422 164.723 78.7612 164.849C78.8802 164.975 78.8742 165.174 78.7481 165.292L74.8495 168.967C74.7889 169.024 74.7116 169.052 74.6343 169.052Z" fill="#E28B6D"/>
<path d="M78.228 170.309C78.1496 170.309 78.0715 170.28 78.0105 170.221C77.8855 170.101 77.8815 169.903 78.0015 169.778L81.7463 165.876C81.8663 165.751 82.0649 165.747 82.1902 165.867C82.3152 165.987 82.3192 166.186 82.1992 166.311L78.4544 170.212C78.3927 170.277 78.3103 170.309 78.228 170.309Z" fill="#E28B6D"/>
<path d="M81.931 172.502C81.8544 172.502 81.7776 172.474 81.7171 172.418C81.5903 172.299 81.5832 172.101 81.7015 171.974L84.6395 168.822C84.758 168.696 84.9561 168.689 85.0832 168.807C85.21 168.925 85.217 169.124 85.0988 169.25L82.1607 172.402C82.0987 172.468 82.0151 172.502 81.931 172.502Z" fill="#E28B6D"/>
<path d="M132.387 279.131L75.5815 281.328L69.3047 229.544C69.3047 229.544 88.3217 211.506 95.6382 204.864L107.99 204.23C146.311 221.649 140.036 243.405 132.387 279.131Z" fill="#FBC343"/>
<path d="M107.977 204.23C107.977 204.23 151.819 207.98 165.641 238.018C179.165 267.409 123.586 277.875 123.586 277.875L107.977 204.23Z" fill="#FFA500"/>
<path d="M57.868 210.668L75.9852 188.621L59.0433 178.354C51.9761 183.268 38.3097 194.398 26.728 207.001C24.1715 209.784 22.1748 213.033 21.169 216.611C20.3108 219.664 20.1549 222.68 20.6372 225.633C21.8943 233.33 27.9487 239.269 36.0305 240.216C42.9327 241.024 69.2976 238.96 90.6388 232.683L96.9156 208.457C93.6904 206.627 69.7187 206.309 57.868 210.668Z" fill="#FFA500"/>
<g opacity="0.8">
<path d="M144.559 216.148C144.654 216.126 144.748 216.105 144.843 216.083C144.645 215.965 144.446 215.851 144.247 215.736C141.034 216.476 137.719 217.232 134.451 217.626C132.487 217.863 125.926 218.296 124.008 213.924C123.054 211.749 123.776 209.33 124.855 207.633C124.698 207.587 124.542 207.543 124.385 207.498C123.28 209.296 122.571 211.82 123.577 214.113C125.625 218.783 132.462 218.34 134.508 218.093C137.87 217.688 141.27 216.905 144.559 216.148Z" fill="#263238"/>
<path d="M165.031 250.026C162.937 249.217 160.773 248.38 158.498 248.595C154.508 248.972 151.093 252.917 150.887 257.39C150.745 260.44 151.91 263.636 154.131 266.447C154.265 266.364 154.399 266.28 154.531 266.195C152.36 263.463 151.22 260.362 151.357 257.412C151.554 253.164 154.777 249.419 158.542 249.063C160.705 248.863 162.724 249.639 164.861 250.465C165.624 250.76 166.4 251.057 167.188 251.309C167.229 251.158 167.268 251.005 167.305 250.852C166.537 250.605 165.778 250.314 165.031 250.026Z" fill="#263238"/>
<path d="M54.3742 235.051C51.6371 232.788 47.3839 232.182 42.7076 233.391C38.5401 234.469 34.9643 236.605 32.5078 239.43C32.6693 239.482 32.8269 239.541 32.9906 239.589C35.3806 236.908 38.823 234.882 42.8251 233.847C47.3532 232.675 51.4543 233.248 54.0745 235.414C55.3198 236.444 56.2003 237.781 56.8403 239.224C57.002 239.205 57.1642 239.186 57.3269 239.168C56.657 237.615 55.7233 236.166 54.3742 235.051Z" fill="#263238"/>
<path d="M29.6328 203.92C34.7617 202.645 39.7666 200.855 44.3828 198.196C46.127 197.192 48.0967 195.91 49.4819 194.03C50.9554 192.029 51.445 189.646 50.7917 187.657C50.5354 186.877 50.0817 186.192 49.5145 185.643C49.3945 185.741 49.2732 185.84 49.1525 185.94C49.682 186.444 50.1063 187.079 50.3443 187.804C50.9501 189.648 50.4862 191.872 49.103 193.75C47.7696 195.561 45.8501 196.808 44.1481 197.788C39.794 200.296 35.0844 202.031 30.2467 203.284C30.0416 203.495 29.8372 203.707 29.6328 203.92Z" fill="#263238"/>
</g>
<path d="M111.992 192.718L111.984 193.522L111.857 206.008L111.841 207.36C111.817 209.477 110.95 211.395 109.549 212.788C108.157 214.172 106.239 215.04 104.114 215.055C99.8329 215.079 96.3314 211.641 96.2918 207.352L96.1406 191.922L111.992 192.718Z" fill="#F7A9A0"/>
<path d="M111.978 193.521L111.851 206.007C104.911 203.182 102.055 195.67 102.055 195.67L111.978 193.521Z" fill="#263238"/>
<path d="M114.732 171.729C117.219 174.713 124.48 191.624 117.12 197.393C108.836 203.885 96.23 193.215 96.23 193.215L94.5391 173.52L105.481 170.635L114.732 171.729Z" fill="#F7A9A0"/>
<path d="M88.9667 170.645C88.9667 170.645 64.6963 183.303 84.4858 219.791C87.0275 224.478 92.6573 226.524 97.4733 224.237C102.64 221.784 104.596 215.472 101.791 210.489C98.5534 204.738 95.4291 197.333 96.7628 191.823L88.9667 170.645Z" fill="#263238"/>
<path d="M95.8879 181.283C98.4518 178.719 98.4518 174.562 95.8879 171.998C93.324 169.434 89.1671 169.434 86.6033 171.998C84.0394 174.562 84.0394 178.719 86.6033 181.283C89.1672 183.847 93.324 183.847 95.8879 181.283Z" fill="#FFA500"/>
<path d="M99.326 184.528C98.6167 180.432 98.1843 177.623 102.324 175.512C102.324 175.512 116.913 178.165 119.699 172.66C122.484 167.156 118.24 158.469 109.354 164.504C86.6074 160.06 83.5568 181.348 90.4535 188.444L97.2606 187.399C98.6305 187.189 99.5622 185.893 99.326 184.528Z" fill="#263238"/>
<path d="M110.626 185.51C111.162 185.51 111.596 185.076 111.596 184.54C111.596 184.005 111.162 183.57 110.626 183.57C110.09 183.57 109.656 184.005 109.656 184.54C109.656 185.076 110.09 185.51 110.626 185.51Z" fill="#102048"/>
<path d="M117.189 182.272C117.724 182.272 118.159 181.838 118.159 181.302C118.159 180.766 117.724 180.332 117.189 180.332C116.653 180.332 116.219 180.766 116.219 181.302C116.219 181.838 116.653 182.272 117.189 182.272Z" fill="#102048"/>
<path d="M116.513 187.524C116.445 187.524 116.377 187.499 116.324 187.448C116.214 187.344 116.21 187.17 116.314 187.06C116.703 186.65 117.129 186.075 116.95 185.657C116.764 185.224 115.978 185.037 115.618 185.037C114.844 185.037 114.473 183.66 114.406 183.384C114.371 183.237 114.461 183.088 114.609 183.053C114.756 183.016 114.904 183.108 114.94 183.255C115.081 183.837 115.401 184.488 115.618 184.488C115.988 184.488 117.121 184.663 117.455 185.441C117.693 185.996 117.444 186.668 116.713 187.438C116.658 187.495 116.586 187.524 116.513 187.524Z" fill="#102048"/>
<path d="M116.566 191.205C116.513 191.205 116.46 191.189 116.413 191.158C114.587 189.925 112.743 190.959 112.724 190.969C112.593 191.045 112.425 191 112.349 190.868C112.274 190.737 112.319 190.569 112.45 190.493C112.538 190.443 114.613 189.28 116.72 190.703C116.845 190.787 116.879 190.958 116.794 191.084C116.741 191.163 116.654 191.205 116.566 191.205Z" fill="#102048"/>
<path d="M110.205 180.337C110.757 181.375 109.795 181.584 108.669 182.182C107.542 182.781 106.389 183 106.126 182.504C105.863 182.009 106.562 181.122 107.689 180.524C108.815 179.925 109.778 179.533 110.205 180.337Z" fill="#102048"/>
<path d="M114.309 178.465C114.551 179.391 115.243 178.985 116.248 178.722C117.254 178.459 118.066 177.954 117.95 177.512C117.834 177.07 116.926 176.925 115.92 177.188C114.915 177.451 114.121 177.747 114.309 178.465Z" fill="#102048"/>
<path opacity="0.4" d="M108.09 191.164C109.251 190.093 109.324 188.284 108.253 187.123C107.182 185.962 105.373 185.888 104.212 186.959C103.051 188.03 102.978 189.84 104.048 191.001C105.119 192.162 106.929 192.235 108.09 191.164Z" fill="#EB5D60"/>
<path d="M98.7727 191.75C100.08 190.057 99.5789 187.48 97.6544 185.995C95.73 184.51 93.1105 184.679 91.8037 186.373C90.4969 188.067 90.9976 190.643 92.922 192.128C94.8465 193.613 97.4659 193.444 98.7727 191.75Z" fill="#F7A9A0"/>
<path d="M96.9992 190.509C96.8476 190.509 96.7245 190.386 96.7245 190.234C96.7245 189.424 96.3293 188.674 95.6675 188.229C95.1016 187.849 94.4267 187.759 93.8628 187.989C93.7222 188.046 93.562 187.979 93.5048 187.839C93.4475 187.698 93.5148 187.538 93.6554 187.481C94.3888 187.182 95.2558 187.29 95.9741 187.774C96.7881 188.32 97.2739 189.24 97.2739 190.234C97.2736 190.386 97.1509 190.509 96.9992 190.509Z" fill="#102048"/>
<path d="M57.6361 210.446L47.7266 221.166L48.1875 221.592L58.097 210.872L57.6361 210.446Z" fill="#263238"/>
<path d="M127.441 256.52L127.258 255.92C134.472 253.721 141.473 251.09 147.818 243.156L148.308 243.548C141.851 251.623 134.753 254.292 127.441 256.52Z" fill="#263238"/>
<path d="M131.832 232.211H70.4648C68.2579 232.211 66.4688 234.146 66.4688 236.534V280.348C66.4688 282.735 68.2579 284.671 70.4648 284.671H131.832C134.039 284.671 135.828 282.735 135.828 280.348V236.534C135.828 234.146 134.038 232.211 131.832 232.211Z" fill="#A6A6A6"/>
<path d="M104.383 255.673C104.616 255.673 104.805 255.878 104.805 256.13V260.756C104.805 261.008 104.616 261.212 104.383 261.212H97.9037C97.6707 261.212 97.4819 261.008 97.4819 260.756V256.13C97.4819 255.878 97.6707 255.673 97.9037 255.673H104.383ZM104.383 254.418H97.9037C96.979 254.418 96.2266 255.186 96.2266 256.13V260.756C96.2266 261.7 96.979 262.467 97.9037 262.467H104.383C105.308 262.467 106.06 261.7 106.06 260.756V256.13C106.06 255.186 105.308 254.418 104.383 254.418Z" fill="#37474F"/>
<path d="M370 329.975H0V331.23H370V329.975Z" fill="#D0D0D0"/>
</svg>
