<svg width="40" height="40" viewBox="0 0 40 40" fill="none" xmlns="http://www.w3.org/2000/svg">
<path d="M23.3051 24.6371V4.85626C23.3051 2.17407 21.1307 0 18.4488 0C15.7666 0 13.5925 2.17407 13.5925 4.85626V24.6371C11.4197 26.1658 10 28.6926 10 31.5512C10 36.2173 13.7827 40 18.4488 40C23.1149 40 26.8976 36.2173 26.8976 31.5512C26.8976 28.6926 25.4776 26.1658 23.3051 24.6371Z" fill="#D8D8D8"/>
<path d="M18.4424 37.2327C15.2249 37.2327 12.6074 34.6149 12.6074 31.3977C12.6074 28.9545 14.1257 26.7792 16.4038 25.9305V4.85596C16.4038 3.73169 17.3181 2.81738 18.4424 2.81738C19.5663 2.81738 20.481 3.73169 20.481 4.85596V25.9305C22.7588 26.7789 24.2773 28.9542 24.2773 31.3974C24.2773 34.6149 21.6599 37.2327 18.4424 37.2327Z" fill="#F3E8D7"/>
<path d="M16.4038 8.58398V25.9311C14.1257 26.7795 12.6074 28.9548 12.6074 31.398C12.6074 34.6155 15.2249 37.233 18.4424 37.233C21.6599 37.233 24.2773 34.6155 24.2773 31.398C24.2773 28.9548 22.7588 26.7795 20.481 25.9311V8.58398H16.4038Z" fill="#FC4E51"/>
<path d="M30.0235 14.0784H26.5216C26.188 14.0784 25.918 13.808 25.918 13.4747C25.918 13.1415 26.188 12.8711 26.5216 12.8711H30.0235C30.3568 12.8711 30.6271 13.1415 30.6271 13.4747C30.6271 13.808 30.3568 14.0784 30.0235 14.0784Z" fill="#0D6E9A"/>
<path d="M28.1116 9.18579H26.5216C26.188 9.18579 25.918 8.91541 25.918 8.58215C25.918 8.2489 26.188 7.97852 26.5216 7.97852H28.1116C28.4448 7.97852 28.7152 8.2489 28.7152 8.58215C28.7152 8.91541 28.4448 9.18579 28.1116 9.18579Z" fill="#0D6E9A"/>
<path d="M28.6749 4.29321H26.5216C26.188 4.29321 25.918 4.02283 25.918 3.68958C25.918 3.35632 26.188 3.08594 26.5216 3.08594H28.6749C29.0085 3.08594 29.2786 3.35632 29.2786 3.68958C29.2786 4.02283 29.0085 4.29321 28.6749 4.29321Z" fill="#0D6E9A"/>
<path d="M28.6749 23.8635H26.5216C26.188 23.8635 25.918 23.5931 25.918 23.2599C25.918 22.9263 26.188 22.6562 26.5216 22.6562H28.6749C29.0085 22.6562 29.2786 22.9263 29.2786 23.2599C29.2786 23.5931 29.0085 23.8635 28.6749 23.8635Z" fill="#0D6E9A"/>
<path d="M28.1116 18.9709H26.5216C26.188 18.9709 25.918 18.7006 25.918 18.3673C25.918 18.0341 26.188 17.7637 26.5216 17.7637H28.1116C28.4448 17.7637 28.7152 18.0341 28.7152 18.3673C28.7152 18.7006 28.4448 18.9709 28.1116 18.9709Z" fill="#0D6E9A"/>
<path d="M20.4843 25.9311V8.58398H16.4072V25.9311C16.4072 25.9311 19.2255 27.2388 19.2255 31.398C19.2255 33.7106 17.8732 35.7132 15.918 36.6568C16.683 37.0261 17.5406 37.233 18.4454 37.233C21.6629 37.233 24.2807 34.6155 24.2807 31.398C24.2807 28.9548 22.7621 26.7798 20.4843 25.9311Z" fill="#E5394B"/>
</svg>
