<svg width="40" height="40" viewBox="0 0 40 40" fill="none" xmlns="http://www.w3.org/2000/svg">
<g clip-path="url(#clip0_2335_2194)">
<path d="M9.8551 3.0101C10.1984 4.52927 12.0417 5.12802 13.212 4.1008C13.4098 3.92715 13.7061 4.1423 13.602 4.384C12.9865 5.81467 14.1257 7.38266 15.6766 7.23953C15.9388 7.21542 16.052 7.56332 15.8256 7.69791C14.4868 8.4938 14.4868 10.432 15.8256 11.2276C16.052 11.3622 15.9388 11.7101 15.6766 11.6859C14.1257 11.5428 12.9865 13.1108 13.602 14.5415C13.7061 14.7835 13.4098 14.9983 13.212 14.8247C12.0417 13.7975 10.1981 14.3965 9.8551 15.9154C9.79711 16.1723 9.43121 16.1723 9.37322 15.9154C9.03021 14.3962 7.18695 13.7975 6.01629 14.8247C5.81854 14.9983 5.52221 14.7835 5.62628 14.5415C6.24182 13.1108 5.10259 11.5428 3.55169 11.6859C3.28955 11.7101 3.17633 11.3622 3.40277 11.2276C4.74157 10.432 4.74157 8.4938 3.40277 7.69791C3.17663 7.56332 3.28955 7.21542 3.55169 7.23953C5.10259 7.38266 6.24182 5.81467 5.62628 4.384C5.52221 4.1423 5.81854 3.92715 6.01629 4.1008C7.18695 5.12802 9.03021 4.52927 9.37322 3.0101C9.43121 2.75314 9.79711 2.75314 9.8551 3.0101Z" fill="#FD8F31"/>
<path d="M15.8249 11.2276C14.4861 10.432 14.4861 8.4938 15.8249 7.69791C16.0513 7.56363 15.9381 7.21542 15.676 7.23984C14.1254 7.38297 12.9861 5.81467 13.6014 4.384C13.7054 4.1423 13.4094 3.92715 13.2114 4.1008C12.041 5.12833 10.1978 4.52927 9.85443 3.0101C9.79645 2.75314 9.43054 2.75314 9.37256 3.0101C9.24561 3.57193 8.91357 4.00711 8.48633 4.28177C10.0018 5.49973 10.9726 7.3674 10.9726 9.46304C10.9726 11.5584 10.0018 13.4264 8.48633 14.6443C8.91357 14.9187 9.24561 15.3542 9.37256 15.9157C9.43054 16.1726 9.79675 16.1726 9.85443 15.9157C10.1978 14.3965 12.041 13.7978 13.2114 14.825C13.4094 14.9986 13.7054 14.7838 13.6014 14.5418C12.9861 13.1111 14.1254 11.5431 15.676 11.6862C15.9381 11.7104 16.0513 11.3622 15.8249 11.2276Z" fill="#FF7F1F"/>
<path d="M12.3376 9.46307C12.3376 10.9679 11.1178 12.1874 9.61298 12.1874C8.10846 12.1874 6.88867 10.9679 6.88867 9.46307C6.88867 7.95856 8.10846 6.73877 9.61298 6.73877C11.1178 6.73877 12.3376 7.95856 12.3376 9.46307Z" fill="#FCCF3F"/>
<path d="M29.3754 24.6371V4.85626C29.3754 2.17407 27.201 0 24.5191 0C21.8369 0 19.6628 2.17407 19.6628 4.85626V24.6371C17.49 26.1658 16.0703 28.6926 16.0703 31.5512C16.0703 36.2173 19.853 40 24.5191 40C29.1852 40 32.9679 36.2173 32.9679 31.5512C32.9679 28.6926 31.5479 26.1658 29.3754 24.6371Z" fill="#D8D8D8"/>
<path d="M24.5205 37.2332C21.303 37.2332 18.6855 34.6154 18.6855 31.3982C18.6855 28.955 20.2038 26.7797 22.4819 25.931V4.85645C22.4819 3.73218 23.3962 2.81787 24.5205 2.81787C25.6445 2.81787 26.5591 3.73218 26.5591 4.85645V25.931C28.8369 26.7794 30.3555 28.9547 30.3555 31.3979C30.3555 34.6154 27.738 37.2332 24.5205 37.2332Z" fill="#F3E8D7"/>
<path d="M22.4819 8.5835V25.9306C20.2038 26.779 18.6855 28.9543 18.6855 31.3975C18.6855 34.615 21.303 37.2325 24.5205 37.2325C27.738 37.2325 30.3555 34.615 30.3555 31.3975C30.3555 28.9543 28.8369 26.779 26.5591 25.9306V8.5835H22.4819Z" fill="#FC4E51"/>
<path d="M36.1016 14.0798H32.5997C32.2662 14.0798 31.9961 13.8094 31.9961 13.4762C31.9961 13.1429 32.2662 12.8726 32.5997 12.8726H36.1016C36.4349 12.8726 36.7053 13.1429 36.7053 13.4762C36.7053 13.8094 36.4349 14.0798 36.1016 14.0798Z" fill="#0D6E9A"/>
<path d="M34.1897 9.18726H32.5997C32.2662 9.18726 31.9961 8.91687 31.9961 8.58362C31.9961 8.25037 32.2662 7.97998 32.5997 7.97998H34.1897C34.5229 7.97998 34.7933 8.25037 34.7933 8.58362C34.7933 8.91687 34.5229 9.18726 34.1897 9.18726Z" fill="#0D6E9A"/>
<path d="M34.7531 4.29517H32.5997C32.2662 4.29517 31.9961 4.02478 31.9961 3.69153C31.9961 3.35828 32.2662 3.08789 32.5997 3.08789H34.7531C35.0866 3.08789 35.3567 3.35828 35.3567 3.69153C35.3567 4.02478 35.0866 4.29517 34.7531 4.29517Z" fill="#0D6E9A"/>
<path d="M34.7531 23.8645H32.5997C32.2662 23.8645 31.9961 23.5941 31.9961 23.2609C31.9961 22.9273 32.2662 22.6572 32.5997 22.6572H34.7531C35.0866 22.6572 35.3567 22.9273 35.3567 23.2609C35.3567 23.5941 35.0866 23.8645 34.7531 23.8645Z" fill="#0D6E9A"/>
<path d="M34.1897 18.9719H32.5997C32.2662 18.9719 31.9961 18.7015 31.9961 18.3683C31.9961 18.035 32.2662 17.7646 32.5997 17.7646H34.1897C34.5229 17.7646 34.7933 18.035 34.7933 18.3683C34.7933 18.7015 34.5229 18.9719 34.1897 18.9719Z" fill="#0D6E9A"/>
<path d="M26.5585 25.9306V8.5835H22.4814V25.9306C22.4814 25.9306 25.2997 27.2383 25.2997 31.3975C25.2997 33.7101 23.9474 35.7127 21.9922 36.6563C22.7573 37.0256 23.6148 37.2325 24.5197 37.2325C27.7371 37.2325 30.3549 34.615 30.3549 31.3975C30.3549 28.9543 28.8364 26.7793 26.5585 25.9306Z" fill="#E5394B"/>
</g>
<defs>
<clipPath id="clip0_2335_2194">
<rect width="40" height="40" fill="white"/>
</clipPath>
</defs>
</svg>
