<svg width="32" height="32" viewBox="0 0 32 32" fill="none" xmlns="http://www.w3.org/2000/svg">
<g clip-path="url(#clip0_2975_24370)">
<path d="M11.0376 20.6517C10.4081 20.2264 9.97231 19.6054 9.73438 18.7843L11.1954 18.1822C11.3281 18.6874 11.5596 19.079 11.8902 19.3569C12.2186 19.6348 12.6186 19.7717 13.086 19.7717C13.5639 19.7717 13.9744 19.6264 14.3176 19.3359C14.6607 19.0454 14.8334 18.6748 14.8334 18.2264C14.8334 17.7674 14.6523 17.3927 14.2902 17.1022C13.9281 16.8117 13.4734 16.6664 12.9302 16.6664H12.086V15.2201H12.8439C13.3112 15.2201 13.7049 15.0937 14.0249 14.8411C14.3449 14.5885 14.5049 14.2432 14.5049 13.8032C14.5049 13.4117 14.3618 13.1001 14.0754 12.8664C13.7891 12.6327 13.427 12.5149 12.987 12.5149C12.5575 12.5149 12.2165 12.6286 11.9638 12.8581C11.7112 13.0876 11.528 13.3696 11.4122 13.7022L9.96594 13.1001C10.1575 12.5569 10.5091 12.0769 11.0249 11.6622C11.5407 11.2475 12.1996 11.0391 12.9996 11.0391C13.5912 11.0391 14.1238 11.1527 14.5954 11.3822C15.067 11.6117 15.4376 11.9296 15.7049 12.3338C15.9723 12.7401 16.1049 13.1949 16.1049 13.7001C16.1049 14.2159 15.9807 14.6517 15.7323 15.0096C15.4839 15.3675 15.1786 15.6412 14.8165 15.8328V15.9191C15.2944 16.1191 15.6839 16.4244 15.9913 16.8349C16.2965 17.2454 16.4502 17.736 16.4502 18.3086C16.4502 18.8812 16.3049 19.3928 16.0144 19.8412C15.7239 20.2897 15.3218 20.6434 14.8123 20.9002C14.3007 21.157 13.7259 21.2876 13.0881 21.2876C12.3491 21.2896 11.6671 21.077 11.0376 20.6517Z" fill="#0085F7"/>
<path d="M20.0079 13.3982L18.4036 14.5582L17.6016 13.3414L20.4794 11.2656H21.5826V21.0572H20.0079V13.3982Z" fill="#0085F7"/>
<path d="M24.4249 24.4219H7.58275L5.17188 27.9742L7.58275 32.0008H24.4249L26.4166 27.7167L24.4249 24.4219Z" fill="#00A94B"/>
<path d="M24.4211 0H2.52631C1.1305 0 0 1.1305 0 2.52631V24.4211L3.7895 27.115L7.579 24.4211V7.57894H24.4211L27.0138 3.78944L24.4211 0Z" fill="#0085F7"/>
<path d="M0 24.4219V29.4745C0 30.8703 1.1305 32.0008 2.52631 32.0008H7.57894V24.4219H0Z" fill="#00802E"/>
<path d="M32.0008 7.579L28.2113 5.14062L24.4219 7.579V24.4211L27.8299 26.2001L32.0008 24.4211V7.579Z" fill="#FFBC00"/>
<path d="M32.0008 7.57894V2.52631C32.0008 1.1305 30.8703 0 29.4745 0H24.4219V7.57894H32.0008Z" fill="#0067D5"/>
<path d="M24.4219 32.0008L32.0008 24.4219H24.4219V32.0008Z" fill="#FF4131"/>
</g>
<defs>
<clipPath id="clip0_2975_24370">
<rect width="32" height="32" fill="white"/>
</clipPath>
</defs>
</svg>
