<svg width="33" height="32" viewBox="0 0 33 32" fill="none" xmlns="http://www.w3.org/2000/svg">
<path d="M15.1602 8.1206C17.0111 8.11946 18.8026 8.77353 20.2174 9.96692L24.1803 6.19308C22.659 4.79036 20.8318 3.76153 18.8435 3.18822C16.8553 2.61491 14.7608 2.51291 12.7262 2.89032C10.6917 3.26773 8.77309 4.11416 7.12274 5.36242C5.47239 6.61069 4.1357 8.22644 3.21875 10.0814L7.6864 13.525C8.20744 11.9539 9.20961 10.5865 10.551 9.6165C11.8923 8.64653 13.5049 8.12319 15.1602 8.1206Z" fill="#D94F3D"/>
<path d="M7.28165 15.9975C7.28277 15.1569 7.41903 14.322 7.68521 13.5247L3.21756 10.0811C2.3037 11.9194 1.82813 13.9445 1.82812 15.9975C1.82813 18.0505 2.3037 20.0756 3.21756 21.914L7.68521 18.4704C7.41903 17.6731 7.28277 16.8381 7.28165 15.9975Z" fill="#F2C042"/>
<path d="M27.9436 13.5732H15.2188V19.0268H22.4295C22.0006 20.5688 21.0178 21.8983 19.6694 22.7606L24.1025 26.1782C26.9354 23.6356 28.5999 19.5012 27.9436 13.5732Z" fill="#5085ED"/>
<path d="M19.6696 22.7614C18.2996 23.5456 16.7377 23.9313 15.1602 23.8752C13.5049 23.8726 11.8923 23.3492 10.551 22.3792C9.20961 21.4093 8.20744 20.0419 7.6864 18.4707L3.21875 21.9143C4.32227 24.1388 6.02456 26.0113 8.13416 27.3211C10.2438 28.631 12.677 29.3262 15.1602 29.3287C18.4276 29.4174 21.6126 28.2952 24.1027 26.1778L19.6696 22.7614Z" fill="#57A75C"/>
</svg>
