<svg width="60" height="60" viewBox="0 0 60 60" fill="none" xmlns="http://www.w3.org/2000/svg">
<g clip-path="url(#clip0_3236_29286)">
<path d="M56.4518 14.0238L60 13.0051L59.029 9.62578L55.4939 10.6406C54.9 9.31992 54.0963 8.07 53.0132 6.98684C51.93 5.90367 50.6801 5.10012 49.3594 4.50609L50.3743 0.970898L46.9949 0L45.9761 3.5482C43.0617 3.1527 40.0383 3.75656 37.5015 5.44395L35.0775 2.73832L32.4606 5.08359L34.849 7.74949L29.7356 12.8631L27.2496 10.377L24.7637 12.8631L27.2496 15.349L22.2039 20.3947L19.718 17.9088L17.2318 20.3947L19.718 22.8809L15.7245 26.8744C15.2388 27.3598 14.8372 27.8947 14.45 28.4354L11.1833 26.7443L9.56648 29.8664L12.7828 31.5311C6.83625 36.6721 5.38336 42.402 4.52801 44.0126C4.00488 45.2325 3.19629 46.3324 2.19258 47.1928L4.47937 49.8632C5.88996 48.6543 7.02363 47.1103 7.75922 45.3987C8.76152 43.3205 9.37242 40.7232 12.2769 37.1273C12.4535 38.5856 12.8718 40.0173 13.5715 41.346C12.2692 43.4673 12.1356 44.2419 10.9905 46.7825C9.21961 50.9156 4.26305 54.3339 0 55.7539L1.06148 58.9385L1.11187 59.0896C6.32648 57.3514 12.055 53.2219 14.2215 48.1686C14.6457 47.238 15.7955 44.7158 15.9272 44.4506C16.7994 45.2854 17.7612 45.964 18.7854 46.4878C18.7673 46.5286 17.7851 48.7873 17.4516 49.5537C16.2062 52.4595 14.4025 55.2673 12.0901 57.4364L14.4936 60C17.1627 57.4983 19.2457 54.295 20.6829 50.9399C21.4009 49.328 21.2026 49.6016 22.1665 47.6208C24.2517 47.9967 26.4156 47.8534 28.4379 47.1573L30.1337 50.4335L33.2558 48.8167L31.5647 45.55C32.1054 45.1629 32.6404 44.7612 33.1257 44.2755L37.1193 40.282L39.6054 42.7682L42.0913 40.282L39.6054 37.7961L44.6511 32.7504L47.137 35.2363L49.6232 32.7504L47.137 30.2643L52.2506 25.1509L54.9165 27.5393L57.2617 24.9223L54.5561 22.4982C56.2434 19.9616 56.8472 16.9383 56.4518 14.0238Z" fill="#B6DE3D"/>
<path d="M14.2216 48.1701C14.6458 47.2395 15.7955 44.7173 15.9272 44.4521C16.7995 45.2868 17.7612 45.9654 18.7854 46.4893C18.7674 46.53 17.7851 48.7887 17.4516 49.5551C16.2063 52.4609 14.4025 55.2687 12.0902 57.4379L14.4937 60.0014C17.1627 57.4997 19.2457 54.2964 20.6829 50.9413C21.4009 49.3294 21.2027 49.603 22.1665 47.6222C24.2518 47.9982 26.4156 47.8548 28.4379 47.1587L30.1337 50.435L33.2559 48.8181L31.5647 45.5514C32.1054 45.1643 32.6404 44.7626 33.1258 44.277L37.1193 40.2835L39.6054 42.7696L42.0913 40.2835L39.6054 37.7976L44.6512 32.7518L47.1371 35.2377L49.6232 32.7518L47.1371 30.2657L52.2507 25.1523L54.9166 27.5407L57.2617 24.9237L54.5561 22.4997C56.2435 19.9629 56.8473 16.9396 56.4518 14.0252L60 13.0066L59.029 9.62723L55.4939 10.6421C54.9 9.32137 54.0964 8.07145 53.0132 6.98828L1.06152 58.94L1.11191 59.091C6.32664 57.3529 12.055 53.2233 14.2216 48.1701Z" fill="#75C34E"/>
<path d="M13.238 14.4431C13.4701 14.2111 13.6675 13.9583 13.8472 13.6971L17.5434 14.6871L18.4538 11.2908L14.7402 10.2961C14.6899 9.66258 14.5296 9.04254 14.2521 8.4573L16.967 5.74242L15.7239 4.49941L14.4809 3.25641L11.7661 5.97129C11.1808 5.69379 10.5607 5.53336 9.92727 5.4832L8.93258 1.76953L5.53625 2.67996L6.52625 6.37617C6.26492 6.55582 6.01215 6.7534 5.78023 6.98531C5.5482 7.21734 5.35074 7.47012 5.17109 7.73133L1.47488 6.74133L0.564453 10.1377L4.27812 11.1323C4.3284 11.7659 4.48871 12.3859 4.76621 12.9711L2.05133 15.686L3.29434 16.929L4.53734 18.172L7.25223 15.4571C7.83746 15.7346 8.45762 15.8951 9.09102 15.9452L10.0857 19.6589L13.482 18.7486L12.492 15.0524C12.7532 14.8727 13.006 14.6752 13.238 14.4431Z" fill="#FFE477"/>
<path d="M7.25281 15.4576C7.83805 15.7351 8.4582 15.8955 9.0916 15.9457L10.0863 19.6594L13.4826 18.7491L12.4926 15.0529C12.7539 14.8732 13.0067 14.6756 13.2386 14.4437C13.4705 14.2118 13.6681 13.9589 13.8478 13.6977L17.544 14.6877L18.4544 11.2914L14.7407 10.2967C14.6905 9.66316 14.5302 9.04312 14.2527 8.45789L16.9675 5.74301L15.7245 4.5L3.29492 16.9296L4.53793 18.1726L7.25281 15.4576Z" fill="#FFCD00"/>
<path d="M50.5267 9.47235C47.1 6.04567 41.5238 6.04567 38.0971 9.47235L18.2097 29.3598C14.783 32.7865 14.783 38.3627 18.2097 41.7894C21.6363 45.2161 27.2126 45.2161 30.6393 41.7894L50.5267 21.902C53.9534 18.4753 53.9534 12.899 50.5267 9.47235Z" fill="#75C34E"/>
<path d="M30.6396 41.7897L50.527 21.9023C53.9537 18.4756 53.9537 12.8993 50.527 9.47266L18.21 41.7897C21.6366 45.2162 27.213 45.2162 30.6396 41.7897Z" fill="#32A632"/>
<path d="M32.6426 20.624C32.6414 16.9134 35.6613 13.8934 39.3721 13.8945V17.4098C37.5998 17.4098 36.1578 18.8518 36.1578 20.624H32.6426Z" fill="#4A696F"/>
<path d="M22.6719 30.585C22.6707 26.8743 25.6906 23.8543 29.4014 23.8555V27.3707C27.6291 27.3707 26.1871 28.8127 26.1871 30.585H22.6719Z" fill="#4A696F"/>
<path d="M33.2812 31.3389V27.8236C35.0535 27.8236 36.4955 26.3816 36.4955 24.6094H40.0107C40.0119 28.32 36.9919 31.34 33.2812 31.3389Z" fill="#384949"/>
<path d="M23.2031 41.0654V37.5502C24.9754 37.5502 26.4173 36.1082 26.4173 34.3359H29.9326C29.9338 38.0466 26.9137 41.0666 23.2031 41.0654Z" fill="#384949"/>
<path d="M43.0078 21.1436V17.6283C44.78 17.6283 46.222 16.1863 46.222 14.4141H49.7373C49.7385 18.1247 46.7184 21.1447 43.0078 21.1436Z" fill="#384949"/>
<path d="M9.50977 12.4727C10.4806 12.4727 11.2676 11.6857 11.2676 10.7148C11.2676 9.74403 10.4806 8.95703 9.50977 8.95703C8.53895 8.95703 7.75195 9.74403 7.75195 10.7148C7.75195 11.6857 8.53895 12.4727 9.50977 12.4727Z" fill="#4A696F"/>
<path d="M10.7525 11.9586C11.4389 11.2722 11.4389 10.159 10.7525 9.47266L8.2666 11.9586C8.95297 12.645 10.066 12.645 10.7525 11.9586Z" fill="#384949"/>
<path d="M53.0133 54.2205C53.2454 53.9884 53.4428 53.7357 53.6225 53.4745L57.3187 54.4645L58.229 51.0681L54.5153 50.0734C54.465 49.4399 54.3047 48.8199 54.0272 48.2346L56.7421 45.5198L55.4991 44.2768L54.2561 43.0338L51.5412 45.7486C50.956 45.4711 50.3359 45.3107 49.7024 45.2605L48.7077 41.5469L45.3114 42.4572L46.3014 46.1534C46.0401 46.333 45.7873 46.5306 45.5554 46.7625C45.3235 46.9945 45.1259 47.2473 44.9463 47.5086L41.2502 46.5187L40.3398 49.915L44.0535 50.9097C44.1038 51.5432 44.2641 52.1632 44.5416 52.7485L41.8267 55.4634L43.0697 56.7064L44.3127 57.9494L47.0276 55.2345C47.6129 55.512 48.2329 55.6724 48.8664 55.7226L49.8611 59.4363L53.2574 58.5259L52.2674 54.8297C52.5286 54.65 52.7814 54.4524 53.0133 54.2205Z" fill="#FFE477"/>
<path d="M47.0272 55.235C47.6125 55.5125 48.2325 55.6729 48.866 55.723L49.8607 59.4367L53.257 58.5264L52.267 54.8302C52.5284 54.6505 52.7811 54.453 53.013 54.2211C53.245 53.9891 53.4425 53.7362 53.6222 53.475L57.3184 54.465L58.2287 51.0687L54.515 50.074C54.4648 49.4405 54.3045 48.8205 54.027 48.2352L56.7418 45.5204L55.4988 44.2773L43.0693 56.707L44.3123 57.95L47.0272 55.235Z" fill="#FFCD00"/>
<path d="M49.2852 52.25C50.256 52.25 51.043 51.463 51.043 50.4922C51.043 49.5214 50.256 48.7344 49.2852 48.7344C48.3143 48.7344 47.5273 49.5214 47.5273 50.4922C47.5273 51.463 48.3143 52.25 49.2852 52.25Z" fill="#4A696F"/>
<path d="M50.5269 51.732C51.2133 51.0456 51.2133 49.9325 50.5269 49.2461L48.041 51.732C48.7274 52.4185 49.8405 52.4185 50.5269 51.732Z" fill="#384949"/>
</g>
<defs>
<clipPath id="clip0_3236_29286">
<rect width="60" height="60" fill="white"/>
</clipPath>
</defs>
</svg>
