<svg width="60" height="60" viewBox="0 0 60 60" fill="none" xmlns="http://www.w3.org/2000/svg">
<path d="M40.4713 18.5762C40.3904 18.7496 34.9893 30.2926 35.3748 44.9L36.8654 56.0738H26.3607L25.3389 47.4301C28.824 30.9113 40.3271 18.7273 40.4713 18.5762Z" fill="#59C36A"/>
<path d="M25.3389 47.4305C26.008 50.1504 26.3971 53.0473 26.3607 56.0742H19.0236L16.5838 43.9266C16.5053 33.2191 12.5244 25.4801 12.4482 25.3301C12.6264 25.4977 22.1549 34.473 25.3389 47.4305Z" fill="#97DE3D"/>
<path d="M16.5846 43.9262C18.0529 47.5039 19.0771 51.6148 19.0244 56.0738H12.2393L10.6303 47.4324C11.0264 37.4164 7.17441 30.0641 7.11816 29.9551C7.22129 30.05 13.1299 35.5109 16.5846 43.9262Z" fill="#59C36A"/>
<path d="M10.6299 47.4328C11.6143 50.0027 12.2764 52.9172 12.2389 56.0742H4.66504C7.8877 45.1758 3.11934 36.2684 3.04785 36.1348C3.15215 36.2273 8.02129 40.6219 10.6299 47.4328Z" fill="#97DE3D"/>
<path d="M47.552 25.3281C47.4898 25.45 43.4926 33.1973 43.4152 43.9258L45.1039 56.0734H36.8656C35.9117 52.2461 35.4699 48.4809 35.375 44.8996H35.3762C39.0793 33.2922 47.4219 25.45 47.552 25.3281Z" fill="#97DE3D"/>
<path d="M26.6859 14.857C27.5344 15.7055 28.7063 16.2305 30 16.2305C28.7063 16.2305 27.5344 16.7555 26.6859 17.6039C25.8375 18.4523 25.3125 19.6242 25.3125 20.918C25.3125 18.3293 23.2137 16.2305 20.625 16.2305C21.9188 16.2305 23.0906 15.7055 23.9391 14.857C24.7875 14.0086 25.3125 12.8367 25.3125 11.543C25.3125 12.8367 25.8375 14.0086 26.6859 14.857Z" fill="#FEE46F"/>
<path d="M7.73438 12.7148C9.0293 12.7148 10.0781 13.7637 10.0781 15.0586C10.0781 16.3535 9.0293 17.4023 7.73438 17.4023C6.43945 17.4023 5.39062 16.3535 5.39062 15.0586C5.39062 13.7637 6.43945 12.7148 7.73438 12.7148Z" fill="#FD697F"/>
<path d="M51.0938 11.543C53.0354 11.543 54.6094 9.96897 54.6094 8.02734C54.6094 6.08572 53.0354 4.51172 51.0938 4.51172C49.1521 4.51172 47.5781 6.08572 47.5781 8.02734C47.5781 9.96897 49.1521 11.543 51.0938 11.543Z" fill="#FD697F"/>
<path d="M53.4375 19.7461C54.0844 19.7461 54.6094 20.2711 54.6094 20.918C54.6094 21.5648 54.0844 22.0898 53.4375 22.0898C52.7906 22.0898 52.2656 21.5648 52.2656 20.918C52.2656 20.2711 52.7906 19.7461 53.4375 19.7461Z" fill="#FD697F"/>
<path d="M40.5469 5.68359C41.1938 5.68359 41.7188 6.20859 41.7188 6.85547C41.7188 7.50234 41.1938 8.02734 40.5469 8.02734C39.9 8.02734 39.375 7.50234 39.375 6.85547C39.375 6.20859 39.9 5.68359 40.5469 5.68359Z" fill="#FD697F"/>
<path d="M24.1406 26.7773C24.7875 26.7773 25.3125 27.3023 25.3125 27.9492C25.3125 28.5961 24.7875 29.1211 24.1406 29.1211C23.4937 29.1211 22.9688 28.5961 22.9688 27.9492C22.9688 27.3023 23.4937 26.7773 24.1406 26.7773Z" fill="#FD697F"/>
<path d="M18.2812 3.33984C18.9281 3.33984 19.4531 3.86484 19.4531 4.51172C19.4531 5.15859 18.9281 5.68359 18.2812 5.68359C17.6344 5.68359 17.1094 5.15859 17.1094 4.51172C17.1094 3.86484 17.6344 3.33984 18.2812 3.33984Z" fill="#FD697F"/>
<path d="M4.21875 23.2617C4.86563 23.2617 5.39062 23.7867 5.39062 24.4336C5.39062 25.0805 4.86563 25.6055 4.21875 25.6055C3.57187 25.6055 3.04688 25.0805 3.04688 24.4336C3.04688 23.7867 3.57187 23.2617 4.21875 23.2617Z" fill="#FD697F"/>
<path d="M52.8817 29.9551C52.8254 30.0641 48.9723 37.4164 49.3684 47.4348L50.7864 56.0738H45.104C43.8383 51.793 43.3872 47.6773 43.4153 43.9262C46.8712 35.5074 52.7833 30.0453 52.8817 29.9551Z" fill="#59C36A"/>
<path d="M55.3352 56.0738H50.7871C49.8953 53.0586 49.4758 50.1488 49.3691 47.4348H49.3703C51.9719 40.6379 56.827 36.2469 56.9512 36.1367C56.841 36.343 52.1254 45.2211 55.3352 56.0738Z" fill="#97DE3D"/>
<path d="M56.9531 56.6602H3.04688C2.7232 56.6602 2.46094 56.3978 2.46094 56.0742C2.46094 55.7507 2.7232 55.4883 3.04688 55.4883H56.9531C57.2768 55.4883 57.5391 55.7507 57.5391 56.0742C57.5391 56.3978 57.2768 56.6602 56.9531 56.6602Z" fill="#C9885B"/>
</svg>
