<svg width="20" height="20" viewBox="0 0 20 20" fill="none" xmlns="http://www.w3.org/2000/svg">
<circle cx="10" cy="10" r="6" fill="#FFA500"/>
<path fill-rule="evenodd" clip-rule="evenodd" d="M18.6667 10.3333C18.6667 14.9357 14.9357 18.6667 10.3333 18.6667C5.73096 18.6667 2 14.9357 2 10.3333C2 5.73096 5.73096 2 10.3333 2C14.9357 2 18.6667 5.73096 18.6667 10.3333ZM10.3333 6.375C10.6785 6.375 10.9583 6.65482 10.9583 7V9.70833H13.6667C14.0118 9.70833 14.2917 9.98816 14.2917 10.3333C14.2917 10.6785 14.0118 10.9583 13.6667 10.9583H10.9583V13.6667C10.9583 14.0118 10.6785 14.2917 10.3333 14.2917C9.98816 14.2917 9.70833 14.0118 9.70833 13.6667V10.9583H7C6.65482 10.9583 6.375 10.6785 6.375 10.3333C6.375 9.98816 6.65482 9.70833 7 9.70833H9.70833V7C9.70833 6.65482 9.98816 6.375 10.3333 6.375Z" fill="#1C282B"/>
</svg>
