<svg width="42" height="52" viewBox="0 0 42 52" fill="none" xmlns="http://www.w3.org/2000/svg">
<path d="M20.5391 27.26C20.5391 22.43 27.7403 11.7113 30.2778 8.08002C30.3762 7.93922 30.5071 7.82425 30.6595 7.74486C30.8118 7.66548 30.981 7.62402 31.1528 7.62402C31.3246 7.62402 31.4938 7.66548 31.6462 7.74486C31.7985 7.82425 31.9294 7.93922 32.0278 8.08002C34.5653 11.7113 41.7578 22.43 41.7578 27.26C41.6785 30.0211 40.526 32.6424 38.545 34.5673C36.564 36.4922 33.9106 37.5691 31.1484 37.5691C28.3863 37.5691 25.7329 36.4922 23.7519 34.5673C21.7709 32.6424 20.6184 30.0211 20.5391 27.26Z" fill="#02B0E9"/>
<path d="M0.195312 33.5688C0.195312 25.4663 12.2703 7.48508 16.5316 1.39508C16.6902 1.14947 16.9079 0.947528 17.1647 0.807697C17.4214 0.667866 17.7092 0.594604 18.0016 0.594604C18.294 0.594604 18.5817 0.667866 18.8385 0.807697C19.0953 0.947528 19.3129 1.14947 19.4716 1.39508C23.7328 7.52008 35.8078 25.4663 35.8078 33.5688C35.8078 38.2913 33.9318 42.8204 30.5925 46.1597C27.2532 49.4991 22.7241 51.3751 18.0016 51.3751C13.2791 51.3751 8.74996 49.4991 5.41064 46.1597C2.07132 42.8204 0.195313 38.2913 0.195312 33.5688Z" fill="#1CC7FF"/>
<path d="M32.3078 33.5688C32.3078 35.4475 31.9378 37.3079 31.2188 39.0436C30.4999 40.7793 29.4461 42.3564 28.1176 43.6849C26.7892 45.0133 25.212 46.0671 23.4763 46.7861C21.7406 47.505 19.8803 47.8751 18.0016 47.8751C16.1228 47.8751 14.2625 47.505 12.5268 46.7861C10.7911 46.0671 9.21397 45.0133 7.88552 43.6849C6.55706 42.3564 5.50327 40.7793 4.78431 39.0436C4.06535 37.3079 3.69531 35.4475 3.69531 33.5688C3.88144 31.409 4.4503 29.2994 5.37531 27.3388C5.93508 27.5451 6.52895 27.6431 7.12531 27.6276C9.83781 27.6276 9.83781 26.1226 12.5503 26.1226C15.2628 26.1226 15.2716 27.6276 17.9841 27.6276C20.6966 27.6276 20.6966 26.1226 23.4178 26.1226C26.1391 26.1226 26.1303 27.6276 28.8428 27.6276C29.4396 27.6386 30.0332 27.5377 30.5928 27.3301C31.5322 29.2907 32.113 31.4036 32.3078 33.5688Z" fill="#02B0E9"/>
</svg>
