<svg width="40" height="40" viewBox="0 0 40 40" fill="none" xmlns="http://www.w3.org/2000/svg">
<path d="M21.8125 20.8997C21.8125 17.4497 26.9562 9.79349 28.7687 7.19974C28.839 7.09917 28.9326 7.01704 29.0414 6.96034C29.1502 6.90363 29.2711 6.87402 29.3937 6.87402C29.5164 6.87402 29.6373 6.90363 29.7461 6.96034C29.8549 7.01704 29.9485 7.09917 30.0187 7.19974C31.8312 9.79349 36.9688 17.4497 36.9688 20.8997C36.9121 22.8719 36.0889 24.7443 34.6739 26.1192C33.2589 27.4942 31.3636 28.2633 29.3906 28.2633C27.4176 28.2633 25.5224 27.4942 24.1074 26.1192C22.6924 24.7443 21.8691 22.8719 21.8125 20.8997Z" fill="#02B0E9"/>
<path d="M7.28125 25.406C7.28125 19.6185 15.9062 6.77479 18.95 2.42479C19.0633 2.24936 19.2188 2.10512 19.4022 2.00524C19.5856 1.90536 19.7912 1.85303 20 1.85303C20.2089 1.85303 20.4144 1.90536 20.5978 2.00524C20.7812 2.10512 20.9367 2.24936 21.05 2.42479C24.0938 6.79979 32.7187 19.6185 32.7187 25.406C32.7187 28.7793 31.3787 32.0143 28.9935 34.3996C26.6083 36.7848 23.3732 38.1248 20 38.1248C16.6268 38.1248 13.3917 36.7848 11.0065 34.3996C8.62126 32.0143 7.28125 28.7793 7.28125 25.406Z" fill="#1CC7FF"/>
<path d="M30.2187 25.4062C30.2187 26.7481 29.9544 28.0769 29.4409 29.3167C28.9274 30.5565 28.1746 31.683 27.2257 32.6319C26.2768 33.5808 25.1503 34.3335 23.9105 34.847C22.6708 35.3606 21.3419 35.6249 20 35.6249C18.6581 35.6249 17.3292 35.3606 16.0895 34.847C14.8497 34.3335 13.7232 33.5808 12.7743 32.6319C11.8254 31.683 11.0726 30.5565 10.5591 29.3167C10.0456 28.0769 9.78125 26.7481 9.78125 25.4062C9.9142 23.8634 10.3205 22.3566 10.9813 20.9562C11.3811 21.1035 11.8053 21.1735 12.2313 21.1624C14.1687 21.1624 14.1688 20.0874 16.1063 20.0874C18.0438 20.0874 18.05 21.1624 19.9875 21.1624C21.925 21.1624 21.925 20.0874 23.8687 20.0874C25.8125 20.0874 25.8062 21.1624 27.7437 21.1624C28.17 21.1703 28.594 21.0982 28.9937 20.9499C29.6647 22.3503 30.0796 23.8595 30.2187 25.4062Z" fill="#02B0E9"/>
<path d="M25.1358 14.6246C25.2187 14.7688 25.3555 14.8742 25.5161 14.9176C25.6766 14.9609 25.8479 14.9388 25.9921 14.8559C26.1363 14.773 26.2417 14.6362 26.285 14.4756C26.3284 14.3151 26.3062 14.1438 26.2233 13.9996C25.4796 12.6934 24.6546 11.3121 23.7671 9.89962C23.7232 9.83026 23.666 9.77022 23.5989 9.72295C23.5318 9.67567 23.4561 9.64208 23.376 9.62408C23.2959 9.60609 23.213 9.60405 23.1321 9.61809C23.0513 9.63212 22.9739 9.66195 22.9046 9.70587C22.8347 9.74927 22.7741 9.80604 22.7262 9.87292C22.6783 9.9398 22.6441 10.0155 22.6255 10.0956C22.6069 10.1757 22.6044 10.2587 22.6179 10.3399C22.6315 10.421 22.661 10.4986 22.7046 10.5684C23.5858 11.9684 24.3733 13.3309 25.1358 14.6246Z" fill="white"/>
<path d="M16.6742 31.7122L24.1742 24.8372C24.2349 24.7814 24.2841 24.7142 24.3189 24.6394C24.3536 24.5645 24.3733 24.4836 24.3768 24.4012C24.3803 24.3188 24.3675 24.2365 24.3391 24.159C24.3108 24.0816 24.2675 24.0104 24.2117 23.9497C24.1559 23.889 24.0887 23.8398 24.0139 23.8051C23.9391 23.7703 23.8581 23.7506 23.7757 23.7471C23.6933 23.7437 23.611 23.7564 23.5336 23.7848C23.4561 23.8131 23.3849 23.8564 23.3242 23.9122L15.8242 30.7872C15.7635 30.843 15.7143 30.9102 15.6796 30.985C15.6448 31.0599 15.6251 31.1408 15.6217 31.2232C15.6182 31.3056 15.631 31.3879 15.6593 31.4654C15.6876 31.5428 15.7309 31.614 15.7867 31.6747C15.8425 31.7354 15.9098 31.7846 15.9846 31.8193C16.0594 31.8541 16.1403 31.8738 16.2227 31.8773C16.3051 31.8807 16.3874 31.868 16.4649 31.8396C16.5423 31.8113 16.6135 31.768 16.6742 31.7122Z" fill="white"/>
<path d="M15.625 25.6245C15.625 25.9954 15.735 26.3579 15.941 26.6662C16.147 26.9745 16.4399 27.2149 16.7825 27.3568C17.1251 27.4987 17.5021 27.5358 17.8658 27.4635C18.2295 27.3911 18.5636 27.2126 18.8258 26.9503C19.088 26.6881 19.2666 26.354 19.339 25.9903C19.4113 25.6266 19.3742 25.2496 19.2323 24.907C19.0904 24.5644 18.85 24.2715 18.5417 24.0655C18.2334 23.8595 17.8708 23.7495 17.5 23.7495C17.0027 23.7495 16.5258 23.9471 16.1742 24.2987C15.8225 24.6503 15.625 25.1272 15.625 25.6245ZM17.5 24.9995C17.6236 24.9995 17.7445 25.0362 17.8472 25.1048C17.95 25.1735 18.0301 25.2711 18.0774 25.3853C18.1247 25.4995 18.1371 25.6252 18.113 25.7464C18.0889 25.8677 18.0294 25.979 17.9419 26.0665C17.8545 26.1539 17.7432 26.2134 17.6219 26.2375C17.5007 26.2616 17.375 26.2492 17.2608 26.2019C17.1466 26.1546 17.049 26.0745 16.9803 25.9717C16.9117 25.869 16.875 25.7481 16.875 25.6245C16.875 25.4588 16.9408 25.2998 17.0581 25.1826C17.1753 25.0654 17.3342 24.9995 17.5 24.9995Z" fill="white"/>
<path d="M24.375 29.9995C24.375 29.6287 24.265 29.2662 24.059 28.9578C23.853 28.6495 23.5601 28.4092 23.2175 28.2672C22.8749 28.1253 22.4979 28.0882 22.1342 28.1605C21.7705 28.2329 21.4364 28.4115 21.1742 28.6737C20.912 28.9359 20.7334 29.27 20.661 29.6337C20.5887 29.9974 20.6258 30.3744 20.7677 30.717C20.9096 31.0597 21.15 31.3525 21.4583 31.5585C21.7666 31.7645 22.1292 31.8745 22.5 31.8745C22.9973 31.8745 23.4742 31.677 23.8258 31.3253C24.1775 30.9737 24.375 30.4968 24.375 29.9995ZM22.5 30.6245C22.3764 30.6245 22.2556 30.5879 22.1528 30.5192C22.05 30.4505 21.9699 30.3529 21.9226 30.2387C21.8753 30.1245 21.8629 29.9988 21.887 29.8776C21.9111 29.7563 21.9707 29.645 22.0581 29.5576C22.1455 29.4702 22.2568 29.4106 22.3781 29.3865C22.4993 29.3624 22.625 29.3748 22.7392 29.4221C22.8534 29.4694 22.951 29.5495 23.0197 29.6523C23.0883 29.7551 23.125 29.8759 23.125 29.9995C23.125 30.1653 23.0592 30.3242 22.9419 30.4415C22.8247 30.5587 22.6658 30.6245 22.5 30.6245Z" fill="white"/>
<path d="M26.875 16.8745C27.2202 16.8745 27.5 16.5947 27.5 16.2495C27.5 15.9043 27.2202 15.6245 26.875 15.6245C26.5298 15.6245 26.25 15.9043 26.25 16.2495C26.25 16.5947 26.5298 16.8745 26.875 16.8745Z" fill="white"/>
</svg>
