<svg width="60" height="60" viewBox="0 0 60 60" fill="none" xmlns="http://www.w3.org/2000/svg">
<g clip-path="url(#clip0_3204_28214)">
<path d="M38.4375 41.25C38.4375 39.0497 38.4375 37.3734 38.4375 37.3734C44.5547 34.2863 48.75 27.945 48.75 20.625C48.75 10.2694 40.3556 1.875 30 1.875C19.6444 1.875 11.25 10.2694 11.25 20.625C11.25 27.945 15.4453 34.2863 21.5625 37.3734V41.25H38.4375Z" fill="#FFC239"/>
<path d="M30.0038 1.875C24.6066 1.875 19.7569 4.16812 16.3359 7.81781C18.4809 21.4172 29.2247 32.1572 42.8259 34.2956C46.4719 30.8756 48.7538 26.0184 48.7538 20.625C48.7538 10.2694 40.3594 1.875 30.0038 1.875Z" fill="#FFD55D"/>
<path d="M43.5434 14.7862C44.6622 13.5733 43.6064 10.7796 41.1853 8.54629C38.7642 6.31294 35.8945 5.48565 34.7757 6.69849C33.657 7.91133 34.7127 10.705 37.1338 12.9384C39.5549 15.1717 42.4246 15.999 43.5434 14.7862Z" fill="#FFF7DF"/>
<path d="M28.1238 41.2488H26.2488V26.6369L23.7109 24.0991L25.0366 22.7734L27.8491 25.5859C28.0253 25.7613 28.1238 26.0003 28.1238 26.2488V41.2488Z" fill="#F1F1F3"/>
<path d="M33.75 41.2488H31.875V26.2488C31.875 26.0003 31.9734 25.7613 32.1497 25.5859L34.9622 22.7734L36.2878 24.0991L33.75 26.6369V41.2488Z" fill="#F1F1F3"/>
<path d="M56.2172 11.4469C57.9141 10.4766 59.0625 8.65312 59.0625 6.5625C59.0625 3.46031 56.5397 0.9375 53.4375 0.9375C51.3431 0.9375 49.5159 2.08969 48.5484 3.79219C43.5975 4.09594 36.9131 7.27781 30.0019 12.4594C19.4381 4.54781 9.64219 1.51406 5.57812 5.57812C2.78625 8.37 3.19688 13.7672 6.70406 20.8116C6.03844 21.4884 5.625 22.4147 5.625 23.4375C5.625 25.5056 7.30687 27.1875 9.375 27.1875C11.4431 27.1875 13.125 25.5056 13.125 23.4375C13.125 21.3694 11.4431 19.6875 9.375 19.6875C9.0075 19.6875 8.65875 19.7569 8.32219 19.8563C5.34469 13.8159 4.80187 9.00562 6.90375 6.90375C9.87375 3.93469 18.4275 6.22969 28.4606 13.6406C25.8366 15.7106 23.1975 18.0534 20.625 20.625C10.7541 30.4969 4.23281 41.3559 3.79219 48.5484C2.08969 49.5159 0.9375 51.3431 0.9375 53.4375C0.9375 56.5397 3.46031 59.0625 6.5625 59.0625C8.655 59.0625 10.4813 57.9113 11.4497 56.2116C14.5087 56.0212 18.3244 54.7172 22.5112 52.4109L26.0241 50.7497L25.2225 49.0547L21.6591 50.7422C18.0291 52.74 14.7675 53.9419 12.1181 54.2747C12.1594 54 12.1875 53.7225 12.1875 53.4375C12.1875 50.3353 9.66469 47.8125 6.5625 47.8125C6.27563 47.8125 5.99531 47.8406 5.71969 47.8828C6.55594 41.1966 12.8897 31.0125 21.9506 21.9516C24.5831 19.3191 27.3103 16.9275 30.0188 14.8228C32.6353 16.8637 35.3334 19.2366 38.0484 21.9516C41.8734 25.7766 45.2934 29.8884 47.9991 33.8925C47.3072 34.5722 46.875 35.5172 46.875 36.5625C46.875 38.6306 48.5569 40.3125 50.625 40.3125C50.9925 40.3125 51.3413 40.2431 51.6778 40.1437C54.6553 46.1841 55.1972 50.9944 53.0963 53.0963C50.7666 55.4241 45.2503 54.5438 38.3025 50.7216L35.5744 49.3809L34.7475 51.0637L37.4362 52.3838C42.0769 54.9384 46.1475 56.235 49.3153 56.235C51.4706 56.235 53.2078 55.6341 54.4209 54.4209C57.2128 51.6291 56.8022 46.2319 53.295 39.1875C53.9616 38.5116 54.375 37.5853 54.375 36.5625C54.375 34.4944 52.6931 32.8125 50.625 32.8125C50.28 32.8125 49.9519 32.8744 49.6341 32.9625C48.9731 31.9791 48.2728 30.9909 47.5312 30.0009C52.7869 22.9781 55.9153 16.2909 56.2172 11.4469ZM11.25 23.4375C11.25 24.4716 10.4091 25.3125 9.375 25.3125C8.34094 25.3125 7.5 24.4716 7.5 23.4375C7.5 22.4034 8.34094 21.5625 9.375 21.5625C10.4091 21.5625 11.25 22.4034 11.25 23.4375ZM10.3125 53.4375C10.3125 55.5056 8.63063 57.1875 6.5625 57.1875C4.49437 57.1875 2.8125 55.5056 2.8125 53.4375C2.8125 51.3694 4.49437 49.6875 6.5625 49.6875C8.63063 49.6875 10.3125 51.3694 10.3125 53.4375ZM52.5 36.5625C52.5 37.5966 51.6591 38.4375 50.625 38.4375C49.5909 38.4375 48.75 37.5966 48.75 36.5625C48.75 35.5284 49.5909 34.6875 50.625 34.6875C51.6591 34.6875 52.5 35.5284 52.5 36.5625ZM53.4375 2.8125C55.5056 2.8125 57.1875 4.49437 57.1875 6.5625C57.1875 8.63063 55.5056 10.3125 53.4375 10.3125C51.3694 10.3125 49.6875 8.63063 49.6875 6.5625C49.6875 4.49437 51.3694 2.8125 53.4375 2.8125ZM31.5591 13.6538C37.6341 9.17531 43.5075 6.26719 47.8828 5.72063C47.8406 5.99531 47.8125 6.27563 47.8125 6.5625C47.8125 9.66469 50.3353 12.1875 53.4375 12.1875C53.7206 12.1875 53.9972 12.1594 54.27 12.1191C53.7216 16.4081 50.8528 22.3369 46.3453 28.455C44.2472 25.7934 41.8959 23.1469 39.375 20.625C36.7866 18.0375 34.1569 15.7031 31.5591 13.6538Z" fill="#5490F5"/>
<path d="M21.5625 45V47.8125H38.4375C38.4375 46.9378 38.4375 45.9759 38.4375 45H21.5625Z" fill="#393A3A"/>
<path d="M36.5625 51.5625C36.5625 55.1869 33.6244 58.125 30 58.125C26.3756 58.125 23.4375 55.1869 23.4375 51.5625H36.5625Z" fill="#393A3A"/>
<path d="M39.375 45H20.625C20.1075 45 19.6875 44.58 19.6875 44.0625V42.1875C19.6875 41.67 20.1075 41.25 20.625 41.25H39.375C39.8925 41.25 40.3125 41.67 40.3125 42.1875V44.0625C40.3125 44.58 39.8925 45 39.375 45Z" fill="#D5D6D8"/>
<path d="M39.375 41.25H21.5625V42.1875C21.5625 43.2234 22.4016 44.0625 23.4375 44.0625H40.3125V42.1875C40.3125 41.67 39.8925 41.25 39.375 41.25Z" fill="#F1F1F3"/>
<path d="M39.375 51.5625H20.625C20.1075 51.5625 19.6875 51.1425 19.6875 50.625V48.75C19.6875 48.2325 20.1075 47.8125 20.625 47.8125H39.375C39.8925 47.8125 40.3125 48.2325 40.3125 48.75V50.625C40.3125 51.1425 39.8925 51.5625 39.375 51.5625Z" fill="#D5D6D8"/>
<path d="M39.375 47.8125H21.5625V48.75C21.5625 49.7859 22.4016 50.625 23.4375 50.625H40.3125V48.75C40.3125 48.2325 39.8925 47.8125 39.375 47.8125Z" fill="#F1F1F3"/>
<path d="M53.44 0.9375C51.3456 0.9375 49.5184 2.08969 48.5509 3.79219C43.6 4.09594 36.9156 7.27781 30.0044 12.4594C23.4906 7.58062 17.2741 4.56562 12.5078 3.91687C12.5772 4.56375 12.6606 5.20594 12.7525 5.84531C16.8344 6.54 22.3722 9.14156 28.4641 13.6406C25.8391 15.7106 23.2 18.0534 20.6275 20.625C19.8391 21.4134 19.0816 22.2084 18.3372 23.0072C18.6447 23.5912 18.9662 24.1659 19.2944 24.7359C20.1531 23.7994 21.0353 22.8684 21.9531 21.9506C24.5856 19.3181 27.3128 16.9266 30.0212 14.8219C32.6378 16.8628 35.3359 19.2356 38.0509 21.9506C41.8759 25.7756 45.2959 29.8875 48.0016 33.8916C47.3097 34.5722 46.8775 35.5172 46.8775 36.5625C46.8775 38.6306 48.5594 40.3125 50.6275 40.3125C50.995 40.3125 51.3438 40.2431 51.6803 40.1437C53.7203 44.2809 54.6156 47.8406 54.3025 50.3494C54.9156 50.4816 55.5344 50.5978 56.155 50.7094C56.5713 47.7703 55.6141 43.8422 53.2975 39.1894C53.9641 38.5116 54.3775 37.5853 54.3775 36.5625C54.3775 34.4944 52.6956 32.8125 50.6275 32.8125C50.2825 32.8125 49.9544 32.8744 49.6366 32.9625C48.9756 31.9791 48.2753 30.9909 47.5337 30.0009C52.7894 22.9791 55.9178 16.2919 56.2197 11.4469C57.9166 10.4766 59.065 8.65312 59.065 6.5625C59.065 3.46031 56.5422 0.9375 53.44 0.9375ZM50.6275 34.6875C51.6616 34.6875 52.5025 35.5284 52.5025 36.5625C52.5025 37.5966 51.6616 38.4375 50.6275 38.4375C49.5934 38.4375 48.7525 37.5966 48.7525 36.5625C48.7525 35.5284 49.5934 34.6875 50.6275 34.6875ZM46.3478 28.455C44.2497 25.7934 41.8984 23.1469 39.3775 20.625C36.7891 18.0366 34.1603 15.7031 31.5625 13.6528C37.6375 9.17437 43.5109 6.26625 47.8862 5.71969C47.8431 5.99531 47.815 6.27562 47.815 6.5625C47.815 9.66469 50.3378 12.1875 53.44 12.1875C53.7231 12.1875 53.9997 12.1594 54.2725 12.1191C53.7241 16.4081 50.8553 22.3369 46.3478 28.455ZM53.44 10.3125C51.3719 10.3125 49.69 8.63062 49.69 6.5625C49.69 4.49437 51.3719 2.8125 53.44 2.8125C55.5081 2.8125 57.19 4.49437 57.19 6.5625C57.19 8.63062 55.5081 10.3125 53.44 10.3125Z" fill="#81B4FC"/>
</g>
<defs>
<clipPath id="clip0_3204_28214">
<rect width="60" height="60" fill="white"/>
</clipPath>
</defs>
</svg>
