<svg width="259" height="60" viewBox="0 0 259 60" fill="none" xmlns="http://www.w3.org/2000/svg">
<g clip-path="url(#clip0_2009_4203)">
<path d="M59.1245 8.20113C59.124 8.51457 59.1064 8.82773 59.0718 9.13925C56.5164 8.01032 53.6286 7.88815 50.9868 8.7971C49.5131 6.26093 47.4316 4.13079 44.9297 2.59861C46.0538 1.39637 47.5137 0.560139 49.1197 0.198508C50.7256 -0.163122 52.4033 -0.0334071 53.9345 0.570927C55.4657 1.17526 56.7795 2.22616 57.7051 3.58697C58.6307 4.94778 59.1253 6.55556 59.1245 8.20113Z" fill="#FFA500"/>
<path d="M74.0242 29.9816C74.0249 32.8535 72.9067 35.6128 70.9067 37.6746C68.9067 39.7363 66.1821 40.9385 63.3104 41.0262H62.5922L11.6928 40.94C11.5324 40.94 11.372 40.952 11.214 40.952C9.61258 40.9476 8.03062 40.6006 6.57446 39.9343C5.1183 39.2681 3.82168 38.298 2.77172 37.0892C1.72176 35.8805 0.942797 34.4611 0.487172 32.9264C0.0315478 31.3917 -0.0901833 29.7773 0.130164 28.1917C0.35051 26.6061 0.907832 25.086 1.76467 23.7336C2.6215 22.3812 3.75801 21.2278 5.09781 20.3508C6.4376 19.4739 7.94966 18.8938 9.53236 18.6495C11.1151 18.4053 12.7317 18.5024 14.2737 18.9346C14.3724 18.1786 14.7424 17.4842 15.3149 16.9806C15.8874 16.477 16.6235 16.1985 17.3861 16.1967C17.6206 16.1962 17.8544 16.2227 18.0828 16.2757C18.3764 12.5216 19.8632 8.95961 22.3259 6.11012C24.7886 3.26062 28.0983 1.27285 31.7714 0.437244C35.4446 -0.398359 39.2888 -0.0381017 42.7426 1.46546C46.1964 2.96902 49.0787 5.53709 50.9686 8.79452C52.6342 8.21975 54.413 8.05127 56.1569 8.30303C57.9008 8.55479 59.5593 9.21944 60.9941 10.2418C62.4289 11.2641 63.5984 12.6145 64.4053 14.1803C65.2122 15.7461 65.633 17.482 65.6327 19.2433V19.2552C68.0285 19.8503 70.1561 21.2297 71.6768 23.1735C73.1975 25.1173 74.0238 27.514 74.0242 29.9816Z" fill="#4A4A4A"/>
<path d="M45.3328 43.374L40.5637 48.1413L38.5334 50.1731L28.7031 59.9996L34.1187 50.1779L35.2367 48.1485L36.2399 46.332H30.0438L32.4595 43.374H45.3328Z" fill="#FFD700"/>
<path d="M87.8906 30.7888V10.5949H94.5942C95.9406 10.586 97.2744 10.8531 98.5134 11.3799C100.938 12.421 102.869 14.3529 103.91 16.7766C104.428 18.0169 104.695 19.3477 104.695 20.6919C104.695 22.036 104.428 23.3668 103.91 24.6071C102.87 27.031 100.938 28.9624 98.5134 30.0014C97.2749 30.5298 95.9408 30.7978 94.5942 30.7888H87.8906ZM91.4052 27.2684H94.5798C95.4504 27.2739 96.3128 27.0995 97.1128 26.7562C98.6944 26.0829 99.9574 24.829 100.642 23.2526C100.985 22.4437 101.161 21.5741 101.161 20.6955C101.161 19.8169 100.985 18.9473 100.642 18.1383C100.298 17.3575 99.8107 16.648 99.2053 16.0466C98.605 15.4441 97.8947 14.9625 97.1128 14.6275C96.3107 14.2828 95.4457 14.1084 94.5727 14.1153H91.4052V27.2684Z" fill="#4A4A4A"/>
<path d="M116.996 16.3651H120.515V30.789H116.996L116.835 29.0013C116.447 29.6404 115.91 30.1764 115.27 30.564C114.574 30.976 113.777 31.1842 112.969 31.1648C111.937 31.1716 110.915 30.9647 109.967 30.5569C108.113 29.7579 106.638 28.2761 105.849 26.419C105.446 25.4701 105.242 24.4487 105.25 23.4179C105.243 22.4234 105.437 21.4376 105.82 20.5198C106.189 19.6286 106.731 18.8193 107.415 18.1385C108.093 17.4586 108.896 16.9151 109.78 16.5375C110.688 16.1507 111.666 15.9544 112.653 15.9607C113.547 15.9456 114.43 16.1642 115.215 16.5949C115.95 17.0062 116.6 17.5545 117.13 18.2103L116.996 16.3651ZM112.883 27.7712C113.588 27.784 114.281 27.5884 114.875 27.2087C115.454 26.8316 115.922 26.306 116.23 25.6867C116.553 25.0265 116.721 24.3013 116.721 23.5664C116.721 22.8314 116.553 22.1061 116.23 21.4459C115.92 20.8261 115.449 20.3006 114.867 19.9238C114.275 19.5472 113.585 19.3517 112.883 19.3614C112.166 19.3548 111.462 19.5533 110.855 19.9334C110.237 20.3188 109.727 20.8555 109.374 21.4928C109.021 22.13 108.836 22.8467 108.838 23.5751C108.839 24.3035 109.026 25.0195 109.382 25.6554C109.737 26.2912 110.249 26.8258 110.869 27.2087C111.474 27.5825 112.172 27.7775 112.883 27.7712Z" fill="#4A4A4A"/>
<path d="M122.694 30.7883L122.68 16.3645H126.201L126.216 17.6473C126.727 17.1104 127.342 16.6836 128.025 16.3935C128.707 16.1033 129.441 15.9558 130.183 15.9601C130.721 15.9643 131.255 16.0449 131.77 16.1994L130.386 19.7485C129.959 19.5782 129.499 19.5073 129.04 19.5413C128.581 19.5753 128.136 19.7133 127.738 19.9447C127.278 20.2115 126.895 20.5944 126.628 21.0552C126.352 21.5251 126.21 22.0612 126.216 22.606V30.7979L122.694 30.7883Z" fill="#4A4A4A"/>
<path d="M145.549 30.7882H141.494L138.204 25.1188L136.186 27.5311V30.7907H132.664V9.15137H136.186V22.0603L140.96 16.3644H145.564L140.615 22.2661L145.549 30.7882Z" fill="#4A4A4A"/>
<path d="M158.198 30.7885L153.031 10.5947H156.668L160.187 24.3988L163.709 10.5947H166.927L170.446 24.3988L173.954 10.5947H177.59L172.452 30.7885H168.457L165.311 18.5569L162.198 30.7885H158.198Z" fill="#4A4A4A"/>
<path d="M183.675 31.1641C182.392 31.1765 181.134 30.8209 180.047 30.1398C178.956 29.4587 178.057 28.5107 177.435 27.3853C176.874 26.3555 176.547 25.215 176.476 24.0446C176.405 22.8742 176.592 21.7025 177.024 20.6124C177.386 19.7152 177.912 18.8932 178.575 18.1881C179.227 17.4963 180.008 16.94 180.876 16.5512C181.808 16.1417 182.818 15.9404 183.836 15.9615C184.855 15.9825 185.856 16.2254 186.77 16.6732C187.701 17.1428 188.518 17.8101 189.164 18.6285C189.839 19.4884 190.332 20.477 190.613 21.5336C190.893 22.5902 190.955 23.6929 190.795 24.7742H180.246C180.373 25.2948 180.598 25.7863 180.909 26.2221C181.224 26.6629 181.64 27.022 182.122 27.2693C182.603 27.5167 183.138 27.6451 183.679 27.6438C184.269 27.6596 184.85 27.5067 185.355 27.2033C185.866 26.8957 186.299 26.4739 186.619 25.9708L190.211 26.8061C189.634 28.0716 188.723 29.1561 187.577 29.9436C186.436 30.7486 185.071 31.1756 183.675 31.1641ZM180.126 22.1346H187.225C187.124 21.5687 186.894 21.0334 186.555 20.5694C186.22 20.1091 185.788 19.7277 185.291 19.4518C184.798 19.1741 184.24 19.0297 183.675 19.033C183.114 19.0284 182.562 19.1702 182.073 19.4446C181.581 19.7194 181.155 20.0984 180.826 20.5551C180.482 21.0255 180.244 21.5641 180.126 22.1346Z" fill="#4A4A4A"/>
<path d="M203.34 16.3645H206.861V30.7884H203.34L203.182 29.0007C202.792 29.6393 202.255 30.1751 201.616 30.5634C200.92 30.9754 200.123 31.1836 199.315 31.1642C198.283 31.171 197.261 30.964 196.313 30.5563C195.392 30.1619 194.556 29.593 193.852 28.881C193.147 28.1721 192.584 27.3354 192.193 26.416C191.791 25.4667 191.587 24.4455 191.594 23.4149C191.586 22.4362 191.772 21.4656 192.142 20.5594C192.512 19.6532 193.058 18.8294 193.749 18.1356C194.428 17.4556 195.232 16.912 196.117 16.5344C197.025 16.1474 198.002 15.9512 198.989 15.9577C199.884 15.9429 200.767 16.1615 201.551 16.5919C202.287 17.0037 202.937 17.552 203.467 18.2073L203.34 16.3645ZM199.227 27.7706C199.932 27.7841 200.625 27.5884 201.218 27.2081C201.799 26.831 202.267 26.3055 202.576 25.6861C202.899 25.0259 203.067 24.3007 203.067 23.5657C203.067 22.8308 202.899 22.1055 202.576 21.4453C202.265 20.8253 201.794 20.2998 201.211 19.9232C200.619 19.5458 199.929 19.3502 199.227 19.3608C198.511 19.3545 197.808 19.553 197.201 19.9328C196.583 20.3182 196.073 20.8549 195.72 21.4921C195.367 22.1294 195.182 22.8461 195.184 23.5745C195.185 24.3029 195.373 25.0189 195.728 25.6548C196.084 26.2906 196.596 26.8252 197.215 27.2081C197.819 27.5816 198.516 27.7766 199.227 27.7706Z" fill="#4A4A4A"/>
<path d="M216.758 19.8735H213.96V30.7793H210.438V19.8735H208.305V16.3555H210.438V11.8252H213.96V16.3555H216.758V19.8735Z" fill="#4A4A4A"/>
<path d="M231.85 21.6726V30.7882H228.331V22.5963C228.337 22.0506 228.192 21.5139 227.912 21.0455C227.641 20.5856 227.256 20.2032 226.794 19.935C226.32 19.6636 225.784 19.5209 225.238 19.5209C224.692 19.5209 224.155 19.6636 223.681 19.935C223.221 20.2026 222.838 20.5853 222.571 21.0455C222.296 21.5158 222.154 22.0517 222.159 22.5963V30.7882H218.639L218.625 9.15137H222.144L222.159 17.6472C222.671 17.1105 223.287 16.684 223.969 16.3938C224.652 16.1037 225.386 15.9561 226.128 15.96C227.139 15.9492 228.133 16.2167 229.001 16.733C229.855 17.2336 230.567 17.9427 231.072 18.7936C231.592 19.6634 231.861 20.6596 231.85 21.6726Z" fill="#4A4A4A"/>
<path d="M240.083 31.1641C238.8 31.1769 237.541 30.8214 236.454 30.1398C235.363 29.458 234.464 28.5101 233.842 27.3853C233.281 26.3555 232.953 25.215 232.882 24.0446C232.811 22.8742 232.998 21.7025 233.43 20.6124C233.792 19.7152 234.318 18.8932 234.981 18.1881C235.634 17.4968 236.417 16.9406 237.284 16.5512C238.217 16.1417 239.227 15.9404 240.245 15.9615C241.263 15.9825 242.264 16.2254 243.179 16.6732C244.11 17.142 244.928 17.8094 245.573 18.6285C246.249 19.4876 246.743 20.476 247.023 21.5329C247.304 22.5898 247.365 23.6929 247.203 24.7742H236.669C236.795 25.2952 237.02 25.7868 237.332 26.2221C237.647 26.6629 238.063 27.022 238.545 27.2693C239.026 27.5167 239.561 27.6451 240.102 27.6438C240.691 27.6593 241.273 27.5065 241.778 27.2033C242.289 26.8962 242.721 26.4742 243.04 25.9708L246.631 26.8061C246.055 28.072 245.145 29.1567 243.998 29.9436C242.854 30.7518 241.484 31.1789 240.083 31.1641ZM236.533 22.1346H243.634C243.531 21.5685 243.301 21.0332 242.961 20.5694C242.628 20.1087 242.197 19.7271 241.699 19.4518C241.206 19.1741 240.649 19.0297 240.083 19.033C239.523 19.0284 238.97 19.1702 238.482 19.4446C237.989 19.7185 237.563 20.0977 237.234 20.5551C236.889 21.0251 236.649 21.5638 236.53 22.1346H236.533Z" fill="#4A4A4A"/>
<path d="M248.835 30.7883L248.82 16.3645H252.342L252.356 17.6473C252.868 17.1104 253.483 16.6836 254.165 16.3935C254.848 16.1033 255.582 15.9558 256.324 15.9601C256.861 15.9643 257.396 16.0449 257.911 16.1994L256.527 19.7485C256.1 19.5782 255.639 19.5073 255.18 19.5413C254.722 19.5753 254.277 19.7133 253.879 19.9447C253.418 20.2115 253.035 20.5944 252.768 21.0552C252.492 21.5251 252.35 22.0612 252.356 22.606V30.7979L248.835 30.7883Z" fill="#4A4A4A"/>
<path d="M89.0764 40.4551L88.0469 36.4346H88.5449L89.3541 39.6079L90.1609 36.4346H90.5942L91.4059 39.6079L92.2127 36.4346H92.7106L91.686 40.4551H91.1233L90.3788 37.5426L89.6366 40.4551H89.0764Z" fill="#4A4A4A"/>
<path d="M94.6328 40.4551V36.4346H97.1012V36.9132H95.1164V38.0619H96.7421V38.5405H95.1164V39.9765H97.1012V40.4551H94.6328Z" fill="#4A4A4A"/>
<path d="M100.424 36.4316H101.008L102.471 40.4523H101.958L101.659 39.6314H99.7726L99.4757 40.4546H98.9609L100.424 36.4316ZM99.9449 39.1479H101.477L100.709 37.0491L99.9449 39.1479Z" fill="#4A4A4A"/>
<path d="M106.966 36.4316V36.9103H105.627V40.4546H105.148V36.9175H103.812V36.4389L106.966 36.4316Z" fill="#4A4A4A"/>
<path d="M111.414 36.4317H111.892V40.4547H111.414V38.5401H109.424V40.4547H108.945V36.4342H109.424V38.0615H111.414V36.4317Z" fill="#4A4A4A"/>
<path d="M113.984 40.4551V36.4346H116.453V36.9132H114.468V38.0619H116.094V38.5405H114.468V39.9765H116.453V40.4551H113.984Z" fill="#4A4A4A"/>
<path d="M118.508 40.4542V36.4337H119.923C120.128 36.4314 120.329 36.486 120.505 36.5915C120.676 36.6965 120.819 36.843 120.919 37.0176C121.021 37.2011 121.074 37.4081 121.072 37.6182C121.074 37.8002 121.035 37.9803 120.957 38.1448C120.884 38.3004 120.775 38.4371 120.641 38.5444C120.509 38.6507 120.354 38.7253 120.188 38.7622L121.165 40.4542H120.612L119.655 38.8029H118.996V40.4542H118.508ZM118.987 38.3218H119.868C119.994 38.3229 120.118 38.289 120.227 38.2238C120.336 38.1618 120.426 38.0716 120.488 37.9628C120.586 37.7946 120.614 37.5941 120.566 37.4052C120.517 37.2163 120.395 37.0545 120.227 36.9553C120.118 36.8909 119.994 36.8578 119.868 36.8596H118.987V38.3218Z" fill="#4A4A4A"/>
<path d="M127.821 40.5264C127.557 40.5285 127.295 40.4739 127.053 40.3661C126.816 40.2587 126.602 40.1058 126.423 39.9162C126.24 39.7243 126.096 39.4993 125.997 39.2533C125.793 38.7325 125.793 38.1538 125.997 37.6331C126.096 37.3863 126.24 37.1606 126.423 36.9678C126.601 36.7782 126.815 36.626 127.053 36.5202C127.294 36.4117 127.556 36.3562 127.821 36.3575C128.135 36.3552 128.444 36.4336 128.719 36.5849C128.988 36.732 129.221 36.9382 129.399 37.188L128.973 37.4273C128.838 37.2504 128.664 37.1063 128.465 37.006C128.275 36.91 128.066 36.8574 127.854 36.852C127.641 36.8466 127.429 36.8886 127.235 36.9749C127.054 37.0587 126.891 37.1774 126.756 37.3243C126.618 37.4719 126.51 37.6451 126.438 37.8341C126.284 38.2323 126.284 38.6732 126.438 39.0714C126.512 39.2606 126.621 39.4341 126.758 39.5835C126.894 39.7295 127.056 39.8474 127.237 39.9306C127.419 40.0132 127.617 40.0556 127.817 40.055C128.043 40.0571 128.266 40.0019 128.465 39.8947C128.661 39.7939 128.833 39.6517 128.968 39.4782L129.394 39.7175C129.216 39.9666 128.984 40.172 128.714 40.3183C128.439 40.4623 128.132 40.5338 127.821 40.5264Z" fill="#4A4A4A"/>
<path d="M132.679 36.4316H133.263L134.726 40.4523H134.214L133.915 39.6314H132.028L131.731 40.4523H131.219L132.679 36.4316ZM132.2 39.1479H133.733L132.966 37.0491L132.2 39.1479Z" fill="#4A4A4A"/>
<path d="M136.641 40.4551V36.4346H137.165L139.174 39.5816V36.4346H139.652V40.4551H139.133L137.122 37.3081V40.4551H136.641Z" fill="#4A4A4A"/>
<path d="M144.516 40.4542V36.4337H145.904C146.092 36.4311 146.279 36.4729 146.448 36.5557C146.608 36.635 146.744 36.7577 146.838 36.9099C146.937 37.0787 146.987 37.2719 146.982 37.4675C146.982 37.5827 146.962 37.697 146.922 37.805C146.887 37.9078 146.832 38.0028 146.761 38.085C146.698 38.159 146.615 38.213 146.522 38.2405C146.636 38.2678 146.742 38.3238 146.828 38.4033C146.913 38.4805 146.982 38.572 147.034 38.6737C147.087 38.7763 147.125 38.8859 147.147 38.9992C147.17 39.1069 147.182 39.2168 147.183 39.3271C147.187 39.5326 147.134 39.7353 147.032 39.9134C146.934 40.0792 146.795 40.2161 146.627 40.3106C146.457 40.4069 146.265 40.4565 146.069 40.4542H144.516ZM144.994 38.061H145.854C146.019 38.0653 146.179 38.0101 146.306 37.9055C146.369 37.8515 146.418 37.7839 146.45 37.708C146.483 37.6321 146.497 37.5499 146.493 37.4675C146.5 37.3824 146.486 37.297 146.454 37.218C146.421 37.1391 146.371 37.0689 146.306 37.0128C146.177 36.9125 146.018 36.8594 145.854 36.8621H144.994V38.061ZM144.994 40.0331H146.031C146.159 40.0337 146.284 39.998 146.393 39.9301C146.502 39.8613 146.591 39.7647 146.651 39.6502C146.718 39.527 146.752 39.3883 146.749 39.2481C146.75 39.1164 146.716 38.9869 146.651 38.8724C146.589 38.7579 146.501 38.6601 146.393 38.5876C146.286 38.5156 146.16 38.4772 146.031 38.4775H144.994V40.0331Z" fill="#4A4A4A"/>
<path d="M149.102 40.4551V36.4346H151.57V36.9132H149.58V38.0619H151.206V38.5405H149.58V39.9765H151.565V40.4551H149.102Z" fill="#4A4A4A"/>
<path d="M156.359 40.4552V36.4346H157.691C157.959 36.4326 158.225 36.4863 158.471 36.5925C158.711 36.6937 158.929 36.8409 159.113 37.0257C159.296 37.2094 159.443 37.4262 159.546 37.6646C159.649 37.9119 159.702 38.1771 159.702 38.4449C159.702 38.7127 159.649 38.9777 159.546 39.225C159.443 39.4639 159.296 39.6815 159.113 39.8664C158.928 40.0505 158.711 40.1976 158.471 40.2996C158.224 40.4039 157.959 40.4568 157.691 40.4552H156.359ZM156.838 39.9765H157.686C157.887 39.9772 158.086 39.9377 158.271 39.8605C158.456 39.7832 158.625 39.6697 158.765 39.5266C158.905 39.3894 159.017 39.227 159.096 39.048C159.175 38.8583 159.215 38.655 159.215 38.4497C159.215 38.2443 159.175 38.041 159.096 37.8514C158.938 37.4847 158.645 37.1931 158.277 37.0377C158.091 36.9564 157.889 36.9156 157.686 36.9181H156.838V39.9765Z" fill="#4A4A4A"/>
<path d="M162.713 36.4316H163.295L164.757 40.4523H164.245L163.948 39.6314H162.059L161.765 40.4523H161.25L162.713 36.4316ZM162.234 39.1479H163.764L162.998 37.0491L162.234 39.1479Z" fill="#4A4A4A"/>
<path d="M166.68 40.4542V36.4337H168.092C168.297 36.4309 168.499 36.4855 168.674 36.5916C168.925 36.7517 169.109 36.9974 169.192 37.2831C169.276 37.5688 169.252 37.8751 169.126 38.1448C169.053 38.2998 168.946 38.4363 168.813 38.5445C168.68 38.6499 168.526 38.7244 168.36 38.7623L169.337 40.4542H168.779L167.822 38.8029H167.163V40.4542H166.68ZM167.159 38.3219H168.042C168.168 38.3222 168.292 38.2884 168.401 38.2238C168.508 38.1607 168.598 38.0708 168.66 37.9629C168.722 37.8485 168.755 37.72 168.755 37.5895C168.755 37.459 168.722 37.3307 168.66 37.2163C168.598 37.1084 168.508 37.0184 168.401 36.9553C168.292 36.8915 168.168 36.8585 168.042 36.8596H167.159V38.3219Z" fill="#4A4A4A"/>
<path d="M174.078 40.4551H173.456L172.187 38.7129L171.885 39.0742V40.4551H171.406V36.4346H171.885V38.3252L173.468 36.4346H174.097L172.503 38.3323L174.078 40.4551Z" fill="#4A4A4A"/>
<path d="M175.828 40.7754L176.008 39.8037H176.487L176.149 40.7754H175.828Z" fill="#4A4A4A"/>
<path d="M182.191 40.4551L181.164 36.4346H181.664L182.476 39.6079L183.283 36.4346H183.716L184.528 39.6079L185.335 36.4346H185.83L184.808 40.4551H184.245L183.501 37.5426L182.756 40.4551H182.191Z" fill="#4A4A4A"/>
<path d="M187.742 40.4551V36.4346H190.211V36.9132H188.223V38.0619H189.851V38.5405H188.223V39.9765H190.211V40.4551H187.742Z" fill="#4A4A4A"/>
<path d="M195.016 40.4542V36.4337H196.402C196.591 36.4313 196.778 36.473 196.948 36.5557C197.107 36.6353 197.242 36.758 197.336 36.9099C197.435 37.0787 197.484 37.2719 197.479 37.4675C197.48 37.5825 197.46 37.6967 197.422 37.805C197.385 37.9069 197.331 38.0016 197.261 38.085C197.198 38.1582 197.115 38.212 197.022 38.2405C197.136 38.2678 197.242 38.3238 197.328 38.4033C197.413 38.4797 197.483 38.5715 197.534 38.6737C197.587 38.7767 197.625 38.8861 197.649 38.9991C197.671 39.1071 197.682 39.2169 197.683 39.327C197.687 39.5325 197.634 39.7353 197.532 39.9134C197.435 40.0797 197.295 40.2168 197.127 40.3106C196.958 40.4066 196.766 40.4561 196.572 40.4542H195.016ZM195.494 38.061H196.354C196.519 38.0661 196.68 38.0108 196.806 37.9055C196.869 37.8519 196.919 37.7845 196.952 37.7086C196.985 37.6326 197 37.5501 196.996 37.4675C197.002 37.3822 196.988 37.2966 196.956 37.2176C196.923 37.1385 196.872 37.0684 196.806 37.0128C196.678 36.9109 196.518 36.8576 196.354 36.8621H195.494V38.061ZM195.494 40.0331H196.533C196.661 40.0336 196.785 39.9979 196.893 39.9301C197.003 39.8614 197.093 39.7648 197.154 39.6501C197.22 39.5265 197.253 39.3882 197.252 39.248C197.251 39.1165 197.217 38.9873 197.154 38.8724C197.091 38.7577 197.001 38.66 196.893 38.5876C196.787 38.5155 196.662 38.4771 196.533 38.4775H195.494V40.0331Z" fill="#4A4A4A"/>
<path d="M199.594 40.4542V36.4337H201.006C201.211 36.4309 201.413 36.4855 201.588 36.5916C201.839 36.7517 202.023 36.9974 202.106 37.2831C202.19 37.5688 202.166 37.8751 202.041 38.1448C201.967 38.2998 201.86 38.4363 201.727 38.5445C201.594 38.6499 201.44 38.7244 201.274 38.7623L202.254 40.4542H201.696L200.738 38.8029H200.08V40.4542H199.594ZM200.073 38.3219H200.956C201.082 38.3222 201.206 38.2884 201.315 38.2238C201.422 38.1607 201.512 38.0708 201.574 37.9629C201.637 37.8485 201.67 37.72 201.67 37.5895C201.67 37.459 201.637 37.3307 201.574 37.2163C201.512 37.1084 201.422 37.0184 201.315 36.9553C201.206 36.8915 201.082 36.8585 200.956 36.8596H200.073V38.3219Z" fill="#4A4A4A"/>
<path d="M204.406 40.4551V36.4346H204.885V40.4551H204.406Z" fill="#4A4A4A"/>
<path d="M207.047 40.4551V36.4346H207.569L209.577 39.5816V36.4346H210.056V40.4551H209.534L207.523 37.3081V40.4551H207.047Z" fill="#4A4A4A"/>
<path d="M214.019 40.5268C213.751 40.5293 213.486 40.4747 213.241 40.3664C213.003 40.2589 212.789 40.1053 212.611 39.9142C212.239 39.5144 212.034 38.9865 212.039 38.4399C212.035 38.1655 212.086 37.8929 212.188 37.6382C212.291 37.3835 212.443 37.1516 212.635 36.9561C212.816 36.7695 213.031 36.6207 213.27 36.5181C213.527 36.4054 213.806 36.3519 214.087 36.3614C214.367 36.371 214.642 36.4433 214.891 36.5732C215.175 36.719 215.421 36.9298 215.609 37.1883L215.178 37.4276C215.037 37.2472 214.858 37.1 214.654 36.9968C214.468 36.9042 214.265 36.8539 214.058 36.8493C213.851 36.8448 213.646 36.8862 213.457 36.9705C213.277 37.0542 213.114 37.1711 212.978 37.3151C212.838 37.4636 212.727 37.6375 212.652 37.8273C212.571 38.0272 212.531 38.241 212.532 38.4567C212.531 38.6691 212.572 38.8798 212.652 39.0766C212.726 39.2658 212.836 39.4389 212.975 39.5863C213.11 39.7315 213.273 39.8479 213.454 39.9285C213.638 40.0119 213.837 40.0544 214.038 40.0529C214.202 40.0545 214.364 40.0262 214.517 39.9692C214.666 39.9119 214.805 39.8311 214.929 39.7299C215.054 39.6273 215.162 39.5063 215.25 39.3709C215.34 39.2305 215.409 39.0771 215.453 38.9161H214.462V38.4854H216.016C216.016 38.7575 215.961 39.0269 215.856 39.2776C215.755 39.5196 215.61 39.7411 215.429 39.9309C215.25 40.1158 215.037 40.2651 214.802 40.3712C214.556 40.4794 214.288 40.5324 214.019 40.5268Z" fill="#4A4A4A"/>
<path d="M223.778 36.4316V36.9103H222.44V40.4546H221.961V36.9175H220.625V36.4389L223.778 36.4316Z" fill="#4A4A4A"/>
<path d="M228.221 36.4316H228.7V40.4546H228.221V38.5401H226.229V40.4546H225.75V36.4341H226.229V38.0614H228.221V36.4316Z" fill="#4A4A4A"/>
<path d="M230.789 40.4551V36.4346H233.257V36.9132H231.273V38.0619H232.898V38.5405H231.273V39.9765H233.257V40.4551H230.789Z" fill="#4A4A4A"/>
<path d="M238.062 40.4551V36.4346H238.541V39.9765H240.342V40.4551H238.062Z" fill="#4A4A4A"/>
<path d="M242.461 40.4551V36.4346H242.94V40.4551H242.461Z" fill="#4A4A4A"/>
<path d="M246.98 40.5268C246.713 40.5294 246.448 40.4747 246.204 40.3664C245.966 40.2596 245.752 40.1058 245.575 39.9142C245.394 39.7208 245.251 39.495 245.153 39.2488C245.051 38.9915 244.999 38.7169 245 38.4399C244.998 38.1576 245.052 37.8776 245.16 37.6167C245.261 37.3703 245.409 37.1459 245.596 36.9561C245.778 36.77 245.994 36.6212 246.233 36.5181C246.49 36.4054 246.769 36.3519 247.05 36.3614C247.33 36.371 247.605 36.4433 247.854 36.5732C248.138 36.7188 248.384 36.9296 248.572 37.1883L248.141 37.4276C248.001 37.2461 247.822 37.0987 247.617 36.9968C247.432 36.9039 247.228 36.8534 247.021 36.8488C246.814 36.8443 246.609 36.8858 246.42 36.9705C246.24 37.0538 246.077 37.1707 245.941 37.3151C245.652 37.6243 245.493 38.0333 245.498 38.4567C245.496 38.6689 245.536 38.8796 245.615 39.0766C245.691 39.2649 245.8 39.4377 245.939 39.5863C246.074 39.7313 246.236 39.8476 246.417 39.9285C246.601 40.0122 246.8 40.0547 247.002 40.0529C247.165 40.0543 247.327 40.026 247.48 39.9692C247.629 39.9124 247.767 39.8316 247.89 39.7299C248.016 39.628 248.125 39.5069 248.213 39.3709C248.303 39.2303 248.37 39.077 248.414 38.9161H247.423V38.4854H248.979C248.979 38.7575 248.925 39.0269 248.819 39.2776C248.717 39.5196 248.572 39.7411 248.39 39.9309C248.211 40.1157 247.999 40.2651 247.765 40.3712C247.518 40.4796 247.25 40.5327 246.98 40.5268Z" fill="#4A4A4A"/>
<path d="M253.39 36.4316H253.869V40.4546H253.39V38.5401H251.401V40.4546H250.922V36.4341H251.401V38.0614H253.39V36.4316Z" fill="#4A4A4A"/>
<path d="M258.997 36.4316V36.9103H257.659V40.4546H257.18V36.9175H255.844V36.4389L258.997 36.4316Z" fill="#4A4A4A"/>
</g>
<defs>
<clipPath id="clip0_2009_4203">
<rect width="259" height="60" fill="white"/>
</clipPath>
</defs>
</svg>
