<svg width="258" height="61" viewBox="0 0 258 61" fill="none" xmlns="http://www.w3.org/2000/svg">
<g clip-path="url(#clip0_2009_6222)">
<path d="M58.8939 8.21358C58.8934 8.52702 58.8759 8.84018 58.8415 9.1517C56.2959 8.02277 53.4193 7.90061 50.7877 8.80955C49.3196 6.27338 47.2462 4.14324 44.7539 2.61106C45.8736 1.40882 47.3279 0.57259 48.9277 0.21096C50.5275 -0.150671 52.1987 -0.020956 53.7239 0.583379C55.2492 1.18771 56.558 2.23861 57.48 3.59942C58.4021 4.96023 58.8947 6.56801 58.8939 8.21358Z" fill="#FFA500"/>
<path d="M73.7404 29.9941C73.7411 32.866 72.6273 35.6253 70.635 37.687C68.6427 39.7488 65.9286 40.951 63.068 41.0387H62.3525L11.6497 40.9524C11.49 40.9524 11.3302 40.9645 11.1728 40.9645C9.57751 40.9601 8.00165 40.613 6.55112 39.9468C5.10058 39.2805 3.80897 38.3105 2.76306 37.1017C1.71716 35.8929 0.9412 34.4735 0.487335 32.9388C0.0334696 31.4042 -0.0877915 29.7898 0.131705 28.2042C0.351201 26.6186 0.90637 25.0985 1.7599 23.746C2.61343 22.3936 3.74554 21.2402 5.08017 20.3633C6.41479 19.4864 7.92101 18.9063 9.49759 18.662C11.0742 18.4177 12.6846 18.5149 14.2207 18.947C14.3189 18.1911 14.6875 17.4967 15.2578 16.9931C15.8281 16.4894 16.5613 16.2109 17.321 16.2092C17.5546 16.2086 17.7875 16.2352 18.015 16.2882C18.3075 12.534 19.7885 8.97206 22.2417 6.12257C24.695 3.27308 27.9918 1.2853 31.6508 0.449695C35.3098 -0.385908 39.1392 -0.0256506 42.5796 1.47791C46.0201 2.98147 48.8913 5.54954 50.7739 8.80698C52.433 8.2322 54.205 8.06373 55.9422 8.31548C57.6793 8.56724 59.3314 9.23189 60.7606 10.2542C62.1899 11.2766 63.3549 12.627 64.1587 14.1927C64.9625 15.7585 65.3817 17.4944 65.3814 19.2557V19.2677C67.7678 19.8628 69.8873 21.2421 71.4021 23.1859C72.9169 25.1298 73.7401 27.5264 73.7404 29.9941Z" fill="white"/>
<path d="M45.1533 43.3865L40.4026 48.1537L38.3803 50.1856L28.5879 60.0121L33.9825 50.1904L35.0963 48.1609L36.0955 46.3445H29.9234L32.3298 43.3865H45.1533Z" fill="#FFD700"/>
<path d="M87.5527 30.8012V10.6074H94.2304C95.5716 10.5984 96.9003 10.8655 98.1345 11.3923C100.549 12.4335 102.474 14.3654 103.51 16.7891C104.026 18.0294 104.292 19.3601 104.292 20.7043C104.292 22.0485 104.026 23.3793 103.51 24.6196C102.475 27.0435 100.55 28.9749 98.1345 30.0138C96.9007 30.5422 95.5718 30.8103 94.2304 30.8012H87.5527ZM91.0538 27.2808H94.2161C95.0834 27.2863 95.9424 27.1119 96.7393 26.7686C98.3148 26.0953 99.573 24.8414 100.255 23.2651C100.596 22.4561 100.772 21.5865 100.772 20.7079C100.772 19.8294 100.596 18.9597 100.255 18.1508C99.9121 17.37 99.4267 16.6605 98.8237 16.0591C98.2258 15.4566 97.5182 14.9749 96.7393 14.64C95.9403 14.2953 95.0787 14.1208 94.209 14.1278H91.0538V27.2808Z" fill="white"/>
<path d="M116.544 16.3776H120.05V30.8014H116.544L116.384 29.0138C115.997 29.6529 115.462 30.1889 114.825 30.5765C114.132 30.9884 113.338 31.1967 112.533 31.1772C111.505 31.1841 110.487 30.9771 109.542 30.5693C107.696 29.7704 106.227 28.2886 105.44 26.4315C105.039 25.4825 104.836 24.4611 104.844 23.4304C104.837 22.4358 105.03 21.4501 105.412 20.5323C105.779 19.6411 106.319 18.8317 107 18.151C107.676 17.471 108.476 16.9275 109.356 16.5499C110.261 16.1632 111.235 15.9668 112.218 15.9731C113.109 15.9581 113.989 16.1767 114.77 16.6073C115.503 17.0186 116.15 17.567 116.678 18.2227L116.544 16.3776ZM112.447 27.7836C113.149 27.7965 113.84 27.6008 114.431 27.2212C115.009 26.844 115.475 26.3185 115.781 25.6992C116.103 25.0389 116.27 24.3137 116.27 23.5788C116.27 22.8439 116.103 22.1186 115.781 21.4583C115.472 20.8385 115.004 20.313 114.424 19.9363C113.834 19.5596 113.147 19.3641 112.447 19.3739C111.733 19.3672 111.032 19.5657 110.427 19.9459C109.811 20.3312 109.303 20.868 108.952 21.5052C108.6 22.1424 108.416 22.8592 108.418 23.5876C108.419 24.316 108.606 25.032 108.96 25.6678C109.314 26.3037 109.824 26.8383 110.441 27.2212C111.044 27.595 111.739 27.79 112.447 27.7836Z" fill="white"/>
<path d="M122.221 30.8008L122.207 16.3769H125.715L125.73 17.6598C126.239 17.1228 126.852 16.6961 127.531 16.4059C128.211 16.1158 128.943 15.9682 129.681 15.9725C130.217 15.9768 130.749 16.0574 131.262 16.2118L129.884 19.761C129.458 19.5907 129 19.5198 128.543 19.5538C128.086 19.5878 127.642 19.7257 127.246 19.9572C126.787 20.224 126.406 20.6069 126.14 21.0676C125.865 21.5375 125.723 22.0737 125.73 22.6184V30.8104L122.221 30.8008Z" fill="white"/>
<path d="M144.99 30.8007H140.95L137.673 25.1312L135.662 27.5436V30.8031H132.154V9.16382H135.662V22.0727L140.418 16.3768H145.004L140.075 22.2785L144.99 30.8007Z" fill="white"/>
<path d="M157.592 30.801L152.445 10.6072H156.068L159.574 24.4112L163.082 10.6072H166.287L169.793 24.4112L173.287 10.6072H176.91L171.792 30.801H167.811L164.677 18.5694L161.577 30.801H157.592Z" fill="white"/>
<path d="M182.965 31.1766C181.688 31.1889 180.434 30.8334 179.352 30.1522C178.265 29.4712 177.37 28.5231 176.75 27.3977C176.191 26.3679 175.865 25.2274 175.794 24.057C175.723 22.8867 175.909 21.715 176.34 20.6249C176.701 19.7277 177.225 18.9056 177.885 18.2006C178.534 17.5087 179.313 16.9525 180.177 16.5637C181.106 16.1541 182.112 15.9528 183.126 15.9739C184.14 15.995 185.138 16.2379 186.049 16.6857C186.976 17.1553 187.79 17.8226 188.434 18.6409C189.106 19.5009 189.597 20.4894 189.876 21.5461C190.156 22.6027 190.217 23.7053 190.058 24.7867H179.55C179.676 25.3073 179.9 25.7987 180.21 26.2345C180.524 26.6754 180.938 27.0345 181.418 27.2818C181.898 27.5291 182.43 27.6575 182.97 27.6562C183.557 27.672 184.136 27.5192 184.639 27.2158C185.148 26.9082 185.579 26.4863 185.898 25.9833L189.476 26.8186C188.901 28.084 187.994 29.1686 186.852 29.956C185.716 30.7611 184.356 31.188 182.965 31.1766ZM179.431 22.147H186.502C186.401 21.5812 186.172 21.0459 185.834 20.5819C185.501 20.1216 185.071 19.7401 184.575 19.4643C184.084 19.1865 183.529 19.0422 182.965 19.0455C182.407 19.0408 181.857 19.1827 181.37 19.457C180.88 19.7318 180.456 20.1109 180.127 20.5675C179.785 21.0379 179.547 21.5766 179.431 22.147Z" fill="white"/>
<path d="M202.556 16.3772H206.064V30.8011H202.556L202.399 29.0134C202.011 29.652 201.476 30.1878 200.839 30.5761C200.146 30.9881 199.352 31.1963 198.547 31.1769C197.519 31.1837 196.501 30.9767 195.556 30.569C194.639 30.1746 193.807 29.6057 193.105 28.8937C192.403 28.1848 191.842 27.3481 191.452 26.4287C191.052 25.4793 190.849 24.4582 190.856 23.4276C190.848 22.4489 191.033 21.4783 191.402 20.5721C191.77 19.6659 192.314 18.8421 193.002 18.1483C193.679 17.4683 194.48 16.9247 195.361 16.5471C196.265 16.1601 197.239 15.9639 198.223 15.9704C199.114 15.9556 199.993 16.1742 200.774 16.6046C201.507 17.0164 202.155 17.5646 202.682 18.22L202.556 16.3772ZM198.459 27.7833C199.161 27.7968 199.852 27.6011 200.443 27.2208C201.021 26.8437 201.488 26.3182 201.795 25.6988C202.117 25.0386 202.284 24.3134 202.284 23.5784C202.284 22.8435 202.117 22.1182 201.795 21.458C201.486 20.838 201.016 20.3125 200.436 19.9359C199.846 19.5585 199.158 19.3629 198.459 19.3735C197.746 19.3672 197.046 19.5657 196.441 19.9455C195.825 20.3309 195.317 20.8676 194.966 21.5048C194.614 22.1421 194.43 22.8588 194.432 23.5872C194.433 24.3156 194.62 25.0316 194.974 25.6675C195.328 26.3033 195.838 26.8379 196.455 27.2208C197.057 27.5943 197.751 27.7893 198.459 27.7833Z" fill="white"/>
<path d="M215.923 19.886H213.135V30.7917H209.627V19.886H207.502V16.3679H209.627V11.8376H213.135V16.3679H215.923V19.886Z" fill="white"/>
<path d="M230.957 21.685V30.8007H227.452V22.6088C227.458 22.0631 227.313 21.5263 227.034 21.058C226.764 20.5981 226.38 20.2156 225.92 19.9475C225.449 19.6761 224.914 19.5334 224.37 19.5334C223.826 19.5334 223.292 19.6761 222.82 19.9475C222.361 20.215 221.98 20.5978 221.714 21.058C221.44 21.5283 221.298 22.0642 221.303 22.6088V30.8007H217.797L217.783 9.16382H221.289L221.303 17.6597C221.813 17.123 222.427 16.6964 223.107 16.4063C223.787 16.1162 224.519 15.9685 225.257 15.9724C226.264 15.9617 227.254 16.2291 228.119 16.7454C228.97 17.2461 229.679 17.9551 230.182 18.806C230.7 19.6759 230.968 20.6721 230.957 21.685Z" fill="white"/>
<path d="M239.155 31.1766C237.877 31.1894 236.622 30.8338 235.539 30.1522C234.453 29.4704 233.558 28.5226 232.938 27.3977C232.379 26.3679 232.052 25.2274 231.981 24.057C231.911 22.8867 232.097 21.715 232.527 20.6249C232.888 19.7277 233.412 18.9056 234.073 18.2006C234.723 17.5092 235.503 16.953 236.367 16.5637C237.296 16.1541 238.302 15.9528 239.316 15.9739C240.33 15.995 241.328 16.2379 242.239 16.6857C243.167 17.1544 243.981 17.8219 244.624 18.6409C245.297 19.5001 245.789 20.4885 246.068 21.5454C246.348 22.6022 246.409 23.7053 246.248 24.7867H235.754C235.879 25.3076 236.103 25.7993 236.415 26.2345C236.728 26.6754 237.142 27.0345 237.622 27.2818C238.102 27.5291 238.634 27.6575 239.174 27.6562C239.761 27.6718 240.34 27.5189 240.843 27.2158C241.352 26.9087 241.783 26.4867 242.1 25.9833L245.678 26.8186C245.104 28.0844 244.197 29.1691 243.054 29.956C241.915 30.7642 240.55 31.1913 239.155 31.1766ZM235.618 22.147H242.692C242.59 21.581 242.361 21.0457 242.022 20.5819C241.69 20.1211 241.261 19.7395 240.765 19.4643C240.274 19.1865 239.719 19.0422 239.155 19.0455C238.596 19.0408 238.046 19.1827 237.559 19.457C237.069 19.731 236.645 20.1101 236.317 20.5675C235.973 21.0375 235.734 21.5762 235.616 22.147H235.618Z" fill="white"/>
<path d="M247.876 30.8008L247.861 16.3769H251.369L251.384 17.6598C251.893 17.1228 252.506 16.6961 253.186 16.4059C253.865 16.1158 254.597 15.9682 255.336 15.9725C255.871 15.9768 256.404 16.0574 256.917 16.2118L255.538 19.761C255.113 19.5907 254.654 19.5198 254.197 19.5538C253.74 19.5878 253.297 19.7257 252.901 19.9572C252.441 20.224 252.06 20.6069 251.794 21.0676C251.519 21.5375 251.378 22.0737 251.384 22.6184V30.8104L247.876 30.8008Z" fill="white"/>
<path d="M88.7364 40.4676L87.7109 36.447H88.207L89.0131 39.6204L89.8168 36.447H90.2485L91.0569 39.6204L91.8607 36.447H92.3567L91.336 40.4676H90.7755L90.0338 37.555L89.2945 40.4676H88.7364Z" fill="white"/>
<path d="M94.2656 40.4676V36.447H96.7245V36.9257H94.7474V38.0744H96.3667V38.553H94.7474V39.9889H96.7245V40.4676H94.2656Z" fill="white"/>
<path d="M100.033 36.4441H100.615L102.072 40.4647H101.562L101.264 39.6438H99.3847L99.0889 40.4671H98.5762L100.033 36.4441ZM99.5564 39.1604H101.083L100.317 37.0616L99.5564 39.1604Z" fill="white"/>
<path d="M106.555 36.4441V36.9227H105.222V40.4671H104.745V36.93H103.414V36.4513L106.555 36.4441Z" fill="white"/>
<path d="M110.984 36.4441H111.461V40.4671H110.984V38.5525H109.002V40.4671H108.525V36.4465H109.002V38.0739H110.984V36.4441Z" fill="white"/>
<path d="M113.543 40.4676V36.447H116.002V36.9257H114.025V38.0744H115.644V38.553H114.025V39.9889H116.002V40.4676H113.543Z" fill="white"/>
<path d="M118.053 40.4666V36.4461H119.462C119.666 36.4439 119.867 36.4985 120.042 36.604C120.213 36.7089 120.355 36.8555 120.454 37.03C120.556 37.2136 120.609 37.4205 120.607 37.6307C120.609 37.8126 120.57 37.9927 120.492 38.1572C120.419 38.3128 120.312 38.4495 120.178 38.5569C120.046 38.6632 119.892 38.7377 119.727 38.7747L120.7 40.4666H120.149L119.195 38.8154H118.539V40.4666H118.053ZM118.53 38.3343H119.407C119.533 38.3353 119.657 38.3015 119.765 38.2362C119.873 38.1742 119.963 38.084 120.025 37.9753C120.123 37.807 120.151 37.6065 120.103 37.4176C120.054 37.2288 119.932 37.067 119.765 36.9678C119.657 36.9034 119.533 36.8703 119.407 36.872H118.53V38.3343Z" fill="white"/>
<path d="M127.329 40.5389C127.066 40.541 126.805 40.4863 126.564 40.3785C126.327 40.2711 126.114 40.1183 125.937 39.9286C125.754 39.7367 125.61 39.5117 125.512 39.2657C125.308 38.745 125.308 38.1663 125.512 37.6455C125.61 37.3988 125.754 37.173 125.937 36.9803C126.114 36.7906 126.327 36.6384 126.564 36.5327C126.804 36.4242 127.065 36.3686 127.329 36.3699C127.642 36.3677 127.95 36.446 128.224 36.5973C128.492 36.7445 128.723 36.9507 128.901 37.2004L128.476 37.4397C128.342 37.2628 128.169 37.1188 127.971 37.0185C127.782 36.9225 127.573 36.8698 127.361 36.8645C127.149 36.8591 126.939 36.9011 126.745 36.9874C126.565 37.0712 126.403 37.1899 126.268 37.3368C126.13 37.4844 126.023 37.6575 125.951 37.8465C125.798 38.2447 125.798 38.6857 125.951 39.0839C126.025 39.273 126.133 39.4466 126.27 39.596C126.405 39.7419 126.567 39.8599 126.747 39.943C126.929 40.0256 127.126 40.0681 127.325 40.0675C127.55 40.0695 127.772 40.0144 127.971 39.9071C128.166 39.8063 128.337 39.6642 128.472 39.4907L128.896 39.73C128.719 39.979 128.487 40.1845 128.219 40.3307C127.945 40.4747 127.639 40.5463 127.329 40.5389Z" fill="white"/>
<path d="M132.162 36.4441H132.744L134.201 40.4647H133.691L133.392 39.6438H131.513L131.217 40.4647H130.707L132.162 36.4441ZM131.685 39.1604H133.211L132.448 37.0616L131.685 39.1604Z" fill="white"/>
<path d="M136.111 40.4676V36.447H136.634L138.635 39.5941V36.447H139.112V40.4676H138.594L136.591 37.3205V40.4676H136.111Z" fill="white"/>
<path d="M143.955 40.4667V36.4462H145.338C145.526 36.4436 145.711 36.4853 145.88 36.5682C146.04 36.6474 146.174 36.7701 146.268 36.9223C146.367 37.0911 146.417 37.2843 146.412 37.48C146.412 37.5951 146.392 37.7095 146.352 37.8175C146.317 37.9202 146.263 38.0152 146.192 38.0974C146.129 38.1714 146.046 38.2255 145.954 38.253C146.068 38.2802 146.173 38.3363 146.259 38.4158C146.343 38.4929 146.412 38.5845 146.464 38.6862C146.516 38.7888 146.554 38.8983 146.576 39.0116C146.599 39.1193 146.611 39.2293 146.612 39.3395C146.616 39.545 146.564 39.7478 146.462 39.9259C146.364 40.0916 146.225 40.2286 146.059 40.3231C145.889 40.4194 145.697 40.4689 145.503 40.4667H143.955ZM144.432 38.0735H145.288C145.452 38.0777 145.612 38.0225 145.739 37.918C145.801 37.8639 145.85 37.7964 145.882 37.7205C145.915 37.6446 145.929 37.5624 145.925 37.48C145.931 37.3949 145.918 37.3094 145.886 37.2305C145.853 37.1516 145.803 37.0813 145.739 37.0253C145.61 36.925 145.451 36.8718 145.288 36.8746H144.432V38.0735ZM144.432 40.0455H145.465C145.592 40.0461 145.717 40.0104 145.825 39.9426C145.934 39.8738 146.023 39.7772 146.082 39.6626C146.149 39.5394 146.183 39.4008 146.18 39.2605C146.181 39.1288 146.147 38.9993 146.082 38.8848C146.021 38.7703 145.932 38.6726 145.825 38.6C145.718 38.528 145.593 38.4897 145.465 38.49H144.432V40.0455Z" fill="white"/>
<path d="M148.529 40.4676V36.447H150.988V36.9257H149.006V38.0744H150.626V38.553H149.006V39.9889H150.983V40.4676H148.529Z" fill="white"/>
<path d="M155.76 40.4676V36.4471H157.086C157.353 36.4451 157.618 36.4988 157.863 36.6049C158.102 36.7062 158.32 36.8533 158.502 37.0381C158.685 37.2218 158.832 37.4386 158.934 37.6771C159.036 37.9244 159.089 38.1896 159.089 38.4573C159.089 38.7251 159.036 38.9902 158.934 39.2375C158.831 39.4763 158.685 39.6939 158.502 39.8789C158.319 40.063 158.102 40.21 157.863 40.3121C157.617 40.4163 157.353 40.4692 157.086 40.4676H155.76ZM156.237 39.989H157.081C157.281 39.9896 157.479 39.9502 157.664 39.8729C157.849 39.7957 158.016 39.6822 158.157 39.5391C158.295 39.4019 158.407 39.2394 158.486 39.0604C158.564 38.8708 158.605 38.6675 158.605 38.4621C158.605 38.2568 158.564 38.0535 158.486 37.8638C158.329 37.4971 158.036 37.2056 157.67 37.0502C157.484 36.9689 157.284 36.9281 157.081 36.9305H156.237V39.989Z" fill="white"/>
<path d="M162.09 36.4441H162.67L164.127 40.4647H163.616L163.321 39.6438H161.439L161.146 40.4647H160.633L162.09 36.4441ZM161.613 39.1604H163.137L162.374 37.0616L161.613 39.1604Z" fill="white"/>
<path d="M166.039 40.4667V36.4462H167.446C167.65 36.4433 167.851 36.498 168.026 36.604C168.276 36.7641 168.459 37.0099 168.542 37.2956C168.625 37.5813 168.602 37.8875 168.476 38.1573C168.403 38.3122 168.297 38.4488 168.164 38.5569C168.032 38.6624 167.878 38.7368 167.713 38.7747L168.686 40.4667H168.131L167.177 38.8154H166.521V40.4667H166.039ZM166.516 38.3343H167.396C167.522 38.3346 167.646 38.3008 167.754 38.2363C167.861 38.1732 167.949 38.0832 168.011 37.9753C168.074 37.8609 168.107 37.7325 168.107 37.602C168.107 37.4714 168.074 37.3431 168.011 37.2287C167.949 37.1208 167.861 37.0309 167.754 36.9678C167.645 36.904 167.522 36.8709 167.396 36.8721H166.516V38.3343Z" fill="white"/>
<path d="M173.404 40.4676H172.784L171.52 38.7254L171.219 39.0867V40.4676H170.742V36.447H171.219V38.3376L172.796 36.447H173.423L171.834 38.3448L173.404 40.4676Z" fill="white"/>
<path d="M175.146 40.7878L175.325 39.8162H175.802L175.466 40.7878H175.146Z" fill="white"/>
<path d="M181.488 40.4676L180.465 36.447H180.963L181.772 39.6204L182.575 36.447H183.007L183.816 39.6204L184.619 36.447H185.113L184.095 40.4676H183.534L182.793 37.555L182.051 40.4676H181.488Z" fill="white"/>
<path d="M187.018 40.4676V36.447H189.476V36.9257H187.497V38.0744H189.119V38.553H187.497V39.9889H189.476V40.4676H187.018Z" fill="white"/>
<path d="M194.262 40.4667V36.4461H195.643C195.831 36.4437 196.017 36.4855 196.186 36.5681C196.345 36.6478 196.479 36.7704 196.573 36.9223C196.671 37.0911 196.721 37.2843 196.716 37.48C196.716 37.5949 196.697 37.7091 196.659 37.8174C196.622 37.9193 196.568 38.014 196.499 38.0974C196.435 38.1706 196.353 38.2245 196.26 38.253C196.374 38.2802 196.479 38.3363 196.566 38.4157C196.65 38.4922 196.72 38.5839 196.771 38.6862C196.823 38.7891 196.861 38.8985 196.885 39.0116C196.906 39.1196 196.918 39.2294 196.918 39.3395C196.922 39.545 196.87 39.7477 196.768 39.9259C196.672 40.0921 196.533 40.2292 196.365 40.3231C196.197 40.419 196.006 40.4686 195.812 40.4667H194.262ZM194.739 38.0735H195.595C195.759 38.0786 195.919 38.0233 196.046 37.9179C196.108 37.8644 196.158 37.797 196.191 37.721C196.223 37.6451 196.238 37.5626 196.234 37.48C196.241 37.3946 196.227 37.309 196.194 37.23C196.161 37.151 196.11 37.0808 196.046 37.0253C195.918 36.9234 195.758 36.87 195.595 36.8745H194.739V38.0735ZM194.739 40.0455H195.774C195.9 40.0461 196.024 40.0103 196.131 39.9426C196.241 39.8738 196.331 39.7773 196.391 39.6626C196.457 39.539 196.491 39.4006 196.489 39.2605C196.489 39.129 196.455 38.9998 196.391 38.8848C196.329 38.7702 196.24 38.6724 196.131 38.6C196.026 38.5279 195.901 38.4896 195.774 38.49H194.739V40.0455Z" fill="white"/>
<path d="M198.824 40.4667V36.4462H200.231C200.435 36.4433 200.636 36.498 200.811 36.604C201.061 36.7641 201.244 37.0099 201.327 37.2956C201.41 37.5813 201.387 37.8875 201.262 38.1573C201.188 38.3122 201.082 38.4488 200.949 38.5569C200.817 38.6624 200.663 38.7368 200.498 38.7747L201.474 40.4667H200.918L199.964 38.8154H199.308V40.4667H198.824ZM199.301 38.3343H200.181C200.307 38.3346 200.431 38.3008 200.539 38.2363C200.646 38.1732 200.735 38.0832 200.797 37.9753C200.859 37.8609 200.892 37.7325 200.892 37.602C200.892 37.4714 200.859 37.3431 200.797 37.2287C200.735 37.1208 200.646 37.0309 200.539 36.9678C200.431 36.904 200.307 36.8709 200.181 36.8721H199.301V38.3343Z" fill="white"/>
<path d="M203.619 40.4676V36.447H204.096V40.4676H203.619Z" fill="white"/>
<path d="M206.242 40.4676V36.447H206.762L208.763 39.5941V36.447H209.24V40.4676H208.72L206.717 37.3205V40.4676H206.242Z" fill="white"/>
<path d="M213.189 40.5392C212.923 40.5418 212.658 40.4871 212.414 40.3789C212.177 40.2714 211.964 40.1177 211.787 39.9266C211.416 39.5268 211.211 38.999 211.217 38.4524C211.213 38.1779 211.264 37.9054 211.366 37.6506C211.468 37.3959 211.619 37.1641 211.811 36.9686C211.991 36.782 212.205 36.6331 212.443 36.5306C212.699 36.4179 212.977 36.3644 213.256 36.3739C213.536 36.3834 213.81 36.4557 214.057 36.5856C214.341 36.7315 214.586 36.9423 214.773 37.2008L214.344 37.4401C214.203 37.2596 214.025 37.1124 213.821 37.0092C213.637 36.9167 213.434 36.8663 213.228 36.8618C213.022 36.8572 212.817 36.8986 212.629 36.9829C212.45 37.0666 212.288 37.1835 212.152 37.3275C212.012 37.4761 211.902 37.6499 211.828 37.8397C211.747 38.0397 211.707 38.2535 211.708 38.4691C211.707 38.6816 211.748 38.8922 211.828 39.089C211.901 39.2783 212.01 39.4514 212.15 39.5987C212.284 39.744 212.446 39.8603 212.626 39.9409C212.809 40.0244 213.008 40.0669 213.208 40.0654C213.371 40.0669 213.533 40.0386 213.685 39.9817C213.834 39.9243 213.972 39.8435 214.096 39.7424C214.22 39.6398 214.327 39.5187 214.415 39.3834C214.505 39.2429 214.573 39.0895 214.618 38.9286H213.631V38.4979H215.178C215.178 38.77 215.124 39.0393 215.019 39.29C214.918 39.5321 214.774 39.7535 214.594 39.9434C214.415 40.1282 214.203 40.2776 213.969 40.3837C213.724 40.4918 213.457 40.5449 213.189 40.5392Z" fill="white"/>
<path d="M222.914 36.4441V36.9227H221.581V40.4671H221.104V36.93H219.773V36.4513L222.914 36.4441Z" fill="white"/>
<path d="M227.342 36.4441H227.819V40.4671H227.342V38.5525H225.358V40.4671H224.881V36.4465H225.358V38.0739H227.342V36.4441Z" fill="white"/>
<path d="M229.898 40.4676V36.447H232.357V36.9257H230.38V38.0744H232V38.553H230.38V39.9889H232.357V40.4676H229.898Z" fill="white"/>
<path d="M237.143 40.4676V36.447H237.62V39.9889H239.413V40.4676H237.143Z" fill="white"/>
<path d="M241.525 40.4676V36.447H242.002V40.4676H241.525Z" fill="white"/>
<path d="M246.025 40.5392C245.759 40.5418 245.496 40.4872 245.252 40.3789C245.015 40.272 244.802 40.1183 244.625 39.9266C244.445 39.7333 244.303 39.5075 244.205 39.2613C244.103 39.004 244.051 38.7294 244.053 38.4524C244.051 38.17 244.105 37.8901 244.213 37.6291C244.313 37.3828 244.461 37.1583 244.647 36.9686C244.828 36.7825 245.043 36.6337 245.281 36.5306C245.537 36.4179 245.815 36.3644 246.095 36.3739C246.374 36.3834 246.648 36.4557 246.896 36.5856C247.179 36.7313 247.424 36.9421 247.611 37.2008L247.182 37.4401C247.043 37.2585 246.864 37.1111 246.659 37.0092C246.475 36.9163 246.272 36.8658 246.066 36.8613C245.86 36.8567 245.655 36.8983 245.467 36.9829C245.288 37.0662 245.126 37.1832 244.99 37.3275C244.702 37.6367 244.544 38.0457 244.549 38.4691C244.547 38.6814 244.587 38.8921 244.666 39.089C244.741 39.2773 244.85 39.4501 244.988 39.5987C245.122 39.7438 245.284 39.8601 245.465 39.9409C245.647 40.0246 245.846 40.0671 246.047 40.0654C246.209 40.0667 246.371 40.0384 246.524 39.9817C246.672 39.9249 246.809 39.844 246.931 39.7424C247.057 39.6405 247.165 39.5193 247.253 39.3834C247.342 39.2428 247.41 39.0894 247.454 38.9286H246.466V38.4979H248.016C248.016 38.77 247.962 39.0393 247.857 39.29C247.755 39.5321 247.611 39.7535 247.43 39.9434C247.252 40.1282 247.041 40.2775 246.807 40.3837C246.561 40.4921 246.294 40.5452 246.025 40.5392Z" fill="white"/>
<path d="M252.41 36.4441H252.887V40.4671H252.41V38.5525H250.428V40.4671H249.951V36.4465H250.428V38.0739H252.41V36.4441Z" fill="white"/>
<path d="M257.994 36.4441V36.9227H256.661V40.4671H256.184V36.93H254.854V36.4513L257.994 36.4441Z" fill="white"/>
</g>
<defs>
<clipPath id="clip0_2009_6222">
<rect width="258" height="60" fill="white" transform="translate(0 0.0124512)"/>
</clipPath>
</defs>
</svg>
