<svg width="49" height="48" viewBox="0 0 49 48" fill="none" xmlns="http://www.w3.org/2000/svg">
<path d="M18.7661 33.0556C23.7757 33.0556 27.8368 28.9945 27.8368 23.9848C27.8368 18.9752 23.7757 14.9141 18.7661 14.9141C13.7564 14.9141 9.69531 18.9752 9.69531 23.9848C9.69531 28.9945 13.7564 33.0556 18.7661 33.0556Z" fill="#FF6041"/>
<path d="M30.1958 33.0556C35.2054 33.0556 39.2665 28.9945 39.2665 23.9848C39.2665 18.9752 35.2054 14.9141 30.1958 14.9141C25.1861 14.9141 21.125 18.9752 21.125 23.9848C21.125 28.9945 25.1861 33.0556 30.1958 33.0556Z" fill="#FFD941"/>
<path fill-rule="evenodd" clip-rule="evenodd" d="M24.4911 16.9688C26.5351 18.6303 27.8416 21.1631 27.8416 24.0021C27.8416 26.841 26.5351 29.3739 24.4911 31.0354C22.4472 29.3739 21.1406 26.841 21.1406 24.0021C21.1406 21.1631 22.4472 18.6303 24.4911 16.9688Z" fill="#FFD941"/>
<mask id="mask0_2380_2381" style="mask-type:luminance" maskUnits="userSpaceOnUse" x="21" y="16" width="7" height="16">
<path d="M24.4989 16.9648C26.5429 18.6264 27.8495 21.1592 27.8495 23.9982C27.8495 26.8371 26.5429 29.37 24.4989 31.0315C22.455 29.37 21.1484 26.8371 21.1484 23.9982C21.1484 21.1592 22.455 18.6264 24.4989 16.9648Z" fill="white"/>
</mask>
<g mask="url(#mask0_2380_2381)">
<path fill-rule="evenodd" clip-rule="evenodd" d="M19.4766 18.75H30.2917V19.9275H19.4766V18.75Z" fill="#FF6041"/>
<path fill-rule="evenodd" clip-rule="evenodd" d="M19.4766 21.0586H30.2917V22.236H19.4766V21.0586Z" fill="#FF6041"/>
<path fill-rule="evenodd" clip-rule="evenodd" d="M19.4766 23.418H30.2917V24.5954H19.4766V23.418Z" fill="#FF6041"/>
<path fill-rule="evenodd" clip-rule="evenodd" d="M19.4766 25.7266H30.2917V26.904H19.4766V25.7266Z" fill="#FF6041"/>
<path fill-rule="evenodd" clip-rule="evenodd" d="M19.4766 28.0391H30.2917V29.2165H19.4766V28.0391Z" fill="#FF6041"/>
</g>
</svg>
