<svg width="48" height="48" viewBox="0 0 48 48" fill="none" xmlns="http://www.w3.org/2000/svg">
<g clip-path="url(#clip0_3236_29535)">
<path d="M6.67908 47.999C6.54295 47.999 6.40551 47.9595 6.28448 47.8773C5.96329 47.659 5.87995 47.2216 6.09829 46.9005C8.82904 42.8835 9.54229 37.9269 8.05504 33.3013C7.93617 32.9317 8.13951 32.5356 8.50917 32.4167C8.8792 32.2979 9.27492 32.5012 9.39379 32.8708C10.1767 35.3059 10.4028 37.9333 10.0478 40.4688C9.68742 43.0423 8.72386 45.5397 7.26136 47.6911C7.12514 47.8912 6.90408 47.999 6.67908 47.999Z" fill="#DFF6FD"/>
<path d="M13.3588 29.0505C13.3588 29.8527 11.7323 30.3257 11.4429 31.0233C11.143 31.7465 11.9474 33.2286 11.4024 33.7735C10.8575 34.3185 9.37537 33.5141 8.65219 33.814C7.95459 34.1033 7.48172 35.7299 6.67941 35.7299C5.87719 35.7299 5.40422 34.1033 4.70662 33.814C3.98344 33.5141 2.50134 34.3185 1.95638 33.7735C1.41141 33.2286 2.21578 31.7465 1.91588 31.0233C1.62656 30.3257 0 29.8528 0 29.0505C0 28.2483 1.62656 27.7753 1.91588 27.0777C2.21578 26.3545 1.41141 24.8724 1.95638 24.3275C2.50134 23.7825 3.98344 24.5869 4.70662 24.287C5.40422 23.9977 5.87709 22.3711 6.67941 22.3711C7.48163 22.3711 7.95459 23.9977 8.65219 24.287C9.37537 24.5869 10.8575 23.7825 11.4024 24.3275C11.9474 24.8724 11.143 26.3545 11.4429 27.0777C11.7323 27.7753 13.3588 28.2482 13.3588 29.0505Z" fill="#FFE177"/>
<path d="M35.835 10.6836H43.7475V28.4882H35.835V10.6836Z" fill="#FFE177"/>
<path d="M48 31.6097V39.5963C48 40.23 47.4863 40.7438 46.8525 40.7438H42.7106L42.0075 40.3013L41.3044 40.7438H26.6869L25.9838 40.35L25.2806 40.7438H21.1397C20.5059 40.7438 19.9922 40.23 19.9922 39.5963V31.6097C19.9922 28.7353 21.9844 26.2444 24.7866 25.6125C24.7959 25.6106 30.2756 24.4013 30.2756 24.4013C30.7266 24.3019 38.2369 24.5166 38.2369 24.5166L43.1766 25.6059C45.9937 26.2275 48 28.725 48 31.6097Z" fill="#F8A5AF"/>
<path d="M22.2131 32.6736V39.5858C22.2131 40.2261 22.7316 40.7445 23.3719 40.7445H21.1397C20.5059 40.7445 19.9922 40.2308 19.9922 39.597V31.6105C19.9922 28.7361 21.9844 26.2452 24.7866 25.6133C24.7959 25.6114 27.0366 26.6698 27.0366 26.6698C24.2194 27.2905 22.2131 29.788 22.2131 32.6736Z" fill="#F58A97"/>
<path d="M38.2392 24.514L38.2372 24.5169C37.537 29.4348 30.4365 29.4357 29.7344 24.5189L30.2762 24.3991C30.7272 24.2996 31.0478 23.9007 31.0478 23.4391V18.9318C31.0478 18.4064 31.4737 17.9805 31.9991 17.9805H35.9936C36.519 17.9805 36.9449 18.4064 36.9449 18.9318V23.4391C36.9449 23.9007 37.2655 24.2996 37.7165 24.3991L38.2392 24.514Z" fill="#FFE5C2"/>
<path d="M36.9437 21.2186V23.3955C36.0521 23.7995 35.0265 24.0377 33.9859 24.0377C33.7796 24.0377 33.5753 24.0273 33.3737 24.0095C33.3165 24.0048 33.2687 24.0489 33.2687 24.1061V24.5017C33.2687 24.963 32.9471 25.3633 32.4971 25.4627L30.1862 25.9727H30.1853C29.9678 25.5489 29.8112 25.0642 29.7334 24.5186L30.2753 24.3986C30.7262 24.2992 31.0468 23.9008 31.0468 23.4386V18.932C31.0468 18.4061 31.4734 17.9805 31.9984 17.9805H33.2678L33.2687 17.9814V21.4323C33.4984 21.4352 35.9893 21.5936 36.9437 21.2186Z" fill="#FED2A4"/>
<path d="M26.6865 33.9688V40.7422H25.2803V33.9688C25.2803 33.5806 25.5953 33.2656 25.9834 33.2656C26.3715 33.2656 26.6865 33.5806 26.6865 33.9688Z" fill="#F58A97"/>
<path d="M43.7477 12.8878V9.75178C43.7477 4.36603 39.3817 0 33.9959 0C28.6102 0 24.2441 4.36603 24.2441 9.75178V33.3864C24.2441 34.1523 24.865 34.7731 25.6308 34.7731C28.6224 34.7731 31.0476 32.348 31.0476 29.3563V15.0908L43.7477 12.8878Z" fill="#FFE177"/>
<path d="M27.2573 9.71062V33.4725C27.2573 33.8278 27.3904 34.1531 27.6098 34.3997C26.9966 34.6406 26.3301 34.7728 25.6316 34.7728C24.8657 34.7728 24.2441 34.1522 24.2441 33.3862V9.75187C24.2441 7.05937 25.3354 4.62094 27.1007 2.85656C28.866 1.09125 31.3035 0 33.996 0C34.4132 0 34.8238 0.02625 35.2279 0.0778125C30.6885 0.935625 27.2573 4.92281 27.2573 9.71062Z" fill="#FFD15B"/>
<path d="M41.6092 15.0896H26.3826C25.2015 15.0896 24.2441 14.1322 24.2441 12.9511V12.822C24.2441 11.641 25.2015 10.6836 26.3826 10.6836H41.6092C42.7902 10.6836 43.7476 11.641 43.7476 12.822V12.9511C43.7476 14.1321 42.7902 15.0896 41.6092 15.0896Z" fill="#FED2A4"/>
<path d="M26.8848 10.6857V15.0878C26.8848 19.0154 30.0687 22.1993 33.9963 22.1993C37.9238 22.1993 41.1078 19.0154 41.1078 15.0878V10.6857C41.1078 9.91601 40.4839 9.29211 39.7142 9.29211H38.3577C37.9306 9.29211 37.575 8.96417 37.5406 8.53845L37.3506 6.18992C37.3206 5.81876 36.8511 5.67664 36.6204 5.96895L34.2917 8.91804C34.1051 9.15429 33.8207 9.29211 33.5196 9.29211H28.2785C27.5087 9.29211 26.8848 9.91601 26.8848 10.6857Z" fill="#FFF3DE"/>
<path d="M34.9698 22.133C34.651 22.177 34.3257 22.1995 33.9957 22.1995C30.0685 22.1995 26.8848 19.0158 26.8848 15.0886V10.6861C26.8848 9.91641 27.5082 9.29297 28.2779 9.29297H30.181C29.6504 9.49547 29.2745 10.0102 29.2745 10.612V15.0783C29.2745 18.5433 31.7148 21.4364 34.9698 22.133Z" fill="#FFE5C2"/>
<path d="M4.22531 33.7463C3.45656 33.7698 2.39813 34.2151 1.95656 33.7735C1.41094 33.2279 2.21531 31.7457 1.91625 31.0229C1.62656 30.3254 0 29.8529 0 29.0504C0 28.2479 1.62656 27.7754 1.91625 27.0769C2.21625 26.3541 1.41188 24.8719 1.95656 24.3273C2.39813 23.8857 3.45656 24.331 4.22531 24.3544C3.91031 25.0051 4.58063 26.3391 4.2975 27.0207C3.99938 27.7388 2.32687 28.2244 2.32687 29.0504C2.32687 29.8754 3.99938 30.3619 4.2975 31.0801C4.58063 31.7607 3.91031 33.0957 4.22531 33.7463Z" fill="#FFD15B"/>
<path d="M6.6789 31.1371C7.83103 31.1371 8.76502 30.2031 8.76502 29.051C8.76502 27.8988 7.83103 26.9648 6.6789 26.9648C5.52676 26.9648 4.59277 27.8988 4.59277 29.051C4.59277 30.2031 5.52676 31.1371 6.6789 31.1371Z" fill="#F2FBFF"/>
<path d="M33.9421 16.4844H34.049C35.0273 16.4844 35.8203 17.2774 35.8203 18.2557V18.342C35.8203 18.7562 35.4845 19.092 35.0703 19.092H32.9209C32.5067 19.092 32.1709 18.7562 32.1709 18.342V18.2557C32.1709 17.2774 32.9639 16.4844 33.9421 16.4844Z" fill="#F8A5AF"/>
<path d="M37.5628 15.1201C37.4435 15.1201 37.3226 15.0898 37.2119 15.0258L35.9227 14.2815C35.6464 14.122 35.4746 13.8245 35.4746 13.5054C35.4746 13.1863 35.6464 12.8888 35.9227 12.7292L37.2119 11.9849C37.5481 11.7908 37.9781 11.906 38.1724 12.2423C38.3665 12.5786 38.2513 13.0086 37.915 13.2028L37.3909 13.5054L37.915 13.8081C38.2513 14.0023 38.3665 14.4323 38.1724 14.7686C38.0421 14.994 37.8058 15.12 37.5628 15.1201Z" fill="#7A8C98"/>
<path d="M30.4295 15.1203C30.1865 15.1203 29.9501 14.9942 29.8199 14.7686C29.6257 14.4323 29.741 14.0023 30.0772 13.8081L30.6014 13.5054L30.0772 13.2028C29.741 13.0086 29.6257 12.5786 29.8199 12.2423C30.0141 11.906 30.444 11.7907 30.7804 11.985L32.0695 12.7293C32.3459 12.8888 32.5177 13.1863 32.5177 13.5054C32.5177 13.8245 32.3459 14.122 32.0695 14.2816L30.7804 15.0259C30.6697 15.0898 30.5487 15.1202 30.4295 15.1203Z" fill="#7A8C98"/>
<path d="M19.6997 21.1455C19.3114 21.1455 18.9961 20.8302 18.9961 20.4419C18.9961 20.0536 19.3114 19.7383 19.6997 19.7383C20.088 19.7383 20.4033 20.0536 20.4033 20.4419C20.4033 20.8302 20.0881 21.1455 19.6997 21.1455Z" fill="#FFD15B"/>
<path d="M17.1557 23.6884C16.7674 23.6884 16.4521 23.3732 16.4521 22.9848C16.4521 22.5965 16.7674 22.2812 17.1557 22.2812C17.5441 22.2812 17.8593 22.5965 17.8593 22.9848C17.8593 23.3732 17.5441 23.6884 17.1557 23.6884Z" fill="#FFD15B"/>
<path d="M19.1098 26.0322C18.7215 26.0322 18.4062 25.7169 18.4062 25.3286C18.4062 24.9403 18.7215 24.625 19.1098 24.625C19.4982 24.625 19.8134 24.9403 19.8134 25.3286C19.8134 25.7169 19.4982 26.0322 19.1098 26.0322Z" fill="#FFD15B"/>
<path d="M16.02 27.0634C15.6317 27.0634 15.3164 26.7482 15.3164 26.3598C15.3164 25.9715 15.6317 25.6562 16.02 25.6562C16.4083 25.6562 16.7236 25.9715 16.7236 26.3598C16.7236 26.7482 16.4083 27.0634 16.02 27.0634Z" fill="#FFD15B"/>
<path d="M42.7109 31.6445V40.7411H41.3047V31.6445C41.3047 31.2564 41.6197 30.9414 42.0078 30.9414C42.3969 30.9414 42.7109 31.2564 42.7109 31.6445Z" fill="#F58A97"/>
<path d="M9.55295 0.0838161C7.76795 0.0838161 5.84655 1.41882 4.66005 2.22891C2.33992 3.8131 1.60352 5.78532 1.60352 9.27572C1.60352 12.8301 1.66445 14.7533 4.06895 16.4811C5.23398 17.3183 7.83114 19.1072 9.55295 19.1072C9.61989 19.1072 9.68655 19.1094 9.75311 19.1081C14.9371 19.0015 19.1056 14.7641 19.1056 9.55454C19.1056 4.53882 15.2498 0.423847 10.3344 0.0309411C10.0798 0.0105036 9.81273 0.0838161 9.55295 0.0838161ZM3.6962 12.0464C3.31098 11.1475 3.12752 10.1424 3.2028 9.08813C3.4278 5.9551 5.95352 3.42929 9.08655 3.20438C10.1409 3.1291 11.146 3.31257 12.0448 3.69779C12.4185 3.85707 12.5064 4.3485 12.2186 4.63622L4.63473 12.2202C4.34702 12.5079 3.85558 12.42 3.6962 12.0464ZM15.9031 10.0208C15.6781 13.1538 13.1524 15.6796 10.0194 15.9045C8.96505 15.9798 7.95995 15.7964 7.06108 15.4121C6.68739 15.2518 6.60058 14.7604 6.88727 14.4727L14.4713 6.88866C14.759 6.60188 15.2504 6.68879 15.4107 7.06247C15.7949 7.96135 15.9784 8.96644 15.9031 10.0208Z" fill="#F8A5AF"/>
<path d="M2.17313 9.62719C2.17313 4.80938 5.70188 0.809063 10.3341 0.031875C10.0781 0.0103125 9.81844 0 9.55594 0C4.27875 0 0 4.27875 0 9.555C0 14.8331 4.27875 19.1109 9.55594 19.1109C9.62156 19.1109 9.68719 19.11 9.75281 19.1091C5.41031 18.1078 2.17313 14.2434 2.17313 9.62719Z" fill="#F58A97"/>
</g>
<defs>
<clipPath id="clip0_3236_29535">
<rect width="48" height="48" fill="white"/>
</clipPath>
</defs>
</svg>
