<svg width="48" height="48" viewBox="0 0 48 48" fill="none" xmlns="http://www.w3.org/2000/svg">
<path d="M7.5 25.5H18V37.5H7.5V25.5Z" fill="#F0A5A5"/>
<path d="M11.4033 37.5H18.0001V27.75C18.0002 29.8482 17.3719 31.8983 16.1961 33.6361C15.0203 35.3739 13.351 36.7196 11.4033 37.5Z" fill="#CC8C8C"/>
<path d="M38.25 31.5H39.75V34.5H38.25V31.5Z" fill="#D27676"/>
<path d="M34.5996 32.8789L35.8986 32.1289L37.5161 34.9304L36.2171 35.6804L34.5996 32.8789Z" fill="#D27676"/>
<path d="M32.1289 35.9004L32.8789 34.6014L35.4483 36.0849L34.6983 37.3839L32.1289 35.9004Z" fill="#D27676"/>
<path d="M31.5 38.25H34.5V39.75H31.5V38.25Z" fill="#D27676"/>
<path d="M32.1289 42.0996L34.6983 40.6161L35.4483 41.9151L32.8789 43.3986L32.1289 42.0996Z" fill="#D27676"/>
<path d="M34.5996 45.1211L36.0127 42.6736L37.3117 43.4236L35.8986 45.8711L34.5996 45.1211Z" fill="#D27676"/>
<path d="M38.25 43.5H39.75V46.5H38.25V43.5Z" fill="#D27676"/>
<path d="M40.6855 43.4219L41.9845 42.6719L43.3976 45.1194L42.0986 45.8694L40.6855 43.4219Z" fill="#D27676"/>
<path d="M42.6973 42.002L43.4473 40.703L45.8693 42.1013L45.1193 43.4003L42.6973 42.002Z" fill="#D27676"/>
<path d="M43.5 38.25H46.5V39.75H43.5V38.25Z" fill="#D27676"/>
<path d="M42.6973 35.998L45.1193 34.5997L45.8693 35.8987L43.4473 37.297L42.6973 35.998Z" fill="#D27676"/>
<path d="M40.6865 34.5781L42.0996 32.1306L43.3986 32.8806L41.9855 35.3281L40.6865 34.5781Z" fill="#D27676"/>
<path d="M39 44.25C41.8995 44.25 44.25 41.8995 44.25 39C44.25 36.1005 41.8995 33.75 39 33.75C36.1005 33.75 33.75 36.1005 33.75 39C33.75 41.8995 36.1005 44.25 39 44.25Z" fill="#EA8383"/>
<path d="M37.5 37.5H39V39H37.5V37.5Z" fill="#F0A5A5"/>
<path d="M39.75 36H41.25V37.5H39.75V36Z" fill="#F0A5A5"/>
<path d="M36.75 40.5H38.25V42H36.75V40.5Z" fill="#F0A5A5"/>
<path d="M40.5 39.75H42V41.25H40.5V39.75Z" fill="#F0A5A5"/>
<path d="M22.3807 38.1591L7.5 33.75L7.3934 33.8566C4.58035 36.6696 3 40.485 3 44.4632V46.5H27.75V45.3501C27.75 43.7328 27.2272 42.1588 26.2596 40.8629C25.292 39.567 23.9313 38.6185 22.3807 38.1591Z" fill="#0071AF"/>
<path d="M15.75 42.75H17.25V46.5H15.75V42.75Z" fill="#00659D"/>
<path d="M10.5 26.25L10.8074 26.5574C13.9721 29.7221 18.2643 31.5 22.7399 31.5H23.7906C24.4841 31.5 25.1562 31.2597 25.6926 30.82C26.2289 30.3803 26.5963 29.7684 26.7323 29.0883C26.7648 28.926 26.7608 28.7585 26.7207 28.5979C26.6806 28.4373 26.6054 28.2876 26.5005 28.1595C26.3955 28.0315 26.2634 27.9284 26.1138 27.8576C25.9642 27.7867 25.8007 27.75 25.6352 27.75H25.23C24.8237 27.75 24.423 27.6557 24.0593 27.4745C23.6957 27.2933 23.379 27.0301 23.1344 26.7058C22.8897 26.3814 22.7237 26.0047 22.6493 25.6052C22.575 25.2058 22.5944 24.7945 22.706 24.4039C22.8628 23.8554 23.1939 23.3729 23.6493 23.0293C24.1047 22.6858 24.6596 22.5 25.23 22.5H26.25C26.6478 22.5 27.0294 22.342 27.3107 22.0607C27.592 21.7794 27.75 21.3978 27.75 21V19.5L28.673 18.577C28.85 18.4 28.98 18.1814 29.0509 17.9412C29.1218 17.701 29.1315 17.4469 29.079 17.2021L27.0925 7.93166C27.0321 7.6499 26.8916 7.3916 26.6878 7.18784C26.4075 6.9075 26.0273 6.75 25.6308 6.75H9.74488C9.54857 6.75 9.35418 6.78867 9.17281 6.86379C8.99145 6.93892 8.82665 7.04903 8.68784 7.18784C8.54903 7.32665 8.43892 7.49145 8.36379 7.67281C8.28867 7.85418 8.25 8.04857 8.25 8.24488V23.95C8.25 24.1961 8.31076 24.4384 8.42688 24.6553C8.54301 24.8723 8.7109 25.0573 8.91567 25.1938L10.5 26.25Z" fill="#F9B7B7"/>
<path d="M21.4508 17.8504L20.5508 16.6504L22.7508 15.0004L20.5508 13.3504L21.4508 12.1504L25.2508 15.0004L21.4508 17.8504Z" fill="#EA8383"/>
<path d="M29.8984 21L41.8951 19.5004L42.0811 20.9884L30.0844 22.488L29.8984 21Z" fill="#7DB6D6"/>
<path d="M29.0635 25.4609L29.476 24.0179L39.9812 27.021L39.5687 28.464L29.0635 25.4609Z" fill="#7DB6D6"/>
<path d="M28.7588 28.3281L29.7188 27.1761L34.2175 30.925L33.2575 32.077L28.7588 28.3281Z" fill="#7DB6D6"/>
<path d="M40.5 15.75H42V17.25H40.5V15.75Z" fill="#F0A5A5"/>
<path d="M43.5 13.5H45V15H43.5V13.5Z" fill="#F0A5A5"/>
<path d="M45 21H46.5V22.5H45V21Z" fill="#F0A5A5"/>
<path d="M39 22.5H40.5V24H39V22.5Z" fill="#F0A5A5"/>
<path d="M42.75 27.75H44.25V29.25H42.75V27.75Z" fill="#F0A5A5"/>
<path d="M27.75 32.25H29.25V33.75H27.75V32.25Z" fill="#F0A5A5"/>
<path d="M24 34.5H25.5V36H24V34.5Z" fill="#F0A5A5"/>
<path d="M28.5 36.75H30V38.25H28.5V36.75Z" fill="#F0A5A5"/>
<path d="M33 10.5C33.8284 10.5 34.5 9.82843 34.5 9C34.5 8.17157 33.8284 7.5 33 7.5C32.1716 7.5 31.5 8.17157 31.5 9C31.5 9.82843 32.1716 10.5 33 10.5Z" fill="#F9DBDB"/>
<path d="M37.5 6.75H39V8.25H37.5V6.75Z" fill="#F0A5A5"/>
<path d="M40.5 3.75H42V5.25H40.5V3.75Z" fill="#F0A5A5"/>
<path d="M42 8.25H43.5V9.75H42V8.25Z" fill="#F0A5A5"/>
<path d="M35.25 12.75H36.75V14.25H35.25V12.75Z" fill="#F0A5A5"/>
<path d="M32.25 15.75H33.75V17.25H32.25V15.75Z" fill="#F0A5A5"/>
<path d="M39 10.5H40.5V12H39V10.5Z" fill="#F0A5A5"/>
<path d="M11.25 2.25H29.25C29.25 4.04021 28.5388 5.7571 27.273 7.02297C26.0071 8.28884 24.2902 9 22.5 9H19.5C17.9087 9 16.3826 9.63214 15.2574 10.7574C14.1321 11.8826 13.5 13.4087 13.5 15L12.182 15C11.3381 15 10.5287 15.3352 9.93198 15.932C9.33524 16.5287 9 17.3381 9 18.182C9 18.5998 9.0823 19.0136 9.24221 19.3997C9.40212 19.7857 9.63651 20.1365 9.93198 20.432L10.0988 20.5988C10.5345 21.0345 10.8761 21.555 11.1024 22.1282C11.3287 22.7013 11.4349 23.3147 11.4144 23.9306C11.3938 24.5464 11.2471 25.1514 10.9832 25.7082C10.7193 26.265 10.3438 26.7617 9.88012 27.1674L7.5 29.25C5.83555 27.5855 4.51522 25.6095 3.61443 23.4348C2.71363 21.2601 2.25 18.9293 2.25 16.5754V11.25C2.25 8.86305 3.19821 6.57387 4.88604 4.88604C6.57387 3.19821 8.86305 2.25 11.25 2.25Z" fill="#D27676"/>
<path d="M36.8438 43.7865C37.8154 44.2243 38.8972 44.3561 39.9455 44.1643C40.9938 43.9724 41.9589 43.466 42.7125 42.7125C43.466 41.9589 43.9724 40.9938 44.1643 39.9455C44.3561 38.8972 44.2243 37.8154 43.7865 36.8438C43.2808 38.4782 42.3842 39.9647 41.1744 41.1744C39.9647 42.3842 38.4782 43.2808 36.8438 43.7865Z" fill="#C76F6F"/>
<path d="M15 46.5013H27.75V45.3514C27.7506 43.5281 27.0864 41.7671 25.8818 40.3984C24.7434 42.2633 23.1446 43.8041 21.2389 44.8728C19.3333 45.9416 17.1849 46.5023 15 46.5013Z" fill="#006095"/>
<path d="M26.7323 29.0885C26.7648 28.9262 26.7608 28.7587 26.7207 28.5981C26.6806 28.4375 26.6054 28.2877 26.5004 28.1597C26.3955 28.0317 26.2634 27.9286 26.1138 27.8577C25.9642 27.7869 25.8007 27.7502 25.6351 27.7502H25.23C24.5338 27.7502 23.8661 27.4736 23.3739 26.9813C22.8816 26.4891 22.605 25.8214 22.605 25.1252C22.605 24.429 22.8816 23.7613 23.3739 23.269C23.8661 22.7767 24.5338 22.5002 25.23 22.5002H26.25C26.6478 22.5002 27.0293 22.3422 27.3106 22.0608C27.5919 21.7795 27.75 21.398 27.75 21.0002V19.5002L28.6729 18.5772C28.85 18.4001 28.9799 18.1816 29.0509 17.9414C29.1218 17.7012 29.1315 17.4471 29.079 17.2023L28.2681 13.418C25.7006 20.3 20.5173 25.8886 13.8477 28.966C16.5179 30.6222 19.5976 31.4999 22.7398 31.5002H23.7906C24.4841 31.5002 25.1562 31.2599 25.6925 30.8202C26.2289 30.3805 26.5963 29.7686 26.7323 29.0885Z" fill="#D49C9C"/>
<path d="M15.75 46.4772V46.5003H17.25V46.3008C16.7539 46.3891 16.253 46.4481 15.75 46.4772Z" fill="#005686"/>
<path d="M41.9992 41.2512V40.2461C41.7198 40.6001 41.418 40.9358 41.0957 41.2512H41.9992Z" fill="#CC8C8C"/>
</svg>
