<svg width="48" height="48" viewBox="0 0 48 48" fill="none" xmlns="http://www.w3.org/2000/svg">
<g clip-path="url(#clip0_3236_29438)">
<path d="M44.1084 14.5907C44.1067 14.2034 43.7922 13.8906 43.4053 13.8906C43.4042 13.8906 43.4032 13.8906 43.4022 13.8906C43.0139 13.8924 42.7005 14.2085 42.7022 14.5968L42.7123 16.9113C42.714 17.2986 43.0285 17.6114 43.4154 17.6114H43.4185C43.8068 17.6096 44.1202 17.2935 44.1185 16.9052L44.1084 14.5907Z" fill="#6D788A"/>
<path d="M31.6755 0.208203L30.1295 1.76858C29.8561 2.04439 29.8582 2.48961 30.1341 2.76289C30.2711 2.89873 30.4501 2.96661 30.629 2.96661C30.81 2.96661 30.9909 2.89714 31.1285 2.75839L32.6745 1.19802C32.9479 0.922203 32.9458 0.476984 32.6699 0.203703C32.3941 -0.0696723 31.9489 -0.0676098 31.6755 0.208203Z" fill="#6D788A"/>
<path d="M36.3173 21.9031C36.0417 21.6295 35.5965 21.6316 35.323 21.9072C35.0495 22.183 35.0515 22.6282 35.3272 22.9015L37.0271 24.5872C37.1641 24.7232 37.3432 24.7911 37.5222 24.7911C37.7031 24.7911 37.884 24.7217 38.0215 24.583C38.295 24.3073 38.293 23.8621 38.0173 23.5887L36.3173 21.9031Z" fill="#6D788A"/>
<path d="M2.80512 4.89162L1.14134 6.56956C0.867874 6.84518 0.869842 7.2904 1.14556 7.56387C1.28262 7.69981 1.46169 7.76768 1.64065 7.76768C1.82159 7.76768 2.00244 7.69831 2.13997 7.55956L3.80365 5.88171C4.07712 5.60609 4.07516 5.16087 3.79944 4.8874C3.52381 4.61412 3.07859 4.61581 2.80512 4.89162Z" fill="#6D788A"/>
<path d="M5.17969 10.9453H22.1484V19.5963H5.17969V10.9453Z" fill="#8F5A46"/>
<path d="M19.6172 13.4766V19.5963H7.71094V13.4766H19.6172Z" fill="#FED23A"/>
<path d="M15.8672 13.4766H19.6172V19.5963H15.8672V13.4766Z" fill="#F7C000"/>
<path d="M23.9766 39.0039H44.6953V47.3008H23.9766V39.0039Z" fill="#E8B266"/>
<path d="M40.9453 39.0039H44.6953V47.3008H40.9453V39.0039Z" fill="#D9A359"/>
<path d="M23.9766 30.707H44.6953V39.0039H23.9766V30.707Z" fill="#FFDEB0"/>
<path d="M40.9453 30.707H44.6953V39.0039H40.9453V30.707Z" fill="#F7C783"/>
<path d="M22.9961 27.6641H45.6836V30.706H22.9961V27.6641Z" fill="#CAD4E6"/>
<path d="M3.3125 39.0039H24.0313V47.3008H3.3125V39.0039Z" fill="#FFDEB0"/>
<path d="M20.2812 39.0039H24.0313V47.3008H20.2812V39.0039Z" fill="#F7C783"/>
<path d="M3.3125 30.707H24.0313V39.0039H3.3125V30.707Z" fill="#E8B266"/>
<path d="M20.2812 30.707H24.0313V39.0039H20.2812V30.707Z" fill="#D9A359"/>
<path d="M3.3125 22.4102H24.0313V30.707H3.3125V22.4102Z" fill="#FFDEB0"/>
<path d="M20.2812 22.4102H24.0313V30.707H20.2812V22.4102Z" fill="#F7C783"/>
<path d="M31.8203 34.7773H36.8828C37.2711 34.7773 37.5859 34.4626 37.5859 34.0742C37.5859 33.6858 37.2711 33.3711 36.8828 33.3711H31.8203C31.432 33.3711 31.1172 33.6858 31.1172 34.0742C31.1172 34.4626 31.432 34.7773 31.8203 34.7773Z" fill="#8F5A46"/>
<path d="M36.8828 41.5117H31.8203C31.432 41.5117 31.1172 41.8264 31.1172 42.2148C31.1172 42.6033 31.432 42.918 31.8203 42.918H36.8828C37.2711 42.918 37.5859 42.6033 37.5859 42.2148C37.5859 41.8264 37.2711 41.5117 36.8828 41.5117Z" fill="#8F5A46"/>
<path d="M16.2031 25.0742H11.1406C10.7523 25.0742 10.4375 25.3889 10.4375 25.7773C10.4375 26.1658 10.7523 26.4805 11.1406 26.4805H16.2031C16.5914 26.4805 16.9062 26.1658 16.9062 25.7773C16.9062 25.3889 16.5914 25.0742 16.2031 25.0742Z" fill="#8F5A46"/>
<path d="M16.2031 33.2148H11.1406C10.7523 33.2148 10.4375 33.5296 10.4375 33.918C10.4375 34.3064 10.7523 34.6211 11.1406 34.6211H16.2031C16.5914 34.6211 16.9062 34.3064 16.9062 33.918C16.9062 33.5296 16.5914 33.2148 16.2031 33.2148Z" fill="#8F5A46"/>
<path d="M16.2031 41.3555H11.1406C10.7523 41.3555 10.4375 41.6702 10.4375 42.0586C10.4375 42.447 10.7523 42.7617 11.1406 42.7617H16.2031C16.5914 42.7617 16.9062 42.447 16.9062 42.0586C16.9062 41.6702 16.5914 41.3555 16.2031 41.3555Z" fill="#8F5A46"/>
<path d="M2.32422 19.3672H25.0117V22.4091H2.32422V19.3672Z" fill="#CAD4E6"/>
<path d="M43.4069 15.5126C42.555 15.5179 41.86 14.8316 41.8546 13.9797L41.834 10.689C41.8287 9.83706 42.515 9.14209 43.3669 9.13675C44.2188 9.13141 44.9138 9.81775 44.9191 10.6697L44.9398 13.9604C44.9451 14.8124 44.2589 15.5072 43.4069 15.5126Z" fill="#FED23A"/>
<path d="M43.4199 12.3159C43.4199 12.3159 45.1957 10.9539 45.9418 10.9492C46.6879 10.9446 47.2965 11.5456 47.3012 12.2917C47.3059 13.0377 46.7048 13.6463 45.9588 13.651C45.2127 13.6556 43.4199 12.3159 43.4199 12.3159Z" fill="#73E3F0"/>
<path d="M43.4242 12.3351C43.4242 12.3351 41.6484 13.6971 40.9024 13.7018C40.1563 13.7065 39.5477 13.1054 39.543 12.3594C39.5383 11.6133 40.1393 11.0047 40.8854 11C41.6316 10.9954 43.4242 12.3351 43.4242 12.3351Z" fill="#73E3F0"/>
<path d="M31.1976 1.69892C31.8038 2.29752 31.8099 3.2742 31.2113 3.88039L28.8989 6.22189C28.3003 6.82808 27.3236 6.83417 26.7175 6.23558C26.1113 5.63698 26.1052 4.6603 26.7038 4.05411L29.0161 1.71261C29.6147 1.10642 30.5914 1.10023 31.1976 1.69892Z" fill="#FED23A"/>
<path d="M28.9307 3.95318C28.9307 3.95318 26.7119 3.66058 26.181 3.13633C25.6502 2.61208 25.6447 1.7568 26.169 1.22589C26.6932 0.695082 27.5485 0.689644 28.0794 1.21389C28.6103 1.73824 28.9307 3.95318 28.9307 3.95318Z" fill="#73E3F0"/>
<path d="M28.9473 3.9375C28.9473 3.9375 31.166 4.23009 31.697 4.75434C32.2278 5.27859 32.2332 6.13388 31.709 6.66478C31.1847 7.19559 30.3294 7.20103 29.7985 6.67678C29.2676 6.15253 28.9473 3.9375 28.9473 3.9375Z" fill="#73E3F0"/>
<path d="M36.5285 23.1068C35.9299 23.7129 34.9532 23.719 34.347 23.1204L32.0055 20.8081C31.3994 20.2095 31.3933 19.2328 31.9919 18.6266C32.5904 18.0204 33.5671 18.0144 34.1733 18.6129L36.5148 20.9253C37.121 21.5239 37.1271 22.5006 36.5285 23.1068Z" fill="#FED23A"/>
<path d="M34.2764 20.8389C34.2764 20.8389 34.569 18.6201 35.0932 18.0892C35.6175 17.5584 36.4727 17.5529 37.0036 18.0772C37.5345 18.6014 37.5399 19.4567 37.0156 19.9876C36.4914 20.5185 34.2764 20.8389 34.2764 20.8389Z" fill="#73E3F0"/>
<path d="M34.2911 20.8516C34.2911 20.8516 33.9985 23.0703 33.4742 23.6013C32.95 24.1322 32.0947 24.1375 31.5638 23.6132C31.033 23.089 31.0275 22.2337 31.5518 21.7028C32.0761 21.1719 34.2911 20.8516 34.2911 20.8516Z" fill="#73E3F0"/>
<path d="M2.61394 6.07148C2.00775 5.47289 2.00166 4.4962 2.60025 3.89001L4.9126 1.54851C5.51119 0.942323 6.48788 0.93623 7.09406 1.53482C7.70025 2.13342 7.70635 3.1101 7.10775 3.71629L4.79541 6.05779C4.19682 6.66398 3.22013 6.67007 2.61394 6.07148Z" fill="#FED23A"/>
<path d="M4.88477 3.82031C4.88477 3.82031 7.10355 4.11291 7.63445 4.63716C8.16536 5.16141 8.1707 6.01669 7.64645 6.54759C7.1222 7.07841 6.26692 7.08384 5.73602 6.55959C5.20511 6.03534 4.88477 3.82031 4.88477 3.82031Z" fill="#73E3F0"/>
<path d="M4.86917 3.83212C4.86917 3.83212 2.65039 3.53952 2.11948 3.01527C1.58858 2.49102 1.58323 1.63574 2.10748 1.10484C2.63173 0.573929 3.48701 0.568585 4.01792 1.09284C4.54883 1.61709 4.86917 3.83212 4.86917 3.83212Z" fill="#73E3F0"/>
<path d="M33.8999 11.6523C34.8048 11.6523 34.8063 10.2461 33.8999 10.2461C32.995 10.2461 32.9935 11.6523 33.8999 11.6523Z" fill="#FED23A"/>
<path d="M37.5209 1.40625C38.4258 1.40625 38.4273 0 37.5209 0C36.6162 0 36.6147 1.40625 37.5209 1.40625Z" fill="#FED23A"/>
<path d="M40.2202 6.20703C41.1251 6.20703 41.1266 4.80078 40.2202 4.80078C39.3154 4.80078 39.3139 6.20703 40.2202 6.20703Z" fill="#FED23A"/>
<path d="M42.3765 23.1094C43.2814 23.1094 43.2829 21.7031 42.3765 21.7031C41.4716 21.7031 41.4701 23.1094 42.3765 23.1094Z" fill="#FED23A"/>
<path d="M45.0405 1.90234C45.9454 1.90234 45.9469 0.496094 45.0405 0.496094C44.1357 0.496094 44.1342 1.90234 45.0405 1.90234Z" fill="#FED23A"/>
<path d="M28.2202 14.8555C29.1251 14.8555 29.1266 13.4492 28.2202 13.4492C27.3154 13.4492 27.3139 14.8555 28.2202 14.8555Z" fill="#FED23A"/>
<path d="M15.0015 7.17969C15.9064 7.17969 15.9079 5.77344 15.0015 5.77344C14.0966 5.77344 14.0951 7.17969 15.0015 7.17969Z" fill="#FED23A"/>
<path d="M20.1577 4.53516C21.0626 4.53516 21.0641 3.12891 20.1577 3.12891C19.2529 3.12891 19.2514 4.53516 20.1577 4.53516Z" fill="#FED23A"/>
<path d="M11.9624 1.40625C12.8673 1.40625 12.8688 0 11.9624 0C11.0575 0 11.056 1.40625 11.9624 1.40625Z" fill="#FED23A"/>
<path d="M47.2969 46.5938H0.703125C0.314812 46.5938 0 46.9085 0 47.2969C0 47.6853 0.314812 48 0.703125 48H47.2969C47.6852 48 48 47.6853 48 47.2969C48 46.9085 47.6852 46.5938 47.2969 46.5938Z" fill="#AAD667"/>
</g>
<defs>
<clipPath id="clip0_3236_29438">
<rect width="48" height="48" fill="white"/>
</clipPath>
</defs>
</svg>
