<svg width="48" height="48" viewBox="0 0 48 48" fill="none" xmlns="http://www.w3.org/2000/svg">
<g clip-path="url(#clip0_3113_26781)">
<path d="M28.9495 0.763672L14.4736 12.192V28.9536H43.4254V12.192L28.9495 0.763672Z" fill="#D9F6FF"/>
<path d="M16.7593 22.8574H14.4736V28.9529H16.7593V22.8574Z" fill="#CEF0C5"/>
<path d="M28.949 3.67578L16.7588 13.2997V28.9536H41.1392V13.2997L28.949 3.67578Z" fill="#AEECFF"/>
<path d="M41.1389 22.8574H16.7588V28.9529H41.1389V22.8574Z" fill="#B4EAC5"/>
<path d="M29.7113 12.9531H28.1875V26.6675H29.7113V12.9531Z" fill="#99C65A"/>
<path d="M43.4263 22.8574H41.1406V28.9529H43.4263V22.8574Z" fill="#CEF0C5"/>
<path d="M43.8981 11.5944L29.4221 0.165989C29.1454 -0.0527255 28.754 -0.0527255 28.4772 0.165989L14.0013 11.5944C13.8191 11.7387 13.7119 11.9589 13.7119 12.1922V28.9538H15.2357V12.5612L28.9496 1.7344L42.6637 12.5612V28.9537H44.1875V12.1922C44.1875 11.9589 44.0803 11.7386 43.8981 11.5944Z" fill="#C9C6CA"/>
<path d="M25.1396 26.6662V28.9519H32.7586V26.6662C32.7586 26.2454 32.4174 25.9043 31.9967 25.9043H25.9015C25.4808 25.9043 25.1396 26.2454 25.1396 26.6662Z" fill="#DCA587"/>
<path d="M27.4253 25.9043H25.9015C25.4807 25.9043 25.1396 26.2454 25.1396 26.6662V28.9519H26.6634V26.6662C26.6634 26.2454 27.0046 25.9043 27.4253 25.9043Z" fill="#CD9178"/>
<path d="M44.9497 29.7152H12.9504C12.5293 29.7152 12.1885 29.374 12.1885 28.9533C12.1885 28.5326 12.5293 28.1914 12.9504 28.1914H44.9497C45.3708 28.1914 45.7116 28.5326 45.7116 28.9533C45.7116 29.374 45.3708 29.7152 44.9497 29.7152Z" fill="#BEE86E"/>
<path d="M13.712 48.0003C20.024 48.0003 25.1409 42.8834 25.1409 36.5714C25.1409 30.2594 20.024 25.1426 13.712 25.1426C7.40007 25.1426 2.2832 30.2594 2.2832 36.5714C2.2832 42.8834 7.40007 48.0003 13.712 48.0003Z" fill="#AFD755"/>
<path d="M13.7121 46.477C19.1822 46.477 23.6166 42.0426 23.6166 36.5725C23.6166 31.1024 19.1822 26.668 13.7121 26.668C8.24201 26.668 3.80762 31.1024 3.80762 36.5725C3.80762 42.0426 8.24201 46.477 13.7121 46.477Z" fill="#BEE86E"/>
<path d="M32.505 10.8216C32.1652 10.8216 31.8508 10.9219 31.5808 11.0874C31.5787 11.0838 31.5769 11.08 31.5749 11.0764C31.853 10.9253 32.097 10.7033 32.2668 10.4091C32.7578 9.55884 32.4664 8.47155 31.6161 7.98068C30.7658 7.48972 29.6785 7.78109 29.1877 8.63139C29.0199 8.92191 28.95 9.23981 28.956 9.55246C28.9538 9.55246 28.9517 9.55181 28.9495 9.55181C27.8195 9.55181 26.8445 10.1739 26.3182 11.0874C26.0482 10.922 25.7338 10.8216 25.394 10.8216C24.4121 10.8216 23.6162 11.6175 23.6162 12.5994C23.6162 13.5812 24.4121 14.3771 25.394 14.3771C25.7338 14.3771 26.0482 14.2768 26.3182 14.1113C26.3203 14.1149 26.3221 14.1187 26.3242 14.1223C26.0461 14.2734 25.8021 14.4954 25.6323 14.7897C25.1413 15.64 25.4327 16.7272 26.283 17.2182C27.1333 17.7091 28.2206 17.4177 28.7114 16.5674C28.8791 16.2769 28.9491 15.9589 28.9431 15.6464C28.9453 15.6464 28.9474 15.647 28.9496 15.647C30.0796 15.647 31.0547 15.025 31.5809 14.1115C31.8509 14.2769 32.1653 14.3773 32.5051 14.3773C33.487 14.3773 34.2829 13.5814 34.2829 12.5996C34.2828 11.6175 33.4869 10.8216 32.505 10.8216Z" fill="#E6646E"/>
<path d="M28.5029 21.0187C29.098 21.6138 29.098 22.5786 28.5029 23.1737C27.9078 23.7688 26.943 23.7688 26.3479 23.1737C25.2051 22.0309 25.1396 19.8105 25.1396 19.8105C25.1396 19.8105 27.36 19.8759 28.5029 21.0187Z" fill="#AFD755"/>
<path d="M28.5028 23.1737C29.0978 22.5786 29.0978 21.6138 28.5028 21.0188C27.36 19.876 25.1396 19.8105 25.1396 19.8105L28.5028 23.1737Z" fill="#BEE86E"/>
<path d="M31.5505 22.412C30.9554 23.0072 29.9907 23.0072 29.3956 22.412C28.8004 21.8169 28.8004 20.8522 29.3956 20.2571C30.5383 19.1143 32.7587 19.0488 32.7587 19.0488C32.7587 19.0488 32.6933 21.2692 31.5505 22.412Z" fill="#AFD755"/>
<path d="M29.3965 22.4119C29.9915 23.007 30.9564 23.007 31.5514 22.4119C32.6942 21.2692 32.7596 19.0488 32.7596 19.0488L29.3965 22.4119Z" fill="#BEE86E"/>
<path d="M27.1742 11.2977C28.1561 11.2977 28.952 10.5018 28.952 9.51993C28.952 8.53811 28.1561 7.74219 27.1742 7.74219C26.1924 7.74219 25.3965 8.53811 25.3965 9.51993C25.3965 10.5018 26.1924 11.2977 27.1742 11.2977Z" fill="#FF8087"/>
<path d="M30.7299 17.4559C31.7117 17.4559 32.5076 16.66 32.5076 15.6781C32.5076 14.6963 31.7117 13.9004 30.7299 13.9004C29.7481 13.9004 28.9521 14.6963 28.9521 15.6781C28.9521 16.66 29.7481 17.4559 30.7299 17.4559Z" fill="#FF8087"/>
<path d="M28.9467 14.3797C29.9285 14.3797 30.7244 13.5838 30.7244 12.602C30.7244 11.6201 29.9285 10.8242 28.9467 10.8242C27.9649 10.8242 27.1689 11.6201 27.1689 12.602C27.1689 13.5838 27.9649 14.3797 28.9467 14.3797Z" fill="#FFE17D"/>
<path d="M25.0249 38.0977H20.5668C19.7268 38.0977 19.043 38.7811 19.043 39.6214V46.6779C19.5794 46.3941 20.0852 46.0633 20.5668 45.7009V39.6213H24.7145C24.8514 39.126 24.9554 38.6177 25.0249 38.0977Z" fill="#FFE17D"/>
<path d="M6.85273 27.4456V33.5252H2.70493C2.56797 34.0206 2.464 34.5288 2.39453 35.049H6.85263C7.69262 35.049 8.37641 34.3655 8.37641 33.5252V26.4688C7.84008 26.7525 7.33431 27.0833 6.85273 27.4456Z" fill="#FFE17D"/>
<path d="M6.09461 38.098C6.51573 38.098 6.8565 37.7569 6.8565 37.3361C6.8565 36.9154 6.51573 36.5742 6.09461 36.5742H2.28516C2.28516 37.0922 2.33166 37.5982 2.3984 38.098H6.09461Z" fill="#FFD164"/>
<path d="M21.3322 35.0508C20.9111 35.0508 20.5703 35.3919 20.5703 35.8127C20.5703 36.2334 20.9111 36.5746 21.3322 36.5746H25.1417C25.1417 36.0566 25.0952 35.5505 25.0284 35.0508H21.3322Z" fill="#FFD164"/>
<path d="M17.3616 25.7485L14.3813 28.7289C14.2391 28.8706 14.0427 28.9521 13.8426 28.9521H12.1878V25.2559C11.6678 25.3253 11.1595 25.4293 10.6641 25.5663V34.2853C10.6641 34.706 11.0048 35.0472 11.426 35.0472C11.8471 35.0472 12.1878 34.706 12.1878 34.2853V30.4759H13.8426C14.4527 30.4759 15.0271 30.2381 15.4586 29.8062L18.8782 26.3866C18.3913 26.1392 17.8856 25.9252 17.3616 25.7485Z" fill="#FFE17D"/>
<path d="M21.228 27.9785L16.982 32.2245C16.6844 32.5221 16.6844 33.0042 16.982 33.3018C17.1308 33.4506 17.3258 33.525 17.5207 33.525C17.7156 33.525 17.9106 33.4506 18.0594 33.3018L22.3053 29.0559C21.9703 28.6731 21.6107 28.3136 21.228 27.9785Z" fill="#FFD164"/>
<path d="M15.9972 38.0957C15.576 38.0957 15.2353 38.4369 15.2353 38.8576V42.6671H13.5805C12.9704 42.6671 12.396 42.9048 11.9645 43.3367L8.54492 46.7563C9.03176 47.0037 9.53762 47.2178 10.0615 47.3944L13.0418 44.414C13.184 44.2723 13.3804 44.1908 13.5805 44.1908H15.2353V47.887C15.7554 47.8176 16.2636 47.7136 16.759 47.5766V38.8576C16.759 38.4369 16.4183 38.0957 15.9972 38.0957Z" fill="#FFE17D"/>
<path d="M9.36304 39.8423L5.11719 44.0882C5.45224 44.4709 5.81177 44.8305 6.19454 45.1655L10.4404 40.9197C10.738 40.622 10.738 40.14 10.4404 39.8423C10.1427 39.5448 9.6606 39.5448 9.36304 39.8423Z" fill="#FFD164"/>
<path d="M11.4263 36.5713C12.6886 36.5713 13.712 35.548 13.712 34.2857C13.712 33.0233 12.6886 32 11.4263 32C10.164 32 9.14062 33.0233 9.14062 34.2857C9.14062 35.548 10.164 36.5713 11.4263 36.5713Z" fill="#9C969E"/>
<path d="M11.4269 35.0472C11.8477 35.0472 12.1888 34.7061 12.1888 34.2853C12.1888 33.8645 11.8477 33.5234 11.4269 33.5234C11.0061 33.5234 10.665 33.8645 10.665 34.2853C10.665 34.7061 11.0061 35.0472 11.4269 35.0472Z" fill="#5D5360"/>
<path d="M17.521 35.0479C18.7834 35.0479 19.8067 34.0246 19.8067 32.7622C19.8067 31.4999 18.7834 30.4766 17.521 30.4766C16.2587 30.4766 15.2354 31.4999 15.2354 32.7622C15.2354 34.0246 16.2587 35.0479 17.521 35.0479Z" fill="#9C969E"/>
<path d="M17.5207 33.5238C17.9415 33.5238 18.2826 33.1827 18.2826 32.7619C18.2826 32.3411 17.9415 32 17.5207 32C17.0999 32 16.7588 32.3411 16.7588 32.7619C16.7588 33.1827 17.0999 33.5238 17.5207 33.5238Z" fill="#5D5360"/>
<path d="M9.90188 42.6671C11.1642 42.6671 12.1876 41.6437 12.1876 40.3814C12.1876 39.119 11.1642 38.0957 9.90188 38.0957C8.63954 38.0957 7.61621 39.119 7.61621 40.3814C7.61621 41.6437 8.63954 42.6671 9.90188 42.6671Z" fill="#9C969E"/>
<path d="M9.90252 41.1429C10.3233 41.1429 10.6644 40.8018 10.6644 40.381C10.6644 39.9603 10.3233 39.6191 9.90252 39.6191C9.48174 39.6191 9.14062 39.9603 9.14062 40.381C9.14062 40.8018 9.48174 41.1429 9.90252 41.1429Z" fill="#5D5360"/>
<path d="M15.9976 41.1436C17.2599 41.1436 18.2833 40.1203 18.2833 38.8579C18.2833 37.5956 17.2599 36.5723 15.9976 36.5723C14.7352 36.5723 13.7119 37.5956 13.7119 38.8579C13.7119 40.1203 14.7352 41.1436 15.9976 41.1436Z" fill="#9C969E"/>
<path d="M15.9972 39.6195C16.418 39.6195 16.7591 39.2784 16.7591 38.8576C16.7591 38.4368 16.418 38.0957 15.9972 38.0957C15.5765 38.0957 15.2354 38.4368 15.2354 38.8576C15.2354 39.2784 15.5765 39.6195 15.9972 39.6195Z" fill="#5D5360"/>
</g>
<defs>
<clipPath id="clip0_3113_26781">
<rect width="48" height="48" fill="white"/>
</clipPath>
</defs>
</svg>
