<svg width="41" height="40" viewBox="0 0 41 40" fill="none" xmlns="http://www.w3.org/2000/svg">
<g clip-path="url(#clip0_2337_3074)">
<path d="M28.7428 30.0677C18.6352 30.0677 10.4424 21.8735 10.4424 11.766C10.4424 7.28722 12.0561 3.19014 14.7264 0.00878906C6.47592 2.65735 0.501278 10.3853 0.501278 19.5157C0.501278 30.8336 9.6752 40.0075 20.9931 40.0075C30.1235 40.0075 37.8514 34.0329 40.5 25.7824C37.3186 28.454 33.2203 30.0677 28.7428 30.0677Z" fill="#FFD93B"/>
<path d="M8.32678 3.42969C5.586 6.91201 3.93898 11.296 3.93898 16.0731C3.93898 27.391 13.1129 36.5649 24.4308 36.5649C29.2079 36.5649 33.5919 34.9179 37.0742 32.1771C33.3242 36.9376 27.5212 40.005 20.9907 40.005C9.67284 40.005 0.498913 30.8311 0.498913 19.5132C0.498913 12.9827 3.56628 7.18097 8.32678 3.42969Z" fill="#F4C534"/>
<path d="M30.2415 8.00391L28.1308 12.2829L23.41 12.968L26.8258 16.298L26.0202 20.9995L30.2415 18.78L34.4641 20.9995L33.6585 16.298L37.0742 12.968L32.3534 12.2829L30.2415 8.00391Z" fill="#FFD83B"/>
<path d="M18.3338 6.63379L17.24 8.85203L14.7925 9.20679L16.5638 10.9332L16.145 13.3692L18.3338 12.2191L20.5225 13.3692L20.1037 10.9332L21.875 9.20679L19.4275 8.85203L18.3338 6.63379Z" fill="#FFD83B"/>
</g>
<defs>
<clipPath id="clip0_2337_3074">
<rect width="40" height="40" fill="white" transform="translate(0.5)"/>
</clipPath>
</defs>
</svg>
