<svg width="40" height="40" viewBox="0 0 40 40" fill="none" xmlns="http://www.w3.org/2000/svg">
<g clip-path="url(#clip0_2337_3054)">
<path d="M33.6602 21.0073C33.6909 20.9768 33.7213 20.946 33.7516 20.9152C34.6805 19.9674 36.283 20.8229 35.9986 22.1193C35.3577 25.0411 33.9023 27.8201 31.632 30.0936C25.2805 36.4541 15.0567 36.4651 8.69151 30.1183C2.33763 23.7827 2.332 13.4955 8.67463 7.15292C10.9481 4.87949 13.7282 3.42161 16.6514 2.77926C17.952 2.49348 18.8096 4.09504 17.8588 5.02746C17.8323 5.0534 17.806 5.07957 17.7797 5.10582C13.4281 9.45736 13.3922 16.4894 17.6702 20.8854C21.9911 25.3253 29.2737 25.3825 33.6602 21.0073Z" fill="#FFE177"/>
<path d="M13.8732 30.1178C16.3867 32.624 19.5014 34.1387 22.7417 34.6627C17.7863 35.4651 12.5356 33.9504 8.69175 30.1178C2.33756 23.7822 2.33193 13.4956 8.6748 7.15274C10.9485 4.87907 13.7283 3.4215 16.6515 2.77924C17.5384 2.58447 18.2193 3.26697 18.2612 4.01627C16.6692 4.7865 15.177 5.83196 13.8563 7.15274C7.5134 13.4956 7.5191 23.7822 13.8732 30.1178Z" fill="#FFD15B"/>
<path d="M6.03115 28.7959H7.57505C8.44169 26.4902 10.6662 24.8491 13.2748 24.8491C16.5659 24.8491 19.2453 27.461 19.3575 30.7247H19.3629C21.9238 30.7247 23.9999 32.8008 23.9999 35.3617C23.9999 37.9227 21.9238 39.9987 19.3629 39.9987H6.03115C2.93757 39.9987 0.429688 37.4909 0.429688 34.3973C0.429688 31.3038 2.93757 28.7959 6.03115 28.7959Z" fill="#F9F3F1"/>
<path d="M15.501 25.2721C13.9026 25.9015 12.6341 27.1876 12.0289 28.7981H10.4852C8.93836 28.7981 7.53789 29.4251 6.52383 30.4384C5.51055 31.4524 4.88359 32.8529 4.88359 34.3998C4.88359 37.4936 7.39148 40.0014 10.4852 40.0014H6.03133C2.93758 40.0014 0.429688 37.4935 0.429688 34.3998C0.429688 32.8529 1.05664 31.4525 2.06992 30.4384C3.08406 29.4251 4.48445 28.7981 6.03133 28.7981H7.575C8.4418 26.4931 10.6655 24.8521 13.2748 24.8521C14.0604 24.8521 14.8113 25.0009 15.501 25.2721Z" fill="#F3EAE6"/>
<path d="M27.2343 4.30643C27.0581 4.47861 26.9776 4.72658 27.0186 4.96963L27.2327 6.21635C27.3382 6.82885 26.6942 7.29643 26.1446 7.00674L25.025 6.41838C24.852 6.32744 24.6516 6.30893 24.4681 6.36205C24.4198 6.37572 24.3723 6.39502 24.3272 6.41838L23.2077 7.00674C22.6571 7.2965 22.0141 6.82885 22.1196 6.21635L22.3328 4.96963C22.3747 4.72658 22.2942 4.47869 22.1171 4.30643L21.2117 3.42353C20.7666 2.98971 21.0121 2.23314 21.6278 2.14385L22.8793 1.96197C23.1232 1.92658 23.3349 1.77283 23.4435 1.5515L24.0036 0.418301C24.2781 -0.139434 25.0732 -0.139434 25.3485 0.418301L25.4829 0.691113L25.9078 1.5515C26.0173 1.77283 26.2289 1.92658 26.4728 1.96197L27.7244 2.14385C28.3393 2.23314 28.5856 2.98971 28.1397 3.42353L27.2343 4.30643Z" fill="#FFE177"/>
<path d="M23.8878 4.14228C23.8878 4.94877 24.0978 5.70611 24.4681 6.36205C24.4198 6.37572 24.3723 6.39502 24.3272 6.41838L23.2077 7.00674C22.6571 7.2965 22.0141 6.82885 22.1196 6.21635L22.3328 4.96963C22.3747 4.72658 22.2942 4.47869 22.1171 4.30643L21.2117 3.42354C20.7666 2.98971 21.0121 2.23314 21.6278 2.14385L22.8793 1.96197C23.1232 1.92658 23.3349 1.77283 23.4435 1.5515L24.0036 0.418301C24.2781 -0.139434 25.0732 -0.139434 25.3485 0.418301L25.4829 0.691113C24.5067 1.52174 23.8878 2.75963 23.8878 4.14228Z" fill="#FFD15B"/>
<path d="M37.871 35.6331C37.6948 35.8053 37.6143 36.0532 37.6553 36.2963L37.8694 37.543C37.9749 38.1555 37.331 38.6231 36.7813 38.3334L35.6617 37.745C35.4887 37.6541 35.2883 37.6356 35.1048 37.6887C35.0565 37.7024 35.009 37.7217 34.9639 37.745L33.8444 38.3334C33.2939 38.6232 32.6508 38.1555 32.7563 37.543L32.9696 36.2963C33.0114 36.0532 32.931 35.8054 32.7539 35.6331L31.8484 34.7502C31.4033 34.3164 31.6488 33.5598 32.2645 33.4705L33.516 33.2886C33.7599 33.2532 33.9716 33.0995 34.0802 32.8782L34.6403 31.745C34.9148 31.1872 35.7099 31.1872 35.9853 31.745L36.1196 32.0178L36.5446 32.8782C36.654 33.0995 36.8656 33.2532 37.1096 33.2886L38.3611 33.4705C38.976 33.5598 39.2223 34.3164 38.7764 34.7502L37.871 35.6331Z" fill="#FFE177"/>
<path d="M34.5245 35.4689C34.5245 36.2754 34.7346 37.0328 35.1048 37.6887C35.0565 37.7024 35.009 37.7217 34.9639 37.745L33.8444 38.3334C33.2939 38.6232 32.6508 38.1555 32.7563 37.543L32.9696 36.2963C33.0114 36.0532 32.931 35.8054 32.7539 35.6331L31.8484 34.7502C31.4033 34.3164 31.6488 33.5598 32.2645 33.4705L33.516 33.2886C33.7599 33.2532 33.9716 33.0995 34.0802 32.8782L34.6403 31.745C34.9148 31.1872 35.7099 31.1872 35.9853 31.745L36.1196 32.0178C35.1434 32.8484 34.5245 34.0862 34.5245 35.4689Z" fill="#FFD15B"/>
<path d="M36.0197 10.0994H35.0416C34.4927 8.63873 33.0834 7.59912 31.4309 7.59912C29.3461 7.59912 27.6487 9.25373 27.5777 11.3212H27.5742C25.9519 11.3212 24.6367 12.6364 24.6367 14.2587C24.6367 15.8811 25.9519 17.1962 27.5742 17.1962H36.0197C37.9795 17.1962 39.5681 15.6076 39.5681 13.6478C39.5681 11.6881 37.9794 10.0994 36.0197 10.0994Z" fill="#F9F3F1"/>
<path d="M32.5484 7.76311C31.0053 8.23029 29.8704 9.63904 29.8127 11.3214H29.8091C28.1873 11.3214 26.8722 12.6365 26.8722 14.2583V14.259C26.8722 15.8809 28.1873 17.196 29.8091 17.196H27.5744C25.9518 17.196 24.6367 15.8809 24.6367 14.259V14.2583C24.6367 12.6365 25.9518 11.3214 27.5744 11.3214H27.5779C27.6137 10.2877 28.0557 9.35686 28.7495 8.68482C29.4432 8.01287 30.3889 7.59912 31.431 7.59912C31.8202 7.5992 32.1952 7.65686 32.5484 7.76311Z" fill="#F3EAE6"/>
</g>
<defs>
<clipPath id="clip0_2337_3054">
<rect width="40" height="40" fill="white"/>
</clipPath>
</defs>
</svg>
