<svg width="31" height="30" viewBox="0 0 31 30" fill="none" xmlns="http://www.w3.org/2000/svg">
<g clip-path="url(#clip0_2335_2104)">
<path d="M13.5665 23.2053C18.0981 23.2053 21.7717 19.5317 21.7717 15.0001C21.7717 10.4685 18.0981 6.79492 13.5665 6.79492C9.03491 6.79492 5.36133 10.4685 5.36133 15.0001C5.36133 19.5317 9.03491 23.2053 13.5665 23.2053Z" fill="#FFC433"/>
<path d="M21.7719 15.0003C21.7719 19.5321 18.0985 23.2056 13.5666 23.2056C12.6761 23.2056 11.8188 23.0635 11.0156 22.8013C11.2665 22.8245 11.5209 22.8364 11.7784 22.8364C16.3097 22.8364 19.9837 19.163 19.9837 14.6311C19.9837 10.9892 17.6105 7.90199 14.3271 6.83008C18.5022 7.21352 21.7719 10.7246 21.7719 15.0003Z" fill="#FFB322"/>
<path d="M26.8528 23.2203C28.8953 23.2203 30.6115 21.5493 30.6009 19.5068C30.5914 17.7036 29.2895 16.2072 27.5744 15.8942C27.4521 15.8718 27.3561 15.7775 27.3338 15.6552C26.9125 13.3356 24.8438 11.5901 22.3836 11.6754C21.2969 11.713 20.2974 12.1131 19.5033 12.7579C18.4504 13.6128 17.7587 14.8977 17.7035 16.3382C17.6931 16.6084 17.7049 16.874 17.7371 17.1331C17.7551 17.2773 17.6624 17.4122 17.5224 17.4515C16.272 17.8024 15.3586 18.959 15.3792 20.3263C15.4036 21.9392 16.7499 23.2202 18.363 23.2202L26.8528 23.2203Z" fill="#E6F6FF"/>
<path d="M30.6007 19.5072C30.6091 21.1082 29.5565 22.4807 28.1166 22.9998C28.8936 22.3178 29.3886 21.3264 29.3826 20.2266C29.3731 18.4235 28.0711 16.9265 26.356 16.6138C26.2341 16.5912 26.1378 16.4973 26.1158 16.3748C25.6943 14.0551 23.6254 12.3096 21.1654 12.3952C20.5846 12.4154 20.0281 12.5391 19.5156 12.7484C20.3075 12.1099 21.3027 11.7134 22.3835 11.6759C24.8436 11.5903 26.9124 13.3357 27.3339 15.6554C27.3559 15.7779 27.4522 15.8718 27.5747 15.8944C29.2892 16.2072 30.5912 17.7041 30.6007 19.5072Z" fill="#D1EDFF"/>
<path d="M19.142 23.2204C20.5783 23.2204 21.788 22.0452 21.7721 20.609C21.7584 19.3722 20.8749 18.3448 19.7047 18.1081C19.5881 18.0845 19.5005 17.9896 19.4771 17.873C19.157 16.2721 17.7111 15.0776 15.9998 15.1506C15.2518 15.1826 14.5643 15.4606 14.0163 15.9051C14.0084 15.9115 14.0005 15.918 13.9926 15.9245C13.2686 16.5226 12.794 17.4135 12.7559 18.4093C12.7496 18.5734 12.755 18.7351 12.7713 18.8934C12.7859 19.0355 12.6966 19.1648 12.5606 19.2081C11.7265 19.4742 11.1237 20.2581 11.1309 21.1821C11.1399 22.3173 12.0917 23.2204 13.2269 23.2204H19.142Z" fill="#A2DBFF"/>
<path d="M21.7719 20.6094C21.7582 19.3722 20.8742 18.3449 19.7042 18.1083C19.5877 18.0845 19.4997 17.99 19.4765 17.8729C19.1567 16.2719 17.7109 15.0775 15.9993 15.1506C15.2419 15.1828 14.5472 15.4671 13.9961 15.9213C13.999 15.9204 14.0023 15.9193 14.0052 15.9185C14.2624 15.8427 14.5323 15.7967 14.8103 15.7849C16.5219 15.7118 17.9677 16.9062 18.2876 18.5071C18.3108 18.6237 18.3987 18.7188 18.5153 18.7426C19.6853 18.9792 20.5693 20.0065 20.5829 21.243C20.5912 21.9908 20.2666 22.6688 19.7511 23.1459C19.7498 23.1471 19.7487 23.1483 19.7474 23.1495C20.9018 22.8754 21.785 21.8376 21.7719 20.6094Z" fill="#64CAFF"/>
<path d="M13.567 4.31195C13.3207 4.31195 13.1211 4.11238 13.1211 3.86606V0.543555C13.1211 0.297285 13.3207 0.0976562 13.567 0.0976562C13.8133 0.0976562 14.0129 0.297227 14.0129 0.543555V3.86606C14.0129 4.11238 13.8133 4.31195 13.567 4.31195Z" fill="#FFC433"/>
<path d="M13.567 29.9023C13.3207 29.9023 13.1211 29.7027 13.1211 29.4564V26.1339C13.1211 25.8876 13.3207 25.688 13.567 25.688C13.8133 25.688 14.0129 25.8876 14.0129 26.1339V29.4564C14.0129 29.7027 13.8133 29.9023 13.567 29.9023Z" fill="#FFC433"/>
<path d="M7.99988 5.80387C7.84577 5.80387 7.69589 5.72395 7.61333 5.58086L6.96218 4.45305C6.83902 4.23982 6.91208 3.96713 7.12536 3.84396C7.33865 3.72092 7.61128 3.79387 7.73445 4.00715L8.3856 5.13496C8.50876 5.34818 8.4357 5.62088 8.22242 5.74404C8.15222 5.78459 8.07552 5.80387 7.99988 5.80387Z" fill="#FFC433"/>
<path d="M19.785 26.216C19.6309 26.216 19.481 26.1361 19.3985 25.993L18.7473 24.8652C18.6242 24.652 18.6972 24.3793 18.9105 24.2561C19.1237 24.133 19.3964 24.206 19.5196 24.4193L20.1708 25.5471C20.2939 25.7603 20.2209 26.033 20.0076 26.1562C19.9373 26.1967 19.8607 26.216 19.785 26.216Z" fill="#FFC433"/>
<path d="M2.43369 15.446H1.13145C0.885176 15.446 0.685547 15.2464 0.685547 15.0001C0.685547 14.7538 0.885176 14.5542 1.13145 14.5542H2.43369C2.67996 14.5542 2.87959 14.7538 2.87959 15.0001C2.87959 15.2464 2.6799 15.446 2.43369 15.446Z" fill="#FFC433"/>
<path d="M7.3479 26.216C7.27226 26.216 7.19562 26.1968 7.12536 26.1562C6.91208 26.033 6.83902 25.7603 6.96218 25.5471L7.61333 24.4193C7.7365 24.206 8.00913 24.133 8.22242 24.2561C8.4357 24.3793 8.50876 24.652 8.3856 24.8652L7.73445 25.993C7.65183 26.1361 7.50195 26.216 7.3479 26.216Z" fill="#FFC433"/>
<path d="M19.1331 5.80389C19.0574 5.80389 18.9808 5.78462 18.9105 5.74407C18.6972 5.6209 18.6242 5.34821 18.7473 5.13499L19.3985 4.00717C19.5217 3.79389 19.7942 3.72089 20.0076 3.84399C20.2209 3.96715 20.2939 4.23985 20.1708 4.45307L19.5196 5.58089C19.437 5.72397 19.2872 5.80389 19.1331 5.80389Z" fill="#FFC433"/>
<path d="M3.92454 9.87886C3.8489 9.87886 3.77226 9.85958 3.70201 9.81904L0.824583 8.15779C0.611302 8.03462 0.538236 7.76193 0.6614 7.5487C0.784564 7.33542 1.05714 7.26236 1.27048 7.38552L4.1479 9.04683C4.36118 9.16999 4.43425 9.44269 4.31109 9.65591C4.22847 9.79894 4.07859 9.87886 3.92454 9.87886Z" fill="#FFC433"/>
<path d="M1.04794 22.6743C0.893841 22.6743 0.743958 22.5944 0.6614 22.4513C0.538236 22.2381 0.611302 21.9654 0.824583 21.8422L3.70201 20.1809C3.91523 20.0578 4.18792 20.1308 4.31109 20.3441C4.43425 20.5573 4.36118 20.83 4.1479 20.9532L1.27048 22.6145C1.20023 22.655 1.12359 22.6743 1.04794 22.6743Z" fill="#FFC433"/>
<path d="M23.2101 9.87889C23.0559 9.87889 22.9061 9.79897 22.8235 9.65589C22.7003 9.44266 22.7734 9.16997 22.9867 9.0468L25.8641 7.38549C26.0773 7.26239 26.35 7.3354 26.4731 7.54868C26.5963 7.7619 26.5232 8.0346 26.31 8.15776L23.4326 9.81907C23.3624 9.85967 23.2857 9.87889 23.2101 9.87889Z" fill="#FFC433"/>
</g>
<defs>
<clipPath id="clip0_2335_2104">
<rect width="30" height="30" fill="white" transform="translate(0.601562)"/>
</clipPath>
</defs>
</svg>
