<svg width="49" height="48" viewBox="0 0 49 48" fill="none" xmlns="http://www.w3.org/2000/svg">
<g clip-path="url(#clip0_2428_2869)">
<path d="M24.5 1.03125L1.53125 10.5619V16.2803H47.4688V10.5619L24.5 1.03125Z" stroke="white" stroke-width="1.5" stroke-miterlimit="10" stroke-linecap="round" stroke-linejoin="round"/>
<path d="M47.4688 41.0586H1.53125V46.9676H47.4688V41.0586Z" stroke="white" stroke-width="1.5" stroke-miterlimit="10" stroke-linecap="round" stroke-linejoin="round"/>
<path d="M15.9219 10.5625H33.077" stroke="#FFA500" stroke-width="1.5" stroke-miterlimit="10" stroke-linecap="round" stroke-linejoin="round"/>
<path d="M11.1559 16.2812H5.4375V35.3425H11.1559V16.2812Z" stroke="white" stroke-width="1.5" stroke-miterlimit="10" stroke-linecap="round" stroke-linejoin="round"/>
<path d="M37.8441 35.3398H43.5625V16.2786H37.8441V35.3398Z" stroke="white" stroke-width="1.5" stroke-miterlimit="10" stroke-linecap="round" stroke-linejoin="round"/>
<path d="M13.0619 35.3398H3.53125V41.0582H13.0619V35.3398Z" stroke="white" stroke-width="1.5" stroke-miterlimit="10" stroke-linecap="round" stroke-linejoin="round"/>
<path d="M45.4681 35.3398H35.9375V41.0582H45.4681V35.3398Z" stroke="white" stroke-width="1.5" stroke-miterlimit="10" stroke-linecap="round" stroke-linejoin="round"/>
<path d="M24.4998 28.6715C22.9207 28.6715 21.6406 27.3914 21.6406 25.8123C21.6406 24.2332 22.9207 22.9531 24.4998 22.9531C26.0789 22.9531 27.359 24.2332 27.359 25.8123" stroke="#FFA500" stroke-width="1.5" stroke-miterlimit="10" stroke-linecap="round" stroke-linejoin="round"/>
<path d="M24.4998 28.6719C26.0789 28.6719 27.359 29.9519 27.359 31.5311C27.359 33.1102 26.0789 34.3903 24.4998 34.3903C22.9207 34.3903 21.6406 33.1102 21.6406 31.5311" stroke="#FFA500" stroke-width="1.5" stroke-miterlimit="10" stroke-linecap="round" stroke-linejoin="round"/>
<path d="M24.5 22.9529V21.0469" stroke="#FFA500" stroke-width="1.5" stroke-miterlimit="10" stroke-linecap="round" stroke-linejoin="round"/>
<path d="M24.5 34.3867V36.2928" stroke="#FFA500" stroke-width="1.5" stroke-miterlimit="10" stroke-linecap="round" stroke-linejoin="round"/>
</g>
<defs>
<clipPath id="clip0_2428_2869">
<rect width="48" height="48" fill="white" transform="translate(0.5)"/>
</clipPath>
</defs>
</svg>
