<svg width="56" height="56" viewBox="0 0 56 56" fill="none" xmlns="http://www.w3.org/2000/svg">
<g clip-path="url(#clip0_2337_2995)">
<path d="M39.54 42.0927C25.3893 42.0927 13.9193 30.6209 13.9193 16.4703C13.9193 10.2001 16.1785 4.46415 19.917 0.0102539C8.36629 3.71825 0.00178909 14.5374 0.00178909 27.3199C0.00178909 43.165 12.8453 56.0085 28.6903 56.0085C41.4728 56.0085 52.292 47.644 56 36.0933C51.5461 39.8335 45.8084 42.0927 39.54 42.0927Z" fill="#FFD93B"/>
<path d="M10.9567 4.80078C7.11962 9.67604 4.81378 15.8136 4.81378 22.5016C4.81378 38.3466 17.6573 51.1901 33.5023 51.1901C40.1903 51.1901 46.3279 48.8843 51.2031 45.0472C45.9531 51.7119 37.8289 56.0062 28.6862 56.0062C12.8412 56.0062 -0.00230408 43.1627 -0.00230408 27.3177C-0.00230408 18.175 4.29201 10.0526 10.9567 4.80078Z" fill="#F4C534"/>
<path d="M41.6412 11.2085L38.6863 17.199L32.0772 18.1583L36.8592 22.8202L35.7314 29.4024L41.6412 26.2951L47.5528 29.4024L46.425 22.8202L51.207 18.1583L44.5979 17.199L41.6412 11.2085Z" fill="#FFD83B"/>
<path d="M24.972 9.28906L23.4407 12.3946L20.0142 12.8913L22.494 15.3083L21.9077 18.7186L24.972 17.1085L28.0362 18.7186L27.4499 15.3083L29.9297 12.8913L26.5032 12.3946L24.972 9.28906Z" fill="#FFD83B"/>
</g>
<defs>
<clipPath id="clip0_2337_2995">
<rect width="56" height="56" fill="white"/>
</clipPath>
</defs>
</svg>
