<svg width="15" height="14" viewBox="0 0 15 14" fill="none" xmlns="http://www.w3.org/2000/svg">
<g clip-path="url(#clip0_2639_3048)">
<path d="M12.2339 7.52605C11.3401 8.19639 10.249 8.66178 9.06147 8.89138C8.94154 9.74082 8.21015 10.3965 7.32812 10.3965C6.4461 10.3965 5.71471 9.74082 5.59478 8.89138C4.40724 8.66178 3.31611 8.19639 2.4223 7.52605C1.07185 6.51321 0.328125 5.15554 0.328125 3.70312V11.1543C0.328125 12.2681 1.23432 13.1743 2.34814 13.1743H12.3081C13.4219 13.1743 14.3281 12.2681 14.3281 11.1543V3.70312C14.3281 5.15554 13.5844 6.51321 12.2339 7.52605Z" fill="white"/>
<path d="M5.57717 8.04831V7.30327C5.57717 7.07675 5.76081 6.89311 5.98732 6.89311H8.66893C8.89544 6.89311 9.07908 7.07675 9.07908 7.30327V8.04831C11.6365 7.4932 13.5078 5.75485 13.5078 3.70166V3.2915H10.2095V2.47644C10.2095 1.56324 9.46652 0.820312 8.55334 0.820312H6.10293C5.18976 0.820312 4.44681 1.56324 4.44681 2.47644V3.2915H1.14844V3.70166C1.14844 5.75485 3.01979 7.4932 5.57717 8.04831ZM5.26709 2.47644C5.26709 2.01556 5.64205 1.64062 6.10291 1.64062H8.55332C9.01417 1.64062 9.38913 2.01556 9.38913 2.47644V3.2915H5.26706V2.47644H5.26709Z" fill="white"/>
<path d="M8.25973 7.71094H6.39844V8.64158C6.39844 9.15474 6.81595 9.57223 7.32908 9.57223C7.84221 9.57223 8.25973 9.15474 8.25973 8.64158V7.71094Z" fill="white"/>
</g>
<defs>
<clipPath id="clip0_2639_3048">
<rect width="14" height="14" fill="white" transform="translate(0.328125)"/>
</clipPath>
</defs>
</svg>
