<svg width="32" height="32" viewBox="0 0 32 32" fill="none" xmlns="http://www.w3.org/2000/svg">
<g clip-path="url(#clip0_2975_24414)">
<path d="M19.2031 7.20312H30.8295C31.4775 7.20312 32.0031 7.72873 32.0031 8.37673V23.6295C32.0031 24.2775 31.4775 24.8031 30.8295 24.8031H19.2031V7.20312Z" fill="#1976D2"/>
<path d="M30.4031 11.1719H19.2031V23.6055H30.4031V11.1719Z" fill="white"/>
<path d="M18.4 32L0 28.4V3.6L18.4 0V32Z" fill="#1976D2"/>
<path d="M8.99844 10C6.45764 10 4.39844 12.6864 4.39844 16C4.39844 19.3136 6.45764 22 8.99844 22C11.5392 22 13.5984 19.3136 13.5984 16C13.5984 12.6864 11.5392 10 8.99844 10ZM8.79844 19.6C7.47284 19.6 6.39844 17.988 6.39844 16C6.39844 14.012 7.47284 12.4 8.79844 12.4C10.124 12.4 11.1984 14.012 11.1984 16C11.1984 17.988 10.124 19.6 8.79844 19.6Z" fill="white"/>
<path d="M21.3944 20.5859H19.2344V22.9059H21.3944V20.5859Z" fill="#1976D2"/>
<path d="M24.1209 20.5859H21.9609V22.9059H24.1209V20.5859Z" fill="#1976D2"/>
<path d="M26.8319 20.5859H24.6719V22.9059H26.8319V20.5859Z" fill="#1976D2"/>
<path d="M21.3944 17.7266H19.2344V20.0466H21.3944V17.7266Z" fill="#1976D2"/>
<path d="M24.1209 17.7266H21.9609V20.0466H24.1209V17.7266Z" fill="#1976D2"/>
<path d="M26.8319 17.7266H24.6719V20.0466H26.8319V17.7266Z" fill="#1976D2"/>
<path d="M29.5584 17.7266H27.3984V20.0466H29.5584V17.7266Z" fill="#1976D2"/>
<path d="M21.3944 14.9609H19.2344V17.2809H21.3944V14.9609Z" fill="#1976D2"/>
<path d="M24.1209 14.9609H21.9609V17.2809H24.1209V14.9609Z" fill="#1976D2"/>
<path d="M26.8319 14.9609H24.6719V17.2809H26.8319V14.9609Z" fill="#1976D2"/>
<path d="M29.5584 14.9609H27.3984V17.2809H29.5584V14.9609Z" fill="#1976D2"/>
<path d="M24.1209 12.0859H21.9609V14.4059H24.1209V12.0859Z" fill="#1976D2"/>
<path d="M26.8319 12.0859H24.6719V14.4059H26.8319V12.0859Z" fill="#1976D2"/>
<path d="M29.5584 12.0859H27.3984V14.4059H29.5584V12.0859Z" fill="#1976D2"/>
</g>
<defs>
<clipPath id="clip0_2975_24414">
<rect width="32" height="32" fill="white"/>
</clipPath>
</defs>
</svg>
