<svg width="31" height="30" viewBox="0 0 31 30" fill="none" xmlns="http://www.w3.org/2000/svg">
<path d="M9.75292 3.53417V4.50805C9.75292 4.7726 9.53886 4.989 9.27431 4.989H9.27197C9.00742 4.989 8.79102 4.7726 8.79102 4.50805V3.53417C8.79102 3.26716 9.00742 3.05322 9.27197 3.05322H9.27431C9.53886 3.05322 9.75292 3.26716 9.75292 3.53417Z" fill="#FFD80C"/>
<path d="M9.75292 16.9639V17.9377C9.75292 18.2023 9.53886 18.4187 9.27431 18.4187H9.27197C9.00742 18.4187 8.79102 18.2023 8.79102 17.9377V16.9639C8.79102 16.6968 9.00742 16.4829 9.27197 16.4829H9.27431C9.53886 16.4829 9.75292 16.6968 9.75292 16.9639Z" fill="#FFD80C"/>
<path d="M2.07079 10.2549H3.04467C3.30922 10.2549 3.52562 10.4689 3.52562 10.7335V10.7358C3.52562 11.0004 3.30922 11.2168 3.04467 11.2168H2.07079C1.80378 11.2168 1.58984 11.0004 1.58984 10.7358V10.7335C1.58984 10.4689 1.80378 10.2549 2.07079 10.2549Z" fill="#FFD80C"/>
<path d="M15.5005 10.2549H16.4744C16.7389 10.2549 16.9553 10.4689 16.9553 10.7335V10.7358C16.9553 11.0004 16.7389 11.2168 16.4744 11.2168H15.5005C15.2335 11.2168 15.0195 11.0004 15.0195 10.7358V10.7335C15.0195 10.4689 15.2335 10.2549 15.5005 10.2549Z" fill="#FFD80C"/>
<path d="M4.52034 5.3034L5.20897 5.99204C5.39604 6.1791 5.3977 6.48348 5.21063 6.67055L5.20897 6.67221C5.02191 6.85927 4.71587 6.85927 4.52881 6.67221L3.84017 5.98357C3.65136 5.79476 3.65311 5.49047 3.84017 5.3034L3.84183 5.30174C4.02889 5.11468 4.33153 5.1146 4.52034 5.3034Z" fill="#FFD80C"/>
<path d="M14.0164 14.8L14.7051 15.4886C14.8921 15.6757 14.8938 15.9801 14.7067 16.1671L14.7051 16.1688C14.518 16.3559 14.212 16.3559 14.0249 16.1688L13.3363 15.4802C13.1475 15.2913 13.1492 14.987 13.3363 14.8L13.3379 14.7983C13.525 14.6113 13.8276 14.6112 14.0164 14.8Z" fill="#FFD80C"/>
<path d="M3.841 15.4885L4.52964 14.7998C4.7167 14.6128 5.02108 14.6111 5.20814 14.7982L5.2098 14.7998C5.39687 14.9869 5.39687 15.2929 5.2098 15.48L4.52117 16.1686C4.33236 16.3574 4.02806 16.3557 3.841 16.1686L3.83934 16.167C3.65228 15.9799 3.65219 15.6773 3.841 15.4885Z" fill="#FFD80C"/>
<path d="M13.3371 5.99188L14.0257 5.30324C14.2128 5.11618 14.5172 5.11452 14.7042 5.30158L14.7059 5.30324C14.893 5.4903 14.893 5.79634 14.7059 5.98341L14.0173 6.67204C13.8285 6.86085 13.5242 6.85911 13.3371 6.67204L13.3354 6.67038C13.1484 6.48332 13.1483 6.18068 13.3371 5.99188Z" fill="#FFD80C"/>
<path d="M9.27356 15.779C12.0588 15.779 14.3166 13.5212 14.3166 10.736C14.3166 7.95074 12.0588 5.69287 9.27356 5.69287C6.48834 5.69287 4.23047 7.95074 4.23047 10.736C4.23047 13.5212 6.48834 15.779 9.27356 15.779Z" fill="#FFD80C"/>
<path d="M14.3169 10.7364C14.3169 13.521 12.0588 15.7791 9.27167 15.7791C7.97071 15.7791 6.78519 15.2861 5.89062 14.4757L12.4965 6.85986C13.6075 7.78325 14.3169 9.17561 14.3169 10.7364Z" fill="#FFBE00"/>
<g opacity="0.28">
<path d="M6.72313 8.28513C7.14017 7.83045 7.33108 7.32686 7.14953 7.16034C6.96798 6.99382 6.48273 7.22742 6.06568 7.6821C5.64863 8.13678 5.45772 8.64036 5.63927 8.80689C5.82082 8.97341 6.30608 8.73981 6.72313 8.28513Z" fill="white"/>
</g>
<path d="M29.7179 21.8543C29.7179 23.2605 29.149 24.5341 28.2277 25.4538C27.3065 26.3767 26.0345 26.9455 24.6283 26.9455H6.57397C3.7632 26.9455 1.48438 24.6667 1.48438 21.8543C1.48438 20.4498 2.05492 19.1761 2.9745 18.2548C3.68098 17.5501 4.59552 17.05 5.61746 16.857C5.61244 16.7714 5.60908 16.6842 5.60908 16.5969C5.60908 14.3264 7.44991 12.4857 9.72034 12.4857C10.1701 12.4857 10.603 12.5578 11.0091 12.6938C12.0847 10.3663 14.4407 8.75195 17.1726 8.75195C20.9214 8.75195 23.9604 11.7909 23.9604 15.5398C23.9604 15.9576 23.9218 16.367 23.8497 16.7647H24.6283C27.439 16.7647 29.7179 19.0436 29.7179 21.8543Z" fill="#E5E8EF"/>
<path d="M29.7206 21.8561C29.7206 23.2588 29.1515 24.5338 28.2294 25.4557C27.3075 26.3779 26.037 26.9467 24.6297 26.9467H22.8651C24.2724 26.9467 25.5429 26.3779 26.4648 25.4557C27.3869 24.5338 27.956 23.2588 27.956 21.8561C27.956 19.0414 25.6753 16.7652 22.8651 16.7652H22.0843C22.1593 16.368 22.1945 15.9579 22.1945 15.5387C22.1945 12.0845 19.6183 9.23921 16.2832 8.8112C16.5743 8.77157 16.8699 8.75391 17.1743 8.75391C20.9241 8.75391 23.9591 11.789 23.9591 15.5387C23.9591 15.9579 23.9239 16.368 23.8489 16.7652H24.6297C27.4399 16.7652 29.7206 19.0414 29.7206 21.8561Z" fill="#CDD4DF"/>
<g opacity="0.28">
<path d="M10.1536 16.435C9.4169 17.1717 8.46831 17.4186 8.03596 16.9908C7.60804 16.5584 7.85512 15.61 8.59185 14.8732C9.32858 14.1365 10.2772 13.8892 10.7095 14.3172C11.1374 14.7496 10.8904 15.6938 10.1536 16.435Z" fill="white"/>
</g>
</svg>
