<svg width="49" height="48" viewBox="0 0 49 48" fill="none" xmlns="http://www.w3.org/2000/svg">
<g clip-path="url(#clip0_2380_2261)">
<path d="M10.863 19.0686C10.3461 18.7132 9.67166 18.5352 8.8396 18.5352H5.6183C5.36323 18.5352 5.2223 18.6627 5.19554 18.9176L3.88692 27.1317C3.87332 27.2124 3.8935 27.2862 3.94729 27.3532C4.00077 27.4205 4.06803 27.4539 4.14858 27.4539H5.67867C5.94704 27.4539 6.09455 27.3267 6.12163 27.0714L6.48397 24.8569C6.4972 24.7496 6.5444 24.6624 6.62495 24.5952C6.70544 24.5281 6.80612 24.4841 6.92692 24.4641C7.04772 24.4441 7.16163 24.4341 7.2692 24.4341C7.37646 24.4341 7.5039 24.4409 7.65178 24.4542C7.79929 24.4676 7.89332 24.4742 7.93363 24.4742C9.08784 24.4742 9.99381 24.1489 10.6516 23.4978C11.3091 22.8469 11.6382 21.9443 11.6382 20.7899C11.6382 19.998 11.3796 19.4242 10.863 19.0683V19.0686ZM9.20206 21.535C9.13474 22.0049 8.96046 22.3134 8.67861 22.4611C8.39671 22.609 7.99406 22.6825 7.47067 22.6825L6.80624 22.7027L7.14858 20.5484C7.17529 20.4009 7.26249 20.327 7.41024 20.327H7.79289C8.3295 20.327 8.71898 20.4044 8.96058 20.5585C9.20206 20.7129 9.28261 21.0386 9.20206 21.535Z" fill="#003087"/>
<path d="M44.8538 18.5352H43.3641C43.2161 18.5352 43.1289 18.609 43.1024 18.7566L41.7936 27.132L41.7734 27.1723C41.7734 27.2397 41.8003 27.3032 41.8541 27.3636C41.9075 27.4238 41.9749 27.4541 42.0554 27.4541H43.3843C43.639 27.4541 43.78 27.3268 43.8072 27.0716L45.1158 18.8372V18.8172C45.1157 18.6293 45.0281 18.5353 44.8538 18.5353V18.5352Z" fill="#009CDE"/>
<path d="M26.8542 21.7779C26.8542 21.711 26.8272 21.6471 26.7738 21.5868C26.72 21.5264 26.6595 21.4961 26.5926 21.4961H25.0424C24.8944 21.4961 24.7737 21.5635 24.6799 21.6974L22.5458 24.8383L21.66 21.8183C21.5926 21.6037 21.4451 21.4961 21.2171 21.4961H19.7069C19.6397 21.4961 19.5792 21.5264 19.5259 21.5868C19.472 21.6471 19.4453 21.711 19.4453 21.7779C19.4453 21.805 19.5762 22.2008 19.8379 22.9658C20.0995 23.731 20.3814 24.5565 20.6835 25.4424C20.9855 26.3282 21.143 26.7981 21.1566 26.8515C20.0559 28.3549 19.5057 29.1603 19.5057 29.2675C19.5057 29.4421 19.5929 29.5293 19.7675 29.5293H21.3177C21.4653 29.5293 21.5861 29.4623 21.6801 29.328L26.8141 21.9187C26.8408 21.8921 26.8542 21.8453 26.8542 21.7779V21.7779Z" fill="#003087"/>
<path d="M41.2914 21.4925H39.7613C39.5732 21.4925 39.4595 21.714 39.4192 22.157C39.0698 21.6204 38.4327 21.3516 37.5064 21.3516C36.54 21.3516 35.7178 21.714 35.0401 22.4388C34.3622 23.1637 34.0234 24.0161 34.0234 24.9958C34.0234 25.7879 34.2549 26.4186 34.7179 26.8882C35.1809 27.3583 35.8017 27.5929 36.5804 27.5929C36.9695 27.5929 37.3655 27.5122 37.7681 27.3513C38.1708 27.1903 38.486 26.9756 38.7145 26.7071C38.7145 26.7205 38.7009 26.7808 38.6743 26.8881C38.6472 26.9957 38.634 27.0764 38.634 27.1297C38.634 27.3447 38.721 27.4518 38.8957 27.4518H40.285C40.5397 27.4518 40.6876 27.3245 40.7277 27.0693L41.5532 21.8146C41.5665 21.734 41.5464 21.6603 41.4929 21.5931C41.4389 21.5262 41.372 21.4925 41.2914 21.4925ZM38.6641 25.4588C38.3218 25.7944 37.9091 25.9621 37.426 25.9621C37.0365 25.9621 36.7214 25.8549 36.4797 25.6401C36.238 25.4257 36.1172 25.1304 36.1172 24.7541C36.1172 24.2579 36.285 23.8382 36.6206 23.4959C36.9557 23.1537 37.3722 22.9825 37.8689 22.9825C38.2444 22.9825 38.5565 23.0933 38.805 23.3146C39.0531 23.5361 39.1776 23.8416 39.1776 24.2308C39.1775 24.714 39.0063 25.1234 38.6641 25.4588Z" fill="#009CDE"/>
<path d="M18.4244 21.4925H16.8943C16.7061 21.4925 16.5923 21.714 16.5519 22.157C16.1895 21.6204 15.5519 21.3516 14.6393 21.3516C13.6729 21.3516 12.8506 21.714 12.1729 22.4388C11.495 23.1637 11.1562 24.0161 11.1562 24.9958C11.1562 25.7879 11.3878 26.4186 11.8509 26.8882C12.314 27.3583 12.9346 27.5929 13.7132 27.5929C14.0888 27.5929 14.4783 27.5122 14.8809 27.3513C15.2835 27.1903 15.6057 26.9756 15.8473 26.7071C15.7934 26.8681 15.7667 27.009 15.7667 27.1297C15.7667 27.3447 15.8539 27.4518 16.0284 27.4518H17.4176C17.6724 27.4518 17.8203 27.3245 17.8606 27.0693L18.686 21.8146C18.6992 21.734 18.6791 21.6603 18.6256 21.5931C18.5719 21.5262 18.5049 21.4925 18.4244 21.4925ZM15.797 25.4688C15.4547 25.7981 15.035 25.9621 14.5387 25.9621C14.1492 25.9621 13.8372 25.8549 13.6025 25.6401C13.3674 25.4257 13.2501 25.1304 13.2501 24.7541C13.2501 24.2579 13.4178 23.8382 13.7535 23.4959C14.0888 23.1537 14.5049 22.9825 15.0017 22.9825C15.3774 22.9825 15.6894 23.0933 15.938 23.3147C16.1861 23.5362 16.3104 23.8417 16.3104 24.2309C16.3104 24.7274 16.1393 25.1403 15.797 25.4688Z" fill="#003087"/>
<path d="M33.7302 19.0686C33.2134 18.7132 32.5391 18.5352 31.7069 18.5352H28.5057C28.2371 18.5352 28.0894 18.6627 28.0628 18.9176L26.7541 27.1317C26.7405 27.2124 26.7606 27.2862 26.8145 27.3533C26.8677 27.4205 26.9352 27.4539 27.0158 27.4539H28.6666C28.8277 27.4539 28.935 27.3668 28.9888 27.1923L29.3512 24.8569C29.3645 24.7496 29.4115 24.6624 29.4921 24.5952C29.5727 24.5281 29.6733 24.4842 29.7942 24.4641C29.9149 24.4441 30.0288 24.4341 30.1365 24.4341C30.2437 24.4341 30.3712 24.4409 30.5189 24.4542C30.6665 24.4676 30.7608 24.4742 30.8007 24.4742C31.9552 24.4742 32.8609 24.1489 33.5187 23.4978C34.1765 22.8469 34.5053 21.9443 34.5053 20.7899C34.5054 19.998 34.2469 19.4243 33.7302 19.0684V19.0686ZM31.6666 22.3806C31.3713 22.5819 30.9283 22.6825 30.3379 22.6825L29.6936 22.7027L30.0358 20.5484C30.0624 20.4009 30.1496 20.327 30.2975 20.327H30.6598C30.955 20.327 31.1899 20.3404 31.3646 20.3672C31.5389 20.3943 31.7069 20.4779 31.868 20.6188C32.0291 20.7598 32.1096 20.9646 32.1096 21.233C32.1096 21.7967 31.9617 22.1792 31.6666 22.3806Z" fill="#009CDE"/>
</g>
<defs>
<clipPath id="clip0_2380_2261">
<rect width="48" height="48" fill="white" transform="translate(0.5)"/>
</clipPath>
</defs>
</svg>
