<svg width="20" height="21" viewBox="0 0 20 21" fill="none" xmlns="http://www.w3.org/2000/svg">
<path fill-rule="evenodd" clip-rule="evenodd" d="M20 10.5C20 16.0228 15.5228 20.5 10 20.5C4.47715 20.5 0 16.0228 0 10.5C0 4.97715 4.47715 0.5 10 0.5C15.5228 0.5 20 4.97715 20 10.5ZM10 5.75C10.4142 5.75 10.75 6.08579 10.75 6.5V9.75H14C14.4142 9.75 14.75 10.0858 14.75 10.5C14.75 10.9142 14.4142 11.25 14 11.25H10.75V14.5C10.75 14.9142 10.4142 15.25 10 15.25C9.58579 15.25 9.25 14.9142 9.25 14.5V11.25H6C5.58579 11.25 5.25 10.9142 5.25 10.5C5.25 10.0858 5.58579 9.75 6 9.75H9.25V6.5C9.25 6.08579 9.58579 5.75 10 5.75Z" fill="white"/>
</svg>
