<svg width="512" height="350" viewBox="0 0 512 350" fill="none" xmlns="http://www.w3.org/2000/svg">
<path d="M5.7539 0H365.84C367.212 0.0015226 368.528 0.54731 369.498 1.51763C370.468 2.48794 371.014 3.80354 371.015 5.17577V271.358C371.014 272.73 370.468 274.046 369.498 275.016C368.528 275.987 367.212 276.533 365.84 276.534H5.7539C4.38166 276.533 3.06607 275.987 2.09575 275.016C1.12543 274.046 0.579648 272.73 0.578125 271.358V5.17577C0.579648 3.80354 1.12543 2.48794 2.09575 1.51763C3.06607 0.54731 4.38166 0.0015226 5.7539 0Z" fill="white" fill-opacity="0.08"/>
<path d="M484.313 233.558C483.744 232.632 483.386 231.592 483.263 230.512C483.14 229.432 483.255 228.338 483.6 227.308C483.946 226.277 484.513 225.335 485.262 224.547C486.011 223.759 486.923 223.145 487.935 222.748L486.884 196.347L498.638 203.444L497.834 227.427C498.388 229.171 498.283 231.058 497.539 232.73C496.795 234.402 495.463 235.743 493.797 236.498C492.13 237.254 490.244 237.372 488.496 236.83C486.748 236.289 485.26 235.124 484.313 233.558Z" fill="#A0616A"/>
<path d="M500.003 216.443L489.553 218.113C489.115 218.183 488.666 218.164 488.235 218.058C487.803 217.952 487.398 217.761 487.041 217.495C486.685 217.23 486.385 216.896 486.16 216.513C485.935 216.13 485.789 215.706 485.731 215.265L481.31 181.971L459.464 152.076C458.655 150.968 458.082 149.707 457.779 148.37C457.476 147.032 457.451 145.647 457.704 144.3C457.957 142.952 458.483 141.67 459.25 140.534C460.018 139.398 461.01 138.43 462.165 137.692C464.409 136.258 467.13 135.774 469.73 136.347C472.33 136.92 474.597 138.502 476.031 140.746L498.342 175.659L502.782 212.762C502.811 212.999 502.814 213.238 502.792 213.476C502.723 214.21 502.412 214.9 501.906 215.438C501.401 215.975 500.732 216.329 500.003 216.443Z" fill="#FFA500"/>
<path d="M463.975 340.02H454.91L450.598 305.055L463.976 305.056L463.975 340.02Z" fill="#A0616A"/>
<path d="M448.437 337.43H465.919V348.438H437.43C437.43 345.518 438.589 342.719 440.654 340.654C442.718 338.59 445.518 337.43 448.437 337.43Z" fill="#FFA500"/>
<path d="M502.219 324.504L495.446 330.529L470.199 305.636L478.98 298.38L502.219 324.504Z" fill="#A0616A"/>
<path d="M488.892 332.899L501.954 321.279L509.27 329.503L487.984 348.439C487.023 347.359 486.285 346.1 485.81 344.734C485.336 343.369 485.135 341.923 485.22 340.48C485.304 339.037 485.672 337.625 486.302 336.324C486.932 335.023 487.812 333.859 488.892 332.899Z" fill="#FFA500"/>
<path d="M372.881 140.085C373.939 139.838 375.039 139.826 376.103 140.051C377.166 140.275 378.168 140.73 379.037 141.383C379.905 142.036 380.62 142.872 381.131 143.832C381.642 144.791 381.936 145.851 381.993 146.936L407.375 154.279L396.928 163.189L374.427 154.851C372.597 154.825 370.84 154.13 369.489 152.896C368.138 151.662 367.286 149.975 367.095 148.154C366.905 146.334 367.388 144.508 368.455 143.02C369.521 141.533 371.096 140.488 372.881 140.085Z" fill="#A0616A"/>
<path d="M452.016 114.746C462.045 114.746 470.176 106.615 470.176 96.5856C470.176 86.556 462.045 78.4253 452.016 78.4253C441.986 78.4253 433.855 86.556 433.855 96.5856C433.855 106.615 441.986 114.746 452.016 114.746Z" fill="#A0616A"/>
<path d="M465.087 333.474L452.47 332.464C451.655 332.4 450.893 332.037 450.328 331.445C449.764 330.854 449.437 330.075 449.41 329.258L445.889 222.908C445.86 222.086 446.137 221.283 446.666 220.654C447.196 220.025 447.94 219.615 448.754 219.503L473.909 215.993C474.427 215.921 474.955 215.971 475.45 216.141C475.945 216.311 476.392 216.596 476.757 216.971C477.121 217.347 477.392 217.803 477.547 218.303C477.701 218.803 477.736 219.332 477.648 219.848L468.023 276.226C467.996 276.381 467.984 276.538 467.986 276.696L468.68 330.113C468.685 330.554 468.604 330.992 468.439 331.4C468.274 331.809 468.03 332.181 467.72 332.495C467.41 332.809 467.041 333.058 466.635 333.228C466.228 333.397 465.791 333.485 465.35 333.485C465.263 333.485 465.175 333.481 465.087 333.474Z" fill="#151B19"/>
<path d="M481.25 320.72L437.907 272.483C437.595 272.136 437.36 271.727 437.216 271.283C437.073 270.84 437.024 270.371 437.073 269.907L442.547 218.589C442.637 217.733 443.055 216.946 443.714 216.393C444.372 215.84 445.219 215.563 446.077 215.622L472.677 217.395C473.186 217.429 473.68 217.579 474.121 217.834C474.562 218.089 474.939 218.442 475.222 218.866C475.505 219.29 475.687 219.773 475.754 220.278C475.821 220.783 475.771 221.297 475.608 221.78L459.67 268.93C459.517 269.379 459.491 269.862 459.595 270.325C459.699 270.789 459.929 271.214 460.26 271.555L497.076 309.711C497.425 310.072 497.688 310.508 497.844 310.986C498 311.463 498.046 311.97 497.979 312.468C497.911 312.966 497.732 313.442 497.454 313.861C497.176 314.28 496.807 314.63 496.374 314.886L485.417 321.36C484.755 321.75 483.979 321.899 483.219 321.782C482.46 321.666 481.764 321.29 481.25 320.72Z" fill="#151B19"/>
<path d="M448.757 125.965C448.757 125.965 459.848 116.353 465.024 121.528C465.024 121.528 489.054 136.686 478.703 178.092C478.703 178.092 487.575 218.02 483.879 219.498C480.182 220.977 442.842 226.523 439.884 222.086C436.927 217.65 435.448 149.625 448.757 125.965Z" fill="#FFA500"/>
<path d="M384.163 160.373L385.879 149.932C385.952 149.493 386.111 149.074 386.348 148.698C386.584 148.322 386.894 147.997 387.259 147.743C387.623 147.489 388.035 147.31 388.469 147.218C388.904 147.125 389.352 147.12 389.789 147.204L422.775 153.526L458.04 142.243C459.346 141.825 460.724 141.679 462.088 141.814C463.453 141.949 464.775 142.363 465.974 143.028C467.173 143.694 468.222 144.598 469.058 145.685C469.894 146.772 470.498 148.019 470.834 149.349C471.486 151.93 471.085 154.665 469.721 156.951C468.356 159.237 466.139 160.888 463.557 161.54L423.384 171.68L386.777 164.173C386.544 164.125 386.316 164.053 386.097 163.957C385.422 163.66 384.866 163.146 384.515 162.497C384.165 161.848 384.041 161.101 384.163 160.373Z" fill="#FFA500"/>
<path d="M459.804 111.317C461.464 107.476 462.868 102.361 459.685 99.6458C457.839 98.0707 455.179 98.0674 452.76 97.8715C445.945 97.3194 438.929 94.1836 435.598 88.2123C432.267 82.2411 434.127 73.362 440.412 70.668C444.648 68.852 449.504 70.0891 453.939 71.3465L467.252 75.1218C471.208 76.2435 475.361 77.4806 478.209 80.4465C482.751 85.1767 482.411 93.1728 478.804 98.649C475.197 104.125 469.764 109.837 463.545 111.916L459.804 111.317Z" fill="#151B19"/>
<path d="M510.878 350H375.966C375.822 350 375.683 349.947 375.581 349.854C375.479 349.76 375.422 349.633 375.422 349.5C375.422 349.367 375.479 349.24 375.581 349.146C375.683 349.053 375.822 349 375.966 349H510.878C511.022 349 511.161 349.053 511.263 349.146C511.365 349.24 511.422 349.367 511.422 349.5C511.422 349.633 511.365 349.76 511.263 349.854C511.161 349.947 511.022 350 510.878 350Z" fill="#3F3D56"/>
<path d="M365.84 0H5.7539C4.38166 0.0015226 3.06607 0.54731 2.09575 1.51763C1.12543 2.48794 0.579648 3.80354 0.578125 5.17577V271.358C0.579648 272.73 1.12543 274.046 2.09575 275.016C3.06607 275.987 4.38166 276.533 5.7539 276.534H365.84C367.212 276.533 368.528 275.987 369.498 275.016C370.468 274.046 371.014 272.73 371.015 271.358V5.17577C371.014 3.80354 370.468 2.48794 369.498 1.51763C368.528 0.54731 367.212 0.0015226 365.84 0ZM369.537 271.358C369.536 272.339 369.147 273.279 368.453 273.972C367.76 274.665 366.82 275.055 365.84 275.055H5.7539C4.77352 275.055 3.8334 274.665 3.14016 273.972C2.44693 273.279 2.05731 272.339 2.05692 271.358V5.17577C2.05731 4.19539 2.44693 3.25527 3.14016 2.56204C3.8334 1.8688 4.77352 1.47918 5.7539 1.47879H365.84C366.82 1.47918 367.76 1.8688 368.453 2.56204C369.147 3.25527 369.536 4.19539 369.537 5.17577V271.358Z" fill="#3F3D56"/>
<path d="M370.275 20.7317H1.31641V22.2105H370.275V20.7317Z" fill="#3F3D56"/>
<path d="M13.8895 15.5275C16.3396 15.5275 18.3259 13.5413 18.3259 11.0912C18.3259 8.64102 16.3396 6.65479 13.8895 6.65479C11.4394 6.65479 9.45312 8.64102 9.45312 11.0912C9.45312 13.5413 11.4394 15.5275 13.8895 15.5275Z" fill="#D51A2C"/>
<path d="M26.6434 15.5275C29.0935 15.5275 31.0798 13.5413 31.0798 11.0912C31.0798 8.64102 29.0935 6.65479 26.6434 6.65479C24.1933 6.65479 22.207 8.64102 22.207 11.0912C22.207 13.5413 24.1933 15.5275 26.6434 15.5275Z" fill="#329332"/>
<path d="M39.3973 15.5275C41.8475 15.5275 43.8337 13.5413 43.8337 11.0912C43.8337 8.64102 41.8475 6.65479 39.3973 6.65479C36.9472 6.65479 34.9609 8.64102 34.9609 11.0912C34.9609 13.5413 36.9472 15.5275 39.3973 15.5275Z" fill="#FFA500"/>
<path d="M208.888 100.083C203.434 94.6425 196.15 91.4281 188.455 91.0656C180.76 90.7031 173.206 93.2186 167.264 98.1219C161.323 103.025 157.42 109.965 156.316 117.589C155.212 125.212 156.986 132.974 161.293 139.361C165.599 145.749 172.13 150.304 179.611 152.139C187.093 153.974 194.99 152.958 201.763 149.288C208.536 145.619 213.7 139.559 216.25 132.29C218.799 125.02 218.55 117.062 215.552 109.966C213.991 106.271 211.728 102.915 208.888 100.083ZM206.143 141.315C203.622 143.849 200.623 145.859 197.32 147.227C194.017 148.596 190.475 149.295 186.9 149.285C179.631 149.285 172.8 146.454 167.657 141.315C165.122 138.793 163.112 135.794 161.744 132.491C160.376 129.188 159.676 125.646 159.686 122.071C159.686 114.802 162.516 107.971 167.657 102.828C172.797 97.6849 179.629 94.856 186.898 94.856C194.167 94.856 200.998 97.6869 206.141 102.827C211.285 107.968 214.112 114.801 214.112 122.07C214.122 125.646 213.422 129.187 212.054 132.491C210.686 135.794 208.676 138.793 206.141 141.315H206.143Z" fill="#C20000"/>
<path d="M199.545 109.42C199.325 109.201 199.065 109.027 198.779 108.908C198.492 108.79 198.185 108.729 197.875 108.729C197.565 108.729 197.258 108.79 196.972 108.908C196.685 109.027 196.425 109.201 196.206 109.42L186.893 118.733L177.584 109.42C177.142 108.978 176.541 108.729 175.915 108.729C175.289 108.729 174.688 108.978 174.246 109.42C173.803 109.863 173.554 110.464 173.554 111.09C173.554 111.716 173.803 112.316 174.246 112.759L183.558 122.068L174.242 131.384C174.02 131.603 173.844 131.863 173.724 132.15C173.603 132.437 173.54 132.745 173.539 133.057C173.538 133.368 173.599 133.677 173.717 133.965C173.836 134.253 174.01 134.514 174.231 134.734C174.451 134.955 174.713 135.129 175 135.248C175.288 135.366 175.597 135.427 175.908 135.426C176.22 135.424 176.528 135.362 176.815 135.241C177.102 135.12 177.362 134.944 177.581 134.722L186.893 125.413L196.206 134.722C196.65 135.16 197.248 135.404 197.872 135.402C198.495 135.4 199.092 135.151 199.533 134.711C199.973 134.27 200.222 133.673 200.224 133.05C200.226 132.427 199.982 131.828 199.545 131.384L190.232 122.071L199.545 112.763C199.764 112.543 199.939 112.283 200.057 111.996C200.176 111.709 200.237 111.402 200.237 111.091C200.237 110.781 200.176 110.474 200.057 110.187C199.939 109.9 199.764 109.64 199.545 109.42Z" fill="#C20000"/>
<path d="M222.373 201.031C222.121 201.031 221.916 200.951 221.756 200.791C221.596 200.631 221.516 200.426 221.516 200.174V177.888C221.516 177.637 221.596 177.431 221.756 177.271C221.916 177.111 222.121 177.031 222.373 177.031H230.978C233.264 177.031 235.173 177.397 236.704 178.128C238.236 178.837 239.401 179.888 240.201 181.283C241.024 182.654 241.458 184.357 241.504 186.391C241.527 187.397 241.538 188.277 241.538 189.031C241.538 189.786 241.527 190.654 241.504 191.637C241.436 193.763 241.013 195.523 240.236 196.917C239.458 198.311 238.316 199.351 236.807 200.037C235.298 200.7 233.413 201.031 231.15 201.031H222.373ZM226.967 196.608H230.978C232.121 196.608 233.058 196.437 233.79 196.094C234.521 195.751 235.058 195.214 235.401 194.483C235.767 193.728 235.961 192.757 235.984 191.568C236.007 190.906 236.018 190.311 236.018 189.786C236.041 189.26 236.041 188.734 236.018 188.208C236.018 187.683 236.007 187.1 235.984 186.46C235.938 184.746 235.493 183.488 234.647 182.688C233.824 181.866 232.544 181.454 230.807 181.454H226.967V196.608Z" fill="#C20000"/>
<path d="M201.771 201.031C201.52 201.031 201.314 200.951 201.154 200.791C200.994 200.631 200.914 200.426 200.914 200.174V177.888C200.914 177.637 200.994 177.431 201.154 177.271C201.314 177.111 201.52 177.031 201.771 177.031H217.303C217.554 177.031 217.76 177.111 217.92 177.271C218.08 177.431 218.16 177.637 218.16 177.888V180.631C218.16 180.86 218.08 181.054 217.92 181.214C217.76 181.374 217.554 181.454 217.303 181.454H206.194V186.837H216.548C216.8 186.837 217.005 186.917 217.165 187.077C217.325 187.237 217.405 187.443 217.405 187.694V190.231C217.405 190.46 217.325 190.654 217.165 190.814C217.005 190.974 216.8 191.054 216.548 191.054H206.194V196.608H217.577C217.828 196.608 218.034 196.688 218.194 196.848C218.354 197.008 218.434 197.214 218.434 197.466V200.174C218.434 200.426 218.354 200.631 218.194 200.791C218.034 200.951 217.828 201.031 217.577 201.031H201.771Z" fill="#C20000"/>
<path d="M182.615 201.031C182.364 201.031 182.158 200.951 181.998 200.791C181.838 200.631 181.758 200.426 181.758 200.174V177.888C181.758 177.637 181.838 177.431 181.998 177.271C182.158 177.111 182.364 177.031 182.615 177.031H186.421C186.672 177.031 186.878 177.111 187.038 177.271C187.198 177.431 187.278 177.637 187.278 177.888V196.437H197.906C198.158 196.437 198.364 196.517 198.524 196.677C198.684 196.837 198.764 197.043 198.764 197.294V200.174C198.764 200.426 198.684 200.631 198.524 200.791C198.364 200.951 198.158 201.031 197.906 201.031H182.615Z" fill="#C20000"/>
<path d="M173.974 201.031C173.723 201.031 173.517 200.951 173.357 200.791C173.197 200.631 173.117 200.426 173.117 200.174V177.888C173.117 177.637 173.197 177.431 173.357 177.271C173.517 177.111 173.723 177.031 173.974 177.031H177.849C178.1 177.031 178.306 177.111 178.466 177.271C178.626 177.431 178.706 177.637 178.706 177.888V200.174C178.706 200.426 178.626 200.631 178.466 200.791C178.306 200.951 178.1 201.031 177.849 201.031H173.974Z" fill="#C20000"/>
<path d="M148.564 201.031C148.358 201.031 148.187 200.963 148.049 200.826C147.912 200.666 147.844 200.494 147.844 200.311C147.844 200.197 147.855 200.094 147.878 200.003L156.038 177.957C156.107 177.706 156.244 177.488 156.449 177.306C156.655 177.123 156.941 177.031 157.307 177.031H161.695C162.061 177.031 162.347 177.123 162.552 177.306C162.758 177.488 162.895 177.706 162.964 177.957L171.124 200.003C171.147 200.094 171.158 200.197 171.158 200.311C171.158 200.494 171.089 200.666 170.952 200.826C170.815 200.963 170.644 201.031 170.438 201.031H166.872C166.529 201.031 166.278 200.951 166.118 200.791C165.958 200.631 165.855 200.483 165.809 200.346L164.335 196.506H154.667L153.192 200.346C153.147 200.483 153.044 200.631 152.884 200.791C152.724 200.951 152.472 201.031 152.129 201.031H148.564ZM155.935 192.083H163.032L159.501 182.208L155.935 192.083Z" fill="#C20000"/>
<path d="M133.31 201.031C133.059 201.031 132.853 200.951 132.693 200.791C132.533 200.631 132.453 200.426 132.453 200.174V177.888C132.453 177.637 132.533 177.431 132.693 177.271C132.853 177.111 133.059 177.031 133.31 177.031H148.602C148.853 177.031 149.059 177.111 149.219 177.271C149.379 177.431 149.459 177.637 149.459 177.888V180.803C149.459 181.054 149.379 181.26 149.219 181.42C149.059 181.58 148.853 181.66 148.602 181.66H137.802V187.454H147.916C148.167 187.454 148.373 187.534 148.533 187.694C148.693 187.854 148.773 188.06 148.773 188.311V191.226C148.773 191.454 148.693 191.648 148.533 191.808C148.373 191.968 148.167 192.048 147.916 192.048H137.802V200.174C137.802 200.426 137.722 200.631 137.562 200.791C137.402 200.951 137.196 201.031 136.945 201.031H133.31Z" fill="#C20000"/>
</svg>
