<svg width="512" height="350" viewBox="0 0 512 350" fill="none" xmlns="http://www.w3.org/2000/svg">
<path d="M5.7539 0H365.84C367.212 0.0015226 368.528 0.54731 369.498 1.51763C370.468 2.48794 371.014 3.80354 371.015 5.17577V271.358C371.014 272.73 370.468 274.046 369.498 275.016C368.528 275.987 367.212 276.533 365.84 276.534H5.7539C4.38166 276.533 3.06607 275.987 2.09575 275.016C1.12543 274.046 0.579648 272.73 0.578125 271.358V5.17577C0.579648 3.80354 1.12543 2.48794 2.09575 1.51763C3.06607 0.54731 4.38166 0.0015226 5.7539 0Z" fill="white" fill-opacity="0.08"/>
<path d="M484.313 233.558C483.744 232.632 483.386 231.592 483.263 230.512C483.14 229.432 483.255 228.338 483.6 227.308C483.946 226.277 484.513 225.335 485.262 224.547C486.011 223.759 486.923 223.145 487.935 222.748L486.884 196.347L498.638 203.444L497.834 227.427C498.388 229.171 498.283 231.058 497.539 232.73C496.795 234.402 495.463 235.743 493.797 236.498C492.13 237.254 490.244 237.372 488.496 236.83C486.748 236.289 485.26 235.124 484.313 233.558Z" fill="#A0616A"/>
<path d="M500.003 216.443L489.553 218.113C489.115 218.183 488.666 218.164 488.235 218.058C487.803 217.952 487.398 217.761 487.041 217.495C486.685 217.23 486.385 216.896 486.16 216.513C485.935 216.13 485.789 215.706 485.731 215.265L481.31 181.971L459.464 152.076C458.655 150.968 458.082 149.707 457.779 148.37C457.476 147.032 457.451 145.647 457.704 144.3C457.957 142.952 458.483 141.67 459.25 140.534C460.018 139.398 461.01 138.43 462.165 137.692C464.409 136.258 467.13 135.774 469.73 136.347C472.33 136.92 474.597 138.502 476.031 140.746L498.342 175.659L502.782 212.762C502.811 212.999 502.814 213.238 502.792 213.476C502.723 214.21 502.412 214.9 501.906 215.438C501.401 215.975 500.732 216.329 500.003 216.443Z" fill="#FFA500"/>
<path d="M463.975 340.02H454.91L450.598 305.055L463.976 305.056L463.975 340.02Z" fill="#A0616A"/>
<path d="M448.437 337.43H465.919V348.438H437.43C437.43 345.518 438.589 342.719 440.654 340.654C442.718 338.59 445.518 337.43 448.437 337.43Z" fill="#FFA500"/>
<path d="M502.219 324.504L495.446 330.529L470.199 305.636L478.98 298.38L502.219 324.504Z" fill="#A0616A"/>
<path d="M488.892 332.899L501.954 321.279L509.27 329.503L487.984 348.439C487.023 347.359 486.285 346.1 485.81 344.734C485.336 343.369 485.135 341.923 485.22 340.48C485.304 339.037 485.672 337.625 486.302 336.324C486.932 335.023 487.812 333.859 488.892 332.899Z" fill="#FFA500"/>
<path d="M372.881 140.085C373.939 139.838 375.039 139.826 376.103 140.051C377.166 140.275 378.168 140.73 379.037 141.383C379.905 142.036 380.62 142.872 381.131 143.832C381.642 144.791 381.936 145.851 381.993 146.936L407.375 154.279L396.928 163.189L374.427 154.851C372.597 154.825 370.84 154.13 369.489 152.896C368.138 151.662 367.286 149.975 367.095 148.154C366.905 146.334 367.388 144.508 368.455 143.02C369.521 141.533 371.096 140.488 372.881 140.085Z" fill="#A0616A"/>
<path d="M452.016 114.746C462.045 114.746 470.176 106.615 470.176 96.5856C470.176 86.556 462.045 78.4253 452.016 78.4253C441.986 78.4253 433.855 86.556 433.855 96.5856C433.855 106.615 441.986 114.746 452.016 114.746Z" fill="#A0616A"/>
<path d="M465.087 333.474L452.47 332.464C451.655 332.4 450.893 332.037 450.328 331.445C449.764 330.854 449.437 330.075 449.41 329.258L445.889 222.908C445.86 222.086 446.137 221.283 446.666 220.654C447.196 220.025 447.94 219.615 448.754 219.503L473.909 215.993C474.427 215.921 474.955 215.971 475.45 216.141C475.945 216.311 476.392 216.596 476.757 216.971C477.121 217.347 477.392 217.803 477.547 218.303C477.701 218.803 477.736 219.332 477.648 219.848L468.023 276.226C467.996 276.381 467.984 276.538 467.986 276.696L468.68 330.113C468.685 330.554 468.604 330.992 468.439 331.4C468.274 331.809 468.03 332.181 467.72 332.495C467.41 332.809 467.041 333.058 466.635 333.228C466.228 333.397 465.791 333.485 465.35 333.485C465.263 333.485 465.175 333.481 465.087 333.474Z" fill="#151B19"/>
<path d="M481.25 320.72L437.907 272.483C437.595 272.136 437.36 271.727 437.216 271.283C437.073 270.84 437.024 270.371 437.073 269.907L442.547 218.589C442.637 217.733 443.055 216.946 443.714 216.393C444.372 215.84 445.219 215.563 446.077 215.622L472.677 217.395C473.186 217.429 473.68 217.579 474.121 217.834C474.562 218.089 474.939 218.442 475.222 218.866C475.505 219.29 475.687 219.773 475.754 220.278C475.821 220.783 475.771 221.297 475.608 221.78L459.67 268.93C459.517 269.379 459.491 269.862 459.595 270.325C459.699 270.789 459.929 271.214 460.26 271.555L497.076 309.711C497.425 310.072 497.688 310.508 497.844 310.986C498 311.463 498.046 311.97 497.979 312.468C497.911 312.966 497.732 313.442 497.454 313.861C497.176 314.28 496.807 314.63 496.374 314.886L485.417 321.36C484.755 321.75 483.979 321.899 483.219 321.782C482.46 321.666 481.764 321.29 481.25 320.72Z" fill="#151B19"/>
<path d="M448.757 125.965C448.757 125.965 459.848 116.353 465.024 121.528C465.024 121.528 489.054 136.686 478.703 178.092C478.703 178.092 487.575 218.02 483.879 219.498C480.182 220.977 442.842 226.523 439.884 222.086C436.927 217.65 435.448 149.625 448.757 125.965Z" fill="#FFA500"/>
<path d="M384.163 160.373L385.879 149.932C385.952 149.493 386.111 149.074 386.348 148.698C386.584 148.322 386.894 147.997 387.259 147.743C387.623 147.489 388.035 147.31 388.469 147.218C388.904 147.125 389.352 147.12 389.789 147.204L422.775 153.526L458.04 142.243C459.346 141.825 460.724 141.679 462.088 141.814C463.453 141.949 464.775 142.363 465.974 143.028C467.173 143.694 468.222 144.598 469.058 145.685C469.894 146.772 470.498 148.019 470.834 149.349C471.486 151.93 471.085 154.665 469.721 156.951C468.356 159.237 466.139 160.888 463.557 161.54L423.384 171.68L386.777 164.173C386.544 164.125 386.316 164.053 386.097 163.957C385.422 163.66 384.866 163.146 384.515 162.497C384.165 161.848 384.041 161.101 384.163 160.373Z" fill="#FFA500"/>
<path d="M459.804 111.317C461.464 107.476 462.868 102.361 459.685 99.6458C457.839 98.0707 455.179 98.0674 452.76 97.8715C445.945 97.3194 438.929 94.1836 435.598 88.2123C432.267 82.2411 434.127 73.362 440.412 70.668C444.648 68.852 449.504 70.0891 453.939 71.3465L467.252 75.1218C471.208 76.2435 475.361 77.4806 478.209 80.4465C482.751 85.1767 482.411 93.1728 478.804 98.649C475.197 104.125 469.764 109.837 463.545 111.916L459.804 111.317Z" fill="#151B19"/>
<path d="M510.878 350H375.966C375.822 350 375.683 349.947 375.581 349.854C375.479 349.76 375.422 349.633 375.422 349.5C375.422 349.367 375.479 349.24 375.581 349.146C375.683 349.053 375.822 349 375.966 349H510.878C511.022 349 511.161 349.053 511.263 349.146C511.365 349.24 511.422 349.367 511.422 349.5C511.422 349.633 511.365 349.76 511.263 349.854C511.161 349.947 511.022 350 510.878 350Z" fill="#3F3D56"/>
<path d="M365.84 0H5.7539C4.38166 0.0015226 3.06607 0.54731 2.09575 1.51763C1.12543 2.48794 0.579648 3.80354 0.578125 5.17577V271.358C0.579648 272.73 1.12543 274.046 2.09575 275.016C3.06607 275.987 4.38166 276.533 5.7539 276.534H365.84C367.212 276.533 368.528 275.987 369.498 275.016C370.468 274.046 371.014 272.73 371.015 271.358V5.17577C371.014 3.80354 370.468 2.48794 369.498 1.51763C368.528 0.54731 367.212 0.0015226 365.84 0ZM369.537 271.358C369.536 272.339 369.147 273.279 368.453 273.972C367.76 274.665 366.82 275.055 365.84 275.055H5.7539C4.77352 275.055 3.8334 274.665 3.14016 273.972C2.44693 273.279 2.05731 272.339 2.05692 271.358V5.17577C2.05731 4.19539 2.44693 3.25527 3.14016 2.56204C3.8334 1.8688 4.77352 1.47918 5.7539 1.47879H365.84C366.82 1.47918 367.76 1.8688 368.453 2.56204C369.147 3.25527 369.536 4.19539 369.537 5.17577V271.358Z" fill="#3F3D56"/>
<path d="M370.275 20.7317H1.31641V22.2105H370.275V20.7317Z" fill="#3F3D56"/>
<path d="M13.8895 15.5275C16.3396 15.5275 18.3259 13.5413 18.3259 11.0912C18.3259 8.64102 16.3396 6.65479 13.8895 6.65479C11.4394 6.65479 9.45312 8.64102 9.45312 11.0912C9.45312 13.5413 11.4394 15.5275 13.8895 15.5275Z" fill="#D51A2C"/>
<path d="M26.6434 15.5275C29.0935 15.5275 31.0798 13.5413 31.0798 11.0912C31.0798 8.64102 29.0935 6.65479 26.6434 6.65479C24.1933 6.65479 22.207 8.64102 22.207 11.0912C22.207 13.5413 24.1933 15.5275 26.6434 15.5275Z" fill="#329332"/>
<path d="M39.3973 15.5275C41.8475 15.5275 43.8337 13.5413 43.8337 11.0912C43.8337 8.64102 41.8475 6.65479 39.3973 6.65479C36.9472 6.65479 34.9609 8.64102 34.9609 11.0912C34.9609 13.5413 36.9472 15.5275 39.3973 15.5275Z" fill="#FFA500"/>
<path d="M103.683 131.749L103.552 132.511C103.56 132.654 103.634 132.782 103.773 132.893C103.911 133.004 104.076 133.053 104.267 133.041C104.458 133.029 104.606 132.925 104.714 132.726C107.971 127.781 110.655 123.442 112.768 119.706C114.88 115.97 116.425 113.222 117.404 111.461C118.382 109.7 119.162 108.299 119.744 107.256C121.297 104.526 122.854 102.069 124.417 99.8888C118.08 101.915 113.088 103.04 109.44 103.269C105.791 103.498 103.154 103.43 101.527 103.065C99.9004 102.7 98.8181 102.242 98.2806 101.689C97.7431 101.136 97.4555 100.556 97.4176 99.9476C97.3797 99.3392 97.366 98.7478 97.3781 98.1724C97.3982 96.9741 98.059 95.9515 99.358 95.1038C100.657 94.256 101.748 93.8048 102.631 93.7492C103.512 93.6936 103.962 93.7975 103.979 94.0594C103.995 94.3221 103.821 94.6863 103.455 95.1513C103.089 95.6179 102.912 95.9338 102.922 96.1006C102.97 96.8637 105.748 97.0724 111.256 96.7267C116.764 96.3818 123.05 95.2569 130.113 93.3543C134.005 89.7587 137.441 87.8674 140.423 87.6804C142.402 87.5563 143.748 88.035 144.463 89.1148C144.934 89.7562 145.191 90.4098 145.232 91.0778C145.274 91.7459 144.928 92.4381 144.195 93.1536C143.461 93.87 142.454 94.5075 141.173 95.0667C138.842 96.0748 136.07 96.9306 132.859 97.6349C131.609 99.4609 129.852 102.289 127.591 106.116C125.329 109.945 123.785 112.532 122.961 113.876C122.135 115.221 120.818 117.601 119.01 121.018C117.201 124.435 115.633 127.389 114.305 129.877C112.976 132.366 111.551 134.832 110.028 137.273C106.919 142.304 104.03 144.904 101.36 145.07C100.238 145.14 99.2541 144.903 98.4063 144.358C97.5578 143.812 97.092 142.866 97.0074 141.519C96.9228 140.173 97.5626 138.444 98.9269 136.335C100.29 134.226 101.3 132.864 101.956 132.249C102.611 131.633 103.058 131.318 103.297 131.304C103.535 131.292 103.664 131.44 103.683 131.749Z" fill="#FFA500"/>
<path d="M159.887 129.052C160.122 130.138 160.26 130.998 160.299 131.629C160.339 132.262 160.26 132.817 160.063 133.296C159.865 133.775 159.406 134.463 158.684 135.358C157.962 136.252 157.091 137.163 156.072 138.089C153.579 140.328 150.961 141.533 148.219 141.705C144.284 141.952 142.208 140.334 141.99 136.852C141.8 133.825 144.056 127.626 148.761 118.257C148.93 117.911 149.047 117.665 149.11 117.517C147.354 118.92 144.063 122.652 139.236 128.712C134.409 134.773 131.212 139.048 129.645 141.541C129.515 141.765 129.172 142.025 128.616 142.323C128.06 142.621 127.622 142.781 127.3 142.801C126.977 142.821 126.626 142.741 126.243 142.563C125.861 142.383 125.622 142.296 125.527 142.301C125.217 142.321 125.055 142.229 125.043 142.027C125.03 141.824 125.385 140.701 126.107 138.657C126.828 136.612 127.788 134.068 128.986 131.025C132.267 122.632 137.24 111.667 143.909 98.1296C146.245 93.3873 148.092 90.0156 149.451 88.0147C150.415 86.59 152.137 85.7995 154.617 85.644C155.142 85.6109 155.45 85.7479 155.541 86.0525C155.632 86.358 155.688 86.6899 155.711 87.0469C155.734 87.4047 155.684 87.7666 155.564 88.1332L152.111 94.3462C145.269 106.65 140.172 116.808 136.821 124.822C140.257 120.059 143.65 116.339 147.002 113.663C149.074 111.977 150.653 111.1 151.738 111.032C152.823 110.964 153.817 111.075 154.721 111.365C155.625 111.656 156.119 112.457 156.201 113.768C156.231 114.246 155.566 116.059 154.208 119.209C150.132 128.657 148.126 133.889 148.19 134.901C148.254 135.915 148.703 136.395 149.537 136.343C150.753 136.267 152.551 134.97 154.931 132.45C156.726 130.542 157.859 129.322 158.328 128.79C158.601 128.557 158.856 128.433 159.095 128.419C159.546 128.391 159.81 128.602 159.887 129.052Z" fill="#FFA500"/>
<path d="M183.455 110.875C185.267 110.761 186.212 111.325 186.29 112.565C186.332 113.232 186.207 113.732 185.917 114.06C185.626 114.39 185.029 115.463 184.125 117.279C183.221 119.095 182.241 121.407 181.185 124.215C180.128 127.022 179.481 129.403 179.244 131.357C179.188 131.599 179.173 131.936 179.2 132.365C179.282 133.678 179.681 134.31 180.397 134.265C181.112 134.22 181.937 133.828 182.872 133.086C183.807 132.346 184.632 131.564 185.347 130.741C186.061 129.919 186.756 129.079 187.433 128.222C188.109 127.366 188.516 126.874 188.652 126.745C188.787 126.618 188.998 126.544 189.284 126.526C189.737 126.498 190.033 126.827 190.172 127.511C190.31 128.197 190.403 128.91 190.45 129.649C190.496 130.388 190.457 130.905 190.331 131.2C189.724 132.603 188.307 134.331 186.078 136.385C183.848 138.441 181.774 139.528 179.854 139.648C177.935 139.768 176.485 139.273 175.506 138.162C174.526 137.051 173.993 135.785 173.903 134.367C173.815 132.948 173.974 131.687 174.384 130.583C172.566 133.283 170.432 135.607 167.98 137.556C165.529 139.506 163.493 140.531 161.871 140.632C160.249 140.734 158.895 140.328 157.809 139.414C156.422 138.281 155.66 136.635 155.525 134.476C155.389 132.318 155.736 130.118 156.565 127.876C157.394 125.633 158.538 123.563 159.999 121.663C161.46 119.763 163.087 118.016 164.877 116.42C168.641 113.073 172.192 111.293 175.531 111.084C176.819 111.003 177.881 111.151 178.719 111.53C179.556 111.908 180.103 112.413 180.358 113.044C180.876 112.15 181.326 111.577 181.705 111.325C182.085 111.075 182.668 110.925 183.455 110.875ZM178.946 115.144C174.869 115.399 170.79 117.929 166.71 122.733C165.262 124.453 163.958 126.486 162.801 128.831C161.643 131.179 161.091 132.769 161.144 133.604C161.196 134.438 161.46 134.841 161.937 134.81C162.605 134.768 164.382 133.334 167.27 130.508C170.156 127.682 172.062 125.617 172.985 124.314C173.996 122.863 175.983 119.806 178.946 115.144Z" fill="#FFA500"/>
<path d="M206.029 131.221C206.095 132.27 206.842 132.75 208.274 132.66C209.037 132.612 209.972 132.17 211.081 131.335C212.189 130.499 213.18 129.6 214.054 128.634C216.38 126.023 217.709 124.707 218.044 124.686C218.663 124.647 219.03 125.521 219.142 127.31C219.254 129.099 218.77 130.362 217.692 131.099C214.475 134.389 211.958 136.427 210.139 137.211C209.112 137.634 207.967 137.874 206.701 137.93C205.435 137.984 204.149 137.516 202.842 136.519C201.534 135.524 200.833 134.258 200.737 132.72C200.64 131.182 200.936 129.41 201.624 127.403C202.312 125.397 203.036 123.67 203.795 122.222C204.554 120.773 205.496 119.087 206.62 117.16C207.744 115.235 208.328 114.043 208.371 113.585L208.295 113.519C207.512 113.639 205.659 115.312 202.738 118.535C199.816 121.76 197.412 124.555 195.525 126.924C193.639 129.293 191.406 132.437 188.827 136.358C188.104 137.432 187.493 137.985 186.992 138.017C186.492 138.048 185.808 137.929 184.941 137.661C184.074 137.392 183.541 137.192 183.341 137.061C183.141 136.93 183.032 136.722 183.015 136.435C182.997 136.149 183.058 135.792 183.198 135.365C183.339 134.938 183.479 134.581 183.616 134.297C183.754 134.013 183.983 133.574 184.305 132.979C184.626 132.385 185.26 131.13 186.206 129.215C187.151 127.301 188.605 124.438 190.569 120.628C192.532 116.818 193.705 114.519 194.086 113.728C194.894 112.097 195.561 110.906 196.089 110.155C197.077 108.729 198.845 107.935 201.397 107.775C201.97 107.739 202.279 108.079 202.323 108.795C202.393 109.916 201.488 112.091 199.608 115.321L198.247 117.669C202.085 112.832 205.384 109.716 208.146 108.323C209.492 107.64 210.719 107.264 211.828 107.194C212.937 107.124 213.837 107.368 214.531 107.922C215.223 108.477 215.594 109.119 215.639 109.846C215.685 110.573 215.488 111.46 215.051 112.504C214.614 113.549 214.163 114.487 213.702 115.317C213.238 116.149 212.628 117.198 211.87 118.467C211.111 119.736 210.7 120.425 210.636 120.537C210.571 120.649 210.404 120.948 210.135 121.431C209.866 121.915 209.667 122.268 209.538 122.492C209.408 122.716 209.193 123.106 208.892 123.664C208.592 124.222 208.352 124.686 208.172 125.056C207.992 125.426 207.768 125.883 207.503 126.426C207.238 126.97 207.028 127.438 206.873 127.83C206.718 128.223 206.56 128.652 206.397 129.116C206.117 129.971 205.995 130.672 206.029 131.221Z" fill="#FFA500"/>
<path d="M216.939 136.93L214.619 136.572C213.923 136.544 213.323 136.139 212.818 135.356C212.686 135.149 212.6 135.023 212.562 134.977C212.523 134.932 212.502 134.873 212.497 134.801C212.492 134.73 212.511 134.627 212.549 134.494C212.59 134.359 212.65 134.176 212.731 133.943C212.813 133.711 212.88 133.473 212.938 133.23C213.332 131.506 217.018 123.279 223.995 108.549C230.971 93.8198 234.63 86.2232 234.972 85.7583C235.314 85.2941 235.568 84.9548 235.734 84.7413C235.9 84.5277 236.092 84.3416 236.309 84.1845C236.527 84.0273 236.688 83.9218 236.792 83.867C236.897 83.8122 237.106 83.7211 237.421 83.5938C237.736 83.4665 238.064 83.3327 238.401 83.1917C238.739 83.0506 239.093 82.8669 239.462 82.6405C239.83 82.414 240.084 82.2545 240.222 82.1618C240.359 82.0699 240.542 82.016 240.768 82.0015C240.994 81.9869 241.216 82.0812 241.432 82.2835C241.648 82.4858 241.766 82.7533 241.787 83.0869L241.803 83.3375C241.712 83.7985 238.961 89.644 233.549 100.877C228.136 112.108 225.189 118.254 224.704 119.314C226.518 118.459 229.145 116.462 232.588 113.326C236.03 110.19 237.739 108.144 237.715 107.187C237.69 106.231 237.975 105.519 238.568 105.051C239.161 104.583 239.821 104.326 240.549 104.28C241.276 104.234 241.911 104.441 242.455 104.897C242.998 105.354 243.292 106.137 243.338 107.247C243.383 108.358 242.852 109.804 241.743 111.585C240.633 113.367 239.278 115.038 237.677 116.598C234.222 119.928 231.311 122.169 228.942 123.323C231.2 128.424 233.582 130.896 236.085 130.739C237.433 130.464 239.032 129.25 240.884 127.099C241.577 126.314 242.245 125.523 242.89 124.728C243.534 123.934 243.928 123.461 244.076 123.308C244.222 123.155 244.438 123.069 244.724 123.051C245.177 123.023 245.472 123.352 245.612 124.038C245.75 124.724 245.843 125.437 245.889 126.175C245.936 126.915 245.896 127.431 245.771 127.726C245.163 129.106 243.75 130.827 241.534 132.893C239.317 134.959 237.16 136.058 235.061 136.19C233.559 136.284 232.349 136.073 231.431 135.556C230.513 135.04 229.791 134.606 229.266 134.256C228.741 133.906 228.196 133.42 227.63 132.796C227.065 132.174 226.595 131.659 226.223 131.251C225.85 130.843 225.418 130.272 224.93 129.536C224.44 128.801 224.091 128.278 223.88 127.969C223.669 127.658 223.355 127.152 222.94 126.447C222.525 125.744 222.291 125.357 222.239 125.288C221.865 126.197 221.448 127.181 220.989 128.239C220.528 129.298 220.111 130.282 219.737 131.19C219.363 132.1 219.02 132.93 218.708 133.68C218.396 134.43 218.142 135.05 217.945 135.54C217.748 136.032 217.639 136.29 217.616 136.316C217.476 136.704 217.249 136.91 216.939 136.93Z" fill="#FFA500"/>
<path d="M164.477 191.674C164.365 191.801 164.039 192.426 163.499 193.549C162.959 194.672 162.378 195.81 161.756 196.962C161.133 198.114 160.348 199.223 159.397 200.288C158.446 201.353 157.633 201.948 156.959 202.075C156.285 202.201 155.852 202.27 155.661 202.282C153.467 202.42 152.3 201.38 152.162 199.163C151.999 196.563 153.155 193.438 155.632 189.788C156.575 188.412 157.774 186.918 159.229 185.307C160.684 183.695 161.477 182.783 161.607 182.572C161.738 182.36 163.316 178.905 166.343 172.203C164.211 174.85 162.215 177.017 160.359 178.701C158.501 180.385 156.672 181.38 154.872 181.684L154.622 181.7C153.692 181.758 152.755 181.512 151.811 180.961C150.866 180.41 150.346 179.371 150.251 177.845C150.109 175.58 150.579 173.348 151.663 171.149C152.046 170.383 152.712 169.085 153.663 167.253C154.613 165.422 155.49 163.655 156.293 161.953C157.069 160.588 157.856 159.007 158.653 157.209C159.45 155.412 160.063 154.122 160.493 153.341C160.923 152.56 161.352 152.157 161.782 152.129C162.211 152.102 162.783 152.336 163.496 152.83C164.209 153.324 164.589 153.941 164.635 154.679C164.682 155.418 163.32 158.723 160.553 164.595C157.785 170.466 156.426 173.794 156.475 174.581C156.487 174.772 156.588 174.862 156.778 174.85C157.422 174.81 158.79 173.808 160.882 171.846C162.973 169.883 165.264 167.388 167.756 164.359C170.537 161.001 172.692 157.956 174.221 155.227C174.414 154.88 174.571 154.612 174.691 154.425C174.811 154.238 174.963 153.989 175.148 153.678C175.331 153.367 175.484 153.124 175.604 152.949C175.724 152.774 175.868 152.568 176.032 152.329C176.197 152.091 176.347 151.909 176.483 151.78C176.618 151.652 176.766 151.523 176.925 151.394C177.173 151.139 177.457 151.001 177.779 150.981C178.102 150.961 178.594 151.001 179.26 151.103C179.924 151.205 180.327 151.336 180.469 151.494C180.61 151.653 180.758 151.799 180.909 151.933C181.164 152.181 181.299 152.418 181.313 152.644C181.327 152.871 181.25 153.174 181.082 153.556C180.915 153.938 179.924 155.897 178.111 159.435C172.781 169.871 169.139 177.474 167.188 182.239C170.621 178.96 175.441 174.121 181.647 167.723C181.896 167.492 182.152 167.368 182.415 167.352C183.153 167.305 183.594 168.414 183.736 170.68C183.778 171.348 183.686 171.797 183.461 172.026C176.675 177.958 170.347 184.507 164.477 191.674Z" fill="#FFA500"/>
<path d="M204.05 149.908C204.766 149.863 205.519 150.139 206.31 150.736C207.102 151.332 207.539 152.292 207.622 153.616C207.705 154.939 207.348 156.686 206.55 158.855C205.752 161.023 204.611 163.249 203.127 165.533C201.641 167.816 199.988 169.979 198.165 172.02C196.342 174.062 194.342 175.768 192.166 177.137C189.989 178.505 187.983 179.248 186.147 179.363C184.31 179.478 182.802 178.992 181.621 177.905C180.439 176.818 179.784 175.244 179.654 173.181C179.525 171.119 179.888 168.803 180.745 166.236C181.602 163.669 182.769 161.375 184.246 159.355C185.723 157.336 187.344 155.504 189.108 153.862C192.799 150.494 196.111 148.718 199.044 148.534C200.355 148.452 201.366 148.712 202.074 149.314C202.325 149.513 202.457 149.697 202.467 149.863L202.481 150.077C202.812 150.009 203.335 149.953 204.05 149.908ZM200.737 154.892L200.486 154.907C199.651 154.959 199.196 154.377 199.119 153.161C197.414 153.842 195.653 154.958 193.835 156.509C192.017 158.058 190.419 159.86 189.039 161.908C186.231 166.01 184.889 169.41 185.01 172.108C185.094 173.444 185.624 174.08 186.602 174.019C187.58 173.958 188.994 173.223 190.845 171.814C192.696 170.405 194.495 168.449 196.241 165.945C197.987 163.442 199.276 161.284 200.108 159.472C200.94 157.661 201.336 156.439 201.297 155.807C201.257 155.176 201.07 154.871 200.737 154.892Z" fill="#FFA500"/>
<path d="M237.89 163.872C238.343 163.844 238.638 164.174 238.777 164.859C238.916 165.545 239.009 166.258 239.055 166.996C239.101 167.735 239.062 168.252 238.937 168.547C238.328 169.926 236.916 171.648 234.7 173.714C232.483 175.78 230.325 176.879 228.227 177.011C226.939 177.091 225.723 176.779 224.577 176.073C223.432 175.367 222.798 174.048 222.677 172.116C222.556 170.185 222.95 168.257 223.859 166.332C218.41 174.119 214.004 178.117 210.642 178.328C209.306 178.412 208.197 178.003 207.315 177.101C206.433 176.199 205.959 175.241 205.897 174.227C205.833 173.214 205.91 172.156 206.129 171.053C206.346 169.95 206.59 168.959 206.858 168.081C207.125 167.201 207.536 166.111 208.088 164.807C208.64 163.504 209.055 162.557 209.329 161.965C209.603 161.374 210.043 160.478 210.65 159.278C211.258 158.079 212.054 156.468 213.04 154.443C214.027 152.418 214.853 150.912 215.522 149.924C216.19 148.937 216.87 148.416 217.561 148.36C218.252 148.305 218.877 148.547 219.438 149.086C219.999 149.625 220.29 150.074 220.312 150.432C220.335 150.79 219.637 152.449 218.219 155.411C214.032 164.244 211.984 169.363 212.072 170.77C212.094 171.128 212.236 171.298 212.499 171.282C213.643 171.21 216.337 168.552 220.58 163.307C224.824 158.062 227.26 154.718 227.888 153.278C228.516 151.839 229.14 150.621 229.76 149.625C230.38 148.629 230.849 148.012 231.17 147.777C232.153 147.045 233.455 146.604 235.073 146.454C235.335 146.438 235.538 146.437 235.684 146.452C235.828 146.467 236.007 146.66 236.223 147.029C236.437 147.399 236.551 147.691 236.564 147.905C236.392 148.587 235.555 150.423 234.055 153.414C232.554 156.405 231.721 158.096 231.554 158.49C229.105 164.485 227.936 168.364 228.047 170.129C228.109 171.131 228.522 171.607 229.285 171.559C230.656 171.282 232.255 170.069 234.084 167.919C234.753 167.135 235.414 166.34 236.071 165.532C236.726 164.725 237.134 164.251 237.293 164.109C237.452 163.967 237.65 163.887 237.89 163.872Z" fill="#FFA500"/>
<path d="M240.425 175.08C240.33 173.565 240.875 172.155 242.063 170.848C243.249 169.54 244.54 168.843 245.935 168.755C247.33 168.668 248.071 169.316 248.157 170.698C248.244 172.081 247.692 173.492 246.501 174.932C245.311 176.371 244.024 177.134 242.642 177.221C241.259 177.308 240.52 176.594 240.425 175.08ZM272.165 118.884L274.941 119.069C275.537 119.032 275.848 119.204 275.872 119.585C275.877 119.657 275.838 119.816 275.757 120.06C269.046 131.373 261.62 144.659 253.479 159.916C253.03 160.782 252.573 161.301 252.104 161.474C252.081 161.476 252.058 161.489 252.036 161.514C252.013 161.54 251.973 161.572 251.916 161.612C251.859 161.651 251.783 161.686 251.689 161.716C251.34 161.881 250.928 161.979 250.451 162.009C249.974 162.039 249.644 162.132 249.463 162.286C249.282 162.441 248.916 162.536 248.368 162.571C247.485 162.626 247.016 162.201 246.959 161.294C246.859 159.697 248.647 155.485 252.325 148.659C256.003 141.834 259.633 135.477 263.213 129.591C266.794 123.705 269.106 120.298 270.149 119.371C270.443 119.112 271.115 118.95 272.165 118.884Z" fill="#FFA500"/>
</svg>
