<svg width="60" height="60" viewBox="0 0 60 60" fill="none" xmlns="http://www.w3.org/2000/svg">
<g clip-path="url(#clip0_3236_29335)">
<path d="M23.9365 30.2138C24.4066 30.1038 24.817 29.5844 24.9388 29.0712C25.5074 26.6715 22.8493 24.5609 22.9205 22.0958C22.9381 21.4875 23.2789 20.7655 23.8874 20.7622C24.355 20.7596 24.706 21.1946 24.8873 21.6255C25.2732 22.5422 25.2302 23.5878 25.561 24.5258C25.892 25.4638 26.8893 26.3342 27.8075 25.9519C28.7677 25.5522 28.804 24.1686 28.3799 23.2189C27.9757 22.3139 27.3189 21.5474 26.826 20.6875C26.333 19.8276 26.005 18.7826 26.338 17.8491C26.6708 16.9156 27.8909 16.2876 28.71 16.8458C29.4671 17.3618 29.4604 18.4468 29.5797 19.3552C29.6991 20.2636 30.3857 21.3458 31.2607 21.0738C32.2463 20.7674 32.0068 19.295 31.4803 18.4072C30.7593 17.1919 29.8457 15.9677 29.8603 14.5547C29.8748 13.1417 31.4965 11.7309 32.6606 12.532C33.8774 13.3693 33.7158 15.892 35.1928 15.8821C36.2143 15.8753 36.5928 14.4145 36.133 13.5024C35.673 12.5903 34.7638 11.9873 34.2059 11.1316C33.4492 9.97091 33.4876 8.27437 34.4759 7.3033C35.4643 6.33222 37.3644 6.43756 38.0721 7.62876C38.7102 8.70277 38.5814 10.5168 39.8107 10.7393C40.9886 10.9524 41.5486 9.20371 41.0793 8.10263C40.6099 7.00156 39.6337 6.08396 39.5469 4.89008C39.4439 3.47234 40.6395 2.30527 41.8489 1.55806C42.2901 1.28553 42.7897 1.02952 43.3026 1.10539C44.1496 1.23073 44.6125 2.19713 44.6416 3.05287C44.6706 3.90861 44.4196 4.76315 44.5162 5.61382C44.6129 6.46449 45.2586 7.3709 46.1113 7.29343C46.9778 7.21476 47.4344 6.22169 47.5546 5.35995C47.7352 4.06608 47.575 2.68047 48.1646 1.51459C48.7544 0.348721 50.6 -0.27715 51.3307 0.805924C51.9853 1.77633 51.1743 3.0202 50.5712 4.02354C49.8728 5.18542 49.9715 7.48263 51.8501 7.3501C52.6221 7.2957 52.6771 5.76555 52.794 5.26408C53.1292 3.82701 53.932 3.0274 55.4402 2.91527C56.497 2.83674 56.8919 3.43394 56.6763 4.45555C56.3532 5.98582 54.6572 6.51342 53.9891 7.8185C53.6876 8.4073 53.7332 9.08371 54.2596 9.54238C55.1364 10.3065 55.9982 9.31678 56.5247 8.68864C56.9958 8.12663 57.5548 7.31303 58.3427 7.27023C59.4862 7.2081 60.2667 8.25504 59.9149 9.34864C59.4495 10.7902 57.6675 10.258 56.5896 10.6569C55.0246 11.2361 54.4096 13.8925 56.6098 13.0173C57.1612 12.798 57.6572 12.406 58.2474 12.342C59.364 12.2211 60.3054 13.6435 59.7575 14.6239C58.9196 16.1233 56.588 15.3167 54.9779 15.9149C54.4832 16.0988 53.9925 16.5826 54.1542 17.085C54.3504 17.6951 55.2056 17.6711 55.8407 17.5836C56.8358 17.4466 57.9178 17.4796 58.7495 18.0427C59.5811 18.6058 60.0095 19.8414 59.4258 20.6588C58.931 21.3516 57.9548 21.4911 57.1079 21.4047C56.261 21.3183 55.4098 21.0688 54.572 21.2204C53.7343 21.3722 52.9117 22.1348 53.0993 22.9653C53.2791 23.7611 54.2252 24.1075 55.0396 24.1579C55.854 24.2083 56.736 24.1166 57.4222 24.5582C58.2343 25.081 58.4439 26.3385 57.8454 27.0963C57.2506 27.8494 56.1571 27.981 55.2036 27.873C54.2502 27.765 53.2955 27.4789 52.3475 27.627C51.3995 27.7752 50.4453 28.5722 50.5744 29.523C50.8609 31.6338 55.1484 30.8728 55.4552 32.9807C55.6318 34.1937 54.0859 34.9983 52.8775 34.7927C51.6689 34.5871 50.6293 33.8075 49.4391 33.5146C48.2486 33.2218 46.6522 33.7495 46.5622 34.972C46.4961 35.8712 47.2998 36.6063 48.1293 36.9595C48.9588 37.3127 49.8867 37.4448 50.6471 37.9291C51.4075 38.4133 51.9439 39.4608 51.4597 40.2214C50.8529 41.1744 49.3781 40.8174 48.4128 40.2302C47.4242 39.6288 46.4714 38.8831 45.3314 38.685C44.1916 38.4868 42.7946 39.1152 42.6734 40.2659C42.5777 41.1754 43.2993 41.9724 44.0788 42.4507C44.8582 42.929 45.7562 43.2366 46.4177 43.8682C46.7213 44.1579 46.9776 44.5899 46.8262 44.9813C46.7508 45.1763 46.5865 45.3221 46.4194 45.4481C44.52 46.8801 41.4849 46.4438 40.0658 44.5347C39.7161 44.0643 39.4301 43.5004 38.9046 43.2406C37.7059 42.6478 36.926 44.2163 36.8076 45.1514C36.6082 46.7258 37.4855 47.2939 38.5519 48.2303C39.3325 48.9158 40.1917 49.6563 40.7175 50.5718C40.9598 50.9936 41.1771 51.5841 40.9123 52.0416C40.4606 52.4893 39.9415 52.8414 39.3553 53.0982C38.6438 53.4285 37.8969 53.6206 37.1144 53.6745C36.2152 53.7109 35.5248 53.5744 35.1031 52.7464C34.656 51.8684 34.9659 51.0001 35.0915 50.076C35.2032 49.2541 35.1104 48.8282 34.4059 48.3029C33.8036 47.8538 32.9355 47.5766 32.1805 47.5778C30.7619 47.5799 32.2984 49.6674 32.601 50.1564C33.4526 51.5329 34.8622 53.1654 33.5186 54.669C32.7195 55.5633 31.5379 55.9592 30.4296 56.2821C30.2436 56.3364 28.2536 57.108 28.112 56.5884C28.0148 56.2319 28.4997 55.602 28.6476 55.2792C28.8891 54.7524 29.2613 53.9112 28.9313 53.3381C28.6289 52.813 27.5201 52.4464 27.0296 52.2013C26.6028 51.9881 25.4321 51.2169 24.9093 51.5548C24.7033 53.0421 25.7642 54.1194 26.0174 55.5029C26.3388 57.2584 25.3185 58.2161 23.8633 59.0853C23.1089 59.5359 20.5146 60.43 20.2886 58.8853C20.2046 58.3104 20.4434 57.7325 20.6231 57.2087C20.8274 56.6131 20.9649 56.0195 20.9974 55.3864C21.0178 54.989 21.0629 54.5229 20.8502 54.1601C20.5095 53.5788 19.6853 53.3293 19.0843 53.1121C17.7753 52.639 18.0494 54.0989 18.0575 54.9734C18.063 55.5503 18.1083 56.1297 18.0517 56.7039C17.9911 57.3171 17.6453 57.8361 17.2715 58.3143C16.3931 59.4385 14.3638 59.8696 13.244 58.8255C12.2326 57.882 11.9355 56.9656 13.453 56.3765C14.317 56.0411 15.0947 55.2852 15.135 54.3593C15.1752 53.4334 14.1811 52.5245 13.3272 52.8848C13.0098 53.0188 12.7724 53.2861 12.5238 53.5245C11.6834 54.3298 10.5951 54.8729 9.44615 55.0604C8.21387 55.2615 6.52 54.5077 6.8436 53.3018C7.076 52.4357 8.14721 52.1881 8.99054 51.8828C9.83375 51.5777 10.701 50.5896 10.1268 49.9009C10.0966 49.8646 9.19081 50.1434 9.04321 50.1364C8.97281 50.133 8.90961 50.0986 8.84068 50.0936C8.60628 50.0764 8.36774 50.0856 8.13254 50.0878C7.56454 50.0932 7.08027 50.2798 6.54213 50.4262C5.70652 50.6537 4.89905 50.8352 4.03598 50.9417C3.23078 51.0412 2.50584 51.0898 1.83357 50.5716C1.3745 50.2176 0.814094 49.3553 0.985429 48.721C1.10823 48.2667 1.6697 47.9479 2.07877 47.8309C2.28664 47.7714 2.48704 47.701 2.69157 47.6501C3.27771 47.5041 8.78508 47.1826 7.41373 45.5837C7.2536 45.3969 6.99747 45.3279 6.7556 45.2825C3.95718 44.7557 2.64637 44.3883 0.836895 42.0275C0.417425 41.4802 0.0214227 40.8624 0.000622536 40.1731C-0.0201776 39.4838 0.482492 38.7376 1.1721 38.735C1.78383 38.7326 2.24477 39.2662 2.61904 39.7499C3.62558 41.0506 4.91185 42.4527 6.5552 42.39C5.00839 40.6235 3.46971 38.7704 2.68357 36.5577C2.49304 36.0213 2.35904 35.3896 2.66771 34.9112C3.21531 34.0621 4.62705 34.4868 5.18679 35.328C5.74666 36.1691 5.84532 37.2424 6.34746 38.1192C6.8496 38.996 8.13934 39.6047 8.84574 38.8823C9.39961 38.3158 9.18015 37.3712 8.84214 36.6547C8.39294 35.7028 7.798 34.8196 7.4264 33.8349C7.05493 32.8502 6.9308 31.701 7.42867 30.7738C7.92654 29.8466 9.19628 29.3058 10.094 29.855C11.1575 30.5057 11.0748 32.031 11.3668 33.243C11.5839 34.1441 12.1242 35.014 12.9659 35.402C13.8076 35.79 14.9559 35.5512 15.406 34.7409C15.9945 33.6813 15.2198 32.4253 14.6868 31.3368C14.2014 30.3453 13.9186 29.1344 14.4351 28.1588C14.9516 27.183 16.5402 26.8225 17.1558 27.7389C17.4442 28.1681 17.4423 28.7198 17.5082 29.2326C17.6051 29.9877 17.8917 30.7497 18.4639 31.2518C19.0361 31.7538 19.9327 31.9272 20.5767 31.5212C21.4965 30.9414 21.4813 29.5574 21.0132 28.5762C20.545 27.595 19.7509 26.7819 19.3849 25.7583C19.0189 24.7346 19.3246 23.3131 20.3762 23.037C21.6898 22.6921 22.6404 24.3734 22.6325 25.7314C22.6246 27.0895 22.224 28.5805 22.966 29.7181C23.0894 29.9073 23.2482 30.083 23.4558 30.1722C23.6172 30.2418 23.7802 30.2504 23.9365 30.2138Z" fill="#97A831"/>
<path d="M34.7671 49.4102C29.0155 52.8808 22.5409 54.6913 15.8534 53.7452C12.9734 53.3377 10.0994 52.304 7.98336 50.3082C5.18561 47.6694 4.03427 43.3012 5.16921 39.6324C6.04522 36.8007 8.2275 34.4025 10.9642 33.2638C13.693 32.1286 16.7794 32.2314 19.6086 31.377C22.9104 30.38 25.7132 28.1114 27.9064 25.4494C32.6687 19.669 34.6291 11.8009 41.453 7.84316C43.5704 6.61502 46.0136 5.81382 48.4505 6.04302C51.3864 6.31929 54.1258 8.1769 55.4688 10.8021C57.1213 14.0321 56.6345 17.9296 55.6922 21.4332C52.8762 31.9041 44.9561 43.262 34.7671 49.4102Z" fill="#C3DE2C"/>
<path d="M41.4538 7.84306C34.6299 11.8008 32.6696 19.6689 27.9072 25.4493C25.714 28.1113 22.9111 30.3799 19.6094 31.3769C16.7802 32.2313 13.6936 32.1285 10.9649 33.2637C8.22825 34.4024 6.04597 36.8006 5.16997 39.6323C4.70556 41.1335 4.62476 42.7457 4.8769 44.2937C4.9181 44.5467 4.8785 44.9105 5.09463 45.0986C5.64837 45.5809 6.57291 45.1141 7.15665 44.9509C8.36039 44.6143 9.56093 45.1432 9.58519 46.5489C9.59959 47.3816 8.85545 48.5194 9.30772 49.2718C9.55226 49.6785 10.0669 49.9026 10.5312 49.8046C10.6573 49.778 10.7809 49.7289 10.88 49.6464C11.0419 49.5116 11.1223 49.3045 11.2519 49.1386C11.7601 48.4882 12.7289 48.7197 13.2928 49.1542C14.6494 50.2 14.99 52.0408 17.1708 51.7067C17.3008 51.6868 17.4338 51.6564 17.5404 51.5796C17.7086 51.4588 17.7808 51.2489 17.8727 51.0634C18.3554 50.0882 19.6809 49.6393 20.6567 50.1204C21.1206 50.349 21.4825 50.7411 21.919 51.0185C22.3555 51.2961 22.9498 51.4445 23.3763 51.1521C23.8838 50.804 23.8738 50.0701 24.0826 49.4912C24.3429 48.7697 25.0389 48.2258 25.802 48.1477C26.6805 48.0577 27.5113 48.5329 28.3834 48.6729C29.1809 48.8009 30.0221 48.6362 30.7127 48.217C31.0045 48.04 31.2793 47.8062 31.41 47.4908C31.5175 47.2316 31.5177 46.9426 31.5651 46.6661C31.7911 45.3445 33.188 44.3437 34.5168 44.6378C34.9628 44.7365 35.4195 44.9597 35.8547 44.8209C36.3912 44.6497 36.6192 44.0118 36.6558 43.4498C36.6923 42.8878 36.6194 42.2942 36.8618 41.7859C37.5444 40.3545 39.9546 40.7929 40.889 39.5114C41.2911 38.9599 41.3099 38.2214 41.5826 37.5956C42.005 36.6264 42.9858 36.0279 43.9579 35.6124C44.6905 35.2994 45.5211 34.9938 45.8779 34.2815C46.2952 33.4487 45.8946 32.3556 46.3865 31.5645C47.014 30.5553 48.635 30.7015 49.4153 29.8049C50.273 28.8192 49.6389 27.2205 50.1709 26.027C50.5217 25.2398 51.3132 24.7653 51.9801 24.2194C52.6469 23.6737 53.2652 22.8579 53.0532 22.0227C52.8957 21.4026 52.3072 20.931 52.2591 20.293C52.1843 19.3013 53.4069 18.6811 53.6303 17.7119C53.8336 16.8291 53.1783 16.0948 52.7727 15.3848C52.1251 14.2512 52.3584 13.8834 52.8875 12.7603C52.9632 12.5995 53.0197 12.3915 52.9024 12.2579C52.7681 12.1048 52.5224 12.1689 52.3288 12.2319C51.2705 12.5759 50.0725 12.4878 49.0909 11.9636C48.6756 11.7419 48.2888 11.432 48.0808 11.0096C47.6233 10.0812 48.1565 8.97586 48.7817 8.15119C48.9802 7.88919 49.1925 7.62986 49.3093 7.32265C49.5204 6.76758 49.3206 6.34091 48.7833 6.14105C48.3022 5.96211 47.7372 5.99105 47.2332 6.01118C46.6506 6.03465 46.0707 6.11158 45.5007 6.23305C44.0742 6.53691 42.7129 7.11279 41.4538 7.84306Z" fill="#CCE82E"/>
<path d="M27.916 25.4515C25.7228 28.1135 22.92 30.382 19.6183 31.3791C16.789 32.2335 13.7025 32.1307 10.9738 33.2659C9.84914 33.7339 8.8166 34.4155 7.93166 35.2517C7.45619 35.7009 6.95205 36.1942 6.64405 36.7778C6.52992 36.9942 6.01205 37.4818 6.55538 37.5046C7.16472 37.5303 7.79432 37.4541 8.387 37.6418C8.4666 37.667 8.54006 37.6931 8.60486 37.7473C8.76713 37.8829 8.88487 38.0982 9.03673 38.251C9.37647 38.5929 9.3658 38.9796 9.47367 39.4206C9.60607 39.9625 9.7414 40.7057 9.53714 41.2526C9.43807 41.5178 9.29753 41.5608 9.05553 41.6902C8.8914 41.7781 8.7774 41.8885 8.66113 42.0414C8.597 42.1256 8.55793 42.2112 8.53486 42.3128C8.51433 42.4037 8.47806 42.4769 8.45993 42.5568C8.41073 42.7747 8.55233 43.0153 8.70153 43.1664C9.7862 44.266 9.81634 43.4717 11.1134 43.0885C12.5048 42.6773 13.9929 42.5597 15.4328 42.7278C15.8678 42.7786 16.337 42.8757 16.6214 43.2091C16.8181 43.4396 16.8948 43.7493 17.0637 44.0008C17.6767 44.9129 19.0615 44.6601 20.1008 44.3033C19.5937 43.4901 18.8941 42.8068 18.4181 41.975C17.9421 41.1433 17.7232 40.057 18.2351 39.2468C18.8405 38.2885 20.1561 38.1244 21.2895 38.1461C21.6736 38.1534 22.0703 38.1738 22.4157 38.342C22.9718 38.6125 23.2834 39.2028 23.5784 39.7461C23.9752 40.4768 24.4214 41.2048 25.0731 41.7212C25.7248 42.2374 26.6248 42.5096 27.4064 42.2261C27.5392 42.178 27.676 42.1053 27.7348 41.977C27.7992 41.8361 27.7508 41.6701 27.6836 41.5305C27.0995 40.315 25.3722 40.0677 24.6614 38.9216C23.8878 37.6744 24.9328 35.8203 26.3914 35.6559C27.8498 35.4914 29.2271 36.8205 29.3234 38.285C29.3458 38.6254 29.3169 38.9884 29.4849 39.2852C29.8925 40.0054 30.9778 39.7512 31.7275 39.4008C32.2705 39.147 32.859 38.8454 33.0845 38.2901C33.4505 37.3883 32.655 36.4482 31.8597 35.8874C31.0643 35.3266 30.1078 34.741 29.9753 33.777C29.8702 33.0121 30.3449 32.2903 30.8697 31.7239C31.3458 31.21 31.9295 30.7308 32.6261 30.6552C33.9414 30.5124 34.943 31.821 35.417 33.0562C35.5837 33.4905 35.7289 33.9473 36.0312 34.301C36.6165 34.9858 37.7718 35.0769 38.4572 34.4922C39.1425 33.9075 39.2347 32.7523 38.6507 32.0663C38.0692 31.3835 37.0633 31.2519 36.3482 30.7106C35.5549 30.11 35.2093 28.9807 35.5305 28.039C35.8517 27.0972 36.8154 26.4145 37.8104 26.424C38.7687 26.4331 39.6219 27.0079 40.3724 27.6038C40.6527 27.8262 41.0371 28.0642 41.3375 27.8698C41.6085 27.6943 41.5869 27.2698 41.4012 27.0058C41.2153 26.7418 40.9204 26.5804 40.6739 26.3719C39.9403 25.7512 39.668 24.6425 40.0305 23.7527C40.3931 22.8628 41.3627 22.2601 42.3211 22.3288C42.6197 22.3503 42.9684 22.4137 43.1784 22.2001C43.5615 21.8103 42.9841 21.2457 42.7393 20.7569C42.4229 20.1256 42.7451 19.3289 43.2769 18.8645C43.8088 18.4001 44.504 18.1805 45.1644 17.9304C45.311 17.8749 45.464 17.812 45.56 17.6881C45.8767 17.2794 45.2624 16.7257 44.7483 16.7804C44.2341 16.835 43.7783 17.177 43.2617 17.2C42.5361 17.2322 41.9081 16.5865 41.7605 15.8753C41.6129 15.1641 41.8477 14.4254 42.1867 13.783C42.4525 13.2791 42.7947 12.7101 42.5841 12.1806C42.5044 11.9802 42.3536 11.8181 42.2331 11.6391C41.6061 10.7086 42.1443 10.0531 42.3071 9.12778C42.4603 8.25684 42.2123 7.5191 41.2619 7.9831C40.3673 8.41977 39.5444 9.11431 38.804 9.77125C37.2945 11.1103 36.0365 12.7026 34.9221 14.3783C33.7946 16.0736 32.8053 17.8548 31.7863 19.6158C30.7647 21.3814 29.7107 23.136 28.4675 24.7568C28.2878 24.9917 28.104 25.2233 27.916 25.4515Z" fill="#D3F030"/>
<path d="M37.982 16.6215C36.8452 16.2334 36.1252 14.8055 35.5487 13.8053C35.375 13.5038 35.2549 13.1867 35.1437 12.8578C34.8733 12.0573 34.3726 10.9622 35.4449 10.554C36.3765 10.1994 36.7748 11.1444 37.2828 11.7269C37.7525 12.2655 38.3417 12.8202 38.9156 13.2481C39.458 13.6525 40.4288 13.7569 40.5453 14.5807C40.5622 14.7001 40.5464 14.8517 40.5421 14.9746C40.5314 15.2863 40.497 15.179 40.3434 15.3903C39.9764 15.8958 39.2534 16.5253 38.6284 16.6631C38.4054 16.7122 38.1896 16.6923 37.982 16.6215Z" fill="#ACBF41"/>
<path d="M43.3641 11.7784C43.102 11.5948 43.0319 11.2425 42.9539 10.9512C42.7331 10.1259 42.7853 9.25213 42.7897 8.40505C42.7941 7.52585 42.7899 6.46411 43.582 5.89544C44.1844 5.46277 44.8911 5.7993 45.3045 6.38291C45.7444 7.00398 46.0627 7.83852 46.2917 8.56212C46.4717 9.13039 46.5493 9.85986 46.1975 10.3719C45.9193 10.7764 45.3355 11.1199 44.938 11.4247C44.6448 11.6493 44.3896 11.6692 43.3641 11.7784Z" fill="#ACBF41"/>
<path d="M48.7538 10.8996C48.5027 10.677 48.541 10.4599 48.5539 10.1382C48.5718 9.69083 48.5793 9.10936 48.819 8.71656C49.2381 8.02976 49.6222 7.17482 50.3509 6.75908C50.6878 6.56681 51.1077 6.57708 51.4806 6.49121C51.8654 6.40254 52.3309 6.39628 52.6358 6.68721C52.9774 7.01322 53.0866 7.48389 53.0841 7.93042C53.0794 8.75416 52.9674 9.6291 52.7452 10.4212C52.5838 10.9963 52.219 11.787 51.5489 11.7888C51.1557 11.7899 51.037 11.7294 50.7147 11.5531C50.3634 11.3608 49.8651 11.34 49.4639 11.2503C49.1977 11.1907 48.9787 11.0904 48.7699 10.9136C48.7643 10.909 48.759 10.9043 48.7538 10.8996Z" fill="#ACBF41"/>
<path d="M53.0693 14.1398C53.1063 13.7742 53.2082 13.3687 53.4549 13.0971C53.8234 12.6914 54.6523 12.5435 55.2135 12.5082C55.527 12.4884 55.8415 12.5428 56.1538 12.5611C56.8345 12.601 57.6694 12.3658 58.2881 12.7434C58.7654 13.0348 58.6309 13.6688 58.2816 13.9768C57.9177 14.2975 57.4651 14.5826 57.0366 14.8112C56.1175 15.3018 54.8318 15.9611 53.8097 15.451C53.2522 15.1728 53.0165 14.9274 53.0585 14.2714C53.0611 14.2284 53.0647 14.1843 53.0693 14.1398Z" fill="#ACBF41"/>
<path d="M52.869 21.3287C52.747 21.222 52.6453 21.0892 52.5742 20.9191C52.3188 20.3073 52.7514 19.8245 52.9864 19.3323C53.1161 19.0607 53.238 18.7513 53.5559 18.6709C54.0977 18.5337 54.8133 18.8999 55.3315 19.0196C55.9116 19.1537 56.4713 19.1132 57.0596 19.1216C57.224 19.1239 57.3541 19.0949 57.4892 19.2152C57.6851 19.3896 57.6659 19.9029 57.7071 20.1413C57.7572 20.4317 57.8415 20.7343 57.8285 21.0308C57.7817 22.0994 56.2725 22.1704 55.4888 22.1736C54.96 22.1758 54.554 22.0066 54.0627 21.8459C53.6516 21.7112 53.1903 21.6098 52.869 21.3287Z" fill="#ACBF41"/>
<path d="M32.8779 21.308C32.7151 21.1728 32.5544 21.0539 32.4291 20.8772C32.1564 20.4928 31.7392 20.2595 31.398 19.9201C30.9187 19.4436 30.3199 18.8843 30.1059 18.2231C30.0473 18.042 29.9243 17.6127 30.0267 17.4417C30.1729 17.1977 30.5725 17.2033 30.8089 17.1959C31.1537 17.1849 31.6123 17.1396 31.9481 17.2369C32.7012 17.4548 33.1596 18.0745 33.7612 18.504C34.096 18.7431 34.5624 18.8011 34.8712 19.0503C35.1179 19.2495 35.3974 19.6761 35.4723 19.988C35.6595 20.7667 34.9063 21.2431 34.3074 21.498C33.8308 21.7008 33.3259 21.6919 32.9325 21.354C32.9143 21.3386 32.8961 21.3232 32.8779 21.308Z" fill="#ACBF41"/>
<path d="M28.6557 26.8688C28.4375 26.72 28.2356 26.5558 28.0792 26.341C28.0064 26.2412 27.9633 26.1074 27.8895 26.0138C27.7293 25.8108 27.4631 25.6538 27.2707 25.4772C26.9612 25.1929 26.6708 24.8849 26.4225 24.5447C25.7825 23.6675 25.7049 22.4542 26.9689 22.1835C28.0449 21.9531 28.4732 23.0515 29.0383 23.7581C29.4512 24.2743 30.0056 24.585 30.5421 24.9422C30.7299 25.0673 30.7168 25.1466 30.8208 25.3436C30.878 25.4517 30.9909 25.5202 31.0381 25.6286C31.1728 25.9377 30.9816 26.2466 30.8208 26.4674C30.7192 26.6069 30.6057 26.7598 30.4532 26.8473C30.2704 26.952 30.1032 26.8766 29.92 26.9397C29.6005 27.0498 29.4317 27.2892 29.0324 27.125C28.918 27.0782 28.7651 26.9444 28.6557 26.8688Z" fill="#ACBF41"/>
<path d="M26.1935 29.1777C26.482 29.8217 26.3094 30.4709 25.7031 30.8439C25.1564 31.18 24.4111 31.4199 23.896 30.9031C23.7435 30.7501 23.6819 30.6139 23.5732 30.4341C23.4407 30.2147 23.2075 30.078 23.0409 29.8885C22.8516 29.6731 22.7259 29.4079 22.5599 29.1736C22.0427 28.4435 21.1449 27.238 21.8913 26.3409C22.1215 26.0642 22.408 25.9241 22.7716 26.0248C23.1831 26.1388 23.4903 26.599 23.7763 26.8868C24.148 27.2608 24.4903 27.679 24.9482 27.9483C25.4794 28.2605 25.937 28.6049 26.1935 29.1777Z" fill="#ACBF41"/>
<path d="M18.0864 33.9828C17.9429 33.879 17.8211 33.766 17.7364 33.6507C17.4559 33.2686 17.3315 32.8127 17.2883 32.3462C17.2692 32.1404 17.3031 31.9028 17.2304 31.7088C17.2027 31.6351 17.1236 31.55 17.0839 31.4824C16.8381 31.0646 16.6768 30.5695 16.5609 30.1015C16.442 29.6216 16.4133 29.2879 16.8029 28.9339C17.0152 28.7409 17.2145 28.6673 17.4888 28.7363C18.4241 28.9713 19.0828 29.7782 19.6368 30.4994C20.0791 31.0751 20.53 31.7652 20.846 32.4192C20.9572 32.6492 21.016 32.9094 21.1174 33.1472C21.2467 33.4511 21.2806 33.7495 21.0856 34.0359C20.7058 34.5942 20.0038 34.5154 19.4102 34.4931C19.0203 34.4784 18.4745 34.264 18.0864 33.9828Z" fill="#ACBF41"/>
<path d="M11.7658 36.5841C11.6405 36.4539 11.5298 36.3075 11.4281 36.1698C11.218 35.885 10.9354 35.6357 10.792 35.3062C10.7329 35.1706 10.7526 35.0257 10.7064 34.897C10.621 34.6593 10.3452 34.4221 10.189 34.2298C9.89142 33.8631 9.58955 33.4947 9.35702 33.0815C9.15515 32.723 8.88008 32.1499 9.03822 31.7243C9.21582 31.2467 9.81529 31.1095 10.2537 31.0818C10.8342 31.0451 11.2133 31.0754 11.6332 31.4927C12.3461 32.2012 12.8749 33.0015 13.4004 33.8502C13.5776 34.1363 13.6972 34.2726 13.9506 34.4799C14.1517 34.6445 14.3561 34.8162 14.5069 35.0317C14.9249 35.6293 14.2915 36.2359 13.8718 36.6027C13.442 36.9785 12.9552 37.0887 12.3785 36.9626C12.1369 36.9099 11.9376 36.7623 11.7658 36.5841Z" fill="#ACBF41"/>
<path d="M8.56273 38.4408C8.2434 38.3612 7.93259 38.2695 7.61913 38.1615C7.14886 37.9995 6.75085 38.0206 6.25992 37.968C5.65338 37.9031 5.04524 37.8319 4.43844 37.7771C3.91084 37.7294 3.1511 37.6744 2.63816 37.8242C2.31216 37.9194 1.68762 38.187 1.56429 38.5279C1.42682 38.9075 1.66256 39.3347 1.88162 39.6262C2.17216 40.0125 2.71483 40.3402 3.14363 40.5743C3.9539 41.0167 4.90284 40.8753 5.75245 41.1685C6.09072 41.2853 6.39912 41.4683 6.74179 41.5802C7.26152 41.7498 7.77086 41.7191 8.30993 41.7215C8.49793 41.7225 8.677 41.7543 8.83433 41.6563C8.9642 41.5755 9.06153 41.3938 9.1518 41.2749C9.55074 40.7493 9.63527 40.3653 9.46647 39.7347C9.417 39.5497 9.40754 39.3115 9.33047 39.1394C9.2826 39.0326 9.18234 38.964 9.123 38.8674C8.95327 38.5912 8.9634 38.5383 8.63286 38.458C8.6094 38.4524 8.58607 38.4467 8.56273 38.4408Z" fill="#ACBF41"/>
<path d="M2.44405 47.2683C2.43112 47.1793 2.43445 47.0831 2.45712 46.9791C2.62405 46.2155 3.72846 45.9125 4.33846 45.6949C5.03474 45.4465 5.71021 45.4677 6.42461 45.3124C6.91848 45.2051 7.28848 44.877 7.80542 44.8789C8.43502 44.8812 8.85862 45.6755 9.04556 46.214C9.13116 46.4605 9.12276 46.6576 9.12756 46.9171C9.13329 47.2281 9.10556 47.3212 8.79622 47.3967C8.24422 47.5315 7.64995 47.5377 7.10248 47.7105C6.66501 47.8487 6.30048 47.7872 5.84847 47.8151C5.36834 47.8447 4.9242 48.0243 4.4678 48.1584C4.13553 48.256 3.85566 48.1799 3.52139 48.1105C3.05552 48.0137 2.51379 47.7499 2.44405 47.2683Z" fill="#ACBF41"/>
<path d="M10.0301 54.5211C10.0526 54.1451 10.1069 53.6928 10.3582 53.4278C10.4574 53.3231 10.5955 53.271 10.7051 53.1796C10.981 52.9495 11.1172 52.5651 11.1606 52.2198C11.2461 51.5412 11.1729 50.9294 11.4429 50.2607C11.6077 49.8526 11.9408 49.3131 12.4018 49.184C13.139 48.9776 13.6993 49.8255 13.8422 50.4119C14.0441 51.2399 14.0648 52.1808 13.869 53.0132C13.7829 53.3796 13.6634 53.6736 13.4412 53.985C13.2204 54.2942 13.1036 54.5835 12.8258 54.854C12.407 55.2618 11.9772 55.8154 11.3422 55.8469C11.0516 55.8613 10.9484 55.683 10.6949 55.6031C10.4438 55.5239 10.2025 55.5935 10.0671 55.305C9.98541 55.1307 10.0122 54.8792 10.0213 54.6902C10.0238 54.6364 10.0266 54.5798 10.0301 54.5211Z" fill="#ACBF41"/>
<path d="M18.4525 56.3594C18.3469 56.0651 18.3705 55.7181 18.3924 55.4087C18.406 55.2176 18.5117 55.0463 18.5236 54.8532C18.5413 54.5642 18.4153 54.2464 18.3504 53.9662C18.2324 53.4576 18.1158 52.9468 18.0669 52.426C18.008 51.7975 17.9456 51.0954 18.4086 50.6012C18.9294 50.0456 19.6412 49.9257 20.2941 50.2745C20.6086 50.4426 20.8712 50.5935 21.0056 50.9404C21.1516 51.317 21.1205 51.7764 21.1641 52.1736C21.2582 53.0286 21.4756 54.0042 21.3141 54.8631C21.22 55.3643 21.0166 56.1347 20.604 56.4757C20.4464 56.6059 20.2216 56.6645 20.0437 56.7641C19.7729 56.9157 19.4797 57.1183 19.1517 57.0765C18.8914 57.0433 18.6996 56.7739 18.5608 56.5729C18.5149 56.5062 18.4794 56.4346 18.4525 56.3594Z" fill="#ACBF41"/>
<path d="M27.0102 53.6054C26.7808 53.0736 26.4919 52.4917 26.09 52.1423C25.8799 51.9595 25.6855 51.8003 25.5268 51.5659C25.0144 50.8089 24.4504 49.0368 25.7503 48.7173C26.7167 48.4799 27.4804 48.6477 28.13 49.4044C28.3944 49.7123 28.5711 50.0335 28.7979 50.3655C29.0767 50.7736 29.278 50.9959 29.3798 51.4891C29.4827 51.9875 29.7182 52.4949 29.7243 53.0076C29.728 53.3179 29.6074 53.6092 29.5779 53.9159C29.5323 54.3902 29.6756 54.8752 29.2836 55.2458C28.9748 55.5376 28.5444 55.5211 28.1619 55.4066C27.54 55.2203 27.4136 54.5732 27.183 54.0172C27.129 53.8871 27.0718 53.748 27.0102 53.6054Z" fill="#ACBF41"/>
<path d="M33.5841 50.4217C33.3942 49.8304 33.1135 49.2756 32.7653 48.7621C32.4673 48.3225 32.1382 47.9321 31.9903 47.4109C31.6518 46.2183 32.4322 45.2178 33.6901 45.3333C35.2047 45.4722 35.806 46.9253 36.4192 48.1119C36.8261 48.8993 37.0032 49.8457 37.0336 50.7243C37.0468 51.1048 37.082 51.3712 36.8133 51.6726C36.6461 51.86 36.46 51.9998 36.244 52.1208C35.6412 52.4587 34.4046 52.4879 33.9347 51.8914C33.7561 51.6646 33.6499 51.4508 33.6383 51.156C33.6282 50.8984 33.6586 50.654 33.5841 50.4217Z" fill="#ACBF41"/>
<path d="M40.9862 47.6334C40.9156 47.5803 40.842 47.5271 40.7627 47.478C40.4156 47.2632 40.128 46.9907 39.9223 46.6404C39.8352 46.4923 39.7556 46.3672 39.6345 46.2423C39.014 45.602 38.3267 45.0347 37.7239 44.3724C37.4179 44.0361 37.2024 43.7632 37.15 43.3035C37.0945 42.8164 37.1564 42.4456 37.4717 42.0645C37.7648 41.7103 38.1793 41.2611 38.6669 41.2617C39.0968 41.2624 39.4217 41.6156 39.7369 41.8711C40.1147 42.1773 40.4448 42.5275 40.7887 42.8711C41.446 43.528 42.2603 44.2093 42.5883 45.1117C42.7216 45.4785 42.8178 45.9447 42.8904 46.3283C42.9382 46.5802 42.9536 46.9154 42.8904 47.1666C42.7543 47.7072 42.5164 47.8315 42.0166 47.9806C41.5647 48.1154 41.3064 47.8744 40.9862 47.6334Z" fill="#ACBF41"/>
<path d="M45.3065 40.4966C44.8421 40.2817 44.3738 40.0209 43.9679 39.7521C43.4975 39.4403 43.0502 39.0351 42.7567 38.5483C42.5322 38.1759 42.3891 37.7147 42.5774 37.2969C42.6764 37.0773 42.8528 36.9073 43.0497 36.7739C43.4241 36.52 43.8933 36.3436 44.3199 36.2036C45.0497 35.9642 45.3681 36.139 45.8983 36.6422C46.043 36.7795 46.1929 36.911 46.3457 37.0391C47.4569 37.9703 49.1624 38.8429 49.2909 40.4593C49.3338 41.0003 49.0949 41.4282 48.608 41.6705C47.9325 42.0065 47.4665 41.6345 46.8969 41.2689C46.537 41.0379 46.1917 40.8614 45.7942 40.7055C45.6341 40.6426 45.4705 40.5725 45.3065 40.4966Z" fill="#ACBF41"/>
<path d="M47.316 33.0186C47.3165 32.7148 47.3026 32.4109 47.3873 32.1142C47.4724 31.8162 47.7886 31.247 48.124 31.1901C48.5138 31.1238 49.2397 31.5834 49.5688 31.7457C50.3263 32.1193 51.1393 32.4101 51.9373 32.6829C52.3847 32.836 52.8087 33.0489 53.2188 33.2826C53.4828 33.433 54.0652 33.664 54.07 34.0316C54.0735 34.2941 53.6773 34.7334 53.4996 34.8996C53.2063 35.1734 52.6636 35.174 52.284 35.1677C51.8268 35.1601 51.3627 34.993 50.9053 34.9389C50.5627 34.8984 50.2127 34.8678 49.8723 34.8118C49.6224 34.7708 49.4076 34.6925 49.2088 34.5321C49.0817 34.4296 48.9793 34.304 48.8717 34.1824C48.613 33.89 48.3328 33.841 47.9958 33.6732C47.8136 33.5822 47.3156 33.2697 47.316 33.0186Z" fill="#ACBF41"/>
<path d="M50.7486 26.549C50.7781 26.3645 50.8158 26.1574 50.9025 26C50.9853 25.8498 51.1292 25.7961 51.2588 25.6977C51.5737 25.4585 51.7465 25.3274 52.1796 25.3364C53.4813 25.363 54.8963 25.331 56.0252 26.0986C56.5569 26.4602 57.4697 26.6996 57.59 27.4118C57.6304 27.6516 57.6605 27.9525 57.4727 28.11C57.2507 28.2961 56.8072 28.3309 56.5309 28.376C56.1849 28.4325 55.7717 28.4317 55.4497 28.2816C55.1151 28.1255 54.7976 27.9201 54.4297 27.8441C53.7869 27.7113 53.1506 27.9429 52.5094 27.9337C52.0021 27.9265 51.543 28.1722 51.0954 27.8322C50.7502 27.5701 50.6645 27.0724 50.7305 26.664C50.7365 26.627 50.7424 26.5886 50.7486 26.549Z" fill="#ACBF41"/>
<path d="M13.9675 38.2623C14.4323 38.4379 15.3329 38.7988 15.5006 39.3249C15.567 39.5332 15.4702 39.7681 15.4423 39.976C15.4027 40.2712 15.4083 40.5748 15.1989 40.8131C14.9045 41.148 14.1005 40.9919 13.6945 40.9919C12.9671 40.9919 12.3083 40.9203 11.6279 40.6375C11.1203 40.4264 10.616 40.1332 10.2306 39.7367C10.0598 39.5609 9.8827 39.3592 9.8547 39.108C9.81403 38.7449 9.82403 38.0516 10.0434 37.8109C10.2691 37.5635 10.7163 37.526 11.024 37.5112C11.5976 37.4836 12.064 37.5283 12.6034 37.7507C13.0556 37.9371 13.5125 38.0904 13.9675 38.2623Z" fill="#BACF46"/>
<path d="M10.9311 46.0313C10.8639 45.5532 10.9619 44.9206 11.1791 44.6172C11.3261 44.4119 11.5211 44.3576 11.7425 44.262C11.8995 44.1943 12.0357 44.1118 12.1791 44.0195C12.9183 43.5444 13.6632 43.2276 14.5471 43.1464C14.7999 43.1232 15.067 42.9714 15.3158 43.042C15.6284 43.1307 15.7248 43.4392 15.7982 43.7166C15.8699 43.9875 15.9698 44.0858 16.1454 44.2888C16.4812 44.6772 16.2202 45.3295 15.7955 45.5762C15.0155 46.0294 14.2292 46.4965 13.396 46.8697C12.7724 47.149 11.4131 47.1229 11.044 46.4202C10.9893 46.3155 10.9521 46.181 10.9311 46.0313Z" fill="#BACF46"/>
<path d="M20.4714 46.5664C20.4719 45.8648 19.8087 45.371 19.1407 45.4082C18.7499 45.43 18.3379 45.6233 18.0701 45.8956C17.7293 46.2418 17.3491 46.7433 17.2511 47.2288C17.181 47.5758 17.1488 48.1973 17.2276 48.5409C17.355 49.0966 18.129 49.1464 18.593 49.1426C19.1631 49.1381 19.7626 48.6528 20.0531 48.173C20.3879 47.6201 20.4709 47.1945 20.4714 46.5664Z" fill="#BACF46"/>
<path d="M26.6498 46.6236C26.4143 47.0332 25.9606 47.3101 25.5291 47.4698C25.0343 47.653 24.5845 47.5746 24.0716 47.5806C23.6991 47.585 23.3197 47.5937 23.0095 47.3484C22.6737 47.0828 22.274 46.6084 22.2431 46.1628C22.2255 45.9073 22.3349 45.7705 22.5079 45.6092C22.5979 45.5253 22.6736 45.4638 22.7468 45.3616C23.1107 44.8534 23.4251 44.4541 23.9741 44.1212C24.9797 43.5117 26.8186 43.8658 27.0632 45.1832C27.1584 45.6949 26.8963 46.1949 26.6498 46.6236Z" fill="#BACF46"/>
<path d="M30.3194 41.8502C30.6984 41.4502 31.392 40.8646 31.9514 40.9952C32.5751 41.1406 33.193 41.8658 33.4476 42.4044C33.5784 42.6809 33.7232 42.9534 33.6216 43.2676C33.5002 43.6433 33.081 44.0465 32.8095 44.3137C32.1647 44.948 30.8732 45.6071 30.0272 44.9044C29.6572 44.5972 29.5255 44.1014 29.5402 43.6369C29.5608 42.9824 29.8378 42.3716 30.2792 41.8932C30.2922 41.879 30.3056 41.8648 30.3194 41.8502Z" fill="#BACF46"/>
<path d="M38.0278 37.9905C38.2482 38.3397 38.2748 38.8481 38.2565 39.2477C38.2334 39.7522 38.0381 40.0453 37.7805 40.4592C37.5217 40.8748 37.2044 41.0044 36.7098 40.8626C36.2716 40.7369 35.7684 40.4236 35.5145 40.0357C35.2256 39.5942 35.0925 38.8845 35.2436 38.3693C35.3005 38.1753 35.4276 38.0062 35.5348 37.8375C35.7961 37.4267 36.1484 36.9489 36.6884 36.9339C37.2997 36.9171 37.7385 37.5325 38.0278 37.9905Z" fill="#BACF46"/>
<path d="M41.71 35.7233C41.3018 35.7241 40.9203 35.5977 40.5396 35.4642C40.1918 35.3422 40.0068 35.1289 39.8103 34.8142C39.443 34.2261 39.4934 33.6184 39.8792 33.0505C40.0448 32.8067 40.2294 32.6205 40.487 32.4781C40.9688 32.2115 41.5635 31.9503 42.1139 31.9978C42.7241 32.0502 43.6407 32.3939 44.0667 32.8702C44.3357 33.1709 44.5017 33.7458 44.4169 34.137C44.3199 34.5844 43.8783 34.9002 43.5453 35.169C43.0369 35.5794 42.3451 35.7222 41.71 35.7233Z" fill="#BACF46"/>
<path d="M48.8105 29.4267C48.5644 30.4551 47.5448 30.1878 46.7297 30.091C46.2364 30.0325 45.7608 29.8609 45.2829 29.7317C44.9228 29.6343 44.5865 29.3918 44.3483 29.1089C44.028 28.7287 43.7091 27.9107 43.9776 27.5033C44.3257 26.9749 44.9171 26.6306 45.5469 26.5997C46.1407 26.5706 46.5421 26.8661 47.0981 26.9967C47.6713 27.1315 48.0408 27.3697 48.3312 27.8689C48.648 28.4134 48.9644 28.7842 48.8105 29.4267Z" fill="#BACF46"/>
<path d="M47.3116 22.7704C47.3164 22.0264 47.6901 21.6484 48.3954 21.44C48.9384 21.2796 49.5318 21.3325 50.091 21.3329C50.8414 21.3334 51.956 21.4444 52.4824 22.0837C52.7768 22.441 52.8279 23.008 52.5327 23.3746C52.0936 23.9198 51.316 24.2113 50.6454 24.3088C50.1685 24.3781 49.6872 24.3528 49.2074 24.3421C48.9185 24.3356 48.6008 24.3831 48.3157 24.326C47.5664 24.1762 47.3085 23.4502 47.3116 22.7704Z" fill="#BACF46"/>
<path d="M51.233 17.9923C50.5453 18.2479 49.3539 18.6662 48.8438 17.8713C48.5942 17.4822 48.6357 17.1741 48.7125 16.7398C48.7625 16.4569 48.8682 16.1285 49.0654 15.9125C49.1889 15.7773 49.2845 15.7503 49.4541 15.7146C50.0395 15.5913 50.6679 15.5254 51.2682 15.439C51.5539 15.3979 51.8169 15.2637 52.1041 15.3866C52.3038 15.4722 52.5086 15.659 52.6392 15.8247C52.9809 16.2587 52.8162 16.6654 52.4653 17.0249C52.0958 17.4033 51.7406 17.8038 51.233 17.9923Z" fill="#BACF46"/>
<path d="M43.9695 16.7755C43.5167 16.828 43.0185 16.9636 42.7636 16.5133C42.6411 16.2969 42.4527 16.0577 42.4002 15.8147C42.339 15.5317 42.4471 15.238 42.4884 14.9601C42.546 14.5731 42.541 14.0683 42.8535 13.7821C42.961 13.6837 43.1028 13.6429 43.2264 13.5711C43.6106 13.3475 43.8686 12.9549 44.3231 12.8444C44.9971 12.6805 45.3186 13.0993 45.5267 13.6908C45.6875 14.1473 45.8807 14.9919 45.7533 15.4675C45.5534 16.2136 44.6905 16.6919 43.9695 16.7755Z" fill="#BACF46"/>
<path d="M40.4685 21.5496C40.2225 21.968 39.3032 21.8825 38.9355 21.7193C38.3877 21.4762 37.7774 21.3329 37.4196 20.8048C37.2434 20.5446 37.2158 20.2532 37.0888 19.9754C36.907 19.5782 36.4732 19.0582 36.8704 18.6295C37.1113 18.3695 37.706 18.4462 38.0092 18.4539C38.6489 18.4705 39.3999 18.685 39.8761 19.1362C40.2464 19.487 40.4087 19.998 40.4685 20.4986C40.4945 20.7146 40.5848 21.3518 40.4685 21.5496Z" fill="#BACF46"/>
<path d="M36.064 25.4739C35.9793 26.0045 35.1934 26.1163 34.7785 26.1964C34.1965 26.3089 33.7251 26.4608 33.171 26.1217C32.8891 25.9493 32.6347 25.6731 32.4422 25.408C32.3305 25.2543 32.2899 25.1099 32.217 24.9429C32.043 24.5441 31.6239 24.2731 31.5937 23.7941C31.5545 23.1727 32.1387 22.7916 32.6921 22.7529C33.3366 22.708 33.8961 22.8859 34.4276 23.254C34.9582 23.6216 35.1697 24.1013 35.5712 24.5749C35.7602 24.798 36.1176 25.1372 36.064 25.4739Z" fill="#BACF46"/>
<path d="M28.5387 27.9216C28.9288 28.1544 29.3008 28.4316 29.6158 28.76C29.857 29.0116 29.9895 29.3217 30.2002 29.5832C30.3144 29.7248 30.4459 29.8094 30.5376 29.9805C30.8072 30.4834 30.5954 30.7332 30.1316 30.9305C29.5818 31.1645 29.2458 31.4307 28.6676 31.0368C28.2211 30.7324 27.9559 30.278 27.6427 29.8517C27.2899 29.3714 27.0749 28.887 27.0505 28.2649C27.0184 27.4486 28.0512 27.6306 28.5387 27.9216Z" fill="#BACF46"/>
<path d="M25.6967 33.6707C25.8003 34.0986 25.2533 34.6017 24.866 34.6986C24.3095 34.8379 23.6928 34.5973 23.3437 34.157C23.0863 33.8323 22.9087 33.4911 22.7328 33.1187C22.5379 32.7061 22.2328 31.7439 22.7675 31.5335C23.0305 31.4301 23.5861 31.4959 23.8229 31.5783C24.6828 31.8775 25.4845 32.7941 25.6967 33.6707Z" fill="#BACF46"/>
<path d="M17.711 34.9482C18.2034 35.1999 18.6661 35.5081 19.128 35.8106C19.4821 36.0426 19.8525 36.2991 19.6097 36.7575C19.2096 37.5131 17.9005 38.0478 17.1529 37.5701C16.9209 37.4218 16.6818 37.2319 16.5252 37.003C16.4432 36.8831 16.4285 36.7762 16.3812 36.6477C16.2358 36.2527 15.9094 35.8767 15.772 35.4369C15.6422 35.0219 15.5937 34.5601 16.1242 34.4994C16.6185 34.4429 17.2864 34.7311 17.711 34.9482Z" fill="#BACF46"/>
<path d="M22.9848 40.283C23.1113 41.2789 22.5694 42.0755 21.7645 42.6313C21.0787 43.1047 20.4549 42.9345 19.8685 42.4038C19.3535 41.9378 18.6486 41.3271 18.5487 40.603C18.4671 40.0116 18.6906 39.507 19.1643 39.1567C19.8825 38.6256 21.2179 38.3002 22.0517 38.7423C22.5638 39.014 22.9149 39.733 22.9848 40.283Z" fill="#C0D648"/>
<path d="M28.7951 37.203C28.8109 37.2362 28.8263 37.2695 28.8412 37.3032C29.0936 37.8714 29.3155 38.661 28.9405 39.2267C28.5909 39.754 27.7143 40.1475 27.0879 40.0095C26.5141 39.8831 25.5999 39.3234 25.3177 38.8106C25.0156 38.2615 25.1269 37.1353 25.4791 36.6261C25.6433 36.3885 25.8943 36.3173 26.162 36.2523C26.3504 36.2065 26.5408 36.1568 26.7304 36.1172C27.6377 35.9281 28.4008 36.3757 28.7951 37.203Z" fill="#C0D648"/>
<path d="M34.4749 33.3478C34.6887 34.3693 33.5785 35.8225 32.4645 35.4174C31.9385 35.2262 31.4351 34.6826 31.1614 34.2096C30.8237 33.626 30.8407 33.0701 31.1502 32.4866C31.2202 32.3546 31.2746 32.205 31.3495 32.0776C31.5398 31.7533 31.9753 31.592 32.3434 31.4888C33.0058 31.303 33.4505 31.4376 33.8818 31.9876C34.1698 32.3544 34.3791 32.8901 34.4749 33.3478Z" fill="#C0D648"/>
<path d="M39.9686 27.9656C40.1853 28.479 40.2473 29.0984 40.1425 29.645C39.9206 30.8018 38.2429 31.4636 37.2439 30.83C36.7479 30.5153 36.4015 29.8894 36.2219 29.3458C35.9582 28.5476 36.1623 27.8301 36.8303 27.3386C37.7757 26.6433 39.4928 26.8375 39.9686 27.9656Z" fill="#C0D648"/>
<path d="M43.2237 25.7698C42.8783 25.9794 42.4921 25.9904 42.1114 26.0879C41.8548 26.1536 41.6479 26.2342 41.3938 26.1135C40.8972 25.8779 40.2879 25.0736 40.349 24.4988C40.4004 24.0145 40.8144 23.6021 41.0951 23.2292C41.8236 22.2612 43.2057 23.0268 43.607 23.9685C43.9235 24.7119 43.9778 25.3121 43.2237 25.7698Z" fill="#C0D648"/>
<path d="M46.227 21.2265C45.5075 21.7581 43.7492 21.8596 43.6043 20.6711C43.5513 20.2373 43.6155 19.7581 43.7645 19.3487C43.9943 18.718 44.8523 18.269 45.4951 18.3069C45.9783 18.3354 46.2178 18.8343 46.3982 19.222C46.7358 19.9479 46.9554 20.6884 46.227 21.2265Z" fill="#C0D648"/>
</g>
<defs>
<clipPath id="clip0_3236_29335">
<rect width="60" height="60" fill="white"/>
</clipPath>
</defs>
</svg>
