<svg width="60" height="60" viewBox="0 0 60 60" fill="none" xmlns="http://www.w3.org/2000/svg">
<g clip-path="url(#clip0_3113_26682)">
<path d="M9.57817 40.6599C9.08577 40.6599 8.67281 40.2759 8.6434 39.7779C8.51758 37.6453 8.53972 35.357 8.63028 34.1079C8.66754 33.5916 9.11705 33.2036 9.63264 33.2407C10.1489 33.278 10.5372 33.7268 10.4998 34.2431C10.4119 35.5325 10.3965 37.6664 10.5147 39.6675C10.5463 40.2036 10.1209 40.6599 9.57817 40.6599Z" fill="#90C94F"/>
<path d="M21.796 29.9487C21.186 29.9303 20.7532 29.3418 20.9229 28.7523C22.3044 23.9523 23.7442 20.3292 23.7587 20.2933C23.9506 19.8126 24.4954 19.5782 24.9765 19.7702C25.4571 19.962 25.6913 20.5072 25.4997 20.988C25.4856 21.0233 24.0785 24.5656 22.7242 29.2708C22.6032 29.6909 22.2138 29.9612 21.796 29.9487Z" fill="#90C94F"/>
<path d="M60 59.4947H0.0177389C0.0177389 59.4947 0.0177389 58.4649 0.0177389 56.0258C0.0177389 52.2827 -0.370974 50.5641 2.49084 47.5943C2.71343 47.3635 2.91142 47.1678 3.06372 47.005C2.47209 43.1636 2.28231 39.0245 3.64948 37.0013C6.57866 32.6655 4.00117 46.2583 17.7078 49.771C17.7078 49.771 16.5 47.9703 15.5827 45.4551C14.4182 42.2673 13.7211 37.9327 16.5363 34.6582C21.5739 28.8006 23.214 27.6291 23.214 27.6291C23.214 27.6291 21.1029 34.0327 21.1896 39.656C21.2412 43.0171 22.0776 46.1427 24.6199 47.5451C24.6199 47.5451 29.0717 45.3192 29.5403 42.859C29.8859 41.0443 34.5029 44.8388 36.901 46.9546C39.674 43.4436 42.9344 37.6597 42.6614 30.0893C42.269 19.2093 46.7161 30.8004 46.8742 37.8952C49.434 37.7417 51.7337 41.145 52.931 43.2081C54.9168 42.1537 56.9951 39.902 58.0752 38.6297C58.2955 38.3685 58.7196 38.5618 58.6668 38.8992C58.2929 41.2924 57.6818 43.9627 57.0701 46.3161L57.1884 46.3735C58.9327 46.3735 59.8775 57.7766 60 59.4947Z" fill="#99D856"/>
<path d="M10.1038 45.6464C9.948 46.6012 9.06232 47.3135 8.84559 48.2636C8.71086 48.8494 8.82333 49.5382 8.42501 49.9893C7.93297 50.5469 7.02503 50.3571 6.33148 50.6231C6.11358 50.7063 5.90739 50.8386 5.67543 50.8586C5.24665 50.8949 4.87996 50.5341 4.6972 50.1451C4.27299 49.2506 4.53295 48.4503 2.49121 47.5935C2.7138 47.3627 2.91179 47.1671 3.06409 47.0042C2.47247 43.1628 2.28268 39.0238 3.64985 37.0005C5.84061 33.7577 4.95025 40.5479 10.1038 45.6464Z" fill="#AAEF68"/>
<path d="M21.1895 39.6558C20.4562 42.3981 18.5025 45.6177 15.5826 45.4549C14.4181 42.2672 13.721 37.9325 16.5362 34.6581C21.5738 28.8004 23.2139 27.6289 23.2139 27.6289C23.2139 27.6289 21.1028 34.0325 21.1895 39.6558Z" fill="#AAEF68"/>
<path d="M59.9999 59.4939H0.0175781C0.0175781 59.4939 0.0175781 58.4641 0.0175781 56.025C0.265122 56.0257 6.45771 55.7915 20.5486 55.9817C32.9459 56.1501 35.2947 56.5739 38.7565 55.615C43.9736 54.1684 46.3036 50.5564 49.6131 49.6238C50.9744 49.2407 52.4177 49.3192 53.8166 49.1142C55.3407 48.8892 56.804 48.3281 58.3281 48.123C59.4434 51.6962 59.9999 59.4939 59.9999 59.4939Z" fill="#72AB31"/>
<path d="M41.8922 43.2133C42.3654 42.4681 42.4631 41.92 43.6278 37.716C43.7278 37.3554 43.8386 37.2274 44.2297 37.2459C45.9176 37.3257 46.6204 38.5091 46.9344 38.7144C47.2486 38.9198 47.6554 38.9003 48.0122 39.017C49.2916 39.4357 49.5178 41.3455 48.0956 42.2337C46.9487 42.9499 45.364 42.5682 44.2097 43.2727C42.5265 44.2999 42.7188 46.9171 41.3487 48.3353C39.6158 50.1289 34.8987 50.1279 31.9933 52.1804C31.347 52.637 30.7591 53.2035 30.0182 53.4812C28.8662 53.9129 27.554 53.5582 26.4879 52.9442C25.132 52.1634 24.9895 51.0195 26.72 50.2982C30.5895 48.6854 34.7856 48.5999 38.0548 46.5346C39.3409 45.7221 41.0719 44.5055 41.8922 43.2133Z" fill="#72AB31"/>
<path d="M50.2766 55.2774C49.6098 55.2774 49.1501 54.5929 49.4151 53.972C53.0188 45.5258 51.5905 35.3639 51.5756 35.2622C51.5007 34.75 51.8554 34.2742 52.3676 34.1994C52.8802 34.1246 53.3556 34.4792 53.4304 34.9914C53.4941 35.4278 54.9476 45.7815 51.1391 54.7078C50.9873 55.0638 50.6408 55.2774 50.2766 55.2774Z" fill="#AAEF68"/>
<path d="M28.7195 54.6903C27.9306 54.6903 27.4843 53.7576 28.0069 53.1449C30.5854 50.1219 30.4978 41.8768 30.2464 38.955C30.2021 38.4393 30.5842 37.9853 31.0999 37.9409C31.6143 37.897 32.0695 38.2787 32.1139 38.7944C32.1535 39.2552 33.0432 50.1287 29.433 54.3613C29.2477 54.5785 28.9843 54.6903 28.7195 54.6903Z" fill="#AAEF68"/>
<path d="M33.1729 51.7626C32.2633 51.7626 31.8851 50.5892 32.6298 50.0609C32.7978 50.0609 39.8117 44.6378 41.7032 35.9798L41.7242 15.4441C41.7247 14.9269 42.1442 14.5078 42.6614 14.5078C43.1795 14.5078 43.5991 14.9282 43.5987 15.446C43.5761 37.5647 43.5889 36.1259 43.5568 36.2762C41.4787 45.9986 34.0296 51.3664 33.7135 51.5901C33.5492 51.7067 33.3601 51.7626 33.1729 51.7626Z" fill="#AAEF68"/>
<path d="M17.2474 38.6107C16.7171 40.0751 16.1783 41.6173 16.4197 43.1558C16.4741 43.503 16.6154 43.8964 16.9508 44.0013C17.27 44.1012 17.6163 43.8691 17.7641 43.5692C17.912 43.2692 17.9126 42.921 17.9167 42.5866C17.9693 38.3093 18.7907 38.5994 18.8567 37.3481C18.8841 36.8289 18.691 35.7009 18.1178 36.2047C17.6863 36.5837 17.4486 38.0551 17.2474 38.6107Z" fill="white"/>
<path d="M5.11261 45.2641C4.94695 44.6445 5.38686 44.4641 5.61508 44.8686C5.95669 45.4742 5.56458 46.3995 6.37165 48.3983C6.52746 48.7841 6.73506 49.2384 6.48541 49.6051C5.64647 48.6263 5.44181 46.4958 5.11261 45.2641Z" fill="white"/>
<path d="M13.7414 19.4893C12.7154 21.4461 12.2098 24.1258 10.9976 27.4194C9.05605 25.7909 8.37001 22.5368 6.93359 20.0493C7.96958 18.7076 9.20554 16.4708 10.2643 16.3848C11.7585 16.3848 12.6384 18.0931 13.7414 19.4893Z" fill="#D1B84E"/>
<path d="M12.079 24.1301C11.9257 24.6713 11.4209 26.2683 10.9976 27.4185C9.05605 25.79 8.37001 22.536 6.93359 20.0484C7.24417 19.6461 7.56716 19.1727 7.85559 18.7598C9.09413 19.2679 9.34976 20.1449 10.4939 22.5907C10.76 23.1542 10.7283 22.9849 12.079 24.1301Z" fill="#BD923A"/>
<path d="M16.8884 27.5101C16.8755 30.6826 14.1025 34.189 10.6816 34.189C9.57639 34.189 8.13869 34.2496 6.47582 32.884C5.277 31.9615 4.17517 30.2963 3.86097 28.5106C3.67551 27.494 3.69215 28.0159 4.72673 20.2221C4.63535 19.1407 6.05056 18.6557 6.64101 19.5672C8.27599 22.0958 8.92643 25.6813 10.9979 27.4188C12.4342 23.5159 12.8987 20.3794 14.3895 18.4741C14.9272 17.7853 16.0308 18.2152 15.957 19.0857C16.9748 28.2272 16.8884 27.4176 16.8884 27.5101Z" fill="#FFE773"/>
<path d="M16.8908 27.4672C16.8896 27.4813 16.8884 27.4953 16.8884 27.5094C16.8755 30.6819 14.1025 34.1883 10.6817 34.1883C9.47252 34.1883 9.56811 34.1637 9.56518 34.1754C9.56518 34.0918 7.51958 34.2756 5.54039 31.977C5.44597 31.8674 5.42453 31.7101 5.494 31.5832C5.67782 31.2469 5.73955 31.0535 6.27366 27.9326C6.33129 27.5959 6.78151 27.532 6.93522 27.8371C7.27285 28.5075 7.76115 29.0754 8.17786 29.7099C8.33941 29.956 8.71219 29.9096 8.80662 29.6308C8.86941 29.4456 8.89624 29.2953 9.07923 28.4522C9.14191 28.1637 9.51083 28.0759 9.69593 28.306C9.93387 28.6018 10.2415 28.834 10.526 28.9631C12.017 29.6488 12.4343 27.8174 13.174 26.0906C13.3063 25.7815 13.7654 25.8093 13.8437 26.1644C14.3257 28.3486 15.5782 27.3222 16.3829 26.9854C16.6054 27.1166 16.6466 27.141 16.8691 27.2722L16.8908 27.4672Z" fill="#EFD66C"/>
<path d="M8.08439 22.4475C7.93877 23.3978 7.44848 26.0393 6.83554 26.7259C6.35146 27.2658 5.04298 27.5671 4.1457 28.3192C4.05667 28.3942 3.96177 28.4574 3.86102 28.5102C3.6792 27.5134 3.68846 28.0438 4.72678 20.2216C4.6354 19.1403 6.05061 18.6553 6.64106 19.5667C7.25752 20.52 7.95458 22.1093 8.08439 22.4475Z" fill="#FFEC8F"/>
<path d="M6.06697 24.3213C6.05748 23.8125 5.66443 22.6657 6.01659 22.5271C6.14335 22.4772 6.27093 22.5987 6.33876 22.7169C6.67417 23.3013 6.54472 24.0269 6.47337 24.6969C6.43084 25.0956 6.42499 25.1646 6.28077 25.5275C6.12824 25.9113 5.98965 26.3074 5.81638 26.6815C5.66794 25.8888 6.08173 25.1138 6.06697 24.3213Z" fill="white"/>
<path d="M31.8247 8.07578C30.5419 8.30657 28.2281 9.0669 26.6934 11.5763C24.747 10.3881 22.9579 8.62699 21.5527 6.83162C21.787 6.67229 23.5326 5.5734 26.1896 6.17205C26.1896 6.17205 27.5475 5.11181 29.3024 5.43398C30.9964 5.74444 31.6455 7.45839 31.8247 8.07578Z" fill="#D1B84E"/>
<path d="M31.8247 8.07603C30.5419 8.30682 28.2281 9.06714 26.6934 11.5766C24.747 10.3884 22.9579 8.62723 21.5527 6.83186C21.6629 6.75688 22.108 6.47455 22.8238 6.25781C23.9532 6.78805 24.269 7.35261 24.9396 7.69294C25.6416 8.05014 26.4026 7.97246 26.718 8.20958C26.9768 8.40745 27.0552 8.84291 28.1543 8.49426C29.3693 8.10871 29.2028 7.96016 29.6492 7.73043C30.193 7.45277 31.0053 7.7152 31.7708 7.98113C31.8046 7.99378 31.7971 7.97445 31.8247 8.07603Z" fill="#BD923A"/>
<path d="M32.7659 7.97669C32.7469 8.07991 31.3797 15.521 31.3472 15.6971C30.7414 18.9995 27.5721 21.1964 24.2547 20.5882C21.5846 20.0977 19.633 17.9247 19.312 15.3632C19.1538 14.121 19.2398 14.1769 20.7823 5.77539C22.3334 8.16894 25.5474 11.4338 28.8178 12.6113L26.6927 11.5768C27.3672 10.4635 28.3782 9.47426 29.5278 8.87643C30.5886 8.29184 31.9752 7.96908 32.7659 7.97669Z" fill="#FFE773"/>
<path d="M24.1024 9.60278C23.9698 10.3442 23.7198 10.5553 23.628 11.0578C23.4836 11.842 23.9222 12.2909 22.8875 13.3692C22.16 14.1296 21.2755 14.7376 20.3067 15.1465C19.9915 15.1465 19.6576 15.3421 19.312 15.3632C19.1538 14.121 19.2398 14.1769 20.7823 5.77539C21.3847 6.70488 22.6983 8.31421 24.1024 9.60278Z" fill="#FFEC8F"/>
<path d="M31.3678 15.5897C30.3357 21.1755 23.2397 22.4989 20.2559 17.9258C20.7198 17.2169 21.0111 16.6025 21.4754 16.4215C21.855 16.2739 22.2873 16.4285 22.688 16.3582C23.426 16.2282 23.8735 15.3929 24.6069 15.2406C24.9155 15.175 24.9639 15.3253 25.1083 15.4515C25.2887 15.6108 25.5594 15.6296 25.7902 15.5593C26.1107 15.4627 26.8672 14.9231 27.1128 14.5447C27.2897 14.2741 27.36 13.9109 27.2054 13.6286C27.9798 13.44 28.8561 13.9613 29.0587 14.7322C29.0845 14.8329 29.1021 14.9395 29.1583 15.0274C29.4904 15.5554 30.2736 14.8223 31.3678 15.5897Z" fill="#EFD66C"/>
<path d="M21.519 10.2719C21.9991 10.2026 22.5079 10.494 22.6913 10.943C22.8746 11.3921 22.7152 11.9563 22.3239 12.2429C22.1818 12.3469 22.0138 12.4175 21.8911 12.5441C21.5992 12.8451 21.6637 13.3328 21.5292 13.7301C21.4573 13.9423 21.2689 14.1576 21.0494 14.1131C20.377 13.9768 20.8547 12.7876 21.0796 12.4488C21.2658 12.1686 21.4996 11.9294 21.5746 11.5894C21.6713 11.1504 21.4849 10.7126 21.519 10.2719Z" fill="white"/>
<path d="M47.4659 2.274C45.971 4.241 44.5605 5.58123 43.6326 5.92449C42.9508 4.05942 42.0347 2.5294 41.0752 1.57694C44.1387 0.00709468 45.7719 0.858797 47.4659 2.274Z" fill="#BD923A"/>
<path d="M44.0376 15.2891C40.2018 16.1745 36.5703 13.2543 36.5703 9.35299V3.27393C36.5703 2.05436 37.347 0.961326 38.5069 0.587608C39.3487 0.307027 40.2168 0.791806 40.8745 1.38659C42.1161 2.50552 43.0595 4.35642 43.6335 5.9251L44.0376 15.2891Z" fill="#FFE773"/>
<path d="M47.321 13.2761C44.4702 16.6634 39.0337 15.9784 37.1416 11.9336C37.5947 11.2706 37.7168 10.4383 38.278 9.88338C38.592 9.57058 39.0653 9.38079 39.487 9.51786C40.4475 9.82937 40.1967 11.1075 43.4444 10.6015C43.7666 11.0385 43.6389 11.6992 43.9763 12.1257C44.2576 12.4814 44.5113 12.5042 47.321 13.2761Z" fill="#EFD66C"/>
<path d="M43.6318 5.92605C44.7762 5.50184 46.6575 3.56026 48.5224 0.795804C48.5917 0.692944 48.7526 0.742383 48.7526 0.866331V9.35383C48.7526 12.2452 46.7387 14.6655 44.036 15.29L43.6318 5.92605Z" fill="#FFE773"/>
<path d="M48.7526 0.866334V9.35406C48.7526 12.2454 46.7387 14.6658 44.036 15.2902C45.3328 12.8776 44.5809 8.53025 43.6318 5.92617C44.7764 5.50208 46.6579 3.56085 48.523 0.796043C48.5921 0.692948 48.7526 0.742152 48.7526 0.866334Z" fill="#D1B84E"/>
<path d="M48.7537 7.84766V9.35307C48.7537 12.2444 46.7398 14.6648 44.0371 15.2892C44.3815 14.6484 44.603 13.7803 44.6873 12.7622C44.9598 12.3686 45.3947 12.0982 45.6468 11.6903C46.4257 10.4303 45.1942 8.92394 48.7537 7.84766Z" fill="#BD923A"/>
<path d="M41.156 1.65953C40.746 3.29499 41.06 5.11672 40.2879 6.61627C39.8885 7.39066 39.2359 7.99868 38.5963 8.58913C38.0972 9.04954 37.3169 9.73137 36.5929 9.87547C36.5605 9.53479 36.5695 9.92081 36.5695 3.2739C36.5695 2.05434 37.3462 0.961302 38.506 0.587584C39.4599 0.269631 40.4555 0.932599 41.156 1.65953Z" fill="#FFEC8F"/>
<path d="M39.642 7.22656C40.0023 6.66681 40.1476 5.88844 39.7509 5.35387C39.6781 5.25582 39.5889 5.16819 39.5358 5.05818C39.3762 4.72746 39.5898 4.34917 39.6566 3.98811C39.7557 3.4519 39.4149 2.81927 38.8729 2.75976C38.688 2.73949 38.6457 2.88019 38.6536 3.06564C38.7683 5.71084 38.755 6.11232 38.6824 6.51064C38.637 6.76076 38.2981 7.31361 38.3812 7.54463C38.6015 8.15641 39.4428 7.53608 39.642 7.22656Z" fill="white"/>
<path d="M37.2491 26.7738C36.0998 27.2283 34.7572 28.0753 33.7275 29.6581L33.588 29.8396C32.6741 29.3021 31.3842 28.3041 30.1484 27.0338C30.8825 25.9629 32.4619 23.8789 33.7579 23.8789C35.1175 23.8789 36.5992 25.5879 37.2491 26.7738Z" fill="#D1B84E"/>
<path d="M37.2491 26.7748C36.0998 27.2294 34.7572 28.0764 33.7275 29.6591L33.588 29.8407C32.6741 29.3032 31.3842 28.3052 30.1484 27.0349C30.3909 26.6811 30.692 26.2664 31.0283 25.854C31.7691 26.1851 33.5121 26.3603 34.1738 26.052C34.6437 25.8293 34.8273 25.3699 35.7378 24.8535C36.3927 25.4557 36.9421 26.2148 37.2491 26.7748Z" fill="#BD923A"/>
<path d="M39.4743 27.3669C38.7222 31.4616 39.0271 29.8019 38.2606 33.9732C37.6521 37.2905 34.4819 39.4469 31.2174 38.8725C27.8828 38.2869 25.6879 34.9756 26.2981 31.6606L27.4017 25.6506C27.5118 25.0567 28.2686 24.8657 28.647 25.3367C30.3316 27.4427 32.2224 29.0378 33.5885 29.8412L33.7279 29.6596C34.8524 27.9315 36.5409 26.8174 38.4879 26.4016C39.0654 26.2786 39.5809 26.7858 39.4743 27.3669Z" fill="#FFE773"/>
<path d="M38.8753 30.625L38.2602 33.9721C37.3733 38.8077 31.3558 40.667 27.9707 37.141C28.3901 36.101 28.2365 34.549 28.9653 33.3582C29.1434 33.7706 29.332 34.1993 29.6741 34.4922C30.015 34.7851 30.5551 34.8987 30.9136 34.6269C31.3224 34.3153 31.4045 33.6054 31.907 33.5023C32.6107 33.359 32.9979 34.5986 34.3227 33.746C35.1478 33.215 36.1858 31.4664 38.8753 30.625Z" fill="#EFD66C"/>
<path d="M30.8392 27.7149C30.4917 33.5326 29.6802 32.5535 26.2374 33.4941C26.0934 32.2675 26.2175 32.0944 27.4007 25.6507C27.5074 25.0753 28.25 24.8415 28.6648 25.3602C29.3756 26.2437 30.1358 27.0556 30.8392 27.7149Z" fill="#FFEC8F"/>
<path d="M28.616 28.625C29.6909 29.0626 30.1007 30.1442 29.6836 30.9327C29.5847 31.1195 29.4422 31.2817 29.3538 31.4738C29.2881 31.6167 29.2542 31.7728 29.1868 31.9149C28.9812 32.3482 28.4938 32.5243 28.4102 32.46C28.1565 32.2646 29.0129 28.7866 28.616 28.625Z" fill="white"/>
<path d="M56.0887 20.6973C55.2464 21.8794 54.0163 23.6648 52.7534 25.7091C52.2672 23.4973 50.5673 21.2538 49.5469 20.0635C50.2674 19.2563 51.385 18.2559 52.5026 18.2559C53.632 18.2559 55.0999 19.616 56.0887 20.6973Z" fill="#D1B84E"/>
<path d="M59.0635 20.4414V28.566C59.0635 30.3772 58.329 32.0173 57.1422 33.2052C53.0062 37.3371 45.9424 34.385 45.9424 28.566V21.1502C45.9424 19.4816 48.0537 18.3126 49.5472 20.0642C50.865 21.6038 52.3174 23.7205 52.7537 25.7098C53.9458 23.7801 55.3535 21.6868 56.8095 19.7022C57.5278 18.7268 59.0635 19.2528 59.0635 20.4414Z" fill="#FFE773"/>
<path d="M51.2705 22.3787C50.8319 22.6961 50.3101 23.254 49.7288 23.6006C48.783 24.1654 48.3321 24.005 46.971 26.089C46.7097 26.4896 46.3606 27.0742 45.9424 27.5885V21.151C45.9424 19.4824 48.0537 18.3134 49.5472 20.065C50.0345 20.6343 50.6789 21.445 51.2705 22.3787Z" fill="#FFEC8F"/>
<path d="M59.0626 20.4411V28.5657C59.0626 34.1568 52.4795 37.1708 48.2412 33.5552C49.7855 32.2109 51.5867 30.3962 52.5021 28.5657C52.9426 27.6847 52.9695 26.6995 52.7528 25.7095C53.9535 23.766 55.3632 21.6722 56.8086 19.7019C57.5205 18.7351 59.0626 19.2386 59.0626 20.4411Z" fill="#EFD66C"/>
<path d="M59.0628 26.6816V28.5655C59.0628 32.5805 55.488 35.6566 51.5088 35.051C52.4652 34.0946 51.6517 33.9428 54.1553 31.8821C56.0735 30.3027 56.2527 30.4665 56.5721 30.0228C56.9939 29.4371 56.7514 28.5971 57.0232 27.927C57.3357 27.1582 58.2396 26.8084 59.0628 26.6816Z" fill="#D1B84E"/>
<path d="M47.8867 21.8515C48.0376 21.3714 48.3733 21.4179 48.5429 21.879C48.9982 23.1169 48.1357 23.0786 47.982 23.7537C47.9245 24.0066 47.9891 24.1742 47.4683 24.3053C47.3653 24.3312 47.6418 23.202 47.6497 23.1214C47.693 22.6842 47.7535 22.2753 47.8867 21.8515Z" fill="white"/>
</g>
<defs>
<clipPath id="clip0_3113_26682">
<rect width="60" height="60" fill="white"/>
</clipPath>
</defs>
</svg>
