<svg width="48" height="48" viewBox="0 0 48 48" fill="none" xmlns="http://www.w3.org/2000/svg">
<g clip-path="url(#clip0_3113_26759)">
<path d="M14.2728 42.0027C12.9402 42.9474 12.1146 44.4512 12.0328 46.0827C11.9919 46.4899 11.6501 46.8006 11.2408 46.8027H5.60078C5.15895 46.8027 4.80078 46.4445 4.80078 46.0027V45.2027C4.80342 44.3201 5.51822 43.6053 6.40078 43.6027H8.00078V40.7227L14.2728 42.0027Z" fill="#F3D55B"/>
<path d="M40.0005 40.7227V43.6027H41.6005C42.4831 43.6053 43.1979 44.3201 43.2005 45.2027V46.0027C43.2005 46.4445 42.8423 46.8027 42.4005 46.8027H36.7605C36.3512 46.8006 36.0094 46.4899 35.9685 46.0827C35.8867 44.4512 35.0611 42.9474 33.7285 42.0027L40.0005 40.7227Z" fill="#F3D55B"/>
<path d="M39.5202 27.6027H44.8002V32.4027C44.804 34.95 43.7938 37.394 41.9927 39.1952C40.1915 40.9964 37.7475 42.0066 35.2002 42.0027H12.8002C10.253 42.0066 7.80893 40.9964 6.00775 39.1952C4.20657 37.394 3.19638 34.95 3.20021 32.4027L3.2002 22.8027H12.3122C14.2317 22.8037 16.0864 23.4968 17.5362 24.7547C19.2401 26.2076 21.3254 27.1406 23.5442 27.4427V27.4507C24.2247 27.5533 24.912 27.6042 25.6002 27.6027H39.5202Z" fill="#3B97D3"/>
<path d="M27.1998 27.2022L27.1999 29.2022L25.5998 29.2022C24.9116 29.2036 24.2243 29.1528 23.5438 29.0502V29.0422C21.325 28.74 19.2397 27.8071 17.5358 26.3542C16.086 25.0962 14.2313 24.4032 12.3118 24.4022H1.5998C1.15798 24.4022 0.799805 24.044 0.799805 23.6022V22.8022C0.799805 21.4767 1.87432 20.4022 3.1998 20.4022H11.9998C14.9427 20.3518 17.8053 21.3628 20.0638 23.2502C20.385 23.5308 20.7303 23.7824 21.0958 24.0022C22.3278 24.7711 23.7476 25.1863 25.1998 25.2022C26.0086 25.2001 26.7386 25.6868 27.0478 26.4342C27.1503 26.6772 27.202 26.9385 27.1998 27.2022Z" fill="#ECF0F1"/>
<path d="M47.2001 27.6031V28.4031C47.2001 28.845 46.8419 29.2031 46.4001 29.2031H39.5201V27.2031C39.5196 26.5166 39.3837 25.837 39.1201 25.2031H44.8001C46.1256 25.2031 47.2001 26.2776 47.2001 27.6031Z" fill="#ECF0F1"/>
<path d="M47.2 47.602H0.8C0.358172 47.602 0 47.2438 0 46.802C0 46.3601 0.358172 46.002 0.8 46.002H47.2C47.6418 46.002 48 46.3601 48 46.802C48 47.2438 47.6418 47.602 47.2 47.602Z" fill="#46B29D"/>
<path d="M12.7996 39.6016C8.82499 39.5972 5.60402 36.3762 5.59961 32.4016C5.59961 31.9597 5.95778 31.6016 6.39961 31.6016C6.84144 31.6016 7.19961 31.9597 7.19961 32.4016C7.20314 35.4929 9.70828 37.998 12.7996 38.0016C13.2414 38.0016 13.5996 38.3597 13.5996 38.8016C13.5996 39.2434 13.2414 39.6016 12.7996 39.6016Z" fill="white"/>
<path d="M31.9997 38.0027H28.7997C27.9171 38.0001 27.2023 37.2853 27.1997 36.4027V27.2027C27.2019 26.939 27.1502 26.6777 27.0477 26.4347C26.7385 25.6873 26.0085 25.2006 25.1997 25.2027C23.7475 25.1868 22.3277 24.7717 21.0957 24.0027C22.083 22.7399 23.5968 22.0022 25.1997 22.0027C25.3066 21.9998 25.4136 22.0052 25.5197 22.0187C28.2616 22.1838 30.4004 24.4559 30.3997 27.2027V36.4027C30.4023 37.2853 31.1171 38.0001 31.9997 38.0027Z" fill="#26B99A"/>
<path d="M39.5195 27.202V36.402C39.5169 37.2845 38.8021 37.9993 37.9195 38.002H31.9995C31.117 37.9993 30.4022 37.2845 30.3995 36.402V27.202C30.4003 24.4551 28.2614 22.183 25.5195 22.018V22.002H34.3195C37.1914 22.002 39.5195 24.3301 39.5195 27.202Z" fill="#81CCB8"/>
<path d="M19.8648 4.41039L17.2728 1.81039C16.374 0.904296 15.149 0.397018 13.8728 0.402386H9.60078C6.94981 0.402386 4.80078 2.55142 4.80078 5.20239V20.4024H8.00078V5.20239C8.00342 4.31982 8.71822 3.60502 9.60078 3.60239H13.8728C14.2994 3.60107 14.7087 3.77112 15.0088 4.07439L16.6808 5.74639L19.8648 4.41039Z" fill="#BDC3C7"/>
<path d="M24.7922 9.25878C24.7676 9.6777 24.4198 10.0044 24.0002 10.0028H16.0002C15.5584 10.0028 15.2002 9.64461 15.2002 9.20278C15.2081 6.60901 17.2716 4.48887 19.8642 4.41078C19.9092 4.40389 19.9547 4.40121 20.0002 4.40278C20.2114 4.4044 20.4224 4.41775 20.6322 4.44278C23.0136 4.80825 24.7768 6.84951 24.7922 9.25878Z" fill="#95A5A5"/>
<path d="M20.0012 18.0023C19.5593 18.0023 19.2012 17.6442 19.2012 17.2023V13.2023C19.2012 12.7605 19.5593 12.4023 20.0012 12.4023C20.443 12.4023 20.8012 12.7605 20.8012 13.2023V17.2023C20.8012 17.6442 20.443 18.0023 20.0012 18.0023Z" fill="#3B97D3"/>
<path d="M15.201 18.0031C14.9353 18.0033 14.6869 17.8716 14.538 17.6517C14.389 17.4317 14.359 17.1521 14.4578 16.9055L16.0578 12.9055C16.2222 12.4951 16.6882 12.2956 17.0986 12.4599C17.5091 12.6243 17.7086 13.0903 17.5442 13.5007L15.9442 17.5007C15.8225 17.8044 15.5282 18.0034 15.201 18.0031Z" fill="#3B97D3"/>
<path d="M24.8012 18.0031C24.474 18.0034 24.1797 17.8044 24.058 17.5007L22.458 13.5007C22.2936 13.0903 22.4931 12.6243 22.9036 12.4599C23.314 12.2956 23.78 12.4951 23.9444 12.9055L25.5444 16.9055C25.6432 17.1521 25.6132 17.4317 25.4642 17.6517C25.3153 17.8716 25.0668 18.0033 24.8012 18.0031Z" fill="#3B97D3"/>
</g>
<defs>
<clipPath id="clip0_3113_26759">
<rect width="48" height="48" fill="white"/>
</clipPath>
</defs>
</svg>
