<svg width="770" height="771" viewBox="0 0 770 771" fill="none" xmlns="http://www.w3.org/2000/svg">
<path d="M99.9551 476.216C99.9551 476.216 168.235 482.97 202.837 525.298C202.837 525.298 239.398 476.263 305.072 477.265C321.126 457.909 331.35 434.39 334.554 409.447C337.758 384.504 333.809 359.165 323.168 336.38C312.528 313.594 295.632 294.301 274.45 280.747C253.268 267.193 228.671 259.935 203.524 259.82C178.377 259.704 153.714 266.736 132.409 280.095C111.103 293.455 94.0319 312.592 83.1825 335.279C72.3331 357.966 68.1524 383.268 71.1273 408.239C74.1022 433.21 84.1103 456.822 99.9859 476.324L99.9551 476.216Z" fill="#DEDEDE"/>
<path d="M268.574 399.455C268.574 399.455 227.757 409.124 205.244 441.953L203.949 394.151L204.041 394.799C204.041 394.799 227.094 353.303 268.574 340.628C268.574 340.628 225.861 350.759 203.718 385.439L200.634 269.172L199.662 413.303C177.951 380.304 138.398 370.589 138.398 370.589C173.34 381.661 194.712 414.66 199.6 422.878L199.277 470.357C177.488 437.82 138.398 428.214 138.398 428.214C172.507 439.008 193.679 470.711 199.215 479.871L198.321 649.907H209.855L207.048 507.581C214.496 496.324 235.76 468.213 268.62 458.237C268.62 458.237 229.592 467.489 206.817 498.606L205.537 451.22C211.104 442.215 233.093 410.296 268.574 399.455Z" fill="#263238"/>
<path opacity="0.6" d="M268.574 399.455C268.574 399.455 227.757 409.124 205.244 441.953L203.949 394.151L204.041 394.799C204.041 394.799 227.094 353.303 268.574 340.628C268.574 340.628 225.861 350.759 203.718 385.439L200.634 269.172L199.662 413.303C177.951 380.304 138.398 370.589 138.398 370.589C173.34 381.661 194.712 414.66 199.6 422.878L199.277 470.357C177.488 437.82 138.398 428.214 138.398 428.214C172.507 439.008 193.679 470.711 199.215 479.871L198.321 649.907H209.855L207.048 507.581C214.496 496.324 235.76 468.213 268.62 458.237C268.62 458.237 229.592 467.489 206.817 498.606L205.537 451.22C211.104 442.215 233.093 410.296 268.574 399.455Z" fill="white"/>
<path d="M475.955 476.216C475.955 476.216 544.234 482.97 578.837 525.298C578.837 525.298 615.398 476.262 681.072 477.265C697.131 457.907 707.36 434.385 710.567 409.438C713.774 384.492 709.827 359.147 699.186 336.357C688.545 313.567 671.648 294.269 650.462 280.712C629.277 267.154 604.676 259.895 579.524 259.78C554.372 259.664 529.705 266.698 508.396 280.06C487.088 293.423 470.014 312.565 459.164 335.256C448.315 357.948 444.135 383.255 447.113 408.23C450.092 433.205 460.104 456.82 475.986 476.324L475.955 476.216Z" fill="#DEDEDE"/>
<path d="M644.574 399.455C644.574 399.455 603.757 409.124 581.229 441.953L579.949 394.151L580.041 394.799C580.041 394.799 603.094 353.303 644.574 340.628C644.574 340.628 601.861 350.759 579.718 385.439L576.634 269.172L575.662 413.303C553.951 380.304 514.398 370.589 514.398 370.589C549.325 381.661 570.712 414.66 575.585 422.878L575.277 470.357C553.488 437.82 514.398 428.214 514.398 428.214C548.507 439.008 569.679 470.711 575.215 479.871L574.321 651.526H585.855L583.048 507.581C590.481 496.324 611.76 468.213 644.62 458.237C644.62 458.237 605.592 467.489 582.802 498.606L581.522 451.22C587.104 442.215 609.077 410.296 644.574 399.455Z" fill="#263238"/>
<path opacity="0.6" d="M644.574 399.455C644.574 399.455 603.757 409.124 581.229 441.953L579.949 394.151L580.041 394.799C580.041 394.799 603.094 353.303 644.574 340.628C644.574 340.628 601.861 350.759 579.718 385.439L576.634 269.172L575.662 413.303C553.951 380.304 514.398 370.589 514.398 370.589C549.325 381.661 570.712 414.66 575.585 422.878L575.277 470.357C553.488 437.82 514.398 428.214 514.398 428.214C548.507 439.008 569.679 470.711 575.215 479.871L574.321 651.526H585.855L583.048 507.581C590.481 496.324 611.76 468.213 644.62 458.237C644.62 458.237 605.592 467.489 582.802 498.606L581.522 451.22C587.104 442.215 609.077 410.296 644.574 399.455Z" fill="white"/>
<path d="M188.496 398.083C188.496 398.083 264.625 405.608 303.206 452.793C303.206 452.793 343.976 398.129 417.19 399.255C435.1 377.666 446.507 351.434 450.083 323.612C453.659 295.791 449.257 267.526 437.389 242.11C425.521 216.694 406.677 195.173 383.05 180.053C359.423 164.934 331.987 156.838 303.937 156.71C275.887 156.581 248.378 164.425 224.614 179.327C200.85 194.229 181.808 215.577 169.708 240.883C157.608 266.189 152.947 294.412 156.268 322.265C159.589 350.118 170.755 376.454 188.465 398.206L188.496 398.083Z" fill="#EDEDED"/>
<path d="M376.5 312.487C376.5 312.487 330.995 323.281 305.876 359.872L304.442 306.643L304.55 307.352C304.55 307.352 330.24 261.092 376.5 246.952C376.5 246.952 328.883 258.255 304.18 296.928L300.695 167.292L299.693 327.984C275.483 291.192 231.382 280.367 231.382 280.367C270.333 292.703 294.172 329.495 299.616 338.67L299.184 391.668C274.897 355.385 231.336 344.684 231.336 344.684C269.362 356.711 293.016 392.054 299.184 402.262L298.197 647.44H311.042L307.958 433.241C316.254 420.689 339.97 389.355 376.608 378.16C376.608 378.16 333.093 388.477 307.68 423.156L306.262 370.343C312.414 360.165 336.932 324.576 376.5 312.487Z" fill="#263238"/>
<path opacity="0.6" d="M376.5 312.487C376.5 312.487 330.995 323.281 305.876 359.872L304.442 306.643L304.55 307.352C304.55 307.352 330.24 261.092 376.5 246.952C376.5 246.952 328.883 258.255 304.18 296.928L300.695 167.292L299.693 327.984C275.483 291.192 231.382 280.367 231.382 280.367C270.333 292.703 294.172 329.495 299.616 338.67L299.184 391.668C274.897 355.385 231.336 344.684 231.336 344.684C269.362 356.711 293.016 392.054 299.184 402.262L298.197 647.44H311.042L307.958 433.241C316.254 420.689 339.97 389.355 376.608 378.16C376.608 378.16 333.093 388.477 307.68 423.156L306.262 370.343C312.414 360.165 336.932 324.576 376.5 312.487Z" fill="white"/>
<path d="M719.219 652.544L730.013 653.053" stroke="#263238" stroke-miterlimit="10"/>
<path d="M72.2422 654.857C72.2422 654.857 112.889 653.962 148.124 652.158C183.359 650.354 245.702 648.534 281.831 648.534C317.96 648.534 355.924 642.212 431.806 648.534C507.688 654.857 556.492 653.962 599.884 651.248C629.351 649.413 678.865 650.909 707.562 652.05" stroke="#263238" stroke-miterlimit="10"/>
<path d="M300.578 682.336C312.652 681.811 332.42 680.794 357.725 679.252C401.086 676.553 425.48 683.77 456.197 683.77C486.913 683.77 499.558 684.679 509.504 684.679" stroke="#263238" stroke-miterlimit="10"/>
<path d="M287.258 682.875L294.752 682.582" stroke="#263238" stroke-miterlimit="10"/>
<path d="M324.141 709.073H332.421" stroke="#263238" stroke-miterlimit="10"/>
<path d="M116.297 703.491C132.611 701.842 155.525 699.683 168 699.128C188.786 698.233 237.56 709.074 269.186 709.074H313.904" stroke="#263238" stroke-miterlimit="10"/>
<path d="M97.5312 705.45L106.043 704.556" stroke="#263238" stroke-miterlimit="10"/>
<path d="M664.906 703.954C671.521 704.309 675.7 704.556 675.7 704.556" stroke="#263238" stroke-miterlimit="10"/>
<path d="M438.055 712.682C438.055 712.682 481.431 709.968 510.328 704.556C539.225 699.143 570.867 701.842 600.674 701.842C617.127 701.842 638.253 702.674 653.888 703.384" stroke="#263238" stroke-miterlimit="10"/>
<path d="M334.047 468.043C334.047 468.043 330.161 494.133 334.047 513.563C337.933 532.992 341.757 551.866 341.757 551.866C341.757 551.866 338.426 571.295 340.647 587.949C342.867 604.602 346.815 642.35 345.643 649.012C344.471 655.673 337.933 668.441 327.324 677.878C316.715 687.315 317.887 692.866 321.156 695.642C324.425 698.418 340.585 698.973 348.357 696.752C356.129 694.532 363.885 687.87 366.66 686.76C369.436 685.65 378.318 686.205 380.538 681.764C382.759 677.323 378.318 651.788 377.208 649.012C376.098 646.236 381.649 597.386 382.759 583.508C383.869 569.63 383.314 548.042 383.314 548.042C383.314 548.042 389.976 495.86 387.2 478.097C384.424 460.333 334.047 468.043 334.047 468.043Z" fill="#263238" stroke="#263238" stroke-miterlimit="10"/>
<path d="M366.784 686.76C369.559 685.65 378.441 686.205 380.662 681.764C382.882 677.323 378.441 651.788 377.331 649.012C376.344 646.514 380.708 606.931 382.42 588.874C369.174 593.7 351.426 591.31 340.786 589.121C343.022 606.268 346.722 642.551 345.643 649.074C344.564 655.596 337.933 668.503 327.324 677.94C316.715 687.377 317.887 692.928 321.156 695.704C324.425 698.479 340.585 699.035 348.357 696.814C356.129 694.594 364.008 687.87 366.784 686.76Z" fill="white" stroke="#263238" stroke-miterlimit="10"/>
<path d="M377.967 590.123C365.416 593.114 350.289 591.017 340.852 589.059C341.453 593.685 342.162 599.729 342.856 606.206C349.795 608.565 365.076 612.297 380.697 606.206C381.267 600.485 381.807 595.103 382.239 590.693C381.051 590.585 379.617 590.369 377.967 590.123Z" fill="#263238" stroke="#263238" stroke-miterlimit="10"/>
<path d="M339.047 574.07C347.085 575.81 355.246 576.923 363.457 577.401C371.002 577.689 378.533 576.559 385.662 574.07C385.662 574.07 388.992 575.181 387.882 579.622C386.772 584.062 387.327 598.496 385.106 601.826C382.886 605.157 369.563 605.712 359.031 605.712C348.499 605.712 340.712 603.492 339.602 600.716C338.492 597.94 337.382 578.511 337.382 578.511C337.382 578.511 335.161 575.736 339.047 574.07Z" fill="white" stroke="#263238" stroke-miterlimit="10"/>
<path d="M348.483 696.752C356.193 694.531 364.011 687.87 366.787 686.76C369.562 685.65 378.444 686.205 380.665 681.764C381.297 680.53 381.389 677.647 381.189 674.054C374.048 675.001 367.422 678.287 362.346 683.398C355.145 690.615 349.038 693.946 336.271 694.501C330.155 694.815 324.107 693.091 319.077 689.597C318.859 690.705 318.949 691.852 319.338 692.913C319.727 693.973 320.399 694.906 321.282 695.611C324.613 698.417 340.712 698.972 348.483 696.752Z" fill="white" stroke="#263238" stroke-miterlimit="10"/>
<path d="M454.188 468.043C454.188 468.043 458.074 494.133 454.188 513.563C450.303 532.992 446.478 551.866 446.478 551.866C446.478 551.866 449.809 571.295 447.589 587.949C445.368 604.602 441.421 642.35 442.593 649.012C443.765 655.673 450.303 668.441 460.912 677.878C471.521 687.315 470.349 692.866 467.08 695.642C463.811 698.418 447.65 698.973 439.879 696.752C432.107 694.532 424.335 687.87 421.56 686.76C418.784 685.65 409.902 686.205 407.682 681.764C405.461 677.323 409.902 651.788 411.012 649.012C412.123 646.236 406.572 597.386 405.461 583.508C404.351 569.63 404.906 548.042 404.906 548.042C404.906 548.042 398.245 495.86 401.02 478.097C403.796 460.333 454.188 468.043 454.188 468.043Z" fill="#263238" stroke="#263238" stroke-miterlimit="10"/>
<path d="M421.511 686.76C418.735 685.65 409.853 686.205 407.633 681.764C405.412 677.323 409.853 651.788 410.964 649.012C411.951 646.514 407.587 606.931 405.875 588.874C419.121 593.7 436.869 591.31 447.509 589.121C445.273 606.268 441.572 642.551 442.667 649.074C443.762 655.596 450.377 668.503 460.986 677.94C471.595 687.377 470.423 692.928 467.154 695.704C463.885 698.479 447.725 699.035 439.953 696.814C432.182 694.594 424.209 687.87 421.511 686.76Z" fill="white" stroke="#263238" stroke-miterlimit="10"/>
<path d="M445.163 608.041C445.919 600.886 446.705 594.163 447.368 589.059C436.79 591.249 419.042 593.685 405.734 588.812C406.212 593.901 406.906 600.686 407.631 607.856C415.218 609.367 432.025 611.912 445.163 608.041Z" fill="#263238" stroke="#263238" stroke-miterlimit="10"/>
<path d="M449.265 574.07C441.221 575.81 433.055 576.924 424.839 577.401C417.295 577.689 409.763 576.559 402.635 574.07C402.635 574.07 399.304 575.181 400.414 579.622C401.524 584.062 400.969 598.496 403.19 601.826C405.41 605.157 418.733 605.712 429.28 605.712C439.828 605.712 447.599 603.492 448.71 600.716C449.82 597.94 450.93 578.511 450.93 578.511C450.93 578.511 453.073 575.736 449.265 574.07Z" fill="white" stroke="#263238" stroke-miterlimit="10"/>
<path d="M439.75 696.752C432.04 694.531 424.207 687.87 421.432 686.76C418.656 685.65 409.774 686.205 407.554 681.764C406.937 680.53 406.829 677.647 407.029 674.054C414.17 675.001 420.796 678.287 425.872 683.398C433.089 690.615 439.195 693.946 451.963 694.501C458.078 694.807 464.123 693.083 469.156 689.597C469.375 690.705 469.285 691.852 468.896 692.913C468.507 693.973 467.834 694.906 466.951 695.611C463.621 698.417 447.522 698.972 439.75 696.752Z" fill="white" stroke="#263238" stroke-miterlimit="10"/>
<path d="M515.482 226.844C515.482 226.844 514.742 215.726 517.024 210.159C519.306 204.592 522.22 200.506 527.818 195.31C533.415 190.113 537.471 187.152 537.471 189.003C537.623 191.435 536.821 193.83 535.235 195.68C533.014 198.656 530.038 203.852 530.038 203.852C533.438 203.843 536.816 203.324 540.061 202.31C544.016 200.436 547.857 198.33 551.565 196.004C551.565 196.004 549.329 184.886 550.824 184.886C552.32 184.886 558.612 198.61 559.722 200.83C560.062 201.505 560.209 202.262 560.147 203.016C560.084 203.769 559.814 204.491 559.367 205.101C556.561 208.972 550.377 217.144 546.738 219.38C541.912 222.356 530.408 226.427 530.408 226.427L528.866 232.364L515.482 226.844Z" fill="white" stroke="#263238" stroke-miterlimit="10"/>
<path d="M560.611 201.107C561.569 198.943 562.213 196.653 562.523 194.307C562.955 190.683 563.371 182.819 560.981 183.019C558.591 183.22 558.853 187.923 558.853 191.331C558.853 194.739 557.203 200.459 557.203 201.107C557.203 201.755 559.115 203.667 560.611 201.107Z" fill="white" stroke="#263238" stroke-miterlimit="10"/>
<path d="M555.172 208.293C555.172 208.293 560.739 201.986 560.739 199.041C560.739 196.096 559.628 182.711 557.038 183.451C554.447 184.192 555.927 198.301 555.927 198.301L555.172 203.127V208.293Z" fill="white" stroke="#263238" stroke-miterlimit="10"/>
<path d="M524.379 223.143C524.379 223.143 524.009 221.601 527.355 215.726C530.702 209.851 544.425 206.813 545.859 206.474C547.293 206.135 551.426 202.017 551.426 202.017C551.426 202.017 546.6 192.01 548.82 191.223C551.041 190.437 558.072 200.475 558.072 204.577C558.072 208.679 548.419 216.821 548.419 216.821" fill="white"/>
<path d="M524.379 223.143C524.379 223.143 524.009 221.601 527.355 215.726C530.702 209.851 544.425 206.813 545.859 206.474C547.293 206.135 551.426 202.017 551.426 202.017C551.426 202.017 546.6 192.01 548.82 191.223C551.041 190.437 558.072 200.475 558.072 204.577C558.072 208.679 548.419 216.821 548.419 216.821" stroke="#263238" stroke-miterlimit="10"/>
<path d="M505.302 244.992L490.684 279.61C490.684 279.61 469.528 239.996 467.23 239.225C464.933 238.454 446.074 232.687 446.074 232.687L429.528 228.848L396.221 235.016L362.744 228.848L346.122 232.687C346.122 232.687 327.17 238.454 324.857 239.225C322.544 239.996 301.234 279.61 301.234 279.61L286.539 244.992L259.477 258.454C259.477 258.454 262.19 276.156 267.187 289.618C272.183 303.08 282.267 324.621 283.424 326.163C284.58 327.705 288.62 329.864 291.134 328.846C307.294 322.416 334.001 300.612 334.834 299.641L339.075 340.396C339.075 340.396 322.113 381.937 321.295 395.399C320.478 408.861 314.341 500.024 314.341 500.024C314.341 500.024 334.048 508.875 352.999 510.818C359.645 511.481 378.904 512.684 387.848 513.223L393.492 486.392L399.398 513.162C410.731 512.607 432.72 511.465 439.073 510.818C457.917 508.89 477.531 500.024 477.531 500.024C477.531 500.024 471.363 408.861 470.607 395.399C469.852 381.937 452.92 340.396 452.92 340.396L457.146 299.641C457.963 300.612 484.531 322.416 500.615 328.846C503.143 329.864 507.153 327.705 508.324 326.163C509.496 324.621 519.473 303.033 524.485 289.618C529.496 276.202 532.195 258.454 532.195 258.454L505.302 244.992Z" fill="#FFA500" stroke="#263238" stroke-miterlimit="10"/>
<path d="M327.76 391.775L382.377 398.776L380.974 416.987C380.974 416.987 366.973 416.339 361.375 416.339C355.778 416.339 351.83 419.053 349.733 419.053C347.636 419.053 341.329 414.15 337.829 412.747C333.617 411.518 329.318 410.611 324.969 410.033L327.76 391.775Z" fill="#FFA500" stroke="#263238" stroke-miterlimit="10"/>
<path d="M348.616 414.767C349.306 414.767 349.865 414.207 349.865 413.518C349.865 412.828 349.306 412.269 348.616 412.269C347.926 412.269 347.367 412.828 347.367 413.518C347.367 414.207 347.926 414.767 348.616 414.767Z" fill="#FFA500" stroke="#263238" stroke-miterlimit="10"/>
<path d="M462.571 391.775L407.953 398.776L409.356 416.987C409.356 416.987 423.358 416.278 428.971 416.278C434.583 416.278 438.5 418.992 440.613 418.992C442.725 418.992 449.017 414.088 452.517 412.685C456.729 411.456 461.028 410.549 465.377 409.971L462.571 391.775Z" fill="#FFA500" stroke="#263238" stroke-miterlimit="10"/>
<path d="M441.726 414.767C442.415 414.767 442.975 414.207 442.975 413.518C442.975 412.828 442.415 412.269 441.726 412.269C441.036 412.269 440.477 412.828 440.477 413.518C440.477 414.207 441.036 414.767 441.726 414.767Z" fill="#FFA500" stroke="#263238" stroke-miterlimit="10"/>
<path d="M501.398 254.229C506.425 259.549 516.942 268.77 529.154 268.369H530.357C531.56 262.633 532.192 258.531 532.192 258.531L505.253 245.069L501.398 254.229Z" fill="#263238" stroke="#263238" stroke-miterlimit="10"/>
<path d="M290.302 253.766L286.57 244.992L259.508 258.454C259.508 258.454 260.202 263.003 261.543 269.248C265.976 268.481 270.263 267.03 274.249 264.946C283.841 260.119 288.405 255.971 290.302 253.766Z" fill="#263238" stroke="#263238" stroke-miterlimit="10"/>
<path d="M392.984 263.203V477.526" stroke="#263238" stroke-miterlimit="10"/>
<path d="M392.984 255.386V259.04" stroke="#263238" stroke-miterlimit="10"/>
<path d="M402.899 263.543C402.902 264.178 402.717 264.799 402.366 265.329C402.015 265.858 401.516 266.272 400.93 266.517C400.344 266.762 399.699 266.828 399.075 266.706C398.452 266.584 397.879 266.279 397.429 265.831C396.979 265.383 396.672 264.812 396.547 264.189C396.422 263.567 396.485 262.921 396.727 262.334C396.969 261.747 397.38 261.245 397.908 260.892C398.436 260.539 399.057 260.351 399.692 260.351C400.54 260.351 401.353 260.686 401.954 261.285C402.555 261.883 402.895 262.695 402.899 263.543Z" stroke="#263238" stroke-miterlimit="10"/>
<path d="M402.899 296.511C402.899 297.145 402.711 297.766 402.359 298.293C402.006 298.82 401.505 299.232 400.919 299.474C400.333 299.717 399.688 299.781 399.066 299.657C398.444 299.533 397.872 299.228 397.424 298.779C396.975 298.33 396.67 297.759 396.546 297.137C396.422 296.515 396.486 295.87 396.729 295.284C396.971 294.698 397.382 294.197 397.91 293.844C398.437 293.492 399.057 293.304 399.692 293.304C400.114 293.302 400.531 293.383 400.922 293.544C401.312 293.704 401.666 293.94 401.964 294.239C402.262 294.537 402.499 294.891 402.659 295.281C402.82 295.671 402.901 296.089 402.899 296.511Z" stroke="#263238" stroke-miterlimit="10"/>
<path d="M402.899 329.463C402.902 330.098 402.717 330.72 402.366 331.25C402.015 331.779 401.516 332.193 400.93 332.438C400.344 332.683 399.699 332.748 399.075 332.626C398.452 332.504 397.879 332.2 397.429 331.752C396.979 331.304 396.672 330.733 396.547 330.11C396.422 329.488 396.485 328.842 396.727 328.255C396.969 327.668 397.38 327.166 397.908 326.813C398.436 326.46 399.057 326.271 399.692 326.271C400.54 326.271 401.353 326.607 401.954 327.205C402.555 327.804 402.895 328.615 402.899 329.463Z" stroke="#263238" stroke-miterlimit="10"/>
<path d="M402.899 362.369C402.899 363.004 402.711 363.624 402.359 364.151C402.006 364.679 401.505 365.09 400.919 365.333C400.333 365.575 399.688 365.639 399.066 365.515C398.444 365.391 397.872 365.086 397.424 364.637C396.975 364.189 396.67 363.617 396.546 362.995C396.422 362.373 396.486 361.728 396.729 361.142C396.971 360.556 397.382 360.055 397.91 359.703C398.437 359.35 399.057 359.162 399.692 359.162C400.542 359.162 401.358 359.5 401.96 360.102C402.561 360.703 402.899 361.519 402.899 362.369Z" stroke="#263238" stroke-miterlimit="10"/>
<path d="M402.899 395.383C402.902 396.018 402.717 396.64 402.366 397.169C402.015 397.699 401.516 398.112 400.93 398.358C400.344 398.603 399.699 398.668 399.075 398.546C398.452 398.424 397.879 398.12 397.429 397.672C396.979 397.224 396.672 396.653 396.547 396.03C396.422 395.408 396.485 394.762 396.727 394.175C396.969 393.588 397.38 393.086 397.908 392.733C398.436 392.38 399.057 392.191 399.692 392.191C400.54 392.191 401.353 392.527 401.954 393.125C402.555 393.724 402.895 394.535 402.899 395.383Z" stroke="#263238" stroke-miterlimit="10"/>
<path d="M402.899 428.352C402.899 428.986 402.711 429.606 402.359 430.134C402.006 430.661 401.505 431.072 400.919 431.315C400.333 431.558 399.688 431.621 399.066 431.498C398.444 431.374 397.872 431.068 397.424 430.62C396.975 430.171 396.67 429.6 396.546 428.978C396.422 428.355 396.486 427.711 396.729 427.125C396.971 426.538 397.382 426.038 397.91 425.685C398.437 425.333 399.057 425.145 399.692 425.145C400.542 425.145 401.358 425.482 401.96 426.084C402.561 426.685 402.899 427.501 402.899 428.352Z" stroke="#263238" stroke-miterlimit="10"/>
<path d="M402.899 461.304C402.899 461.938 402.711 462.559 402.359 463.086C402.006 463.613 401.505 464.025 400.919 464.267C400.333 464.51 399.688 464.574 399.066 464.45C398.444 464.326 397.872 464.021 397.424 463.572C396.975 463.123 396.67 462.552 396.546 461.93C396.422 461.308 396.486 460.663 396.729 460.077C396.971 459.491 397.382 458.99 397.91 458.637C398.437 458.285 399.057 458.097 399.692 458.097C400.114 458.095 400.531 458.176 400.922 458.337C401.312 458.497 401.666 458.733 401.964 459.032C402.262 459.33 402.499 459.684 402.659 460.074C402.82 460.464 402.901 460.882 402.899 461.304Z" stroke="#263238" stroke-miterlimit="10"/>
<path d="M459.117 273.042L459.333 269.804" stroke="#263238" stroke-miterlimit="10"/>
<path d="M457.227 299.641L458.799 277.437" stroke="#263238" stroke-miterlimit="10"/>
<path d="M330.641 272.64L330.102 269.232" stroke="#263238" stroke-miterlimit="10"/>
<path d="M334.912 299.641L331.211 276.233" stroke="#263238" stroke-miterlimit="10"/>
<path d="M414.722 244.037L412.023 364.821C412.023 364.821 425.901 365.978 433.611 365.592C441.321 365.207 449.772 360.581 449.772 360.581L437.081 233.273L414.722 244.037Z" fill="#263238" stroke="#263238" stroke-miterlimit="10"/>
<path d="M373.709 198.115C373.709 198.115 363.794 198.701 358.829 199.287C353.864 199.873 353.278 205.995 353.864 209.511C354.45 213.026 350.07 226.473 350.07 229.063C350.07 231.654 352.106 231.392 357.364 234.306C362.622 237.22 376.038 245.393 392.676 247.737C409.314 250.081 428.867 243.651 435.852 240.15C442.837 236.65 450.439 234.599 450.732 229.063C451.025 223.527 448.404 217.097 446.939 211.546C445.474 205.995 441.989 200.752 439.059 200.459C436.129 200.166 424.472 198.994 417.178 198.994C409.885 198.994 373.709 198.115 373.709 198.115Z" fill="#263238" stroke="#263238" stroke-miterlimit="10"/>
<path d="M369.672 156.975C373.139 152.392 377.077 148.185 381.422 144.423C386.973 140.044 398.06 138.594 404.182 138.594C409.477 138.374 414.752 139.371 419.602 141.509C425.56 144.345 430.319 149.202 433.033 155.217C435.477 160.738 436.853 166.671 437.088 172.704C436.847 175.873 436.258 179.007 435.33 182.048C435.33 182.048 421.036 152.658 410.535 149.974C400.034 147.291 384.321 151.424 379.016 154.924L370.258 160.768L369.672 156.975Z" fill="#FFA500" stroke="#263238" stroke-miterlimit="10"/>
<path d="M369.669 193.459C369.792 194.852 370.088 196.225 370.548 197.545C371.134 198.702 375.513 199.581 375.513 199.581C376.368 204.538 378.707 209.119 382.221 212.719C390.1 220.305 400.601 219.719 410.532 218.887C420.462 218.054 426.291 207.8 427.494 205.178C428.233 203.48 428.821 201.721 429.252 199.92C429.252 199.92 432.459 201.385 432.752 191.747C433.045 182.11 431.287 170.73 422.837 161.694C414.387 152.658 400.062 152.349 385.474 157.607C370.887 162.866 366.508 179.195 366.508 181.539C366.508 183.883 369.669 193.459 369.669 193.459Z" fill="white" stroke="#263238" stroke-miterlimit="10"/>
<path d="M407.31 170.391C407.31 170.391 404.981 173.32 405.274 174.477C405.567 175.633 409.36 175.063 409.36 178.27C409.345 179.525 408.863 180.729 408.008 181.648C407.152 182.566 405.985 183.132 404.734 183.235" stroke="#263238" stroke-miterlimit="10"/>
<path d="M393.016 190.236C393.016 190.236 395.359 195.202 402.653 195.202C409.947 195.202 412.275 190.576 412.275 190.576" stroke="#263238" stroke-miterlimit="10"/>
<path d="M394.481 175.063C392.936 174.669 391.323 174.623 389.758 174.926C388.193 175.23 386.715 175.877 385.43 176.821" stroke="#263238" stroke-miterlimit="10"/>
<path d="M411.102 175.062C414.231 174.6 417.424 175.22 420.153 176.82" stroke="#263238" stroke-miterlimit="10"/>
<path d="M384.258 168.941C384.258 168.941 387.758 163.39 396.594 164.855" stroke="#263238" stroke-width="2" stroke-miterlimit="10" stroke-linecap="round"/>
<path d="M411.398 165.148C413.241 164.89 415.117 165.194 416.784 166.019C418.451 166.844 419.831 168.153 420.743 169.774" stroke="#263238" stroke-width="2" stroke-miterlimit="10" stroke-linecap="round"/>
<path d="M373.168 176.527C373.168 176.527 375.219 185.286 373.461 186.149C371.703 187.013 369.375 181.786 369.375 181.786C369.375 181.786 370.624 177.113 373.168 176.527Z" fill="#263238" stroke="#263238" stroke-miterlimit="10"/>
<path d="M428.031 182.649C428.031 182.649 427.738 191.408 428.617 191.994C429.496 192.58 430.375 189.08 430.375 188.201C429.754 186.286 428.97 184.429 428.031 182.649Z" fill="#263238" stroke="#263238" stroke-miterlimit="10"/>
<path d="M406.445 161.648C399.357 159.87 391.861 160.805 385.427 164.269C374.633 170.113 370.007 184.407 369.082 187.029C368.157 189.65 370.84 193.459 367.91 194.03C364.98 194.6 361.742 191.701 361.742 188.494C361.742 185.286 366.707 171.856 366.707 164.855C366.707 157.854 371.333 154.354 374.294 152.01C377.255 149.666 393.847 142.388 405.227 142.959C416.607 143.529 429.744 153.475 433.245 159.304C436.745 165.132 435.866 174.724 435.866 177.7C435.866 180.676 437.408 188.201 435.573 191.701C433.738 195.201 432.952 195.494 432.952 195.494C431.538 191.123 429.881 186.835 427.987 182.65C425.411 177.114 418.981 162.234 406.445 161.648Z" fill="white" stroke="#263238" stroke-miterlimit="10"/>
<path d="M435.915 240.151C442.916 236.65 450.502 234.6 450.795 229.064C451.088 223.528 448.467 217.098 447.002 211.547C446.276 208.785 445.065 206.174 443.424 203.837C443.17 203.679 442.902 203.544 442.623 203.436C440.001 202.557 438.552 204.022 435.329 206.643C432.106 209.265 418.984 214.816 401.189 214.23C383.394 213.644 367.635 205.086 364.459 202.202C361.282 199.319 355.808 201.385 355.207 201.601C353.887 204.014 353.451 206.811 353.973 209.511C354.559 213.012 350.18 226.473 350.18 229.064C350.18 231.654 352.215 231.392 357.473 234.307C362.732 237.221 376.147 245.394 392.785 247.737C409.423 250.081 428.914 243.636 435.915 240.151Z" fill="#263238" stroke="#263238" stroke-miterlimit="10"/>
<path d="M508.065 229.08C508.065 229.08 500.648 244.654 500.648 248.37C500.648 252.086 520.309 263.204 525.135 264.684C529.962 266.165 533.293 266.226 534.387 265.054C535.482 263.882 540.694 244.284 540.694 240.213C540.694 236.142 536.608 233.906 532.907 232.04C529.206 230.174 518.443 224.33 515.097 224.33C511.751 224.33 508.806 224.253 508.065 229.08Z" fill="white" stroke="#263238" stroke-miterlimit="10"/>
<path d="M277.408 226.844C277.408 226.844 278.148 215.726 275.866 210.159C273.584 204.592 270.67 200.506 265.072 195.31C259.475 190.113 255.435 187.152 255.435 189.003C255.283 191.432 256.079 193.825 257.655 195.68C259.891 198.656 262.852 203.852 262.852 203.852C259.452 203.843 256.074 203.324 252.829 202.31C248.88 200.433 245.044 198.327 241.341 196.004C241.341 196.004 243.561 184.886 242.081 184.886C240.601 184.886 234.278 198.61 233.168 200.83C232.831 201.506 232.686 202.262 232.749 203.015C232.811 203.768 233.079 204.49 233.523 205.101C236.329 208.972 242.513 217.144 246.152 219.38C250.978 222.356 262.482 226.427 262.482 226.427L264.024 232.364L277.408 226.844Z" fill="white" stroke="#263238" stroke-miterlimit="10"/>
<path d="M232.276 201.107C231.304 198.938 230.639 196.644 230.302 194.291C229.886 190.668 229.454 182.803 231.844 183.004C234.235 183.204 233.972 187.907 233.972 191.315C233.972 194.723 235.669 200.459 235.669 201.091C235.669 201.724 233.772 203.667 232.276 201.107Z" fill="white" stroke="#263238" stroke-miterlimit="10"/>
<path d="M237.723 208.293C237.723 208.293 232.156 201.986 232.156 199.041C232.156 196.096 233.266 182.711 235.872 183.451C238.478 184.192 236.983 198.301 236.983 198.301L237.723 203.127V208.293Z" fill="white" stroke="#263238" stroke-miterlimit="10"/>
<path d="M268.513 223.143C268.513 223.143 268.883 221.601 265.537 215.726C262.191 209.851 248.482 206.813 247.033 206.474C245.583 206.135 241.482 202.017 241.482 202.017C241.482 202.017 246.293 192.01 244.072 191.223C241.852 190.437 234.82 200.475 234.82 204.577C234.82 208.679 244.458 216.821 244.458 216.821" fill="white"/>
<path d="M268.513 223.143C268.513 223.143 268.883 221.601 265.537 215.726C262.191 209.851 248.482 206.813 247.033 206.474C245.583 206.135 241.482 202.017 241.482 202.017C241.482 202.017 246.293 192.01 244.072 191.223C241.852 190.437 234.82 200.475 234.82 204.577C234.82 208.679 244.458 216.821 244.458 216.821" stroke="#263238" stroke-miterlimit="10"/>
<path d="M284.84 229.08C284.84 229.08 292.257 244.654 292.257 248.37C292.257 252.086 272.596 263.204 267.77 264.684C262.943 266.165 259.613 266.226 258.518 265.054C257.423 263.882 252.211 244.284 252.211 240.213C252.211 236.142 256.297 233.906 260.013 232.04C263.73 230.174 274.477 224.33 277.808 224.33C281.139 224.33 284.084 224.253 284.84 229.08Z" fill="white" stroke="#263238" stroke-miterlimit="10"/>
<path d="M386.202 346.071C386.419 345.379 386.428 344.639 386.225 343.943C386.023 343.247 385.619 342.627 385.064 342.16C384.51 341.693 383.829 341.401 383.109 341.321C382.389 341.24 381.661 341.375 381.017 341.707C380.373 342.04 379.842 342.556 379.491 343.19C379.139 343.824 378.984 344.548 379.044 345.27C379.104 345.993 379.376 346.681 379.826 347.249C380.277 347.817 380.886 348.239 381.576 348.461C382.506 348.756 383.516 348.671 384.383 348.223C385.25 347.774 385.904 347.001 386.202 346.071Z" fill="white" stroke="#263238" stroke-width="0.5" stroke-miterlimit="10"/>
<path d="M365.045 276.927C365.263 276.236 365.271 275.496 365.069 274.8C364.867 274.104 364.463 273.483 363.908 273.016C363.353 272.55 362.673 272.258 361.953 272.177C361.232 272.096 360.504 272.231 359.86 272.564C359.216 272.896 358.685 273.412 358.334 274.047C357.983 274.681 357.828 275.405 357.888 276.127C357.947 276.849 358.22 277.538 358.67 278.106C359.121 278.673 359.729 279.095 360.419 279.317C360.88 279.468 361.366 279.525 361.849 279.486C362.332 279.448 362.802 279.313 363.233 279.091C363.663 278.868 364.045 278.562 364.356 278.191C364.667 277.82 364.902 277.39 365.045 276.927Z" fill="white" stroke="#263238" stroke-width="0.5" stroke-miterlimit="10"/>
<path d="M470.483 260.382C470.701 259.691 470.709 258.951 470.506 258.255C470.304 257.559 469.9 256.938 469.346 256.471C468.791 256.005 468.111 255.713 467.39 255.632C466.67 255.552 465.942 255.686 465.298 256.019C464.654 256.352 464.123 256.868 463.772 257.502C463.421 258.136 463.265 258.86 463.325 259.582C463.385 260.304 463.657 260.993 464.108 261.561C464.558 262.128 465.167 262.55 465.857 262.772C466.317 262.921 466.803 262.977 467.285 262.937C467.767 262.897 468.237 262.762 468.667 262.54C469.097 262.318 469.479 262.013 469.79 261.642C470.102 261.272 470.337 260.844 470.483 260.382Z" fill="white" stroke="#263238" stroke-width="0.5" stroke-miterlimit="10"/>
<path d="M430.35 232.78C432.377 232.78 434.02 231.137 434.02 229.11C434.02 227.084 432.377 225.44 430.35 225.44C428.323 225.44 426.68 227.084 426.68 229.11C426.68 231.137 428.323 232.78 430.35 232.78Z" fill="white" stroke="#263238" stroke-width="0.5" stroke-miterlimit="10"/>
<path d="M447.228 309.248C447.449 308.557 447.46 307.816 447.26 307.119C447.06 306.422 446.658 305.8 446.105 305.331C445.552 304.862 444.872 304.568 444.151 304.485C443.431 304.402 442.702 304.535 442.057 304.866C441.411 305.197 440.879 305.712 440.526 306.346C440.173 306.98 440.016 307.704 440.074 308.426C440.133 309.149 440.404 309.839 440.854 310.408C441.304 310.976 441.912 311.399 442.602 311.623C443.062 311.773 443.547 311.832 444.029 311.794C444.511 311.756 444.981 311.622 445.411 311.402C445.842 311.181 446.224 310.877 446.536 310.507C446.848 310.137 447.083 309.709 447.228 309.248Z" fill="white" stroke="#263238" stroke-width="0.5" stroke-miterlimit="10"/>
<path d="M424.706 372.455C425.041 371.394 425.055 370.256 424.744 369.187C424.433 368.118 423.813 367.166 422.96 366.449C422.108 365.733 421.063 365.286 419.956 365.164C418.85 365.042 417.732 365.251 416.744 365.764C415.756 366.277 414.943 367.072 414.407 368.048C413.871 369.023 413.636 370.136 413.732 371.245C413.828 372.354 414.251 373.41 414.947 374.278C415.644 375.147 416.582 375.789 417.643 376.125C419.067 376.575 420.61 376.441 421.934 375.752C423.259 375.064 424.256 373.878 424.706 372.455Z" fill="white" stroke="#263238" stroke-width="0.5" stroke-miterlimit="10"/>
<path d="M392.21 266.426C392.548 265.366 392.563 264.229 392.255 263.16C391.946 262.091 391.328 261.137 390.478 260.419C389.627 259.701 388.583 259.252 387.477 259.127C386.372 259.003 385.254 259.209 384.265 259.719C383.276 260.23 382.461 261.022 381.922 261.996C381.383 262.969 381.146 264.081 381.238 265.19C381.331 266.299 381.751 267.355 382.444 268.226C383.137 269.096 384.073 269.742 385.133 270.081C386.556 270.532 388.1 270.4 389.426 269.715C390.753 269.031 391.754 267.848 392.21 266.426Z" fill="white" stroke="#263238" stroke-width="0.5" stroke-miterlimit="10"/>
<path d="M553.951 241.061C554.29 240 554.306 238.862 553.998 237.792C553.689 236.722 553.071 235.767 552.22 235.049C551.369 234.331 550.324 233.881 549.217 233.757C548.11 233.633 546.992 233.839 546.003 234.351C545.014 234.863 544.199 235.657 543.661 236.632C543.123 237.607 542.887 238.72 542.981 239.83C543.076 240.939 543.498 241.996 544.194 242.865C544.889 243.735 545.827 244.379 546.889 244.715C547.593 244.94 548.334 245.024 549.07 244.962C549.806 244.901 550.523 244.694 551.179 244.354C551.835 244.015 552.418 243.549 552.893 242.984C553.369 242.419 553.729 241.765 553.951 241.061Z" fill="white" stroke="#263238" stroke-width="0.5" stroke-miterlimit="10"/>
<path d="M497.781 194.832C498.118 193.771 498.134 192.635 497.825 191.565C497.517 190.496 496.898 189.542 496.048 188.825C495.198 188.107 494.153 187.657 493.048 187.532C491.942 187.408 490.824 187.614 489.835 188.124C488.846 188.635 488.031 189.427 487.492 190.401C486.954 191.375 486.716 192.486 486.809 193.595C486.902 194.704 487.321 195.761 488.014 196.631C488.707 197.502 489.643 198.147 490.703 198.486C491.408 198.712 492.15 198.796 492.887 198.734C493.624 198.672 494.342 198.466 495 198.126C495.657 197.787 496.241 197.321 496.718 196.756C497.195 196.191 497.556 195.537 497.781 194.832Z" fill="white" stroke="#263238" stroke-width="0.5" stroke-miterlimit="10"/>
<path d="M518.303 315.987C518.641 314.926 518.657 313.788 518.349 312.718C518.041 311.648 517.422 310.693 516.571 309.975C515.72 309.257 514.675 308.807 513.569 308.683C512.462 308.558 511.343 308.765 510.354 309.277C509.365 309.789 508.55 310.583 508.012 311.558C507.475 312.533 507.238 313.646 507.333 314.755C507.428 315.865 507.85 316.921 508.545 317.791C509.241 318.661 510.179 319.305 511.24 319.641C512.662 320.091 514.203 319.96 515.527 319.274C516.852 318.589 517.85 317.407 518.303 315.987Z" fill="white" stroke="#263238" stroke-width="0.5" stroke-miterlimit="10"/>
<path d="M269.873 178.872C270.091 178.18 270.099 177.44 269.897 176.744C269.695 176.048 269.291 175.427 268.736 174.961C268.182 174.494 267.501 174.202 266.781 174.121C266.061 174.041 265.332 174.175 264.689 174.508C264.045 174.841 263.514 175.357 263.162 175.991C262.811 176.625 262.656 177.349 262.716 178.071C262.775 178.794 263.048 179.482 263.498 180.05C263.949 180.618 264.558 181.039 265.247 181.262C265.708 181.41 266.193 181.466 266.676 181.426C267.158 181.386 267.628 181.251 268.058 181.029C268.488 180.807 268.869 180.502 269.181 180.132C269.493 179.761 269.728 179.333 269.873 178.872Z" fill="white" stroke="#263238" stroke-width="0.5" stroke-miterlimit="10"/>
<path d="M248.717 109.666C248.935 108.975 248.943 108.235 248.741 107.539C248.538 106.843 248.135 106.222 247.58 105.756C247.025 105.289 246.345 104.997 245.625 104.916C244.904 104.836 244.176 104.97 243.532 105.303C242.888 105.636 242.357 106.152 242.006 106.786C241.655 107.42 241.5 108.144 241.559 108.866C241.619 109.589 241.892 110.277 242.342 110.845C242.793 111.413 243.401 111.834 244.091 112.057C244.552 112.205 245.037 112.261 245.52 112.221C246.002 112.181 246.471 112.046 246.901 111.824C247.331 111.602 247.713 111.297 248.025 110.927C248.336 110.556 248.572 110.128 248.717 109.666Z" fill="white" stroke="#263238" stroke-width="0.5" stroke-miterlimit="10"/>
<path d="M354.174 93.1365C354.394 92.4457 354.405 91.7049 354.206 91.0077C354.006 90.3106 353.604 89.6883 353.05 89.2195C352.497 88.7507 351.817 88.4563 351.096 88.3736C350.376 88.2908 349.647 88.4234 349.002 88.7547C348.357 89.0859 347.824 89.6008 347.471 90.2345C347.118 90.8682 346.961 91.5922 347.02 92.3151C347.078 93.038 347.349 93.7274 347.799 94.2962C348.249 94.8651 348.858 95.2878 349.548 95.5112C350.007 95.66 350.492 95.7165 350.973 95.6776C351.455 95.6387 351.924 95.5051 352.354 95.2845C352.784 95.0639 353.166 94.7605 353.478 94.3919C353.79 94.0233 354.027 93.5967 354.174 93.1365Z" fill="white" stroke="#263238" stroke-width="0.5" stroke-miterlimit="10"/>
<path d="M317.514 62.9751C317.732 62.2837 317.74 61.5434 317.538 60.8474C317.335 60.1514 316.931 59.5309 316.377 59.0642C315.822 58.5975 315.142 58.3054 314.421 58.2249C313.701 58.1443 312.973 58.2789 312.329 58.6116C311.685 58.9443 311.154 59.4603 310.803 60.0944C310.452 60.7285 310.296 61.4524 310.356 62.1748C310.416 62.8971 310.688 63.5856 311.139 64.1534C311.59 64.7212 312.198 65.1428 312.888 65.3652C313.349 65.5136 313.834 65.5695 314.316 65.5296C314.799 65.4897 315.268 65.3547 315.698 65.1326C316.128 64.9105 316.51 64.6055 316.822 64.2352C317.133 63.8649 317.369 63.4366 317.514 62.9751Z" fill="white" stroke="#263238" stroke-width="0.5" stroke-miterlimit="10"/>
<path d="M330.92 141.987C331.138 141.295 331.146 140.555 330.944 139.859C330.742 139.163 330.338 138.543 329.783 138.076C329.228 137.609 328.548 137.317 327.828 137.237C327.107 137.156 326.379 137.291 325.735 137.623C325.091 137.956 324.56 138.472 324.209 139.106C323.858 139.74 323.703 140.464 323.763 141.186C323.822 141.909 324.095 142.597 324.545 143.165C324.996 143.733 325.604 144.155 326.294 144.377C327.225 144.672 328.234 144.587 329.102 144.139C329.969 143.691 330.623 142.917 330.92 141.987Z" fill="white" stroke="#263238" stroke-width="0.5" stroke-miterlimit="10"/>
<path d="M308.39 205.21C308.728 204.149 308.743 203.013 308.435 201.943C308.126 200.874 307.508 199.92 306.657 199.202C305.807 198.485 304.763 198.035 303.657 197.91C302.551 197.786 301.433 197.992 300.445 198.502C299.456 199.013 298.641 199.805 298.102 200.779C297.563 201.753 297.325 202.864 297.418 203.973C297.511 205.082 297.93 206.139 298.624 207.009C299.317 207.88 300.252 208.525 301.312 208.864C302.017 209.089 302.759 209.174 303.497 209.112C304.234 209.05 304.952 208.844 305.609 208.504C306.266 208.165 306.85 207.699 307.328 207.134C307.805 206.569 308.166 205.915 308.39 205.21Z" fill="white" stroke="#263238" stroke-width="0.5" stroke-miterlimit="10"/>
<path d="M275.943 99.1657C276.276 98.1053 276.288 96.97 275.977 95.9028C275.666 94.8357 275.046 93.8845 274.195 93.1694C273.344 92.4542 272.3 92.0069 271.196 91.8841C270.091 91.7612 268.974 91.9683 267.987 92.4791C267 92.9899 266.186 93.7815 265.648 94.7543C265.11 95.727 264.872 96.8373 264.965 97.945C265.057 99.0527 265.475 100.108 266.167 100.979C266.858 101.849 267.792 102.495 268.85 102.836C269.556 103.063 270.301 103.148 271.041 103.087C271.78 103.025 272.501 102.818 273.16 102.477C273.819 102.136 274.405 101.667 274.882 101.099C275.36 100.531 275.72 99.8739 275.943 99.1657Z" fill="white" stroke="#263238" stroke-width="0.5" stroke-miterlimit="10"/>
<path d="M437.64 73.8151C437.978 72.7546 437.993 71.618 437.685 70.5488C437.376 69.4796 436.758 68.5258 435.907 67.808C435.057 67.0901 434.013 66.6405 432.907 66.5159C431.801 66.3913 430.683 66.5972 429.695 67.1078C428.706 67.6183 427.891 68.4105 427.352 69.3843C426.813 70.358 426.575 71.4696 426.668 72.5785C426.761 73.6875 427.18 74.744 427.874 75.6145C428.567 76.4851 429.502 77.1307 430.562 77.4696C431.267 77.695 432.009 77.7792 432.746 77.7174C433.484 77.6557 434.202 77.4492 434.859 77.1098C435.516 76.7703 436.1 76.3046 436.578 75.7393C437.055 75.174 437.416 74.5201 437.64 73.8151Z" fill="white" stroke="#263238" stroke-width="0.5" stroke-miterlimit="10"/>
<path d="M401.975 148.726C402.313 147.665 402.329 146.527 402.021 145.457C401.713 144.387 401.094 143.432 400.243 142.714C399.392 141.996 398.347 141.546 397.24 141.422C396.134 141.298 395.015 141.505 394.026 142.016C393.037 142.528 392.222 143.322 391.684 144.297C391.146 145.272 390.91 146.385 391.005 147.495C391.1 148.604 391.522 149.661 392.217 150.53C392.913 151.4 393.851 152.044 394.912 152.38C395.616 152.605 396.357 152.689 397.093 152.628C397.829 152.566 398.546 152.359 399.202 152.019C399.858 151.68 400.441 151.214 400.917 150.649C401.393 150.084 401.752 149.43 401.975 148.726Z" fill="white" stroke="#263238" stroke-width="0.5" stroke-miterlimit="10"/>
<path d="M529.741 212.195C529.958 211.503 529.967 210.763 529.764 210.067C529.562 209.371 529.158 208.751 528.603 208.284C528.049 207.817 527.368 207.525 526.648 207.445C525.928 207.364 525.2 207.499 524.556 207.831C523.912 208.164 523.381 208.68 523.03 209.314C522.679 209.948 522.523 210.672 522.583 211.395C522.643 212.117 522.915 212.805 523.366 213.373C523.816 213.941 524.425 214.363 525.115 214.585C525.575 214.733 526.061 214.789 526.543 214.749C527.025 214.709 527.495 214.574 527.925 214.352C528.355 214.13 528.737 213.825 529.048 213.455C529.36 213.085 529.595 212.656 529.741 212.195Z" fill="white" stroke="#263238" stroke-width="0.5" stroke-miterlimit="10"/>
<path d="M508.6 143.036C508.818 142.344 508.826 141.604 508.624 140.908C508.421 140.212 508.017 139.591 507.463 139.125C506.908 138.658 506.228 138.366 505.507 138.285C504.787 138.205 504.059 138.339 503.415 138.672C502.771 139.005 502.24 139.521 501.889 140.155C501.538 140.789 501.382 141.513 501.442 142.235C501.502 142.958 501.774 143.646 502.225 144.214C502.675 144.782 503.284 145.203 503.974 145.426C504.904 145.721 505.914 145.636 506.781 145.187C507.649 144.739 508.303 143.965 508.6 143.036Z" fill="white" stroke="#263238" stroke-width="0.5" stroke-miterlimit="10"/>
<path d="M614.041 126.444C614.262 125.753 614.273 125.013 614.073 124.315C613.873 123.618 613.471 122.996 612.917 122.527C612.364 122.058 611.684 121.764 610.964 121.681C610.243 121.598 609.514 121.731 608.869 122.062C608.224 122.393 607.691 122.908 607.338 123.542C606.986 124.176 606.829 124.9 606.887 125.623C606.945 126.346 607.217 127.035 607.667 127.604C608.116 128.173 608.725 128.595 609.415 128.819C609.874 128.97 610.359 129.028 610.841 128.99C611.324 128.952 611.794 128.819 612.224 128.598C612.654 128.377 613.036 128.073 613.348 127.703C613.66 127.333 613.896 126.905 614.041 126.444Z" fill="white" stroke="#263238" stroke-width="0.5" stroke-miterlimit="10"/>
<path d="M577.405 96.3442C577.622 95.6529 577.631 94.9125 577.428 94.2165C577.226 93.5205 576.822 92.9 576.267 92.4333C575.713 91.9666 575.032 91.6746 574.312 91.594C573.592 91.5135 572.864 91.6481 572.22 91.9808C571.576 92.3135 571.045 92.8294 570.694 93.4636C570.343 94.0977 570.187 94.8216 570.247 95.5439C570.307 96.2663 570.579 96.9548 571.03 97.5226C571.48 98.0903 572.089 98.512 572.779 98.7343C573.709 99.0298 574.719 98.9441 575.586 98.496C576.453 98.0479 577.107 97.274 577.405 96.3442Z" fill="white" stroke="#263238" stroke-width="0.5" stroke-miterlimit="10"/>
<path d="M590.787 175.356C591.005 174.665 591.014 173.924 590.811 173.228C590.609 172.532 590.205 171.912 589.65 171.445C589.096 170.978 588.415 170.686 587.695 170.606C586.975 170.525 586.247 170.66 585.603 170.992C584.959 171.325 584.428 171.841 584.077 172.475C583.725 173.109 583.57 173.833 583.63 174.556C583.689 175.278 583.962 175.966 584.412 176.534C584.863 177.102 585.472 177.524 586.161 177.746C586.622 177.894 587.108 177.95 587.59 177.91C588.072 177.871 588.542 177.736 588.972 177.513C589.402 177.291 589.783 176.986 590.095 176.616C590.407 176.246 590.642 175.818 590.787 175.356Z" fill="white" stroke="#263238" stroke-width="0.5" stroke-miterlimit="10"/>
<path d="M568.265 238.578C568.603 237.517 568.618 236.381 568.31 235.311C568.001 234.242 567.383 233.288 566.532 232.571C565.682 231.853 564.638 231.403 563.532 231.279C562.426 231.154 561.308 231.36 560.32 231.87C559.331 232.381 558.516 233.173 557.977 234.147C557.438 235.121 557.2 236.232 557.293 237.341C557.386 238.45 557.806 239.507 558.499 240.377C559.192 241.248 560.127 241.893 561.187 242.232C562.611 242.683 564.155 242.552 565.481 241.867C566.808 241.182 567.809 239.999 568.265 238.578Z" fill="white" stroke="#263238" stroke-width="0.5" stroke-miterlimit="10"/>
<path d="M535.832 132.612C536.167 131.551 536.179 130.414 535.868 129.346C535.557 128.278 534.937 127.326 534.085 126.611C533.234 125.895 532.189 125.448 531.084 125.325C529.978 125.203 528.861 125.411 527.873 125.923C526.886 126.435 526.072 127.228 525.535 128.202C524.998 129.176 524.762 130.288 524.856 131.396C524.95 132.505 525.371 133.56 526.065 134.43C526.759 135.299 527.694 135.944 528.754 136.282C529.46 136.509 530.203 136.594 530.942 136.532C531.681 136.47 532.4 136.263 533.058 135.922C533.716 135.58 534.3 135.112 534.776 134.544C535.252 133.976 535.611 133.319 535.832 132.612Z" fill="white" stroke="#263238" stroke-width="0.5" stroke-miterlimit="10"/>
<path d="M697.531 107.184C697.868 106.124 697.884 104.987 697.575 103.918C697.267 102.849 696.648 101.895 695.798 101.177C694.948 100.459 693.903 100.01 692.798 99.885C691.692 99.7604 690.574 99.9664 689.585 100.477C688.596 100.987 687.781 101.78 687.242 102.753C686.704 103.727 686.466 104.839 686.559 105.948C686.652 107.057 687.071 108.113 687.764 108.984C688.457 109.854 689.393 110.5 690.453 110.839C691.876 111.29 693.42 111.158 694.747 110.473C696.073 109.788 697.074 108.606 697.531 107.184Z" fill="white" stroke="#263238" stroke-width="0.5" stroke-miterlimit="10"/>
<path d="M661.859 182.094C662.196 181.034 662.212 179.897 661.903 178.828C661.595 177.759 660.976 176.805 660.126 176.087C659.276 175.369 658.232 174.92 657.126 174.795C656.02 174.671 654.902 174.877 653.913 175.387C652.924 175.898 652.109 176.69 651.571 177.664C651.032 178.637 650.794 179.749 650.887 180.858C650.98 181.967 651.399 183.023 652.092 183.894C652.786 184.764 653.721 185.41 654.781 185.749C655.486 185.974 656.228 186.058 656.965 185.997C657.702 185.935 658.42 185.728 659.078 185.389C659.735 185.05 660.319 184.584 660.796 184.019C661.274 183.453 661.635 182.799 661.859 182.094Z" fill="white" stroke="#263238" stroke-width="0.5" stroke-miterlimit="10"/>
<path d="M499.306 482.261C499.527 481.57 499.538 480.829 499.338 480.132C499.138 479.435 498.736 478.812 498.183 478.344C497.63 477.875 496.95 477.58 496.229 477.498C495.509 477.415 494.78 477.547 494.135 477.879C493.489 478.21 492.957 478.725 492.604 479.359C492.251 479.992 492.094 480.716 492.153 481.439C492.211 482.162 492.482 482.851 492.932 483.42C493.382 483.989 493.99 484.412 494.68 484.635C495.14 484.784 495.625 484.841 496.106 484.802C496.588 484.763 497.057 484.629 497.487 484.408C497.916 484.188 498.298 483.885 498.611 483.516C498.923 483.147 499.159 482.721 499.306 482.261Z" fill="white" stroke="#263238" stroke-width="0.5" stroke-miterlimit="10"/>
<path d="M478.147 413.102C478.365 412.411 478.373 411.67 478.171 410.974C477.968 410.278 477.564 409.658 477.01 409.191C476.455 408.724 475.775 408.432 475.054 408.352C474.334 408.271 473.606 408.406 472.962 408.739C472.318 409.071 471.787 409.587 471.436 410.221C471.085 410.855 470.929 411.579 470.989 412.302C471.049 413.024 471.321 413.713 471.772 414.28C472.222 414.848 472.831 415.27 473.521 415.492C473.981 415.641 474.467 415.696 474.949 415.657C475.432 415.617 475.901 415.482 476.331 415.26C476.761 415.037 477.143 414.732 477.454 414.362C477.766 413.992 478.001 413.564 478.147 413.102Z" fill="white" stroke="#263238" stroke-width="0.5" stroke-miterlimit="10"/>
<path d="M583.608 396.556C583.826 395.865 583.834 395.124 583.631 394.428C583.429 393.732 583.025 393.112 582.471 392.645C581.916 392.179 581.236 391.886 580.515 391.806C579.795 391.725 579.067 391.86 578.423 392.193C577.779 392.525 577.248 393.041 576.897 393.675C576.546 394.31 576.39 395.033 576.45 395.756C576.51 396.478 576.782 397.167 577.233 397.734C577.683 398.302 578.292 398.724 578.982 398.946C579.912 399.242 580.922 399.156 581.789 398.708C582.656 398.26 583.31 397.486 583.608 396.556Z" fill="white" stroke="#263238" stroke-width="0.5" stroke-miterlimit="10"/>
<path d="M546.955 366.41C547.176 365.719 547.187 364.978 546.987 364.281C546.787 363.584 546.385 362.962 545.831 362.493C545.278 362.024 544.598 361.73 543.878 361.647C543.157 361.564 542.428 361.697 541.783 362.028C541.138 362.359 540.605 362.874 540.252 363.508C539.9 364.142 539.743 364.866 539.801 365.589C539.859 366.311 540.131 367.001 540.581 367.57C541.031 368.139 541.639 368.561 542.329 368.785C542.788 368.936 543.273 368.994 543.756 368.956C544.238 368.918 544.708 368.785 545.138 368.564C545.568 368.343 545.95 368.039 546.262 367.669C546.574 367.299 546.81 366.871 546.955 366.41Z" fill="white" stroke="#263238" stroke-width="0.5" stroke-miterlimit="10"/>
<path d="M560.287 445.422C560.505 444.731 560.514 443.991 560.311 443.295C560.109 442.599 559.705 441.978 559.15 441.511C558.596 441.045 557.915 440.753 557.195 440.672C556.475 440.592 555.747 440.726 555.103 441.059C554.459 441.392 553.928 441.908 553.577 442.542C553.225 443.176 553.07 443.9 553.13 444.622C553.189 445.344 553.462 446.033 553.912 446.601C554.363 447.168 554.972 447.59 555.661 447.812C556.122 447.961 556.608 448.017 557.09 447.977C557.572 447.937 558.042 447.802 558.472 447.58C558.902 447.358 559.283 447.053 559.595 446.682C559.907 446.312 560.142 445.884 560.287 445.422Z" fill="white" stroke="#263238" stroke-width="0.5" stroke-miterlimit="10"/>
<path d="M537.824 508.628C538.159 507.567 538.171 506.431 537.86 505.363C537.55 504.295 536.929 503.343 536.078 502.627C535.226 501.912 534.181 501.464 533.076 501.342C531.97 501.219 530.853 501.427 529.866 501.939C528.878 502.451 528.064 503.245 527.527 504.219C526.99 505.193 526.754 506.304 526.848 507.413C526.943 508.521 527.363 509.577 528.057 510.446C528.751 511.316 529.687 511.96 530.746 512.298C531.452 512.523 532.195 512.607 532.933 512.544C533.671 512.481 534.39 512.273 535.047 511.932C535.705 511.592 536.289 511.124 536.765 510.557C537.242 509.99 537.602 509.335 537.824 508.628Z" fill="white" stroke="#263238" stroke-width="0.5" stroke-miterlimit="10"/>
<path d="M505.381 402.601C505.719 401.54 505.736 400.402 505.427 399.332C505.119 398.262 504.5 397.307 503.649 396.589C502.798 395.871 501.753 395.421 500.647 395.297C499.54 395.173 498.421 395.38 497.432 395.891C496.443 396.403 495.628 397.197 495.09 398.172C494.553 399.147 494.316 400.26 494.411 401.37C494.506 402.479 494.928 403.536 495.623 404.405C496.319 405.275 497.257 405.919 498.319 406.255C499.74 406.706 501.282 406.574 502.606 405.889C503.93 405.204 504.928 404.021 505.381 402.601Z" fill="white" stroke="#263238" stroke-width="0.5" stroke-miterlimit="10"/>
<path d="M667.074 377.235C667.409 376.174 667.421 375.038 667.11 373.969C666.8 372.901 666.179 371.949 665.328 371.234C664.476 370.518 663.432 370.071 662.326 369.948C661.22 369.826 660.103 370.034 659.116 370.546C658.128 371.058 657.314 371.851 656.777 372.825C656.24 373.799 656.004 374.911 656.098 376.019C656.193 377.128 656.613 378.183 657.307 379.053C658.001 379.922 658.937 380.567 659.997 380.905C660.702 381.13 661.445 381.213 662.183 381.15C662.921 381.088 663.64 380.88 664.297 380.539C664.955 380.198 665.539 379.731 666.015 379.164C666.492 378.597 666.852 377.941 667.074 377.235Z" fill="white" stroke="#263238" stroke-width="0.5" stroke-miterlimit="10"/>
<path d="M610.882 331.006C611.22 329.945 611.235 328.808 610.927 327.739C610.618 326.67 610 325.716 609.149 324.998C608.299 324.281 607.255 323.831 606.149 323.706C605.043 323.582 603.925 323.788 602.937 324.298C601.948 324.809 601.133 325.601 600.594 326.575C600.055 327.548 599.817 328.66 599.91 329.769C600.003 330.878 600.423 331.934 601.116 332.805C601.809 333.676 602.745 334.321 603.805 334.66C605.228 335.111 606.772 334.979 608.098 334.295C609.425 333.61 610.426 332.427 610.882 331.006Z" fill="white" stroke="#263238" stroke-width="0.5" stroke-miterlimit="10"/>
<path d="M631.421 452.161C631.759 451.1 631.774 449.964 631.466 448.895C631.157 447.825 630.539 446.871 629.688 446.154C628.838 445.436 627.794 444.986 626.688 444.862C625.582 444.737 624.465 444.943 623.476 445.453C622.487 445.964 621.672 446.756 621.133 447.73C620.594 448.704 620.356 449.815 620.449 450.924C620.542 452.033 620.962 453.09 621.655 453.96C622.348 454.831 623.284 455.476 624.344 455.815C625.048 456.041 625.79 456.125 626.528 456.063C627.265 456.001 627.983 455.795 628.64 455.455C629.298 455.116 629.882 454.65 630.359 454.085C630.836 453.52 631.197 452.866 631.421 452.161Z" fill="white" stroke="#263238" stroke-width="0.5" stroke-miterlimit="10"/>
<path d="M421.373 727.176C421.591 726.485 421.599 725.745 421.397 725.049C421.195 724.353 420.791 723.732 420.236 723.265C419.682 722.799 419.001 722.507 418.281 722.426C417.561 722.346 416.832 722.48 416.188 722.813C415.545 723.146 415.014 723.661 414.662 724.296C414.311 724.93 414.156 725.654 414.216 726.376C414.275 727.098 414.548 727.787 414.998 728.355C415.449 728.922 416.058 729.344 416.747 729.566C417.208 729.715 417.693 729.771 418.176 729.731C418.658 729.691 419.128 729.556 419.558 729.334C419.988 729.112 420.369 728.807 420.681 728.436C420.993 728.066 421.228 727.638 421.373 727.176Z" fill="white" stroke="#263238" stroke-width="0.5" stroke-miterlimit="10"/>
<path d="M400.213 658.033C400.433 657.342 400.445 656.601 400.245 655.904C400.045 655.207 399.643 654.585 399.089 654.116C398.536 653.647 397.856 653.353 397.135 653.27C396.415 653.187 395.686 653.32 395.041 653.651C394.396 653.982 393.863 654.497 393.51 655.131C393.158 655.765 393 656.489 393.059 657.212C393.117 657.934 393.388 658.624 393.838 659.193C394.288 659.762 394.897 660.184 395.587 660.408C396.046 660.556 396.531 660.613 397.012 660.574C397.494 660.535 397.963 660.402 398.393 660.181C398.823 659.96 399.205 659.657 399.517 659.288C399.829 658.92 400.066 658.493 400.213 658.033Z" fill="white" stroke="#263238" stroke-width="0.5" stroke-miterlimit="10"/>
<path d="M505.67 641.472C505.888 640.781 505.896 640.04 505.694 639.344C505.492 638.648 505.088 638.028 504.533 637.561C503.978 637.095 503.298 636.802 502.578 636.722C501.857 636.641 501.129 636.776 500.485 637.109C499.841 637.441 499.31 637.957 498.959 638.591C498.608 639.226 498.453 639.949 498.513 640.672C498.572 641.394 498.845 642.083 499.295 642.65C499.746 643.218 500.354 643.64 501.044 643.862C501.975 644.158 502.984 644.072 503.852 643.624C504.719 643.176 505.373 642.402 505.67 641.472Z" fill="white" stroke="#263238" stroke-width="0.5" stroke-miterlimit="10"/>
<path d="M469.017 611.342C469.238 610.651 469.249 609.91 469.049 609.213C468.849 608.516 468.447 607.893 467.894 607.425C467.341 606.956 466.661 606.661 465.94 606.579C465.22 606.496 464.491 606.629 463.846 606.96C463.2 607.291 462.668 607.806 462.315 608.44C461.962 609.073 461.805 609.797 461.863 610.52C461.922 611.243 462.193 611.932 462.643 612.501C463.093 613.07 463.701 613.493 464.391 613.716C465.32 614.012 466.328 613.929 467.195 613.484C468.062 613.039 468.717 612.269 469.017 611.342Z" fill="white" stroke="#263238" stroke-width="0.5" stroke-miterlimit="10"/>
<path d="M482.416 690.353C482.637 689.662 482.648 688.922 482.448 688.225C482.248 687.527 481.846 686.905 481.292 686.436C480.739 685.967 480.059 685.673 479.339 685.59C478.618 685.508 477.889 685.64 477.244 685.971C476.599 686.303 476.066 686.818 475.713 687.451C475.361 688.085 475.204 688.809 475.262 689.532C475.32 690.255 475.592 690.944 476.042 691.513C476.491 692.082 477.1 692.505 477.79 692.728C478.249 692.877 478.734 692.933 479.216 692.894C479.697 692.855 480.166 692.722 480.596 692.501C481.026 692.281 481.408 691.977 481.72 691.609C482.032 691.24 482.269 690.813 482.416 690.353Z" fill="white" stroke="#263238" stroke-width="0.5" stroke-miterlimit="10"/>
<path d="M427.443 647.531C427.782 646.47 427.798 645.333 427.49 644.263C427.182 643.193 426.563 642.238 425.712 641.52C424.861 640.801 423.816 640.352 422.709 640.228C421.603 640.103 420.484 640.31 419.495 640.822C418.506 641.334 417.691 642.128 417.153 643.103C416.615 644.078 416.379 645.191 416.474 646.3C416.568 647.41 416.99 648.466 417.686 649.336C418.382 650.206 419.319 650.85 420.381 651.186C421.802 651.632 423.342 651.498 424.665 650.814C425.988 650.129 426.987 648.949 427.443 647.531Z" fill="white" stroke="#263238" stroke-width="0.5" stroke-miterlimit="10"/>
<path d="M589.14 622.166C589.478 621.105 589.493 619.969 589.185 618.899C588.876 617.83 588.258 616.876 587.407 616.159C586.557 615.441 585.513 614.991 584.407 614.866C583.301 614.742 582.183 614.948 581.195 615.458C580.206 615.969 579.391 616.761 578.852 617.735C578.313 618.709 578.075 619.82 578.168 620.929C578.261 622.038 578.68 623.095 579.374 623.965C580.067 624.836 581.002 625.481 582.062 625.82C582.767 626.046 583.509 626.13 584.246 626.068C584.984 626.006 585.702 625.8 586.359 625.46C587.016 625.121 587.6 624.655 588.078 624.09C588.555 623.525 588.916 622.871 589.14 622.166Z" fill="white" stroke="#263238" stroke-width="0.5" stroke-miterlimit="10"/>
<path d="M532.953 575.937C533.29 574.877 533.305 573.74 532.997 572.671C532.689 571.602 532.07 570.648 531.22 569.93C530.369 569.212 529.325 568.763 528.22 568.638C527.114 568.513 525.996 568.719 525.007 569.23C524.018 569.74 523.203 570.533 522.664 571.506C522.126 572.48 521.888 573.592 521.981 574.701C522.073 575.81 522.493 576.866 523.186 577.737C523.879 578.607 524.815 579.253 525.875 579.592C526.58 579.817 527.322 579.901 528.059 579.839C528.796 579.778 529.514 579.571 530.171 579.232C530.829 578.892 531.413 578.427 531.89 577.861C532.367 577.296 532.728 576.642 532.953 575.937Z" fill="white" stroke="#263238" stroke-width="0.5" stroke-miterlimit="10"/>
<path d="M553.492 697.091C553.829 696.031 553.845 694.894 553.536 693.825C553.228 692.756 552.609 691.802 551.759 691.084C550.908 690.367 549.864 689.917 548.759 689.792C547.653 689.668 546.535 689.874 545.546 690.384C544.557 690.895 543.742 691.687 543.203 692.661C542.665 693.634 542.427 694.746 542.52 695.855C542.613 696.964 543.032 698.02 543.725 698.891C544.418 699.762 545.354 700.407 546.414 700.746C547.837 701.197 549.381 701.065 550.708 700.38C552.034 699.696 553.035 698.513 553.492 697.091Z" fill="white" stroke="#263238" stroke-width="0.5" stroke-miterlimit="10"/>
<path d="M296.936 578.158C297.154 577.466 297.162 576.726 296.96 576.03C296.757 575.334 296.353 574.713 295.799 574.247C295.244 573.78 294.564 573.488 293.843 573.407C293.123 573.327 292.395 573.462 291.751 573.794C291.107 574.127 290.576 574.643 290.225 575.277C289.874 575.911 289.718 576.635 289.778 577.357C289.838 578.08 290.11 578.768 290.561 579.336C291.011 579.904 291.62 580.325 292.31 580.548C292.771 580.696 293.256 580.752 293.738 580.712C294.221 580.672 294.69 580.537 295.12 580.315C295.55 580.093 295.932 579.788 296.244 579.418C296.555 579.048 296.79 578.619 296.936 578.158Z" fill="white" stroke="#263238" stroke-width="0.5" stroke-miterlimit="10"/>
<path d="M275.787 508.998C276.005 508.307 276.014 507.567 275.811 506.871C275.609 506.175 275.205 505.554 274.65 505.088C274.096 504.621 273.415 504.329 272.695 504.248C271.975 504.168 271.247 504.302 270.603 504.635C269.959 504.968 269.428 505.484 269.076 506.118C268.725 506.752 268.57 507.476 268.63 508.198C268.689 508.921 268.962 509.609 269.412 510.177C269.863 510.745 270.472 511.166 271.161 511.389C272.092 511.684 273.101 511.598 273.969 511.15C274.836 510.702 275.49 509.928 275.787 508.998Z" fill="white" stroke="#263238" stroke-width="0.5" stroke-miterlimit="10"/>
<path d="M381.236 492.469C381.457 491.778 381.468 491.037 381.268 490.34C381.068 489.643 380.666 489.02 380.113 488.552C379.559 488.083 378.879 487.788 378.159 487.706C377.438 487.623 376.71 487.755 376.064 488.087C375.419 488.418 374.886 488.933 374.534 489.567C374.181 490.2 374.024 490.924 374.082 491.647C374.141 492.37 374.412 493.059 374.862 493.628C375.312 494.197 375.92 494.62 376.61 494.843C377.07 494.994 377.555 495.052 378.037 495.014C378.519 494.976 378.989 494.843 379.419 494.622C379.85 494.401 380.232 494.097 380.544 493.728C380.855 493.358 381.091 492.93 381.236 492.469Z" fill="white" stroke="#263238" stroke-width="0.5" stroke-miterlimit="10"/>
<path d="M344.592 462.307C344.81 461.616 344.818 460.875 344.616 460.179C344.413 459.483 344.009 458.863 343.455 458.396C342.9 457.929 342.22 457.637 341.5 457.557C340.779 457.476 340.051 457.611 339.407 457.944C338.763 458.276 338.232 458.792 337.881 459.426C337.53 460.061 337.375 460.784 337.434 461.507C337.494 462.229 337.767 462.918 338.217 463.485C338.668 464.053 339.276 464.475 339.966 464.697C340.897 464.993 341.906 464.907 342.773 464.459C343.641 464.011 344.295 463.237 344.592 462.307Z" fill="white" stroke="#263238" stroke-width="0.5" stroke-miterlimit="10"/>
<path d="M357.983 541.319C358.201 540.627 358.209 539.887 358.006 539.191C357.804 538.495 357.4 537.875 356.846 537.408C356.291 536.941 355.611 536.649 354.89 536.569C354.17 536.488 353.442 536.623 352.798 536.955C352.154 537.288 351.623 537.804 351.272 538.438C350.921 539.072 350.765 539.796 350.825 540.519C350.885 541.241 351.157 541.929 351.608 542.497C352.058 543.065 352.667 543.487 353.357 543.709C353.817 543.857 354.303 543.913 354.785 543.873C355.267 543.833 355.737 543.699 356.167 543.476C356.597 543.254 356.979 542.949 357.29 542.579C357.602 542.209 357.837 541.78 357.983 541.319Z" fill="white" stroke="#263238" stroke-width="0.5" stroke-miterlimit="10"/>
<path d="M335.453 604.541C335.79 603.48 335.805 602.344 335.497 601.274C335.189 600.205 334.57 599.251 333.72 598.534C332.869 597.816 331.825 597.366 330.72 597.241C329.614 597.117 328.496 597.323 327.507 597.833C326.518 598.344 325.703 599.136 325.164 600.11C324.626 601.084 324.388 602.195 324.481 603.304C324.573 604.413 324.993 605.47 325.686 606.34C326.379 607.211 327.315 607.856 328.375 608.195C329.798 608.646 331.342 608.515 332.669 607.83C333.995 607.145 334.996 605.962 335.453 604.541Z" fill="white" stroke="#263238" stroke-width="0.5" stroke-miterlimit="10"/>
<path d="M303.02 498.497C303.354 497.436 303.367 496.3 303.056 495.232C302.745 494.164 302.125 493.212 301.273 492.496C300.421 491.781 299.377 491.333 298.271 491.211C297.166 491.089 296.048 491.296 295.061 491.809C294.073 492.321 293.26 493.114 292.723 494.088C292.186 495.062 291.949 496.174 292.044 497.282C292.138 498.39 292.559 499.446 293.252 500.315C293.946 501.185 294.882 501.829 295.942 502.167C296.647 502.392 297.391 502.476 298.129 502.413C298.867 502.35 299.585 502.143 300.243 501.802C300.9 501.461 301.484 500.993 301.96 500.426C302.437 499.859 302.797 499.204 303.02 498.497Z" fill="white" stroke="#263238" stroke-width="0.5" stroke-miterlimit="10"/>
<path d="M464.687 473.147C465.024 472.087 465.04 470.95 464.731 469.881C464.423 468.812 463.805 467.858 462.954 467.14C462.104 466.422 461.06 465.973 459.954 465.848C458.848 465.723 457.73 465.929 456.741 466.44C455.753 466.95 454.937 467.743 454.399 468.716C453.86 469.69 453.622 470.802 453.715 471.911C453.808 473.019 454.227 474.076 454.92 474.947C455.614 475.817 456.549 476.463 457.609 476.802C459.032 477.252 460.576 477.121 461.903 476.436C463.229 475.751 464.231 474.569 464.687 473.147Z" fill="white" stroke="#263238" stroke-width="0.5" stroke-miterlimit="10"/>
<path d="M408.514 426.903C408.852 425.842 408.868 424.704 408.56 423.634C408.252 422.564 407.633 421.609 406.782 420.891C405.931 420.173 404.886 419.723 403.779 419.599C402.673 419.474 401.554 419.681 400.565 420.193C399.576 420.705 398.761 421.499 398.223 422.474C397.685 423.449 397.449 424.562 397.544 425.671C397.639 426.781 398.061 427.837 398.756 428.707C399.452 429.577 400.39 430.221 401.451 430.557C402.873 431.003 404.413 430.869 405.736 430.185C407.058 429.5 408.057 428.32 408.514 426.903Z" fill="white" stroke="#263238" stroke-width="0.5" stroke-miterlimit="10"/>
<path d="M429.054 548.057C429.392 546.997 429.407 545.86 429.099 544.791C428.79 543.722 428.172 542.768 427.321 542.05C426.471 541.332 425.427 540.883 424.321 540.758C423.215 540.633 422.097 540.839 421.109 541.35C420.12 541.861 419.305 542.653 418.766 543.626C418.227 544.6 417.989 545.712 418.082 546.821C418.175 547.93 418.595 548.986 419.288 549.857C419.981 550.727 420.917 551.373 421.976 551.712C423.4 552.163 424.944 552.031 426.27 551.346C427.597 550.661 428.598 549.479 429.054 548.057Z" fill="white" stroke="#263238" stroke-width="0.5" stroke-miterlimit="10"/>
<path d="M162.452 439.023C162.669 438.332 162.678 437.591 162.475 436.895C162.273 436.199 161.869 435.579 161.314 435.112C160.76 434.645 160.079 434.353 159.359 434.273C158.639 434.192 157.911 434.327 157.267 434.659C156.623 434.992 156.092 435.508 155.741 436.142C155.389 436.776 155.234 437.5 155.294 438.223C155.354 438.945 155.626 439.634 156.076 440.201C156.527 440.769 157.136 441.191 157.826 441.413C158.756 441.709 159.766 441.623 160.633 441.175C161.5 440.727 162.154 439.953 162.452 439.023Z" fill="white" stroke="#263238" stroke-width="0.5" stroke-miterlimit="10"/>
<path d="M141.264 369.864C141.482 369.172 141.49 368.432 141.288 367.736C141.085 367.04 140.681 366.42 140.127 365.953C139.572 365.486 138.892 365.194 138.171 365.114C137.451 365.033 136.723 365.168 136.079 365.5C135.435 365.833 134.904 366.349 134.553 366.983C134.202 367.617 134.046 368.341 134.106 369.063C134.166 369.786 134.438 370.474 134.889 371.042C135.34 371.61 135.948 372.032 136.638 372.254C137.568 372.549 138.578 372.464 139.445 372.016C140.313 371.567 140.967 370.794 141.264 369.864Z" fill="white" stroke="#263238" stroke-width="0.5" stroke-miterlimit="10"/>
<path d="M246.713 353.334C246.933 352.643 246.945 351.902 246.745 351.205C246.545 350.508 246.143 349.886 245.589 349.417C245.036 348.948 244.356 348.654 243.635 348.571C242.915 348.488 242.186 348.621 241.541 348.952C240.896 349.283 240.363 349.798 240.01 350.432C239.658 351.065 239.5 351.789 239.559 352.512C239.617 353.235 239.888 353.925 240.338 354.493C240.788 355.062 241.397 355.485 242.087 355.708C242.546 355.859 243.031 355.918 243.513 355.88C243.996 355.842 244.465 355.708 244.896 355.488C245.326 355.267 245.708 354.962 246.02 354.593C246.332 354.223 246.567 353.795 246.713 353.334Z" fill="white" stroke="#263238" stroke-width="0.5" stroke-miterlimit="10"/>
<path d="M210.069 323.172C210.287 322.481 210.295 321.741 210.092 321.045C209.89 320.349 209.486 319.728 208.931 319.261C208.377 318.795 207.697 318.503 206.976 318.422C206.256 318.342 205.528 318.476 204.884 318.809C204.24 319.142 203.709 319.658 203.358 320.292C203.007 320.926 202.851 321.65 202.911 322.372C202.971 323.094 203.243 323.783 203.694 324.351C204.144 324.918 204.753 325.34 205.443 325.562C206.373 325.858 207.383 325.772 208.25 325.324C209.117 324.876 209.771 324.102 210.069 323.172Z" fill="white" stroke="#263238" stroke-width="0.5" stroke-miterlimit="10"/>
<path d="M223.459 402.184C223.677 401.493 223.685 400.752 223.483 400.056C223.281 399.36 222.877 398.74 222.322 398.273C221.768 397.806 221.087 397.514 220.367 397.434C219.646 397.353 218.918 397.488 218.274 397.821C217.63 398.153 217.099 398.669 216.748 399.303C216.397 399.938 216.242 400.661 216.302 401.384C216.361 402.106 216.634 402.795 217.084 403.362C217.535 403.93 218.143 404.352 218.833 404.574C219.294 404.723 219.779 404.778 220.262 404.739C220.744 404.699 221.214 404.564 221.644 404.342C222.074 404.119 222.455 403.814 222.767 403.444C223.079 403.074 223.314 402.646 223.459 402.184Z" fill="white" stroke="#263238" stroke-width="0.5" stroke-miterlimit="10"/>
<path d="M201.006 465.406C201.344 464.346 201.361 463.208 201.052 462.138C200.744 461.068 200.125 460.113 199.274 459.395C198.423 458.676 197.378 458.227 196.272 458.103C195.165 457.978 194.046 458.185 193.057 458.697C192.068 459.209 191.253 460.003 190.715 460.978C190.178 461.953 189.941 463.066 190.036 464.175C190.131 465.285 190.553 466.341 191.248 467.211C191.944 468.081 192.882 468.725 193.944 469.061C195.365 469.507 196.905 469.373 198.228 468.689C199.551 468.004 200.549 466.824 201.006 465.406Z" fill="white" stroke="#263238" stroke-width="0.5" stroke-miterlimit="10"/>
<path d="M168.496 359.363C168.831 358.302 168.843 357.165 168.532 356.097C168.221 355.029 167.601 354.077 166.75 353.362C165.898 352.646 164.853 352.199 163.748 352.076C162.642 351.954 161.525 352.162 160.538 352.674C159.55 353.186 158.736 353.979 158.199 354.953C157.662 355.927 157.426 357.039 157.52 358.147C157.614 359.256 158.035 360.311 158.729 361.181C159.423 362.05 160.359 362.695 161.418 363.033C162.124 363.258 162.867 363.341 163.605 363.278C164.343 363.216 165.062 363.008 165.719 362.667C166.377 362.326 166.96 361.859 167.437 361.292C167.914 360.725 168.273 360.069 168.496 359.363Z" fill="white" stroke="#263238" stroke-width="0.5" stroke-miterlimit="10"/>
<path d="M330.178 334.012C330.516 332.951 330.532 331.813 330.224 330.743C329.916 329.673 329.297 328.719 328.446 328C327.595 327.282 326.55 326.832 325.444 326.708C324.337 326.584 323.218 326.791 322.229 327.302C321.24 327.814 320.425 328.608 319.887 329.583C319.349 330.558 319.113 331.671 319.208 332.781C319.303 333.89 319.725 334.947 320.42 335.817C321.116 336.686 322.054 337.33 323.115 337.666C324.537 338.113 326.077 337.979 327.4 337.294C328.722 336.61 329.721 335.43 330.178 334.012Z" fill="white" stroke="#263238" stroke-width="0.5" stroke-miterlimit="10"/>
<path d="M273.99 287.768C274.329 286.707 274.345 285.569 274.037 284.499C273.728 283.429 273.11 282.474 272.259 281.756C271.408 281.038 270.363 280.588 269.256 280.464C268.149 280.34 267.031 280.547 266.042 281.058C265.053 281.57 264.238 282.364 263.7 283.339C263.162 284.314 262.926 285.427 263.02 286.537C263.115 287.646 263.537 288.703 264.233 289.572C264.928 290.442 265.866 291.086 266.928 291.422C267.632 291.647 268.373 291.731 269.109 291.669C269.845 291.608 270.562 291.401 271.218 291.061C271.874 290.722 272.457 290.256 272.932 289.691C273.408 289.126 273.768 288.472 273.99 287.768Z" fill="white" stroke="#263238" stroke-width="0.5" stroke-miterlimit="10"/>
<path d="M294.523 408.923C294.86 407.862 294.876 406.725 294.567 405.656C294.259 404.587 293.64 403.633 292.79 402.915C291.94 402.198 290.896 401.748 289.79 401.623C288.684 401.499 287.566 401.705 286.577 402.215C285.589 402.726 284.773 403.518 284.235 404.492C283.696 405.465 283.458 406.577 283.551 407.686C283.644 408.795 284.063 409.851 284.756 410.722C285.45 411.593 286.385 412.238 287.445 412.577C288.15 412.802 288.892 412.887 289.629 412.825C290.367 412.763 291.084 412.557 291.742 412.217C292.399 411.878 292.983 411.412 293.46 410.847C293.938 410.281 294.299 409.628 294.523 408.923Z" fill="white" stroke="#263238" stroke-width="0.5" stroke-miterlimit="10"/>
<path d="M91.2874 299.255C91.5053 298.564 91.5135 297.824 91.3111 297.128C91.1088 296.432 90.7048 295.811 90.1502 295.344C89.5956 294.878 88.9153 294.586 88.1949 294.505C87.4746 294.425 86.7465 294.559 86.1026 294.892C85.4586 295.225 84.9276 295.741 84.5765 296.375C84.2254 297.009 84.0699 297.733 84.1297 298.455C84.1895 299.177 84.4618 299.866 84.9124 300.434C85.363 301.001 85.9716 301.423 86.6614 301.645C87.122 301.796 87.6079 301.854 88.0909 301.815C88.5738 301.776 89.0442 301.641 89.4747 301.419C89.9052 301.196 90.2871 300.89 90.5984 300.519C90.9096 300.148 91.1438 299.718 91.2874 299.255Z" fill="white" stroke="#263238" stroke-width="0.5" stroke-miterlimit="10"/>
<path d="M70.1312 230.097C70.349 229.406 70.3573 228.665 70.1549 227.969C69.9525 227.273 69.5486 226.653 68.994 226.186C68.4394 225.72 67.759 225.427 67.0387 225.347C66.3183 225.266 65.5903 225.401 64.9463 225.734C64.3024 226.066 63.7713 226.582 63.4202 227.216C63.0691 227.851 62.9137 228.574 62.9734 229.297C63.0332 230.019 63.3056 230.708 63.7561 231.275C64.2067 231.843 64.8153 232.265 65.5052 232.487C65.9658 232.636 66.4513 232.692 66.9336 232.652C67.4159 232.612 67.8855 232.477 68.3155 232.255C68.7454 232.033 69.1272 231.728 69.4388 231.357C69.7505 230.987 69.9858 230.559 70.1312 230.097Z" fill="white" stroke="#263238" stroke-width="0.5" stroke-miterlimit="10"/>
<path d="M175.596 213.567C175.816 212.876 175.827 212.136 175.627 211.438C175.427 210.741 175.025 210.119 174.472 209.65C173.919 209.181 173.239 208.887 172.518 208.804C171.798 208.722 171.069 208.854 170.424 209.185C169.778 209.517 169.246 210.031 168.893 210.665C168.54 211.299 168.383 212.023 168.442 212.746C168.5 213.469 168.771 214.158 169.221 214.727C169.671 215.296 170.279 215.719 170.97 215.942C171.898 216.238 172.906 216.154 173.773 215.709C174.64 215.264 175.295 214.494 175.596 213.567Z" fill="white" stroke="#263238" stroke-width="0.5" stroke-miterlimit="10"/>
<path d="M138.936 183.406C139.154 182.714 139.162 181.974 138.96 181.278C138.757 180.582 138.353 179.962 137.799 179.495C137.244 179.028 136.564 178.736 135.843 178.656C135.123 178.575 134.395 178.71 133.751 179.042C133.107 179.375 132.576 179.891 132.225 180.525C131.874 181.159 131.718 181.883 131.778 182.605C131.838 183.328 132.11 184.016 132.561 184.584C133.011 185.152 133.62 185.573 134.31 185.796C134.771 185.944 135.256 186 135.738 185.96C136.221 185.92 136.69 185.785 137.12 185.563C137.55 185.341 137.932 185.036 138.244 184.666C138.555 184.296 138.79 183.867 138.936 183.406Z" fill="white" stroke="#263238" stroke-width="0.5" stroke-miterlimit="10"/>
<path d="M152.342 262.417C152.56 261.726 152.568 260.986 152.366 260.29C152.163 259.594 151.759 258.973 151.205 258.507C150.65 258.04 149.97 257.748 149.25 257.667C148.529 257.587 147.801 257.721 147.157 258.054C146.513 258.387 145.982 258.903 145.631 259.537C145.28 260.171 145.125 260.895 145.184 261.617C145.244 262.34 145.517 263.028 145.967 263.596C146.418 264.164 147.026 264.585 147.716 264.808C148.647 265.103 149.656 265.017 150.523 264.569C151.391 264.121 152.045 263.347 152.342 262.417Z" fill="white" stroke="#263238" stroke-width="0.5" stroke-miterlimit="10"/>
<path d="M129.812 325.639C130.149 324.579 130.165 323.442 129.856 322.373C129.548 321.304 128.929 320.35 128.079 319.632C127.229 318.914 126.185 318.465 125.079 318.34C123.973 318.215 122.855 318.421 121.866 318.932C120.878 319.443 120.062 320.235 119.524 321.208C118.985 322.182 118.747 323.294 118.84 324.403C118.933 325.512 119.352 326.568 120.046 327.439C120.739 328.309 121.674 328.955 122.734 329.294C123.439 329.519 124.181 329.603 124.918 329.542C125.656 329.48 126.373 329.273 127.031 328.934C127.688 328.595 128.272 328.129 128.749 327.564C129.227 326.998 129.588 326.344 129.812 325.639Z" fill="white" stroke="#263238" stroke-width="0.5" stroke-miterlimit="10"/>
<path d="M97.3698 219.596C97.7054 218.534 97.7187 217.397 97.408 216.328C97.0973 215.259 96.4766 214.306 95.6244 213.59C94.7722 212.874 93.7267 212.426 92.6202 212.304C91.5137 212.182 90.3958 212.391 89.408 212.905C88.4202 213.418 87.6069 214.213 87.0707 215.188C86.5346 216.164 86.2998 217.276 86.3961 218.386C86.4924 219.495 86.9153 220.55 87.6116 221.419C88.3078 222.287 89.2459 222.93 90.3074 223.266C91.7306 223.715 93.2741 223.581 94.5986 222.893C95.923 222.205 96.9198 221.019 97.3698 219.596Z" fill="white" stroke="#263238" stroke-width="0.5" stroke-miterlimit="10"/>
<path d="M259.062 194.292C259.399 193.231 259.415 192.095 259.106 191.025C258.798 189.956 258.18 189.002 257.329 188.285C256.479 187.567 255.435 187.117 254.329 186.992C253.223 186.868 252.105 187.074 251.116 187.584C250.128 188.095 249.312 188.887 248.774 189.861C248.235 190.835 247.997 191.946 248.09 193.055C248.183 194.164 248.602 195.221 249.296 196.091C249.989 196.962 250.924 197.607 251.984 197.946C252.689 198.172 253.431 198.256 254.168 198.194C254.906 198.132 255.623 197.926 256.281 197.586C256.938 197.247 257.522 196.781 257.999 196.216C258.477 195.651 258.838 194.997 259.062 194.292Z" fill="white" stroke="#263238" stroke-width="0.5" stroke-miterlimit="10"/>
<path d="M202.867 148.032C203.204 146.971 203.22 145.835 202.911 144.766C202.603 143.696 201.984 142.743 201.134 142.025C200.283 141.307 199.239 140.857 198.134 140.733C197.028 140.608 195.91 140.814 194.921 141.325C193.932 141.835 193.117 142.627 192.578 143.601C192.04 144.575 191.802 145.686 191.895 146.795C191.988 147.904 192.407 148.961 193.1 149.831C193.793 150.702 194.729 151.347 195.789 151.686C197.212 152.137 198.756 152.006 200.083 151.321C201.409 150.636 202.41 149.453 202.867 148.032Z" fill="white" stroke="#263238" stroke-width="0.5" stroke-miterlimit="10"/>
<path d="M223.406 269.156C223.743 268.095 223.759 266.959 223.45 265.89C223.142 264.82 222.523 263.867 221.673 263.149C220.823 262.431 219.778 261.981 218.673 261.857C217.567 261.732 216.449 261.938 215.46 262.449C214.471 262.959 213.656 263.751 213.117 264.725C212.579 265.699 212.341 266.81 212.434 267.919C212.527 269.028 212.946 270.085 213.639 270.955C214.332 271.826 215.268 272.471 216.328 272.81C217.033 273.036 217.775 273.12 218.512 273.058C219.249 272.996 219.967 272.79 220.625 272.451C221.282 272.111 221.866 271.645 222.343 271.08C222.82 270.515 223.181 269.861 223.406 269.156Z" fill="white" stroke="#263238" stroke-width="0.5" stroke-miterlimit="10"/>
<path d="M126.155 80.6928C126.372 80.0015 126.381 79.2612 126.178 78.5652C125.976 77.8692 125.572 77.2487 125.017 76.7819C124.463 76.3152 123.782 76.0232 123.062 75.9427C122.342 75.8621 121.614 75.9967 120.97 76.3294C120.326 76.6621 119.795 77.1781 119.444 77.8122C119.093 78.4463 118.937 79.1702 118.997 79.8926C119.057 80.6149 119.329 81.3034 119.78 81.8712C120.23 82.439 120.839 82.8606 121.529 83.0829C121.989 83.2314 122.475 83.2873 122.957 83.2473C123.439 83.2074 123.909 83.0725 124.339 82.8504C124.769 82.6282 125.151 82.3232 125.462 81.953C125.774 81.5827 126.009 81.1544 126.155 80.6928Z" fill="white" stroke="#263238" stroke-width="0.5" stroke-miterlimit="10"/>
<path d="M164.671 107.076C165.009 106.015 165.024 104.879 164.716 103.81C164.407 102.74 163.789 101.787 162.939 101.069C162.088 100.351 161.044 99.9012 159.938 99.7766C158.832 99.652 157.715 99.858 156.726 100.369C155.737 100.879 154.922 101.671 154.383 102.645C153.844 103.619 153.606 104.73 153.699 105.839C153.792 106.948 154.212 108.005 154.905 108.875C155.598 109.746 156.534 110.391 157.594 110.73C158.298 110.956 159.04 111.04 159.778 110.978C160.515 110.916 161.233 110.71 161.89 110.371C162.548 110.031 163.132 109.565 163.609 109C164.086 108.435 164.447 107.781 164.671 107.076Z" fill="white" stroke="#263238" stroke-width="0.5" stroke-miterlimit="10"/>
<path d="M90.6 519.438C90.8178 518.747 90.826 518.006 90.6236 517.31C90.4213 516.614 90.0173 515.994 89.4627 515.527C88.9081 515.06 88.2278 514.768 87.5074 514.688C86.7871 514.607 86.059 514.742 85.4151 515.075C84.7711 515.407 84.2401 515.923 83.889 516.557C83.5379 517.191 83.3824 517.915 83.4422 518.638C83.502 519.36 83.7743 520.049 84.2249 520.616C84.6755 521.184 85.2841 521.606 85.974 521.828C86.4346 521.977 86.92 522.032 87.4023 521.993C87.8846 521.953 88.3543 521.818 88.7842 521.596C89.2142 521.373 89.596 521.068 89.9076 520.698C90.2192 520.328 90.4545 519.9 90.6 519.438Z" fill="white" stroke="#263238" stroke-width="0.5" stroke-miterlimit="10"/>
<path d="M53.9437 489.277C54.1615 488.585 54.1698 487.845 53.9674 487.149C53.765 486.453 53.3611 485.833 52.8065 485.366C52.2519 484.899 51.5715 484.607 50.8512 484.527C50.1308 484.446 49.4028 484.581 48.7588 484.913C48.1149 485.246 47.5838 485.762 47.2327 486.396C46.8816 487.03 46.7262 487.754 46.7859 488.477C46.8457 489.199 47.1181 489.887 47.5686 490.455C48.0192 491.023 48.6278 491.445 49.3177 491.667C49.7783 491.815 50.2638 491.871 50.7461 491.831C51.2284 491.791 51.698 491.657 52.128 491.434C52.5579 491.212 52.9397 490.907 53.2513 490.537C53.563 490.167 53.7983 489.738 53.9437 489.277Z" fill="white" stroke="#263238" stroke-width="0.5" stroke-miterlimit="10"/>
<path d="M67.3421 568.289C67.56 567.597 67.5682 566.857 67.3658 566.161C67.1634 565.465 66.7595 564.844 66.2049 564.378C65.6503 563.911 64.97 563.619 64.2496 563.538C63.5293 563.458 62.8012 563.592 62.1572 563.925C61.5133 564.258 60.9823 564.774 60.6312 565.408C60.2801 566.042 60.1246 566.766 60.1844 567.488C60.2442 568.211 60.5165 568.899 60.9671 569.467C61.4176 570.035 62.0262 570.456 62.7161 570.679C63.6465 570.974 64.6562 570.888 65.5235 570.44C66.3908 569.992 67.0448 569.218 67.3421 568.289Z" fill="white" stroke="#263238" stroke-width="0.5" stroke-miterlimit="10"/>
<path d="M174.062 500.117C174.399 499.056 174.415 497.92 174.106 496.851C173.798 495.781 173.179 494.828 172.329 494.11C171.479 493.392 170.435 492.942 169.329 492.818C168.223 492.693 167.105 492.899 166.116 493.41C165.128 493.92 164.312 494.712 163.774 495.686C163.235 496.66 162.997 497.771 163.09 498.88C163.183 499.989 163.602 501.046 164.295 501.916C164.989 502.787 165.924 503.432 166.984 503.771C168.407 504.222 169.951 504.091 171.278 503.406C172.604 502.721 173.606 501.538 174.062 500.117Z" fill="white" stroke="#263238" stroke-width="0.5" stroke-miterlimit="10"/>
<path d="M117.871 453.872C118.206 452.811 118.218 451.675 117.907 450.607C117.596 449.539 116.976 448.587 116.125 447.871C115.273 447.156 114.228 446.708 113.123 446.586C112.017 446.464 110.9 446.671 109.912 447.184C108.925 447.696 108.111 448.489 107.574 449.463C107.037 450.437 106.801 451.549 106.895 452.657C106.989 453.765 107.41 454.821 108.104 455.69C108.798 456.56 109.734 457.204 110.793 457.542C111.499 457.767 112.242 457.851 112.98 457.788C113.718 457.725 114.437 457.518 115.094 457.177C115.752 456.836 116.335 456.368 116.812 455.801C117.289 455.234 117.648 454.579 117.871 453.872Z" fill="white" stroke="#263238" stroke-width="0.5" stroke-miterlimit="10"/>
<path d="M138.414 575.027C138.751 573.967 138.766 572.83 138.458 571.761C138.15 570.692 137.531 569.738 136.681 569.02C135.83 568.302 134.786 567.852 133.681 567.728C132.575 567.603 131.457 567.809 130.468 568.32C129.479 568.83 128.664 569.622 128.125 570.596C127.587 571.57 127.349 572.682 127.442 573.79C127.534 574.899 127.954 575.956 128.647 576.826C129.34 577.697 130.276 578.343 131.336 578.682C132.04 578.907 132.783 578.991 133.52 578.929C134.257 578.868 134.975 578.661 135.632 578.322C136.29 577.982 136.874 577.517 137.351 576.951C137.828 576.386 138.189 575.732 138.414 575.027Z" fill="white" stroke="#263238" stroke-width="0.5" stroke-miterlimit="10"/>
<path d="M569.545 707.269C569.763 706.578 569.771 705.837 569.569 705.141C569.367 704.445 568.963 703.825 568.408 703.358C567.853 702.891 567.173 702.599 566.453 702.519C565.732 702.438 565.004 702.573 564.36 702.906C563.716 703.238 563.185 703.754 562.834 704.388C562.483 705.022 562.328 705.746 562.388 706.469C562.447 707.191 562.72 707.88 563.17 708.447C563.621 709.015 564.229 709.437 564.919 709.659C565.85 709.955 566.859 709.869 567.727 709.421C568.594 708.973 569.248 708.199 569.545 707.269Z" fill="white" stroke="#263238" stroke-width="0.5" stroke-miterlimit="10"/>
<path d="M638.319 660.578C638.537 659.886 638.545 659.146 638.342 658.45C638.14 657.754 637.736 657.133 637.181 656.667C636.627 656.2 635.947 655.908 635.226 655.827C634.506 655.747 633.778 655.881 633.134 656.214C632.49 656.547 631.959 657.063 631.608 657.697C631.257 658.331 631.101 659.055 631.161 659.777C631.221 660.5 631.493 661.188 631.944 661.756C632.394 662.324 633.003 662.745 633.693 662.968C634.623 663.263 635.633 663.178 636.5 662.729C637.367 662.281 638.021 661.507 638.319 660.578Z" fill="white" stroke="#263238" stroke-width="0.5" stroke-miterlimit="10"/>
<path d="M596.746 696.768C597.081 695.707 597.093 694.571 596.782 693.503C596.471 692.435 595.851 691.483 595 690.767C594.148 690.051 593.103 689.604 591.998 689.481C590.892 689.359 589.775 689.567 588.787 690.079C587.8 690.591 586.986 691.384 586.449 692.358C585.912 693.333 585.676 694.444 585.77 695.552C585.864 696.661 586.285 697.716 586.979 698.586C587.673 699.455 588.609 700.1 589.668 700.438C590.374 700.665 591.118 700.75 591.856 700.688C592.595 700.627 593.314 700.419 593.972 700.078C594.63 699.737 595.214 699.268 595.69 698.7C596.166 698.132 596.525 697.475 596.746 696.768Z" fill="white" stroke="#263238" stroke-width="0.5" stroke-miterlimit="10"/>
<path d="M702.232 625.173C702.571 624.112 702.587 622.975 702.279 621.904C701.971 620.834 701.352 619.88 700.501 619.161C699.65 618.443 698.605 617.993 697.498 617.869C696.392 617.745 695.273 617.952 694.284 618.464C693.295 618.975 692.48 619.769 691.942 620.744C691.404 621.719 691.168 622.832 691.263 623.942C691.358 625.051 691.779 626.108 692.475 626.978C693.171 627.847 694.109 628.491 695.17 628.828C696.591 629.278 698.133 629.146 699.457 628.461C700.781 627.776 701.779 626.593 702.232 625.173Z" fill="white" stroke="#263238" stroke-width="0.5" stroke-miterlimit="10"/>
<path d="M646.873 582.475C647.091 581.784 647.099 581.043 646.897 580.347C646.695 579.651 646.291 579.031 645.736 578.564C645.182 578.097 644.501 577.805 643.781 577.725C643.06 577.644 642.332 577.779 641.688 578.112C641.045 578.444 640.514 578.96 640.162 579.594C639.811 580.229 639.656 580.952 639.716 581.675C639.775 582.397 640.048 583.086 640.498 583.653C640.949 584.221 641.557 584.643 642.247 584.865C642.708 585.014 643.193 585.069 643.676 585.03C644.158 584.99 644.628 584.855 645.058 584.633C645.488 584.41 645.869 584.105 646.181 583.735C646.493 583.365 646.728 582.937 646.873 582.475Z" fill="white" stroke="#263238" stroke-width="0.5" stroke-miterlimit="10"/>
<path d="M610.233 552.329C610.451 551.637 610.459 550.897 610.256 550.201C610.054 549.505 609.65 548.884 609.096 548.418C608.541 547.951 607.861 547.659 607.14 547.578C606.42 547.498 605.692 547.632 605.048 547.965C604.404 548.298 603.873 548.814 603.522 549.448C603.171 550.082 603.015 550.806 603.075 551.528C603.135 552.251 603.407 552.939 603.858 553.507C604.308 554.075 604.917 554.496 605.607 554.719C606.067 554.867 606.553 554.923 607.035 554.883C607.517 554.843 607.987 554.708 608.417 554.486C608.847 554.264 609.229 553.959 609.54 553.589C609.852 553.218 610.087 552.79 610.233 552.329Z" fill="white" stroke="#263238" stroke-width="0.5" stroke-miterlimit="10"/>
<path d="M730.339 563.153C730.674 562.092 730.687 560.955 730.377 559.886C730.066 558.817 729.445 557.864 728.593 557.148C727.741 556.431 726.695 555.984 725.589 555.862C724.482 555.74 723.365 555.949 722.377 556.462C721.389 556.976 720.576 557.77 720.039 558.746C719.503 559.721 719.269 560.834 719.365 561.943C719.461 563.052 719.884 564.108 720.58 564.976C721.277 565.845 722.215 566.488 723.276 566.823C724.699 567.273 726.243 567.139 727.567 566.451C728.892 565.762 729.889 564.576 730.339 563.153Z" fill="white" stroke="#263238" stroke-width="0.5" stroke-miterlimit="10"/>
<path d="M674.154 516.924C674.493 515.863 674.509 514.726 674.201 513.655C673.893 512.585 673.274 511.631 672.423 510.912C671.572 510.194 670.527 509.744 669.42 509.62C668.313 509.496 667.195 509.703 666.206 510.215C665.217 510.726 664.402 511.52 663.864 512.495C663.326 513.47 663.09 514.583 663.185 515.693C663.279 516.802 663.701 517.859 664.397 518.729C665.092 519.598 666.03 520.242 667.092 520.579C668.513 521.029 670.055 520.897 671.379 520.212C672.703 519.527 673.701 518.344 674.154 516.924Z" fill="white" stroke="#263238" stroke-width="0.5" stroke-miterlimit="10"/>
<path d="M123.705 647.887C123.926 647.196 123.937 646.455 123.737 645.758C123.537 645.061 123.135 644.438 122.581 643.969C122.028 643.501 121.348 643.206 120.628 643.124C119.907 643.041 119.178 643.173 118.533 643.505C117.888 643.836 117.355 644.351 117.002 644.984C116.65 645.618 116.493 646.342 116.551 647.065C116.609 647.788 116.881 648.477 117.331 649.046C117.781 649.615 118.389 650.038 119.079 650.261C119.539 650.41 120.023 650.467 120.505 650.428C120.986 650.389 121.455 650.255 121.885 650.034C122.315 649.814 122.697 649.511 123.009 649.142C123.321 648.773 123.558 648.347 123.705 647.887Z" fill="white" stroke="#263238" stroke-width="0.5" stroke-miterlimit="10"/>
<path d="M229.147 631.341C229.365 630.65 229.373 629.91 229.171 629.214C228.968 628.518 228.564 627.897 228.01 627.43C227.455 626.964 226.775 626.672 226.054 626.591C225.334 626.511 224.606 626.645 223.962 626.978C223.318 627.311 222.787 627.826 222.436 628.461C222.085 629.095 221.929 629.819 221.989 630.541C222.049 631.263 222.321 631.952 222.772 632.52C223.222 633.087 223.831 633.509 224.521 633.731C224.981 633.88 225.467 633.936 225.949 633.896C226.432 633.856 226.901 633.721 227.331 633.499C227.761 633.277 228.143 632.972 228.454 632.601C228.766 632.231 229.001 631.803 229.147 631.341Z" fill="white" stroke="#263238" stroke-width="0.5" stroke-miterlimit="10"/>
<path d="M192.506 601.179C192.724 600.488 192.732 599.747 192.53 599.051C192.327 598.355 191.924 597.735 191.369 597.268C190.814 596.802 190.134 596.51 189.414 596.429C188.693 596.348 187.965 596.483 187.321 596.816C186.677 597.148 186.146 597.664 185.795 598.299C185.444 598.933 185.289 599.657 185.348 600.379C185.408 601.101 185.681 601.79 186.131 602.357C186.582 602.925 187.19 603.347 187.88 603.569C188.341 603.718 188.826 603.774 189.309 603.734C189.791 603.694 190.261 603.559 190.69 603.337C191.12 603.115 191.502 602.81 191.814 602.439C192.125 602.069 192.361 601.641 192.506 601.179Z" fill="white" stroke="#263238" stroke-width="0.5" stroke-miterlimit="10"/>
<path d="M205.889 680.191C206.107 679.5 206.115 678.759 205.913 678.063C205.71 677.367 205.306 676.747 204.752 676.28C204.197 675.813 203.517 675.521 202.796 675.441C202.076 675.36 201.348 675.495 200.704 675.827C200.06 676.16 199.529 676.676 199.178 677.31C198.827 677.944 198.671 678.668 198.731 679.391C198.791 680.113 199.063 680.801 199.514 681.369C199.965 681.937 200.573 682.359 201.263 682.581C201.724 682.729 202.209 682.785 202.691 682.745C203.174 682.706 203.643 682.571 204.073 682.348C204.503 682.126 204.885 681.821 205.197 681.451C205.508 681.081 205.744 680.652 205.889 680.191Z" fill="white" stroke="#263238" stroke-width="0.5" stroke-miterlimit="10"/>
<path d="M150.937 637.385C151.274 636.325 151.29 635.188 150.981 634.119C150.673 633.05 150.054 632.096 149.204 631.378C148.354 630.66 147.31 630.211 146.204 630.086C145.098 629.962 143.98 630.168 142.991 630.678C142.003 631.189 141.187 631.981 140.649 632.955C140.11 633.928 139.872 635.04 139.965 636.149C140.058 637.258 140.477 638.314 141.17 639.185C141.864 640.055 142.799 640.701 143.859 641.04C145.282 641.491 146.826 641.359 148.153 640.674C149.479 639.99 150.481 638.807 150.937 637.385Z" fill="white" stroke="#263238" stroke-width="0.5" stroke-miterlimit="10"/>
<path d="M312.615 612.02C312.954 610.959 312.97 609.821 312.662 608.751C312.353 607.681 311.735 606.726 310.884 606.008C310.033 605.29 308.988 604.84 307.881 604.716C306.774 604.592 305.656 604.798 304.667 605.31C303.678 605.822 302.863 606.616 302.325 607.591C301.787 608.566 301.551 609.679 301.645 610.789C301.74 611.898 302.162 612.955 302.858 613.824C303.553 614.694 304.491 615.338 305.553 615.674C306.974 616.125 308.516 615.993 309.84 615.308C311.164 614.623 312.162 613.44 312.615 612.02Z" fill="white" stroke="#263238" stroke-width="0.5" stroke-miterlimit="10"/>
<path d="M256.52 565.775C256.854 564.714 256.867 563.578 256.556 562.51C256.245 561.441 255.625 560.489 254.773 559.774C253.921 559.058 252.877 558.611 251.771 558.488C250.666 558.366 249.548 558.574 248.561 559.086C247.573 559.598 246.76 560.391 246.223 561.365C245.686 562.339 245.449 563.451 245.544 564.559C245.638 565.668 246.059 566.723 246.752 567.593C247.446 568.462 248.382 569.107 249.442 569.445C250.147 569.672 250.891 569.757 251.63 569.695C252.368 569.633 253.087 569.426 253.746 569.085C254.404 568.743 254.987 568.275 255.464 567.707C255.94 567.139 256.299 566.482 256.52 565.775Z" fill="white" stroke="#263238" stroke-width="0.5" stroke-miterlimit="10"/>
<path d="M276.964 686.93C277.299 685.868 277.312 684.731 277.002 683.662C276.691 682.593 276.07 681.64 275.218 680.924C274.366 680.208 273.32 679.76 272.214 679.638C271.107 679.516 269.99 679.725 269.002 680.239C268.014 680.752 267.201 681.547 266.664 682.522C266.128 683.498 265.894 684.61 265.99 685.72C266.086 686.829 266.509 687.884 267.205 688.753C267.902 689.621 268.84 690.264 269.901 690.6C271.324 691.049 272.868 690.915 274.192 690.227C275.517 689.539 276.514 688.353 276.964 686.93Z" fill="white" stroke="#263238" stroke-width="0.5" stroke-miterlimit="10"/>
<path d="M722.709 327.536C722.927 326.844 722.935 326.104 722.733 325.408C722.531 324.712 722.127 324.091 721.572 323.625C721.018 323.158 720.337 322.866 719.617 322.785C718.896 322.705 718.168 322.839 717.524 323.172C716.88 323.505 716.349 324.021 715.998 324.655C715.647 325.289 715.492 326.013 715.552 326.735C715.611 327.458 715.884 328.146 716.334 328.714C716.785 329.282 717.393 329.703 718.083 329.926C719.014 330.221 720.023 330.136 720.891 329.687C721.758 329.239 722.412 328.465 722.709 327.536Z" fill="white" stroke="#263238" stroke-width="0.5" stroke-miterlimit="10"/>
<path d="M701.553 258.377C701.771 257.686 701.779 256.946 701.577 256.25C701.374 255.554 700.97 254.933 700.416 254.467C699.861 254 699.181 253.708 698.461 253.627C697.74 253.547 697.012 253.681 696.368 254.014C695.724 254.347 695.193 254.863 694.842 255.497C694.491 256.131 694.336 256.855 694.395 257.577C694.455 258.3 694.727 258.988 695.178 259.556C695.629 260.124 696.237 260.545 696.927 260.768C697.857 261.063 698.867 260.977 699.734 260.529C700.602 260.081 701.256 259.307 701.553 258.377Z" fill="white" stroke="#263238" stroke-width="0.5" stroke-miterlimit="10"/>
<path d="M728.785 247.876C729.12 246.815 729.132 245.679 728.821 244.611C728.511 243.543 727.89 242.591 727.039 241.875C726.187 241.16 725.142 240.712 724.037 240.59C722.931 240.467 721.814 240.675 720.827 241.187C719.839 241.699 719.025 242.493 718.488 243.467C717.951 244.441 717.715 245.552 717.809 246.661C717.904 247.769 718.324 248.825 719.018 249.694C719.712 250.564 720.648 251.208 721.707 251.546C722.413 251.771 723.156 251.855 723.894 251.792C724.632 251.729 725.351 251.521 726.008 251.181C726.666 250.84 727.249 250.372 727.726 249.805C728.203 249.238 728.562 248.583 728.785 247.876Z" fill="white" stroke="#263238" stroke-width="0.5" stroke-miterlimit="10"/>
</svg>
