<svg width="771" height="772" viewBox="0 0 771 772" fill="none" xmlns="http://www.w3.org/2000/svg">
<path d="M99.9746 476.556C99.9746 476.556 168.254 483.31 202.857 525.638C202.857 525.638 239.418 476.603 305.091 477.605C321.145 458.248 331.369 434.729 334.573 409.787C337.777 384.844 333.829 359.505 323.188 336.719C312.547 313.934 295.652 294.641 274.47 281.087C253.288 267.532 228.691 260.275 203.544 260.16C178.396 260.044 153.734 267.076 132.428 280.435C111.123 293.795 94.0514 312.932 83.202 335.619C72.3527 358.306 68.172 383.608 71.1469 408.579C74.1218 433.55 84.1298 457.161 100.005 476.664L99.9746 476.556Z" fill="#DEDEDE"/>
<path d="M268.594 399.797C268.594 399.797 227.777 409.466 205.264 442.295L203.968 394.493L204.061 395.14C204.061 395.14 227.114 353.645 268.594 340.97C268.594 340.97 225.88 351.101 203.737 385.78L200.653 269.514L199.682 413.644C177.97 380.646 138.418 370.931 138.418 370.931C173.36 382.003 194.732 415.001 199.62 423.22L199.296 470.698C177.508 438.162 138.418 428.556 138.418 428.556C172.527 439.35 193.699 471.053 199.234 480.213L198.34 650.249H209.874L207.068 507.922C214.516 496.666 235.78 468.555 268.64 458.578C268.64 458.578 229.612 467.83 206.837 498.948L205.557 451.562C211.123 442.557 233.112 410.637 268.594 399.797Z" fill="#263238"/>
<path opacity="0.6" d="M268.594 399.797C268.594 399.797 227.777 409.466 205.264 442.295L203.968 394.493L204.061 395.14C204.061 395.14 227.114 353.645 268.594 340.97C268.594 340.97 225.88 351.101 203.737 385.78L200.653 269.514L199.682 413.644C177.97 380.646 138.418 370.931 138.418 370.931C173.36 382.003 194.732 415.001 199.62 423.22L199.296 470.698C177.508 438.162 138.418 428.556 138.418 428.556C172.527 439.35 193.699 471.053 199.234 480.213L198.34 650.249H209.874L207.068 507.922C214.516 496.666 235.78 468.555 268.64 458.578C268.64 458.578 229.612 467.83 206.837 498.948L205.557 451.562C211.123 442.557 233.112 410.637 268.594 399.797Z" fill="white"/>
<path d="M475.974 476.557C475.974 476.557 544.254 483.311 578.856 525.639C578.856 525.639 615.417 476.603 681.091 477.606C697.151 458.248 707.38 434.726 710.587 409.779C713.794 384.832 709.847 359.488 699.206 336.698C688.565 313.908 671.667 294.61 650.482 281.053C629.296 267.495 604.695 260.236 579.543 260.121C554.392 260.005 529.725 267.038 508.416 280.401C487.107 293.764 470.034 312.905 459.184 335.597C448.334 358.289 444.155 383.596 447.133 408.571C450.111 433.546 460.124 457.161 476.005 476.665L475.974 476.557Z" fill="#DEDEDE"/>
<path d="M644.594 399.795C644.594 399.795 603.777 409.464 581.248 442.293L579.968 394.491L580.061 395.138C580.061 395.138 603.114 353.643 644.594 340.968C644.594 340.968 601.88 351.099 579.737 385.779L576.653 269.512L575.682 413.642C553.97 380.644 514.418 370.929 514.418 370.929C549.344 382.001 570.732 414.999 575.605 423.218L575.296 470.696C553.508 438.16 514.418 428.554 514.418 428.554C548.527 439.348 569.699 471.051 575.234 480.211L574.34 651.866H585.874L583.068 507.92C590.5 496.664 611.78 468.553 644.64 458.576C644.64 458.576 605.612 467.828 582.821 498.946L581.541 451.56C587.123 442.555 609.097 410.636 644.594 399.795Z" fill="#263238"/>
<path opacity="0.6" d="M644.594 399.795C644.594 399.795 603.777 409.464 581.248 442.293L579.968 394.491L580.061 395.138C580.061 395.138 603.114 353.643 644.594 340.968C644.594 340.968 601.88 351.099 579.737 385.779L576.653 269.512L575.682 413.642C553.97 380.644 514.418 370.929 514.418 370.929C549.344 382.001 570.732 414.999 575.605 423.218L575.296 470.696C553.508 438.16 514.418 428.554 514.418 428.554C548.527 439.348 569.699 471.051 575.234 480.211L574.34 651.866H585.874L583.068 507.92C590.5 496.664 611.78 468.553 644.64 458.576C644.64 458.576 605.612 467.828 582.821 498.946L581.541 451.56C587.123 442.555 609.097 410.636 644.594 399.795Z" fill="white"/>
<path d="M188.516 398.424C188.516 398.424 264.644 405.949 303.225 453.134C303.225 453.134 343.996 398.47 417.21 399.596C435.119 378.007 446.526 351.774 450.102 323.953C453.678 296.132 449.276 267.867 437.409 242.451C425.541 217.035 406.696 195.513 383.07 180.394C359.443 165.274 332.007 157.179 303.957 157.05C275.907 156.922 248.398 164.765 224.633 179.668C200.869 194.57 181.828 215.917 169.728 241.224C157.628 266.53 152.966 294.753 156.287 322.606C159.608 350.459 170.774 376.795 188.485 398.547L188.516 398.424Z" fill="#EDEDED"/>
<path d="M376.519 312.828C376.519 312.828 331.015 323.622 305.896 360.213L304.462 306.983L304.57 307.693C304.57 307.693 330.259 261.433 376.519 247.293C376.519 247.293 328.902 258.595 304.2 297.269L300.715 167.633L299.712 328.325C275.503 291.533 231.402 280.708 231.402 280.708C270.353 293.044 294.192 329.836 299.635 339.011L299.203 392.009C274.917 355.726 231.355 345.024 231.355 345.024C269.381 357.052 293.035 392.395 299.203 402.603L298.217 647.781H311.061L307.977 433.582C316.273 421.03 339.989 389.696 376.627 378.501C376.627 378.501 333.112 388.817 307.7 423.497L306.281 370.683C312.434 360.506 336.952 324.917 376.519 312.828Z" fill="#263238"/>
<path opacity="0.6" d="M376.519 312.828C376.519 312.828 331.015 323.622 305.896 360.213L304.462 306.983L304.57 307.693C304.57 307.693 330.259 261.433 376.519 247.293C376.519 247.293 328.902 258.595 304.2 297.269L300.715 167.633L299.712 328.325C275.503 291.533 231.402 280.708 231.402 280.708C270.353 293.044 294.192 329.836 299.635 339.011L299.203 392.009C274.917 355.726 231.355 345.024 231.355 345.024C269.381 357.052 293.035 392.395 299.203 402.603L298.217 647.781H311.061L307.977 433.582C316.273 421.03 339.989 389.696 376.627 378.501C376.627 378.501 333.112 388.817 307.7 423.497L306.281 370.683C312.434 360.506 336.952 324.917 376.519 312.828Z" fill="white"/>
<path d="M719.238 652.885L730.032 653.394" stroke="#263238" stroke-miterlimit="10"/>
<path d="M72.2617 655.198C72.2617 655.198 112.909 654.304 148.144 652.5C183.378 650.696 245.721 648.876 281.85 648.876C317.979 648.876 355.943 642.554 431.825 648.876C507.707 655.198 556.511 654.304 599.903 651.59C629.371 649.755 678.885 651.251 707.581 652.392" stroke="#263238" stroke-miterlimit="10"/>
<path d="M300.598 682.678C312.672 682.154 332.44 681.136 357.744 679.594C401.105 676.896 425.5 684.112 456.216 684.112C486.933 684.112 499.577 685.022 509.523 685.022" stroke="#263238" stroke-miterlimit="10"/>
<path d="M287.277 683.217L294.771 682.924" stroke="#263238" stroke-miterlimit="10"/>
<path d="M324.16 709.416H332.441" stroke="#263238" stroke-miterlimit="10"/>
<path d="M116.316 703.832C132.631 702.182 155.545 700.024 168.02 699.468C188.806 698.574 237.579 709.414 269.206 709.414H313.924" stroke="#263238" stroke-miterlimit="10"/>
<path d="M97.5508 705.791L106.063 704.896" stroke="#263238" stroke-miterlimit="10"/>
<path d="M664.926 704.295C671.541 704.65 675.72 704.896 675.72 704.896" stroke="#263238" stroke-miterlimit="10"/>
<path d="M438.074 713.023C438.074 713.023 481.451 710.309 510.348 704.896C539.245 699.484 570.887 702.182 600.694 702.182C617.147 702.182 638.272 703.015 653.908 703.724" stroke="#263238" stroke-miterlimit="10"/>
<path d="M334.067 468.386C334.067 468.386 330.181 494.476 334.067 513.905C337.953 533.335 341.777 552.209 341.777 552.209C341.777 552.209 338.446 571.638 340.666 588.291C342.887 604.945 346.834 642.693 345.663 649.355C344.491 656.016 337.953 668.784 327.344 678.221C316.735 687.658 317.907 693.209 321.176 695.985C324.445 698.76 340.605 699.315 348.376 697.095C356.148 694.875 363.904 688.213 366.68 687.103C369.456 685.993 378.338 686.548 380.558 682.107C382.778 677.666 378.338 652.13 377.227 649.355C376.117 646.579 381.668 597.729 382.778 583.851C383.889 569.972 383.334 548.385 383.334 548.385C383.334 548.385 389.995 496.203 387.219 478.439C384.444 460.676 334.067 468.386 334.067 468.386Z" fill="#263238" stroke="#263238" stroke-miterlimit="10"/>
<path d="M366.803 687.103C369.579 685.993 378.461 686.548 380.681 682.107C382.902 677.666 378.461 652.13 377.351 649.355C376.364 646.857 380.728 607.274 382.439 589.217C369.193 594.043 351.445 591.653 340.805 589.463C343.041 606.611 346.742 642.894 345.663 649.416C344.583 655.939 337.953 668.846 327.344 678.283C316.735 687.72 317.907 693.271 321.176 696.047C324.445 698.822 340.605 699.377 348.376 697.157C356.148 694.936 364.028 688.213 366.803 687.103Z" fill="white" stroke="#263238" stroke-miterlimit="10"/>
<path d="M377.987 590.464C365.435 593.456 350.308 591.359 340.871 589.4C341.472 594.026 342.182 600.071 342.876 606.547C349.815 608.907 365.096 612.638 380.716 606.547C381.287 600.827 381.827 595.445 382.258 591.035C381.071 590.927 379.637 590.711 377.987 590.464Z" fill="#263238" stroke="#263238" stroke-miterlimit="10"/>
<path d="M339.066 574.412C347.105 576.151 355.266 577.265 363.476 577.743C371.021 578.031 378.553 576.901 385.681 574.412C385.681 574.412 389.012 575.522 387.902 579.963C386.791 584.404 387.347 598.837 385.126 602.168C382.906 605.499 369.583 606.054 359.051 606.054C348.519 606.054 340.732 603.833 339.622 601.058C338.511 598.282 337.401 578.853 337.401 578.853C337.401 578.853 335.181 576.077 339.066 574.412Z" fill="white" stroke="#263238" stroke-miterlimit="10"/>
<path d="M348.503 697.095C356.213 694.874 364.031 688.213 366.806 687.103C369.582 685.992 378.464 686.547 380.684 682.106C381.316 680.873 381.409 677.989 381.209 674.396C374.068 675.344 367.441 678.63 362.365 683.741C355.164 690.958 349.058 694.288 336.29 694.843C330.174 695.158 324.127 693.433 319.097 689.94C318.878 691.048 318.969 692.195 319.357 693.255C319.746 694.316 320.419 695.249 321.302 695.954C324.633 698.76 340.731 699.315 348.503 697.095Z" fill="white" stroke="#263238" stroke-miterlimit="10"/>
<path d="M454.208 468.386C454.208 468.386 458.094 494.476 454.208 513.905C450.322 533.335 446.498 552.209 446.498 552.209C446.498 552.209 449.829 571.638 447.608 588.291C445.388 604.945 441.44 642.693 442.612 649.355C443.784 656.016 450.322 668.784 460.931 678.221C471.54 687.658 470.368 693.209 467.099 695.985C463.83 698.76 447.67 699.315 439.898 697.095C432.127 694.875 424.355 688.213 421.579 687.103C418.804 685.993 409.922 686.548 407.701 682.107C405.481 677.666 409.922 652.13 411.032 649.355C412.142 646.579 406.591 597.729 405.481 583.851C404.371 569.972 404.926 548.385 404.926 548.385C404.926 548.385 398.264 496.203 401.04 478.439C403.815 460.676 454.208 468.386 454.208 468.386Z" fill="#263238" stroke="#263238" stroke-miterlimit="10"/>
<path d="M421.53 687.103C418.755 685.993 409.873 686.548 407.652 682.107C405.432 677.666 409.873 652.13 410.983 649.355C411.97 646.857 407.606 607.274 405.895 589.217C419.14 594.043 436.889 591.653 447.529 589.463C445.293 606.611 441.592 642.894 442.687 649.416C443.781 655.939 450.397 668.846 461.006 678.283C471.615 687.72 470.443 693.271 467.174 696.047C463.905 698.822 447.744 699.377 439.973 697.157C432.201 694.936 424.229 688.213 421.53 687.103Z" fill="white" stroke="#263238" stroke-miterlimit="10"/>
<path d="M445.183 608.383C445.938 601.228 446.725 594.505 447.388 589.401C436.81 591.591 419.061 594.027 405.754 589.154C406.232 594.243 406.926 601.028 407.651 608.198C415.237 609.709 432.045 612.253 445.183 608.383Z" fill="#263238" stroke="#263238" stroke-miterlimit="10"/>
<path d="M449.284 574.412C441.241 576.152 433.075 577.266 424.859 577.743C417.314 578.031 409.782 576.901 402.654 574.412C402.654 574.412 399.323 575.522 400.434 579.963C401.544 584.404 400.989 598.837 403.209 602.168C405.43 605.499 418.753 606.054 429.3 606.054C439.847 606.054 447.619 603.833 448.729 601.058C449.839 598.282 450.95 578.853 450.95 578.853C450.95 578.853 453.093 576.077 449.284 574.412Z" fill="white" stroke="#263238" stroke-miterlimit="10"/>
<path d="M439.77 697.095C432.06 694.874 424.227 688.213 421.451 687.103C418.675 685.992 409.794 686.547 407.573 682.106C406.956 680.873 406.848 677.989 407.049 674.396C414.19 675.344 420.816 678.63 425.892 683.741C433.109 690.958 439.215 694.288 451.983 694.843C458.098 695.15 464.143 693.426 469.176 689.94C469.394 691.048 469.304 692.195 468.915 693.255C468.526 694.316 467.854 695.249 466.971 695.954C463.64 698.76 447.542 699.315 439.77 697.095Z" fill="white" stroke="#263238" stroke-miterlimit="10"/>
<path d="M515.501 227.186C515.501 227.186 514.761 216.069 517.043 210.502C519.325 204.935 522.24 200.849 527.837 195.652C533.435 190.456 537.49 187.495 537.49 189.346C537.642 191.777 536.84 194.173 535.254 196.023C533.034 198.999 530.058 204.195 530.058 204.195C533.457 204.186 536.836 203.666 540.081 202.653C544.036 200.778 547.877 198.673 551.584 196.346C551.584 196.346 549.348 185.229 550.844 185.229C552.34 185.229 558.631 198.952 559.741 201.173C560.082 201.848 560.229 202.605 560.166 203.358C560.104 204.112 559.834 204.834 559.387 205.444C556.58 209.315 550.397 217.487 546.758 219.723C541.931 222.699 530.428 226.77 530.428 226.77L528.886 232.707L515.501 227.186Z" fill="white" stroke="#263238" stroke-miterlimit="10"/>
<path d="M560.63 201.449C561.588 199.285 562.232 196.995 562.543 194.649C562.974 191.025 563.391 183.161 561.001 183.361C558.61 183.562 558.873 188.265 558.873 191.673C558.873 195.08 557.223 200.801 557.223 201.449C557.223 202.096 559.135 204.009 560.63 201.449Z" fill="white" stroke="#263238" stroke-miterlimit="10"/>
<path d="M555.191 208.635C555.191 208.635 560.758 202.328 560.758 199.383C560.758 196.438 559.648 183.053 557.057 183.793C554.467 184.533 555.947 198.643 555.947 198.643L555.191 203.469V208.635Z" fill="white" stroke="#263238" stroke-miterlimit="10"/>
<path d="M524.399 223.485C524.399 223.485 524.029 221.943 527.375 216.068C530.721 210.193 544.445 207.155 545.879 206.816C547.313 206.476 551.446 202.359 551.446 202.359C551.446 202.359 546.619 192.352 548.84 191.565C551.06 190.779 558.092 200.817 558.092 204.919C558.092 209.021 548.439 217.162 548.439 217.162" fill="white"/>
<path d="M524.399 223.485C524.399 223.485 524.029 221.943 527.375 216.068C530.721 210.193 544.445 207.155 545.879 206.816C547.313 206.476 551.446 202.359 551.446 202.359C551.446 202.359 546.619 192.352 548.84 191.565C551.06 190.779 558.092 200.817 558.092 204.919C558.092 209.021 548.439 217.162 548.439 217.162" stroke="#263238" stroke-miterlimit="10"/>
<path d="M505.322 245.334L490.704 279.952C490.704 279.952 469.547 240.338 467.25 239.567C464.952 238.796 446.093 233.029 446.093 233.029L429.548 229.189L396.241 235.357L362.764 229.189L346.141 233.029C346.141 233.029 327.19 238.796 324.877 239.567C322.564 240.338 301.253 279.952 301.253 279.952L286.558 245.334L259.496 258.796C259.496 258.796 262.21 276.498 267.206 289.96C272.202 303.421 282.287 324.963 283.443 326.505C284.6 328.047 288.64 330.206 291.153 329.188C307.314 322.758 334.021 300.954 334.854 299.983L339.094 340.738C339.094 340.738 322.132 382.279 321.315 395.741C320.498 409.203 314.36 500.366 314.36 500.366C314.36 500.366 334.067 509.217 353.018 511.16C359.664 511.823 378.924 513.025 387.868 513.565L393.511 486.734L399.417 513.503C410.751 512.948 432.74 511.807 439.093 511.16C457.936 509.232 477.55 500.366 477.55 500.366C477.55 500.366 471.382 409.203 470.627 395.741C469.871 382.279 452.94 340.738 452.94 340.738L457.165 299.983C457.982 300.954 484.551 322.758 500.634 329.188C503.163 330.206 507.172 328.047 508.344 326.505C509.516 324.963 519.493 303.375 524.504 289.96C529.516 276.544 532.214 258.796 532.214 258.796L505.322 245.334Z" fill="#FFA500" stroke="#263238" stroke-miterlimit="10"/>
<path d="M327.779 392.117L382.397 399.118L380.994 417.329C380.994 417.329 366.992 416.681 361.395 416.681C355.797 416.681 351.85 419.395 349.753 419.395C347.656 419.395 341.349 414.492 337.849 413.088C333.637 411.86 329.338 410.952 324.988 410.374L327.779 392.117Z" fill="#FFA500" stroke="#263238" stroke-miterlimit="10"/>
<path d="M348.636 415.109C349.326 415.109 349.885 414.55 349.885 413.86C349.885 413.171 349.326 412.611 348.636 412.611C347.946 412.611 347.387 413.171 347.387 413.86C347.387 414.55 347.946 415.109 348.636 415.109Z" fill="#FFA500" stroke="#263238" stroke-miterlimit="10"/>
<path d="M462.59 392.117L407.973 399.118L409.376 417.329C409.376 417.329 423.377 416.62 428.99 416.62C434.603 416.62 438.52 419.333 440.632 419.333C442.745 419.333 449.036 414.43 452.536 413.027C456.748 411.798 461.048 410.891 465.397 410.313L462.59 392.117Z" fill="#FFA500" stroke="#263238" stroke-miterlimit="10"/>
<path d="M441.745 415.109C442.435 415.109 442.994 414.55 442.994 413.86C442.994 413.171 442.435 412.611 441.745 412.611C441.055 412.611 440.496 413.171 440.496 413.86C440.496 414.55 441.055 415.109 441.745 415.109Z" fill="#FFA500" stroke="#263238" stroke-miterlimit="10"/>
<path d="M501.418 254.572C506.445 259.891 516.961 269.113 529.174 268.712H530.377C531.579 262.975 532.212 258.874 532.212 258.874L505.273 245.412L501.418 254.572Z" fill="#263238" stroke="#263238" stroke-miterlimit="10"/>
<path d="M290.321 254.108L286.589 245.334L259.527 258.796C259.527 258.796 260.221 263.345 261.563 269.59C265.996 268.823 270.282 267.372 274.269 265.287C283.86 260.461 288.424 256.313 290.321 254.108Z" fill="#263238" stroke="#263238" stroke-miterlimit="10"/>
<path d="M393.004 263.545V477.867" stroke="#263238" stroke-miterlimit="10"/>
<path d="M393.004 255.729V259.383" stroke="#263238" stroke-miterlimit="10"/>
<path d="M402.919 263.885C402.922 264.52 402.736 265.142 402.386 265.671C402.035 266.201 401.535 266.614 400.949 266.86C400.364 267.105 399.718 267.17 399.095 267.048C398.472 266.926 397.899 266.622 397.449 266.174C396.999 265.726 396.692 265.155 396.567 264.532C396.442 263.91 396.504 263.264 396.747 262.677C396.989 262.09 397.4 261.588 397.928 261.235C398.456 260.882 399.076 260.693 399.711 260.693C400.559 260.693 401.373 261.029 401.974 261.627C402.575 262.225 402.914 263.037 402.919 263.885Z" stroke="#263238" stroke-miterlimit="10"/>
<path d="M402.919 296.854C402.919 297.488 402.731 298.108 402.378 298.636C402.026 299.163 401.525 299.574 400.939 299.817C400.353 300.06 399.708 300.123 399.086 300C398.463 299.876 397.892 299.57 397.443 299.122C396.995 298.673 396.689 298.102 396.566 297.48C396.442 296.857 396.505 296.213 396.748 295.626C396.991 295.04 397.402 294.539 397.929 294.187C398.457 293.835 399.077 293.647 399.711 293.647C400.133 293.644 400.551 293.726 400.941 293.886C401.331 294.047 401.686 294.283 401.984 294.581C402.282 294.88 402.518 295.234 402.679 295.624C402.839 296.014 402.921 296.432 402.919 296.854Z" stroke="#263238" stroke-miterlimit="10"/>
<path d="M402.919 329.805C402.922 330.44 402.736 331.062 402.386 331.591C402.035 332.121 401.535 332.534 400.949 332.779C400.364 333.025 399.718 333.09 399.095 332.968C398.472 332.846 397.899 332.542 397.449 332.094C396.999 331.646 396.692 331.075 396.567 330.452C396.442 329.829 396.504 329.184 396.747 328.597C396.989 328.01 397.4 327.508 397.928 327.155C398.456 326.802 399.076 326.613 399.711 326.613C400.559 326.613 401.373 326.949 401.974 327.547C402.575 328.145 402.914 328.957 402.919 329.805Z" stroke="#263238" stroke-miterlimit="10"/>
<path d="M402.919 362.711C402.919 363.346 402.731 363.966 402.378 364.493C402.026 365.021 401.525 365.432 400.939 365.674C400.353 365.917 399.708 365.981 399.086 365.857C398.463 365.733 397.892 365.428 397.443 364.979C396.995 364.531 396.689 363.959 396.566 363.337C396.442 362.715 396.505 362.07 396.748 361.484C396.991 360.898 397.402 360.397 397.929 360.044C398.457 359.692 399.077 359.504 399.711 359.504C400.562 359.504 401.378 359.842 401.979 360.443C402.581 361.045 402.919 361.861 402.919 362.711Z" stroke="#263238" stroke-miterlimit="10"/>
<path d="M402.919 395.725C402.922 396.36 402.736 396.982 402.386 397.511C402.035 398.041 401.535 398.454 400.949 398.699C400.364 398.944 399.718 399.01 399.095 398.888C398.472 398.766 397.899 398.462 397.449 398.014C396.999 397.566 396.692 396.995 396.567 396.372C396.442 395.749 396.504 395.104 396.747 394.517C396.989 393.93 397.4 393.428 397.928 393.075C398.456 392.722 399.076 392.533 399.711 392.533C400.559 392.533 401.373 392.869 401.974 393.467C402.575 394.065 402.914 394.877 402.919 395.725Z" stroke="#263238" stroke-miterlimit="10"/>
<path d="M402.919 428.694C402.919 429.328 402.731 429.948 402.378 430.476C402.026 431.003 401.525 431.414 400.939 431.657C400.353 431.9 399.708 431.963 399.086 431.839C398.463 431.716 397.892 431.41 397.443 430.962C396.995 430.513 396.689 429.942 396.566 429.319C396.442 428.697 396.505 428.052 396.748 427.466C396.991 426.88 397.402 426.379 397.929 426.027C398.457 425.674 399.077 425.486 399.711 425.486C400.562 425.486 401.378 425.824 401.979 426.426C402.581 427.027 402.919 427.843 402.919 428.694Z" stroke="#263238" stroke-miterlimit="10"/>
<path d="M402.919 461.647C402.919 462.281 402.731 462.901 402.378 463.429C402.026 463.956 401.525 464.367 400.939 464.61C400.353 464.853 399.708 464.916 399.086 464.793C398.463 464.669 397.892 464.363 397.443 463.915C396.995 463.466 396.689 462.895 396.566 462.273C396.442 461.65 396.505 461.006 396.748 460.419C396.991 459.833 397.402 459.332 397.929 458.98C398.457 458.628 399.077 458.439 399.711 458.439C400.133 458.437 400.551 458.519 400.941 458.679C401.331 458.84 401.686 459.076 401.984 459.374C402.282 459.673 402.518 460.027 402.679 460.417C402.839 460.807 402.921 461.225 402.919 461.647Z" stroke="#263238" stroke-miterlimit="10"/>
<path d="M459.137 273.385L459.353 270.146" stroke="#263238" stroke-miterlimit="10"/>
<path d="M457.246 299.984L458.819 277.779" stroke="#263238" stroke-miterlimit="10"/>
<path d="M330.661 272.982L330.121 269.574" stroke="#263238" stroke-miterlimit="10"/>
<path d="M334.931 299.984L331.23 276.576" stroke="#263238" stroke-miterlimit="10"/>
<path d="M414.741 244.378L412.043 365.163C412.043 365.163 425.921 366.32 433.631 365.934C441.341 365.549 449.791 360.923 449.791 360.923L437.1 233.615L414.741 244.378Z" fill="#263238" stroke="#263238" stroke-miterlimit="10"/>
<path d="M373.729 198.457C373.729 198.457 363.814 199.043 358.848 199.629C353.883 200.215 353.297 206.337 353.883 209.852C354.469 213.368 350.09 226.814 350.09 229.405C350.09 231.996 352.125 231.733 357.383 234.648C362.642 237.562 376.057 245.735 392.695 248.079C409.333 250.422 428.886 243.992 435.871 240.492C442.857 236.992 450.459 234.941 450.752 229.405C451.045 223.869 448.423 217.439 446.958 211.888C445.493 206.337 442.008 201.094 439.079 200.801C436.149 200.508 424.491 199.336 417.198 199.336C409.904 199.336 373.729 198.457 373.729 198.457Z" fill="#263238" stroke="#263238" stroke-miterlimit="10"/>
<path d="M369.691 157.317C373.159 152.734 377.097 148.527 381.441 144.765C386.993 140.386 398.08 138.936 404.201 138.936C409.497 138.716 414.772 139.713 419.621 141.851C425.58 144.687 430.339 149.544 433.052 155.559C435.496 161.079 436.872 167.013 437.108 173.045C436.867 176.215 436.277 179.349 435.35 182.39C435.35 182.39 421.055 152.999 410.554 150.316C400.053 147.633 384.34 151.766 379.036 155.266L370.277 161.11L369.691 157.317Z" fill="#FFA500" stroke="#263238" stroke-miterlimit="10"/>
<path d="M369.688 193.801C369.812 195.194 370.107 196.566 370.567 197.887C371.153 199.044 375.533 199.923 375.533 199.923C376.388 204.88 378.727 209.461 382.24 213.06C390.12 220.647 400.621 220.061 410.551 219.228C420.482 218.396 426.311 208.141 427.513 205.52C428.252 203.822 428.84 202.063 429.271 200.262C429.271 200.262 432.479 201.727 432.772 192.089C433.065 182.452 431.307 171.072 422.857 162.036C414.406 152.999 400.081 152.691 385.494 157.949C370.907 163.207 366.527 179.537 366.527 181.881C366.527 184.225 369.688 193.801 369.688 193.801Z" fill="white" stroke="#263238" stroke-miterlimit="10"/>
<path d="M407.329 170.732C407.329 170.732 405.001 173.662 405.294 174.819C405.587 175.975 409.38 175.405 409.38 178.612C409.365 179.867 408.883 181.071 408.027 181.989C407.172 182.908 406.005 183.474 404.754 183.577" stroke="#263238" stroke-miterlimit="10"/>
<path d="M393.035 190.578C393.035 190.578 395.379 195.543 402.673 195.543C409.966 195.543 412.295 190.917 412.295 190.917" stroke="#263238" stroke-miterlimit="10"/>
<path d="M394.501 175.404C392.956 175.011 391.343 174.964 389.778 175.268C388.213 175.572 386.735 176.219 385.449 177.162" stroke="#263238" stroke-miterlimit="10"/>
<path d="M411.121 175.405C414.25 174.942 417.444 175.563 420.173 177.163" stroke="#263238" stroke-miterlimit="10"/>
<path d="M384.277 169.284C384.277 169.284 387.778 163.732 396.613 165.197" stroke="#263238" stroke-width="2" stroke-miterlimit="10" stroke-linecap="round"/>
<path d="M411.418 165.49C413.26 165.232 415.137 165.536 416.804 166.361C418.471 167.186 419.85 168.495 420.762 170.116" stroke="#263238" stroke-width="2" stroke-miterlimit="10" stroke-linecap="round"/>
<path d="M373.188 176.869C373.188 176.869 375.239 185.628 373.481 186.491C371.723 187.355 369.395 182.127 369.395 182.127C369.395 182.127 370.644 177.455 373.188 176.869Z" fill="#263238" stroke="#263238" stroke-miterlimit="10"/>
<path d="M428.051 182.99C428.051 182.99 427.758 191.749 428.637 192.335C429.516 192.921 430.395 189.42 430.395 188.541C429.774 186.627 428.99 184.77 428.051 182.99Z" fill="#263238" stroke="#263238" stroke-miterlimit="10"/>
<path d="M406.464 161.988C399.377 160.211 391.881 161.146 385.447 164.61C374.653 170.454 370.027 184.748 369.102 187.37C368.176 189.991 370.86 193.8 367.93 194.37C365 194.941 361.762 192.042 361.762 188.835C361.762 185.627 366.727 172.196 366.727 165.196C366.727 158.195 371.353 154.695 374.314 152.351C377.274 150.007 393.866 142.729 405.246 143.299C416.626 143.87 429.764 153.816 433.264 159.645C436.765 165.473 435.886 175.065 435.886 178.041C435.886 181.017 437.428 188.542 435.593 192.042C433.758 195.542 432.971 195.835 432.971 195.835C431.558 191.464 429.9 187.176 428.006 182.99C425.431 177.455 419.001 162.574 406.464 161.988Z" fill="white" stroke="#263238" stroke-miterlimit="10"/>
<path d="M435.934 240.494C442.935 236.993 450.522 234.942 450.815 229.407C451.108 223.871 448.486 217.441 447.021 211.89C446.296 209.128 445.084 206.517 443.444 204.18C443.19 204.021 442.921 203.887 442.642 203.779C440.021 202.9 438.571 204.365 435.348 206.986C432.126 209.607 419.003 215.159 401.209 214.573C383.414 213.987 367.655 205.429 364.478 202.545C361.302 199.661 355.828 201.728 355.226 201.944C353.907 204.356 353.47 207.154 353.993 209.854C354.578 213.354 350.199 226.816 350.199 229.407C350.199 231.997 352.235 231.735 357.493 234.649C362.751 237.564 376.166 245.736 392.805 248.08C409.443 250.424 428.934 243.979 435.934 240.494Z" fill="#263238" stroke="#263238" stroke-miterlimit="10"/>
<path d="M508.085 229.421C508.085 229.421 500.668 244.996 500.668 248.712C500.668 252.428 520.328 263.546 525.155 265.026C529.981 266.506 533.312 266.568 534.407 265.396C535.502 264.224 540.714 244.625 540.714 240.555C540.714 236.484 536.627 234.248 532.927 232.382C529.226 230.516 518.463 224.672 515.117 224.672C511.77 224.672 508.825 224.595 508.085 229.421Z" fill="white" stroke="#263238" stroke-miterlimit="10"/>
<path d="M277.428 227.186C277.428 227.186 278.168 216.069 275.886 210.502C273.604 204.935 270.689 200.849 265.092 195.652C259.494 190.456 255.454 187.495 255.454 189.346C255.303 191.775 256.099 194.168 257.675 196.023C259.911 198.999 262.871 204.195 262.871 204.195C259.472 204.186 256.093 203.666 252.848 202.653C248.9 200.776 245.064 198.67 241.36 196.346C241.36 196.346 243.581 185.229 242.101 185.229C240.62 185.229 234.298 198.952 233.188 201.173C232.851 201.849 232.706 202.605 232.768 203.358C232.831 204.111 233.098 204.833 233.542 205.444C236.349 209.315 242.532 217.487 246.171 219.723C250.998 222.699 262.501 226.77 262.501 226.77L264.043 232.707L277.428 227.186Z" fill="white" stroke="#263238" stroke-miterlimit="10"/>
<path d="M232.296 201.449C231.323 199.28 230.659 196.986 230.322 194.633C229.906 191.009 229.474 183.145 231.864 183.346C234.254 183.546 233.992 188.249 233.992 191.657C233.992 195.065 235.688 200.801 235.688 201.433C235.688 202.065 233.791 204.008 232.296 201.449Z" fill="white" stroke="#263238" stroke-miterlimit="10"/>
<path d="M237.742 208.635C237.742 208.635 232.176 202.328 232.176 199.383C232.176 196.438 233.286 183.053 235.892 183.793C238.498 184.533 237.002 198.643 237.002 198.643L237.742 203.469V208.635Z" fill="white" stroke="#263238" stroke-miterlimit="10"/>
<path d="M268.533 223.485C268.533 223.485 268.903 221.943 265.557 216.068C262.21 210.193 248.502 207.155 247.053 206.816C245.603 206.476 241.501 202.359 241.501 202.359C241.501 202.359 246.312 192.352 244.092 191.565C241.871 190.779 234.84 200.817 234.84 204.919C234.84 209.021 244.477 217.162 244.477 217.162" fill="white"/>
<path d="M268.533 223.485C268.533 223.485 268.903 221.943 265.557 216.068C262.21 210.193 248.502 207.155 247.053 206.816C245.603 206.476 241.501 202.359 241.501 202.359C241.501 202.359 246.312 192.352 244.092 191.565C241.871 190.779 234.84 200.817 234.84 204.919C234.84 209.021 244.477 217.162 244.477 217.162" stroke="#263238" stroke-miterlimit="10"/>
<path d="M284.859 229.421C284.859 229.421 292.276 244.996 292.276 248.712C292.276 252.428 272.616 263.546 267.789 265.026C262.963 266.506 259.632 266.568 258.537 265.396C257.442 264.224 252.23 244.625 252.23 240.555C252.23 236.484 256.317 234.248 260.033 232.382C263.749 230.516 274.497 224.672 277.828 224.672C281.158 224.672 284.104 224.595 284.859 229.421Z" fill="white" stroke="#263238" stroke-miterlimit="10"/>
<path d="M386.221 346.414C386.439 345.722 386.447 344.982 386.245 344.286C386.042 343.59 385.638 342.969 385.084 342.503C384.529 342.036 383.849 341.744 383.129 341.663C382.408 341.583 381.68 341.717 381.036 342.05C380.392 342.383 379.861 342.899 379.51 343.533C379.159 344.167 379.004 344.891 379.063 345.613C379.123 346.336 379.395 347.024 379.846 347.592C380.297 348.16 380.905 348.581 381.595 348.804C382.525 349.099 383.535 349.013 384.402 348.565C385.27 348.117 385.924 347.343 386.221 346.414Z" fill="white" stroke="#263238" stroke-width="0.5" stroke-miterlimit="10"/>
<path d="M365.065 277.271C365.283 276.58 365.291 275.839 365.089 275.143C364.886 274.447 364.482 273.827 363.928 273.36C363.373 272.893 362.693 272.601 361.972 272.521C361.252 272.44 360.524 272.575 359.88 272.908C359.236 273.24 358.705 273.756 358.354 274.39C358.003 275.024 357.847 275.748 357.907 276.471C357.967 277.193 358.239 277.882 358.69 278.449C359.14 279.017 359.749 279.439 360.439 279.661C360.899 279.812 361.385 279.869 361.868 279.83C362.351 279.791 362.822 279.657 363.252 279.434C363.683 279.212 364.065 278.906 364.376 278.535C364.687 278.163 364.921 277.734 365.065 277.271Z" fill="white" stroke="#263238" stroke-width="0.5" stroke-miterlimit="10"/>
<path d="M470.502 260.724C470.72 260.033 470.728 259.292 470.526 258.596C470.324 257.9 469.92 257.28 469.365 256.813C468.81 256.346 468.13 256.054 467.41 255.974C466.689 255.893 465.961 256.028 465.317 256.361C464.673 256.693 464.142 257.209 463.791 257.843C463.44 258.478 463.285 259.201 463.345 259.924C463.404 260.646 463.677 261.335 464.127 261.902C464.578 262.47 465.186 262.892 465.876 263.114C466.337 263.263 466.822 263.319 467.305 263.279C467.787 263.239 468.257 263.104 468.687 262.882C469.117 262.659 469.498 262.354 469.81 261.984C470.122 261.614 470.357 261.186 470.502 260.724Z" fill="white" stroke="#263238" stroke-width="0.5" stroke-miterlimit="10"/>
<path d="M430.369 233.123C432.396 233.123 434.039 231.48 434.039 229.453C434.039 227.426 432.396 225.783 430.369 225.783C428.342 225.783 426.699 227.426 426.699 229.453C426.699 231.48 428.342 233.123 430.369 233.123Z" fill="white" stroke="#263238" stroke-width="0.5" stroke-miterlimit="10"/>
<path d="M447.248 309.59C447.469 308.899 447.48 308.158 447.28 307.461C447.08 306.764 446.678 306.141 446.124 305.673C445.571 305.204 444.891 304.909 444.171 304.827C443.45 304.744 442.721 304.877 442.076 305.208C441.431 305.539 440.898 306.054 440.545 306.688C440.193 307.321 440.036 308.045 440.094 308.768C440.152 309.491 440.424 310.181 440.874 310.749C441.323 311.318 441.932 311.741 442.622 311.964C443.081 312.115 443.566 312.173 444.049 312.135C444.531 312.098 445.001 311.964 445.431 311.743C445.861 311.522 446.243 311.218 446.555 310.849C446.867 310.479 447.103 310.051 447.248 309.59Z" fill="white" stroke="#263238" stroke-width="0.5" stroke-miterlimit="10"/>
<path d="M424.725 372.798C425.061 371.736 425.074 370.599 424.763 369.53C424.453 368.461 423.832 367.508 422.98 366.792C422.128 366.076 421.082 365.629 419.976 365.507C418.869 365.385 417.751 365.593 416.764 366.107C415.776 366.62 414.962 367.415 414.426 368.39C413.89 369.366 413.655 370.479 413.752 371.588C413.848 372.697 414.271 373.752 414.967 374.621C415.663 375.49 416.601 376.132 417.663 376.468C419.086 376.917 420.63 376.783 421.954 376.095C423.278 375.407 424.275 374.221 424.725 372.798Z" fill="white" stroke="#263238" stroke-width="0.5" stroke-miterlimit="10"/>
<path d="M392.23 266.77C392.567 265.71 392.583 264.573 392.274 263.504C391.966 262.435 391.347 261.481 390.497 260.763C389.647 260.045 388.603 259.596 387.497 259.471C386.391 259.346 385.273 259.552 384.284 260.063C383.296 260.573 382.48 261.366 381.942 262.339C381.403 263.313 381.165 264.425 381.258 265.534C381.351 266.643 381.77 267.699 382.463 268.57C383.157 269.44 384.092 270.086 385.152 270.425C386.575 270.876 388.119 270.744 389.446 270.059C390.772 269.374 391.774 268.192 392.23 266.77Z" fill="white" stroke="#263238" stroke-width="0.5" stroke-miterlimit="10"/>
<path d="M553.971 241.404C554.309 240.343 554.325 239.205 554.017 238.135C553.709 237.065 553.09 236.11 552.239 235.392C551.388 234.674 550.343 234.224 549.237 234.1C548.13 233.975 547.011 234.182 546.022 234.694C545.033 235.206 544.218 236 543.68 236.975C543.142 237.95 542.906 239.063 543.001 240.172C543.096 241.282 543.518 242.338 544.213 243.208C544.909 244.078 545.847 244.722 546.908 245.058C547.612 245.283 548.353 245.367 549.089 245.305C549.826 245.243 550.542 245.037 551.198 244.697C551.854 244.358 552.437 243.892 552.913 243.327C553.389 242.762 553.748 242.108 553.971 241.404Z" fill="white" stroke="#263238" stroke-width="0.5" stroke-miterlimit="10"/>
<path d="M497.8 195.174C498.138 194.114 498.153 192.977 497.845 191.908C497.536 190.839 496.918 189.885 496.067 189.167C495.217 188.45 494.173 188 493.067 187.875C491.961 187.751 490.843 187.957 489.855 188.467C488.866 188.978 488.051 189.77 487.512 190.744C486.973 191.717 486.735 192.829 486.828 193.938C486.921 195.047 487.341 196.103 488.034 196.974C488.727 197.844 489.663 198.49 490.723 198.829C491.427 199.054 492.169 199.139 492.907 199.077C493.644 199.015 494.362 198.809 495.019 198.469C495.676 198.13 496.261 197.664 496.738 197.099C497.215 196.533 497.576 195.879 497.8 195.174Z" fill="white" stroke="#263238" stroke-width="0.5" stroke-miterlimit="10"/>
<path d="M518.322 316.329C518.661 315.268 518.677 314.131 518.369 313.061C518.061 311.991 517.442 311.036 516.591 310.318C515.74 309.599 514.695 309.15 513.588 309.025C512.481 308.901 511.363 309.108 510.374 309.62C509.385 310.132 508.57 310.925 508.032 311.901C507.494 312.876 507.258 313.989 507.353 315.098C507.447 316.208 507.869 317.264 508.565 318.134C509.26 319.004 510.198 319.647 511.26 319.984C512.681 320.434 514.223 320.302 515.547 319.617C516.871 318.932 517.869 317.75 518.322 316.329Z" fill="white" stroke="#263238" stroke-width="0.5" stroke-miterlimit="10"/>
<path d="M269.893 179.214C270.111 178.523 270.119 177.783 269.917 177.087C269.714 176.391 269.31 175.77 268.756 175.303C268.201 174.837 267.521 174.545 266.8 174.464C266.08 174.384 265.352 174.518 264.708 174.851C264.064 175.184 263.533 175.7 263.182 176.334C262.831 176.968 262.675 177.692 262.735 178.414C262.795 179.136 263.067 179.825 263.518 180.393C263.968 180.96 264.577 181.382 265.267 181.604C265.728 181.753 266.213 181.809 266.695 181.769C267.178 181.729 267.647 181.594 268.077 181.372C268.507 181.15 268.889 180.845 269.201 180.474C269.512 180.104 269.747 179.676 269.893 179.214Z" fill="white" stroke="#263238" stroke-width="0.5" stroke-miterlimit="10"/>
<path d="M248.737 110.009C248.955 109.318 248.963 108.578 248.76 107.882C248.558 107.186 248.154 106.565 247.599 106.098C247.045 105.632 246.365 105.34 245.644 105.259C244.924 105.179 244.196 105.313 243.552 105.646C242.908 105.979 242.377 106.494 242.026 107.129C241.675 107.763 241.519 108.487 241.579 109.209C241.639 109.931 241.911 110.62 242.362 111.188C242.812 111.755 243.421 112.177 244.111 112.399C244.571 112.548 245.057 112.604 245.539 112.564C246.021 112.524 246.491 112.389 246.921 112.167C247.351 111.945 247.733 111.64 248.044 111.269C248.356 110.899 248.591 110.471 248.737 110.009Z" fill="white" stroke="#263238" stroke-width="0.5" stroke-miterlimit="10"/>
<path d="M354.193 93.4803C354.414 92.7894 354.425 92.0486 354.225 91.3515C354.025 90.6543 353.623 90.0321 353.07 89.5632C352.516 89.0944 351.836 88.8 351.116 88.7173C350.395 88.6346 349.667 88.7672 349.021 89.0984C348.376 89.4296 347.844 89.9446 347.491 90.5783C347.138 91.2119 346.981 91.9359 347.039 92.6589C347.098 93.3818 347.369 94.0711 347.819 94.64C348.269 95.2088 348.877 95.6316 349.567 95.8549C350.027 96.0037 350.511 96.0603 350.993 96.0214C351.474 95.9825 351.944 95.8489 352.373 95.6282C352.803 95.4076 353.185 95.1043 353.497 94.7357C353.81 94.3671 354.046 93.9405 354.193 93.4803Z" fill="white" stroke="#263238" stroke-width="0.5" stroke-miterlimit="10"/>
<path d="M317.534 63.3178C317.751 62.6265 317.76 61.8862 317.557 61.1902C317.355 60.4942 316.951 59.8737 316.396 59.4069C315.842 58.9402 315.161 58.6482 314.441 58.5677C313.721 58.4871 312.993 58.6217 312.349 58.9544C311.705 59.2871 311.174 59.8031 310.823 60.4372C310.471 61.0713 310.316 61.7952 310.376 62.5176C310.436 63.2399 310.708 63.9284 311.158 64.4962C311.609 65.064 312.218 65.4856 312.908 65.7079C313.368 65.8564 313.854 65.9123 314.336 65.8723C314.818 65.8324 315.288 65.6975 315.718 65.4754C316.148 65.2532 316.53 64.9482 316.841 64.578C317.153 64.2077 317.388 63.7794 317.534 63.3178Z" fill="white" stroke="#263238" stroke-width="0.5" stroke-miterlimit="10"/>
<path d="M330.94 142.33C331.158 141.638 331.166 140.898 330.963 140.202C330.761 139.506 330.357 138.885 329.803 138.419C329.248 137.952 328.568 137.66 327.847 137.579C327.127 137.499 326.399 137.633 325.755 137.966C325.111 138.299 324.58 138.815 324.229 139.449C323.878 140.083 323.722 140.807 323.782 141.529C323.842 142.252 324.114 142.94 324.565 143.508C325.015 144.076 325.624 144.497 326.314 144.72C327.244 145.015 328.254 144.929 329.121 144.481C329.988 144.033 330.642 143.259 330.94 142.33Z" fill="white" stroke="#263238" stroke-width="0.5" stroke-miterlimit="10"/>
<path d="M308.41 205.551C308.747 204.491 308.763 203.354 308.454 202.285C308.146 201.216 307.527 200.262 306.677 199.544C305.826 198.826 304.782 198.377 303.677 198.252C302.571 198.128 301.453 198.334 300.464 198.844C299.475 199.355 298.66 200.147 298.121 201.121C297.583 202.094 297.345 203.206 297.438 204.315C297.53 205.424 297.95 206.48 298.643 207.351C299.336 208.221 300.272 208.867 301.332 209.206C302.037 209.431 302.779 209.516 303.516 209.454C304.253 209.392 304.971 209.186 305.628 208.846C306.286 208.507 306.87 208.041 307.347 207.476C307.824 206.91 308.185 206.256 308.41 205.551Z" fill="white" stroke="#263238" stroke-width="0.5" stroke-miterlimit="10"/>
<path d="M275.962 99.5095C276.296 98.4491 276.308 97.3137 275.997 96.2466C275.685 95.1794 275.065 94.2283 274.214 93.5131C273.364 92.7979 272.32 92.3507 271.215 92.2278C270.11 92.105 268.994 92.312 268.007 92.8228C267.02 93.3336 266.206 94.1253 265.668 95.098C265.13 96.0708 264.892 97.181 264.984 98.2887C265.077 99.3965 265.495 100.452 266.186 101.322C266.877 102.193 267.811 102.839 268.869 103.179C269.576 103.407 270.32 103.492 271.06 103.431C271.8 103.369 272.52 103.162 273.179 102.821C273.839 102.479 274.424 102.011 274.902 101.443C275.379 100.875 275.74 100.218 275.962 99.5095Z" fill="white" stroke="#263238" stroke-width="0.5" stroke-miterlimit="10"/>
<path d="M437.66 74.1569C437.997 73.0964 438.012 71.9598 437.704 70.8906C437.396 69.8214 436.777 68.8676 435.927 68.1498C435.076 67.4319 434.032 66.9823 432.927 66.8577C431.821 66.7331 430.703 66.939 429.714 67.4496C428.725 67.9601 427.91 68.7523 427.371 69.7261C426.833 70.6998 426.595 71.8114 426.688 72.9203C426.78 74.0292 427.2 75.0858 427.893 75.9563C428.586 76.8269 429.522 77.4725 430.582 77.8114C431.287 78.0368 432.029 78.121 432.766 78.0592C433.503 77.9975 434.221 77.791 434.878 77.4516C435.536 77.1121 436.12 76.6464 436.597 76.0811C437.074 75.5158 437.435 74.8619 437.66 74.1569Z" fill="white" stroke="#263238" stroke-width="0.5" stroke-miterlimit="10"/>
<path d="M401.994 149.068C402.333 148.007 402.349 146.869 402.041 145.799C401.732 144.729 401.114 143.774 400.263 143.056C399.412 142.338 398.367 141.888 397.26 141.764C396.153 141.639 395.035 141.846 394.046 142.358C393.056 142.87 392.241 143.664 391.704 144.639C391.166 145.614 390.929 146.727 391.024 147.836C391.119 148.946 391.541 150.002 392.237 150.872C392.932 151.742 393.87 152.386 394.932 152.722C395.635 152.947 396.377 153.031 397.113 152.969C397.849 152.907 398.566 152.701 399.222 152.361C399.878 152.022 400.461 151.556 400.936 150.991C401.412 150.426 401.772 149.772 401.994 149.068Z" fill="white" stroke="#263238" stroke-width="0.5" stroke-miterlimit="10"/>
<path d="M529.76 212.537C529.978 211.845 529.986 211.105 529.784 210.409C529.581 209.713 529.177 209.092 528.623 208.626C528.068 208.159 527.388 207.867 526.668 207.786C525.947 207.706 525.219 207.84 524.575 208.173C523.931 208.506 523.4 209.022 523.049 209.656C522.698 210.29 522.543 211.014 522.602 211.736C522.662 212.459 522.934 213.147 523.385 213.715C523.836 214.283 524.444 214.704 525.134 214.927C525.595 215.075 526.08 215.131 526.562 215.091C527.045 215.051 527.514 214.916 527.944 214.694C528.374 214.472 528.756 214.167 529.068 213.797C529.379 213.426 529.615 212.998 529.76 212.537Z" fill="white" stroke="#263238" stroke-width="0.5" stroke-miterlimit="10"/>
<path d="M508.619 143.378C508.837 142.687 508.846 141.947 508.643 141.251C508.441 140.555 508.037 139.934 507.482 139.467C506.928 139.001 506.247 138.709 505.527 138.628C504.807 138.548 504.079 138.682 503.435 139.015C502.791 139.348 502.26 139.864 501.908 140.498C501.557 141.132 501.402 141.856 501.462 142.578C501.522 143.3 501.794 143.989 502.244 144.557C502.695 145.125 503.304 145.546 503.993 145.768C504.924 146.064 505.934 145.978 506.801 145.53C507.668 145.082 508.322 144.308 508.619 143.378Z" fill="white" stroke="#263238" stroke-width="0.5" stroke-miterlimit="10"/>
<path d="M614.06 126.787C614.281 126.096 614.292 125.355 614.092 124.658C613.892 123.961 613.49 123.339 612.937 122.87C612.384 122.401 611.704 122.107 610.983 122.024C610.263 121.941 609.534 122.074 608.888 122.405C608.243 122.736 607.711 123.251 607.358 123.885C607.005 124.519 606.848 125.243 606.906 125.965C606.965 126.688 607.236 127.378 607.686 127.947C608.136 128.515 608.744 128.938 609.434 129.162C609.894 129.312 610.379 129.371 610.861 129.333C611.343 129.295 611.813 129.162 612.243 128.941C612.674 128.72 613.056 128.416 613.368 128.046C613.68 127.676 613.915 127.248 614.06 126.787Z" fill="white" stroke="#263238" stroke-width="0.5" stroke-miterlimit="10"/>
<path d="M577.424 96.687C577.642 95.9957 577.65 95.2553 577.448 94.5593C577.245 93.8633 576.842 93.2428 576.287 92.7761C575.732 92.3094 575.052 92.0173 574.332 91.9368C573.611 91.8563 572.883 91.9908 572.239 92.3235C571.595 92.6563 571.064 93.1722 570.713 93.8063C570.362 94.4404 570.207 95.1643 570.266 95.8867C570.326 96.6091 570.599 97.2975 571.049 97.8653C571.5 98.4331 572.108 98.8547 572.798 99.0771C573.729 99.3726 574.738 99.2869 575.606 98.8388C576.473 98.3907 577.127 97.6168 577.424 96.687Z" fill="white" stroke="#263238" stroke-width="0.5" stroke-miterlimit="10"/>
<path d="M590.807 175.699C591.025 175.007 591.033 174.267 590.831 173.571C590.628 172.875 590.224 172.255 589.67 171.788C589.115 171.321 588.435 171.029 587.714 170.949C586.994 170.868 586.266 171.003 585.622 171.335C584.978 171.668 584.447 172.184 584.096 172.818C583.745 173.452 583.589 174.176 583.649 174.898C583.709 175.621 583.981 176.309 584.432 176.877C584.883 177.445 585.491 177.866 586.181 178.089C586.642 178.237 587.127 178.293 587.609 178.253C588.092 178.213 588.561 178.078 588.991 177.856C589.421 177.634 589.803 177.329 590.115 176.959C590.426 176.589 590.662 176.16 590.807 175.699Z" fill="white" stroke="#263238" stroke-width="0.5" stroke-miterlimit="10"/>
<path d="M568.285 238.921C568.622 237.86 568.637 236.723 568.329 235.654C568.021 234.585 567.402 233.631 566.552 232.913C565.701 232.196 564.657 231.746 563.552 231.621C562.446 231.497 561.328 231.703 560.339 232.213C559.35 232.724 558.535 233.516 557.996 234.49C557.458 235.463 557.22 236.575 557.313 237.684C557.405 238.793 557.825 239.849 558.518 240.72C559.211 241.591 560.147 242.236 561.207 242.575C562.63 243.026 564.174 242.895 565.501 242.21C566.827 241.525 567.828 240.342 568.285 238.921Z" fill="white" stroke="#263238" stroke-width="0.5" stroke-miterlimit="10"/>
<path d="M535.852 132.955C536.186 131.894 536.199 130.758 535.888 129.69C535.577 128.622 534.957 127.67 534.105 126.954C533.253 126.239 532.209 125.791 531.103 125.669C529.998 125.547 528.88 125.754 527.893 126.267C526.905 126.779 526.092 127.572 525.555 128.546C525.018 129.52 524.781 130.632 524.876 131.74C524.97 132.848 525.391 133.904 526.084 134.773C526.778 135.643 527.714 136.287 528.774 136.625C529.479 136.852 530.223 136.938 530.962 136.876C531.7 136.814 532.419 136.607 533.078 136.265C533.736 135.924 534.32 135.456 534.796 134.888C535.272 134.32 535.631 133.663 535.852 132.955Z" fill="white" stroke="#263238" stroke-width="0.5" stroke-miterlimit="10"/>
<path d="M697.55 107.528C697.888 106.468 697.903 105.331 697.595 104.262C697.286 103.192 696.668 102.239 695.817 101.521C694.967 100.803 693.923 100.353 692.817 100.229C691.711 100.104 690.593 100.31 689.605 100.821C688.616 101.331 687.801 102.123 687.262 103.097C686.723 104.071 686.485 105.182 686.578 106.291C686.671 107.4 687.091 108.457 687.784 109.327C688.477 110.198 689.413 110.844 690.473 111.183C691.896 111.633 693.44 111.502 694.766 110.817C696.093 110.132 697.094 108.949 697.55 107.528Z" fill="white" stroke="#263238" stroke-width="0.5" stroke-miterlimit="10"/>
<path d="M661.878 182.438C662.216 181.378 662.231 180.241 661.923 179.172C661.614 178.103 660.996 177.149 660.146 176.431C659.295 175.713 658.251 175.264 657.145 175.139C656.04 175.014 654.922 175.22 653.933 175.731C652.944 176.241 652.129 177.034 651.59 178.007C651.051 178.981 650.813 180.093 650.906 181.202C650.999 182.31 651.419 183.367 652.112 184.238C652.805 185.108 653.741 185.754 654.801 186.093C655.505 186.318 656.248 186.402 656.985 186.34C657.722 186.279 658.44 186.072 659.097 185.733C659.755 185.393 660.339 184.928 660.816 184.362C661.293 183.797 661.654 183.143 661.878 182.438Z" fill="white" stroke="#263238" stroke-width="0.5" stroke-miterlimit="10"/>
<path d="M499.326 482.603C499.547 481.912 499.558 481.172 499.358 480.475C499.158 479.777 498.756 479.155 498.202 478.686C497.649 478.217 496.969 477.923 496.249 477.84C495.528 477.758 494.799 477.89 494.154 478.221C493.509 478.553 492.976 479.068 492.624 479.701C492.271 480.335 492.114 481.059 492.172 481.782C492.23 482.505 492.502 483.194 492.952 483.763C493.402 484.332 494.01 484.755 494.7 484.978C495.16 485.127 495.644 485.183 496.126 485.144C496.607 485.105 497.076 484.972 497.506 484.751C497.936 484.531 498.318 484.227 498.63 483.859C498.942 483.49 499.179 483.063 499.326 482.603Z" fill="white" stroke="#263238" stroke-width="0.5" stroke-miterlimit="10"/>
<path d="M478.166 413.445C478.384 412.753 478.392 412.013 478.19 411.317C477.988 410.621 477.584 410.001 477.029 409.534C476.475 409.067 475.794 408.775 475.074 408.695C474.354 408.614 473.625 408.749 472.981 409.081C472.338 409.414 471.806 409.93 471.455 410.564C471.104 411.198 470.949 411.922 471.009 412.645C471.068 413.367 471.341 414.055 471.791 414.623C472.242 415.191 472.85 415.613 473.54 415.835C474.001 415.983 474.486 416.039 474.969 415.999C475.451 415.959 475.921 415.824 476.351 415.602C476.781 415.38 477.162 415.075 477.474 414.705C477.786 414.335 478.021 413.906 478.166 413.445Z" fill="white" stroke="#263238" stroke-width="0.5" stroke-miterlimit="10"/>
<path d="M583.627 396.9C583.845 396.209 583.853 395.468 583.651 394.772C583.449 394.076 583.045 393.456 582.49 392.989C581.936 392.522 581.255 392.23 580.535 392.15C579.814 392.069 579.086 392.204 578.442 392.536C577.798 392.869 577.267 393.385 576.916 394.019C576.565 394.653 576.41 395.377 576.47 396.1C576.529 396.822 576.802 397.51 577.252 398.078C577.703 398.646 578.311 399.068 579.001 399.29C579.932 399.586 580.941 399.5 581.809 399.052C582.676 398.604 583.33 397.83 583.627 396.9Z" fill="white" stroke="#263238" stroke-width="0.5" stroke-miterlimit="10"/>
<path d="M546.974 366.754C547.195 366.063 547.206 365.322 547.006 364.625C546.806 363.928 546.404 363.305 545.851 362.837C545.298 362.368 544.618 362.073 543.897 361.991C543.177 361.908 542.448 362.041 541.803 362.372C541.157 362.703 540.625 363.218 540.272 363.852C539.919 364.485 539.762 365.209 539.821 365.932C539.879 366.655 540.15 367.345 540.6 367.913C541.05 368.482 541.658 368.905 542.348 369.128C542.808 369.279 543.293 369.337 543.775 369.3C544.257 369.262 544.727 369.128 545.158 368.907C545.588 368.687 545.97 368.382 546.282 368.013C546.594 367.643 546.829 367.215 546.974 366.754Z" fill="white" stroke="#263238" stroke-width="0.5" stroke-miterlimit="10"/>
<path d="M560.307 445.765C560.525 445.074 560.533 444.333 560.331 443.637C560.128 442.941 559.724 442.321 559.17 441.854C558.615 441.388 557.935 441.095 557.214 441.015C556.494 440.934 555.766 441.069 555.122 441.402C554.478 441.734 553.947 442.25 553.596 442.884C553.245 443.519 553.089 444.242 553.149 444.965C553.209 445.687 553.481 446.376 553.932 446.943C554.383 447.511 554.991 447.933 555.681 448.155C556.142 448.304 556.627 448.36 557.109 448.32C557.592 448.28 558.061 448.145 558.491 447.923C558.921 447.701 559.303 447.396 559.615 447.025C559.926 446.655 560.162 446.227 560.307 445.765Z" fill="white" stroke="#263238" stroke-width="0.5" stroke-miterlimit="10"/>
<path d="M537.844 508.971C538.178 507.91 538.191 506.774 537.88 505.706C537.569 504.638 536.949 503.686 536.097 502.97C535.246 502.254 534.201 501.807 533.095 501.685C531.99 501.562 530.873 501.77 529.885 502.282C528.898 502.794 528.084 503.587 527.547 504.562C527.01 505.536 526.774 506.647 526.868 507.756C526.962 508.864 527.383 509.92 528.076 510.789C528.77 511.659 529.706 512.303 530.766 512.641C531.472 512.866 532.215 512.95 532.953 512.887C533.691 512.824 534.409 512.616 535.067 512.275C535.724 511.934 536.308 511.467 536.785 510.9C537.261 510.333 537.621 509.677 537.844 508.971Z" fill="white" stroke="#263238" stroke-width="0.5" stroke-miterlimit="10"/>
<path d="M505.4 402.943C505.739 401.882 505.755 400.744 505.447 399.674C505.139 398.604 504.52 397.649 503.669 396.931C502.818 396.213 501.773 395.763 500.666 395.639C499.56 395.514 498.441 395.721 497.452 396.233C496.463 396.745 495.648 397.539 495.11 398.514C494.572 399.489 494.336 400.602 494.431 401.711C494.526 402.821 494.947 403.877 495.643 404.747C496.339 405.617 497.276 406.261 498.338 406.597C499.759 407.047 501.301 406.916 502.625 406.231C503.949 405.545 504.947 404.363 505.4 402.943Z" fill="white" stroke="#263238" stroke-width="0.5" stroke-miterlimit="10"/>
<path d="M667.094 377.576C667.428 376.516 667.441 375.379 667.13 374.311C666.819 373.243 666.199 372.291 665.347 371.575C664.496 370.86 663.451 370.412 662.345 370.29C661.24 370.168 660.123 370.376 659.135 370.888C658.148 371.4 657.334 372.193 656.797 373.167C656.26 374.141 656.024 375.253 656.118 376.361C656.212 377.469 656.633 378.525 657.327 379.395C658.02 380.264 658.956 380.908 660.016 381.246C660.722 381.471 661.465 381.555 662.203 381.492C662.941 381.429 663.659 381.222 664.317 380.881C664.974 380.54 665.558 380.072 666.035 379.505C666.511 378.938 666.871 378.283 667.094 377.576Z" fill="white" stroke="#263238" stroke-width="0.5" stroke-miterlimit="10"/>
<path d="M610.902 331.348C611.239 330.288 611.255 329.151 610.946 328.082C610.638 327.013 610.019 326.059 609.169 325.341C608.319 324.623 607.275 324.174 606.169 324.049C605.063 323.924 603.945 324.13 602.956 324.641C601.967 325.152 601.152 325.944 600.614 326.917C600.075 327.891 599.837 329.003 599.93 330.112C600.023 331.221 600.442 332.277 601.135 333.148C601.828 334.018 602.764 334.664 603.824 335.003C605.247 335.454 606.791 335.322 608.118 334.637C609.444 333.952 610.445 332.77 610.902 331.348Z" fill="white" stroke="#263238" stroke-width="0.5" stroke-miterlimit="10"/>
<path d="M631.441 452.505C631.778 451.444 631.794 450.307 631.485 449.238C631.177 448.169 630.558 447.215 629.708 446.497C628.858 445.78 627.814 445.33 626.708 445.205C625.602 445.081 624.484 445.287 623.495 445.797C622.507 446.308 621.691 447.1 621.153 448.074C620.614 449.048 620.376 450.159 620.469 451.268C620.562 452.377 620.981 453.433 621.674 454.304C622.368 455.175 623.303 455.82 624.363 456.159C625.068 456.384 625.81 456.469 626.547 456.407C627.285 456.345 628.002 456.139 628.66 455.799C629.317 455.46 629.901 454.994 630.378 454.429C630.856 453.863 631.217 453.21 631.441 452.505Z" fill="white" stroke="#263238" stroke-width="0.5" stroke-miterlimit="10"/>
<path d="M421.393 727.519C421.611 726.828 421.619 726.087 421.417 725.391C421.214 724.695 420.81 724.075 420.256 723.608C419.701 723.141 419.021 722.849 418.3 722.769C417.58 722.688 416.852 722.823 416.208 723.156C415.564 723.488 415.033 724.004 414.682 724.638C414.331 725.273 414.175 725.996 414.235 726.719C414.295 727.441 414.567 728.13 415.018 728.697C415.468 729.265 416.077 729.687 416.767 729.909C417.228 730.058 417.713 730.113 418.195 730.074C418.678 730.034 419.147 729.899 419.577 729.677C420.007 729.454 420.389 729.149 420.701 728.779C421.012 728.409 421.247 727.981 421.393 727.519Z" fill="white" stroke="#263238" stroke-width="0.5" stroke-miterlimit="10"/>
<path d="M400.232 658.375C400.453 657.684 400.464 656.943 400.264 656.246C400.064 655.549 399.662 654.927 399.109 654.458C398.555 653.989 397.876 653.695 397.155 653.612C396.434 653.529 395.706 653.662 395.06 653.993C394.415 654.324 393.883 654.839 393.53 655.473C393.177 656.106 393.02 656.83 393.078 657.553C393.137 658.276 393.408 658.966 393.858 659.535C394.308 660.103 394.916 660.526 395.606 660.749C396.066 660.898 396.55 660.955 397.032 660.916C397.513 660.877 397.983 660.743 398.412 660.523C398.842 660.302 399.224 659.999 399.536 659.63C399.849 659.262 400.085 658.835 400.232 658.375Z" fill="white" stroke="#263238" stroke-width="0.5" stroke-miterlimit="10"/>
<path d="M505.69 641.814C505.908 641.123 505.916 640.382 505.713 639.686C505.511 638.99 505.107 638.37 504.553 637.903C503.998 637.436 503.318 637.144 502.597 637.064C501.877 636.983 501.149 637.118 500.505 637.451C499.861 637.783 499.33 638.299 498.979 638.933C498.628 639.567 498.472 640.291 498.532 641.014C498.592 641.736 498.864 642.424 499.315 642.992C499.765 643.56 500.374 643.982 501.064 644.204C501.994 644.5 503.004 644.414 503.871 643.966C504.738 643.518 505.392 642.744 505.69 641.814Z" fill="white" stroke="#263238" stroke-width="0.5" stroke-miterlimit="10"/>
<path d="M469.037 611.683C469.258 610.993 469.269 610.252 469.069 609.555C468.869 608.857 468.467 608.235 467.913 607.766C467.36 607.298 466.68 607.003 465.96 606.92C465.239 606.838 464.51 606.97 463.865 607.302C463.22 607.633 462.687 608.148 462.334 608.781C461.982 609.415 461.825 610.139 461.883 610.862C461.941 611.585 462.213 612.274 462.663 612.843C463.113 613.412 463.721 613.835 464.411 614.058C465.339 614.354 466.347 614.271 467.214 613.826C468.081 613.381 468.736 612.61 469.037 611.683Z" fill="white" stroke="#263238" stroke-width="0.5" stroke-miterlimit="10"/>
<path d="M482.435 690.695C482.656 690.004 482.667 689.263 482.467 688.566C482.267 687.869 481.865 687.247 481.312 686.778C480.758 686.309 480.079 686.015 479.358 685.932C478.638 685.849 477.909 685.982 477.263 686.313C476.618 686.644 476.086 687.159 475.733 687.793C475.38 688.427 475.223 689.151 475.281 689.874C475.34 690.597 475.611 691.286 476.061 691.855C476.511 692.424 477.119 692.846 477.809 693.07C478.269 693.219 478.753 693.275 479.235 693.236C479.717 693.197 480.186 693.064 480.615 692.843C481.045 692.622 481.427 692.319 481.74 691.951C482.052 691.582 482.288 691.155 482.435 690.695Z" fill="white" stroke="#263238" stroke-width="0.5" stroke-miterlimit="10"/>
<path d="M427.463 647.874C427.801 646.813 427.818 645.676 427.509 644.606C427.201 643.536 426.582 642.581 425.731 641.863C424.88 641.144 423.835 640.694 422.729 640.57C421.622 640.446 420.503 640.653 419.514 641.165C418.525 641.677 417.71 642.47 417.172 643.445C416.635 644.421 416.398 645.533 416.493 646.643C416.588 647.753 417.01 648.809 417.706 649.679C418.401 650.549 419.339 651.192 420.401 651.529C421.822 651.975 423.362 651.841 424.685 651.157C426.008 650.472 427.006 649.292 427.463 647.874Z" fill="white" stroke="#263238" stroke-width="0.5" stroke-miterlimit="10"/>
<path d="M589.16 622.508C589.497 621.448 589.512 620.311 589.204 619.242C588.896 618.173 588.277 617.219 587.427 616.501C586.576 615.783 585.532 615.334 584.427 615.209C583.321 615.085 582.203 615.291 581.214 615.801C580.225 616.312 579.41 617.104 578.871 618.078C578.333 619.051 578.095 620.163 578.188 621.272C578.28 622.381 578.7 623.437 579.393 624.308C580.086 625.178 581.022 625.824 582.082 626.163C582.787 626.388 583.529 626.473 584.266 626.411C585.003 626.349 585.721 626.143 586.378 625.803C587.036 625.464 587.62 624.998 588.097 624.433C588.574 623.867 588.935 623.213 589.16 622.508Z" fill="white" stroke="#263238" stroke-width="0.5" stroke-miterlimit="10"/>
<path d="M532.972 576.28C533.31 575.219 533.325 574.083 533.017 573.014C532.708 571.944 532.09 570.991 531.239 570.273C530.389 569.555 529.345 569.105 528.239 568.981C527.133 568.856 526.015 569.062 525.027 569.573C524.038 570.083 523.223 570.875 522.684 571.849C522.145 572.823 521.907 573.934 522 575.043C522.093 576.152 522.512 577.209 523.206 578.079C523.899 578.95 524.834 579.595 525.894 579.934C526.599 580.16 527.341 580.244 528.079 580.182C528.816 580.12 529.534 579.914 530.191 579.575C530.848 579.235 531.432 578.769 531.91 578.204C532.387 577.639 532.748 576.985 532.972 576.28Z" fill="white" stroke="#263238" stroke-width="0.5" stroke-miterlimit="10"/>
<path d="M553.511 697.434C553.849 696.374 553.864 695.237 553.556 694.168C553.247 693.099 552.629 692.145 551.778 691.427C550.928 690.709 549.884 690.26 548.778 690.135C547.672 690.01 546.554 690.216 545.566 690.727C544.577 691.237 543.762 692.03 543.223 693.003C542.684 693.977 542.446 695.089 542.539 696.198C542.632 697.307 543.052 698.363 543.745 699.234C544.438 700.104 545.374 700.75 546.433 701.089C547.857 701.54 549.401 701.408 550.727 700.723C552.054 700.038 553.055 698.856 553.511 697.434Z" fill="white" stroke="#263238" stroke-width="0.5" stroke-miterlimit="10"/>
<path d="M296.955 578.501C297.173 577.81 297.182 577.07 296.979 576.374C296.777 575.678 296.373 575.057 295.818 574.591C295.264 574.124 294.583 573.832 293.863 573.751C293.143 573.671 292.415 573.805 291.771 574.138C291.127 574.471 290.596 574.987 290.244 575.621C289.893 576.255 289.738 576.979 289.798 577.701C289.857 578.424 290.13 579.112 290.58 579.68C291.031 580.248 291.64 580.669 292.329 580.892C292.79 581.04 293.275 581.096 293.758 581.056C294.24 581.016 294.71 580.881 295.14 580.659C295.57 580.437 295.951 580.132 296.263 579.762C296.575 579.391 296.81 578.963 296.955 578.501Z" fill="white" stroke="#263238" stroke-width="0.5" stroke-miterlimit="10"/>
<path d="M275.807 509.341C276.025 508.65 276.033 507.91 275.831 507.214C275.628 506.518 275.224 505.897 274.67 505.43C274.115 504.964 273.435 504.672 272.714 504.591C271.994 504.511 271.266 504.645 270.622 504.978C269.978 505.311 269.447 505.826 269.096 506.461C268.745 507.095 268.589 507.819 268.649 508.541C268.709 509.263 268.981 509.952 269.432 510.52C269.882 511.087 270.491 511.509 271.181 511.731C272.111 512.027 273.121 511.941 273.988 511.493C274.856 511.045 275.51 510.271 275.807 509.341Z" fill="white" stroke="#263238" stroke-width="0.5" stroke-miterlimit="10"/>
<path d="M381.256 492.812C381.476 492.121 381.487 491.381 381.288 490.684C381.088 489.986 380.686 489.364 380.132 488.895C379.579 488.426 378.899 488.132 378.178 488.049C377.458 487.967 376.729 488.099 376.084 488.43C375.439 488.762 374.906 489.277 374.553 489.91C374.2 490.544 374.043 491.268 374.102 491.991C374.16 492.714 374.431 493.403 374.881 493.972C375.331 494.541 375.94 494.964 376.63 495.187C377.089 495.338 377.574 495.396 378.056 495.358C378.539 495.32 379.008 495.187 379.439 494.966C379.869 494.745 380.251 494.441 380.563 494.071C380.875 493.702 381.11 493.274 381.256 492.812Z" fill="white" stroke="#263238" stroke-width="0.5" stroke-miterlimit="10"/>
<path d="M344.612 462.65C344.829 461.959 344.838 461.218 344.635 460.522C344.433 459.826 344.029 459.206 343.474 458.739C342.92 458.272 342.239 457.98 341.519 457.9C340.799 457.819 340.071 457.954 339.427 458.286C338.783 458.619 338.252 459.135 337.901 459.769C337.55 460.403 337.394 461.127 337.454 461.85C337.514 462.572 337.786 463.26 338.237 463.828C338.687 464.396 339.296 464.818 339.986 465.04C340.916 465.335 341.926 465.25 342.793 464.802C343.66 464.354 344.314 463.58 344.612 462.65Z" fill="white" stroke="#263238" stroke-width="0.5" stroke-miterlimit="10"/>
<path d="M358.002 541.662C358.22 540.97 358.228 540.23 358.026 539.534C357.824 538.838 357.42 538.217 356.865 537.751C356.311 537.284 355.63 536.992 354.91 536.911C354.189 536.831 353.461 536.965 352.817 537.298C352.173 537.631 351.642 538.147 351.291 538.781C350.94 539.415 350.785 540.139 350.845 540.861C350.904 541.584 351.177 542.272 351.627 542.84C352.078 543.408 352.686 543.829 353.376 544.052C353.837 544.2 354.322 544.256 354.805 544.216C355.287 544.176 355.757 544.041 356.187 543.819C356.617 543.597 356.998 543.292 357.31 542.922C357.622 542.551 357.857 542.123 358.002 541.662Z" fill="white" stroke="#263238" stroke-width="0.5" stroke-miterlimit="10"/>
<path d="M335.472 604.883C335.81 603.823 335.825 602.686 335.517 601.617C335.208 600.548 334.59 599.594 333.739 598.876C332.889 598.158 331.845 597.709 330.739 597.584C329.633 597.46 328.515 597.666 327.527 598.176C326.538 598.687 325.723 599.479 325.184 600.453C324.645 601.426 324.407 602.538 324.5 603.647C324.593 604.756 325.013 605.812 325.706 606.683C326.399 607.553 327.334 608.199 328.394 608.538C329.818 608.989 331.362 608.857 332.688 608.172C334.015 607.488 335.016 606.305 335.472 604.883Z" fill="white" stroke="#263238" stroke-width="0.5" stroke-miterlimit="10"/>
<path d="M303.039 498.84C303.374 497.779 303.386 496.643 303.075 495.575C302.764 494.507 302.144 493.555 301.293 492.839C300.441 492.124 299.396 491.676 298.291 491.554C297.185 491.431 296.068 491.639 295.08 492.151C294.093 492.663 293.279 493.457 292.742 494.431C292.205 495.405 291.969 496.516 292.063 497.625C292.157 498.733 292.578 499.789 293.272 500.658C293.966 501.528 294.902 502.172 295.961 502.51C296.667 502.735 297.41 502.819 298.148 502.756C298.886 502.693 299.605 502.485 300.262 502.144C300.92 501.803 301.503 501.336 301.98 500.769C302.456 500.202 302.816 499.547 303.039 498.84Z" fill="white" stroke="#263238" stroke-width="0.5" stroke-miterlimit="10"/>
<path d="M464.707 473.489C465.044 472.428 465.059 471.292 464.751 470.223C464.442 469.153 463.824 468.2 462.974 467.482C462.123 466.764 461.079 466.314 459.973 466.19C458.868 466.065 457.75 466.271 456.761 466.782C455.772 467.292 454.957 468.084 454.418 469.058C453.88 470.032 453.642 471.143 453.734 472.252C453.827 473.361 454.247 474.418 454.94 475.288C455.633 476.159 456.569 476.804 457.629 477.143C459.052 477.594 460.596 477.463 461.922 476.778C463.249 476.093 464.25 474.91 464.707 473.489Z" fill="white" stroke="#263238" stroke-width="0.5" stroke-miterlimit="10"/>
<path d="M408.533 427.245C408.872 426.184 408.888 425.047 408.58 423.977C408.271 422.907 407.653 421.952 406.802 421.234C405.951 420.515 404.906 420.066 403.799 419.941C402.692 419.817 401.574 420.024 400.585 420.536C399.596 421.048 398.781 421.841 398.243 422.817C397.705 423.792 397.469 424.905 397.563 426.014C397.658 427.124 398.08 428.18 398.776 429.05C399.471 429.92 400.409 430.563 401.471 430.9C402.892 431.346 404.432 431.212 405.755 430.528C407.078 429.843 408.077 428.663 408.533 427.245Z" fill="white" stroke="#263238" stroke-width="0.5" stroke-miterlimit="10"/>
<path d="M429.074 548.399C429.411 547.339 429.427 546.202 429.118 545.133C428.81 544.064 428.191 543.11 427.341 542.392C426.491 541.674 425.446 541.224 424.341 541.1C423.235 540.975 422.117 541.181 421.128 541.692C420.139 542.202 419.324 542.995 418.785 543.968C418.247 544.942 418.009 546.054 418.102 547.163C418.195 548.271 418.614 549.328 419.307 550.199C420 551.069 420.936 551.715 421.996 552.054C423.419 552.504 424.963 552.373 426.29 551.688C427.616 551.003 428.617 549.821 429.074 548.399Z" fill="white" stroke="#263238" stroke-width="0.5" stroke-miterlimit="10"/>
<path d="M162.471 439.365C162.689 438.673 162.697 437.933 162.495 437.237C162.292 436.541 161.888 435.921 161.334 435.454C160.779 434.987 160.099 434.695 159.379 434.615C158.658 434.534 157.93 434.669 157.286 435.001C156.642 435.334 156.111 435.85 155.76 436.484C155.409 437.118 155.254 437.842 155.313 438.564C155.373 439.287 155.645 439.975 156.096 440.543C156.547 441.111 157.155 441.533 157.845 441.755C158.775 442.05 159.785 441.965 160.652 441.517C161.52 441.068 162.174 440.295 162.471 439.365Z" fill="white" stroke="#263238" stroke-width="0.5" stroke-miterlimit="10"/>
<path d="M141.284 370.207C141.501 369.515 141.51 368.775 141.307 368.079C141.105 367.383 140.701 366.762 140.146 366.296C139.592 365.829 138.911 365.537 138.191 365.456C137.471 365.376 136.743 365.51 136.099 365.843C135.455 366.176 134.924 366.692 134.573 367.326C134.221 367.96 134.066 368.684 134.126 369.406C134.186 370.129 134.458 370.817 134.908 371.385C135.359 371.953 135.968 372.374 136.658 372.597C137.588 372.892 138.598 372.806 139.465 372.358C140.332 371.91 140.986 371.136 141.284 370.207Z" fill="white" stroke="#263238" stroke-width="0.5" stroke-miterlimit="10"/>
<path d="M246.732 353.676C246.953 352.985 246.964 352.244 246.764 351.547C246.564 350.85 246.162 350.227 245.609 349.759C245.055 349.29 244.376 348.995 243.655 348.913C242.934 348.83 242.206 348.962 241.56 349.294C240.915 349.625 240.383 350.14 240.03 350.774C239.677 351.407 239.52 352.131 239.578 352.854C239.637 353.577 239.908 354.266 240.358 354.835C240.808 355.404 241.416 355.827 242.106 356.05C242.566 356.201 243.051 356.259 243.533 356.221C244.015 356.183 244.485 356.05 244.915 355.829C245.346 355.608 245.728 355.304 246.04 354.935C246.352 354.565 246.587 354.137 246.732 353.676Z" fill="white" stroke="#263238" stroke-width="0.5" stroke-miterlimit="10"/>
<path d="M210.088 323.515C210.306 322.824 210.314 322.083 210.112 321.387C209.91 320.691 209.506 320.071 208.951 319.604C208.396 319.138 207.716 318.845 206.996 318.765C206.275 318.684 205.547 318.819 204.903 319.152C204.259 319.484 203.728 320 203.377 320.634C203.026 321.269 202.871 321.992 202.93 322.715C202.99 323.437 203.263 324.126 203.713 324.693C204.164 325.261 204.772 325.683 205.462 325.905C206.393 326.201 207.402 326.115 208.27 325.667C209.137 325.219 209.791 324.445 210.088 323.515Z" fill="white" stroke="#263238" stroke-width="0.5" stroke-miterlimit="10"/>
<path d="M223.479 402.527C223.697 401.835 223.705 401.095 223.503 400.399C223.3 399.703 222.896 399.083 222.342 398.616C221.787 398.149 221.107 397.857 220.386 397.777C219.666 397.696 218.938 397.831 218.294 398.163C217.65 398.496 217.119 399.012 216.768 399.646C216.417 400.28 216.261 401.004 216.321 401.727C216.381 402.449 216.653 403.137 217.104 403.705C217.554 404.273 218.163 404.695 218.853 404.917C219.313 405.065 219.799 405.121 220.281 405.081C220.764 405.041 221.233 404.906 221.663 404.684C222.093 404.462 222.475 404.157 222.786 403.787C223.098 403.417 223.333 402.988 223.479 402.527Z" fill="white" stroke="#263238" stroke-width="0.5" stroke-miterlimit="10"/>
<path d="M201.025 465.749C201.364 464.688 201.38 463.551 201.072 462.481C200.764 461.411 200.145 460.456 199.294 459.738C198.443 459.019 197.398 458.569 196.291 458.445C195.185 458.321 194.066 458.528 193.077 459.04C192.088 459.552 191.273 460.345 190.735 461.32C190.197 462.296 189.961 463.408 190.056 464.518C190.151 465.628 190.572 466.684 191.268 467.554C191.964 468.424 192.901 469.067 193.963 469.404C195.384 469.85 196.924 469.716 198.247 469.032C199.57 468.347 200.569 467.167 201.025 465.749Z" fill="white" stroke="#263238" stroke-width="0.5" stroke-miterlimit="10"/>
<path d="M168.516 359.705C168.85 358.644 168.863 357.508 168.552 356.44C168.241 355.372 167.621 354.42 166.769 353.704C165.917 352.989 164.873 352.541 163.767 352.419C162.662 352.297 161.545 352.504 160.557 353.017C159.57 353.529 158.756 354.322 158.219 355.296C157.682 356.27 157.446 357.382 157.54 358.49C157.634 359.598 158.055 360.654 158.748 361.523C159.442 362.393 160.378 363.037 161.438 363.375C162.144 363.6 162.887 363.684 163.625 363.621C164.363 363.558 165.081 363.351 165.739 363.01C166.396 362.669 166.98 362.201 167.456 361.634C167.933 361.067 168.293 360.412 168.516 359.705Z" fill="white" stroke="#263238" stroke-width="0.5" stroke-miterlimit="10"/>
<path d="M330.197 334.355C330.536 333.294 330.552 332.156 330.244 331.086C329.935 330.016 329.317 329.061 328.466 328.343C327.615 327.625 326.57 327.175 325.463 327.051C324.356 326.927 323.238 327.133 322.249 327.645C321.26 328.157 320.445 328.951 319.907 329.926C319.369 330.901 319.133 332.014 319.228 333.124C319.322 334.233 319.744 335.29 320.44 336.159C321.135 337.029 322.073 337.673 323.135 338.009C324.556 338.455 326.096 338.322 327.419 337.637C328.742 336.952 329.741 335.773 330.197 334.355Z" fill="white" stroke="#263238" stroke-width="0.5" stroke-miterlimit="10"/>
<path d="M274.01 288.111C274.348 287.05 274.364 285.912 274.056 284.842C273.748 283.772 273.129 282.817 272.278 282.099C271.427 281.381 270.382 280.931 269.276 280.807C268.169 280.682 267.05 280.889 266.061 281.401C265.072 281.913 264.257 282.707 263.719 283.682C263.182 284.657 262.945 285.77 263.04 286.879C263.135 287.989 263.557 289.045 264.252 289.915C264.948 290.785 265.886 291.429 266.947 291.765C267.651 291.99 268.392 292.074 269.128 292.012C269.865 291.95 270.581 291.744 271.237 291.404C271.894 291.065 272.476 290.599 272.952 290.034C273.428 289.469 273.787 288.815 274.01 288.111Z" fill="white" stroke="#263238" stroke-width="0.5" stroke-miterlimit="10"/>
<path d="M294.542 409.266C294.88 408.206 294.895 407.069 294.587 406C294.278 404.931 293.66 403.977 292.81 403.259C291.959 402.541 290.915 402.092 289.809 401.967C288.704 401.842 287.586 402.048 286.597 402.559C285.608 403.07 284.793 403.862 284.254 404.835C283.715 405.809 283.478 406.921 283.57 408.03C283.663 409.139 284.083 410.195 284.776 411.066C285.469 411.936 286.405 412.582 287.465 412.921C288.169 413.146 288.912 413.23 289.649 413.169C290.386 413.107 291.104 412.9 291.761 412.561C292.419 412.222 293.003 411.756 293.48 411.19C293.957 410.625 294.318 409.971 294.542 409.266Z" fill="white" stroke="#263238" stroke-width="0.5" stroke-miterlimit="10"/>
<path d="M91.307 299.599C91.5248 298.908 91.5331 298.167 91.3307 297.471C91.1283 296.775 90.7243 296.155 90.1697 295.688C89.6152 295.221 88.9348 294.929 88.2145 294.849C87.4941 294.768 86.7661 294.903 86.1221 295.236C85.4781 295.568 84.9471 296.084 84.596 296.718C84.2449 297.353 84.0894 298.076 84.1492 298.799C84.209 299.521 84.4814 300.21 84.9319 300.777C85.3825 301.345 85.9911 301.767 86.681 301.989C87.1415 302.14 87.6274 302.197 88.1104 302.158C88.5934 302.119 89.0638 301.985 89.4943 301.762C89.9247 301.54 90.3067 301.234 90.6179 300.863C90.9291 300.491 91.1633 300.062 91.307 299.599Z" fill="white" stroke="#263238" stroke-width="0.5" stroke-miterlimit="10"/>
<path d="M70.1507 230.439C70.3686 229.748 70.3768 229.007 70.1744 228.311C69.972 227.615 69.5681 226.995 69.0135 226.528C68.4589 226.061 67.7786 225.769 67.0582 225.689C66.3379 225.608 65.6098 225.743 64.9658 226.075C64.3219 226.408 63.7909 226.924 63.4398 227.558C63.0887 228.192 62.9332 228.916 62.993 229.639C63.0528 230.361 63.3251 231.049 63.7757 231.617C64.2262 232.185 64.8348 232.607 65.5247 232.829C65.9854 232.977 66.4708 233.033 66.9531 232.993C67.4354 232.954 67.9051 232.819 68.335 232.596C68.765 232.374 69.1468 232.069 69.4584 231.699C69.77 231.329 70.0053 230.901 70.1507 230.439Z" fill="white" stroke="#263238" stroke-width="0.5" stroke-miterlimit="10"/>
<path d="M175.615 213.91C175.836 213.219 175.847 212.478 175.647 211.781C175.447 211.084 175.045 210.462 174.492 209.993C173.938 209.524 173.258 209.23 172.538 209.147C171.817 209.064 171.088 209.197 170.443 209.528C169.798 209.859 169.265 210.374 168.913 211.008C168.56 211.642 168.403 212.366 168.461 213.089C168.52 213.811 168.791 214.501 169.241 215.07C169.691 215.639 170.299 216.061 170.989 216.285C171.917 216.581 172.925 216.497 173.792 216.052C174.659 215.607 175.315 214.837 175.615 213.91Z" fill="white" stroke="#263238" stroke-width="0.5" stroke-miterlimit="10"/>
<path d="M138.955 183.748C139.173 183.056 139.182 182.316 138.979 181.62C138.777 180.924 138.373 180.303 137.818 179.837C137.264 179.37 136.583 179.078 135.863 178.997C135.143 178.917 134.414 179.051 133.771 179.384C133.127 179.717 132.596 180.233 132.244 180.867C131.893 181.501 131.738 182.225 131.798 182.947C131.857 183.67 132.13 184.358 132.58 184.926C133.031 185.494 133.64 185.915 134.329 186.138C134.79 186.286 135.275 186.342 135.758 186.302C136.24 186.262 136.71 186.127 137.14 185.905C137.57 185.683 137.951 185.378 138.263 185.008C138.575 184.637 138.81 184.209 138.955 183.748Z" fill="white" stroke="#263238" stroke-width="0.5" stroke-miterlimit="10"/>
<path d="M152.362 262.759C152.58 262.068 152.588 261.328 152.385 260.632C152.183 259.936 151.779 259.315 151.224 258.848C150.67 258.382 149.989 258.09 149.269 258.009C148.549 257.929 147.821 258.063 147.177 258.396C146.533 258.728 146.002 259.244 145.651 259.879C145.3 260.513 145.144 261.237 145.204 261.959C145.264 262.681 145.536 263.37 145.987 263.938C146.437 264.505 147.046 264.927 147.736 265.149C148.666 265.445 149.676 265.359 150.543 264.911C151.41 264.463 152.064 263.689 152.362 262.759Z" fill="white" stroke="#263238" stroke-width="0.5" stroke-miterlimit="10"/>
<path d="M129.832 325.981C130.169 324.921 130.184 323.784 129.876 322.715C129.567 321.646 128.949 320.692 128.099 319.974C127.248 319.256 126.204 318.807 125.098 318.682C123.993 318.557 122.875 318.763 121.886 319.274C120.897 319.784 120.082 320.577 119.543 321.55C119.005 322.524 118.767 323.636 118.859 324.745C118.952 325.853 119.372 326.91 120.065 327.781C120.758 328.651 121.694 329.297 122.754 329.636C123.458 329.861 124.201 329.945 124.938 329.883C125.675 329.822 126.393 329.615 127.05 329.276C127.708 328.936 128.292 328.471 128.769 327.905C129.246 327.34 129.607 326.686 129.832 325.981Z" fill="white" stroke="#263238" stroke-width="0.5" stroke-miterlimit="10"/>
<path d="M97.3893 219.938C97.7249 218.877 97.7382 217.74 97.4275 216.671C97.1168 215.602 96.4961 214.649 95.6439 213.933C94.7917 213.217 93.7462 212.769 92.6397 212.647C91.5332 212.525 90.4154 212.734 89.4276 213.247C88.4398 213.761 87.6264 214.555 87.0903 215.531C86.5541 216.507 86.3194 217.619 86.4156 218.728C86.5119 219.837 86.9349 220.893 87.6311 221.762C88.3273 222.63 89.2655 223.273 90.3269 223.608C91.7501 224.058 93.2937 223.924 94.6181 223.236C95.9425 222.548 96.9393 221.361 97.3893 219.938Z" fill="white" stroke="#263238" stroke-width="0.5" stroke-miterlimit="10"/>
<path d="M259.082 194.633C259.419 193.573 259.434 192.436 259.126 191.367C258.817 190.298 258.199 189.344 257.349 188.626C256.498 187.909 255.454 187.459 254.348 187.334C253.243 187.21 252.125 187.416 251.136 187.926C250.147 188.437 249.332 189.229 248.793 190.203C248.255 191.176 248.017 192.288 248.109 193.397C248.202 194.506 248.622 195.562 249.315 196.433C250.008 197.303 250.944 197.949 252.004 198.288C252.708 198.513 253.451 198.598 254.188 198.536C254.925 198.474 255.643 198.268 256.3 197.928C256.958 197.589 257.542 197.123 258.019 196.558C258.496 195.992 258.857 195.338 259.082 194.633Z" fill="white" stroke="#263238" stroke-width="0.5" stroke-miterlimit="10"/>
<path d="M202.886 148.376C203.224 147.315 203.239 146.179 202.931 145.109C202.622 144.04 202.004 143.086 201.153 142.369C200.303 141.651 199.259 141.201 198.153 141.076C197.047 140.952 195.929 141.158 194.941 141.668C193.952 142.179 193.137 142.971 192.598 143.945C192.059 144.919 191.821 146.03 191.914 147.139C192.007 148.248 192.427 149.305 193.12 150.175C193.813 151.046 194.749 151.691 195.808 152.03C197.232 152.481 198.776 152.35 200.102 151.665C201.429 150.98 202.43 149.797 202.886 148.376Z" fill="white" stroke="#263238" stroke-width="0.5" stroke-miterlimit="10"/>
<path d="M223.425 269.499C223.763 268.438 223.778 267.302 223.47 266.232C223.161 265.163 222.543 264.209 221.692 263.492C220.842 262.774 219.798 262.324 218.692 262.199C217.586 262.075 216.468 262.281 215.48 262.791C214.491 263.302 213.676 264.094 213.137 265.068C212.598 266.042 212.36 267.153 212.453 268.262C212.546 269.371 212.966 270.428 213.659 271.298C214.352 272.169 215.288 272.814 216.348 273.153C217.052 273.379 217.794 273.463 218.532 273.401C219.269 273.339 219.987 273.133 220.644 272.793C221.301 272.454 221.885 271.988 222.363 271.423C222.84 270.858 223.201 270.204 223.425 269.499Z" fill="white" stroke="#263238" stroke-width="0.5" stroke-miterlimit="10"/>
<path d="M126.174 81.0366C126.392 80.3453 126.4 79.6049 126.198 78.9089C125.995 78.2129 125.592 77.5924 125.037 77.1257C124.482 76.659 123.802 76.3669 123.082 76.2864C122.361 76.2059 121.633 76.3404 120.989 76.6731C120.345 77.0059 119.814 77.5218 119.463 78.1559C119.112 78.7901 118.957 79.5139 119.016 80.2363C119.076 80.9587 119.349 81.6472 119.799 82.2149C120.25 82.7827 120.858 83.2044 121.548 83.4267C122.009 83.5751 122.494 83.631 122.977 83.5911C123.459 83.5512 123.929 83.4163 124.358 83.1941C124.788 82.972 125.17 82.667 125.482 82.2967C125.793 81.9264 126.029 81.4982 126.174 81.0366Z" fill="white" stroke="#263238" stroke-width="0.5" stroke-miterlimit="10"/>
<path d="M164.691 107.419C165.028 106.358 165.044 105.222 164.735 104.152C164.427 103.083 163.808 102.129 162.958 101.411C162.108 100.694 161.064 100.244 159.958 100.119C158.852 99.9948 157.734 100.201 156.745 100.711C155.757 101.222 154.941 102.014 154.403 102.988C153.864 103.962 153.626 105.073 153.719 106.182C153.812 107.291 154.231 108.347 154.924 109.218C155.618 110.089 156.553 110.734 157.613 111.073C158.318 111.298 159.06 111.383 159.797 111.321C160.535 111.259 161.252 111.053 161.91 110.713C162.567 110.374 163.151 109.908 163.628 109.343C164.106 108.777 164.467 108.124 164.691 107.419Z" fill="white" stroke="#263238" stroke-width="0.5" stroke-miterlimit="10"/>
<path d="M90.6195 519.781C90.8373 519.089 90.8456 518.349 90.6432 517.653C90.4408 516.957 90.0368 516.337 89.4823 515.87C88.9277 515.403 88.2473 515.111 87.527 515.031C86.8066 514.95 86.0786 515.085 85.4346 515.417C84.7906 515.75 84.2596 516.266 83.9085 516.9C83.5574 517.534 83.4019 518.258 83.4617 518.98C83.5215 519.703 83.7939 520.391 84.2444 520.959C84.695 521.527 85.3036 521.949 85.9935 522.171C86.4541 522.319 86.9395 522.375 87.4219 522.335C87.9042 522.295 88.3738 522.16 88.8038 521.938C89.2337 521.716 89.6155 521.411 89.9271 521.041C90.2387 520.671 90.474 520.242 90.6195 519.781Z" fill="white" stroke="#263238" stroke-width="0.5" stroke-miterlimit="10"/>
<path d="M53.9632 489.619C54.1811 488.927 54.1893 488.187 53.9869 487.491C53.7845 486.795 53.3806 486.174 52.826 485.708C52.2714 485.241 51.5911 484.949 50.8707 484.868C50.1504 484.788 49.4223 484.922 48.7783 485.255C48.1344 485.588 47.6034 486.104 47.2523 486.738C46.9012 487.372 46.7457 488.096 46.8055 488.818C46.8653 489.541 47.1376 490.229 47.5882 490.797C48.0387 491.365 48.6473 491.786 49.3372 492.009C49.7979 492.157 50.2833 492.213 50.7656 492.173C51.2479 492.133 51.7176 491.998 52.1475 491.776C52.5775 491.554 52.9593 491.249 53.2709 490.879C53.5825 490.508 53.8178 490.08 53.9632 489.619Z" fill="white" stroke="#263238" stroke-width="0.5" stroke-miterlimit="10"/>
<path d="M67.3617 568.63C67.5795 567.939 67.5877 567.199 67.3854 566.503C67.183 565.807 66.779 565.186 66.2244 564.719C65.6699 564.253 64.9895 563.961 64.2691 563.88C63.5488 563.8 62.8207 563.934 62.1768 564.267C61.5328 564.6 61.0018 565.116 60.6507 565.75C60.2996 566.384 60.1441 567.108 60.2039 567.83C60.2637 568.552 60.536 569.241 60.9866 569.809C61.4372 570.376 62.0458 570.798 62.7357 571.02C63.6661 571.316 64.6757 571.23 65.543 570.782C66.4103 570.334 67.0644 569.56 67.3617 568.63Z" fill="white" stroke="#263238" stroke-width="0.5" stroke-miterlimit="10"/>
<path d="M174.082 500.46C174.419 499.399 174.434 498.263 174.126 497.193C173.818 496.124 173.199 495.17 172.349 494.452C171.498 493.735 170.454 493.285 169.348 493.16C168.243 493.036 167.125 493.242 166.136 493.752C165.147 494.263 164.332 495.055 163.793 496.029C163.255 497.003 163.017 498.114 163.109 499.223C163.202 500.332 163.622 501.388 164.315 502.259C165.008 503.13 165.944 503.775 167.004 504.114C168.427 504.565 169.971 504.434 171.297 503.749C172.624 503.064 173.625 501.881 174.082 500.46Z" fill="white" stroke="#263238" stroke-width="0.5" stroke-miterlimit="10"/>
<path d="M117.891 454.215C118.225 453.154 118.238 452.018 117.927 450.95C117.616 449.882 116.996 448.93 116.144 448.214C115.292 447.499 114.248 447.051 113.142 446.929C112.037 446.806 110.92 447.014 109.932 447.526C108.944 448.038 108.131 448.832 107.594 449.806C107.057 450.78 106.821 451.891 106.915 453C107.009 454.108 107.43 455.164 108.123 456.033C108.817 456.903 109.753 457.547 110.813 457.885C111.519 458.11 112.262 458.194 113 458.131C113.738 458.068 114.456 457.86 115.114 457.519C115.771 457.178 116.355 456.711 116.831 456.144C117.308 455.577 117.668 454.922 117.891 454.215Z" fill="white" stroke="#263238" stroke-width="0.5" stroke-miterlimit="10"/>
<path d="M138.433 575.37C138.771 574.309 138.786 573.173 138.478 572.103C138.169 571.034 137.551 570.081 136.7 569.363C135.85 568.645 134.806 568.195 133.7 568.071C132.594 567.946 131.476 568.152 130.488 568.662C129.499 569.173 128.683 569.965 128.145 570.939C127.606 571.913 127.368 573.024 127.461 574.133C127.554 575.242 127.973 576.299 128.667 577.169C129.36 578.04 130.295 578.685 131.355 579.024C132.06 579.25 132.802 579.334 133.539 579.272C134.277 579.21 134.995 579.004 135.652 578.664C136.309 578.325 136.893 577.859 137.371 577.294C137.848 576.729 138.209 576.075 138.433 575.37Z" fill="white" stroke="#263238" stroke-width="0.5" stroke-miterlimit="10"/>
<path d="M569.565 707.611C569.783 706.919 569.791 706.179 569.589 705.483C569.386 704.787 568.982 704.167 568.428 703.7C567.873 703.233 567.193 702.941 566.472 702.861C565.752 702.78 565.024 702.915 564.38 703.247C563.736 703.58 563.205 704.096 562.854 704.73C562.503 705.364 562.347 706.088 562.407 706.81C562.467 707.533 562.739 708.221 563.19 708.789C563.64 709.357 564.249 709.779 564.939 710.001C565.869 710.296 566.879 710.211 567.746 709.763C568.613 709.315 569.268 708.541 569.565 707.611Z" fill="white" stroke="#263238" stroke-width="0.5" stroke-miterlimit="10"/>
<path d="M638.338 660.919C638.556 660.228 638.564 659.488 638.362 658.792C638.16 658.096 637.756 657.475 637.201 657.008C636.646 656.542 635.966 656.25 635.246 656.169C634.525 656.089 633.797 656.223 633.153 656.556C632.509 656.889 631.978 657.405 631.627 658.039C631.276 658.673 631.121 659.397 631.18 660.119C631.24 660.841 631.513 661.53 631.963 662.098C632.414 662.666 633.022 663.087 633.712 663.309C634.643 663.605 635.652 663.519 636.52 663.071C637.387 662.623 638.041 661.849 638.338 660.919Z" fill="white" stroke="#263238" stroke-width="0.5" stroke-miterlimit="10"/>
<path d="M596.766 697.112C597.1 696.051 597.113 694.914 596.802 693.846C596.491 692.778 595.871 691.826 595.019 691.111C594.167 690.395 593.123 689.948 592.017 689.825C590.912 689.703 589.795 689.911 588.807 690.423C587.819 690.935 587.006 691.728 586.469 692.702C585.932 693.676 585.696 694.788 585.79 695.896C585.884 697.005 586.305 698.06 586.998 698.93C587.692 699.799 588.628 700.444 589.688 700.782C590.393 701.009 591.137 701.094 591.876 701.032C592.614 700.97 593.334 700.763 593.992 700.422C594.65 700.08 595.234 699.612 595.71 699.044C596.186 698.476 596.545 697.819 596.766 697.112Z" fill="white" stroke="#263238" stroke-width="0.5" stroke-miterlimit="10"/>
<path d="M702.252 625.517C702.59 624.456 702.607 623.318 702.298 622.248C701.99 621.178 701.371 620.223 700.52 619.505C699.669 618.787 698.624 618.337 697.518 618.213C696.411 618.089 695.292 618.296 694.303 618.807C693.314 619.319 692.499 620.113 691.962 621.088C691.424 622.063 691.187 623.176 691.282 624.286C691.377 625.395 691.799 626.452 692.495 627.321C693.19 628.191 694.128 628.835 695.19 629.171C696.611 629.622 698.153 629.49 699.477 628.805C700.801 628.12 701.799 626.937 702.252 625.517Z" fill="white" stroke="#263238" stroke-width="0.5" stroke-miterlimit="10"/>
<path d="M646.893 582.818C647.111 582.127 647.119 581.386 646.917 580.69C646.714 579.994 646.31 579.374 645.756 578.907C645.201 578.44 644.521 578.148 643.8 578.068C643.08 577.987 642.352 578.122 641.708 578.454C641.064 578.787 640.533 579.303 640.182 579.937C639.831 580.571 639.675 581.295 639.735 582.018C639.795 582.74 640.067 583.428 640.518 583.996C640.968 584.564 641.577 584.986 642.267 585.208C642.728 585.356 643.213 585.412 643.695 585.372C644.178 585.332 644.647 585.198 645.077 584.975C645.507 584.753 645.889 584.448 646.201 584.078C646.512 583.708 646.747 583.279 646.893 582.818Z" fill="white" stroke="#263238" stroke-width="0.5" stroke-miterlimit="10"/>
<path d="M610.252 552.671C610.47 551.98 610.478 551.24 610.276 550.544C610.074 549.848 609.67 549.227 609.115 548.76C608.56 548.294 607.88 548.002 607.16 547.921C606.439 547.841 605.711 547.975 605.067 548.308C604.423 548.641 603.892 549.157 603.541 549.791C603.19 550.425 603.035 551.149 603.095 551.871C603.154 552.593 603.427 553.282 603.877 553.85C604.328 554.417 604.936 554.839 605.626 555.061C606.087 555.21 606.572 555.266 607.055 555.226C607.537 555.186 608.007 555.051 608.437 554.829C608.867 554.607 609.248 554.302 609.56 553.931C609.872 553.561 610.107 553.133 610.252 552.671Z" fill="white" stroke="#263238" stroke-width="0.5" stroke-miterlimit="10"/>
<path d="M730.358 563.495C730.694 562.434 730.707 561.296 730.396 560.227C730.086 559.159 729.465 558.206 728.613 557.489C727.76 556.773 726.715 556.326 725.608 556.204C724.502 556.082 723.384 556.291 722.396 556.804C721.409 557.317 720.595 558.112 720.059 559.088C719.523 560.063 719.288 561.176 719.384 562.285C719.481 563.394 719.904 564.45 720.6 565.318C721.296 566.187 722.234 566.83 723.296 567.165C724.719 567.615 726.262 567.481 727.587 566.792C728.911 566.104 729.908 564.918 730.358 563.495Z" fill="white" stroke="#263238" stroke-width="0.5" stroke-miterlimit="10"/>
<path d="M674.174 517.267C674.512 516.206 674.529 515.068 674.22 513.998C673.912 512.928 673.293 511.973 672.442 511.255C671.591 510.537 670.546 510.087 669.44 509.963C668.333 509.839 667.214 510.046 666.225 510.557C665.236 511.069 664.421 511.863 663.883 512.838C663.346 513.813 663.109 514.926 663.204 516.036C663.299 517.145 663.721 518.202 664.416 519.071C665.112 519.941 666.05 520.585 667.112 520.921C668.533 521.372 670.074 521.24 671.399 520.555C672.723 519.87 673.721 518.687 674.174 517.267Z" fill="white" stroke="#263238" stroke-width="0.5" stroke-miterlimit="10"/>
<path d="M123.724 648.23C123.945 647.539 123.956 646.799 123.756 646.101C123.556 645.404 123.154 644.782 122.601 644.313C122.048 643.844 121.368 643.55 120.647 643.467C119.927 643.385 119.198 643.517 118.553 643.848C117.907 644.18 117.375 644.695 117.022 645.328C116.669 645.962 116.512 646.686 116.571 647.409C116.629 648.132 116.9 648.821 117.35 649.39C117.8 649.959 118.408 650.382 119.098 650.605C119.558 650.754 120.043 650.81 120.524 650.771C121.006 650.732 121.475 650.599 121.905 650.378C122.334 650.158 122.716 649.854 123.029 649.486C123.341 649.117 123.577 648.69 123.724 648.23Z" fill="white" stroke="#263238" stroke-width="0.5" stroke-miterlimit="10"/>
<path d="M229.166 631.685C229.384 630.994 229.392 630.253 229.19 629.557C228.988 628.861 228.584 628.241 228.029 627.774C227.475 627.307 226.794 627.015 226.074 626.935C225.353 626.854 224.625 626.989 223.981 627.322C223.338 627.654 222.806 628.17 222.455 628.804C222.104 629.438 221.949 630.162 222.009 630.885C222.068 631.607 222.341 632.296 222.791 632.863C223.242 633.431 223.85 633.853 224.54 634.075C225.001 634.224 225.486 634.279 225.969 634.24C226.451 634.2 226.921 634.065 227.351 633.843C227.781 633.62 228.162 633.315 228.474 632.945C228.786 632.575 229.021 632.147 229.166 631.685Z" fill="white" stroke="#263238" stroke-width="0.5" stroke-miterlimit="10"/>
<path d="M192.526 601.521C192.744 600.83 192.752 600.089 192.549 599.393C192.347 598.697 191.943 598.077 191.388 597.61C190.834 597.143 190.154 596.851 189.433 596.771C188.713 596.69 187.985 596.825 187.341 597.158C186.697 597.49 186.166 598.006 185.815 598.64C185.464 599.274 185.308 599.998 185.368 600.721C185.428 601.443 185.7 602.132 186.151 602.699C186.601 603.267 187.21 603.689 187.9 603.911C188.36 604.06 188.846 604.115 189.328 604.075C189.81 604.036 190.28 603.901 190.71 603.679C191.14 603.456 191.522 603.151 191.833 602.781C192.145 602.411 192.38 601.983 192.526 601.521Z" fill="white" stroke="#263238" stroke-width="0.5" stroke-miterlimit="10"/>
<path d="M205.909 680.533C206.126 679.841 206.135 679.101 205.932 678.405C205.73 677.709 205.326 677.089 204.771 676.622C204.217 676.155 203.536 675.863 202.816 675.782C202.096 675.702 201.368 675.837 200.724 676.169C200.08 676.502 199.549 677.018 199.198 677.652C198.846 678.286 198.691 679.01 198.751 679.732C198.811 680.455 199.083 681.143 199.533 681.711C199.984 682.279 200.593 682.7 201.283 682.923C201.743 683.071 202.229 683.127 202.711 683.087C203.193 683.047 203.663 682.912 204.093 682.69C204.523 682.468 204.905 682.163 205.216 681.793C205.528 681.423 205.763 680.994 205.909 680.533Z" fill="white" stroke="#263238" stroke-width="0.5" stroke-miterlimit="10"/>
<path d="M150.957 637.727C151.294 636.667 151.309 635.53 151.001 634.461C150.693 633.392 150.074 632.438 149.224 631.72C148.373 631.002 147.329 630.553 146.223 630.428C145.118 630.303 144 630.509 143.011 631.02C142.022 631.53 141.207 632.323 140.668 633.296C140.13 634.27 139.892 635.382 139.984 636.491C140.077 637.6 140.497 638.656 141.19 639.527C141.883 640.397 142.819 641.043 143.879 641.382C145.302 641.833 146.846 641.701 148.172 641.016C149.499 640.331 150.5 639.149 150.957 637.727Z" fill="white" stroke="#263238" stroke-width="0.5" stroke-miterlimit="10"/>
<path d="M312.635 612.362C312.973 611.302 312.989 610.164 312.681 609.094C312.373 608.024 311.754 607.069 310.903 606.351C310.052 605.632 309.007 605.183 307.901 605.059C306.794 604.934 305.675 605.141 304.686 605.653C303.697 606.165 302.882 606.959 302.344 607.934C301.807 608.909 301.57 610.022 301.665 611.131C301.76 612.241 302.182 613.297 302.877 614.167C303.573 615.037 304.511 615.681 305.572 616.017C306.994 616.467 308.535 616.336 309.859 615.65C311.184 614.965 312.182 613.783 312.635 612.362Z" fill="white" stroke="#263238" stroke-width="0.5" stroke-miterlimit="10"/>
<path d="M256.539 566.118C256.874 565.057 256.886 563.92 256.575 562.852C256.264 561.784 255.644 560.832 254.792 560.117C253.941 559.401 252.896 558.954 251.791 558.831C250.685 558.709 249.568 558.917 248.58 559.429C247.593 559.941 246.779 560.734 246.242 561.708C245.705 562.682 245.469 563.794 245.563 564.902C245.657 566.01 246.078 567.066 246.772 567.936C247.466 568.805 248.402 569.45 249.461 569.787C250.167 570.015 250.911 570.1 251.649 570.038C252.388 569.976 253.107 569.769 253.765 569.427C254.423 569.086 255.007 568.618 255.483 568.05C255.959 567.482 256.318 566.825 256.539 566.118Z" fill="white" stroke="#263238" stroke-width="0.5" stroke-miterlimit="10"/>
<path d="M276.983 687.272C277.319 686.211 277.332 685.074 277.021 684.005C276.711 682.936 276.09 681.983 275.238 681.267C274.385 680.551 273.34 680.103 272.233 679.981C271.127 679.859 270.009 680.068 269.021 680.581C268.034 681.095 267.22 681.889 266.684 682.865C266.148 683.841 265.913 684.953 266.009 686.062C266.106 687.171 266.529 688.227 267.225 689.096C267.921 689.964 268.859 690.607 269.921 690.942C271.344 691.392 272.887 691.258 274.212 690.57C275.536 689.882 276.533 688.695 276.983 687.272Z" fill="white" stroke="#263238" stroke-width="0.5" stroke-miterlimit="10"/>
<path d="M722.729 327.878C722.947 327.187 722.955 326.447 722.753 325.751C722.55 325.055 722.146 324.434 721.592 323.968C721.037 323.501 720.357 323.209 719.636 323.128C718.916 323.048 718.188 323.182 717.544 323.515C716.9 323.848 716.369 324.364 716.018 324.998C715.667 325.632 715.511 326.356 715.571 327.078C715.631 327.8 715.903 328.489 716.354 329.057C716.804 329.624 717.413 330.046 718.103 330.268C719.033 330.564 720.043 330.478 720.91 330.03C721.777 329.582 722.432 328.808 722.729 327.878Z" fill="white" stroke="#263238" stroke-width="0.5" stroke-miterlimit="10"/>
<path d="M701.573 258.72C701.79 258.029 701.799 257.288 701.596 256.592C701.394 255.896 700.99 255.276 700.435 254.809C699.881 254.343 699.2 254.051 698.48 253.97C697.76 253.889 697.032 254.024 696.388 254.357C695.744 254.689 695.213 255.205 694.862 255.84C694.511 256.474 694.355 257.198 694.415 257.92C694.475 258.642 694.747 259.331 695.198 259.899C695.648 260.466 696.257 260.888 696.947 261.11C697.877 261.406 698.887 261.32 699.754 260.872C700.621 260.424 701.275 259.65 701.573 258.72Z" fill="white" stroke="#263238" stroke-width="0.5" stroke-miterlimit="10"/>
<path d="M728.805 248.219C729.139 247.158 729.152 246.022 728.841 244.954C728.53 243.886 727.91 242.934 727.058 242.218C726.207 241.502 725.162 241.055 724.056 240.933C722.951 240.81 721.834 241.018 720.846 241.53C719.859 242.042 719.045 242.835 718.508 243.81C717.971 244.784 717.735 245.895 717.829 247.004C717.923 248.112 718.344 249.168 719.037 250.037C719.731 250.907 720.667 251.551 721.727 251.889C722.433 252.114 723.176 252.198 723.914 252.135C724.652 252.072 725.37 251.864 726.028 251.523C726.685 251.182 727.269 250.715 727.746 250.148C728.222 249.581 728.582 248.925 728.805 248.219Z" fill="white" stroke="#263238" stroke-width="0.5" stroke-miterlimit="10"/>
</svg>
