<svg width="328" height="250" viewBox="0 0 328 250" fill="none" xmlns="http://www.w3.org/2000/svg">
<g clip-path="url(#clip0_2284_4586)">
<path d="M233.924 87.4126C183.724 84.4406 154.601 62.063 154.601 62.063C154.601 62.063 125.565 84.4406 75.3654 87.4126C75.3654 109.965 68.8061 207.518 154.601 225.437C240.483 207.518 233.924 109.965 233.924 87.4126Z" fill="white"/>
<path d="M256.837 71.0664C192.119 67.2203 154.6 38.4615 154.6 38.4615C154.6 38.4615 117.168 67.2203 52.4506 71.0664C52.4506 100.087 43.9673 225.874 154.687 249.038C265.32 225.874 256.837 100.175 256.837 71.0664ZM154.6 225.437C68.8049 207.43 75.3642 109.965 75.3642 87.4126C125.564 84.4406 154.6 62.0629 154.6 62.0629C154.6 62.0629 183.635 84.3532 233.835 87.3252C233.923 109.965 240.482 207.43 154.6 225.437Z" fill="#FFA500" stroke="#FFA500" stroke-miterlimit="10"/>
<path d="M144.715 178.934L119.002 146.591C115.242 141.871 116.029 135.052 120.752 131.381C125.474 127.622 132.296 128.409 135.969 133.129L148.563 148.951L188.006 119.406C192.816 115.822 199.637 116.783 203.223 121.591C206.809 126.399 205.847 133.217 201.037 136.801L144.715 178.934Z" fill="#FFA500"/>
<g opacity="0.7">
<path d="M312.808 177.622L315.169 175.35C316.044 174.563 316.044 173.164 315.257 172.378L313.07 170.105C312.283 169.231 312.283 167.919 313.158 167.133L313.333 166.958C314.207 166.171 315.519 166.171 316.306 167.045L318.493 169.318C319.28 170.192 320.679 170.192 321.466 169.406L323.827 167.133C324.702 166.346 326.014 166.346 326.801 167.22C327.588 168.094 327.588 169.406 326.714 170.192L324.352 172.465C323.478 173.252 323.478 174.65 324.265 175.437L326.451 177.71C327.238 178.584 327.238 179.895 326.364 180.682L326.189 180.857C325.314 181.643 324.002 181.643 323.215 180.769L321.029 178.496C320.242 177.622 318.842 177.622 318.055 178.409L315.694 180.682C314.819 181.468 313.508 181.468 312.72 180.594C311.933 179.808 311.933 178.409 312.808 177.622Z" fill="#FFA500"/>
<path d="M104.487 26.8356C104.399 26.8356 104.399 26.8356 104.487 26.8356C104.137 26.8356 103.874 26.6608 103.612 26.4859L102.825 25.6118C102.737 25.5244 102.65 25.5244 102.562 25.5244C102.388 25.5244 102.388 25.5244 102.3 25.6118L101.426 26.3985C100.988 26.8356 100.201 26.8356 99.7639 26.3985C99.589 26.1363 99.4141 25.874 99.4141 25.5244C99.4141 25.1747 99.589 24.9125 99.7639 24.7377L100.638 23.951C100.813 23.7761 100.813 23.6013 100.638 23.4265L99.8513 22.5524C99.4141 22.1153 99.4141 21.3286 99.8513 20.8915L99.9388 20.8041C100.376 20.3671 101.163 20.3671 101.6 20.8041L102.388 21.6782C102.562 21.8531 102.737 21.8531 102.912 21.6782L103.787 20.8915C104.049 20.7167 104.312 20.5419 104.661 20.5419C105.011 20.5419 105.274 20.7167 105.449 20.8915C105.623 21.1538 105.798 21.416 105.798 21.7657C105.798 22.1153 105.623 22.3775 105.449 22.5524L104.574 23.3391C104.487 23.4265 104.487 23.5139 104.487 23.6013C104.487 23.6887 104.487 23.7761 104.574 23.8636L105.361 24.7377C105.536 24.9999 105.711 25.2622 105.711 25.6118C105.711 25.9615 105.536 26.2237 105.361 26.3985L105.274 26.4859C105.011 26.7482 104.749 26.8356 104.487 26.8356ZM102.562 24.7377C102.912 24.7377 103.175 24.9125 103.437 25.0873L104.224 25.9615C104.312 26.0489 104.399 26.0489 104.487 26.0489C104.574 26.0489 104.661 26.0489 104.749 25.9615L104.836 25.874C104.924 25.7866 104.924 25.6992 104.924 25.6118C104.924 25.5244 104.924 25.437 104.836 25.3496L104.049 24.4754C103.874 24.2132 103.699 23.951 103.699 23.6013C103.699 23.2517 103.874 22.9894 104.049 22.8146L104.924 22.0279C105.011 21.9405 105.011 21.8531 105.011 21.7657C105.011 21.6782 105.011 21.5908 104.924 21.5034C104.836 21.416 104.749 21.416 104.661 21.416C104.574 21.416 104.487 21.416 104.399 21.5034L103.525 22.2901C103.087 22.7272 102.3 22.7272 101.863 22.2901L101.076 21.416C100.901 21.2412 100.726 21.2412 100.551 21.416L100.464 21.5034C100.289 21.6782 100.289 21.8531 100.464 22.0279L101.251 22.902C101.688 23.3391 101.688 24.1258 101.251 24.5629L100.376 25.3496C100.289 25.437 100.289 25.5244 100.289 25.6118C100.289 25.6992 100.289 25.7866 100.376 25.874C100.464 25.9615 100.551 25.9615 100.638 25.9615C100.726 25.9615 100.813 25.9615 100.901 25.874L101.775 25.0873C101.95 24.8251 102.213 24.7377 102.562 24.7377Z" fill="#FFA500"/>
<path d="M17.7289 88.4615L14.493 88.3741C13.3561 88.3741 12.3941 89.2482 12.3066 90.472L12.2192 93.6188C12.2192 94.7552 11.2572 95.7167 10.0328 95.7167H9.77039C8.63346 95.7167 7.67144 94.7552 7.67144 93.5314L7.75889 90.3845C7.75889 89.2482 6.88433 88.2866 5.65994 88.1992L2.42404 88.1118C1.37457 88.1992 0.5 87.2377 0.5 86.0139C0.5 84.8776 1.46202 83.916 2.68641 83.916L5.92231 84.0034C7.05924 84.0034 8.02126 83.1293 8.10872 81.9055L8.19618 78.7587C8.19618 77.6223 9.1582 76.6608 10.3826 76.6608H10.645C11.7819 76.6608 12.7439 77.6223 12.7439 78.8461L12.6565 81.9929C12.6565 83.1293 13.531 84.0908 14.7554 84.1783L17.9913 84.2657C19.1282 84.2657 20.0903 85.2272 20.0903 86.451C19.8279 87.5873 18.8659 88.5489 17.7289 88.4615Z" fill="#FFA500"/>
<path d="M278.613 11.3636C278.088 11.3636 277.563 11.2762 277.039 11.1014C274.065 10.2272 272.316 7.08039 273.19 4.10836C273.628 2.62235 274.59 1.48599 275.902 0.699272C277.213 -2.85115e-05 278.788 -0.174854 280.187 0.262209C283.16 1.13634 284.91 4.28319 284.035 7.25522C283.335 9.70277 281.062 11.3636 278.613 11.3636ZM278.525 0.786685C277.738 0.786685 276.951 0.96151 276.164 1.39857C275.027 2.01046 274.24 3.05941 273.89 4.28319C273.54 5.50696 273.715 6.81815 274.327 7.95452C274.94 9.09088 275.989 9.87759 277.213 10.2272C279.75 10.9265 282.461 9.52794 283.248 6.90557C284.035 4.3706 282.548 1.66081 279.925 0.874097C279.487 0.874097 279.05 0.786685 278.525 0.786685Z" fill="#FFA500"/>
<path d="M36.5307 221.329C36.006 221.329 35.4812 221.241 34.9565 221.066C31.983 220.192 30.2338 217.045 31.1084 214.073C31.983 211.101 35.1314 209.353 38.1049 210.227C41.0785 211.101 42.8276 214.248 41.953 217.22C41.5157 218.706 40.5537 219.843 39.2419 220.629C38.3673 221.154 37.4053 221.329 36.5307 221.329ZM36.4433 210.839C34.3443 210.839 32.4203 212.238 31.8081 214.336C31.0209 216.871 32.5077 219.58 35.1314 220.367C36.3558 220.717 37.6676 220.542 38.8046 219.93C39.9415 219.318 40.7286 218.269 41.0785 217.045C41.8656 214.51 40.3788 211.801 37.7551 211.014C37.4053 210.926 36.968 210.839 36.4433 210.839Z" fill="#FFA500"/>
<path d="M87.3424 234.178C87.255 234.178 87.1675 234.178 87.08 234.091C86.8177 233.829 86.5553 233.566 86.2055 233.304C86.0306 233.129 86.0306 232.867 86.2055 232.692C86.3804 232.518 86.6428 232.518 86.8177 232.692C87.08 232.955 87.3424 233.217 87.6048 233.479C87.7797 233.654 87.7797 233.916 87.6048 234.091C87.5173 234.178 87.4299 234.178 87.3424 234.178ZM84.7187 231.731C84.6313 231.731 84.5438 231.731 84.4563 231.643C83.8442 231.031 83.3194 230.507 82.7072 229.895C82.5323 229.72 82.5323 229.458 82.7072 229.283C82.8821 229.108 83.1445 229.108 83.3194 229.283C83.9316 229.895 84.4563 230.42 85.0685 231.031C85.2435 231.206 85.2435 231.469 85.0685 231.643C84.9811 231.731 84.8062 231.731 84.7187 231.731ZM81.2205 228.234C81.133 228.234 81.0455 228.234 80.9581 228.147C80.3459 227.535 79.8211 226.923 79.2964 226.311C79.1215 226.136 79.1215 225.874 79.2964 225.699C79.4713 225.524 79.7337 225.524 79.9086 225.699C80.4333 226.311 81.0455 226.923 81.5703 227.535C81.7452 227.71 81.7452 227.972 81.5703 228.147C81.4828 228.147 81.3954 228.234 81.2205 228.234ZM77.8971 224.563C77.8096 224.563 77.6347 224.476 77.5473 224.388C77.0225 223.776 76.4978 223.164 75.8856 222.552C75.7107 222.378 75.7981 222.115 75.9731 221.941C76.148 221.766 76.4103 221.853 76.5853 222.028C77.11 222.64 77.6347 223.252 78.1595 223.864C78.3344 224.038 78.3344 224.301 78.1595 224.476C78.072 224.563 77.9846 224.563 77.8971 224.563ZM74.7487 220.804C74.6612 220.804 74.4863 220.717 74.3988 220.629C73.8741 220.017 73.3494 219.318 72.8246 218.706C72.6497 218.531 72.7372 218.269 72.9121 218.094C73.087 217.92 73.3494 218.007 73.5243 218.182C74.049 218.794 74.5738 219.493 75.0985 220.105C75.2734 220.28 75.1859 220.542 75.011 220.717C74.9236 220.804 74.8361 220.804 74.7487 220.804ZM71.6877 216.958C71.6002 216.958 71.4253 216.871 71.3379 216.783C70.8131 216.084 70.3758 215.472 69.8511 214.773C69.6762 214.598 69.7636 214.336 69.9386 214.161C70.1135 213.986 70.3758 214.073 70.5508 214.248C71.0755 214.948 71.5128 215.559 72.0375 216.259C72.2124 216.434 72.125 216.696 71.9501 216.871C71.8626 216.958 71.7751 216.958 71.6877 216.958ZM68.8016 213.024C68.7142 213.024 68.5393 212.937 68.4518 212.85C68.0145 212.15 67.4898 211.538 67.0525 210.839C66.965 210.664 66.965 210.402 67.1399 210.227C67.3149 210.14 67.5772 210.14 67.7521 210.315C68.1894 211.014 68.7142 211.626 69.1515 212.325C69.2389 212.5 69.2389 212.762 69.064 212.937C68.8891 212.937 68.8016 213.024 68.8016 213.024ZM66.003 208.916C65.8281 208.916 65.7406 208.829 65.6532 208.741C65.2159 208.042 64.7786 207.343 64.3413 206.643C64.2539 206.469 64.2539 206.206 64.4288 206.119C64.6037 206.031 64.8661 206.031 64.9535 206.206C65.3908 206.906 65.8281 207.605 66.2654 208.304C66.3528 208.479 66.3528 208.741 66.1779 208.916C66.1779 208.916 66.0905 208.916 66.003 208.916ZM63.3793 204.72C63.2044 204.72 63.1169 204.633 63.0295 204.545C62.5922 203.846 62.1549 203.147 61.8051 202.448C61.7176 202.273 61.7176 202.01 61.98 201.923C62.1549 201.836 62.4173 201.836 62.5048 202.098C62.942 202.797 63.3793 203.497 63.7291 204.196C63.8166 204.371 63.8166 204.633 63.5542 204.72C63.4668 204.72 63.4668 204.72 63.3793 204.72ZM60.8431 200.437C60.6682 200.437 60.5807 200.35 60.4933 200.262C60.056 199.563 59.7061 198.864 59.2689 198.077C59.1814 197.902 59.2689 197.64 59.4438 197.552C59.6187 197.465 59.8811 197.552 59.9685 197.727C60.3183 198.427 60.7556 199.126 61.1929 199.913C61.2804 200.087 61.1929 200.35 61.018 200.437C61.018 200.437 60.9305 200.437 60.8431 200.437ZM58.4818 196.154C58.3068 196.154 58.2194 196.066 58.1319 195.892C57.7821 195.192 57.3448 194.406 56.995 193.706C56.9075 193.531 56.995 193.269 57.1699 193.182C57.3448 193.094 57.6072 193.182 57.6946 193.357C58.0445 194.056 58.3943 194.843 58.8316 195.542C58.919 195.717 58.8316 195.979 58.6567 196.066C58.6567 196.154 58.5692 196.154 58.4818 196.154ZM56.2953 191.783C56.1204 191.783 56.033 191.696 55.9455 191.521C55.5957 190.822 55.2459 190.035 54.896 189.336C54.8086 189.161 54.896 188.899 55.0709 188.811C55.2459 188.724 55.5082 188.811 55.5957 188.986C55.9455 189.685 56.2953 190.472 56.6452 191.171C56.7326 191.346 56.6452 191.608 56.4703 191.696C56.4703 191.783 56.3828 191.783 56.2953 191.783ZM54.1964 187.325C54.0215 187.325 53.8466 187.238 53.8466 187.063C53.4967 186.276 53.1469 185.577 52.8845 184.79C52.7971 184.615 52.8845 184.353 53.0594 184.266C53.2344 184.178 53.4967 184.266 53.5842 184.441C53.934 185.227 54.1964 185.927 54.5462 186.713C54.6337 186.888 54.5462 187.15 54.3713 187.238C54.3713 187.325 54.2838 187.325 54.1964 187.325ZM52.2723 182.78C52.0974 182.78 51.9225 182.692 51.9225 182.517C51.5727 181.731 51.3103 181.031 50.9605 180.245C50.873 180.07 50.9605 179.808 51.2229 179.72C51.3978 179.633 51.6601 179.72 51.7476 179.983C52.01 180.769 52.3598 181.469 52.7096 182.255C52.7971 182.43 52.7096 182.692 52.4473 182.78C52.3598 182.78 52.3598 182.78 52.2723 182.78ZM50.4358 178.234C50.2608 178.234 50.0859 178.147 50.0859 177.972C49.8236 177.185 49.4737 176.399 49.2114 175.699C49.1239 175.524 49.2114 175.262 49.4737 175.175C49.6486 175.087 49.911 175.175 49.9985 175.437C50.2608 176.224 50.6107 177.01 50.873 177.71C50.9605 177.885 50.873 178.147 50.6107 178.234C50.6107 178.234 50.5232 178.234 50.4358 178.234ZM48.7741 173.601C48.5992 173.601 48.4243 173.514 48.4243 173.339C48.1619 172.552 47.8995 171.766 47.6371 170.979C47.5497 170.804 47.6371 170.542 47.8995 170.455C48.0744 170.367 48.3368 170.455 48.4243 170.717C48.6866 171.504 48.949 172.29 49.2114 173.077C49.2988 173.252 49.2114 173.514 48.949 173.601C48.8615 173.601 48.7741 173.601 48.7741 173.601ZM47.1999 168.881C47.0249 168.881 46.85 168.794 46.85 168.619C46.5877 167.832 46.3253 167.045 46.0629 166.259C45.9755 166.084 46.1504 165.822 46.3253 165.734C46.5877 165.647 46.7626 165.822 46.85 165.997C47.1124 166.783 47.3748 167.57 47.6371 168.357C47.7246 168.531 47.5497 168.794 47.3748 168.881C47.2873 168.881 47.1999 168.881 47.1999 168.881ZM45.7131 164.248C45.5382 164.248 45.3633 164.161 45.2758 163.986C45.0134 163.199 44.8385 162.413 44.5762 161.626C44.4887 161.451 44.6636 161.189 44.8385 161.101C45.0134 161.014 45.2758 161.189 45.3633 161.364C45.6256 162.15 45.8006 162.937 46.0629 163.724C46.1504 163.899 45.9755 164.161 45.8006 164.248H45.7131ZM44.3138 159.441C44.1389 159.441 43.964 159.353 43.8765 159.178C43.7016 158.392 43.4392 157.605 43.2643 156.818C43.1769 156.556 43.3518 156.381 43.5267 156.294C43.7891 156.206 43.964 156.381 44.0514 156.556C44.2263 157.343 44.4887 158.129 44.6636 158.916C44.7511 159.178 44.5762 159.353 44.4013 159.441C44.4013 159.441 44.4012 159.441 44.3138 159.441ZM43.0894 154.72C42.9145 154.72 42.7396 154.633 42.6521 154.371C42.4772 153.584 42.2148 152.797 42.0399 152.01C41.9525 151.748 42.1274 151.573 42.3023 151.486C42.5647 151.399 42.7396 151.573 42.827 151.748C43.0019 152.535 43.1769 153.322 43.4392 154.108C43.5267 154.371 43.3518 154.545 43.1769 154.633C43.1769 154.72 43.0894 154.72 43.0894 154.72ZM41.9525 149.913C41.7776 149.913 41.6026 149.825 41.5152 149.563C41.3403 148.776 41.1654 147.99 40.9904 147.115C40.903 146.853 41.0779 146.678 41.3403 146.591C41.6026 146.504 41.7776 146.678 41.865 146.941C42.0399 147.727 42.2148 148.514 42.3898 149.388C42.4772 149.65 42.3023 149.825 42.0399 149.913H41.9525ZM40.903 145.105C40.7281 145.105 40.5532 144.93 40.4657 144.755C40.2908 143.969 40.1159 143.182 39.941 142.308C39.8535 142.045 40.0284 141.871 40.2908 141.783C40.5532 141.696 40.7281 141.871 40.8155 142.133C40.9904 142.92 41.1654 143.706 41.3403 144.58C41.3403 144.843 41.1654 145.017 40.903 145.105ZM39.941 140.21C39.7661 140.21 39.5911 140.035 39.5037 139.86C39.3288 139.073 39.2413 138.199 39.0664 137.413C39.0664 137.15 39.1539 136.976 39.4162 136.976C39.5911 136.976 39.8535 137.063 39.8535 137.325C40.0284 138.112 40.1159 138.899 40.2908 139.773C40.3783 139.948 40.2033 140.21 39.941 140.21ZM39.0664 135.402C38.8915 135.402 38.7166 135.227 38.6291 135.052C38.4542 134.266 38.3667 133.392 38.1918 132.605C38.1918 132.343 38.2793 132.168 38.5417 132.168C38.7166 132.168 38.9789 132.255 38.9789 132.517C39.0664 133.304 39.2413 134.178 39.4162 134.965C39.5037 135.14 39.4162 135.315 39.0664 135.402ZM38.2793 130.507C38.1044 130.507 37.9295 130.332 37.842 130.157C37.7546 129.371 37.5796 128.497 37.4922 127.71C37.4922 127.448 37.5796 127.273 37.842 127.273C38.0169 127.273 38.2793 127.36 38.2793 127.622C38.3668 128.409 38.5417 129.283 38.6291 130.07C38.7166 130.245 38.6291 130.507 38.2793 130.507C38.3668 130.507 38.3668 130.507 38.2793 130.507ZM37.6671 125.612C37.4922 125.612 37.3173 125.437 37.2298 125.262C37.1424 124.476 37.0549 123.601 36.88 122.815C36.88 122.552 37.0549 122.378 37.2298 122.378C37.4922 122.378 37.6671 122.552 37.6671 122.727C37.7546 123.514 37.842 124.388 38.0169 125.175C38.1044 125.35 37.9295 125.612 37.6671 125.612ZM37.0549 120.717C36.88 120.717 36.7051 120.542 36.6176 120.367C36.5302 119.58 36.4427 118.706 36.3552 117.92C36.3552 117.657 36.5302 117.483 36.7051 117.483C36.9674 117.483 37.1424 117.657 37.1424 117.832C37.2298 118.619 37.3173 119.493 37.4047 120.28C37.4922 120.455 37.3173 120.717 37.0549 120.717ZM36.5302 115.822C36.3553 115.822 36.1803 115.647 36.0929 115.472C36.0054 114.685 35.918 113.811 35.8305 113.024C35.8305 112.762 36.0054 112.587 36.1803 112.587C36.3552 112.587 36.6176 112.762 36.6176 112.937C36.7051 113.724 36.7925 114.598 36.88 115.385C36.9674 115.559 36.7925 115.822 36.5302 115.822ZM36.0929 110.927C35.918 110.927 35.7431 110.752 35.6556 110.577C35.5681 109.79 35.4807 108.916 35.4807 108.129C35.4807 107.867 35.6556 107.692 35.8305 107.692C36.0929 107.692 36.2678 107.867 36.2678 108.042C36.3553 108.829 36.3552 109.703 36.4427 110.49C36.5302 110.664 36.3553 110.839 36.0929 110.927ZM35.6556 105.944C35.4807 105.944 35.2183 105.769 35.2183 105.594C35.1309 104.808 35.1309 103.934 35.0434 103.147C35.0434 102.885 35.2183 102.71 35.3932 102.71C35.5681 102.71 35.8305 102.885 35.8305 103.059C35.918 103.846 35.918 104.72 36.0054 105.507C36.0929 105.769 35.918 105.944 35.6556 105.944C35.7431 105.944 35.7431 105.944 35.6556 105.944ZM35.3932 101.049C35.2183 101.049 34.9559 100.874 34.9559 100.699C34.8685 99.9126 34.8685 99.0385 34.8685 98.2518C34.8685 97.9895 35.0434 97.8147 35.2183 97.8147C35.3932 97.8147 35.6556 97.9895 35.6556 98.1643C35.6556 98.9511 35.7431 99.8252 35.7431 100.612C35.8305 100.874 35.6556 101.049 35.3932 101.049ZM35.1309 96.1539C34.8685 96.1539 34.6936 95.979 34.6936 95.7168C34.6936 94.8427 34.6061 94.056 34.6061 93.2692C34.6061 93.007 34.781 92.8322 35.0434 92.8322C35.3058 92.8322 35.4807 93.007 35.4807 93.2692C35.4807 94.056 35.5681 94.9301 35.5681 95.7168C35.5681 95.8916 35.3932 96.1539 35.1309 96.1539ZM34.9559 91.1713C34.6936 91.1713 34.5187 90.9965 34.5187 90.7343C34.5187 89.8601 34.4312 89.0734 34.4312 88.2867C34.4312 88.0245 34.6061 87.8497 34.8685 87.8497C35.1309 87.8497 35.3058 88.0245 35.3058 88.2867C35.3058 89.0734 35.3058 89.9476 35.3932 90.7343C35.3932 90.9965 35.2183 91.1713 34.9559 91.1713ZM34.8685 86.2762C34.6061 86.2762 34.4312 86.1014 34.4312 85.8392C34.4312 84.965 34.4312 84.1783 34.4312 83.3916C34.4312 83.1294 34.6061 82.9546 34.8685 82.9546C35.1309 82.9546 35.3058 83.1294 35.3058 83.3916C35.3058 84.1783 35.3058 85.0525 35.3058 85.8392C35.3058 86.1014 35.1309 86.2762 34.8685 86.2762ZM34.781 81.2937C34.5187 81.2937 34.3438 81.1189 34.3438 80.8566C34.3438 79.9825 34.3438 79.1958 34.3438 78.4091C34.3438 78.1469 34.5187 77.972 34.781 77.972C35.0434 77.972 35.2183 78.1469 35.2183 78.4091C35.2183 79.1958 35.2183 80.0699 35.2183 80.8566C35.2183 81.1189 35.0434 81.2937 34.781 81.2937ZM34.781 76.3986C34.5187 76.3986 34.3438 76.2238 34.3438 75.9615C34.3438 75.0874 34.3438 74.3007 34.3438 73.514C34.3438 73.2518 34.5187 73.0769 34.781 73.0769C35.0434 73.0769 35.2183 73.2518 35.2183 73.514C35.2183 74.3007 35.2183 75.1748 35.2183 75.9615C35.2183 76.2238 35.0434 76.3986 34.781 76.3986ZM34.8685 71.4161C34.6061 71.4161 34.4312 71.2413 34.4312 70.979C34.4312 70.1049 34.4312 69.3182 34.4312 68.5315C34.4312 68.2692 34.6061 68.0944 34.8685 68.0944C35.1309 68.0944 35.3058 68.2692 35.3058 68.5315C35.3058 69.3182 35.3058 70.1923 35.3058 70.979C35.2183 71.2413 35.0434 71.4161 34.8685 71.4161ZM34.8685 66.521C34.6061 66.521 34.4312 66.3462 34.4312 66.0839V63.6364C34.4312 63.3741 34.6061 63.1993 34.8685 63.1993C35.1309 63.1993 35.3058 63.3741 35.3058 63.6364V66.0839C35.3058 66.3462 35.1309 66.521 34.8685 66.521ZM34.9559 61.6259C34.6936 61.6259 34.5187 61.4511 34.5187 61.1888C34.5187 60.3147 34.5187 59.528 34.5187 58.7413C34.5187 58.479 34.6936 58.3042 34.9559 58.3042C35.2183 58.3042 35.3932 58.479 35.3932 58.7413C35.3932 59.528 35.3932 60.3147 35.3932 61.1888C35.3932 61.4511 35.2183 61.6259 34.9559 61.6259Z" fill="#FFA500"/>
<path d="M91.0156 237.063C88.7417 236.101 85.5933 235.315 83.1445 235.227L86.8177 233.304L88.3919 229.458C88.7417 231.818 89.8787 234.878 91.0156 237.063Z" fill="#FFA500"/>
<path d="M223.951 232.43L223.426 231.818C275.637 182.08 274.413 97.465 273.976 65.5594V63.6364H274.763V65.5594C275.025 81.5559 275.375 111.276 269.166 142.57C261.644 180.769 246.427 211.014 223.951 232.43Z" fill="#FFA500"/>
<path d="M274.239 58.7412C275.113 61.1014 276.6 63.986 278.262 65.7342L274.326 64.3356L270.391 65.8216C271.965 63.986 273.452 61.1014 274.239 58.7412Z" fill="#FFA500"/>
<path d="M268.115 229.72H267.503C267.241 229.72 267.066 229.895 267.066 230.157V230.769C267.066 231.031 266.891 231.206 266.629 231.206H266.541C266.279 231.206 266.104 231.031 266.104 230.769V230.157C266.104 229.895 265.929 229.72 265.667 229.72H265.054C264.792 229.72 264.617 229.545 264.617 229.283C264.617 229.021 264.792 228.846 265.054 228.846H265.667C265.929 228.846 266.104 228.671 266.104 228.409V227.797C266.104 227.535 266.279 227.36 266.541 227.36H266.629C266.891 227.36 267.066 227.535 267.066 227.797V228.409C267.066 228.671 267.241 228.846 267.503 228.846H268.115C268.378 228.846 268.553 229.021 268.553 229.283C268.553 229.545 268.378 229.72 268.115 229.72Z" fill="#FFA500"/>
</g>
</g>
<defs>
<clipPath id="clip0_2284_4586">
<rect width="327" height="250" fill="white" transform="translate(0.5)"/>
</clipPath>
</defs>
</svg>
