<svg width="328" height="251" viewBox="0 0 328 251" fill="none" xmlns="http://www.w3.org/2000/svg">
<g clip-path="url(#clip0_2284_9487)">
<path d="M233.924 87.4241C183.724 84.4521 154.601 62.0745 154.601 62.0745C154.601 62.0745 125.565 84.4521 75.3654 87.4241C75.3654 109.977 68.8061 207.529 154.601 225.449C240.483 207.529 233.924 109.977 233.924 87.4241Z" fill="#272727"/>
<path d="M256.837 71.078C192.119 67.2319 154.6 38.4731 154.6 38.4731C154.6 38.4731 117.168 67.2319 52.4506 71.078C52.4506 100.099 43.9673 225.886 154.687 249.05C265.32 225.886 256.837 100.186 256.837 71.078ZM154.6 225.449C68.8049 207.442 75.3642 109.977 75.3642 87.4242C125.564 84.4522 154.6 62.0745 154.6 62.0745C154.6 62.0745 183.635 84.3648 233.835 87.3368C233.923 109.977 240.482 207.442 154.6 225.449Z" fill="#FFA500" stroke="#FFA500" stroke-miterlimit="10"/>
<path d="M144.715 178.945L119.002 146.603C115.242 141.882 116.029 135.064 120.752 131.393C125.474 127.634 132.296 128.421 135.969 133.141L148.563 148.963L188.006 119.417C192.816 115.834 199.637 116.795 203.223 121.603C206.809 126.41 205.847 133.229 201.037 136.813L144.715 178.945Z" fill="#FFA500"/>
<g opacity="0.7">
<path d="M312.808 177.634L315.169 175.361C316.044 174.575 316.044 173.176 315.257 172.389L313.07 170.117C312.283 169.242 312.283 167.931 313.158 167.144L313.333 166.97C314.207 166.183 315.519 166.183 316.306 167.057L318.493 169.33C319.28 170.204 320.679 170.204 321.466 169.417L323.827 167.144C324.702 166.358 326.014 166.358 326.801 167.232C327.588 168.106 327.588 169.417 326.714 170.204L324.352 172.477C323.478 173.263 323.478 174.662 324.265 175.449L326.451 177.721C327.238 178.596 327.238 179.907 326.364 180.693L326.189 180.868C325.314 181.655 324.002 181.655 323.215 180.781L321.029 178.508C320.242 177.634 318.842 177.634 318.055 178.421L315.694 180.693C314.819 181.48 313.508 181.48 312.72 180.606C311.933 179.819 311.933 178.421 312.808 177.634Z" fill="#FFA500"/>
<path d="M104.487 26.8473C104.399 26.8473 104.399 26.8473 104.487 26.8473C104.137 26.8473 103.874 26.6725 103.612 26.4977L102.825 25.6235C102.737 25.5361 102.65 25.5361 102.562 25.5361C102.388 25.5361 102.388 25.5361 102.3 25.6235L101.426 26.4102C100.988 26.8473 100.201 26.8473 99.7639 26.4102C99.589 26.148 99.4141 25.8858 99.4141 25.5361C99.4141 25.1865 99.589 24.9242 99.7639 24.7494L100.638 23.9627C100.813 23.7879 100.813 23.613 100.638 23.4382L99.8513 22.5641C99.4141 22.127 99.4141 21.3403 99.8513 20.9032L99.9388 20.8158C100.376 20.3788 101.163 20.3788 101.6 20.8158L102.388 21.69C102.562 21.8648 102.737 21.8648 102.912 21.69L103.787 20.9032C104.049 20.7284 104.312 20.5536 104.661 20.5536C105.011 20.5536 105.274 20.7284 105.449 20.9032C105.623 21.1655 105.798 21.4277 105.798 21.7774C105.798 22.127 105.623 22.3893 105.449 22.5641L104.574 23.3508C104.487 23.4382 104.487 23.5256 104.487 23.613C104.487 23.7005 104.487 23.7879 104.574 23.8753L105.361 24.7494C105.536 25.0116 105.711 25.2739 105.711 25.6235C105.711 25.9732 105.536 26.2354 105.361 26.4102L105.274 26.4977C105.011 26.7599 104.749 26.8473 104.487 26.8473ZM102.562 24.7494C102.912 24.7494 103.175 24.9242 103.437 25.0991L104.224 25.9732C104.312 26.0606 104.399 26.0606 104.487 26.0606C104.574 26.0606 104.661 26.0606 104.749 25.9732L104.836 25.8858C104.924 25.7984 104.924 25.7109 104.924 25.6235C104.924 25.5361 104.924 25.4487 104.836 25.3613L104.049 24.4872C103.874 24.2249 103.699 23.9627 103.699 23.613C103.699 23.2634 103.874 23.0012 104.049 22.8263L104.924 22.0396C105.011 21.9522 105.011 21.8648 105.011 21.7774C105.011 21.69 105.011 21.6025 104.924 21.5151C104.836 21.4277 104.749 21.4277 104.661 21.4277C104.574 21.4277 104.487 21.4277 104.399 21.5151L103.525 22.3018C103.087 22.7389 102.3 22.7389 101.863 22.3018L101.076 21.4277C100.901 21.2529 100.726 21.2529 100.551 21.4277L100.464 21.5151C100.289 21.69 100.289 21.8648 100.464 22.0396L101.251 22.9137C101.688 23.3508 101.688 24.1375 101.251 24.5746L100.376 25.3613C100.289 25.4487 100.289 25.5361 100.289 25.6235C100.289 25.7109 100.289 25.7984 100.376 25.8858C100.464 25.9732 100.551 25.9732 100.638 25.9732C100.726 25.9732 100.813 25.9732 100.901 25.8858L101.775 25.0991C101.95 24.8368 102.213 24.7494 102.562 24.7494Z" fill="#FFA500"/>
<path d="M17.7289 88.4733L14.493 88.3859C13.3561 88.3859 12.3941 89.26 12.3066 90.4838L12.2192 93.6306C12.2192 94.767 11.2572 95.7286 10.0328 95.7286H9.77039C8.63346 95.7286 7.67144 94.767 7.67144 93.5432L7.75889 90.3964C7.75889 89.26 6.88433 88.2985 5.65994 88.2111L2.42404 88.1237C1.37457 88.2111 0.5 87.2495 0.5 86.0258C0.5 84.8894 1.46202 83.9279 2.68641 83.9279L5.92231 84.0153C7.05924 84.0153 8.02126 83.1411 8.10872 81.9174L8.19618 78.7705C8.19618 77.6341 9.1582 76.6726 10.3826 76.6726H10.645C11.7819 76.6726 12.7439 77.6341 12.7439 78.8579L12.6565 82.0048C12.6565 83.1411 13.531 84.1027 14.7554 84.1901L17.9913 84.2775C19.1282 84.2775 20.0903 85.239 20.0903 86.4628C19.8279 87.5992 18.8659 88.5607 17.7289 88.4733Z" fill="#FFA500"/>
<path d="M278.613 11.3753C278.088 11.3753 277.563 11.2879 277.039 11.1131C274.065 10.239 272.316 7.09211 273.19 4.12008C273.628 2.63407 274.59 1.4977 275.902 0.710991C277.213 0.0116902 278.788 -0.163135 280.187 0.273928C283.16 1.14805 284.91 4.29491 284.035 7.26693C283.335 9.71449 281.062 11.3753 278.613 11.3753ZM278.525 0.798404C277.738 0.798404 276.951 0.973229 276.164 1.41029C275.027 2.02218 274.24 3.07113 273.89 4.29491C273.54 5.51868 273.715 6.82987 274.327 7.96624C274.94 9.1026 275.989 9.88931 277.213 10.239C279.75 10.9383 282.461 9.53966 283.248 6.91728C284.035 4.38232 282.548 1.67253 279.925 0.885816C279.487 0.885816 279.05 0.798404 278.525 0.798404Z" fill="#FFA500"/>
<path d="M36.5307 221.34C36.006 221.34 35.4812 221.253 34.9565 221.078C31.983 220.204 30.2338 217.057 31.1084 214.085C31.983 211.113 35.1314 209.365 38.1049 210.239C41.0785 211.113 42.8276 214.26 41.953 217.232C41.5157 218.718 40.5537 219.854 39.2419 220.641C38.3673 221.165 37.4053 221.34 36.5307 221.34ZM36.4433 210.851C34.3443 210.851 32.4203 212.249 31.8081 214.347C31.0209 216.882 32.5077 219.592 35.1314 220.379C36.3558 220.728 37.6676 220.554 38.8046 219.942C39.9415 219.33 40.7286 218.281 41.0785 217.057C41.8656 214.522 40.3788 211.812 37.7551 211.026C37.4053 210.938 36.968 210.851 36.4433 210.851Z" fill="#FFA500"/>
<path d="M87.3424 234.19C87.255 234.19 87.1675 234.19 87.08 234.103C86.8177 233.84 86.5553 233.578 86.2055 233.316C86.0306 233.141 86.0306 232.879 86.2055 232.704C86.3804 232.529 86.6428 232.529 86.8177 232.704C87.08 232.966 87.3424 233.229 87.6048 233.491C87.7797 233.666 87.7797 233.928 87.6048 234.103C87.5173 234.19 87.4299 234.19 87.3424 234.19ZM84.7187 231.743C84.6313 231.743 84.5438 231.742 84.4563 231.655C83.8442 231.043 83.3194 230.519 82.7072 229.907C82.5323 229.732 82.5323 229.47 82.7072 229.295C82.8821 229.12 83.1445 229.12 83.3194 229.295C83.9316 229.907 84.4563 230.431 85.0685 231.043C85.2435 231.218 85.2435 231.48 85.0685 231.655C84.9811 231.742 84.8062 231.743 84.7187 231.743ZM81.2205 228.246C81.133 228.246 81.0455 228.246 80.9581 228.159C80.3459 227.547 79.8211 226.935 79.2964 226.323C79.1215 226.148 79.1215 225.886 79.2964 225.711C79.4713 225.536 79.7337 225.536 79.9086 225.711C80.4333 226.323 81.0455 226.935 81.5703 227.547C81.7452 227.722 81.7452 227.984 81.5703 228.159C81.4828 228.159 81.3954 228.246 81.2205 228.246ZM77.8971 224.575C77.8096 224.575 77.6347 224.487 77.5473 224.4C77.0225 223.788 76.4978 223.176 75.8856 222.564C75.7107 222.389 75.7981 222.127 75.9731 221.952C76.148 221.777 76.4103 221.865 76.5853 222.04C77.11 222.652 77.6347 223.263 78.1595 223.875C78.3344 224.05 78.3344 224.312 78.1595 224.487C78.072 224.575 77.9846 224.575 77.8971 224.575ZM74.7487 220.816C74.6612 220.816 74.4863 220.729 74.3988 220.641C73.8741 220.029 73.3494 219.33 72.8246 218.718C72.6497 218.543 72.7372 218.281 72.9121 218.106C73.087 217.931 73.3494 218.019 73.5243 218.194C74.049 218.805 74.5738 219.505 75.0985 220.117C75.2734 220.291 75.1859 220.554 75.011 220.729C74.9236 220.816 74.8361 220.816 74.7487 220.816ZM71.6877 216.97C71.6002 216.97 71.4253 216.882 71.3379 216.795C70.8131 216.096 70.3758 215.484 69.8511 214.784C69.6762 214.61 69.7636 214.347 69.9386 214.173C70.1135 213.998 70.3758 214.085 70.5508 214.26C71.0755 214.959 71.5128 215.571 72.0375 216.27C72.2124 216.445 72.125 216.708 71.9501 216.882C71.8626 216.97 71.7751 216.97 71.6877 216.97ZM68.8016 213.036C68.7142 213.036 68.5393 212.949 68.4518 212.861C68.0145 212.162 67.4898 211.55 67.0525 210.851C66.965 210.676 66.965 210.414 67.1399 210.239C67.3149 210.152 67.5772 210.152 67.7521 210.326C68.1894 211.026 68.7142 211.638 69.1515 212.337C69.2389 212.512 69.2389 212.774 69.064 212.949C68.8891 212.949 68.8016 213.036 68.8016 213.036ZM66.003 208.928C65.8281 208.928 65.7406 208.84 65.6532 208.753C65.2159 208.054 64.7786 207.354 64.3413 206.655C64.2539 206.48 64.2539 206.218 64.4288 206.131C64.6037 206.043 64.8661 206.043 64.9535 206.218C65.3908 206.917 65.8281 207.617 66.2654 208.316C66.3528 208.491 66.3528 208.753 66.1779 208.928C66.1779 208.928 66.0905 208.928 66.003 208.928ZM63.3793 204.732C63.2044 204.732 63.1169 204.645 63.0295 204.557C62.5922 203.858 62.1549 203.159 61.8051 202.459C61.7176 202.284 61.7176 202.022 61.98 201.935C62.1549 201.847 62.4173 201.847 62.5048 202.11C62.942 202.809 63.3793 203.508 63.7291 204.208C63.8166 204.382 63.8166 204.645 63.5542 204.732C63.4668 204.732 63.4668 204.732 63.3793 204.732ZM60.8431 200.449C60.6682 200.449 60.5807 200.361 60.4933 200.274C60.056 199.575 59.7061 198.875 59.2689 198.089C59.1814 197.914 59.2689 197.652 59.4438 197.564C59.6187 197.477 59.8811 197.564 59.9685 197.739C60.3183 198.438 60.7556 199.138 61.1929 199.924C61.2804 200.099 61.1929 200.361 61.018 200.449C61.018 200.449 60.9305 200.449 60.8431 200.449ZM58.4818 196.166C58.3068 196.166 58.2194 196.078 58.1319 195.903C57.7821 195.204 57.3448 194.417 56.995 193.718C56.9075 193.543 56.995 193.281 57.1699 193.194C57.3448 193.106 57.6072 193.194 57.6946 193.368C58.0445 194.068 58.3943 194.854 58.8316 195.554C58.919 195.729 58.8316 195.991 58.6567 196.078C58.6567 196.166 58.5692 196.166 58.4818 196.166ZM56.2953 191.795C56.1204 191.795 56.033 191.708 55.9455 191.533C55.5957 190.833 55.2459 190.047 54.896 189.347C54.8086 189.173 54.896 188.91 55.0709 188.823C55.2459 188.736 55.5082 188.823 55.5957 188.998C55.9455 189.697 56.2953 190.484 56.6452 191.183C56.7326 191.358 56.6452 191.62 56.4703 191.708C56.4703 191.795 56.3828 191.795 56.2953 191.795ZM54.1964 187.337C54.0215 187.337 53.8466 187.249 53.8466 187.075C53.4967 186.288 53.1469 185.589 52.8845 184.802C52.7971 184.627 52.8845 184.365 53.0594 184.277C53.2344 184.19 53.4967 184.277 53.5842 184.452C53.934 185.239 54.1964 185.938 54.5462 186.725C54.6337 186.9 54.5462 187.162 54.3713 187.249C54.3713 187.337 54.2838 187.337 54.1964 187.337ZM52.2723 182.791C52.0974 182.791 51.9225 182.704 51.9225 182.529C51.5727 181.743 51.3103 181.043 50.9605 180.256C50.873 180.082 50.9605 179.819 51.2229 179.732C51.3978 179.645 51.6601 179.732 51.7476 179.994C52.01 180.781 52.3598 181.48 52.7096 182.267C52.7971 182.442 52.7096 182.704 52.4473 182.791C52.3598 182.791 52.3598 182.791 52.2723 182.791ZM50.4358 178.246C50.2608 178.246 50.0859 178.159 50.0859 177.984C49.8236 177.197 49.4737 176.41 49.2114 175.711C49.1239 175.536 49.2114 175.274 49.4737 175.187C49.6486 175.099 49.911 175.187 49.9985 175.449C50.2608 176.236 50.6107 177.022 50.873 177.722C50.9605 177.896 50.873 178.159 50.6107 178.246C50.6107 178.246 50.5232 178.246 50.4358 178.246ZM48.7741 173.613C48.5992 173.613 48.4243 173.526 48.4243 173.351C48.1619 172.564 47.8995 171.777 47.6371 170.991C47.5497 170.816 47.6371 170.554 47.8995 170.466C48.0744 170.379 48.3368 170.466 48.4243 170.729C48.6866 171.515 48.949 172.302 49.2114 173.089C49.2988 173.263 49.2114 173.526 48.949 173.613C48.8615 173.613 48.7741 173.613 48.7741 173.613ZM47.1999 168.893C47.0249 168.893 46.85 168.805 46.85 168.631C46.5877 167.844 46.3253 167.057 46.0629 166.27C45.9755 166.096 46.1504 165.833 46.3253 165.746C46.5877 165.659 46.7626 165.833 46.85 166.008C47.1124 166.795 47.3748 167.582 47.6371 168.368C47.7246 168.543 47.5497 168.805 47.3748 168.893C47.2873 168.893 47.1999 168.893 47.1999 168.893ZM45.7131 164.26C45.5382 164.26 45.3633 164.173 45.2758 163.998C45.0134 163.211 44.8385 162.424 44.5762 161.638C44.4887 161.463 44.6636 161.201 44.8385 161.113C45.0134 161.026 45.2758 161.201 45.3633 161.375C45.6256 162.162 45.8006 162.949 46.0629 163.736C46.1504 163.91 45.9755 164.173 45.8006 164.26H45.7131ZM44.3138 159.452C44.1389 159.452 43.964 159.365 43.8765 159.19C43.7016 158.403 43.4392 157.617 43.2643 156.83C43.1769 156.568 43.3518 156.393 43.5267 156.305C43.7891 156.218 43.964 156.393 44.0514 156.568C44.2263 157.354 44.4887 158.141 44.6636 158.928C44.7511 159.19 44.5762 159.365 44.4013 159.452C44.4013 159.452 44.4012 159.452 44.3138 159.452ZM43.0894 154.732C42.9145 154.732 42.7396 154.645 42.6521 154.382C42.4772 153.596 42.2148 152.809 42.0399 152.022C41.9525 151.76 42.1274 151.585 42.3023 151.498C42.5647 151.41 42.7396 151.585 42.827 151.76C43.0019 152.547 43.1769 153.333 43.4392 154.12C43.5267 154.382 43.3518 154.557 43.1769 154.645C43.1769 154.732 43.0894 154.732 43.0894 154.732ZM41.9525 149.924C41.7776 149.924 41.6026 149.837 41.5152 149.575C41.3403 148.788 41.1654 148.001 40.9904 147.127C40.903 146.865 41.0779 146.69 41.3403 146.603C41.6026 146.515 41.7776 146.69 41.865 146.952C42.0399 147.739 42.2148 148.526 42.3898 149.4C42.4772 149.662 42.3023 149.837 42.0399 149.924H41.9525ZM40.903 145.117C40.7281 145.117 40.5532 144.942 40.4657 144.767C40.2908 143.98 40.1159 143.194 39.941 142.319C39.8535 142.057 40.0284 141.882 40.2908 141.795C40.5532 141.708 40.7281 141.882 40.8155 142.145C40.9904 142.931 41.1654 143.718 41.3403 144.592C41.3403 144.854 41.1654 145.029 40.903 145.117ZM39.941 140.222C39.7661 140.222 39.5911 140.047 39.5037 139.872C39.3288 139.085 39.2413 138.211 39.0664 137.424C39.0664 137.162 39.1539 136.987 39.4162 136.987C39.5911 136.987 39.8535 137.075 39.8535 137.337C40.0284 138.124 40.1159 138.91 40.2908 139.784C40.3783 139.959 40.2033 140.222 39.941 140.222ZM39.0664 135.414C38.8915 135.414 38.7166 135.239 38.6291 135.064C38.4542 134.277 38.3667 133.403 38.1918 132.617C38.1918 132.354 38.2793 132.18 38.5417 132.18C38.7166 132.18 38.9789 132.267 38.9789 132.529C39.0664 133.316 39.2413 134.19 39.4162 134.977C39.5037 135.152 39.4162 135.326 39.0664 135.414ZM38.2793 130.519C38.1044 130.519 37.9295 130.344 37.842 130.169C37.7546 129.382 37.5796 128.508 37.4922 127.722C37.4922 127.459 37.5796 127.284 37.842 127.284C38.0169 127.284 38.2793 127.372 38.2793 127.634C38.3668 128.421 38.5417 129.295 38.6291 130.082C38.7166 130.256 38.6291 130.519 38.2793 130.519C38.3668 130.519 38.3668 130.519 38.2793 130.519ZM37.6671 125.624C37.4922 125.624 37.3173 125.449 37.2298 125.274C37.1424 124.487 37.0549 123.613 36.88 122.826C36.88 122.564 37.0549 122.389 37.2298 122.389C37.4922 122.389 37.6671 122.564 37.6671 122.739C37.7546 123.526 37.842 124.4 38.0169 125.187C38.1044 125.361 37.9295 125.624 37.6671 125.624ZM37.0549 120.729C36.88 120.729 36.7051 120.554 36.6176 120.379C36.5302 119.592 36.4427 118.718 36.3552 117.931C36.3552 117.669 36.5302 117.494 36.7051 117.494C36.9674 117.494 37.1424 117.669 37.1424 117.844C37.2298 118.631 37.3173 119.505 37.4047 120.291C37.4922 120.466 37.3173 120.729 37.0549 120.729ZM36.5302 115.833C36.3553 115.833 36.1803 115.659 36.0929 115.484C36.0054 114.697 35.918 113.823 35.8305 113.036C35.8305 112.774 36.0054 112.599 36.1803 112.599C36.3552 112.599 36.6176 112.774 36.6176 112.949C36.7051 113.736 36.7925 114.61 36.88 115.396C36.9674 115.571 36.7925 115.833 36.5302 115.833ZM36.0929 110.938C35.918 110.938 35.7431 110.763 35.6556 110.589C35.5681 109.802 35.4807 108.928 35.4807 108.141C35.4807 107.879 35.6556 107.704 35.8305 107.704C36.0929 107.704 36.2678 107.879 36.2678 108.054C36.3553 108.84 36.3552 109.715 36.4427 110.501C36.5302 110.676 36.3553 110.851 36.0929 110.938ZM35.6556 105.956C35.4807 105.956 35.2183 105.781 35.2183 105.606C35.1309 104.819 35.1309 103.945 35.0434 103.159C35.0434 102.896 35.2183 102.722 35.3932 102.722C35.5681 102.722 35.8305 102.896 35.8305 103.071C35.918 103.858 35.918 104.732 36.0054 105.519C36.0929 105.781 35.918 105.956 35.6556 105.956C35.7431 105.956 35.7431 105.956 35.6556 105.956ZM35.3932 101.061C35.2183 101.061 34.9559 100.886 34.9559 100.711C34.8685 99.9243 34.8685 99.0502 34.8685 98.2635C34.8685 98.0012 35.0434 97.8264 35.2183 97.8264C35.3932 97.8264 35.6556 98.0012 35.6556 98.1761C35.6556 98.9628 35.7431 99.8369 35.7431 100.624C35.8305 100.886 35.6556 101.061 35.3932 101.061ZM35.1309 96.1656C34.8685 96.1656 34.6936 95.9907 34.6936 95.7285C34.6936 94.8544 34.6061 94.0677 34.6061 93.281C34.6061 93.0187 34.781 92.8439 35.0434 92.8439C35.3058 92.8439 35.4807 93.0187 35.4807 93.281C35.4807 94.0677 35.5681 94.9418 35.5681 95.7285C35.5681 95.9033 35.3932 96.1656 35.1309 96.1656ZM34.9559 91.1831C34.6936 91.1831 34.5187 91.0082 34.5187 90.746C34.5187 89.8719 34.4312 89.0852 34.4312 88.2984C34.4312 88.0362 34.6061 87.8614 34.8685 87.8614C35.1309 87.8614 35.3058 88.0362 35.3058 88.2984C35.3058 89.0852 35.3058 89.9593 35.3932 90.746C35.3932 91.0082 35.2183 91.1831 34.9559 91.1831ZM34.8685 86.2879C34.6061 86.2879 34.4312 86.1131 34.4312 85.8509C34.4312 84.9768 34.4312 84.19 34.4312 83.4033C34.4312 83.1411 34.6061 82.9663 34.8685 82.9663C35.1309 82.9663 35.3058 83.1411 35.3058 83.4033C35.3058 84.19 35.3058 85.0642 35.3058 85.8509C35.3058 86.1131 35.1309 86.2879 34.8685 86.2879ZM34.781 81.3054C34.5187 81.3054 34.3438 81.1306 34.3438 80.8684C34.3438 79.9942 34.3438 79.2075 34.3438 78.4208C34.3438 78.1586 34.5187 77.9838 34.781 77.9838C35.0434 77.9838 35.2183 78.1586 35.2183 78.4208C35.2183 79.2075 35.2183 80.0817 35.2183 80.8684C35.2183 81.1306 35.0434 81.3054 34.781 81.3054ZM34.781 76.4103C34.5187 76.4103 34.3438 76.2355 34.3438 75.9733C34.3438 75.0991 34.3438 74.3124 34.3438 73.5257C34.3438 73.2635 34.5187 73.0886 34.781 73.0886C35.0434 73.0886 35.2183 73.2635 35.2183 73.5257C35.2183 74.3124 35.2183 75.1866 35.2183 75.9733C35.2183 76.2355 35.0434 76.4103 34.781 76.4103ZM34.8685 71.4278C34.6061 71.4278 34.4312 71.253 34.4312 70.9907C34.4312 70.1166 34.4312 69.3299 34.4312 68.5432C34.4312 68.281 34.6061 68.1061 34.8685 68.1061C35.1309 68.1061 35.3058 68.281 35.3058 68.5432C35.3058 69.3299 35.3058 70.204 35.3058 70.9907C35.2183 71.253 35.0434 71.4278 34.8685 71.4278ZM34.8685 66.5327C34.6061 66.5327 34.4312 66.3579 34.4312 66.0956V63.6481C34.4312 63.3859 34.6061 63.211 34.8685 63.211C35.1309 63.211 35.3058 63.3859 35.3058 63.6481V66.0956C35.3058 66.3579 35.1309 66.5327 34.8685 66.5327ZM34.9559 61.6376C34.6936 61.6376 34.5187 61.4628 34.5187 61.2005C34.5187 60.3264 34.5187 59.5397 34.5187 58.753C34.5187 58.4907 34.6936 58.3159 34.9559 58.3159C35.2183 58.3159 35.3932 58.4907 35.3932 58.753C35.3932 59.5397 35.3932 60.3264 35.3932 61.2005C35.3932 61.4628 35.2183 61.6376 34.9559 61.6376Z" fill="#FFA500"/>
<path d="M91.0156 237.075C88.7417 236.113 85.5933 235.326 83.1445 235.239L86.8177 233.316L88.3919 229.47C88.7417 231.83 89.8787 234.889 91.0156 237.075Z" fill="#FFA500"/>
<path d="M223.951 232.442L223.426 231.83C275.637 182.092 274.413 97.4766 273.976 65.571V63.6479H274.763V65.571C275.025 81.5675 275.375 111.288 269.166 142.582C261.644 180.781 246.427 211.026 223.951 232.442Z" fill="#FFA500"/>
<path d="M274.239 58.7529C275.113 61.1131 276.6 63.9977 278.262 65.7459L274.326 64.3473L270.391 65.8334C271.965 63.9977 273.452 61.1131 274.239 58.7529Z" fill="#FFA500"/>
<path d="M268.115 229.732H267.503C267.241 229.732 267.066 229.907 267.066 230.169V230.781C267.066 231.043 266.891 231.218 266.629 231.218H266.541C266.279 231.218 266.104 231.043 266.104 230.781V230.169C266.104 229.907 265.929 229.732 265.667 229.732H265.054C264.792 229.732 264.617 229.557 264.617 229.295C264.617 229.033 264.792 228.858 265.054 228.858H265.667C265.929 228.858 266.104 228.683 266.104 228.421V227.809C266.104 227.547 266.279 227.372 266.541 227.372H266.629C266.891 227.372 267.066 227.547 267.066 227.809V228.421C267.066 228.683 267.241 228.858 267.503 228.858H268.115C268.378 228.858 268.553 229.033 268.553 229.295C268.553 229.557 268.378 229.732 268.115 229.732Z" fill="#FFA500"/>
</g>
</g>
<defs>
<clipPath id="clip0_2284_9487">
<rect width="327" height="250" fill="white" transform="translate(0.5 0.0117188)"/>
</clipPath>
</defs>
</svg>
