<svg width="72" height="72" viewBox="0 0 72 72" fill="none" xmlns="http://www.w3.org/2000/svg">
<path d="M68.6241 36C68.6241 36 62.9878 34.11 60.2991 29.4863C60.3103 24.1425 64.2478 19.6875 64.2478 19.6875C64.2478 19.6875 58.4203 20.8688 53.7853 18.2025C51.1303 13.5675 52.3003 7.74002 52.3003 7.74002C52.3003 7.74002 47.8453 11.6775 42.5016 11.6888C37.8778 9.00002 35.9878 3.36377 35.9878 3.36377C35.9878 3.36377 34.0978 9.00002 29.4741 11.6888C24.1303 11.6775 19.6753 7.74002 19.6753 7.74002C19.6753 7.74002 20.8566 13.5675 18.1903 18.2025C13.5553 20.8575 7.72781 19.6875 7.72781 19.6875C7.72781 19.6875 11.6653 24.1425 11.6766 29.4863C8.98781 34.11 3.35156 36 3.35156 36C3.35156 36 8.98781 37.89 11.6766 42.5138C11.6653 47.8575 7.72781 52.3125 7.72781 52.3125C7.72781 52.3125 13.5553 51.1313 18.1903 53.7975C20.8453 58.4325 19.6753 64.26 19.6753 64.26C19.6753 64.26 24.1303 60.3225 29.4741 60.3113C34.0978 63 35.9878 68.6363 35.9878 68.6363C35.9878 68.6363 37.8778 63 42.5016 60.3113C47.8453 60.3225 52.3003 64.26 52.3003 64.26C52.3003 64.26 51.1191 58.4325 53.7853 53.7975C58.4203 51.1425 64.2478 52.3125 64.2478 52.3125C64.2478 52.3125 60.3103 47.8575 60.2991 42.5138C62.9878 37.89 68.6241 36 68.6241 36ZM35.9991 56.25C24.8391 56.25 15.7491 47.1713 15.7491 36C15.7491 24.8288 24.8391 15.75 35.9991 15.75C47.1591 15.75 56.2491 24.8288 56.2491 36C56.2491 47.1713 47.1591 56.25 35.9991 56.25Z" fill="#FFCF00"/>
<path d="M36 54C45.9411 54 54 45.9411 54 36C54 26.0589 45.9411 18 36 18C26.0589 18 18 26.0589 18 36C18 45.9411 26.0589 54 36 54Z" fill="#FFCF00"/>
<path d="M49.8375 24.48C47.3737 23.2088 44.5837 22.5 41.625 22.5C31.68 22.5 23.625 30.555 23.625 40.5C23.625 44.8875 25.1888 48.9038 27.7875 52.02C21.9713 49.0388 18 42.9862 18 36C18 26.055 26.055 18 36 18C41.5575 18 46.53 20.52 49.8375 24.48Z" fill="#FFC000"/>
<path d="M18.2466 45.72C16.6603 42.8288 15.7491 39.5213 15.7491 36C15.7491 24.8288 24.8391 15.75 35.9991 15.75C39.0816 15.75 41.9953 16.4587 44.6053 17.6962C47.6878 15.48 50.2978 13.8712 52.1428 12.825C51.8503 10.0012 52.3003 7.75125 52.3003 7.75125C52.3003 7.75125 47.8453 11.6887 42.5016 11.7C37.8778 9.01125 35.9878 3.375 35.9878 3.375C35.9878 3.375 34.0978 9.01125 29.4741 11.7C24.1303 11.6887 19.6753 7.75125 19.6753 7.75125C19.6753 7.75125 20.8566 13.5788 18.1903 18.2138C13.5553 20.8687 7.72781 19.6987 7.72781 19.6987C7.72781 19.6987 11.6653 24.1537 11.6766 29.4975C8.98781 34.1213 3.35156 36.0112 3.35156 36.0112C3.35156 36.0112 8.98781 37.9012 11.6766 42.525C11.6653 47.8687 7.72781 52.3237 7.72781 52.3237C7.72781 52.3237 10.8441 51.6938 14.3316 52.4025C15.5803 50.0738 16.8853 47.8462 18.2241 45.7425L18.2466 45.72Z" fill="#FFC000"/>
</svg>
