<svg width="40" height="40" viewBox="0 0 40 40" fill="none" xmlns="http://www.w3.org/2000/svg">
<g clip-path="url(#clip0_2337_2951)">
<path d="M28.6682 30.4558C28.4814 28.2949 27.4973 26.2923 25.8972 24.8168C24.2871 23.3327 22.1939 22.5151 20.0027 22.5151C15.6036 22.5151 11.8912 25.8046 11.3672 30.1665L28.6682 30.4558Z" fill="#FFE45C"/>
<path d="M40 32.1465C37.8427 32.1465 36.7487 31.8474 35.6909 31.5581C34.7403 31.2981 33.8425 31.0527 31.9998 31.0527C30.1569 31.0527 29.259 31.2981 28.3087 31.5581C27.2507 31.8474 26.1569 32.1465 23.9993 32.1465C21.842 32.1465 20.7483 31.8474 19.6902 31.5581C18.7399 31.2981 17.8421 31.0527 15.9995 31.0527C14.1568 31.0527 13.2593 31.2981 12.3087 31.5581C11.2509 31.8474 10.1572 32.1465 7.99988 32.1465C5.84259 32.1465 4.74854 31.8474 3.6908 31.5581C2.74017 31.2981 1.84265 31.0527 0 31.0527V28.709C2.15729 28.709 3.25104 29.0081 4.30908 29.2974C5.2594 29.5571 6.15723 29.8027 7.99988 29.8027C9.84222 29.8027 10.7401 29.5571 11.6907 29.2974C12.7484 29.0081 13.8422 28.709 15.9995 28.709C18.1567 28.709 19.2505 29.0081 20.3085 29.2974C21.2589 29.5571 22.1567 29.8027 23.9993 29.8027C25.842 29.8027 26.7398 29.5571 27.6904 29.2974C28.7485 29.0081 29.8422 28.709 31.9998 28.709C34.1571 28.709 35.2512 29.0081 36.3089 29.2974C37.2595 29.5571 38.1573 29.8027 40 29.8027V32.1465Z" fill="#80DBFF"/>
<path d="M18.8281 14.8853H21.1719V19.5413H18.8281V14.8853Z" fill="#FFBC36"/>
<path d="M7.625 20.4968L9.28241 18.8394L12.8386 22.3959L11.1815 24.053L7.625 20.4968Z" fill="#FFBC36"/>
<path d="M27.1602 22.3959L30.7164 18.8394L32.3738 20.4968L28.8173 24.0533L27.1602 22.3959Z" fill="#FF9500"/>
<path d="M40 38.0537C37.8427 38.0537 36.7487 37.7546 35.6909 37.4653C34.7403 37.2056 33.8425 36.96 31.9998 36.96C30.1569 36.96 29.259 37.2056 28.3087 37.4653C27.2507 37.7546 26.1569 38.0537 23.9993 38.0537C21.842 38.0537 20.7483 37.7546 19.6902 37.4653C18.7399 37.2056 17.8421 36.96 15.9995 36.96C14.1568 36.96 13.2593 37.2056 12.3087 37.4653C11.2509 37.7546 10.1572 38.0537 7.99988 38.0537C5.84259 38.0537 4.74854 37.7546 3.6908 37.4653C2.74017 37.2056 1.84265 36.96 0 36.96V34.6162C2.15729 34.6162 3.25104 34.9153 4.30908 35.2046C5.2594 35.4643 6.15723 35.71 7.99988 35.71C9.84222 35.71 10.7401 35.4643 11.6907 35.2046C12.7484 34.9153 13.8422 34.6162 15.9995 34.6162C18.1567 34.6162 19.2505 34.9153 20.3085 35.2046C21.2589 35.4643 22.1567 35.71 23.9993 35.71C25.842 35.71 26.7398 35.4643 27.6904 35.2046C28.7485 34.9153 29.8422 34.6162 31.9998 34.6162C34.1571 34.6162 35.2512 34.9153 36.3089 35.2046C37.2595 35.4643 38.1573 35.71 40 35.71V38.0537Z" fill="#80DBFF"/>
<path d="M24.7957 7.31836L19.9309 1.87646L15.0664 7.31836L16.8138 8.88025L18.759 6.70404V11.9164H21.1028V6.70435L23.0483 8.88055L24.7957 7.31836Z" fill="#FF636E"/>
<path d="M19.9336 1.87646V11.9164H21.1055V6.70435L23.051 8.88055L24.7984 7.31836L19.9336 1.87646Z" fill="#F03049"/>
<path d="M19.9336 14.8853H21.1747V19.5413H19.9336V14.8853Z" fill="#FF9500"/>
<path d="M19.9336 30.3099L28.6683 30.4558C28.4816 28.2949 27.4974 26.2923 25.8973 24.8168C24.2872 23.3327 22.194 22.5151 20.0029 22.5151C19.9797 22.5151 19.9568 22.5157 19.9336 22.5161V30.3099Z" fill="#FFBC36"/>
<path d="M36.3079 29.2988C35.2501 29.0095 34.1561 28.7104 31.9988 28.7104C29.8412 28.7104 28.7474 29.0095 27.6894 29.2988C26.7388 29.5585 25.8409 29.8042 23.9983 29.8042C22.1556 29.8042 21.2578 29.5585 20.3075 29.2988C20.1827 29.2646 20.0573 29.2305 19.9297 29.1966V31.6249C20.9182 31.8922 22.0037 32.1479 23.9983 32.1479C26.1559 32.1479 27.2496 31.8489 28.3077 31.5596C29.258 31.2999 30.1558 31.0542 31.9988 31.0542C33.8414 31.0542 34.7393 31.2999 35.6899 31.5596C36.7476 31.8489 37.8417 32.1479 39.999 32.1479V29.8042C38.1563 29.8042 37.2585 29.5585 36.3079 29.2988Z" fill="#14BFF4"/>
<path d="M36.3079 35.2061C35.2501 34.9167 34.1561 34.6177 31.9988 34.6177C29.8412 34.6177 28.7474 34.9167 27.6894 35.2061C26.7388 35.4658 25.8409 35.7114 23.9983 35.7114C22.1556 35.7114 21.2578 35.4658 20.3075 35.2061C20.1827 35.1719 20.0573 35.1377 19.9297 35.1035V37.5321C20.9182 37.7994 22.0037 38.0552 23.9983 38.0552C26.1559 38.0552 27.2496 37.7561 28.3077 37.4668C29.258 37.2071 30.1558 36.9614 31.9988 36.9614C33.8414 36.9614 34.7393 37.2071 35.6899 37.4668C36.7476 37.7561 37.8417 38.0552 39.999 38.0552V35.7114C38.1563 35.7114 37.2585 35.4658 36.3079 35.2061Z" fill="#14BFF4"/>
</g>
<defs>
<clipPath id="clip0_2337_2951">
<rect width="40" height="40" fill="white"/>
</clipPath>
</defs>
</svg>
