<svg width="41" height="40" viewBox="0 0 41 40" fill="none" xmlns="http://www.w3.org/2000/svg">
<g clip-path="url(#clip0_2337_2970)">
<path d="M29.1682 30.6121C28.9814 28.4511 27.9973 26.4485 26.3972 24.973C24.7871 23.489 22.6939 22.6714 20.5027 22.6714C16.1036 22.6714 12.3912 25.9609 11.8672 30.3228L29.1682 30.6121Z" fill="#FFE45C"/>
<path d="M40.5 32.3027C38.3427 32.3027 37.2487 32.0037 36.1909 31.7144C35.2403 31.4543 34.3425 31.209 32.4998 31.209C30.6569 31.209 29.759 31.4543 28.8087 31.7144C27.7507 32.0037 26.6569 32.3027 24.4993 32.3027C22.342 32.3027 21.2483 32.0037 20.1902 31.7144C19.2399 31.4543 18.3421 31.209 16.4995 31.209C14.6568 31.209 13.7593 31.4543 12.8087 31.7144C11.7509 32.0037 10.6572 32.3027 8.49988 32.3027C6.34259 32.3027 5.24854 32.0037 4.1908 31.7144C3.24017 31.4543 2.34265 31.209 0.5 31.209V28.8652C2.65729 28.8652 3.75104 29.1643 4.80908 29.4536C5.7594 29.7133 6.65723 29.959 8.49988 29.959C10.3422 29.959 11.2401 29.7133 12.1907 29.4536C13.2484 29.1643 14.3422 28.8652 16.4995 28.8652C18.6567 28.8652 19.7505 29.1643 20.8085 29.4536C21.7589 29.7133 22.6567 29.959 24.4993 29.959C26.342 29.959 27.2398 29.7133 28.1904 29.4536C29.2485 29.1643 30.3422 28.8652 32.4998 28.8652C34.6571 28.8652 35.7512 29.1643 36.8089 29.4536C37.7595 29.7133 38.6573 29.959 40.5 29.959V32.3027Z" fill="#80DBFF"/>
<path d="M19.3281 15.0415H21.6719V19.6976H19.3281V15.0415Z" fill="#FFBC36"/>
<path d="M8.125 20.653L9.78241 18.9956L13.3386 22.5521L11.6815 24.2092L8.125 20.653Z" fill="#FFBC36"/>
<path d="M27.6602 22.5521L31.2164 18.9956L32.8738 20.653L29.3173 24.2095L27.6602 22.5521Z" fill="#FF9500"/>
<path d="M40.5 38.21C38.3427 38.21 37.2487 37.9109 36.1909 37.6216C35.2403 37.3619 34.3425 37.1162 32.4998 37.1162C30.6569 37.1162 29.759 37.3619 28.8087 37.6216C27.7507 37.9109 26.6569 38.21 24.4993 38.21C22.342 38.21 21.2483 37.9109 20.1902 37.6216C19.2399 37.3619 18.3421 37.1162 16.4995 37.1162C14.6568 37.1162 13.7593 37.3619 12.8087 37.6216C11.7509 37.9109 10.6572 38.21 8.49988 38.21C6.34259 38.21 5.24854 37.9109 4.1908 37.6216C3.24017 37.3619 2.34265 37.1162 0.5 37.1162V34.7725C2.65729 34.7725 3.75104 35.0715 4.80908 35.3608C5.7594 35.6205 6.65723 35.8662 8.49988 35.8662C10.3422 35.8662 11.2401 35.6205 12.1907 35.3608C13.2484 35.0715 14.3422 34.7725 16.4995 34.7725C18.6567 34.7725 19.7505 35.0715 20.8085 35.3608C21.7589 35.6205 22.6567 35.8662 24.4993 35.8662C26.342 35.8662 27.2398 35.6205 28.1904 35.3608C29.2485 35.0715 30.3422 34.7725 32.4998 34.7725C34.6571 34.7725 35.7512 35.0715 36.8089 35.3608C37.7595 35.6205 38.6573 35.8662 40.5 35.8662V38.21Z" fill="#80DBFF"/>
<path d="M20.4336 15.0415H21.6747V19.6976H20.4336V15.0415Z" fill="#FF9500"/>
<path d="M20.4336 30.4662L29.1683 30.6121C28.9816 28.4511 27.9974 26.4485 26.3973 24.973C24.7872 23.489 22.694 22.6714 20.5029 22.6714C20.4797 22.6714 20.4568 22.672 20.4336 22.6723V30.4662Z" fill="#FFBC36"/>
<path d="M36.8118 29.4536C35.754 29.1643 34.66 28.8652 32.5027 28.8652C30.3451 28.8652 29.2513 29.1643 28.1933 29.4536C27.2427 29.7133 26.3448 29.959 24.5022 29.959C22.6595 29.959 21.7617 29.7133 20.8114 29.4536C20.6866 29.4194 20.5612 29.3853 20.4336 29.3514V31.7797C21.4221 32.047 22.5076 32.3027 24.5022 32.3027C26.6598 32.3027 27.7535 32.0037 28.8116 31.7144C29.7619 31.4547 30.6597 31.209 32.5027 31.209C34.3453 31.209 35.2432 31.4547 36.1938 31.7144C37.2515 32.0037 38.3456 32.3027 40.5029 32.3027V29.959C38.6602 29.959 37.7624 29.7133 36.8118 29.4536Z" fill="#14BFF4"/>
<path d="M15.5664 6.39612L20.4312 11.8383L25.2957 6.39642L23.5483 4.83453L21.6028 7.01074V1.79834H19.259V7.01044L17.3138 4.83423L15.5664 6.39612Z" fill="#FF636E"/>
<path d="M20.4312 11.8383V1.79834H19.259V7.01044L17.3138 4.83423L15.5664 6.39612L20.4312 11.8383Z" fill="#F03049"/>
<path d="M36.8118 35.3608C35.754 35.0715 34.66 34.7725 32.5027 34.7725C30.3451 34.7725 29.2513 35.0715 28.1933 35.3608C27.2427 35.6205 26.3448 35.8662 24.5022 35.8662C22.6595 35.8662 21.7617 35.6205 20.8114 35.3608C20.6866 35.3267 20.5612 35.2925 20.4336 35.2583V37.6869C21.4221 37.9542 22.5076 38.21 24.5022 38.21C26.6598 38.21 27.7535 37.9109 28.8116 37.6216C29.7619 37.3619 30.6597 37.1162 32.5027 37.1162C34.3453 37.1162 35.2432 37.3619 36.1938 37.6216C37.2515 37.9109 38.3456 38.21 40.5029 38.21V35.8662C38.6602 35.8662 37.7624 35.6205 36.8118 35.3608Z" fill="#14BFF4"/>
</g>
<defs>
<clipPath id="clip0_2337_2970">
<rect width="40" height="40" fill="white" transform="translate(0.5)"/>
</clipPath>
</defs>
</svg>
