<svg width="82" height="112" viewBox="0 0 82 112" fill="none" xmlns="http://www.w3.org/2000/svg">
<path d="M56.3735 27.0046H76.2178C76.2178 26.3139 76.1429 25.6405 76.0007 24.9925C75.6361 23.3293 74.8287 21.8319 73.7082 20.63C73.6331 20.5495 73.5567 20.4703 73.4788 20.3924C71.7867 18.7002 69.4487 17.6536 66.8665 17.6536H14.8982C11.4895 17.6536 8.5065 19.4773 6.87251 22.2026C6.03077 23.6062 5.54688 25.2488 5.54688 27.0046H33.4846H56.3735Z" fill="#FFEECF"/>
<path d="M48.4715 11.8174H49.4074V8.22846C49.4074 6.5898 48.5614 5.14839 47.2825 4.31739C46.5525 3.84307 45.6816 3.56763 44.7465 3.56763H43.6903H37.028C34.454 3.56763 32.3672 5.65446 32.3672 8.22846V11.8174H32.7115H48.4715Z" fill="#FFEECF"/>
<path d="M11.125 32.8411L11.2809 35.1478L12.0998 47.2552L13.6439 70.0907L15.1217 91.9464L15.122 91.9497C15.3236 95.1974 17.3208 97.9411 20.1082 99.2345C21.2095 99.7459 22.4343 100.031 23.7202 100.031H37.2135H58.0387C60.5538 100.031 62.8347 98.9413 64.4171 97.199C65.6906 95.7965 66.5114 93.9707 66.637 91.9497L66.6374 91.9434L69.7992 45.1821L70.6337 32.8411H33.7809L11.125 32.8411ZM53.7355 91.5512L57.2707 45.1742V45.1732L57.5982 40.8763C57.6575 40.0983 58.0163 39.3899 58.6083 38.8815C58.8583 38.6667 59.1372 38.4986 59.4348 38.3805C59.7826 38.2426 60.1556 38.1728 60.5373 38.1767C60.6024 38.1772 60.668 38.18 60.7336 38.1851C61.5116 38.2444 62.2201 38.6032 62.7285 39.1954C62.8165 39.2979 62.8965 39.4048 62.9684 39.5164L62.9687 39.5166C63.3132 40.0493 63.4738 40.677 63.4248 41.3205L63.1199 45.3194V45.3196L61.3802 68.139V68.1418L60.5046 79.6273V79.6289L59.5926 91.5935V91.5937L59.562 91.9954C59.5058 92.7344 59.1748 93.4179 58.6302 93.9205C58.0889 94.42 57.3858 94.695 56.6507 94.695C56.5765 94.695 56.5011 94.6922 56.4266 94.6866C54.8204 94.564 53.6131 93.1576 53.7355 91.5512ZM37.9577 41.025C37.9577 39.4139 39.2683 38.1032 40.8795 38.1032C41.7929 38.1032 42.6094 38.5246 43.1456 39.1826L43.1458 39.1828C43.5555 39.6859 43.8013 40.3273 43.8013 41.025V91.8467C43.8013 92.2473 43.7203 92.6294 43.5737 92.9773C43.1309 94.0286 42.09 94.7686 40.8795 94.7686C39.2683 94.7686 37.9577 93.4579 37.9577 91.8467V41.025ZM25.3323 94.6866C25.2581 94.6922 25.1827 94.695 25.1082 94.695C24.3731 94.695 23.6701 94.42 23.1287 93.9205C22.5842 93.4181 22.2532 92.7344 22.1969 91.9954L18.7366 46.6013V46.6004L18.3342 41.3205C18.3307 41.2757 18.3283 41.2311 18.3269 41.1863V41.1861C18.3043 40.4557 18.5515 39.7535 19.0305 39.1954C19.5389 38.6032 20.2473 38.2444 21.0253 38.1851C22.632 38.063 24.0382 39.2701 24.1607 40.8763L24.5405 45.8588V45.8593L26.2802 68.6819V68.6821L27.1558 80.1674V80.1684L28.0235 91.5512C28.0851 92.3614 27.8085 93.1207 27.3129 93.6901C26.8265 94.2496 26.1283 94.6259 25.3323 94.6866Z" fill="#FFEECF"/>
<path d="M76.7622 24.9081L76.5241 22.586C76.3633 21.0176 75.8997 19.5267 75.1458 18.1542C74.4182 16.8297 73.4529 15.6726 72.2767 14.7153C71.1005 13.7578 69.7718 13.0475 68.3271 12.6037C66.8304 12.1441 65.2762 11.9924 63.7078 12.1532L12.0106 17.4532C10.4424 17.614 8.95126 18.0778 7.57871 18.8316C6.25425 19.5591 5.09738 20.5246 4.13987 21.7006C3.18235 22.8768 2.47203 24.2057 2.02829 25.6502C1.56867 27.1472 1.41694 28.7013 1.57777 30.2695L1.81587 32.5916L4.138 32.3535L56.3705 26.9987H33.4816L3.8999 30.0314C3.58711 26.9824 4.77666 24.1254 6.86956 22.1966C8.30304 20.8754 10.1602 19.9896 12.2487 19.7753L33.0026 17.6476L63.9459 14.4753C68.3159 14.0272 72.2907 16.6644 73.7053 20.624C74.8257 21.826 75.6331 23.3234 75.9978 24.9866L76.7622 24.9081Z" fill="#FFA500"/>
<path d="M26.7078 12.4309L26.9459 14.7531L29.2681 14.515L46.2193 12.7771L48.5414 12.539L48.4672 11.8159H32.7071L29.03 12.1928L28.664 8.62281C28.4016 6.06212 30.2646 3.77336 32.8253 3.51099L40.5034 2.72364C41.6777 2.6032 42.7952 2.92999 43.6859 3.56608H44.7422C45.6773 3.56608 46.5482 3.84152 47.2781 4.31585C47.2256 4.2073 47.1703 4.09993 47.1119 3.99372C46.6763 3.20077 46.0986 2.50819 45.3948 1.93536C44.691 1.36253 43.8958 0.937228 43.0309 0.671588C42.1341 0.396378 41.2037 0.30534 40.2653 0.401745L32.5872 1.18886C31.6488 1.28503 30.7562 1.56281 29.934 2.01449C29.1411 2.45007 28.4485 3.02756 27.8757 3.73135C27.3026 4.43513 26.8775 5.23065 26.6119 6.09549C26.3365 6.99209 26.2457 7.92253 26.3418 8.8609L26.7078 12.4309Z" fill="#FFA500"/>
<path d="M71.5084 26.9993L71.4953 26.6223L67.8181 26.9993L7.32812 33.2008L13.6475 70.0845L17.7525 94.0449C18.0723 95.973 18.8895 97.7521 20.1117 99.2283C20.6379 99.8642 21.2392 100.444 21.9082 100.955C24.1311 102.652 26.8879 103.43 29.6706 103.145L63.81 99.6448C66.5924 99.3595 69.134 98.0386 70.9664 95.9249C72.7981 93.8121 73.7453 91.11 73.6337 88.3159L71.5084 26.9993ZM64.4206 97.1928C62.8382 98.9352 60.5574 100.025 58.0422 100.025H37.217L29.4325 100.823C27.8055 100.99 26.2301 100.688 24.8456 100.025C22.3865 98.8462 20.5296 96.5264 20.0548 93.6609L20.0543 93.6576L12.1033 47.2491L10.0506 35.2682L11.2845 35.1417L11.1285 32.835H33.7845L69.2491 29.1991L69.3751 32.835L69.8028 45.176L71.3009 88.4006L71.3011 88.4071C71.4717 92.6545 68.5063 96.3583 64.4206 97.1928Z" fill="#FFA500"/>
<path d="M43.3908 40.0821C43.2265 38.4795 41.789 37.3093 40.1864 37.4736C38.5838 37.638 37.4136 39.0754 37.5779 40.6781L42.761 91.2349C42.9253 92.8375 44.3628 94.0077 45.9654 93.8434C47.568 93.6791 48.7382 92.2416 48.5739 90.639L43.3908 40.0821ZM45.7274 91.5213C45.4051 91.5543 45.1161 91.319 45.0831 90.9968L39.9 40.44C39.867 40.1178 40.1022 39.8288 40.4244 39.7957C40.7467 39.7627 41.0357 39.998 41.0687 40.3202L46.2518 90.877C46.2849 91.1992 46.0496 91.4883 45.7274 91.5213Z" fill="#FFA500"/>
<path d="M27.1586 80.1627V80.1617L20.3834 42.5546C20.3458 42.3464 20.4273 42.19 20.4791 42.1153C20.5309 42.0408 20.649 41.9098 20.8573 41.8725C20.8722 41.8697 20.8871 41.8676 20.9018 41.8662C21.2041 41.8352 21.4849 42.0424 21.5396 42.3464L26.283 68.6762L24.5433 45.8536V45.8531L23.837 41.9325C23.5512 40.3471 22.0293 39.2896 20.4434 39.5751C19.6754 39.7135 19.0074 40.1426 18.562 40.7836C18.4735 40.9108 18.396 41.0436 18.3297 41.1804V41.1806C18.0617 41.7327 17.9754 42.3531 18.086 42.9684L18.7394 46.5947V46.5957L27.0968 92.9851C27.1406 93.229 27.2144 93.4636 27.3157 93.6844C27.8113 93.115 28.0879 92.3557 28.0263 91.5455L27.1586 80.1627Z" fill="#FFA500"/>
<path d="M63.1226 45.3199V45.3196L62.9714 39.5169L62.9712 39.5166C62.8993 39.4051 62.8192 39.2981 62.7312 39.1957C62.2228 38.6035 61.5143 38.2447 60.7363 38.1854C60.6707 38.1803 60.6051 38.1775 60.54 38.177C60.5764 38.2454 60.6051 38.3318 60.6079 38.4368L61.3829 68.1392V68.142L61.9336 89.2412C61.9415 89.5466 61.7106 89.8099 61.4081 89.8409C61.393 89.8423 61.3773 89.8435 61.3617 89.8437C61.0379 89.8523 60.7676 89.5958 60.759 89.2718L60.5073 79.6292V79.6276L59.4336 38.4674C59.4329 38.437 59.4343 38.4081 59.4375 38.3808C59.1399 38.4989 58.861 38.667 58.611 38.8817C58.019 39.3901 57.6602 40.0986 57.6009 40.8766L57.2734 45.1735V45.1744L58.4256 89.3327C58.4499 90.2599 58.9056 91.0762 59.5953 91.5937V91.5939C60.1035 91.9756 60.7391 92.195 61.4224 92.1773C61.4971 92.1754 61.5722 92.1705 61.6462 92.163C62.3773 92.0879 63.0486 91.7426 63.5363 91.1903C64.0269 90.635 64.2863 89.9212 64.2669 89.1803L63.1226 45.3199Z" fill="#FFA500"/>
<path d="M1.79578 67.5782L0.244941 69.129C-0.0816469 69.4556 -0.0816469 69.9851 0.244941 70.3117C0.571528 70.6383 1.10103 70.6383 1.42764 70.3117L2.97849 68.7609C3.30507 68.4343 3.30507 67.9048 2.97849 67.5782C2.6519 67.2516 2.12239 67.2516 1.79578 67.5782Z" fill="#FFA500"/>
<path d="M8.36609 61.0001L6.81525 62.5509C6.48867 62.8775 6.48867 63.407 6.81525 63.7336C7.14184 64.0602 7.67135 64.0602 7.99796 63.7336L9.5488 62.1828C9.87539 61.8562 9.87539 61.3267 9.5488 61.0001C9.22221 60.6735 8.69268 60.6735 8.36609 61.0001Z" fill="#FFA500"/>
<path d="M7.99797 67.5782C7.67138 67.2516 7.14187 67.2516 6.81526 67.5782C6.48865 67.9048 6.48867 68.4343 6.81526 68.7609L8.3661 70.3117C8.69269 70.6383 9.2222 70.6383 9.54881 70.3117C9.87542 69.9852 9.87539 69.4556 9.54881 69.129L7.99797 67.5782Z" fill="#FFA500"/>
<path d="M1.42765 61.0001C1.10107 60.6735 0.57156 60.6735 0.244949 61.0001C-0.0816615 61.3267 -0.0816381 61.8562 0.244949 62.1828L1.79579 63.7336C2.12238 64.0602 2.65188 64.0602 2.97849 63.7336C3.30511 63.407 3.30508 62.8775 2.97849 62.5509L1.42765 61.0001Z" fill="#FFA500"/>
<path d="M28.37 109.53L27.2746 110.625C27.0439 110.856 27.0439 111.23 27.2746 111.461C27.5053 111.691 27.8793 111.691 28.11 111.461L29.2054 110.365C29.4361 110.134 29.4361 109.76 29.2054 109.53C28.9747 109.299 28.6007 109.299 28.37 109.53Z" fill="#FFA500"/>
<path d="M33.0107 104.889L31.9152 105.985C31.6845 106.215 31.6845 106.589 31.9152 106.82C32.1459 107.051 32.5199 107.051 32.7506 106.82L33.8461 105.724C34.0768 105.494 34.0768 105.12 33.8461 104.889C33.6154 104.658 33.2414 104.658 33.0107 104.889Z" fill="#FFA500"/>
<path d="M32.7506 109.53C32.5199 109.299 32.1459 109.299 31.9152 109.53C31.6845 109.76 31.6845 110.134 31.9152 110.365L33.0107 111.461C33.2414 111.691 33.6154 111.691 33.8461 111.461C34.0768 111.23 34.0768 110.856 33.8461 110.625L32.7506 109.53Z" fill="#FFA500"/>
<path d="M28.11 104.889C27.8793 104.658 27.5053 104.658 27.2746 104.889C27.0439 105.12 27.0439 105.494 27.2746 105.724L28.37 106.82C28.6007 107.051 28.9747 107.051 29.2054 106.82C29.4361 106.589 29.4361 106.215 29.2054 105.985L28.11 104.889Z" fill="#FFA500"/>
<path d="M73.7663 14.2418L74.8617 13.1464C75.0924 12.9157 75.0924 12.5417 74.8617 12.311C74.631 12.0803 74.257 12.0803 74.0263 12.311L72.9308 13.4064C72.7001 13.6371 72.7001 14.0111 72.9308 14.2418C73.1616 14.4725 73.5356 14.4725 73.7663 14.2418Z" fill="#FFA500"/>
<path d="M78.6669 7.67034L77.5715 8.76579C77.3408 8.99648 77.3408 9.3705 77.5715 9.6012C77.8022 9.83189 78.1762 9.83189 78.4069 9.6012L79.5023 8.50575C79.733 8.27505 79.733 7.90103 79.5023 7.67034C79.2717 7.43964 78.8976 7.43964 78.6669 7.67034Z" fill="#FFA500"/>
<path d="M78.4069 12.311C78.1762 12.0803 77.8022 12.0803 77.5715 12.311C77.3408 12.5417 77.3408 12.9157 77.5715 13.1464L78.6669 14.2418C78.8976 14.4725 79.2717 14.4725 79.5023 14.2418C79.733 14.0111 79.733 13.6371 79.5023 13.4064L78.4069 12.311Z" fill="#FFA500"/>
<path d="M74.0263 9.6012C74.257 9.83189 74.631 9.83189 74.8617 9.6012C75.0924 9.3705 75.0924 8.99648 74.8617 8.76579L73.7663 7.67034C73.5356 7.43964 73.1616 7.43964 72.9308 7.67034C72.7001 7.90103 72.7001 8.27505 72.9308 8.50575L74.0263 9.6012Z" fill="#FFA500"/>
<path d="M76.3466 75.3735L75.2511 76.4689C75.0205 76.6996 75.0205 77.0736 75.2511 77.3043C75.4818 77.535 75.8559 77.535 76.0866 77.3043L77.182 76.2089C77.4127 75.9782 77.4127 75.6042 77.182 75.3735C76.9513 75.1428 76.5773 75.1428 76.3466 75.3735Z" fill="#FFA500"/>
<path d="M80.735 72.6637L81.8305 71.5682C82.0612 71.3376 82.0612 70.9635 81.8305 70.7328C81.5998 70.5021 81.2258 70.5021 80.9951 70.7328L79.8996 71.8283C79.6689 72.059 79.6689 72.433 79.8996 72.6637C80.1303 72.8944 80.5043 72.8944 80.735 72.6637Z" fill="#FFA500"/>
<path d="M80.735 75.3735C80.5043 75.1428 80.1303 75.1428 79.8996 75.3735C79.6689 75.6042 79.6689 75.9782 79.8996 76.2089L80.9951 77.3044C81.2258 77.535 81.5998 77.535 81.8305 77.3044C82.0612 77.0737 82.0612 76.6996 81.8305 76.4689L80.735 75.3735Z" fill="#FFA500"/>
<path d="M76.0866 70.7328C75.8559 70.5021 75.4818 70.5021 75.2511 70.7328C75.0205 70.9635 75.0205 71.3376 75.2511 71.5682L76.3466 72.6637C76.5773 72.8944 76.9513 72.8944 77.182 72.6637C77.4127 72.433 77.4127 72.059 77.182 71.8283L76.0866 70.7328Z" fill="#FFA500"/>
<path d="M15.5866 11.9215L16.682 10.8261C16.9127 10.5954 16.9127 10.2213 16.682 9.99065C16.4513 9.75995 16.0773 9.75995 15.8466 9.99065L14.7511 11.0861C14.5205 11.3168 14.5205 11.6908 14.7511 11.9215C14.9818 12.1522 15.3559 12.1522 15.5866 11.9215Z" fill="#FFA500"/>
<path d="M20.235 7.28091L21.3304 6.18544C21.5611 5.95474 21.5611 5.58072 21.3304 5.35002C21.0997 5.11933 20.7257 5.11933 20.495 5.35002L19.3996 6.4455C19.1689 6.67619 19.1689 7.05021 19.3996 7.28091C19.6303 7.5116 20.0043 7.5116 20.235 7.28091Z" fill="#FFA500"/>
<path d="M20.495 11.9215C20.7257 12.1522 21.0997 12.1522 21.3304 11.9215C21.5611 11.6908 21.5611 11.3168 21.3304 11.0861L20.235 9.99065C20.0043 9.75995 19.6303 9.75995 19.3996 9.99065C19.1689 10.2213 19.1689 10.5954 19.3996 10.8261L20.495 11.9215Z" fill="#FFA500"/>
<path d="M15.8466 7.28088C16.0773 7.51158 16.4513 7.51158 16.682 7.28088C16.9127 7.05019 16.9127 6.67617 16.682 6.44547L15.5866 5.35002C15.3559 5.11933 14.9818 5.11933 14.7511 5.35002C14.5205 5.58072 14.5205 5.95474 14.7511 6.18543L15.8466 7.28088Z" fill="#FFA500"/>
<path d="M5.14686 42.8733C5.5378 42.8043 5.87875 42.5874 6.10687 42.2625C6.33495 41.9376 6.42323 41.5434 6.35547 41.1524L6.35456 41.1472L6.1909 40.2201C6.04777 39.4113 5.27363 38.8696 4.46523 39.0123C4.07429 39.0813 3.73334 39.2983 3.50521 39.6232C3.27713 39.948 3.18885 40.3423 3.25661 40.7333L3.25752 40.7385L3.42118 41.6655C3.43712 41.7558 3.46137 41.8448 3.49328 41.9299C3.74466 42.6013 4.44011 42.9981 5.14686 42.8733Z" fill="#FFA500"/>
<path d="M2.55369 36.7596C2.56961 36.8497 2.59387 36.9386 2.62575 37.0238C2.87718 37.6954 3.57263 38.0921 4.27938 37.9674C4.67032 37.8983 5.01126 37.6814 5.23939 37.3565C5.46747 37.0317 5.55575 36.6374 5.48799 36.2464L5.48708 36.2412L5.32345 35.3141C5.25428 34.9224 5.0367 34.581 4.71077 34.3529C4.38481 34.1247 3.98953 34.0372 3.59774 34.1063C2.79153 34.2486 2.24935 35.0207 2.38915 35.8273L2.39007 35.8325L2.55369 36.7596Z" fill="#FFA500"/>
<path d="M7.67783 57.6155C8.06877 57.5465 8.40971 57.3296 8.63784 57.0047C8.86592 56.6798 8.9542 56.2856 8.88644 55.8945L8.88553 55.8893L8.72187 54.9623C8.57874 54.1535 7.80462 53.6118 6.99617 53.7545C6.18999 53.8968 5.64781 54.6688 5.78758 55.4755L5.78849 55.4807L5.95215 56.4078C5.96809 56.498 5.99234 56.587 6.02425 56.6721C6.27565 57.3435 6.97111 57.7403 7.67783 57.6155Z" fill="#FFA500"/>
<path d="M6.81066 52.7018C7.20161 52.6327 7.54255 52.4158 7.77068 52.0909C7.99876 51.766 8.08704 51.3718 8.01928 50.9808L8.01835 50.9755L7.85471 50.0485C7.78555 49.6568 7.56795 49.3154 7.24204 49.0872C6.91608 48.8591 6.5208 48.7715 6.12899 48.8407C5.3228 48.983 4.78062 49.7551 4.9204 50.5617L4.92131 50.5669L5.08496 51.4939C5.10095 51.5843 5.12518 51.6731 5.15702 51.7582C5.40849 52.4297 6.10392 52.8265 6.81066 52.7018Z" fill="#FFA500"/>
<path d="M5.95127 47.7952C6.75748 47.6529 7.29965 46.8809 7.15988 46.0742L7.15897 46.069L6.99532 45.142C6.8523 44.3332 6.07818 43.7915 5.26964 43.9342C4.46343 44.0765 3.92125 44.8486 4.06102 45.6552L4.06193 45.6604L4.22559 46.5874C4.24153 46.6777 4.26579 46.7666 4.29767 46.8518C4.54907 47.5232 5.2445 47.92 5.95127 47.7952Z" fill="#FFA500"/>
<path d="M49.6458 102.947C49.3375 102.697 48.9503 102.582 48.5556 102.622L48.5503 102.623L47.6142 102.722C46.7974 102.809 46.2033 103.543 46.2896 104.36C46.3313 104.755 46.5241 105.11 46.8324 105.36C47.1406 105.61 47.5278 105.725 47.9226 105.685L47.9278 105.684L48.864 105.585C48.9552 105.576 49.0456 105.558 49.1327 105.532C49.82 105.327 50.264 104.661 50.1886 103.948C50.1468 103.553 49.9541 103.198 49.6458 102.947Z" fill="#FFA500"/>
<path d="M44.6927 103.463C44.3845 103.213 43.9973 103.098 43.6026 103.138L43.5973 103.139L42.6611 103.238C42.2655 103.279 41.9099 103.473 41.6597 103.782C41.4095 104.091 41.2947 104.48 41.3366 104.875C41.4226 105.689 42.1552 106.284 42.9696 106.2L42.9748 106.2L43.911 106.101C44.0021 106.091 44.0924 106.073 44.1796 106.047C44.867 105.843 45.3111 105.177 45.2356 104.463C45.1938 104.068 45.001 103.713 44.6927 103.463Z" fill="#FFA500"/>
<path d="M64.5286 101.447C64.2203 101.197 63.8332 101.082 63.4384 101.122L63.4331 101.123L62.497 101.222C61.6802 101.309 61.0861 102.043 61.1724 102.86C61.2584 103.674 61.991 104.268 62.8054 104.185L62.8107 104.184L63.7468 104.085C63.838 104.076 63.9284 104.058 64.0156 104.032C64.7028 103.827 65.1469 103.161 65.0714 102.447C65.0297 102.053 64.8369 101.698 64.5286 101.447Z" fill="#FFA500"/>
<path d="M59.5756 101.971C59.2673 101.721 58.8802 101.605 58.4854 101.646L58.4801 101.646L57.544 101.745C57.1483 101.787 56.7927 101.981 56.5425 102.29C56.2923 102.599 56.1775 102.987 56.2194 103.383C56.3054 104.197 57.038 104.792 57.8524 104.708L57.8576 104.708L58.7938 104.609C58.885 104.599 58.9754 104.581 59.0624 104.555C59.7497 104.351 60.1938 103.685 60.1184 102.971C60.0767 102.576 59.8839 102.221 59.5756 101.971Z" fill="#FFA500"/>
<path d="M53.5243 102.161L53.519 102.162L52.5829 102.261C51.7661 102.347 51.172 103.082 51.2583 103.899C51.3444 104.713 52.077 105.307 52.8913 105.224L52.8966 105.223L53.8328 105.124C53.9239 105.114 54.0142 105.096 54.1014 105.071C54.7887 104.866 55.2328 104.2 55.1573 103.486C55.0713 102.672 54.3387 102.078 53.5243 102.161Z" fill="#FFA500"/>
</svg>
