<svg width="60" height="60" viewBox="0 0 60 60" fill="none" xmlns="http://www.w3.org/2000/svg">
<g clip-path="url(#clip0_3236_29239)">
<path d="M59.9997 59.8297L29.0908 59.8449V50.0234L48.495 50.5279C51.0736 50.5279 53.4064 52.1525 54.3006 54.5696C54.6869 55.616 55.6958 56.3183 56.8113 56.3183H59.9985L59.9997 59.8297Z" fill="#EBD4CE"/>
<path d="M29.0911 50.0241V59.8456L1.21145 59.8597H0.0713993L0 56.3494L1.21145 56.3014L3.50793 56.209L3.64136 56.2242C4.01241 56.2675 4.37409 56.1036 4.58945 55.8005L4.74396 55.5816C5.59256 54.3842 6.97489 53.669 8.44268 53.669C8.7669 53.669 9.07357 53.5133 9.26552 53.2523L10.5577 51.4884C11.4087 50.3285 12.7746 49.6367 14.2131 49.6367L29.0911 50.0241Z" fill="#FFF0B3"/>
<path d="M4.32768 20.5712L2.44906 16.5246C1.5396 14.5719 1.74748 12.264 2.9924 10.5031C3.60187 9.6414 3.60608 8.48052 3.00317 7.61425L2.08621 6.29734C1.37936 5.28183 1.00586 4.09122 1.00586 2.85425V0.0976562H4.5173V2.85425C4.5173 3.37044 4.67321 3.86731 4.96829 4.29114L5.88501 5.60793C7.33008 7.68354 7.31978 10.4655 5.85949 12.5305C5.34003 13.2651 5.25318 14.2284 5.63312 15.0441L7.51268 19.0927L4.32768 20.5712Z" fill="#B8DC38"/>
<path d="M7.92746 56.5959H4.41602C4.41602 55.1292 4.87941 54.3222 5.21779 53.7331C5.45493 53.32 5.55314 53.149 5.55314 52.6188C5.55314 52.0852 5.454 51.9111 5.21452 51.4907C4.87754 50.8988 4.41602 50.0883 4.41602 48.625C4.41602 47.1617 4.87754 46.3511 5.21452 45.7593C5.454 45.3388 5.55314 45.1647 5.55314 44.631C5.55314 44.0973 5.454 43.9233 5.21452 43.5029C4.87754 42.9109 4.41602 42.1005 4.41602 40.6372C4.41602 39.1738 4.87754 38.3632 5.21452 37.7714C5.454 37.3508 5.55314 37.1766 5.55314 36.6428C5.55314 36.6014 5.55243 36.5614 5.55091 36.5226L9.06001 36.3945C9.06282 36.4748 9.06446 36.5573 9.06446 36.6428C9.06446 38.1062 8.60294 38.9169 8.26596 39.5087C8.02648 39.9293 7.92734 40.1033 7.92734 40.6372C7.92734 41.1708 8.02648 41.3448 8.26596 41.7653C8.60294 42.3572 9.06446 43.1676 9.06446 44.631C9.06446 46.0943 8.60294 46.9049 8.26596 47.4967C8.02648 47.9172 7.92734 48.0913 7.92734 48.625C7.92734 49.1586 8.02648 49.3327 8.26596 49.7531C8.60294 50.345 9.06446 51.1555 9.06446 52.6188C9.06446 54.0854 8.60107 54.8925 8.26268 55.4816C8.02566 55.8947 7.92746 56.0657 7.92746 56.5959Z" fill="#B8DC38"/>
<path d="M55.4802 33.859H51.9688V25.9312C51.9688 24.5081 52.4096 23.6503 52.7314 23.0239C52.9807 22.5387 53.1059 22.2951 53.1059 21.7215C53.1059 21.1878 53.0067 21.0138 52.7673 20.5934C52.4303 20.0014 51.9688 19.191 51.9688 17.7277C51.9688 16.2643 52.4303 15.4537 52.7673 14.862C53.0067 14.4414 53.1059 14.2674 53.1059 13.7338C53.1059 13.2 53.0067 13.026 52.7673 12.6054C52.4303 12.0136 51.9688 11.2031 51.9688 9.73984C51.9688 8.27651 52.4303 7.46583 52.7673 6.87404C53.0067 6.45348 53.1059 6.27931 53.1059 5.74546C53.1059 5.2116 53.0067 5.03755 52.7673 4.617C52.4303 4.02509 51.9688 3.21453 51.9688 1.75108V0.0976562H55.4802V1.75108C55.4802 2.28493 55.5793 2.4591 55.8188 2.87965C56.1558 3.47157 56.6173 4.28212 56.6173 5.74546C56.6173 7.20891 56.1558 8.01959 55.8188 8.61138C55.5793 9.03193 55.4802 9.20599 55.4802 9.73984C55.4802 10.2735 55.5793 10.4475 55.8188 10.8681C56.1558 11.4599 56.6173 12.2704 56.6173 13.7338C56.6173 15.197 56.1558 16.0076 55.8188 16.5993C55.5793 17.0199 55.4802 17.1939 55.4802 17.7277C55.4802 18.2613 55.5793 18.4353 55.8188 18.8558C56.1558 19.4477 56.6173 20.2581 56.6173 21.7215C56.6173 23.1445 56.1765 24.0024 55.8546 24.6288C55.6053 25.114 55.4802 25.3576 55.4802 25.9312V33.859Z" fill="#7ACC29"/>
<path d="M23.8785 3.47731C22.7431 4.73792 21.143 5.50693 19.447 5.54555C19.2199 5.55023 18.9905 5.56662 18.7611 5.59471C15.5634 5.97161 12.753 9.00198 12.6009 12.2185C12.4991 14.3745 13.3722 16.328 14.8154 17.6799C16.0877 18.8691 16.5594 20.6845 15.9625 22.3197L15.7483 22.9061C15.1116 24.6501 13.4413 25.7773 11.5861 25.7691H11.5287C10.8803 25.7703 10.2997 25.391 10.0118 24.8081C9.66532 24.107 9.1386 23.5101 8.49484 23.0758C7.91662 22.6861 7.62985 21.9931 7.78553 21.3154C7.85927 20.9982 7.88502 20.6611 7.85927 20.3158C7.7352 18.6748 6.39382 17.3522 4.75164 17.2492C2.81684 17.1298 1.21094 18.6631 1.21094 20.5722C1.21094 21.3611 1.486 22.0868 1.94483 22.6568C2.38025 23.1987 2.45984 23.9443 2.10987 24.5436C1.72595 25.2049 1.50473 25.9739 1.50473 26.7956C1.50473 28.7515 2.75714 30.4136 4.5035 31.0269C4.63693 31.0737 4.71653 31.2118 4.68844 31.3488C4.59246 31.8111 4.53978 32.2922 4.53978 32.7838C4.53978 36.2285 7.02354 39.0915 10.2962 39.6838C10.4425 39.7095 10.5443 39.8465 10.5268 39.994C10.4928 40.2702 10.4753 40.5499 10.4753 40.8344C10.4753 44.7075 13.6157 47.8479 17.49 47.8479H17.4935C17.6644 47.8479 17.7978 47.9954 17.7803 48.1651C17.7475 48.4694 17.7346 48.7796 17.744 49.0944C17.7615 49.764 17.8751 50.4101 18.0694 51.0199C18.3362 51.8521 18.4463 52.7206 18.4123 53.5938C18.4088 53.6687 18.4076 53.7448 18.4076 53.8208C18.4076 57.0713 21.0424 59.706 24.2928 59.706C24.5257 59.706 24.7552 59.6931 24.9799 59.6662C26.3505 59.507 27.7317 59.5656 29.0906 59.8079L35.7381 29.8553L29.0906 1.15625C27.0212 1.15625 25.1613 2.05167 23.8785 3.47731ZM24.0634 42.1605C22.2164 42.1605 20.7182 40.6635 20.7182 38.8141C20.7182 36.9671 22.2164 35.4689 24.0634 35.4689C25.9116 35.4689 27.4098 36.9671 27.4098 38.8141C27.4098 40.6635 25.9116 42.1605 24.0634 42.1605ZM24.2834 20.0888C22.4364 20.0888 20.9382 18.5906 20.9382 16.7435C20.9382 14.8942 22.4364 13.3971 24.2834 13.3971C26.1328 13.3971 27.6299 14.8942 27.6299 16.7435C27.6299 18.5906 26.1328 20.0888 24.2834 20.0888Z" fill="#00CEF5"/>
<path d="M59.4917 30.3902C59.8698 29.7862 60.0606 29.0535 59.981 28.2728C59.823 26.7324 58.5904 25.487 57.0513 25.3161C55.0427 25.0914 53.3408 26.6587 53.3408 28.6239C53.3408 28.7257 53.3443 28.8264 53.3549 28.9259C53.4392 29.867 53.0845 30.7905 52.3576 31.3933C51.6378 31.989 49.1423 34.9024 46.7101 33.5551C46.5825 33.4861 46.5169 33.3386 46.5509 33.1982C46.6785 32.6679 46.7475 32.1143 46.7475 31.5443C46.7475 30.9368 46.6703 30.348 46.5251 29.7862C46.1166 28.2084 46.3425 26.5358 47.1595 25.1253C47.7565 24.0942 48.0994 22.8944 48.0994 21.6151C48.0994 20.0923 47.6137 18.6819 46.7885 17.5324C45.9247 16.3268 45.5829 14.838 45.7526 13.3644C45.8345 12.6539 45.81 11.9095 45.6601 11.1486C45.0468 8.0141 42.3254 5.71059 39.1347 5.55375C39.0598 5.54906 38.9837 5.54672 38.91 5.54555C37.1215 5.51512 35.443 4.70281 34.2257 3.39304C32.9452 2.01655 31.1181 1.15625 29.0908 1.15625V59.8079C29.1049 59.8102 29.1177 59.8125 29.1318 59.8149C29.4712 59.8757 29.8212 59.9085 30.1782 59.9085C30.9566 59.9085 31.6986 59.7575 32.3764 59.4836C33.2226 59.143 34.1672 59.143 35.0123 59.4836C35.6923 59.7575 36.4332 59.9085 37.2104 59.9085C39.4964 59.9085 41.4768 58.6046 42.4507 56.7014C42.8943 55.8388 43.6411 55.1646 44.5669 54.8778C47.4287 53.9941 49.5075 51.3289 49.5075 48.1768V48.1744C49.5075 47.9883 49.6491 47.8315 49.8341 47.8116C50.3491 47.7554 51.282 47.6489 51.3194 47.6489C55.1925 47.6489 56.6697 44.7075 56.6697 40.8344V40.8156C56.6685 39.8769 57.132 39.0108 57.887 38.4513C58.9896 37.6343 59.7047 36.3233 59.7047 34.8462C59.7047 34.1942 59.5655 33.5739 59.315 33.0156C58.9311 32.1611 58.9931 31.1826 59.4917 30.3902ZM33.5129 24.2311C33.5129 22.3817 35.0123 20.8847 36.8593 20.8847C38.7075 20.8847 40.2057 22.3817 40.2057 24.2311C40.2057 26.0781 38.7075 27.5763 36.8593 27.5763C35.0123 27.5763 33.5129 26.0781 33.5129 24.2311ZM38.6057 45.8944C36.7575 45.8944 35.2593 44.3961 35.2593 42.5491C35.2593 40.7009 36.7575 39.2027 38.6057 39.2027C40.4527 39.2027 41.9521 40.7009 41.9521 42.5491C41.9521 44.3961 40.4527 45.8944 38.6057 45.8944Z" fill="#00ABE9"/>
<path d="M24.2545 21.5891C21.5515 21.5891 19.3525 19.3901 19.3525 16.6871C19.3525 13.9841 21.5515 11.7852 24.2545 11.7852C26.9575 11.7852 29.1565 13.9841 29.1565 16.6871C29.1565 19.3901 26.9575 21.5891 24.2545 21.5891ZM24.2545 15.2966C23.4877 15.2966 22.864 15.9203 22.864 16.6871C22.864 17.4539 23.4877 18.0777 24.2545 18.0777C25.0213 18.0777 25.645 17.4539 25.645 16.6871C25.645 15.9203 25.0213 15.2966 24.2545 15.2966Z" fill="#00ABE9"/>
<path d="M36.8159 29.0696C34.113 29.0696 31.9141 26.8706 31.9141 24.1676C31.9141 21.4646 34.113 19.2656 36.8159 19.2656C39.5189 19.2656 41.718 21.4646 41.718 24.1676C41.718 26.8706 39.5189 29.0696 36.8159 29.0696ZM36.8159 22.7771C36.0493 22.7771 35.4255 23.4008 35.4255 24.1676C35.4255 24.9344 36.0493 25.5581 36.8159 25.5581C37.5827 25.5581 38.2066 24.9344 38.2066 24.1676C38.2066 23.4008 37.5827 22.7771 36.8159 22.7771Z" fill="#008ADF"/>
<path d="M24.0144 43.6633C21.3114 43.6633 19.1123 41.4643 19.1123 38.7615C19.1123 36.0585 21.3114 33.8594 24.0144 33.8594C26.7174 33.8594 28.9164 36.0585 28.9164 38.7615C28.9164 41.4643 26.7174 43.6633 24.0144 43.6633ZM24.0144 37.3709C23.2476 37.3709 22.6237 37.9948 22.6237 38.7616C22.6237 39.5282 23.2476 40.152 24.0144 40.152C24.7812 40.152 25.4049 39.5282 25.4049 38.7616C25.4049 37.9948 24.7812 37.3709 24.0144 37.3709Z" fill="#00ABE9"/>
<path d="M38.569 47.502C35.866 47.502 33.667 45.3035 33.667 42.6012C33.667 39.8982 35.866 37.6992 38.569 37.6992C41.272 37.6992 43.4709 39.8982 43.4709 42.6012C43.4709 45.3035 41.272 47.502 38.569 47.502ZM38.569 41.2107C37.8022 41.2107 37.1784 41.8344 37.1784 42.6012C37.1784 43.3673 37.8022 43.9906 38.569 43.9906C39.3357 43.9906 39.9595 43.3673 39.9595 42.6012C39.9595 41.8344 39.3357 41.2107 38.569 41.2107Z" fill="#008ADF"/>
<path d="M22.6094 25.7148H26.1208V29.2243H22.6094V25.7148Z" fill="#E8F3FF"/>
<path d="M33.9824 11.7852H37.4939V15.2946H33.9824V11.7852Z" fill="#D2D6F8"/>
<path d="M13.2871 30.8633H16.7986V34.3727H13.2871V30.8633Z" fill="#E8F3FF"/>
<path d="M31.6475 32.1055H35.1589V35.6149H31.6475V32.1055Z" fill="#D2D6F8"/>
<path d="M29.0917 47.8828L29.911 49.638L29.0917 51.3931H27.3359V47.8828H29.0917Z" fill="#E8F3FF"/>
<path d="M29.0908 47.8828H30.8465V51.3931H29.0908V47.8828Z" fill="#D2D6F8"/>
<path d="M47.3193 38.0391H50.8308V41.5485H47.3193V38.0391Z" fill="#D2D6F8"/>
<path d="M9.31738 0.0976562H12.8288V3.66762H9.31738V0.0976562Z" fill="#00CEF5"/>
<path d="M45.7188 1.88281H49.2302V5.45278H45.7188V1.88281Z" fill="#00ABE9"/>
</g>
<defs>
<clipPath id="clip0_3236_29239">
<rect width="60" height="60" fill="white"/>
</clipPath>
</defs>
</svg>
