<svg width="60" height="60" viewBox="0 0 60 60" fill="none" xmlns="http://www.w3.org/2000/svg">
<g clip-path="url(#clip0_3113_26474)">
<path d="M20.0873 9.22519C20.0976 9.11314 20.1046 9.00006 20.1046 8.88532C20.1046 6.81917 18.4159 5.14417 16.3327 5.14417C16.2309 5.14417 16.1304 5.14929 16.0305 5.15724C15.3569 3.2825 13.5277 1.9375 11.3751 1.9375C9.22258 1.9375 7.39335 3.2825 6.71988 5.15724C6.62014 5.14942 6.5195 5.14417 6.4177 5.14417C4.3345 5.14417 2.64578 6.81917 2.64578 8.88532C2.64578 9.00006 2.65283 9.11301 2.66309 9.22519C2.08296 9.46865 1.67578 10.0384 1.67578 10.7025C1.67578 11.588 2.3995 12.3058 3.29232 12.3058H19.458C20.3508 12.3058 21.0745 11.588 21.0745 10.7025C21.0745 10.0384 20.6674 9.46865 20.0873 9.22519Z" fill="#97DEEF"/>
<path d="M11.375 1.9375C9.22258 1.9375 7.39322 3.2825 6.71976 5.15724C6.62001 5.14942 6.51937 5.1443 6.41758 5.1443C4.33437 5.1443 2.64565 6.8193 2.64565 8.88545C2.64565 9.00019 2.6527 9.11314 2.66296 9.22532C2.08283 9.46878 1.67578 10.0385 1.67578 10.7026C1.67578 11.5881 2.3995 12.306 3.29232 12.306H3.36745C3.36091 12.2475 3.35694 12.1884 3.35694 12.1283C3.35694 11.4642 3.76399 10.8944 4.34411 10.651C4.33386 10.5389 4.32681 10.4258 4.32681 10.3111C4.32681 8.24494 6.01552 6.56994 8.09873 6.56994C8.20053 6.56994 8.30104 6.57506 8.40091 6.58288C9.07437 4.70814 10.9037 3.36314 13.0562 3.36314C13.891 3.36314 14.6768 3.56622 15.3658 3.92327C14.4696 2.72032 13.0167 1.9375 11.375 1.9375Z" fill="#34C7D7"/>
<path d="M15.5129 9.34507C16.2271 9.34507 16.8061 8.88089 16.8061 8.30828C16.8061 7.73567 16.2271 7.27148 15.5129 7.27148C14.7987 7.27148 14.2197 7.73567 14.2197 8.30828C14.2197 8.88089 14.7987 9.34507 15.5129 9.34507Z" fill="white"/>
<path d="M7.24145 9.34507C7.95567 9.34507 8.53465 8.88089 8.53465 8.30828C8.53465 7.73567 7.95567 7.27148 7.24145 7.27148C6.52723 7.27148 5.94824 7.73567 5.94824 8.30828C5.94824 8.88089 6.52723 9.34507 7.24145 9.34507Z" fill="white"/>
<path d="M11.3808 10.4352C10.7576 10.4352 10.1878 10.1472 9.81724 9.64504C9.64737 9.41491 9.69583 9.0903 9.92558 8.92004C10.1552 8.74979 10.4793 8.79825 10.649 9.02863C11.0079 9.51479 11.7539 9.51479 12.1128 9.02863C12.2826 8.79838 12.6066 8.74991 12.8362 8.92004C13.066 9.0903 13.1144 9.41491 12.9446 9.64504C12.574 10.1472 12.004 10.4352 11.3808 10.4352Z" fill="#424242"/>
<path d="M8.27235 7.75643C7.95094 7.75643 7.69043 7.49527 7.69043 7.17322V6.78438C7.69043 6.46233 7.95094 6.20117 8.27235 6.20117C8.59376 6.20117 8.85428 6.46233 8.85428 6.78438V7.17322C8.85428 7.49527 8.59376 7.75643 8.27235 7.75643Z" fill="#424242"/>
<path d="M14.4833 7.75643C14.1619 7.75643 13.9014 7.49527 13.9014 7.17322V6.78438C13.9014 6.46233 14.1619 6.20117 14.4833 6.20117C14.8047 6.20117 15.0652 6.46233 15.0652 6.78438V7.17322C15.0652 7.49527 14.8047 7.75643 14.4833 7.75643Z" fill="#424242"/>
<path d="M47.9826 15.3317C50.3634 15.3317 52.2934 13.3975 52.2934 11.0115C52.2934 8.62559 50.3634 6.69141 47.9826 6.69141C45.6019 6.69141 43.6719 8.62559 43.6719 11.0115C43.6719 13.3975 45.6019 15.3317 47.9826 15.3317Z" fill="#F9ED99"/>
<path d="M46.1291 11.0117C46.1291 9.05359 47.4293 7.40077 49.2112 6.87051C48.8217 6.75461 48.4097 6.69141 47.9826 6.69141C45.6019 6.69141 43.6719 8.62564 43.6719 11.0115C43.6719 13.3974 45.6019 15.3317 47.9826 15.3317C48.4097 15.3317 48.8217 15.2685 49.2112 15.1526C47.4292 14.6226 46.1291 12.9697 46.1291 11.0117Z" fill="#FFC480"/>
<path d="M47.9828 3.29372C47.6287 3.29372 47.3418 3.0068 47.3418 2.65269V0.641026C47.3418 0.286923 47.6287 0 47.9828 0C48.3369 0 48.6238 0.286923 48.6238 0.641026V2.65269C48.6238 3.0068 48.3369 3.29372 47.9828 3.29372Z" fill="#FFC480"/>
<path d="M42.0899 5.74349C41.9257 5.74349 41.7613 5.68079 41.6362 5.55528L40.2166 4.13285C39.9665 3.8822 39.967 3.47631 40.2175 3.22631C40.4683 2.97631 40.874 2.97669 41.124 3.2272L42.5435 4.64977C42.9236 5.03041 42.6277 5.74349 42.0899 5.74349Z" fill="#FFC480"/>
<path d="M55.2947 18.982C55.1305 18.982 54.9661 18.9193 54.841 18.7937L53.4216 17.3711C53.1715 17.1206 53.172 16.7147 53.4227 16.4647C53.6732 16.2145 54.0791 16.215 54.3291 16.4657L55.7484 17.8883C56.1286 18.2688 55.8324 18.982 55.2947 18.982Z" fill="#FFC480"/>
<path d="M58.3301 11.6531H56.3227C55.9686 11.6531 55.6816 11.3662 55.6816 11.0121C55.6816 10.658 55.9686 10.3711 56.3227 10.3711H58.3301C58.6842 10.3711 58.9711 10.658 58.9711 11.0121C58.9711 11.3662 58.6842 11.6531 58.3301 11.6531Z" fill="#FFC480"/>
<path d="M53.8752 5.74374C53.3376 5.74374 53.0414 5.03067 53.4215 4.65002L54.8408 3.22746C55.0908 2.97656 55.4967 2.97631 55.7473 3.22643C55.9979 3.47643 55.9984 3.88233 55.7483 4.13284L54.3289 5.55541C54.2038 5.68105 54.0394 5.74374 53.8752 5.74374Z" fill="#FFC480"/>
<path d="M13.0092 49.9712C12.7406 49.9712 12.4905 49.8013 12.401 49.5325L9.75563 41.5857C9.64384 41.2498 9.8255 40.8869 10.1614 40.7751C10.4977 40.6635 10.8602 40.8449 10.972 41.1808L13.6174 49.1276C13.7292 49.4635 13.5476 49.8265 13.2117 49.9383C13.1446 49.9606 13.0763 49.9712 13.0092 49.9712Z" fill="#00B574"/>
<path d="M12.0307 28.6228C11.0136 28.4428 9.93996 29.2425 9.09573 30.6314C8.02663 29.4334 6.84265 28.8449 5.88355 29.191C4.92432 29.537 4.39906 30.742 4.35701 32.3407C2.80945 31.8147 1.46842 31.886 0.805987 32.6719C-0.337987 34.0291 0.97368 36.9993 3.73547 39.3062C5.50842 40.7871 8.02047 42.2437 10.3644 41.3925C12.7115 40.5403 13.6906 37.8419 14.0894 35.5712C14.7089 32.0446 13.7873 28.9335 12.0307 28.6228Z" fill="#B894DD"/>
<path d="M5.67536 38.2697C3.14139 36.1531 1.82985 33.4792 2.51383 32.0039C1.78242 32.009 1.1837 32.224 0.806005 32.6721C-0.33797 34.0293 0.973569 36.9995 3.73549 39.3065C5.50844 40.7874 8.02049 42.2439 10.3645 41.3928C10.9241 41.1896 11.4051 40.8806 11.8199 40.4983C9.61921 41.0062 7.32665 39.649 5.67536 38.2697Z" fill="#A37ACC"/>
<path d="M12.0802 34.663C12.2358 35.0859 11.9288 35.5848 11.3947 35.7771C10.8606 35.9695 10.3015 35.7826 10.1459 35.3598C9.99038 34.9368 10.2973 34.438 10.8314 34.2457C11.3656 34.0532 11.9247 34.24 12.0802 34.663Z" fill="#FFD2E2"/>
<path d="M6.25017 36.9286C6.40568 37.3516 6.09876 37.8504 5.56466 38.0427C5.03055 38.2352 4.47145 38.0482 4.31581 37.6254C4.1603 37.2025 4.46722 36.7036 5.00132 36.5113C5.53555 36.3189 6.09466 36.5057 6.25017 36.9286Z" fill="#FFD2E2"/>
<path d="M9.22402 39.1475C8.52941 39.4008 7.77774 39.3116 7.16159 38.9026C6.87902 38.7152 6.80172 38.3336 6.98877 38.0505C7.17582 37.7675 7.55659 37.6896 7.83902 37.8773C8.43582 38.2732 9.26723 37.97 9.47043 37.2823C9.56659 36.9567 9.908 36.7709 10.2329 36.8672C10.5579 36.9635 10.7433 37.3057 10.6471 37.6312C10.4371 38.3416 9.91851 38.8941 9.22402 39.1475Z" fill="#424242"/>
<path d="M5.18933 36.5741C4.83113 36.7047 4.4351 36.5197 4.30472 36.1606L4.14728 35.7273C4.0169 35.3683 4.20164 34.9714 4.55984 34.8407C4.91805 34.7101 5.31407 34.8951 5.44446 35.2542L5.6019 35.6875C5.73228 36.0464 5.54754 36.4433 5.18933 36.5741Z" fill="#424242"/>
<path d="M10.6522 34.4334C10.294 34.5641 9.89799 34.3791 9.76761 34.02L9.61017 33.5866C9.47979 33.2277 9.66453 32.8307 10.0227 32.7001C10.3809 32.5695 10.777 32.7545 10.9073 33.1136L11.0648 33.5469C11.195 33.9059 11.0104 34.3028 10.6522 34.4334Z" fill="#424242"/>
<path d="M17.6962 47.6882C18.0112 44.3832 18.3611 41.8262 18.3611 41.8262C15.4201 42.5476 13.1567 45.1286 12.4422 48.1716C10.4512 45.6026 7.70775 43.8985 4.69583 44.22C4.69583 44.22 5.9048 46.5039 7.33865 49.5026C5.80121 48.4398 3.04006 48.2764 1.16211 48.4769C1.16211 48.4769 4.26839 50.7109 6.38121 55.7737L20.7549 53.2558C20.9975 47.7804 23.1474 44.6257 23.1474 44.6257C21.3134 45.0754 18.7749 46.1671 17.6962 47.6882Z" fill="#00CB8C"/>
<path d="M9.66791 49.2436C8.62252 47.0572 7.69714 45.2521 7.27227 44.4338C6.44521 44.2076 5.58303 44.1258 4.69727 44.2203C4.69727 44.2203 5.58457 45.8967 6.74021 48.2621C7.84547 48.4123 8.90675 48.7174 9.66791 49.2436Z" fill="#00B574"/>
<path d="M3.78608 48.4502C2.8598 48.3717 1.93596 48.3909 1.16211 48.4735C1.16211 48.4735 4.26839 50.7075 6.38121 55.7703L8.64955 55.373C6.93455 51.3405 4.6016 49.1353 3.78608 48.4502Z" fill="#00B574"/>
<path d="M47.0007 49.9754C46.9336 49.9754 46.8653 49.9649 46.7981 49.9424C46.4622 49.8306 46.2806 49.4677 46.3924 49.1318L49.0377 41.185C49.1497 40.8491 49.5121 40.667 49.8484 40.7792C50.1843 40.891 50.3659 41.254 50.2541 41.5899L47.6088 49.5367C47.5193 49.8054 47.269 49.9754 47.0007 49.9754Z" fill="#00B574"/>
<path d="M47.9763 28.6228C48.9934 28.4428 50.067 29.2425 50.9113 30.6314C51.9804 29.4334 53.1643 28.8449 54.1234 29.191C55.0827 29.537 55.6079 30.742 55.65 32.3407C57.1975 31.8147 58.5386 31.886 59.201 32.6719C60.345 34.0291 59.0334 36.9993 56.2715 39.3062C54.4986 40.7871 51.9865 42.2437 49.6425 41.3925C47.2955 40.5403 46.3164 37.8419 45.9175 35.5712C45.2981 32.0446 46.2197 28.9335 47.9763 28.6228Z" fill="#B894DD"/>
<path d="M54.3339 38.2697C56.8679 36.1531 58.1795 33.4792 57.4955 32.0039C58.2269 32.009 58.8256 32.224 59.2033 32.6721C60.3473 34.0293 59.0357 36.9995 56.2738 39.3065C54.5009 40.7874 51.9888 42.2439 49.6448 41.3928C49.0852 41.1896 48.6042 40.8806 48.1895 40.4983C50.3901 41.0062 52.6827 39.649 54.3339 38.2697Z" fill="#A37ACC"/>
<path d="M47.931 34.663C47.7755 35.0859 48.0825 35.5848 48.6166 35.7771C49.1507 35.9695 49.7098 35.7826 49.8654 35.3598C50.0209 34.9368 49.714 34.438 49.1799 34.2457C48.6457 34.0532 48.0866 34.24 47.931 34.663Z" fill="#FFD2E2"/>
<path d="M53.7611 36.9286C53.6056 37.3516 53.9125 37.8504 54.4466 38.0427C54.9807 38.2352 55.5398 38.0482 55.6955 37.6254C55.851 37.2025 55.5441 36.7036 55.01 36.5113C54.4757 36.3189 53.9166 36.5057 53.7611 36.9286Z" fill="#FFD2E2"/>
<path d="M50.7805 39.1475C51.4751 39.4008 52.2268 39.3116 52.8429 38.9026C53.1255 38.7152 53.2028 38.3336 53.0158 38.0505C52.8288 37.7675 52.4479 37.6896 52.1655 37.8773C51.5687 38.2732 50.7373 37.97 50.5341 37.2823C50.4379 36.9567 50.0965 36.7709 49.7716 36.8672C49.4466 36.9635 49.2613 37.3057 49.3574 37.6312C49.5674 38.3416 50.086 38.8941 50.7805 39.1475Z" fill="#424242"/>
<path d="M54.8216 36.5741C55.1798 36.7047 55.5758 36.5197 55.7062 36.1606L55.8636 35.7273C55.994 35.3683 55.8093 34.9714 55.451 34.8407C55.0928 34.7101 54.6968 34.8951 54.5664 35.2542L54.409 35.6875C54.2786 36.0464 54.4634 36.4433 54.8216 36.5741Z" fill="#424242"/>
<path d="M49.3606 34.4334C49.7188 34.5641 50.1148 34.3791 50.2452 34.02L50.4026 33.5866C50.533 33.2277 50.3483 32.8307 49.9901 32.7001C49.6319 32.5695 49.2358 32.7545 49.1054 33.1136L48.948 33.5469C48.8178 33.9059 49.0024 34.3028 49.3606 34.4334Z" fill="#424242"/>
<path d="M42.3105 47.6882C41.9955 44.3832 41.6457 41.8262 41.6457 41.8262C44.5867 42.5476 46.85 45.1286 47.5645 48.1716C49.5555 45.6026 52.299 43.8985 55.3109 44.22C55.3109 44.22 54.1019 46.5039 52.6681 49.5026C54.2055 48.4398 56.9667 48.2764 58.8446 48.4769C58.8446 48.4769 55.7383 50.7109 53.6255 55.7737L39.2518 53.2558C39.0092 47.7804 36.8594 44.6257 36.8594 44.6257C38.6933 45.0754 41.2318 46.1671 42.3105 47.6882Z" fill="#00CB8C"/>
<path d="M50.3379 49.2436C51.3833 47.0572 52.3087 45.2521 52.7335 44.4338C53.5606 44.2076 54.4228 44.1258 55.3085 44.2203C55.3085 44.2203 54.4212 45.8967 53.2656 48.2621C52.1603 48.4123 51.099 48.7174 50.3379 49.2436Z" fill="#00B574"/>
<path d="M56.2189 48.4502C57.1452 48.3717 58.0691 48.3909 58.8429 48.4735C58.8429 48.4735 55.7366 50.7075 53.6238 55.7703L51.3555 55.373C53.0705 51.3405 55.4034 49.1353 56.2189 48.4502Z" fill="#00B574"/>
<path d="M55.0445 55.4021H53.9715C52.1976 52.442 49.0024 50.4654 45.3522 50.4654C43.6804 50.4654 42.1049 50.882 40.7164 51.6156C37.9358 48.9397 34.1626 47.2949 30.006 47.2949C25.8495 47.2949 22.0763 48.9397 19.2956 51.6156C17.9072 50.882 16.3317 50.4654 14.6599 50.4654C11.0096 50.4654 7.81447 52.442 6.0405 55.4021H4.96755C2.43973 55.4021 0.390625 57.4589 0.390625 59.9962H59.6214C59.6214 57.4589 57.5723 55.4021 55.0445 55.4021Z" fill="#D38451"/>
<path d="M15.0574 50.4756C14.9255 50.4704 14.7931 50.4668 14.6599 50.4668C11.0096 50.4668 7.81447 52.4433 6.0405 55.4035H4.96755C2.43973 55.4035 0.390625 57.4603 0.390625 59.9976H11.2545C9.90511 57.2951 11.5637 52.3558 15.0574 50.4756Z" fill="#C46D3D"/>
<path d="M51.3285 22.9949C51.3285 19.9495 49.506 17.3272 46.8831 16.134C46.9955 15.6182 47.0563 15.0833 47.0563 14.5342C47.0563 10.3655 43.6433 6.98601 39.4332 6.98601C38.7372 6.98601 38.0637 7.08011 37.4232 7.25319C36.9575 3.52627 33.7504 0.640625 29.8605 0.640625C25.9707 0.640625 22.7636 3.52627 22.2978 7.25319C21.6572 7.08011 20.9837 6.98601 20.2878 6.98601C16.0777 6.98601 12.6648 10.3655 12.6648 14.5342C12.6648 15.0833 12.7255 15.6182 12.838 16.134C10.215 17.327 8.39258 19.9493 8.39258 22.9949C8.39258 26.0404 10.215 28.6625 12.838 29.8558C12.7255 30.3715 12.6648 30.9064 12.6648 31.4555C12.6648 35.6242 16.0777 39.0037 20.2878 39.0037H39.4332C43.6433 39.0037 47.0563 35.6242 47.0563 31.4555C47.0563 30.9064 46.9955 30.3715 46.8831 29.8558C49.506 28.6625 51.3285 26.0402 51.3285 22.9949Z" fill="#59DCA6"/>
<path d="M14.9926 31.4537C14.9926 30.9046 15.0533 30.3698 15.1658 29.854C12.5428 28.6608 10.7204 26.0385 10.7204 22.9931C10.7204 19.9477 12.5428 17.3254 15.1658 16.1323C15.0533 15.6166 14.9926 15.0817 14.9926 14.5326C14.9926 10.758 17.7908 7.63053 21.4453 7.07296C21.0678 7.01553 20.6816 6.98438 20.2877 6.98438C16.0776 6.98438 12.6648 10.3639 12.6648 14.5326C12.6648 15.0817 12.7255 15.6166 12.838 16.1323C10.215 17.3254 8.39258 19.9477 8.39258 22.9931C8.39258 26.0385 10.215 28.6608 12.838 29.854C12.7255 30.3698 12.6648 30.9046 12.6648 31.4537C12.6648 35.6225 16.0777 39.0019 20.2877 39.0019H22.6155C18.4055 39.0019 14.9926 35.6226 14.9926 31.4537Z" fill="#00CB8C"/>
<path d="M33.8791 38.1133L39.1963 32.5947C40.0146 31.7453 39.9904 30.3917 39.142 29.5724C38.322 28.7803 37.0256 28.7742 36.1981 29.5584L32.8445 32.7362L32.2626 26.5626C32.1526 25.3956 31.1747 24.5039 30.0051 24.5039C28.8306 24.5039 27.8505 25.4028 27.7465 26.5752L27.1542 33.2547L23.6525 29.4669C22.912 28.6658 21.6696 28.6015 20.8506 29.3217C20.0086 30.0624 19.9327 31.3498 20.6819 32.1845L26.1196 38.2429V38.737C26.1196 46.1384 24.3455 53.4315 20.9467 60.0024H39.0522C35.6536 53.4502 33.8792 46.174 33.8792 38.7894V38.1133H33.8791Z" fill="#C67142"/>
<path d="M28.1888 38.7351V37.7225L22.7511 31.6642C22.0399 30.8717 22.0734 29.6724 22.7988 28.9192C22.1458 28.707 21.4023 28.8345 20.8506 29.3198C20.0086 30.0604 19.9327 31.3479 20.6819 32.1826L26.1196 38.241V38.7351C26.1196 46.1365 24.3455 53.4295 20.9467 60.0004H23.0159C26.4147 53.4294 28.1888 46.1365 28.1888 38.7351Z" fill="#BA6135"/>
<path d="M18.3608 22.3759C18.0068 22.3759 17.7197 22.089 17.7197 21.7349V19.7426C17.7197 19.3885 18.0068 19.1016 18.3608 19.1016C18.7147 19.1016 19.0018 19.3885 19.0018 19.7426V21.7349C19.0018 22.089 18.7147 22.3759 18.3608 22.3759Z" fill="#00B574"/>
<path d="M18.361 26.4029C19.7895 26.4029 20.9475 25.2424 20.9475 23.8108C20.9475 22.3792 19.7895 21.2188 18.361 21.2188C16.9324 21.2188 15.7744 22.3792 15.7744 23.8108C15.7744 25.2424 16.9324 26.4029 18.361 26.4029Z" fill="#FF80A1"/>
<path d="M17.973 23.8108C17.973 22.7737 18.5822 21.8814 19.4602 21.4671C19.1262 21.3094 18.7545 21.2188 18.361 21.2188C16.9325 21.2188 15.7744 22.3793 15.7744 23.8108C15.7744 25.2423 16.9325 26.4029 18.361 26.4029C18.7545 26.4029 19.1262 26.3121 19.4602 26.1545C18.5822 25.7402 17.973 24.8479 17.973 23.8108Z" fill="#F46080"/>
<path d="M36.4086 17.247C36.0545 17.247 35.7676 16.9601 35.7676 16.606V14.6137C35.7676 14.2596 36.0545 13.9727 36.4086 13.9727C36.7627 13.9727 37.0496 14.2596 37.0496 14.6137V16.606C37.0496 16.9601 36.7627 17.247 36.4086 17.247Z" fill="#00B574"/>
<path d="M36.4166 21.27C37.8451 21.27 39.0032 20.1095 39.0032 18.678C39.0032 17.2464 37.8451 16.0859 36.4166 16.0859C34.9881 16.0859 33.8301 17.2464 33.8301 18.678C33.8301 20.1095 34.9881 21.27 36.4166 21.27Z" fill="#FF80A1"/>
<path d="M36.0287 18.678C36.0287 17.6409 36.6379 16.7486 37.5158 16.3343C37.1819 16.1766 36.8102 16.0859 36.4166 16.0859C34.9882 16.0859 33.8301 17.2464 33.8301 18.678C33.8301 20.1095 34.9882 21.27 36.4166 21.27C36.8102 21.27 37.1819 21.1793 37.5158 21.0217C36.6379 20.6073 36.0287 19.715 36.0287 18.678Z" fill="#F46080"/>
<path d="M27.4301 8.28998C27.0761 8.28998 26.7891 8.00306 26.7891 7.64896V5.65665C26.7891 5.30255 27.0761 5.01562 27.4301 5.01562C27.7841 5.01562 28.0711 5.30255 28.0711 5.65665V7.64896C28.0711 8.00306 27.7841 8.28998 27.4301 8.28998Z" fill="#00B574"/>
<path d="M27.4303 12.313C28.8588 12.313 30.0168 11.1525 30.0168 9.72096C30.0168 8.28941 28.8588 7.12891 27.4303 7.12891C26.0018 7.12891 24.8438 8.28941 24.8438 9.72096C24.8438 11.1525 26.0018 12.313 27.4303 12.313Z" fill="#FF80A1"/>
<path d="M27.0423 9.72096C27.0423 8.68391 27.6516 7.7916 28.5295 7.37724C28.1955 7.21955 27.8239 7.12891 27.4303 7.12891C26.0018 7.12891 24.8438 8.28942 24.8438 9.72096C24.8438 11.1525 26.0018 12.313 27.4303 12.313C27.8239 12.313 28.1955 12.2222 28.5295 12.0647C27.6516 11.6502 27.0423 10.758 27.0423 9.72096Z" fill="#F46080"/>
<path d="M45.4848 22.3759C45.1307 22.3759 44.8438 22.089 44.8438 21.7349V19.7426C44.8438 19.3885 45.1307 19.1016 45.4848 19.1016C45.8389 19.1016 46.1258 19.3885 46.1258 19.7426V21.7349C46.1258 22.089 45.8389 22.3759 45.4848 22.3759Z" fill="#00B574"/>
<path d="M45.483 26.4029C46.9115 26.4029 48.0696 25.2424 48.0696 23.8108C48.0696 22.3792 46.9115 21.2188 45.483 21.2188C44.0545 21.2188 42.8965 22.3792 42.8965 23.8108C42.8965 25.2424 44.0545 26.4029 45.483 26.4029Z" fill="#FF80A1"/>
<path d="M45.0951 23.8108C45.0951 22.7737 45.7043 21.8814 46.5823 21.4671C46.2483 21.3094 45.8766 21.2188 45.483 21.2188C44.0546 21.2188 42.8965 22.3793 42.8965 23.8108C42.8965 25.2423 44.0546 26.4029 45.483 26.4029C45.8766 26.4029 46.2483 26.3121 46.5823 26.1545C45.7043 25.7402 45.0951 24.8479 45.0951 23.8108Z" fill="#F46080"/>
<path d="M33.3022 52.1706C33.8736 52.1706 34.3368 51.8224 34.3368 51.3929C34.3368 50.9634 33.8736 50.6152 33.3022 50.6152C32.7308 50.6152 32.2676 50.9634 32.2676 51.3929C32.2676 51.8224 32.7308 52.1706 33.3022 52.1706Z" fill="white"/>
<path d="M26.7123 52.1706C27.2838 52.1706 27.747 51.8224 27.747 51.3929C27.747 50.9634 27.2838 50.6152 26.7123 50.6152C26.1409 50.6152 25.6777 50.9634 25.6777 51.3929C25.6777 51.8224 26.1409 52.1706 26.7123 52.1706Z" fill="white"/>
<path d="M29.9384 53.775C29.3152 53.775 28.7454 53.4871 28.3749 52.9849C28.205 52.7548 28.2534 52.4301 28.4832 52.2599C28.7128 52.0896 29.0369 52.1381 29.2067 52.3685C29.5655 52.8546 30.3115 52.8546 30.6704 52.3685C30.8402 52.1382 31.1642 52.0898 31.3938 52.2599C31.6236 52.4301 31.672 52.7548 31.5022 52.9849C31.1315 53.4871 30.5617 53.775 29.9384 53.775Z" fill="#424242"/>
<path d="M27.0956 50.9713C26.7742 50.9713 26.5137 50.7101 26.5137 50.3881V49.9992C26.5137 49.677 26.7742 49.416 27.0956 49.416C27.417 49.416 27.6775 49.6772 27.6775 49.9992V50.3881C27.6776 50.7102 27.4171 50.9713 27.0956 50.9713Z" fill="#424242"/>
<path d="M32.9159 50.9713C32.5945 50.9713 32.334 50.7101 32.334 50.3881V49.9992C32.334 49.677 32.5945 49.416 32.9159 49.416C33.2373 49.416 33.4978 49.6772 33.4978 49.9992V50.3881C33.4978 50.7102 33.2373 50.9713 32.9159 50.9713Z" fill="#424242"/>
</g>
<defs>
<clipPath id="clip0_3113_26474">
<rect width="60" height="60" fill="white"/>
</clipPath>
</defs>
</svg>
