<svg width="60" height="60" viewBox="0 0 60 60" fill="none" xmlns="http://www.w3.org/2000/svg">
<path fill-rule="evenodd" clip-rule="evenodd" d="M6.39314 40.7961L17.4583 34.3863C19.536 33.1824 21.6469 32.3287 23.9314 33.069C26.4758 33.8961 30.6311 35.6669 34.8698 36.4307C36.4438 36.9409 37.4243 38.5149 36.9975 40.1123C36.5673 41.7097 35.22 42.5335 33.3124 42.2401L34.7964 42.4768C36.4938 42.7503 38.0513 42.5168 39.5387 41.6497L50.177 35.4535C58.4475 30.638 59.6614 38.0481 56.9135 39.7422L37.6044 51.6312C35.8302 52.7216 33.886 52.9784 31.8717 52.4382L17.8684 48.6864L12.6794 51.6812C11.6822 52.2548 10.4016 51.9113 9.82467 50.9141L5.62937 43.6507C5.05584 42.6536 5.39926 41.3729 6.39314 40.7961Z" fill="#F6DCCD"/>
<path fill-rule="evenodd" clip-rule="evenodd" d="M36.7469 40.7731C36.1567 41.9304 34.9361 42.4873 33.3154 42.2372C31.0243 41.6303 28.7299 41.0099 26.4388 40.3963C25.8252 40.2296 25.4616 39.5992 25.625 38.9857C25.7885 38.372 26.4221 38.0085 27.0358 38.1719L36.7469 40.7731Z" fill="#F1CBBC"/>
<path fill-rule="evenodd" clip-rule="evenodd" d="M6.39314 40.7961L17.4583 34.3863C19.536 33.1824 21.6469 32.3287 23.9314 33.069C25.292 33.5093 27.1162 34.2229 29.1637 34.9066L7.72702 47.2857L5.62937 43.6507C5.05584 42.6536 5.39926 41.3729 6.39314 40.7961Z" fill="#F1CBBC"/>
<path fill-rule="evenodd" clip-rule="evenodd" d="M7.67857 37.6074L16.456 53.1147C16.8795 53.8651 16.6128 54.8256 15.8657 55.2491L12.8777 56.9399C12.1307 57.3634 11.1702 57.0966 10.7434 56.3463L1.96928 40.839C1.54234 40.0886 1.80916 39.1282 2.55951 38.7046L5.54422 37.0138C6.29457 36.5903 7.25504 36.8571 7.67857 37.6074Z" fill="#D1D1D6"/>
<path fill-rule="evenodd" clip-rule="evenodd" d="M12.2946 48.2625L13.8453 51.007L15.3827 53.7216C15.8063 54.4687 15.5429 55.4257 14.7958 55.8527L15.863 55.249C16.61 54.8255 16.8767 53.865 16.4532 53.1147L14.9125 50.3901L11.8178 44.9208L8.71968 39.4482L7.6758 37.6074C7.30897 36.9572 6.53862 36.6703 5.85156 36.8805L7.6558 40.0686L10.7506 45.5377L12.2913 48.259L12.2946 48.2625Z" fill="#B1B1B5"/>
<path fill-rule="evenodd" clip-rule="evenodd" d="M5.48951 39.6211C4.90916 39.7044 4.50563 40.2481 4.58904 40.8283C4.67575 41.412 5.21599 41.8155 5.79963 41.7288C6.37987 41.6454 6.7834 41.1051 6.7001 40.5215C6.6134 39.9378 6.07304 39.5343 5.48951 39.6211Z" fill="#685E68"/>
<path fill-rule="evenodd" clip-rule="evenodd" d="M39.7176 34.2476C48.3663 34.2476 55.4117 27.2022 55.4117 18.5535C55.4117 9.91549 48.3663 2.85938 39.7176 2.85938C31.0796 2.85938 24.0234 9.91549 24.0234 18.5535C24.0234 27.2022 31.0796 34.2476 39.7176 34.2476Z" fill="#8AC9FE"/>
<path fill-rule="evenodd" clip-rule="evenodd" d="M38.6172 34.2095C46.7557 33.6428 53.2121 26.8327 53.2121 18.5535C53.2121 10.2844 46.7557 3.46514 38.6172 2.89761C38.98 2.87232 39.3461 2.85938 39.7151 2.85938C48.3638 2.85938 55.4092 9.91549 55.4092 18.5535C55.4092 27.2022 48.3638 34.2476 39.7151 34.2476C39.3461 34.2476 38.98 34.2348 38.6172 34.2095Z" fill="#60B7FF"/>
<path fill-rule="evenodd" clip-rule="evenodd" d="M31.1004 20.2414C30.4144 19.5554 30.4144 18.4416 31.1004 17.7556C31.7864 17.0696 32.9002 17.0696 33.5862 17.7556L36.7056 20.875L45.9177 12.5181C46.6363 11.8662 47.7488 11.9204 48.4006 12.6389C49.0524 13.3574 48.9982 14.4699 48.2797 15.1217L37.8275 24.6036C37.1331 25.2335 36.0666 25.2076 35.4037 24.5447L31.1004 20.2414Z" fill="#ECEFF1"/>
<path fill-rule="evenodd" clip-rule="evenodd" d="M29.1897 3.76635C29.2102 3.72082 29.2557 3.69141 29.3057 3.69141C29.3557 3.69141 29.401 3.72082 29.4215 3.76646C30.1381 5.31952 31.3928 6.57423 32.946 7.29082C32.9917 7.31129 33.021 7.3567 33.021 7.4067C33.021 7.4567 32.9917 7.50211 32.946 7.52258C31.3928 8.23929 30.1381 9.49399 29.4215 11.0472C29.4011 11.0927 29.3557 11.1221 29.3057 11.122C29.2557 11.122 29.2104 11.0927 29.1898 11.0471C28.4732 9.49399 27.2185 8.23929 25.6653 7.5227C25.6197 7.50211 25.5904 7.45682 25.5904 7.40682C25.5904 7.35682 25.6197 7.31141 25.6653 7.29094C27.2185 6.57423 28.4732 5.31952 29.1897 3.76635ZM16.9665 11.5778C16.9871 11.5322 17.0325 11.5028 17.0825 11.5029C17.1325 11.5029 17.1778 11.5322 17.1984 11.5779C17.915 13.1309 19.1697 14.3856 20.7228 15.1022C20.7685 15.1228 20.7978 15.1681 20.7978 15.2181C20.7978 15.2681 20.7685 15.3135 20.7228 15.334C19.1697 16.0507 17.915 17.3054 17.1985 18.8586C17.1779 18.9042 17.1325 18.9335 17.0825 18.9335C17.0325 18.9335 16.9872 18.9041 16.9666 18.8586C16.25 17.3054 14.9953 16.0507 13.4421 15.3341C13.3965 15.3136 13.3672 15.2682 13.3672 15.2182C13.3672 15.1682 13.3965 15.1228 13.4421 15.1023C14.9953 14.3856 16.25 13.1309 16.9665 11.5778ZM25.284 21.7296C25.3045 21.6841 25.3499 21.6547 25.3999 21.6547C25.4499 21.6548 25.4953 21.6841 25.5158 21.7298C26.2325 23.2828 27.4872 24.5375 29.0404 25.2541C29.0859 25.2746 29.1152 25.32 29.1152 25.37C29.1152 25.42 29.0859 25.4654 29.0402 25.4859C27.4872 26.2026 26.2325 27.4573 25.5159 29.0105C25.4953 29.056 25.45 29.0854 25.4 29.0854C25.3499 29.0853 25.3046 29.056 25.2841 29.0103C24.5674 27.4573 23.3127 26.2026 21.7595 25.486C21.7139 25.4655 21.6846 25.4201 21.6846 25.3701C21.6846 25.3201 21.714 25.2747 21.7595 25.2542C23.3127 24.5375 24.5674 23.2828 25.284 21.7296Z" fill="#FFE177"/>
<path fill-rule="evenodd" clip-rule="evenodd" d="M29.0982 3.9467C29.1277 3.88705 29.1565 3.82694 29.1844 3.76635C29.205 3.72082 29.2504 3.69141 29.3004 3.69141C29.3504 3.69141 29.3957 3.72082 29.4163 3.76646C30.1329 5.31952 31.3876 6.57423 32.9408 7.29082C32.9864 7.31129 33.0157 7.3567 33.0157 7.4067C33.0157 7.4567 32.9864 7.50211 32.9408 7.52258C31.3876 8.23929 30.1329 9.49399 29.4163 11.0472C29.3958 11.0927 29.3504 11.1221 29.3004 11.122C29.2504 11.122 29.2051 11.0927 29.1845 11.0471C29.1566 10.9866 29.1278 10.9265 29.0983 10.8668C29.8269 9.39693 31.0438 8.21129 32.5364 7.52258C32.5821 7.50211 32.6114 7.4567 32.6114 7.4067C32.6114 7.3567 32.5821 7.31129 32.5364 7.29082C31.0438 6.60223 29.8269 5.41658 29.0982 3.9467ZM16.875 11.7581C16.9045 11.6985 16.9334 11.6383 16.9612 11.5778C16.9818 11.5322 17.0272 11.5028 17.0772 11.5029C17.1272 11.5029 17.1725 11.5322 17.1931 11.5779C17.9097 13.1309 19.1644 14.3856 20.7176 15.1022C20.7632 15.1228 20.7925 15.1681 20.7925 15.2181C20.7925 15.2681 20.7632 15.3135 20.7176 15.334C19.1644 16.0507 17.9097 17.3054 17.1932 18.8586C17.1726 18.9042 17.1272 18.9335 17.0772 18.9335C17.0272 18.9335 16.9819 18.9041 16.9614 18.8586C16.9335 18.798 16.9046 18.7379 16.8751 18.6782C17.6037 17.2083 18.8206 16.0227 20.3132 15.334C20.3589 15.3135 20.3882 15.2681 20.3882 15.2181C20.3882 15.1681 20.3589 15.1228 20.3132 15.1022C18.8206 14.4136 17.6037 13.228 16.875 11.7581ZM25.1924 21.91C25.2221 21.8503 25.2508 21.7902 25.2788 21.7296C25.2992 21.6841 25.3446 21.6547 25.3946 21.6547C25.4446 21.6548 25.4901 21.6841 25.5105 21.7298C26.2272 23.2828 27.4819 24.5375 29.0351 25.2541C29.0806 25.2746 29.1099 25.32 29.1099 25.37C29.1099 25.42 29.0806 25.4654 29.035 25.4859C27.4819 26.2026 26.2272 27.4573 25.5106 29.0105C25.4901 29.056 25.4448 29.0854 25.3948 29.0854C25.3446 29.0853 25.2994 29.056 25.2789 29.0103C25.2509 28.9499 25.2222 28.8898 25.1925 28.8301C25.9211 27.3602 27.1382 26.1746 28.6306 25.4859C28.6763 25.4654 28.7057 25.42 28.7057 25.37C28.7057 25.32 28.6763 25.2746 28.6308 25.2541C27.1382 24.5655 25.9211 23.3799 25.1924 21.91Z" fill="#FFD064"/>
</svg>
