<svg width="23" height="45" viewBox="0 0 23 45" fill="none" xmlns="http://www.w3.org/2000/svg">
<path d="M6.07875 5.75684L8.51562 1.73949C9.01 0.925745 10.0731 0.681838 10.8792 1.18934C13.9556 3.12878 16.5816 5.71801 18.5671 8.76214L15.4278 11.7736L11.8548 13.2512C10.5106 11.1654 8.72453 9.39028 6.63 8.05918C5.85125 7.56481 5.60078 6.54543 6.07875 5.75684Z" fill="#70C6DB"/>
<path d="M16.5558 10.114L18.5793 8.76058C18.9818 9.37713 19.358 10.0123 19.7062 10.6647C17.6394 6.79129 14.5898 3.52163 10.8895 1.18943C10.0842 0.681927 9.02028 0.925505 8.52656 1.73936L8.26953 2.16308C8.50053 2.19065 8.72934 2.26699 8.93956 2.39944C12.0331 4.34927 14.6446 6.99396 16.5558 10.114Z" fill="#64B0CB"/>
<path d="M22.6573 22.4921L18.5814 23.5859L14.5807 22.4921C14.5807 19.0864 13.5843 15.9142 11.8672 13.2496L18.5814 8.75879C21.1594 12.7077 22.6573 17.425 22.6573 22.4921Z" fill="#ECC52E"/>
<path d="M22.6541 22.4921C22.6005 22.151 23.037 15.5889 18.5782 8.75879L16.5547 10.1122C18.7626 13.7165 20.0359 17.9554 20.0359 22.4921H22.6541Z" fill="#E69824"/>
<path d="M18.5814 36.2254L14.8846 34.3004L11.8672 31.7347C13.5843 29.0701 14.5807 25.8979 14.5807 22.4922H22.6574C22.6572 27.5592 21.1594 32.2765 18.5814 36.2254Z" fill="#E69642"/>
<path d="M20.0359 22.4922C20.0359 27.0288 18.7625 31.2677 16.5547 34.8721L18.5782 36.2255C21.2374 32.1524 22.6541 27.4043 22.6541 22.4922H20.0359Z" fill="#E27C48"/>
<path d="M8.5164 43.2464L6.07952 39.2298C5.60046 38.44 5.85093 37.422 6.63 36.9263C8.72541 35.5957 10.5114 33.8203 11.855 31.7344L18.5692 36.2251C16.5829 39.2692 13.9552 41.8564 10.8791 43.7965C10.0739 44.304 9.00968 44.0598 8.5164 43.2464Z" fill="#DF646E"/>
<path d="M18.5793 36.2255L16.5558 34.8721C14.6446 37.9922 12.033 40.6369 8.93934 42.5868C8.72923 42.7193 8.50042 42.7955 8.26953 42.8232L8.52656 43.2468C8.64994 43.4502 8.80897 43.618 8.99075 43.7473C9.53587 44.1353 10.2854 44.1774 10.8893 43.7967C13.951 41.8659 16.5847 39.2823 18.5793 36.2255Z" fill="#CD5668"/>
<path d="M16.1491 15.7485L4.38672 19.1944L7.66075 24.8651L16.5261 16.4015C16.8203 16.1207 16.5394 15.6342 16.1491 15.7485Z" fill="#6CBFF8"/>
<path d="M9.63038 22.489C9.63038 20.0595 7.66086 18.0898 5.2312 18.0898C2.80155 18.0898 0.832031 20.0595 0.832031 22.489C0.832031 24.9186 2.80166 26.8882 5.2312 26.8882C7.66075 26.8882 9.63038 24.9186 9.63038 22.489Z" fill="#407194"/>
</svg>
