<svg width="40" height="40" viewBox="0 0 40 40" fill="none" xmlns="http://www.w3.org/2000/svg">
<g clip-path="url(#clip0_2335_2229)">
<path d="M28.1676 8.40067L29.9082 5.53114C30.2613 4.94989 31.0207 4.77567 31.5965 5.13817C33.7939 6.52348 35.6696 8.37294 37.0878 10.5473L34.8455 12.6983L32.2934 13.7538C31.3332 12.264 30.0574 10.996 28.5613 10.0452C28.0051 9.69208 27.8262 8.96395 28.1676 8.40067Z" fill="#70C6DB"/>
<path d="M35.6434 11.5134L37.0887 10.5467C37.3762 10.9871 37.6449 11.4408 37.8937 11.9068C36.4173 9.14005 34.2391 6.80458 31.596 5.13872C31.0208 4.77622 30.2609 4.95021 29.9082 5.53154L29.7246 5.83419C29.8896 5.85388 30.053 5.90841 30.2032 6.00302C32.4129 7.39575 34.2782 9.28482 35.6434 11.5134Z" fill="#64B0CB"/>
<path d="M40.0002 20.3559L37.0888 21.1372L34.2312 20.3559C34.2312 17.9233 33.5195 15.6574 32.293 13.7541L37.0888 10.5464C38.9302 13.367 40.0002 16.7365 40.0002 20.3559Z" fill="#ECC52E"/>
<path d="M39.9993 20.3559C39.961 20.1122 40.2728 15.4251 37.088 10.5464L35.6426 11.5131C37.2197 14.0876 38.1291 17.1154 38.1291 20.3559H39.9993Z" fill="#E69824"/>
<path d="M37.0888 30.1654L34.4483 28.7904L32.293 26.9578C33.5195 25.0545 34.2312 22.7886 34.2312 20.356H40.0002C40.0002 23.9753 38.9302 27.3448 37.0888 30.1654Z" fill="#E69642"/>
<path d="M38.1291 20.356C38.1291 23.5964 37.2196 26.6242 35.6426 29.1988L37.088 30.1655C38.9873 27.2561 39.9993 23.8646 39.9993 20.356H38.1291Z" fill="#E27C48"/>
<path d="M29.9088 35.1809L28.1681 32.3119C27.8259 31.7478 28.0048 31.0206 28.5613 30.6665C30.058 29.7161 31.3338 28.4479 32.2934 26.958L37.0893 30.1657C35.6705 32.34 33.7936 34.188 31.5964 35.5738C31.0213 35.9363 30.2611 35.7619 29.9088 35.1809Z" fill="#DF646E"/>
<path d="M37.0887 30.1654L35.6434 29.1987C34.2782 31.4274 32.4128 33.3165 30.203 34.7093C30.053 34.8039 29.8895 34.8583 29.7246 34.8781L29.9082 35.1807C29.9963 35.326 30.1099 35.4458 30.2398 35.5382C30.6291 35.8153 31.1645 35.8454 31.5959 35.5735C33.7828 34.1944 35.664 32.3489 37.0887 30.1654Z" fill="#CD5668"/>
<path d="M35.3588 15.5391L26.957 18.0004L29.2956 22.0509L35.628 16.0055C35.8381 15.8049 35.6375 15.4574 35.3588 15.5391Z" fill="#6CBFF8"/>
<path d="M30.6966 20.3561C30.6966 18.6207 29.2898 17.2139 27.5544 17.2139C25.8189 17.2139 24.4121 18.6207 24.4121 20.3561C24.4121 22.0915 25.819 23.4984 27.5544 23.4984C29.2898 23.4984 30.6966 22.0915 30.6966 20.3561Z" fill="#407194"/>
<path d="M23.639 12.9171L21.9416 11.5528C20.9003 10.7159 20.3578 9.40594 20.5022 8.07789L20.7378 5.91289C20.8017 5.32508 20.3056 4.82898 19.7178 4.89289L17.5528 5.12844C16.2247 5.27289 14.9147 4.73031 14.0778 3.68906L12.7135 1.99164C12.3431 1.53078 11.6414 1.53078 11.271 1.99164L9.90674 3.68906C9.06986 4.73031 7.75986 5.27289 6.43182 5.12844L4.26689 4.89297C3.67908 4.82898 3.18299 5.32516 3.24689 5.91297L3.48244 8.07797C3.62689 9.40602 3.08432 10.716 2.04307 11.5529L0.345645 12.9171C-0.115215 13.2875 -0.115215 13.9892 0.345645 14.3596L2.04307 15.7239C3.08432 16.5608 3.62689 17.8708 3.48244 19.1988L3.24689 21.3638C3.18291 21.9516 3.67908 22.4477 4.26689 22.3838L6.43189 22.1483C7.75994 22.0038 9.06994 22.5464 9.90682 23.5877L11.2711 25.2851C11.6415 25.7459 12.3432 25.7459 12.7136 25.2851L14.0779 23.5877C14.9148 22.5464 16.2248 22.0038 17.5528 22.1483L19.7178 22.3838C20.3056 22.4478 20.8017 21.9516 20.7378 21.3638L20.5023 19.1988C20.3578 17.8708 20.9004 16.5608 21.9417 15.7239L23.6391 14.3596C24.0999 13.9892 24.0999 13.2876 23.639 12.9171Z" fill="#ECC52E"/>
<path d="M11.9927 20.3614C15.7059 20.3614 18.7159 17.3514 18.7159 13.6382C18.7159 9.92512 15.7059 6.91504 11.9927 6.91504C8.27961 6.91504 5.26953 9.92512 5.26953 13.6382C5.26953 17.3514 8.27961 20.3614 11.9927 20.3614Z" fill="#E69642"/>
<path d="M13.773 7.15527C15.2378 8.38855 16.1695 10.235 16.1695 12.2998C16.1695 16.0129 13.1594 19.023 9.44625 19.023C8.82969 19.023 8.2332 18.9384 7.66602 18.7829C8.83539 19.7675 10.3444 20.3616 11.9927 20.3616C15.7059 20.3616 18.7159 17.3515 18.7159 13.6384C18.7159 10.5418 16.6217 7.9359 13.773 7.15527Z" fill="#E27C48"/>
<path d="M9.62398 16.1034H9.14477C8.21734 16.1034 7.46289 15.3488 7.46289 14.4214V11.7774C7.46289 11.444 7.73312 11.1738 8.06648 11.1738C8.39984 11.1738 8.67008 11.4441 8.67008 11.7774V14.4214C8.67008 14.6831 8.88297 14.8961 9.14469 14.8961H9.62391C9.88562 14.8961 10.0986 14.6831 10.0986 14.4214V11.7774C10.0986 11.444 10.3688 11.1738 10.7022 11.1738C11.0355 11.1738 11.3058 11.4441 11.3058 11.7774V14.4214C11.3059 15.3488 10.5513 16.1034 9.62398 16.1034Z" fill="#DDEBFD"/>
<path d="M14.4634 15.9691C14.0994 15.969 13.785 15.7475 13.6626 15.4047L12.4396 11.9802C12.3275 11.6662 12.4911 11.3208 12.8051 11.2087C13.1189 11.0969 13.4644 11.2602 13.5766 11.5742L14.4634 14.0576L15.3503 11.5742C15.4624 11.2602 15.8078 11.0965 16.1218 11.2087C16.4358 11.3209 16.5994 11.6662 16.4873 11.9802L15.2643 15.4047C15.1417 15.7475 14.8274 15.9691 14.4634 15.9691Z" fill="#DDEBFD"/>
<path d="M6.12117 38.3541C5.78781 38.3541 5.51758 38.0839 5.51758 37.7505C5.51758 36.9004 5.80336 36.4437 6.03305 36.0765C6.22555 35.7689 6.36461 35.5465 6.36461 35.043C6.36461 34.5395 6.22555 34.3172 6.03305 34.0096C5.80344 33.6426 5.51758 33.1858 5.51758 32.3356C5.51758 31.4855 5.80336 31.0288 6.03305 30.6618C6.22555 30.3541 6.36461 30.1319 6.36461 29.6285C6.36461 29.2951 6.63484 29.0249 6.9682 29.0249C7.30156 29.0249 7.5718 29.2951 7.5718 29.6285C7.5718 30.4785 7.28602 30.9352 7.05633 31.3022C6.86383 31.6099 6.72477 31.8322 6.72477 32.3356C6.72477 32.8392 6.86383 33.0615 7.05633 33.3691C7.28602 33.7362 7.5718 34.1929 7.5718 35.043C7.5718 35.8932 7.28602 36.3499 7.05633 36.717C6.86383 37.0247 6.72477 37.247 6.72477 37.7505C6.72477 38.084 6.45453 38.3541 6.12117 38.3541Z" fill="#75CFF9"/>
<path d="M11.5684 38.3541C11.2351 38.3541 10.9648 38.0839 10.9648 37.7505C10.9648 36.9004 11.2506 36.4437 11.4803 36.0765C11.6728 35.7689 11.8119 35.5465 11.8119 35.043C11.8119 34.5395 11.6728 34.3172 11.4803 34.0096C11.2507 33.6426 10.9648 33.1858 10.9648 32.3356C10.9648 31.4855 11.2506 31.0288 11.4803 30.6618C11.6728 30.3541 11.8119 30.1319 11.8119 29.6285C11.8119 29.2951 12.0821 29.0249 12.4155 29.0249C12.7488 29.0249 13.0191 29.2951 13.0191 29.6285C13.0191 30.4785 12.7333 30.9352 12.5036 31.3022C12.3111 31.6099 12.172 31.8322 12.172 32.3356C12.172 32.8392 12.3111 33.0615 12.5036 33.3691C12.7333 33.7362 13.0191 34.1929 13.0191 35.043C13.0191 35.8932 12.7333 36.3499 12.5036 36.717C12.3111 37.0247 12.172 37.247 12.172 37.7505C12.1721 38.084 11.9019 38.3541 11.5684 38.3541Z" fill="#75CFF9"/>
<path d="M17.0157 38.3541C16.6823 38.3541 16.4121 38.0839 16.4121 37.7505C16.4121 36.9004 16.6979 36.4437 16.9276 36.0765C17.1201 35.7689 17.2591 35.5465 17.2591 35.043C17.2591 34.5395 17.1201 34.3172 16.9276 34.0096C16.698 33.6426 16.4121 33.1858 16.4121 32.3356C16.4121 31.4855 16.6979 31.0288 16.9276 30.6618C17.1201 30.3541 17.2591 30.1319 17.2591 29.6285C17.2591 29.2951 17.5294 29.0249 17.8627 29.0249C18.1961 29.0249 18.4663 29.2951 18.4663 29.6285C18.4663 30.4785 18.1805 30.9352 17.9509 31.3022C17.7584 31.6099 17.6193 31.8322 17.6193 32.3356C17.6193 32.8392 17.7584 33.0615 17.9509 33.3691C18.1805 33.7362 18.4663 34.1929 18.4663 35.043C18.4663 35.8932 18.1805 36.3499 17.9509 36.717C17.7584 37.0247 17.6193 37.247 17.6193 37.7505C17.6194 38.084 17.3491 38.3541 17.0157 38.3541Z" fill="#75CFF9"/>
</g>
<defs>
<clipPath id="clip0_2335_2229">
<rect width="40" height="40" fill="white"/>
</clipPath>
</defs>
</svg>
