<svg width="14" height="14" viewBox="0 0 14 14" fill="none" xmlns="http://www.w3.org/2000/svg">
<g clip-path="url(#clip0_2639_3076)">
<path d="M13.9605 11.3779L12.8889 9.16337L13.6507 7.71757C13.8074 7.32631 13.6504 6.90883 13.3337 6.69661C12.9295 6.4258 12.3199 6.53662 12.0796 7.08019L12.0781 7.08361L10.6278 10.2072H6.55966L6.5593 10.2057H5.61887L5.61923 10.2072H1.80078C1.38488 10.2072 0.953125 10.5147 0.953125 11.1191C0.953125 11.7063 1.36522 12.0302 1.80078 12.0302H2.51648L1.90748 13.2025C1.79096 13.4262 1.87775 13.7018 2.10126 13.8183C2.3248 13.9345 2.60015 13.8485 2.71707 13.6242L3.54572 12.0302H6.06807L6.43404 13.5223C6.49445 13.7669 6.74087 13.9171 6.98655 13.8567C7.23136 13.7964 7.38107 13.5491 7.32088 13.3042L7.00848 12.0302H10.5279L11.3566 13.6242C11.4726 13.8469 11.7478 13.9351 11.9724 13.8183C12.1959 13.7018 12.2827 13.4261 12.1662 13.2025L11.5572 12.0302H13.5494C13.8854 12.0302 14.1069 11.6809 13.9605 11.3779ZM11.8578 11.1202L12.36 10.1671L12.8213 11.1202H11.8578Z" fill="white"/>
<path d="M9.8729 4.58131C9.19595 2.05567 6.69889 0.497272 4.1696 0.934553L4.04543 0.471268C3.98005 0.227389 3.73097 0.0832602 3.48606 0.148502C3.24264 0.213745 3.09819 0.463995 3.16329 0.707545L3.2874 1.1708C0.878912 2.05611 -0.505147 4.65508 0.171556 7.18074C0.236416 7.42268 0.486009 7.56929 0.730927 7.50351L4.68995 6.44268L5.38803 9.28298H6.32847L5.57225 6.20626L9.55016 5.14038C9.79453 5.07475 9.93765 4.82382 9.8729 4.58131Z" fill="white"/>
</g>
<defs>
<clipPath id="clip0_2639_3076">
<rect width="14" height="14" fill="white"/>
</clipPath>
</defs>
</svg>
