<svg width="49" height="48" viewBox="0 0 49 48" fill="none" xmlns="http://www.w3.org/2000/svg">
<g clip-path="url(#clip0_2380_2355)">
<path d="M18.1016 30.894L20.5397 17.1797H24.3492L21.9873 30.894H18.1016Z" fill="#3C58BF"/>
<path d="M18.1016 30.894L21.2254 17.1797H24.3492L21.9873 30.894H18.1016Z" fill="#293688"/>
<path d="M35.7821 17.3322C35.0202 17.0274 33.8012 16.7227 32.2774 16.7227C28.4679 16.7227 25.725 18.6274 25.725 21.3703C25.725 23.4274 27.6298 24.4941 29.1536 25.1798C30.6774 25.8655 31.1345 26.3227 31.1345 26.9322C31.1345 27.8465 29.9155 28.3036 28.8488 28.3036C27.325 28.3036 26.4869 28.075 25.1917 27.5417L24.6583 27.3131L24.125 30.4369C25.0393 30.8179 26.7155 31.1988 28.4679 31.1988C32.506 31.1988 35.1726 29.2941 35.1726 26.3988C35.1726 24.7988 34.1821 23.5798 31.8964 22.5893C30.525 21.9036 29.6869 21.5227 29.6869 20.8369C29.6869 20.2274 30.3726 19.6179 31.8964 19.6179C33.1917 19.6179 34.106 19.8465 34.7917 20.1512L35.1726 20.3036L35.7821 17.3322Z" fill="#3C58BF"/>
<path d="M35.7821 17.3322C35.0202 17.0274 33.8012 16.7227 32.2774 16.7227C28.4679 16.7227 26.4107 18.6274 26.4107 21.3703C26.4107 23.4274 27.6298 24.4941 29.1536 25.1798C30.6774 25.8655 31.1345 26.3227 31.1345 26.9322C31.1345 27.8465 29.9155 28.3036 28.8488 28.3036C27.325 28.3036 26.4869 28.075 25.1917 27.5417L24.6583 27.3131L24.125 30.4369C25.0393 30.8179 26.7155 31.1988 28.4679 31.1988C32.506 31.1988 35.1726 29.2941 35.1726 26.3988C35.1726 24.7988 34.1821 23.5798 31.8964 22.5893C30.525 21.9036 29.6869 21.5227 29.6869 20.8369C29.6869 20.2274 30.3726 19.6179 31.8964 19.6179C33.1917 19.6179 34.106 19.8465 34.7917 20.1512L35.1726 20.3036L35.7821 17.3322Z" fill="#293688"/>
<path d="M42.3281 17.1797C41.4138 17.1797 40.7281 17.2559 40.3471 18.1702L34.6328 30.894H38.7471L39.509 28.6083H44.3852L44.8423 30.894H48.4995L45.2995 17.1797H42.3281ZM40.5757 26.3225C40.8042 25.6368 42.0995 22.2845 42.0995 22.2845C42.0995 22.2845 42.4042 21.4464 42.6328 20.913L42.8614 22.2083C42.8614 22.2083 43.6233 25.6368 43.7757 26.3987H40.5757V26.3225Z" fill="#3C58BF"/>
<path d="M43.2423 17.1797C42.3281 17.1797 41.6423 17.2559 41.2614 18.1702L34.6328 30.894H38.7471L39.509 28.6083H44.3852L44.8423 30.894H48.4995L45.2995 17.1797H43.2423ZM40.5757 26.3225C40.8804 25.5606 42.0995 22.2845 42.0995 22.2845C42.0995 22.2845 42.4042 21.4464 42.6328 20.913L42.8614 22.2083C42.8614 22.2083 43.6233 25.6368 43.7757 26.3987H40.5757V26.3225Z" fill="#293688"/>
<path d="M11.0893 26.7816L10.7083 24.8007C10.0226 22.515 7.8131 20.0007 5.375 18.7816L8.80357 30.9721H12.9179L19.0893 17.2578H14.975L11.0893 26.7816Z" fill="#3C58BF"/>
<path d="M11.0893 26.7816L10.7083 24.8007C10.0226 22.515 7.8131 20.0007 5.375 18.7816L8.80357 30.9721H12.9179L19.0893 17.2578H15.7369L11.0893 26.7816Z" fill="#293688"/>
<path d="M0.5 17.1797L1.18571 17.3321C6.06191 18.4749 9.41429 21.3702 10.7095 24.7987L9.3381 18.3225C9.10952 17.4083 8.42381 17.1797 7.58572 17.1797H0.5Z" fill="#FFBC00"/>
<path d="M0.5 17.1797C5.37619 18.3225 9.41429 21.294 10.7095 24.7225L9.41429 19.313C9.18571 18.3987 8.42381 17.8654 7.58572 17.8654L0.5 17.1797Z" fill="#F7981D"/>
<path d="M0.5 17.1797C5.37619 18.3225 9.41429 21.294 10.7095 24.7225L9.79524 21.7511C9.56667 20.8368 9.26191 19.9225 8.19524 19.5416L0.5 17.1797Z" fill="#ED7C00"/>
<path d="M14.9086 26.3261L12.3181 23.7356L11.099 26.6308L10.7943 24.7261C10.1086 22.4404 7.89903 19.9261 5.46094 18.707L8.88951 30.8975H13.0038L14.9086 26.3261Z" fill="#051244"/>
<path d="M21.9951 30.8993L18.7189 27.5469L18.1094 30.8993H21.9951Z" fill="#051244"/>
<path d="M30.7614 26.1719C31.0661 26.4766 31.2185 26.7052 31.1423 27.01C31.1423 27.9243 29.9233 28.3814 28.8566 28.3814C27.3328 28.3814 26.4947 28.1528 25.1995 27.6195L24.6661 27.3909L24.1328 30.5147C25.0471 30.8957 26.7233 31.2766 28.4757 31.2766C30.9138 31.2766 32.8947 30.5909 34.0376 29.3719L30.7614 26.1719Z" fill="#051244"/>
<path d="M35.1719 30.8989H38.7528L39.5147 28.6132H44.3909L44.8481 30.8989H48.5052L47.21 25.337L42.6385 20.918L42.8671 22.137C42.8671 22.137 43.629 25.5656 43.7814 26.3275H40.5814C40.8862 25.5656 42.1052 22.2894 42.1052 22.2894C42.1052 22.2894 42.41 21.4513 42.6385 20.918" fill="#051244"/>
</g>
<defs>
<clipPath id="clip0_2380_2355">
<rect width="48" height="48" fill="white" transform="translate(0.5)"/>
</clipPath>
</defs>
</svg>
