<svg width="48" height="48" viewBox="0 0 48 48" fill="none" xmlns="http://www.w3.org/2000/svg">
<g clip-path="url(#clip0_3236_29521)">
<path d="M29.0461 29.9437C35.1143 29.9437 40.0336 25.0245 40.0336 18.9562C40.0336 12.888 35.1143 7.96875 29.0461 7.96875C22.9779 7.96875 18.0586 12.888 18.0586 18.9562C18.0586 25.0245 22.9779 29.9437 29.0461 29.9437Z" fill="url(#paint0_linear_3236_29521)"/>
<path d="M29.0461 6.09375C28.3992 6.09375 27.8742 5.56875 27.8742 4.92188V1.17188C27.8742 0.525 28.3992 0 29.0461 0C29.693 0 30.218 0.525 30.218 1.17188V4.92188C30.218 5.56875 29.693 6.09375 29.0461 6.09375ZM29.0461 37.9125C28.3992 37.9125 27.8742 37.3875 27.8742 36.7406V32.9906C27.8742 32.3438 28.3992 31.8187 29.0461 31.8187C29.693 31.8187 30.218 32.3438 30.218 32.9906V36.7406C30.218 37.3875 29.693 37.9125 29.0461 37.9125ZM41.9086 18.9562C41.9086 18.3094 42.4336 17.7844 43.0805 17.7844H46.8305C47.4773 17.7844 48.0023 18.3094 48.0023 18.9562C48.0023 19.6031 47.4773 20.1281 46.8305 20.1281H43.0805C42.4336 20.1281 41.9086 19.6031 41.9086 18.9562ZM10.0898 18.9562C10.0898 18.3094 10.6148 17.7844 11.2617 17.7844H15.0117C15.6586 17.7844 16.1836 18.3094 16.1836 18.9562C16.1836 19.6031 15.6586 20.1281 15.0117 20.1281H11.2617C10.6148 20.1281 10.0898 19.6031 10.0898 18.9562ZM38.1398 28.05C38.5992 27.5906 39.3398 27.5906 39.7992 28.05L42.4523 30.7031C42.9117 31.1625 42.9117 31.9031 42.4523 32.3625C41.993 32.8219 41.2523 32.8219 40.793 32.3625L38.1398 29.7094C37.6805 29.25 37.6805 28.5094 38.1398 28.05ZM15.6398 5.55C16.0992 5.09063 16.8398 5.09063 17.2992 5.55L19.9523 8.20312C20.4117 8.6625 20.4117 9.40312 19.9523 9.8625C19.493 10.3219 18.7523 10.3219 18.293 9.8625L15.6398 7.20938C15.1898 6.75 15.1898 6.00938 15.6398 5.55ZM19.9523 28.05C20.4117 28.5094 20.4117 29.25 19.9523 29.7094L17.2992 32.3625C16.8398 32.8219 16.0992 32.8219 15.6398 32.3625C15.1805 31.9031 15.1805 31.1625 15.6398 30.7031L18.293 28.05C18.7523 27.5906 19.493 27.5906 19.9523 28.05ZM42.4523 5.55C42.9117 6.00938 42.9117 6.75 42.4523 7.20938L39.7992 9.8625C39.3398 10.3219 38.5992 10.3219 38.1398 9.8625C37.6805 9.40312 37.6805 8.6625 38.1398 8.20312L40.793 5.55C41.2523 5.09063 41.993 5.09063 42.4523 5.55Z" fill="url(#paint1_linear_3236_29521)"/>
<path d="M42.4031 30.582C42.8062 29.6258 43.0312 28.5664 43.0312 27.4602C43.0312 23.0445 39.4594 19.4727 35.0437 19.4727C33.1781 19.4727 31.4719 20.1195 30.1125 21.1883C28.4625 16.7445 24.1781 13.5664 19.1531 13.5664C12.7031 13.5664 7.47187 18.7977 7.47187 25.2477C7.47187 25.5852 7.49062 25.9133 7.51875 26.2414C3.31875 26.532 0 30.0195 0 34.2945C0 38.5695 3.61875 42.3758 8.08125 42.3758H42.0938C45.3563 42.3758 48 39.732 48 36.4695C48 33.3195 45.5156 30.7414 42.4031 30.582Z" fill="url(#paint2_linear_3236_29521)"/>
<path d="M17.4375 41.4375C17.4375 42.0844 16.9125 42.6094 16.2656 42.6094H13.7062L15.5156 44.4187C15.975 44.8781 15.975 45.6187 15.5156 46.0781C15.0562 46.5375 14.3156 46.5375 13.8563 46.0781L12.0469 44.2688V46.8281C12.0469 47.475 11.5219 48 10.875 48C10.2281 48 9.70312 47.475 9.70312 46.8281V44.2688L7.89375 46.0781C7.43437 46.5375 6.69375 46.5375 6.23438 46.0781C5.775 45.6187 5.775 44.8781 6.23438 44.4187L8.04375 42.6094H5.48438C4.8375 42.6094 4.3125 42.0844 4.3125 41.4375C4.3125 40.7906 4.8375 40.2656 5.48438 40.2656H8.04375L6.23438 38.4563C5.775 37.9969 5.775 37.2562 6.23438 36.7969C6.69375 36.3375 7.43437 36.3375 7.89375 36.7969L9.70312 38.6062V36.0469C9.70312 35.4 10.2281 34.875 10.875 34.875C11.5219 34.875 12.0469 35.4 12.0469 36.0469V38.6062L13.8563 36.7969C14.3156 36.3375 15.0562 36.3375 15.5156 36.7969C15.975 37.2562 15.975 37.9969 15.5156 38.4563L13.7062 40.2656H16.2656C16.9125 40.2656 17.4375 40.7906 17.4375 41.4375Z" fill="url(#paint3_linear_3236_29521)"/>
<path d="M29.3906 30.5703H26.8313L28.6406 28.7609C29.1 28.3016 29.1 27.5609 28.6406 27.1016C28.1812 26.6422 27.4406 26.6422 26.9812 27.1016L25.1719 28.9109V26.3516C25.1719 25.7047 24.6469 25.1797 24 25.1797C23.3531 25.1797 22.8281 25.7047 22.8281 26.3516V28.9109L21.0187 27.1016C20.5594 26.6422 19.8187 26.6422 19.3594 27.1016C18.9 27.5609 18.9 28.3016 19.3594 28.7609L21.1688 30.5703H18.6094C17.9625 30.5703 17.4375 31.0953 17.4375 31.7422C17.4375 32.3891 17.9625 32.9141 18.6094 32.9141H21.1688L19.3594 34.7234C18.9 35.1828 18.9 35.9234 19.3594 36.3828C19.8187 36.8422 20.5594 36.8422 21.0187 36.3828L22.8281 34.5734V37.1328C22.8281 37.7797 23.3531 38.3047 24 38.3047C24.6469 38.3047 25.1719 37.7797 25.1719 37.1328V34.5734L26.9812 36.3828C27.4406 36.8422 28.1812 36.8422 28.6406 36.3828C29.1 35.9234 29.1 35.1828 28.6406 34.7234L26.8313 32.9141H29.3906C30.0375 32.9141 30.5625 32.3891 30.5625 31.7422C30.5625 31.0953 30.0375 30.5703 29.3906 30.5703Z" fill="url(#paint4_linear_3236_29521)"/>
<path d="M42.5156 38.1289H39.9563L41.7656 36.3195C42.225 35.8602 42.225 35.1195 41.7656 34.6602C41.3062 34.2008 40.5656 34.2008 40.1062 34.6602L38.2969 36.4695V33.9102C38.2969 33.2633 37.7719 32.7383 37.125 32.7383C36.4781 32.7383 35.9531 33.2633 35.9531 33.9102V36.4695L34.1438 34.6602C33.6844 34.2008 32.9437 34.2008 32.4844 34.6602C32.025 35.1195 32.025 35.8602 32.4844 36.3195L34.2937 38.1289H31.7344C31.0875 38.1289 30.5625 38.6539 30.5625 39.3008C30.5625 39.9477 31.0875 40.4727 31.7344 40.4727H34.2937L32.4844 42.282C32.025 42.7414 32.025 43.482 32.4844 43.9414C32.9437 44.4008 33.6844 44.4008 34.1438 43.9414L35.9531 42.132V44.6914C35.9531 45.3383 36.4781 45.8633 37.125 45.8633C37.7719 45.8633 38.2969 45.3383 38.2969 44.6914V42.132L40.1062 43.9414C40.5656 44.4008 41.3062 44.4008 41.7656 43.9414C42.225 43.482 42.225 42.7414 41.7656 42.282L39.9563 40.4727H42.5156C43.1625 40.4727 43.6875 39.9477 43.6875 39.3008C43.6875 38.6539 43.1625 38.1289 42.5156 38.1289Z" fill="url(#paint5_linear_3236_29521)"/>
</g>
<defs>
<linearGradient id="paint0_linear_3236_29521" x1="29.047" y1="29.9419" x2="29.047" y2="7.96875" gradientUnits="userSpaceOnUse">
<stop stop-color="#FF9500"/>
<stop offset="1" stop-color="#FFDE26"/>
</linearGradient>
<linearGradient id="paint1_linear_3236_29521" x1="29.0475" y1="37.9097" x2="29.0475" y2="0" gradientUnits="userSpaceOnUse">
<stop stop-color="#FF9D00"/>
<stop offset="1" stop-color="#FFEB78"/>
</linearGradient>
<linearGradient id="paint2_linear_3236_29521" x1="24" y1="42.3758" x2="24" y2="13.5767" gradientUnits="userSpaceOnUse">
<stop stop-color="#0074DB"/>
<stop offset="1" stop-color="#61B8FF"/>
</linearGradient>
<linearGradient id="paint3_linear_3236_29521" x1="10.875" y1="48" x2="10.875" y2="34.875" gradientUnits="userSpaceOnUse">
<stop stop-color="#D1F2FF"/>
<stop offset="1" stop-color="#7CDEF8"/>
</linearGradient>
<linearGradient id="paint4_linear_3236_29521" x1="24" y1="38.3047" x2="24" y2="25.1797" gradientUnits="userSpaceOnUse">
<stop stop-color="#D1F2FF"/>
<stop offset="1" stop-color="#7CDEF8"/>
</linearGradient>
<linearGradient id="paint5_linear_3236_29521" x1="37.125" y1="45.8623" x2="37.125" y2="32.7373" gradientUnits="userSpaceOnUse">
<stop stop-color="#D1F2FF"/>
<stop offset="1" stop-color="#7CDEF8"/>
</linearGradient>
<clipPath id="clip0_3236_29521">
<rect width="48" height="48" fill="white"/>
</clipPath>
</defs>
</svg>
