<svg width="40" height="40" viewBox="0 0 40 40" fill="none" xmlns="http://www.w3.org/2000/svg">
<path d="M33.125 10C30.025 10 27.5 12.525 27.5 15.625C27.5 16.3125 28.0625 16.875 28.75 16.875C29.4375 16.875 30 16.3125 30 15.625C30 13.9 31.4 12.5 33.125 12.5C34.85 12.5 36.25 13.9 36.25 15.625C36.25 17.35 34.85 18.75 33.125 18.75H2.5C1.8125 18.75 1.25 19.3125 1.25 20C1.25 20.6875 1.8125 21.25 2.5 21.25H33.125C36.225 21.25 38.75 18.725 38.75 15.625C38.75 12.525 36.225 10 33.125 10Z" fill="#15BDFF"/>
<path d="M10 16.25H20.625C23.725 16.25 26.25 13.725 26.25 10.625C26.25 7.525 23.725 5 20.625 5C17.525 5 15 7.525 15 10.625C15 11.3125 15.5625 11.875 16.25 11.875C16.9375 11.875 17.5 11.3125 17.5 10.625C17.5 8.9 18.9 7.5 20.625 7.5C22.35 7.5 23.75 8.9 23.75 10.625C23.75 12.35 22.35 13.75 20.625 13.75H10C9.3125 13.75 8.75 14.3125 8.75 15C8.75 15.6875 9.3125 16.25 10 16.25Z" fill="#15BDFF"/>
<path d="M26.875 23.75H6.25C5.5625 23.75 5 24.3125 5 25C5 25.6875 5.5625 26.25 6.25 26.25H26.875C28.6 26.25 30 27.65 30 29.375C30 31.1 28.6 32.5 26.875 32.5C25.15 32.5 23.75 31.1 23.75 29.375C23.75 28.6875 23.1875 28.125 22.5 28.125C21.8125 28.125 21.25 28.6875 21.25 29.375C21.25 32.475 23.775 35 26.875 35C29.975 35 32.5 32.475 32.5 29.375C32.5 26.275 29.975 23.75 26.875 23.75Z" fill="#15BDFF"/>
</svg>
